<svg width="81" height="21" viewBox="0 0 81 21" fill="none" xmlns="http://www.w3.org/2000/svg">
<g opacity="0.5">
<path d="M71.463 14.318C65.3647 15.2519 59.684 16.0818 54.0035 17.0156C53.5858 17.1193 53.2517 17.7419 52.3327 18.6757C55.006 19.0907 57.0944 19.6094 59.1828 19.7132C64.6963 19.9207 70.1263 19.9207 75.6398 19.9207C76.3082 19.9207 76.9765 20.0245 77.6448 19.817C79.8168 19.2982 80.5686 17.5344 79.3991 15.1481C78.8143 14.0068 78.146 12.9692 77.3942 12.0354C74.5538 8.50782 71.63 5.08394 68.7062 1.66007C68.205 1.03755 67.4531 0.726277 66.4507 0C66.2836 5.29145 70.544 6.744 71.463 10.8942C70.7111 10.6866 70.0428 10.5829 69.458 10.3754C46.9027 2.6976 30.9566 3.52764 8.56834 10.9979C6.22927 11.7242 3.97374 12.8654 1.71821 13.903C0.548676 14.4217 -0.45379 15.563 0.214518 17.3269C0.799283 19.0907 1.96882 19.0907 3.30543 18.3644C18.2587 10.0641 27.6054 9.13034 43.6447 9.4416C51.9985 9.54535 60.1853 10.6866 68.2885 13.073C69.291 13.3842 70.2935 13.7993 71.463 14.318Z" fill="#7D8390"/>
</g>
</svg>
