<svg width="58" height="47" viewBox="0 0 58 47" fill="none" xmlns="http://www.w3.org/2000/svg">
<g opacity="0.5">
<path d="M2.56525 0.117728C2.64882 1.06628 2.91175 1.98959 2.90563 2.95077C2.68545 11.396 6.23808 18.3498 11.3316 24.538C13.0845 26.6692 15.5691 28.4687 18.1088 29.666C25.3058 33.1802 32.988 34.8884 41.0288 34.534C43.3462 34.4364 45.6922 33.8776 47.9894 32.9597C47.2739 32.7403 46.5076 32.4823 45.7534 32.3141C43.5807 31.7969 41.3692 31.3307 39.2229 30.6725C38.3159 30.3886 37.4497 29.7331 36.673 29.0651C36.3674 28.8337 36.2572 28.0261 36.4387 27.6804C36.6201 27.3348 37.3519 27.0031 37.6453 27.1447C42.9835 29.0914 48.6905 29.3856 54.2794 30.1537C56.2361 30.4271 56.9475 31.2872 56.5133 33.1318C55.3964 37.679 53.3091 41.8141 50.3801 45.4731C50.3027 45.5755 49.9827 45.5748 49.4446 45.6505C47.2903 42.2497 50.6859 39.6682 51.1833 35.9399C50.3619 36.2842 49.7198 36.6031 49.1043 36.7812C36.6812 39.8561 24.9959 37.6139 13.9486 31.6692C12.2773 30.807 10.7242 29.4708 9.38914 28.0582C4.51981 22.8445 1.30756 16.7117 0.16211 9.64761C-0.19457 7.36562 0.115256 4.94407 0.347627 2.62489C0.404704 1.70227 1.06306 0.832199 1.45237 0C1.82334 0.0392429 2.19429 0.0784854 2.56525 0.117728Z" fill="#7D8390"/>
</g>
</svg>
