<svg width="1013" height="562" viewBox="0 0 1013 562" fill="none" xmlns="http://www.w3.org/2000/svg">
<path d="M22.2667 553.545C18.2025 553.405 14.3569 551.671 11.5637 548.72L9.20104 546.222C5.20049 541.995 3.91946 535.881 5.88643 530.406L69.9224 352.183C71.7662 347.051 76.1839 343.272 81.5447 342.239L245.776 310.599C250.32 309.723 255.018 310.927 258.579 313.879L289.594 339.592C293.83 343.104 295.876 348.603 294.965 354.026L262.285 548.403C261.002 556.037 254.254 561.542 246.507 561.275L22.2667 553.545Z" stroke="#FAFAFA"/>
<path d="M383.687 356.477C376.806 350.036 377.255 338.997 384.635 333.134L478.602 258.476C481.597 256.096 485.37 254.911 489.189 255.149L722.27 269.667C731.128 270.219 737.705 278.094 736.655 286.898L717.318 449.288C716.743 454.138 713.901 458.43 709.656 460.859L586.485 531.365C580.593 534.739 573.184 533.875 568.227 529.235L383.687 356.477Z" stroke="#FAFAFA"/>
<path d="M738.583 274.82C738.886 272.297 739.805 269.888 741.263 267.805L742.697 265.754C746.094 260.893 751.979 258.405 757.839 259.353L926.684 286.638C932.302 287.546 936.965 291.461 938.823 296.83L1011.49 506.562C1013.69 512.914 1011.53 519.957 1006.13 523.979L995.722 531.743C992.466 534.17 988.388 535.221 984.36 534.668L785.292 507.303C782.616 506.935 780.083 505.874 777.948 504.224L723.814 462.446C719.514 459.128 717.278 453.798 717.919 448.409L738.583 274.82Z" stroke="#FAFAFA"/>
<path d="M257.705 313.141C254.502 310.485 252.508 306.651 252.173 302.507L232.14 54.7397C231.646 48.6242 234.824 42.7969 240.237 39.8952L260.782 28.8813C263.729 27.3016 267.109 26.719 270.416 27.2205L453.832 55.0396C460.871 56.1072 466.269 61.8367 466.908 68.9168L482.946 246.624C483.414 251.803 481.239 256.869 477.161 260.102L375.113 340.993C372.42 343.129 369.089 344.306 365.65 344.339L301.79 344.949C298.131 344.984 294.579 343.722 291.765 341.388L257.705 313.141Z" stroke="#FAFAFA"/>
<path d="M496.65 255.354C489.031 254.881 482.899 248.925 482.213 241.333L466.448 66.8336C465.889 60.6414 469.103 54.7184 474.604 51.8065L568.125 2.29791C571.83 0.336679 576.173 -0.0373163 580.159 1.2611L743.232 54.3772C749.753 56.5017 754.094 62.6641 753.892 69.5122L748.446 252.626C748.355 255.638 747.386 258.558 745.654 261.026L744.044 263.319C740.955 267.72 735.797 270.201 730.426 269.868L496.65 255.354Z" stroke="#FAFAFA"/>
<path d="M251.393 295.051C252.015 302.873 246.661 309.917 238.949 311.423L77.3151 342.981C71.1762 344.18 64.919 341.566 61.4632 336.359L3.07352 248.385C0.751723 244.887 -0.0437433 240.596 0.869833 236.5L38.1351 69.4488C39.6206 62.7899 45.307 57.8941 52.1213 57.4072L213.53 45.8787C216.556 45.6625 219.579 46.3404 222.222 47.8279L225.026 49.4055C229.508 51.9277 232.44 56.512 232.846 61.6336L251.393 295.051Z" stroke="#FAFAFA"/>
</svg>
