<svg width="237" height="73" viewBox="0 0 237 73" fill="none" xmlns="http://www.w3.org/2000/svg">
<path d="M100.139 28.5356C100.139 31.2667 97.8279 33.0874 94.1165 33.0874H86.0283V16.4209H93.8364C97.3027 16.4209 99.3685 18.1016 99.3685 20.7626C99.3685 22.4433 98.4232 23.9488 96.8826 24.474C99.0884 24.8942 100.139 26.6099 100.139 28.5356ZM88.9345 23.4586H93.3812C95.447 23.4586 96.5674 22.5483 96.5674 21.1477C96.5674 19.8172 95.482 19.0469 93.4512 19.0469H88.9345V23.4586ZM93.9764 30.4964C96.1473 30.4964 97.2327 29.446 97.2327 28.1855C97.2327 26.7849 96.0072 26.1197 94.0815 26.1197H88.9345V30.4964H93.9764Z" fill="white"/>
<path d="M105.25 22.9687C106.371 21.8482 107.876 21.218 109.452 21.288V23.949C107.631 24.0191 106.231 24.6493 105.25 25.8748V33.0876H102.414V21.4981H105.25V22.9687Z" fill="white"/>
<path d="M121.952 28.4306H113.059C113.409 29.8662 114.494 30.9866 116.455 30.9866C117.576 30.9866 118.381 30.6364 118.801 29.9012H121.812C121.147 32.037 119.011 33.3675 116.385 33.3675C112.674 33.3675 110.223 30.7415 110.223 27.3102C110.223 23.8438 112.674 21.2178 116.385 21.2178C119.606 21.2178 122.022 23.6337 122.057 27.1001C122.057 27.5552 122.022 27.9754 121.952 28.4306ZM113.059 26.2948H119.151C118.941 24.6491 117.891 23.6337 116.21 23.6337C114.424 23.6337 113.374 24.8242 113.059 26.2948Z" fill="white"/>
<path d="M135.572 33.0876H132.771V32.2823C131.721 33.0176 130.495 33.4028 129.235 33.3678C126.014 33.3678 123.388 30.6717 123.388 27.3104C123.388 23.9141 125.979 21.218 129.235 21.218C130.495 21.183 131.756 21.5682 132.771 22.3034V21.4981H135.572V33.0876ZM132.771 29.2712V25.3146C132.071 24.2642 130.881 23.634 129.62 23.669C127.624 23.669 126.189 25.3496 126.189 27.3104C126.189 29.2361 127.624 30.9168 129.62 30.9168C130.881 30.9518 132.071 30.3216 132.771 29.2712Z" fill="white"/>
<path d="M140.965 30.4968V33.0878H138.164V15.686H140.965V26.7854L146.077 21.5333H149.684L145.027 26.3302L150.314 33.0878H146.637L143.031 28.326L140.965 30.4968Z" fill="white"/>
<path d="M159.102 32.9829C158.156 33.298 157.211 33.4731 156.196 33.4731C153.43 33.4731 151.714 31.6523 151.714 28.6412V17.2617H154.515V21.4984H158.787V23.8793H154.515V28.6412C154.515 30.1818 155.355 30.847 156.721 30.847C157.386 30.847 158.051 30.742 158.682 30.5669L159.102 32.9829Z" fill="white"/>
<path d="M172.687 26.7153V33.0878H169.886V26.8554C169.886 24.8246 168.8 23.7042 167.05 23.7042C166.034 23.7042 164.949 24.2994 164.073 25.3848V33.0878H161.237V15.686H164.073V22.4437C165.054 21.6033 166.349 21.1131 167.645 21.1131C170.656 21.1482 172.687 23.354 172.687 26.7153Z" fill="white"/>
<path d="M177.94 22.9687C179.06 21.8482 180.566 21.218 182.141 21.288V23.949C180.321 24.0191 178.92 24.6493 177.94 25.8748V33.0876H175.104V21.4981H177.94V22.9687Z" fill="white"/>
<path d="M195.236 27.3102C195.306 30.6364 192.68 33.3675 189.389 33.4726C189.284 33.4726 189.179 33.4726 189.109 33.4726C185.572 33.4726 182.946 30.8465 182.946 27.3102C182.946 23.8088 185.607 21.2178 189.109 21.2178C192.575 21.2528 195.236 23.8088 195.236 27.3102ZM192.4 27.3102C192.4 25.3494 191.069 23.8088 189.074 23.8088C187.078 23.8088 185.712 25.3494 185.712 27.3102C185.712 29.3059 187.043 30.8815 189.074 30.8815C191.069 30.8815 192.4 29.3059 192.4 27.3102Z" fill="white"/>
<path d="M208.401 33.0874H205.6V32.1071C204.62 32.9824 203.324 33.4726 201.994 33.4376C198.948 33.4376 196.917 31.2317 196.917 27.8704V21.4629H199.718V27.6953C199.718 29.6911 200.804 30.8466 202.554 30.8466C203.57 30.8466 204.69 30.2513 205.565 29.1309V21.4629H208.366L208.401 33.0874Z" fill="white"/>
<path d="M222.582 33.0876C222.582 36.694 220.131 38.8648 216.7 38.8648C213.443 38.8648 210.993 36.869 210.712 34.0679H213.584C213.794 35.3985 214.914 36.3088 216.7 36.3088C218.45 36.3088 219.746 35.1534 219.746 33.0876V31.652C218.696 32.3873 217.435 32.7724 216.175 32.7374C212.988 32.7374 210.432 30.1814 210.362 26.9952C210.362 23.5288 212.918 21.0779 216.175 21.0779C217.435 21.0429 218.696 21.428 219.746 22.1633V21.5331H222.547V33.0876H222.582ZM219.746 28.6408V25.1745C219.046 24.1241 217.855 23.4938 216.595 23.4938C214.599 23.4938 213.198 24.9994 213.198 26.9952C213.268 28.8159 214.774 30.2865 216.595 30.2865C217.855 30.3215 219.046 29.6912 219.746 28.6408Z" fill="white"/>
<path d="M236.621 26.7153V33.0878H233.82V26.8554C233.82 24.8246 232.735 23.7042 230.984 23.7042C229.969 23.7042 228.883 24.2994 228.008 25.3848V33.0878H225.172V15.686H228.008V22.4437C228.988 21.6033 230.284 21.1131 231.579 21.1131C234.591 21.1482 236.621 23.354 236.621 26.7153Z" fill="white"/>
<path d="M88.9343 46.2529H97.1275V48.984H88.9343V53.1156H98.1079V55.8467H85.9932V39.1802H98.1079V41.9112H88.9343V46.2529Z" fill="white"/>
<path d="M111.867 49.4388V55.8463H109.066V49.6138C109.066 47.583 107.981 46.4626 106.23 46.4626C105.215 46.4626 104.129 47.0578 103.254 48.1433V55.8463H100.418V44.2567H103.254V45.2021C104.234 44.3618 105.53 43.8716 106.825 43.8716C109.837 43.8716 111.867 46.0775 111.867 49.4388Z" fill="white"/>
<path d="M125.349 51.1547H116.455C116.805 52.5903 117.891 53.7107 119.852 53.7107C120.972 53.7107 121.777 53.3606 122.197 52.6253H125.209C124.543 54.7611 122.408 56.0916 119.782 56.0916C116.07 56.0916 113.619 53.4656 113.619 50.0343C113.619 46.5679 116.07 43.9419 119.782 43.9419C123.003 43.9419 125.419 46.3578 125.454 49.8242C125.454 50.3144 125.419 50.7345 125.349 51.1547ZM116.455 49.0539H122.583C122.373 47.4083 121.322 46.3929 119.641 46.3929C117.821 46.3929 116.77 47.5483 116.455 49.0539Z" fill="white"/>
<path d="M130.285 45.7274C131.406 44.607 132.911 43.9768 134.487 44.0468V46.7078C132.666 46.7779 131.266 47.4081 130.285 48.6336V55.8464H127.449V44.2569H130.285V45.7274Z" fill="white"/>
<path d="M147.582 55.8464C147.582 59.4528 145.131 61.6236 141.7 61.6236C138.444 61.6236 135.993 59.6278 135.712 56.8267H138.584C138.794 58.1572 139.914 59.0676 141.7 59.0676C143.45 59.0676 144.746 57.9122 144.746 55.8464V54.4108C143.696 55.1461 142.435 55.5312 141.175 55.4962C137.988 55.4962 135.432 52.9402 135.362 49.754C135.362 46.2876 137.918 43.8367 141.175 43.8367C142.435 43.8017 143.696 44.1868 144.746 44.9221V44.2918H147.547V55.8464H147.582ZM144.746 51.3996V47.9333C144.046 46.8828 142.855 46.2526 141.595 46.2526C139.599 46.2526 138.198 47.7582 138.198 49.754C138.268 51.5747 139.774 53.0453 141.595 53.0453C142.855 53.0803 144.046 52.45 144.746 51.3996Z" fill="white"/>
<path d="M155.355 61.6235H152.379L154.725 56.2314L148.982 44.2217H152.029L156.195 52.9051L159.977 44.2217H162.953L155.355 61.6235Z" fill="white"/>
<path d="M28.0105 63.1992C26.9951 63.1992 26.0147 62.9891 25.1043 62.604C22.3032 61.4835 20.4475 58.7174 20.4825 55.7063V43.8716C20.4825 43.1013 20.1674 42.331 19.6072 41.7708L11.2389 33.4026C8.33277 30.4964 8.33277 25.7346 11.2389 22.8284C12.6395 21.4279 14.5302 20.6226 16.526 20.6226H28.3606C29.1309 20.6226 29.9012 20.3074 30.4614 19.7472L38.8297 11.379C41.7358 8.47282 46.4977 8.47282 49.4038 11.379C50.8044 12.7795 51.6097 14.6702 51.6097 16.666V28.5357C51.6097 29.306 51.9248 30.0763 52.485 30.6365L60.8533 39.0047C63.7594 41.9109 63.7594 46.6727 60.8533 49.5789C59.4527 50.9794 57.562 51.7847 55.5662 51.7847H43.7316C42.9613 51.7847 42.191 52.0999 41.6308 52.6601L33.2625 61.0283C31.897 62.3939 30.0062 63.1992 28.0105 63.1992ZM16.561 25.1393C14.9153 25.1393 13.5848 26.4698 13.5848 28.1155C13.5848 28.8858 13.8999 29.6561 14.4602 30.2163L22.8284 38.5846C24.229 39.9851 25.0343 41.8759 25.0343 43.8716V55.7063C25.0343 57.3519 26.3648 58.6824 28.0105 58.6824C28.7808 58.6824 29.5511 58.3673 30.1113 57.8071L38.4795 49.4388C39.8801 48.0383 41.7708 47.233 43.7666 47.233H55.6012C57.2469 47.233 58.5774 45.9024 58.5774 44.2568C58.5774 43.4865 58.2623 42.7162 57.702 42.156L49.3338 33.7877C47.9332 32.3872 47.1279 30.4964 47.1279 28.5006V16.666C47.1279 15.0204 45.7974 13.6899 44.1518 13.6899C43.3815 13.6899 42.6112 14.005 42.0509 14.5652L33.6827 22.9335C32.2821 24.334 30.3914 25.1393 28.3956 25.1393H16.561ZM50.9444 0.279623C49.1237 -0.490677 47.0229 0.384661 46.2526 2.24039C45.4823 4.0611 46.3576 6.16192 48.2133 6.93222C50.034 7.70252 52.1349 6.82718 52.9052 4.97145C53.6405 3.11573 52.7651 1.01491 50.9444 0.279623ZM71.9176 50.9444C72.6879 49.1237 71.8126 47.0229 69.9568 46.2526C68.1361 45.4823 66.0353 46.3576 65.265 48.2133C64.4947 50.0341 65.37 52.1349 67.2258 52.9052C69.0815 53.6405 71.1823 52.7651 71.9176 50.9444ZM21.2528 71.9176C23.0735 72.6879 25.1743 71.8126 25.9446 69.9568C26.7149 68.1011 25.8396 66.0353 23.9839 65.265C22.1632 64.4947 20.0623 65.37 19.292 67.2258C18.5568 69.0465 19.4321 71.1473 21.2528 71.9176ZM0.279623 21.2528C-0.490678 23.0735 0.384664 25.1743 2.24039 25.9446C4.09611 26.7149 6.16192 25.8396 6.93222 23.9839C7.70252 22.1282 6.82718 20.0623 4.97146 19.292C3.15074 18.5568 1.04992 19.4321 0.279623 21.2528Z" fill="white"/>
<path d="M44.0817 63.1992C42.121 63.1992 40.2302 62.3939 38.8297 60.9933L30.4614 52.6251C29.9012 52.0648 29.1659 51.7497 28.3606 51.7497H16.561C12.4294 51.7497 9.06805 48.3884 9.06805 44.2568C9.06805 42.261 9.87337 40.3703 11.2739 38.9697L19.6422 30.6015C20.2024 30.0412 20.5175 29.306 20.5175 28.5006V16.666C20.5175 12.5344 23.8788 9.17309 28.0105 9.17309C30.0062 9.17309 31.897 9.97841 33.2975 11.379L41.6658 19.7472C42.226 20.3074 42.9613 20.6226 43.7666 20.6226H55.6012C59.7328 20.6226 63.0942 23.9839 63.0942 28.1155C63.0942 30.1113 62.2888 32.002 60.8883 33.4026L52.52 41.7708C51.9598 42.331 51.6447 43.0663 51.6447 43.8716V55.7063C51.6797 58.7525 49.859 61.4835 47.0229 62.604C46.0775 62.9891 45.0971 63.1992 44.0817 63.1992ZM28.0455 13.7249C27.6253 13.7249 27.2402 13.7949 26.855 13.97C25.7346 14.4251 24.9993 15.5106 25.0343 16.701V28.5357C25.0343 30.5314 24.264 32.4222 22.8284 33.8227L14.4602 42.191C13.3047 43.3464 13.3047 45.2372 14.4602 46.3926C15.0204 46.9529 15.7557 47.268 16.561 47.268H28.3956C30.3914 47.268 32.2821 48.0383 33.6827 49.4738L42.0509 57.8421C43.2064 58.9976 45.0971 58.9976 46.2526 57.8421C46.8128 57.2819 47.1279 56.5466 47.1279 55.7413V43.9067C47.1279 41.9109 47.8982 40.0201 49.3338 38.6196L57.702 30.2513C58.8575 29.0959 58.8575 27.2051 57.702 26.0497C57.1418 25.4895 56.4065 25.1743 55.6012 25.1743H43.7666C41.7708 25.1743 39.8801 24.404 38.4795 22.9685L30.1113 14.6002C29.5511 14.04 28.8158 13.7249 28.0455 13.7249ZM71.9176 21.2528C71.1473 19.4321 69.0465 18.5568 67.2258 19.292C65.4051 20.0623 64.5297 22.1632 65.265 23.9839C66.0353 25.8046 68.1361 26.6799 69.9568 25.9446C71.8126 25.1743 72.6879 23.0735 71.9176 21.2528ZM50.9444 71.9176C52.7651 71.1473 53.6405 69.0465 52.9052 67.2258C52.1349 65.4051 50.034 64.5297 48.2133 65.265C46.3926 66.0353 45.5173 68.1361 46.2526 69.9568C47.0229 71.8126 49.1237 72.6879 50.9444 71.9176ZM0.279623 50.9444C1.04992 52.7651 3.15074 53.6405 4.97146 52.9052C6.79217 52.1349 7.66751 50.0341 6.93222 48.2133C6.16192 46.3926 4.0611 45.5173 2.24039 46.2526C0.384664 46.9879 -0.490678 49.0887 0.279623 50.9444ZM21.2528 0.279623C19.4321 1.04992 18.5568 3.15074 19.292 4.97145C20.0623 6.79216 22.1632 7.66751 23.9839 6.93222C25.8046 6.16192 26.6799 4.0611 25.9446 2.24039C25.2094 0.384661 23.1085 -0.490677 21.2528 0.279623Z" fill="white"/>
</svg>
