<svg width="167" height="28" viewBox="0 0 167 28" fill="none" xmlns="http://www.w3.org/2000/svg">
<path d="M7.74778 0.121072C12.3058 -0.236891 17.2339 0.337341 21.8305 0.0912415C25.8199 0.322865 28.4618 4.29994 26.9943 8.07741C25.9947 10.6507 22.5458 11.9514 20.1777 13.0077C16.1257 14.8155 11.0231 17.4437 6.5545 16.4417C-2.90669 14.3198 -1.64289 0.858931 7.74778 0.121072Z" fill="white"/>
<path d="M150.659 18.3439C150.734 20.3772 151.626 22.6053 153.348 23.7669C155.773 25.4019 159.592 25.0123 161.521 22.772C162.181 22.0052 162.361 20.9896 163.517 20.8234C163.93 20.7641 164.745 20.7558 165.16 20.8001C166.808 20.9769 165.937 22.5601 165.415 23.4256C162.926 27.5523 157.661 28.856 153.22 27.4044C144.322 24.4964 144.469 10.3332 153.394 7.52697C158.608 5.88762 164.343 8.17709 165.967 13.5865C166.236 14.4831 166.746 16.8327 166.387 17.6425C166.23 17.9961 165.698 18.3435 165.334 18.3435H150.659V18.3439ZM162.399 15.6241C161.831 8.30212 151.601 8.49119 150.747 15.6241H162.399Z" fill="white"/>
<path d="M109.131 18.3436C109.344 21.1937 110.776 23.8898 113.719 24.5847C116.075 25.1409 118.615 24.5013 120.169 22.597C120.605 22.0623 120.86 21.2454 121.525 20.9726C122.086 20.7427 123.939 20.6545 124.4 21.0594C124.995 21.5832 124.29 22.7997 123.975 23.3375C120.334 29.5391 110.288 29.5303 106.642 23.3375C104.82 20.2439 104.694 15.8677 106.165 12.6091C109.55 5.11079 121.354 5.08009 124.268 12.968C124.682 14.0901 125.146 16.1576 124.982 17.3267C124.903 17.8852 124.363 18.3431 123.806 18.3431H109.131V18.3436ZM120.959 15.6238C120.306 8.32544 110.081 8.47722 109.307 15.6238H120.959Z" fill="white"/>
<path d="M87.3182 10.1843C87.4505 10.2045 87.5237 10.1756 87.6305 10.1023C87.861 9.94437 88.4366 9.15211 88.7616 8.86609C91.6905 6.28666 97.0444 6.32043 99.629 9.39383C102.808 13.1744 100.884 21.6782 101.424 26.3721C101.379 26.9608 100.929 27.4863 100.331 27.5582C99.9518 27.6039 98.8624 27.6074 98.4944 27.5508C97.8325 27.4481 97.5294 26.8024 97.4781 26.1997C97.1798 22.6946 97.7212 18.768 97.4847 15.2261C97.3292 12.8936 96.1696 10.8757 93.7336 10.4721C90.2002 9.88646 87.5854 12.2777 87.3191 15.7573C87.0646 19.0873 87.6051 22.8051 87.3213 26.1124C87.2613 26.8134 86.9888 27.4394 86.2156 27.5495C85.8402 27.603 84.8541 27.603 84.4787 27.5495C83.7537 27.4464 83.4068 26.787 83.373 26.1124L83.3871 1.46644C83.4725 0.010024 84.8883 -0.0285799 86.0487 0.0951279C86.6029 0.15435 87.3186 0.696558 87.3186 1.28V10.1852L87.3182 10.1843Z" fill="white"/>
<path d="M68.5501 7.05211C76.4089 6.43138 81.3195 13.5275 79.1919 20.8675C77.3314 27.2858 69.8367 29.8507 64.1603 26.5738C62.253 25.4727 61.5806 24.5396 63.8441 23.2205C65.1109 22.4822 65.347 23.1942 66.3506 23.7663C69.9966 25.8443 74.2891 24.0496 75.3383 19.9914C76.3454 16.0968 74.941 11.0906 70.4408 10.4576C65.5407 9.76842 62.9859 13.828 63.3074 18.3029C63.385 19.3821 64.1945 20.7166 63.3534 21.5882C63.0534 21.8988 61.6467 22.8814 61.2512 22.9108C60.262 22.985 59.8555 21.3206 59.6562 20.5556C57.9815 14.1315 61.6932 7.593 68.5501 7.05167V7.05211Z" fill="white"/>
<path d="M56.014 14.371C55.738 14.6473 53.9091 14.6175 53.4505 14.5745C52.2642 14.4626 52.1004 13.3212 51.481 12.5109C49.2894 9.64418 44.5106 9.68409 42.3347 12.5605C40.4467 15.0557 40.3915 19.9852 42.3347 22.4602C44.5583 25.2923 49.3327 25.4156 51.4678 22.4089C52.2226 21.346 52.1543 20.4168 53.7181 20.2756C56.9033 19.9878 56.5335 21.4008 55.2649 23.5793C52.1043 29.0066 43.5096 29.4032 39.4348 24.8379C36.0446 21.0393 36.0284 14.2034 39.3472 10.3588C43.4921 5.55699 52.0106 5.90574 55.2956 11.4989C55.6482 12.0995 56.5944 13.7901 56.014 14.3714V14.371Z" fill="white"/>
<path d="M20.6271 15.1236C27.8888 14.3783 30.4834 24.2358 24.1828 27.2825C22.4371 28.1265 18.4745 28.0471 16.48 27.9111C11.4594 27.5676 9.48811 21.2375 13.4193 18.0829C14.4386 17.2648 19.3313 15.2565 20.6271 15.1236Z" fill="white"/>
<path d="M136.637 10.8827C137.706 8.54631 140.024 7.20526 142.557 7.02716C144.758 6.87274 145.189 7.39083 144.965 9.61318C144.804 11.2056 143.417 10.7222 142.29 10.795C139.432 10.9801 137.673 12.204 136.816 14.9646C136.534 15.8745 136.551 17.8174 135.454 17.9876C135.091 18.0437 133.726 18.0442 133.377 17.9731C132.984 17.8928 132.592 17.4634 132.531 17.0664C132.311 15.6463 132.646 13.6618 132.528 12.1558C132.352 9.90315 130.184 10.8011 128.626 10.6235C127.068 10.4458 127.04 7.60183 128.634 7.38468C130.587 7.11884 133.144 7.53559 135.158 7.41583C136.495 7.69659 136.018 9.88735 136.375 10.8472L136.638 10.8827H136.637Z" fill="white"/>
<path d="M4.06418 17.8405C8.11666 17.3294 10.6009 21.3074 9.23371 24.9475C7.82097 28.7096 2.41007 28.9821 0.580732 25.4077C-0.920933 22.4742 0.577228 18.28 4.06418 17.8405Z" fill="white"/>
<path d="M133.555 19.5952C134.121 19.5132 135.378 19.4974 135.86 19.7861C137.225 20.6042 135.3 24.0658 137.475 24.3102C138.447 24.4194 141.009 24.0514 141.683 24.5708C142.173 24.9489 142.147 26.0583 142.067 26.6268C141.985 27.2077 141.535 27.5125 140.983 27.5595C136.924 27.9052 132.383 27.291 128.273 27.5595C126.863 27.6534 126.742 25.088 127.623 24.533C128.389 24.0496 130.519 24.4431 131.51 24.3023C131.954 24.2391 132.386 23.8469 132.44 23.3911C132.579 22.2137 131.901 19.8361 133.556 19.5957L133.555 19.5952Z" fill="white"/>
</svg>
