<svg width="235" height="55" viewBox="0 0 235 55" fill="none" xmlns="http://www.w3.org/2000/svg">
<path d="M74.0591 38.3328C85.6099 38.3328 97.3174 38.3328 108.907 38.3328C109.181 38.3328 109.299 38.4503 109.573 38.4503C109.847 38.4503 109.847 38.7244 109.847 38.8418C109.847 39.1159 109.73 39.1159 109.573 39.1159C109.456 39.1159 109.181 39.1159 109.025 39.1159C85.7665 39.1159 62.6257 39.1159 39.3675 39.1159C39.0934 39.1159 38.9759 39.1159 38.7018 39.1159C38.4277 39.1159 38.4277 38.9985 38.4277 38.8418C38.4277 38.5678 38.5452 38.4503 38.7018 38.4503C38.9759 38.4503 39.0934 38.3328 39.3675 38.3328C50.9183 38.3328 62.5083 38.3328 74.0591 38.3328ZM161.023 38.3328C172.574 38.3328 184.281 38.3328 195.871 38.3328C196.145 38.3328 196.263 38.4503 196.537 38.4503C196.811 38.4503 196.811 38.7244 196.811 38.8418C196.811 39.1159 196.694 39.1159 196.537 39.1159C196.38 39.1159 196.145 39.1159 195.989 39.1159C172.731 39.1159 149.59 39.1159 126.331 39.1159C126.057 39.1159 125.94 39.1159 125.666 39.1159C125.392 39.1159 125.392 38.9985 125.392 38.8418C125.392 38.5678 125.509 38.4503 125.666 38.4503C125.94 38.4503 126.057 38.3328 126.331 38.3328C137.726 38.3328 149.316 38.3328 161.023 38.3328ZM120.067 38.9985C119.949 39.1159 119.949 39.2725 119.793 39.39C119.127 40.0557 118.579 40.7213 117.913 41.3869C117.639 41.661 117.521 41.661 117.247 41.3869C116.582 40.7213 115.916 40.0557 115.25 39.5075C114.976 39.2334 114.976 39.1159 115.25 38.8418C115.916 38.1762 116.464 37.5106 117.13 36.9624C117.247 36.8449 117.404 36.5708 117.678 36.8449C118.344 37.5106 119.127 38.1762 119.793 38.9593C119.949 38.7244 119.949 38.881 120.067 38.9985Z" fill="white"/>
<path d="M78.3272 30.2279C76.9959 30.2279 75.5471 30.2279 74.2159 30.2279C73.9418 30.2279 73.6677 30.1105 73.6677 29.6797C73.6677 29.249 73.9418 29.1316 74.2159 29.1316C76.2128 29.249 77.27 28.0744 77.9356 26.3515C79.541 21.9661 81.2638 17.5807 82.8692 13.1953C84.3179 9.2015 85.9233 5.20766 87.3721 1.21382C87.6461 0.822264 87.6461 0 88.4293 0C89.0949 0 89.0949 0.78311 89.369 1.33128C92.3056 9.04489 95.2031 16.7585 98.1398 24.3155C98.5313 25.5293 99.0795 26.5865 99.7451 27.487C100.411 28.5442 101.351 29.0924 102.525 28.9358C102.643 28.9358 102.917 28.9358 103.073 28.9358C103.191 28.9358 103.347 29.0533 103.347 29.2099C103.347 29.484 103.23 29.484 103.073 29.6014C102.956 29.6014 102.682 29.6014 102.525 29.6014C99.8626 29.6014 97.3567 29.6014 94.6941 29.6014C94.5766 29.6014 94.42 29.6014 94.3026 29.6014C94.0285 29.6014 93.7544 29.6014 93.7544 29.3273C93.7544 29.0533 94.0285 29.0533 94.1459 28.9358C94.5375 28.8183 94.6941 28.3876 94.5375 28.1527C93.5978 25.4901 92.658 22.8276 91.7575 20.165C91.64 19.8909 91.4834 19.8909 91.0918 19.8909C88.5467 19.8909 86.0408 19.8909 83.4957 19.8909C83.2216 19.8909 83.1041 19.8909 82.9475 20.165C82.1644 22.5535 80.9506 24.8245 80.559 27.3304C80.285 28.5442 80.6765 28.9358 81.8903 29.0533C82.2819 29.0533 82.9475 28.7792 82.9475 29.4448C82.9475 30.1104 82.2819 29.993 81.8903 29.993C80.7157 30.0713 79.5018 30.2279 78.3272 30.2279ZM87.4895 8.02685C87.3721 8.14431 87.3721 8.14431 87.3721 8.14431C86.3149 11.1984 85.2577 14.4092 84.0439 17.4633C83.9264 18.0114 84.0439 18.0115 84.4354 18.0115C86.3149 18.0115 88.2726 18.0115 90.1521 18.0115C90.8177 18.0115 90.9352 17.894 90.7003 17.3458C89.6039 14.2525 88.5467 11.081 87.4895 8.02685ZM123.669 16.4061C122.455 19.0686 121.124 21.7312 119.949 24.3938C119.166 25.9991 118.501 27.5654 117.678 29.1707C117.561 29.4448 117.404 29.8364 117.013 29.9538C116.621 29.9538 116.347 29.5623 116.23 29.2882C114.507 26.1166 113.058 22.7884 111.453 19.4602C111.061 18.5205 110.669 17.7374 110.121 16.6802C109.73 19.8517 109.338 22.7884 109.064 25.8425C108.947 26.5082 108.947 27.2913 108.79 27.9569C108.673 29.0141 108.907 29.1707 109.847 29.4057C110.121 29.4057 110.239 29.4057 110.513 29.5231C110.63 29.5231 110.904 29.7972 110.904 29.9147C110.904 30.1888 110.787 30.4628 110.513 30.4628C108.633 30.4628 106.676 30.4628 104.796 30.4628C104.679 30.4628 104.405 30.1888 104.405 30.0713C104.405 29.7972 104.522 29.6797 104.796 29.6797C106.245 29.4057 106.402 29.1316 106.676 27.6828C107.459 21.8487 108.398 15.8579 109.338 9.98462C109.338 9.71053 109.456 9.43644 109.456 9.31897C109.573 8.7708 110.121 8.7708 110.395 9.20151C110.669 9.63222 110.944 9.98461 111.061 10.4153C113.332 15.1923 115.564 19.9692 117.717 24.7853C117.992 24.6679 117.992 24.3938 118.109 24.1197C120.38 19.3427 122.494 14.5658 124.765 9.9063C124.765 9.9063 124.765 9.9063 124.765 9.78884C125.039 9.39729 125.039 8.84911 125.549 9.00573C126.097 9.1232 126.097 9.67137 126.214 10.0629C126.997 15.8971 127.937 21.7704 128.759 27.6045C129.033 29.2099 129.542 29.6014 131.148 29.7189C131.422 29.7189 131.813 29.6014 131.813 29.993C131.813 30.3845 131.422 30.2671 131.148 30.2671C129.268 30.2671 127.428 30.2671 125.549 30.1496C125.157 30.1496 124.491 30.1496 125.157 29.484C125.274 29.3665 125.274 29.0924 125.274 28.8183C124.726 24.8245 124.217 20.8306 123.826 16.8368C123.787 16.4061 123.787 16.4061 123.669 16.4061ZM14.7781 14.4092C14.7781 17.7374 14.7781 21.8487 14.8955 25.8425C14.8955 26.2341 14.8955 26.6256 15.013 27.0563C15.2871 28.6617 15.5612 29.0533 17.284 29.1707C17.6756 29.1707 18.0671 29.1707 18.4978 29.1707C18.6153 29.1707 18.8894 29.2882 18.8894 29.5623C18.8894 29.8364 18.6153 30.1105 18.4978 30.1105C18.3804 30.1105 18.2237 30.2279 18.1063 30.2279C14.7781 30.2279 11.4499 30.2279 8.12167 30.2279C8.00421 30.2279 7.84758 30.1105 7.73012 30.1105C7.45603 30.1105 7.33856 29.8364 7.33856 29.7189C7.33856 29.4448 7.61265 29.3273 7.73012 29.3273C7.84758 29.3273 7.84758 29.3273 8.00421 29.3273C9.72704 29.2099 10.0011 29.0533 10.1186 27.3304C10.3927 25.0594 10.3927 22.8276 10.3927 20.674C10.3927 14.9573 10.3927 9.35813 10.3927 3.64145C10.2752 2.85834 10.1186 2.70172 9.60958 2.70172C7.49519 2.81919 5.49827 2.81918 3.34472 2.9758C2.01344 3.09327 1.3478 3.91554 0.956246 5.0902C0.83878 5.48175 0.838781 5.8733 0.290606 5.75583C-0.100947 5.75583 0.0165186 5.20766 0.0165186 4.97273C0.133985 3.52398 0.564693 2.03608 0.799625 0.58733C0.917091 0.195777 1.07371 -0.0783083 1.46527 0.0391577C3.07063 0.704798 4.63685 0.58733 6.24222 0.58733C11.2933 0.58733 16.3443 0.58733 21.3953 0.58733C22.1784 0.58733 23.0007 0.469864 23.7838 0.195777C24.332 0.0783107 24.5669 0.195775 24.4494 0.861416C24.4494 2.46678 24.332 4.033 24.332 5.63837C24.332 5.91246 24.332 6.18654 23.9404 6.18654C23.6663 6.18654 23.5489 5.91246 23.5489 5.79499C23.5489 5.12935 23.4314 4.46371 22.8832 3.91554C22.2176 3.36736 21.4345 3.13242 20.4948 2.9758C18.8894 2.70171 17.0491 2.85834 15.3263 2.70172C14.7781 2.70172 14.9347 3.09327 14.9347 3.36735C14.7781 6.81302 14.7781 10.2979 14.7781 14.4092ZM158.087 18.5205C158.087 16.641 158.087 14.0176 158.087 11.59C158.087 9.98461 157.695 9.71053 156.09 9.59306C155.972 9.59306 155.816 9.59306 155.698 9.59306C155.581 9.59306 155.307 9.47559 155.307 9.31897C155.307 9.2015 155.424 9.04488 155.698 9.04488C155.816 9.04488 155.972 9.04488 156.09 9.04488C158.87 9.04488 161.532 9.04488 164.351 9.04488C165.291 9.04488 166.231 9.16234 167.014 9.43643C169.951 10.2195 171.399 13.2737 170.068 16.2103C169.402 17.6591 168.463 18.7554 167.288 19.8126C167.014 20.0867 166.897 20.2041 167.171 20.5957C168.893 22.8667 170.616 25.2552 172.613 27.5262C173.553 28.5834 174.61 29.4057 176.059 29.5231C176.333 29.5231 176.45 29.6406 176.45 29.9147C176.45 30.1888 176.333 30.1888 176.059 30.1888C174.61 30.1888 173.279 30.3062 171.791 30.0713C170.46 29.9538 169.52 29.1316 168.737 28.0744C167.288 26.1949 166.074 24.3546 164.743 22.3577C164.351 21.692 163.96 21.418 163.138 21.418C161.258 21.418 161.141 21.418 161.258 23.4149C161.258 24.8636 161.258 26.3515 161.376 27.9178C161.493 29.249 161.767 29.3665 163.098 29.5231C163.373 29.5231 164.038 29.4057 163.882 29.7972C163.882 30.3454 163.333 30.0713 162.942 30.0713C160.671 30.0713 158.439 30.0713 156.285 30.0713C156.011 30.0713 155.62 30.1888 155.502 29.7972C155.502 29.4057 155.894 29.5231 156.168 29.4057C157.225 29.4057 157.499 29.0141 157.617 27.8003C157.734 25.8034 157.734 23.689 157.734 21.5354C158.087 20.5174 158.087 19.3036 158.087 18.5205ZM163.02 10.5328C162.746 10.5328 162.355 10.5328 162.08 10.5328C161.689 10.5328 161.532 10.8069 161.532 11.081C161.532 13.7435 161.532 16.4061 161.532 18.912C161.532 19.1861 161.65 19.4602 161.924 19.5777C164.469 20.5174 166.583 19.3036 167.092 16.7976C167.21 16.2495 167.21 15.8579 167.21 15.3489C167.406 12.4122 165.644 10.5328 163.02 10.5328ZM34.7081 9.08404C36.5876 9.08404 38.4279 8.96658 40.1507 9.20151C44.6536 9.74968 45.8674 14.1351 43.753 17.3067C43.0874 18.2464 42.4217 19.0295 41.482 19.6951C41.2079 19.9692 41.2079 20.0867 41.482 20.3608C43.2048 22.6318 44.9277 25.0203 46.9246 27.2913C47.8643 28.3485 48.9215 29.1707 50.3703 29.2882C50.6444 29.2882 50.7618 29.4057 50.7618 29.6797C50.7618 29.9538 50.6444 29.9538 50.3703 29.9538C48.9215 29.9538 47.5902 30.0713 46.1023 29.8364C44.7711 29.7189 43.8313 28.8966 43.0482 27.8394C41.5995 25.96 40.3857 24.1197 39.0544 22.1228C38.6628 21.4571 38.2713 21.183 37.449 21.183C35.5696 21.183 35.4521 21.183 35.5696 23.18C35.5696 24.6287 35.5696 26.2341 35.687 27.6828C35.8045 28.8966 36.0786 29.1316 37.2924 29.2882C37.5665 29.2882 38.2321 29.0141 38.2321 29.5623C38.2321 30.1105 37.5665 29.8364 37.2924 29.8364C35.0214 29.8364 32.907 29.8364 30.636 29.8364C30.3619 29.8364 29.9703 29.9538 29.8529 29.5623C29.8529 29.1707 30.2444 29.2882 30.5185 29.1707C31.5757 29.1707 31.8498 28.7792 31.8498 27.722C31.9673 26.3907 31.9673 24.9419 31.9673 23.6107C31.9673 19.6168 31.9673 15.623 31.9673 11.6291C31.9673 10.0238 31.5757 9.63221 29.9703 9.63221C29.8529 9.63221 29.6963 9.63221 29.6963 9.63221C29.4222 9.63221 29.3047 9.51474 29.3047 9.24065C29.3047 8.96657 29.5788 8.96657 29.6963 8.96657C30.0878 8.96657 30.636 8.96657 31.0275 8.96657C31.5757 8.96657 32.2414 8.96657 32.7504 8.96657C33.6509 9.08404 34.1991 9.08404 34.7081 9.08404ZM35.6479 15.0748C35.6479 16.2886 35.6479 17.6199 35.6479 18.7946C35.6479 19.0687 35.6479 19.4602 36.0394 19.5777C38.5845 20.1258 40.1507 19.9692 41.2079 17.3067C41.482 16.7585 41.482 16.0928 41.482 15.4272C41.482 12.4906 40.1507 10.1021 36.431 10.4936C35.8828 10.4936 35.7653 10.7677 35.7653 11.2767C35.7653 12.5297 35.6479 13.861 35.6479 15.0748ZM53.9726 16.641C53.9726 15.0357 53.9726 13.1953 53.9726 11.4725C53.9726 10.0238 53.581 9.59306 52.0931 9.59306C51.9756 9.59306 51.9756 9.59306 51.819 9.59306C51.5449 9.59306 51.2708 9.59306 51.2708 9.20151C51.2708 8.80996 51.6624 8.92742 51.9365 8.92742C54.325 8.92742 56.8701 8.92742 59.2585 8.92742C59.5326 8.92742 59.8067 8.80996 59.9242 9.20151C59.9242 9.59306 59.5326 9.4756 59.2585 9.59306C58.0447 9.71053 57.8098 9.98461 57.8098 11.1984C57.6923 15.0356 57.6923 19.0295 57.8098 22.9059C57.8098 23.5715 57.9272 24.3546 58.2013 25.0203C58.867 27.4087 60.8639 28.74 63.2524 28.6225C65.7975 28.5051 67.3637 27.0172 67.9119 24.5112C68.186 23.2974 68.186 22.1228 68.186 20.909C68.186 17.7374 68.1859 14.5266 68.0685 11.4725C68.0685 10.1412 67.6769 9.74968 66.3456 9.74968C66.2282 9.74968 66.0716 9.74968 65.9541 9.74968C65.8366 9.74968 65.5625 9.63222 65.68 9.35813C65.68 9.24066 65.7975 9.08404 66.0716 9.08404C66.189 9.08404 66.189 9.08404 66.3456 9.08404C68.3426 9.08404 70.457 9.08404 72.4539 9.08404C72.728 9.08404 73.0021 8.96657 73.0021 9.35813C73.0021 9.74968 72.6105 9.63221 72.4539 9.63221C71.1226 9.74967 70.8485 10.0238 70.8485 11.3551C70.8485 14.5266 70.8485 17.7374 70.731 20.7915C70.731 22.1228 70.6136 23.5715 70.1829 24.7853C69.2431 27.8394 66.8547 29.8364 63.6831 30.1105C62.3518 30.2279 61.0205 30.2279 59.8459 29.993C56.6743 29.3273 54.6774 27.0563 54.2466 23.6107C53.8551 21.3005 54.1292 19.0687 53.9726 16.641ZM216.428 29.8364C215.371 29.8364 214.431 29.8364 213.374 29.8364C213.256 29.8364 212.982 29.8364 212.982 29.5623C212.982 29.2882 213.256 29.1707 213.374 29.1707C214.705 29.2882 215.488 28.3876 215.919 27.2913C217.25 23.9631 218.582 20.6349 219.913 17.3067C220.97 14.6441 222.027 11.9815 223.084 9.31897C223.084 9.2015 223.202 9.04488 223.202 8.92742C223.319 8.65333 223.476 8.37924 223.868 8.37924C224.259 8.37924 224.416 8.65333 224.416 8.92742C224.69 9.59306 224.964 10.2587 225.199 10.9243C227.196 15.9754 229.193 20.9089 231.19 25.96C231.464 26.7431 231.855 27.4087 232.247 28.0744C232.795 28.8575 233.461 29.4057 234.361 29.2882C234.635 29.2882 234.909 29.2882 234.909 29.5623C234.909 29.8364 234.635 29.8364 234.361 29.8364C232.364 29.8364 230.367 29.8364 228.37 29.8364C228.096 29.8364 227.822 29.8364 227.822 29.5623C227.705 29.2882 228.096 29.2882 228.214 29.1707C228.488 29.0533 228.331 28.7792 228.331 28.5051C227.666 26.7822 227 25.0594 226.452 23.18C226.334 22.9059 226.178 22.7884 225.786 22.7884C223.907 22.7884 222.066 22.7884 220.187 22.7884C219.913 22.7884 219.795 22.7884 219.639 23.0625C219.091 24.6679 218.308 26.1166 217.916 27.8394C217.642 28.7792 217.916 29.1707 218.973 29.1707H219.091C219.365 29.1707 219.639 29.1707 219.639 29.5623C219.639 29.9538 219.365 29.8364 219.091 29.8364C218.308 29.8364 217.368 29.8364 216.428 29.8364ZM223.241 14.0176C222.301 16.4061 221.518 18.6771 220.696 20.9481C220.579 21.2222 220.696 21.3397 221.088 21.3397C222.536 21.3397 224.024 21.3397 225.473 21.3397C225.864 21.3397 226.021 21.2222 225.864 20.7915C224.964 18.6379 224.024 16.4061 223.241 14.0176ZM204.995 30.2279C202.724 30.2279 200.609 29.9538 198.612 29.0141C193.953 26.8997 192.113 22.7492 192.504 18.2464C193.052 12.4122 197.164 8.69248 203.154 8.53586C205.543 8.53586 207.931 8.80996 210.32 9.20151C210.711 9.31897 210.985 9.47559 210.985 9.86714C210.711 11.1984 210.868 12.5297 210.868 13.861C210.868 14.1351 210.868 14.2525 210.751 14.5266C210.751 14.6441 210.633 14.8007 210.359 14.8007C210.241 14.8007 210.085 14.6832 210.085 14.5266C210.085 14.2525 210.085 13.861 209.967 13.5869C209.576 11.7074 208.362 10.8069 206.796 10.4153C205.073 9.86714 203.35 9.86714 201.627 10.2979C199.63 10.6894 198.182 11.9032 197.516 13.9001C196.185 17.3458 196.067 20.8306 197.908 24.0022C200.022 28.1135 203.898 29.1707 207.892 28.1135C209.341 27.722 210.163 26.5082 210.555 25.1769C210.555 24.9028 210.555 24.6287 210.946 24.6287C211.338 24.6287 211.22 25.0203 211.22 25.2943C211.103 26.5082 210.946 27.6828 210.672 28.8966C210.555 29.4448 210.124 29.6797 209.732 29.8364C207.931 30.0713 206.483 30.2279 204.995 30.2279ZM144.265 29.8364C141.485 29.7189 139.331 29.5623 137.334 29.8364C137.217 29.8364 137.217 29.8364 137.06 29.8364C136.786 29.8364 136.277 29.9538 136.277 29.5623C136.277 29.1707 136.825 29.2882 137.06 29.2882C138 29.1707 138.274 28.74 138.391 27.6828C138.509 26.2341 138.509 24.6287 138.509 23.18C138.509 19.3427 138.509 15.4664 138.509 11.6291C138.509 10.1804 138.117 9.63221 136.629 9.63221C136.512 9.63221 136.355 9.63221 136.238 9.63221C135.964 9.63221 135.846 9.51474 135.846 9.24065C135.846 8.96657 136.12 8.96657 136.238 8.96657C136.904 8.96657 137.452 8.96657 138.117 8.96657C141.171 9.08404 144.226 8.96657 147.436 9.08404C147.985 9.08404 148.376 8.96658 148.885 8.80996C149.277 8.69249 149.433 8.80996 149.433 9.20151C149.316 10.2587 149.159 11.4725 149.159 12.5297C149.159 12.8038 149.042 13.0779 148.768 13.0779C148.494 13.0779 148.494 12.8038 148.494 12.5297C148.376 11.3159 147.945 10.8069 146.771 10.6502C145.439 10.5328 144.108 10.5328 142.777 10.5328C142.385 10.5328 142.385 10.6503 142.385 10.9243C142.385 13.0387 142.385 15.3097 142.385 17.4241C142.385 17.8157 142.503 17.9723 142.933 17.9723C144.382 17.8548 145.988 17.9723 147.436 17.8548C147.828 17.8548 148.376 17.7374 148.65 17.3067C148.768 17.1892 148.768 17.0326 149.042 17.1892C149.159 17.3067 149.159 17.4633 149.159 17.5807C149.042 18.912 148.885 20.2433 148.768 21.5746C148.768 21.692 148.65 21.8487 148.494 21.8487C148.219 21.8487 148.219 21.7312 148.219 21.4571C148.219 21.3397 148.219 21.0656 148.219 20.909C148.219 20.1258 147.828 19.6951 147.006 19.5777C145.674 19.4602 144.226 19.4602 142.738 19.4602C142.464 19.4602 142.346 19.5777 142.346 19.8518C142.346 22.1228 142.346 24.2371 142.346 26.5082C142.346 27.2913 142.894 27.8394 143.677 27.9569C145.126 28.231 146.614 28.231 148.063 27.9569C148.846 27.8394 149.277 27.1738 149.512 26.5082C149.512 26.2341 149.629 25.96 149.629 25.7251C149.629 25.6076 149.747 25.451 149.903 25.451C150.021 25.451 150.177 25.5684 150.177 25.7251C150.177 27.0563 150.177 28.2701 149.786 29.4448C149.668 29.8364 149.237 29.8364 149.003 29.8364C146.927 29.8364 145.204 29.8364 144.265 29.8364ZM183.068 29.8364C181.854 29.8364 180.523 29.8364 179.348 29.8364C179.074 29.8364 178.8 29.9538 178.8 29.5623C178.8 29.1707 179.074 29.2882 179.348 29.2882C180.562 29.1707 180.797 29.0141 180.953 27.6828C181.227 22.2402 181.071 16.7976 181.071 11.3159C181.071 9.98461 180.679 9.71053 179.348 9.59306C179.074 9.59306 178.8 9.59306 178.8 9.31897C178.8 8.92742 179.191 9.04488 179.465 9.04488C181.736 9.04488 183.968 9.04488 186.396 9.04488C186.67 9.04488 186.944 8.92742 186.944 9.31897C186.944 9.71052 186.67 9.59306 186.396 9.59306C185.065 9.71053 184.791 9.98461 184.791 11.3159C184.673 16.641 184.673 21.9661 184.791 27.2521C184.791 27.5262 184.908 27.8003 184.908 28.0352C184.908 28.8183 185.456 29.249 186.122 29.249C186.396 29.249 186.787 29.249 187.062 29.249C187.336 29.249 187.727 29.1316 187.727 29.6406C187.727 30.0321 187.336 29.9147 187.179 29.9147C185.613 29.8364 184.399 29.8364 183.068 29.8364ZM83.8872 49.2183C83.1041 50.9411 82.2819 52.6639 81.4988 54.5434C80.4416 52.8205 79.7759 51.0977 78.8362 49.2183C78.7187 50.5495 78.5621 51.9983 78.4446 53.2121C78.3272 53.7603 78.3272 54.5434 79.1103 54.5434C78.3272 54.5434 77.6615 54.5434 76.8393 54.5434C77.5049 54.5434 77.5049 53.7603 77.6224 53.2121C77.8965 51.0977 78.288 48.8267 78.5621 46.7123C78.5621 46.5948 78.5621 46.3208 78.8362 46.0467C79.7759 48.1611 80.7157 50.158 81.7729 52.3115C82.7126 50.1971 83.6523 48.2002 84.5529 46.0467C84.9444 46.9864 85.1011 47.9261 85.2185 48.8267C85.4926 50.0405 85.6101 51.2152 85.7667 52.5465C85.8842 53.3296 85.8842 54.1518 86.9805 54.2693C86.3149 54.2693 85.6492 54.2693 84.8661 54.2693C84.7487 54.2693 84.592 54.2693 84.592 53.9952C84.7095 52.429 84.1613 50.8236 83.8872 49.2183ZM131.774 50.2754C131.657 51.4893 131.5 52.8205 131.383 53.8777C131.383 54.2693 131.774 53.7603 132.048 54.5434C131.383 54.5434 130.717 54.5434 130.051 54.5434C130.717 54.5434 130.717 53.8777 130.717 53.3296C130.991 51.6067 131.265 49.7273 131.5 47.887C131.5 47.7695 131.5 47.3388 131.774 47.3388C132.048 47.3388 132.048 47.6129 132.166 47.7304C132.949 49.3357 133.615 50.7845 134.437 52.5073C134.985 51.4501 135.376 50.5104 135.886 49.4532C136.16 48.905 136.434 48.2394 136.669 47.7304C136.786 47.6129 136.786 47.3388 136.943 47.3388C137.217 47.3388 137.217 47.6129 137.217 47.887C137.491 49.4923 137.765 51.0586 137.882 52.8205C138 53.4862 138 54.2693 138.94 54.4259C138.274 54.4259 137.726 54.4259 137.06 54.4259C136.786 54.4259 136.786 54.3084 136.786 54.0344C136.669 52.7031 136.512 51.3718 136.238 50.0405C135.69 51.2543 135.181 52.3115 134.633 53.4862C134.633 53.6036 134.515 53.7603 134.515 53.8777C134.398 53.9952 134.398 54.2693 134.124 54.2693C133.849 54.2693 133.849 53.9952 133.732 53.8777C133.066 52.6639 132.518 51.4893 132.009 50.2754C131.892 50.2754 131.892 50.2754 131.774 50.2754ZM93.0887 47.378C93.8718 47.378 94.5375 47.378 95.3597 47.378C94.5766 47.378 94.6941 48.3177 94.6941 48.9833C94.6941 50.1971 94.8116 51.2543 94.5766 52.429C94.3026 53.8777 93.3628 54.5434 91.64 54.5434C90.0346 54.5434 89.2515 53.7603 89.0949 52.1549C88.9774 50.9411 89.0949 49.7664 89.0949 48.5526C89.0949 47.7695 89.0949 48.2785 88.3118 47.3388C89.2515 47.3388 90.0346 47.3388 90.9743 47.3388C90.1912 47.3388 90.3087 48.1219 90.3087 48.6701C90.3087 50.0014 90.1912 51.3326 90.4262 52.5073C90.5436 53.447 91.3659 53.956 92.149 53.956C93.0887 53.8386 93.5978 53.2904 93.7544 52.3507C93.8718 51.0194 93.7544 49.5706 93.8718 48.2394C93.8718 47.7695 93.4803 47.378 93.0887 47.378ZM129.112 54.2693C128.446 54.2693 127.663 54.5434 127.232 54.2693C126.841 54.1518 126.841 53.3296 126.684 52.8205C126.567 52.2724 126.292 52.0374 125.627 52.1549C125.509 52.1549 125.353 52.1549 125.353 52.1549C124.139 52.1549 123.747 52.8205 123.63 53.8777C123.63 54.2693 123.904 53.7603 124.178 54.5434C123.395 54.5434 122.729 54.5434 121.907 54.5434C122.573 54.5434 122.847 53.7603 123.121 53.2121C123.787 51.4893 124.452 49.7664 125.235 48.1611C125.353 47.887 125.353 47.4954 125.627 47.4954C125.901 47.4954 125.901 47.887 126.018 48.1611C126.684 49.8839 127.35 51.6067 128.133 53.2121C128.172 53.7603 128.446 54.2693 129.112 54.2693ZM125.235 49.2183C124.961 50.0014 124.687 50.5495 124.452 51.2152C124.452 51.3326 124.178 51.6067 124.57 51.6067C124.961 51.6067 125.353 51.6067 125.783 51.6067C126.058 51.6067 126.058 51.4893 125.901 51.2152C125.783 50.5495 125.509 50.0405 125.235 49.2183ZM157.969 47.378C157.421 47.378 157.029 48.0436 156.755 48.5918C156.481 48.9833 156.207 49.5315 155.972 49.9231C155.032 50.9802 155.189 52.4681 155.189 53.7603C155.189 54.4259 155.737 53.7603 156.246 54.7C155.189 54.7 154.249 54.7 153.466 54.7C154.132 53.7603 154.406 52.3115 153.858 51.3718C153.31 50.4321 152.644 49.2574 152.135 48.3177C152.018 48.0436 151.587 47.378 151.352 47.378C152.135 47.378 152.801 47.378 153.623 47.378C153.349 48.3177 153.74 48.7092 154.954 50.4321C156.011 49.1008 156.56 48.1611 156.168 47.378C156.638 47.378 157.303 47.378 157.969 47.378ZM105.188 54.5434C105.736 54.5434 105.853 53.8777 105.853 53.4862C105.853 51.8808 105.853 50.158 105.853 48.5526C105.853 48.1611 105.736 48.0044 105.462 48.0044C104.796 48.1219 104.013 47.6129 103.582 48.6701C103.465 48.2785 103.582 48.0044 103.582 47.887C103.582 47.4954 103.7 47.3388 104.248 47.3388C105.853 47.4563 107.42 47.4563 109.025 47.3388C109.573 47.3388 109.691 47.3388 109.573 47.887C109.573 48.1611 109.573 48.4351 109.573 48.8267C109.025 48.2785 107.694 47.887 107.185 48.0436C106.911 48.1611 107.067 48.3177 107.067 48.4351C107.067 49.8839 107.067 51.6067 107.067 53.0946C107.067 53.7603 107.185 54.4259 108.007 54.4259C107.028 54.5434 106.088 54.5434 105.188 54.5434ZM120.576 50.158C120.576 50.7062 120.576 51.0977 120.458 51.6067C120.184 51.4893 120.184 51.0585 119.793 50.9411C118.735 50.667 118.344 50.8236 118.344 51.9983C118.344 52.3898 118.344 52.7814 118.344 53.2121C118.344 53.8777 118.344 54.5434 119.127 54.5434C118.187 54.5434 117.404 54.5434 116.347 54.5434C117.13 53.6036 117.13 53.6036 117.13 53.0946C117.13 51.6459 117.13 50.158 117.13 48.7092C117.13 48.0436 117.013 47.378 116.347 47.378C117.796 47.378 119.284 47.378 120.732 47.378C120.732 48.3177 120.732 48.1611 120.615 48.7092C120.223 48.1611 119.01 47.652 118.501 48.0436C117.952 48.5918 118.383 49.3749 118.226 50.158C118.226 50.5495 118.501 50.4321 118.775 50.4321C119.519 50.4321 120.067 50.5495 120.576 50.158ZM100.137 47.378C99.4711 47.378 99.4711 47.9261 99.4711 48.4351C99.4711 49.7664 99.4711 51.2152 99.4711 52.5465C99.4711 53.4862 99.5885 53.6037 100.528 53.6037C101.742 53.6037 101.742 53.6037 101.977 52.8205C102.251 53.8777 102.094 54.2693 101.037 54.2693C100.098 54.2693 99.1578 54.2693 98.2572 54.2693C97.7091 54.2693 97.7091 54.1518 98.1398 53.8777C98.2572 53.6036 98.2572 53.3296 98.2572 52.938C98.2572 51.4893 98.2572 49.8839 98.2572 48.5526C98.2572 48.0044 98.1398 47.3388 97.4741 47.3388C98.3747 47.378 99.3144 47.378 100.137 47.378ZM150.49 52.938C150.765 54.2693 150.608 54.2693 149.433 54.2693C148.494 54.2693 147.71 54.2693 146.771 54.2693C146.497 54.2693 146.105 54.3868 146.497 53.8777C146.771 53.6036 146.614 53.2121 146.614 52.938C146.614 51.4893 146.614 49.8839 146.614 48.5526C146.614 48.0044 146.497 47.3388 145.831 47.3388C146.771 47.3388 147.554 47.3388 148.494 47.3388C147.554 47.3388 147.828 48.2785 147.828 48.9442C147.828 50.2755 147.828 51.4893 147.828 52.7814C147.828 53.447 148.102 53.8386 148.768 53.7211C149.433 53.7603 150.256 54.0344 150.49 52.938ZM114.35 54.5434C113.293 54.5434 112.353 54.5434 111.57 54.5434C112.118 54.5434 112.236 53.8777 112.236 53.3296C112.236 51.7242 112.236 50.0014 112.236 48.396C112.236 47.8478 111.962 47.3388 111.57 47.3388C112.353 47.3388 113.293 47.3388 114.115 47.3388C113.45 47.3388 113.45 48.0044 113.45 48.5526C113.45 50.0014 113.45 51.6067 113.45 53.2121C113.293 54.1518 113.293 53.7603 114.35 54.5434ZM140.819 47.378C141.602 47.378 142.424 47.378 143.364 47.378C142.816 47.378 142.699 48.1611 142.699 48.7092C142.699 50.158 142.699 51.7634 142.699 53.2121C142.699 53.8777 142.699 54.6608 143.638 54.6608C142.699 54.6608 141.759 54.6608 140.858 54.6608C141.641 53.7211 141.641 53.7211 141.641 53.2121C141.641 51.7634 141.641 50.158 141.641 48.7092C141.485 48.1611 141.485 47.378 140.819 47.378Z" fill="white"/>
</svg>
