<svg width="225" height="58" viewBox="0 0 225 58" fill="none" xmlns="http://www.w3.org/2000/svg">
<g clip-path="url(#clip0_667_11804)">
<mask id="mask0_667_11804" style="mask-type:luminance" maskUnits="userSpaceOnUse" x="11" y="6" width="204" height="46">
<path d="M214.303 6.33594H11.0234V51.6659H214.303V6.33594Z" fill="white"/>
</mask>
<g mask="url(#mask0_667_11804)">
<path opacity="0.7" fill-rule="evenodd" clip-rule="evenodd" d="M206.361 33.4634C210.818 33.4634 214.26 29.8344 214.304 25.5272C213.992 23.6462 213.332 20.168 208.459 20.168C203.118 20.168 201.349 27.6254 197.004 32.4374C196.656 35.1714 194.065 37.6176 190.836 38.028C191.627 38.8548 193.389 39.3054 195.493 39.3054C199.34 39.3054 203.997 38.1468 206.437 35.7366C203.182 35.781 201.09 33.6888 200.885 30.796C202.472 32.7192 204.264 33.4654 206.363 33.4654" fill="#231F20"/>
<path fill-rule="evenodd" clip-rule="evenodd" d="M172.138 21.5989C172.138 19.2271 171.995 17.6459 170.444 17.6459C169.736 17.6459 169.392 17.7887 168.776 17.9939C169.325 26.0006 167.513 33.0536 165.304 33.0536C162.409 33.0536 163.852 15.8897 157.722 15.8897C152.063 15.8897 151.246 29.5914 150.606 29.5914C150.17 29.5914 150.104 25.9924 150.128 23.2465C150.365 21.9329 150.496 20.75 150.496 19.8548C150.496 18.5793 149.973 16.3765 147.078 17.4769C147.178 27.276 145.217 33.1944 143.006 33.1944C139.769 33.1944 139.733 24.3107 139.733 21.8665C139.733 19.4222 139.906 16.2819 136.353 17.4145C135.824 25.9604 133.581 32.4098 132.171 32.4098C130.067 32.4098 130.489 17.6459 125.939 17.6459C121.843 17.6459 120.58 31.6334 119.727 31.6334C118.202 31.6334 120.205 15.8897 114.293 15.8897C111.193 15.8897 109.96 21.1443 108.747 27.0266C108.511 28.1652 108.268 28.2034 108.224 26.9158C108.193 25.8214 108.187 24.7191 108.199 23.6227C109.686 17.7082 107.869 15.5235 105.129 17.0987C106.015 28.0122 101.001 33.3454 97.1609 33.3454C95.7729 33.3454 94.6765 32.7538 93.8617 31.8204C98.4665 28.994 100.515 25.751 100.515 22.5826C100.515 19.1527 98.5411 17.1731 95.2659 17.1731C90.6973 17.1731 88.1385 21.8785 88.1385 25.8818C88.1385 28.0344 88.5427 29.865 89.2027 31.3718C87.6335 32.1202 86.1529 32.766 84.7749 33.3936C84.6501 29.2796 84.1895 24.9605 83.8353 20.9692C81.4011 20.2973 80.6911 21.4661 80.5039 23.6328C80.0673 28.5756 78.2387 31.6454 76.6193 31.6454C75.4043 31.6454 74.6599 30.1628 74.5713 28.5896C74.1167 20.6655 80.5481 18.4606 83.9159 19.6133C84.6139 17.8631 83.8475 16.6058 80.8097 16.6058C77.1303 16.6058 74.3803 18.8408 72.3625 21.7096C71.0187 23.6227 69.4617 24.9786 67.3955 26.6162C67.4519 26.1494 67.4781 25.6766 67.4781 25.21C67.4781 19.6254 64.4525 17.1731 61.5637 17.1731C59.1737 17.1731 57.6669 18.6035 56.7959 20.8083C56.5845 18.5974 56.1421 17.6459 54.8605 17.6459C54.3113 17.6459 53.5469 17.8008 52.7321 18.1991C53.1043 19.4323 53.2491 22.1662 53.2491 23.9587C53.2491 30.6738 51.3259 33.6874 49.4771 33.6874C47.3609 33.6874 47.0249 25.7188 46.8439 22.6189C46.5139 22.4941 46.1659 22.4257 45.8099 22.4257C43.8927 22.4257 43.6431 24.9967 43.1705 27.3604C42.6473 29.9818 41.1427 33.275 38.9057 33.275C37.5557 33.275 36.7089 31.9754 36.6021 29.6336C36.3849 24.884 40.3379 19.2553 46.5199 21.0055C47.3287 19.1144 46.0573 17.674 43.4943 17.674C38.9741 17.674 35.2403 21.0537 33.6087 25.057C31.9531 28.7304 29.0583 34.1218 23.168 34.1218C19.0097 34.1218 15.8232 30.4906 15.8232 22.8784C15.8232 16.3181 19.9613 10.0838 24.377 10.0838C27.463 10.0838 28.1812 13.1235 27.9076 15.9741C29.5069 17.2556 32.1281 16.0586 32.1281 12.856C32.1281 10.6451 30.3357 6.89727 24.54 6.89727C17.3682 6.89727 11.0312 14.0509 11.0312 23.4437C11.0312 32.8364 15.6502 37.924 22.1862 37.924C26.3143 37.924 30.2029 35.5722 32.8865 31.225C33.5645 35.0292 36.1555 36.6284 38.0969 36.6284C41.2413 36.6284 43.2951 34.5926 44.4157 31.8406C45.1137 34.5966 46.5883 36.6406 49.0427 36.6406C50.7667 36.6406 52.1165 35.7614 53.1325 34.3612C52.7281 43.947 52.2231 50.0608 57.8881 48.8598C57.0111 46.1338 56.7315 41.171 56.7315 36.713C56.7315 24.5179 58.7431 20.5045 61.2639 20.5045C63.0925 20.5045 63.6839 22.8321 63.6839 25.3166C63.6839 26.6484 63.5531 28.1792 63.2173 29.5552C60.1171 31.5106 57.6467 33.0556 57.6467 35.015C57.6467 36.566 58.7995 36.707 59.7953 36.707C62.1731 36.707 65.0359 34.3734 66.6171 29.9716C67.9991 29.1308 69.3871 28.1732 70.7129 26.8656C70.6687 27.3142 70.6445 27.7608 70.6445 28.2214C70.6445 32.591 72.5557 35.2384 75.6115 35.2384C78.0073 35.2384 79.8019 33.5384 81.0713 30.9936C81.1537 32.4622 81.2021 33.812 81.2201 35.0512C76.3639 37.3004 70.9925 39.5776 70.9925 45.9146C70.9925 49.1936 73.3583 51.66 76.4403 51.66C83.2077 51.66 84.7507 44.5204 84.8131 36.222C87.0179 35.2686 88.6535 34.5342 90.5465 33.5948C92.1639 35.6246 94.3687 36.6406 96.3845 36.6406C100.199 36.6406 103.069 34.6168 105.373 30.5148C105.777 33.633 106.588 36.6406 108.25 36.6406C111.275 36.6406 111.891 20.8164 114.138 20.8164C115.862 20.8164 114.45 37.934 119 37.934C122.897 37.934 123.625 22.8703 125.524 22.8703C126.87 22.8703 126.969 36.6406 131.213 36.6406C133.3 36.6406 135.565 34.1298 136.697 28.8772C137.233 32.3776 138.995 36.6406 142.445 36.6406C144.457 36.6406 146.187 34.6046 147.524 31.903C147.893 34.6852 148.677 36.6406 150.202 36.6406C154.167 36.6406 154.036 20.8526 157.175 20.8526C159.621 20.8526 158.869 36.6406 164.695 36.6406C167.465 36.6406 168.778 34.2808 169.563 31.3114C170.633 35.6748 172.369 36.6406 173.789 36.6406C174.691 36.6406 175.377 36.3226 176.274 35.2564C171.766 33.303 172.146 26.1876 172.146 21.5929M76.7179 48.7168C75.3177 48.7168 74.5755 47.3852 74.5755 45.8844C74.5755 41.8308 77.5507 39.6842 81.2121 37.8374C81.0491 46.689 78.9891 48.7188 76.7179 48.7188M94.9199 20.0197C96.2819 20.0197 97.0603 21.271 96.9235 23.0695C96.7687 25.1798 95.2317 27.6018 92.5541 29.499C91.1601 25.5278 92.2001 20.0177 94.9199 20.0177M138.098 14.0308C139.393 13.9866 140.302 12.8741 140.308 11.5484C140.321 10.2226 139.417 9.17454 138.118 9.22482C136.818 9.26908 135.76 10.3836 135.752 11.7093C135.74 13.035 136.798 14.0751 138.098 14.0308ZM170.394 14.7027C171.577 14.6585 172.542 13.6023 172.542 12.337C172.542 11.0716 171.595 10.0838 170.414 10.12C169.229 10.1643 168.265 11.2285 168.259 12.4919C168.247 13.7552 169.211 14.745 170.394 14.7027ZM214.299 25.21C214.199 20.2048 211.821 15.9842 208.148 12.6146C205.359 10.0697 202.048 8.13246 198.574 6.67598C198.3 6.5593 198.013 6.44463 197.733 6.33398C193.458 11.4578 178.654 15.2781 178.654 26.0186C178.654 30.213 181.305 34.142 185.196 35.7172C187.455 36.5702 189.708 36.6124 191.969 35.852C193.981 35.192 195.631 33.9468 197.005 32.436C201.35 27.624 203.118 20.1726 208.453 20.1726C213.335 20.1726 213.995 23.6448 214.305 25.5258C214.305 25.5136 214.305 25.389 214.293 25.208" fill="#231F20"/>
</g>
</g>
<defs>
<clipPath id="clip0_667_11804">
<rect width="206" height="48" fill="white" transform="translate(10 5)"/>
</clipPath>
</defs>
</svg>
