<svg width="225" height="58" viewBox="0 0 225 58" fill="none" xmlns="http://www.w3.org/2000/svg">
<g clip-path="url(#clip0_667_11803)">
<path d="M36.5836 9.37583C36.8118 9.32421 37.2111 9.335 37.4331 9.41975L51.7537 17.6774L66.0734 9.41975C66.7032 9.22943 67.273 9.36273 67.5342 9.99687C67.6244 19.7986 67.6506 29.6535 67.5212 39.4531L67.3276 39.7989L52.3557 48.4881C51.9656 48.7147 51.5409 48.7147 51.1509 48.4881L36.1782 39.7997L35.9855 39.4531C35.8405 29.6705 35.9122 19.8418 35.9485 10.0508C36.051 9.79962 36.3023 9.44056 36.5836 9.37583ZM65.5124 12.2106L52.7935 19.4534V27.9291L65.5124 20.6863V12.2106ZM38.9763 15.08C37.9958 15.2349 37.6667 16.141 37.605 17.0225C37.5002 18.5288 37.5071 20.2895 39.4172 20.3804C40.9227 20.452 41.4353 19.6415 41.5386 18.2576C41.6827 16.3298 41.295 14.7148 38.9763 15.08ZM44.0831 22.9978C44.4485 22.947 44.9495 23.1219 45.2393 22.8823V17.9509C45.0119 17.7745 44.4238 17.8015 44.1286 17.8423C43.9829 17.8623 42.9238 18.2645 42.8467 18.3354C42.728 18.4441 42.8528 19.1144 42.9631 19.1337L44.0831 18.837V22.9978ZM50.4533 25.2046C51.1964 24.4834 51.1501 22.067 50.7261 21.1732C50.1866 20.0352 47.9958 20.0175 47.3823 21.0946C46.9452 21.8621 46.9676 24.0558 47.3668 24.8394C47.871 25.8279 49.7395 25.8973 50.4533 25.2046ZM65.5124 30.1637V21.8421L52.7935 29.2005V37.4065L65.5124 30.1637ZM40.4602 24.3848H39.3425C39.2777 24.3848 38.1978 24.844 38.1477 24.8848C38.0952 24.9287 38.0652 24.9696 38.0659 25.0405L38.1484 25.6946L39.344 25.3872C39.4642 25.4358 39.3047 25.5644 39.3047 25.5791V29.5473H40.4609L40.4602 24.3848ZM42.8767 31.2155C43.4564 31.7563 44.9588 31.7817 45.5754 31.3079C46.4557 30.6313 46.4357 27.9214 45.9223 27.0538C45.3342 26.0591 43.2961 26.0468 42.6809 27.0276C42.1521 27.8714 42.1175 30.5073 42.8767 31.2155ZM49.9414 29.7013H48.7466C48.601 29.7013 47.8293 30.1999 47.5611 30.1721L47.6297 31.0113C47.6675 31.0551 48.574 30.7245 48.7474 30.7031C48.9856 30.6737 48.7852 30.7909 48.7852 30.8185V34.8639H49.9414V29.7013ZM52.7935 45.8051L65.5124 38.4467V31.3195L52.7935 38.6779V45.8051ZM39.1336 33.0361C38.1207 33.1649 37.699 33.8559 37.6096 34.8261C37.4955 36.0743 37.4562 38.0785 39.0542 38.3103C41.3813 38.6487 41.7051 36.8779 41.5293 34.9887C41.3906 33.4899 40.6683 32.8421 39.1336 33.0361ZM44.0831 40.9509C44.3182 40.9039 45.1484 41.0703 45.2285 40.8245V35.9149C45.163 35.7153 44.2658 35.7685 44.063 35.8069C43.9713 35.8239 42.9014 36.2499 42.8498 36.2901C42.7264 36.3863 42.8467 37.0605 42.9715 37.0913L44.0831 36.7901V40.9509ZM50.4533 38.7441C49.7456 38.0569 47.871 38.1207 47.3668 39.1093C46.9676 39.8929 46.9452 42.0867 47.3823 42.8541C47.9958 43.9321 50.1827 43.9213 50.7261 42.7755C51.147 41.8871 51.1917 39.4615 50.4533 38.7441Z" fill="black"/>
<path d="M120.164 39.1015V14.1366L125.749 13.8253C130.643 13.7452 135.512 13.484 137.389 18.9169C138.741 22.8304 138.743 31.1011 137.159 34.9383C134.947 40.2951 129.158 39.5237 124.368 39.3295C122.968 39.2725 121.551 39.2833 120.164 39.1015ZM122.476 37.3293C125.748 37.0227 130.839 38.3495 133.5 35.9817C135.807 33.9289 135.959 28.7102 135.893 25.8061C135.774 20.609 135.221 16.1176 129.071 15.8279C126.897 15.7254 124.661 16.0252 122.476 15.9088V37.3293Z" fill="black"/>
<path d="M80.007 21.6118L80.2391 24.4628C82.6757 22.152 86.1407 20.436 89.5647 21.42C91.2281 21.8985 92.2803 23.1791 92.8601 24.7525C93.9345 27.6681 93.9809 33.8863 92.5849 36.6893C90.3979 41.0821 83.7735 39.6621 80.3155 37.7157L80.3917 46.4997H78.1562V21.6118H80.007ZM80.4033 36.2409C83.4419 37.2319 89.1447 39.1881 90.7033 35.1159C91.5651 32.8645 91.5689 27.232 90.4551 25.0761C89.8693 23.9419 88.7768 23.28 87.5126 23.1629C84.6944 22.9025 82.5076 24.5075 80.431 26.1587L80.4033 36.2409Z" fill="black"/>
<path d="M190.775 39.1013H189.002L188.693 36.0963C186.165 38.4709 181.331 40.6253 178.033 38.7005C175.749 37.3675 175.573 33.4033 176.211 31.1303C176.632 29.6323 178.304 28.3903 179.868 28.3903H188.463V25.655C188.463 24.7612 187.662 23.7448 186.843 23.4212C185.274 22.8025 181.721 23.1731 179.946 23.3056C178.974 23.3781 177.995 23.516 177.026 23.6192L176.745 21.9179C177.867 21.8054 178.98 21.5812 180.1 21.4564C184.164 21.0033 190.538 19.9963 190.774 25.8098L190.775 39.1013ZM188.463 30.1633C186.3 30.2311 184.107 30.0731 181.946 30.1601C180.637 30.2125 179.112 30.1909 178.537 31.6071C178.22 32.3893 178.23 33.7469 178.284 34.5967C178.577 39.2577 184.522 37.1371 186.991 35.5885C187.501 35.2687 187.941 34.8533 188.462 34.5545L188.463 30.1633Z" fill="black"/>
<path d="M155.312 25.5783C154.961 22.6195 151.254 23.044 149.103 23.1481C148.342 23.185 147.558 23.249 146.795 23.306C145.824 23.3784 144.845 23.5164 143.876 23.6196L143.594 21.9183C145.505 21.6895 147.415 21.3558 149.339 21.2256C153.271 20.9598 157.282 20.8588 157.624 25.8102V39.101H155.851L155.542 36.0958C153.139 38.268 149.443 40.0702 146.138 39.2172C142.669 38.322 142.665 34.9616 142.898 31.9714C143.049 30.0496 144.77 28.3914 146.717 28.3914H155.312C155.235 27.5015 155.415 26.4474 155.312 25.5783ZM155.312 30.163C153.149 30.2308 150.956 30.0728 148.795 30.1598C147.501 30.2114 145.955 30.1968 145.387 31.6068C145.078 32.3736 145.08 33.7582 145.133 34.5972C145.427 39.2582 151.371 37.1368 153.84 35.5888C154.351 35.2692 154.79 34.8538 155.311 34.5548L155.312 30.163Z" fill="black"/>
<path d="M101.087 13.752C101.198 13.8198 101.194 13.9053 101.207 14.0178C101.446 16.055 101.023 18.5631 101.2 20.6512C101.356 21.0465 101.208 21.367 101.2 21.7238C101.181 22.643 101.212 23.5638 100.972 24.4614L102.674 23.3511C106.346 20.8076 113.465 19.2334 113.848 25.6526L113.845 39.1013H111.532V25.8098C111.532 25.5586 111.302 24.7141 111.185 24.4614C110.465 22.9011 108.427 22.9674 106.983 23.2663C104.838 23.7109 103.061 25.0139 101.203 26.0795V39.1013H98.8906V13.8675L99.0062 13.752H101.087Z" fill="black"/>
<path d="M167.029 16.2937V21.6103H173.041V23.3825H167.144L167.029 23.4981V35.1329C167.029 35.1999 167.131 35.6653 167.16 35.7725C167.773 38.0725 170.75 37.1263 172.494 37.3367L172.791 38.9887L172.68 39.0849C169.929 39.4671 165.961 40.1821 165.003 36.6947C164.946 36.4867 164.793 35.8449 164.793 35.6715V23.3817H161.633V21.7636L164.793 21.6095V16.293L167.029 16.2937Z" fill="black"/>
<path d="M61.3999 19.9682L55.8191 23.2113C54.7383 23.4902 54.1965 22.3021 55.0337 21.6556L60.7123 18.4688C61.5225 18.5242 61.9511 19.3001 61.3999 19.9682Z" fill="black"/>
<path d="M63.0199 17.0051C64.6017 16.6429 64.5053 18.9768 63.1949 18.7295C62.1999 18.5422 62.2515 17.1807 63.0199 17.0051Z" fill="black"/>
<path d="M61.4048 28.1865C61.9676 28.7482 61.5514 29.2983 61.0388 29.6567C59.4532 30.7623 57.4366 31.5907 55.8062 32.6701C54.6654 32.9761 54.1776 31.5359 55.1634 31.0267C56.8684 30.2853 58.6762 28.7189 60.3512 28.0455C60.7166 27.8983 61.1066 27.8883 61.4048 28.1865Z" fill="black"/>
<path d="M63.1032 26.4069C64.3344 26.1572 64.5988 27.9256 63.5296 28.1444C62.3062 28.3948 62.0726 26.6165 63.1032 26.4069Z" fill="black"/>
<path d="M60.4761 36.7298C61.4295 36.5102 61.9861 37.4472 61.3857 38.1776L55.9265 41.3506C55.0031 41.8614 54.1321 40.6656 54.9107 39.9506L60.4761 36.7298Z" fill="black"/>
<path d="M62.6119 35.3516C63.4913 34.5124 64.7455 35.891 63.8243 36.6792C62.9711 37.4096 61.7947 36.1314 62.6119 35.3516Z" fill="black"/>
<path d="M43.72 27.4112C44.0785 27.0491 44.8339 27.1893 45.0043 27.741C45.1654 28.2611 45.2078 30.0494 44.8909 30.4702C44.6497 30.7908 43.9528 30.8038 43.6962 30.5126C43.3608 30.132 43.3547 27.7803 43.72 27.4112Z" fill="black"/>
<path d="M39.2813 16.0029C39.5056 15.952 39.891 15.9528 40.0714 16.1046C40.4915 16.4567 40.4568 18.4316 40.2849 18.9324C40.0112 19.7283 38.9706 19.6613 38.7717 18.7143C38.6507 18.138 38.5528 16.1685 39.2813 16.0029Z" fill="black"/>
<path d="M48.5026 24.5945C48.0801 24.2463 48.0709 21.7868 48.4825 21.4215C48.8425 21.1018 49.5686 21.2066 49.7536 21.6881C49.9386 22.1697 49.9394 23.9489 49.6974 24.4089C49.5162 24.7533 48.7577 24.8049 48.5026 24.5945Z" fill="black"/>
<path d="M40.1307 34.1159C40.5076 34.4965 40.5277 37.0069 40.0289 37.3227C39.753 37.4977 39.1702 37.4545 38.9598 37.1741C38.6068 36.7055 38.6075 34.6413 38.9598 34.1729C39.1964 33.8585 39.8763 33.8601 40.1307 34.1159Z" fill="black"/>
<path d="M48.6841 39.2717C49.4433 39.0499 49.7756 39.4567 49.855 40.1501C49.9151 40.6733 49.9575 42.2567 49.5181 42.5703C48.9546 42.9725 48.3873 42.6151 48.2524 41.9833C48.1399 41.4555 48.0473 39.4575 48.6841 39.2717Z" fill="black"/>
</g>
<defs>
<clipPath id="clip0_667_11803">
<rect width="158" height="40" fill="white" transform="translate(34 9)"/>
</clipPath>
</defs>
</svg>
