<svg width="225" height="58" viewBox="0 0 225 58" fill="none" xmlns="http://www.w3.org/2000/svg">
<g clip-path="url(#clip0_667_11805)">
<path d="M101.352 32.2844V18.8069H104.596H107.841V19.6206C107.841 20.0682 107.864 20.4344 107.892 20.4344C107.92 20.4344 108.159 20.2712 108.424 20.0717C109.096 19.5651 109.79 19.2359 110.71 18.9876C111.735 18.7109 114.379 18.6846 115.548 18.9396C117.326 19.3274 119.218 20.3788 120.619 21.7581C121.478 22.6041 121.676 22.8685 122.189 23.8597C123.515 26.4193 123.82 29.3775 123.045 32.157C121.732 36.8662 117.242 39.6454 111.76 39.1416C110.371 39.014 109.775 38.8284 108.713 38.1918C108.286 37.9358 107.915 37.7262 107.889 37.7262C107.863 37.7262 107.841 39.5342 107.841 41.744V45.7618H104.596H101.352V32.2844ZM113.433 33.5078C116.373 32.8926 117.942 29.677 116.607 26.9998C116.196 26.1762 115.278 25.3102 114.36 24.8809C113.699 24.5717 113.597 24.5539 112.477 24.5539C111.356 24.5539 111.254 24.5717 110.593 24.8809C109.155 25.5534 108.153 26.8574 107.917 28.3632C107.549 30.7109 109.133 33.0016 111.472 33.5034C112.311 33.6832 112.592 33.6838 113.433 33.5078ZM133.433 39.7148C130.057 39.1968 127.102 37.087 125.517 34.0644C124.53 32.1828 124.138 30.226 124.334 28.1649C124.567 25.7105 125.516 23.5952 127.156 21.8772C128.248 20.7321 129.083 20.1211 130.452 19.4656C132.162 18.6465 133.065 18.451 135.139 18.451C136.593 18.451 136.97 18.4854 137.752 18.6893C139.718 19.2026 141.131 19.977 142.562 21.3252C144.121 22.7947 145.018 24.2282 145.583 26.1517C146.476 29.1949 145.965 32.3894 144.153 35.0844C141.818 38.5588 137.645 40.3612 133.433 39.7148ZM136.534 33.4996C139.298 32.7888 140.748 29.7251 139.524 27.1802C138.851 25.7799 137.61 24.8452 136.081 24.5863C133.038 24.0711 130.271 26.7998 130.793 29.8013C131.261 32.4978 133.877 34.1828 136.534 33.4996ZM188.988 39.2056C187.698 38.7172 187.076 37.3842 187.475 35.9644C187.611 35.4836 188.192 34.8336 188.749 34.542C189.298 34.2536 190.534 34.2386 191.073 34.514C192.946 35.4696 192.985 38.1366 191.139 39.0674C190.598 39.3402 189.525 39.4092 188.988 39.2056ZM190.589 38.606C191.042 38.419 191.563 37.8088 191.647 37.3666C191.908 35.9928 191.144 34.9454 189.876 34.939C188.883 34.934 188.144 35.7328 188.143 36.8108C188.142 38.1688 189.404 39.0948 190.589 38.606ZM188.91 36.8108L188.904 35.4144C189.456 35.4238 189.982 35.3928 190.529 35.4734C191.326 35.862 191.082 37.0096 190.249 37.0332C190.405 37.3336 190.782 37.8594 191.03 38.2436C190.906 38.2314 190.581 38.232 190.387 38.2406C190.117 37.8672 189.918 37.442 189.625 37.0548C189.603 37.026 189.558 37.0474 189.555 37.0562C189.551 37.4894 189.553 37.848 189.56 38.244L188.91 38.2348V36.8108ZM190.398 36.413C190.538 36.1892 190.316 36.0248 189.929 36.0192C189.732 36.0164 189.622 36.0162 189.537 36.0224C189.534 36.148 189.537 36.3636 189.529 36.5018C189.498 36.464 189.646 36.4942 189.945 36.5002C190.18 36.5048 190.366 36.464 190.398 36.413ZM34.178 35.997C34.568 35.018 36.7981 29.4109 39.1337 23.5367C41.4694 17.6626 43.4331 12.8228 43.4974 12.7817C43.5618 12.7406 44.8719 12.7063 46.4088 12.7055C48.5247 12.7043 49.2272 12.7348 49.3018 12.831C49.3559 12.901 49.776 13.9194 50.2353 15.0942C50.6946 16.2691 52.6076 21.1439 54.4864 25.9271C58.5038 36.1554 59.6326 39.0462 59.6326 39.1076C59.6326 39.1324 57.8642 39.1408 55.7028 39.126L51.7733 39.0994L51.2286 37.6246C50.9291 36.8134 50.662 36.069 50.6351 35.9704C50.5894 35.8026 50.3204 35.793 46.344 35.818L42.1017 35.8444L41.2404 37.472L40.3791 39.0994L36.9235 39.1262L33.0547 39.102C33.4127 38.0282 33.773 37.0302 34.178 35.997ZM48.4559 29.7161C48.4155 29.6181 47.9508 28.2793 47.4233 26.7408C46.094 22.8636 46.2278 23.1949 46.1114 23.4929C45.8877 24.0653 43.975 29.7105 43.975 29.7982C43.975 29.8553 44.8951 29.8941 46.2522 29.8941C48.3804 29.8941 48.5246 29.8824 48.4559 29.7161ZM60.2758 29.1058L60.302 19.0612H63.5468H66.7916L66.818 29.1058L66.8442 39.1502H63.5468H60.2496L60.2758 29.1058ZM68.3106 29.1058L68.3368 19.0612H71.2726H74.2084L74.2376 20.2043L74.2666 21.3473L74.885 20.6379C75.225 20.2477 75.7694 19.7501 76.0944 19.5321C76.9976 18.9265 77.5294 18.7777 78.9672 18.728C80.829 18.6637 82.2132 18.9857 83.4794 19.7777C84.0466 20.1325 85.0296 21.1129 85.3362 21.6296C85.4442 21.8114 85.565 21.9601 85.6048 21.9601C85.6446 21.9601 85.7718 21.809 85.8874 21.6242C86.1726 21.1685 87.2776 20.1445 87.9114 19.7487C89.0644 19.0284 90.7406 18.6025 92.411 18.6052C93.769 18.6075 94.6706 18.7998 95.7558 19.3184C96.717 19.7778 97.9618 20.8426 98.487 21.6546C99.08 22.5711 99.684 24.9115 99.9178 27.1986C100.042 28.4105 99.9996 34.2588 99.8422 37.7008L99.7758 39.1502H96.563H93.3502L93.2822 34.9544C93.2446 32.6468 93.214 29.8858 93.214 28.8191C93.2138 26.6658 93.1206 26.15 92.6042 25.4463C92.4084 25.1793 92.09 24.9314 91.7018 24.7435C91.1908 24.4961 90.9802 24.4537 90.278 24.457C88.7184 24.4642 87.859 25.1403 87.261 26.8305C87.117 27.2372 87.09 28.0963 87.0594 33.2252L87.0238 39.1502H83.944H80.864L80.8326 32.8692C80.8018 26.753 80.7954 26.5762 80.5864 26.1305C80.334 25.5922 79.8436 25.1399 79.1424 24.7992C78.3776 24.4274 77.208 24.4481 76.3832 24.848C76.0496 25.0097 75.6014 25.3204 75.3872 25.5383C74.6602 26.2781 74.672 26.1544 74.672 33.0146V39.1502H71.4782H68.2844L68.3106 29.1058ZM147.191 28.8769V18.7052H150.487H153.784V28.8769V39.0486H150.487H147.191V28.8769ZM155.273 38.9214C155.246 38.8514 155.236 34.2856 155.251 28.7752L155.277 18.7561L158.445 18.7292L161.612 18.7023V19.5608V20.4193L162.179 19.8326C163.254 18.7203 164.488 18.2983 166.669 18.2983C169.041 18.2983 170.007 18.5205 171.286 19.36C172.564 20.1995 173.656 21.4499 174.088 22.5704C174.59 23.8738 174.616 24.294 174.664 31.9044L174.708 39.0514L171.328 39.0246L167.948 38.9976L167.896 32.2336C167.857 27.1222 167.813 25.4156 167.717 25.2495C167.504 24.8814 166.789 24.3395 166.343 24.2076C164.601 23.6922 162.841 24.2377 162.218 25.4862L161.973 25.978L161.944 32.5132L161.914 39.0486H158.618C156.076 39.0486 155.311 39.0194 155.273 38.9214ZM177.373 31.484V24.0182L177.141 23.9569C177.014 23.9231 176.457 23.8949 175.905 23.8941L174.901 23.8928V21.299V18.7052H176.031H177.161L177.19 17.2557L177.218 15.8063L180.592 15.7794L183.966 15.7526V17.1781V18.6035H188.447H192.927V21.2481V23.8928H188.499H184.07L184.043 31.3944L184.017 38.896L180.695 38.9228L177.373 38.9496V31.484ZM60.2746 15.018L60.302 12.4496H63.5468H66.7916L66.8192 15.018L66.8468 17.5863H63.5468H60.247L60.2746 15.018ZM147.261 17.2148C147.223 17.1767 147.191 16.0317 147.191 14.6704V12.1953H150.489H153.787L153.76 14.7128L153.732 17.2303L150.532 17.2572C148.771 17.2719 147.3 17.2528 147.261 17.2148Z" fill="black"/>
</g>
<defs>
<clipPath id="clip0_667_11805">
<rect width="160" height="36" fill="white" transform="translate(33 11)"/>
</clipPath>
</defs>
</svg>
