<svg width="225" height="58" viewBox="0 0 225 58" fill="none" xmlns="http://www.w3.org/2000/svg">
<g clip-path="url(#clip0_667_11801)">
<g clip-path="url(#clip1_667_11801)">
<g clip-path="url(#clip2_667_11801)">
<path d="M111.748 16.1562V25.279C111.879 25.3103 111.84 25.2538 111.876 25.2079C112.649 24.2245 112.954 23.6598 114.145 23.0559C116.985 21.6176 121.709 22.2729 122.814 25.6702L124.326 22.8158H126.707V17.5549H131.526V22.8158H135.616L134.047 26.006H131.526V35.3806C131.526 35.543 131.73 36.0986 131.838 36.2442C132.385 36.9886 134.242 36.7131 135.056 36.6397V40.3337L133.181 40.5037C131.139 40.4937 128.21 40.5974 127.125 38.489C126.964 38.175 126.707 37.3399 126.707 37.0035V26.006H122.954L123.348 28.3824L123.346 40.3337H118.527L118.53 29.4452C118.354 27.2731 117.476 25.9847 115.138 26.1185C112.672 26.2595 111.888 28.0007 111.746 30.2293L111.748 40.3337H106.93V16.1562H111.748Z" fill="black"/>
<path d="M101.66 22.8168H105.078V39.8584C104.834 44.0816 102.07 46.3126 98.0391 46.8196C95.3609 47.1566 92.5203 46.8442 90.3105 45.2038L90.2915 45.1294L92.0233 41.7338C92.8733 42.7458 94.1109 43.4196 95.4215 43.6278C97.4351 43.948 99.4297 43.573 100.189 41.4674C100.288 41.1926 100.483 40.5166 100.483 40.2502V37.088C100.214 37.4058 100.014 37.791 99.7271 38.096C98.0093 39.9266 94.6959 40.1818 92.4279 39.3978C85.3363 36.9458 86.2659 23.0038 94.3553 22.3758C96.8961 22.1788 99.1569 22.8633 100.455 25.1658L101.66 22.8168ZM96.0461 25.9678C91.1369 26.3775 91.4143 35.7408 95.8679 36.1864C98.5215 36.4516 100.315 34.5158 100.486 31.9698C100.687 28.9766 99.6645 25.6656 96.0461 25.9678Z" fill="black"/>
<path d="M160.379 22.817L154.854 40.3382L149.907 40.3292L146.792 28.5811L143.733 40.3292L138.749 40.3102L135.164 29.0003C135.923 27.3996 136.726 25.7916 137.546 24.2145C137.781 23.7645 138.022 23.2826 138.303 22.8724L141.553 34.737L144.473 22.822H149.168L152.171 34.6814L155.448 22.8164L160.379 22.817Z" fill="black"/>
<path d="M37.4512 16.1562V25.279C37.5818 25.3103 37.5436 25.2538 37.5794 25.2079C37.807 24.9185 37.9768 24.59 38.2338 24.2979C39.9646 22.3323 42.9128 21.959 45.3376 22.6894C48.0002 23.4914 48.8608 25.7474 49.0484 28.3292V40.3337H44.2306L44.2334 29.4452C44.0574 27.2731 43.1794 25.9847 40.8414 26.1185C38.3756 26.2595 37.5912 28.0007 37.449 30.2293L37.4512 40.3337H32.6328V16.1562H37.4512Z" fill="black"/>
<path d="M197.584 16.1562V29.0288L203.607 22.8164H209.295L202.737 29.2795L210.023 40.3344H204.195L199.433 32.5257L197.584 34.2617V40.3344H192.766V16.1562H197.584Z" fill="black"/>
<path d="M58.4531 22.3858C64.7417 21.9269 68.9075 25.8692 68.6077 32.1935C68.3063 38.5643 62.9869 41.8905 56.9409 40.4851C47.6419 38.3231 48.3759 23.1212 58.4531 22.3858ZM59.1261 25.9683C54.1435 26.3461 54.1047 35.4599 57.9315 36.9223C60.6551 37.9633 63.0481 36.3593 63.6033 33.6303C64.2807 30.3007 63.4621 25.6398 59.1261 25.9683Z" fill="black"/>
<path d="M167.486 22.3858C173.893 21.9073 177.989 25.9672 177.64 32.3614C177.318 38.2834 172.615 41.4406 166.917 40.6626C156.65 39.26 157.082 23.1632 167.486 22.3858ZM168.214 25.9672C164.577 26.2123 163.96 30.3276 164.431 33.238C164.859 35.8808 166.553 37.5844 169.367 37.1384C172.699 36.61 173.168 32.5092 172.69 29.801C172.269 27.4072 170.771 25.7948 168.214 25.9672Z" fill="black"/>
<path d="M74.7114 22.817L74.7092 33.537C74.8648 35.5054 75.5002 36.9852 77.706 37.035C80.2722 37.0932 81.317 35.5244 81.493 33.1452L81.4908 22.817H86.3092V40.3348H81.7708V37.8722C81.6656 37.8488 81.6622 37.9074 81.6124 37.9656C81.4544 38.1486 81.3198 38.4246 81.1534 38.626C79.4116 40.735 76.4006 41.1524 73.8474 40.4982C70.8342 39.7264 70.029 37.2112 69.8906 34.3764L69.8934 22.8164L74.7114 22.817Z" fill="black"/>
<path d="M224.478 27.9091H219.94C219.898 25.7001 217.324 25.3492 215.606 25.6223C213.654 25.9318 213.294 27.8006 215.1 28.686C218.152 30.1803 224.636 29.4885 224.982 34.3181C225.422 40.4375 218.35 41.4785 213.776 40.4185C210.896 39.7503 208.742 37.7153 208.734 34.6253H213.246L213.32 34.7177C213.326 37.3605 216.62 38.0841 218.668 37.2983C220.482 36.6015 220.812 34.6683 218.896 33.7935C215.57 32.2747 208.946 32.8309 209.126 27.655C209.294 22.8206 214.546 22.0219 218.4 22.4249C221.564 22.7562 224.334 24.4688 224.478 27.9091Z" fill="black"/>
<path d="M27.5946 17.5547V22.8156H31.6848L30.116 26.0058H27.5946V35.3804C27.5946 35.5426 27.7992 36.0984 27.9068 36.244C28.4542 36.9884 30.3104 36.713 31.1244 36.6396V40.3336L29.2498 40.5036C27.2074 40.4936 24.2784 40.5972 23.1942 38.4888C23.0328 38.1748 22.7762 37.3398 22.7762 37.0034V26.0058H18.7422L20.395 22.8156H22.7762V17.5547H27.5946Z" fill="black"/>
<path d="M183.298 26.0628C183.43 26.0903 183.388 26.0461 183.424 25.9906C183.527 25.8311 183.596 25.6022 183.701 25.4298C185.467 22.5503 188.924 21.4186 191.93 23.1855L189.91 27.2141L189.835 27.2303C189.57 27.1033 189.302 26.993 189.013 26.9292C188.027 26.7109 186.678 26.7977 185.743 27.1895C183.798 28.0044 183.648 30.3052 183.519 32.1326L183.522 40.334H178.703V22.8167H183.298L183.298 26.0628Z" fill="black"/>
<path d="M23.0223 11.0586H15.7561L1 40.3341H8.2663L23.0223 11.0586Z" fill="black"/>
</g>
</g>
</g>
<defs>
<clipPath id="clip0_667_11801">
<rect width="225" height="58" fill="white"/>
</clipPath>
<clipPath id="clip1_667_11801">
<rect width="224" height="36" fill="white" transform="translate(1 11)"/>
</clipPath>
<clipPath id="clip2_667_11801">
<rect width="224" height="36" fill="white" transform="translate(1 11)"/>
</clipPath>
</defs>
</svg>
