<svg width="225" height="58" viewBox="0 0 225 58" fill="none" xmlns="http://www.w3.org/2000/svg">
<g clip-path="url(#clip0_667_11762)">
<g clip-path="url(#clip1_667_11762)">
<path fill-rule="evenodd" clip-rule="evenodd" d="M28.1999 5.13672C15.0563 5.13672 4.33594 15.8571 4.33594 29.0007C4.33594 42.1441 15.0563 52.8645 28.1999 52.8645C41.3433 52.8645 52.0637 42.1441 52.0637 29.0007C52.0637 15.8571 41.3433 5.13672 28.1999 5.13672ZM28.1999 6.23813C34.1475 6.23813 39.6545 8.58781 43.6931 12.3326H12.7067C16.7452 8.58781 22.2522 6.23813 28.1999 6.23813ZM50.9623 29.0007C50.9623 35.0217 48.6127 40.4553 44.8679 44.4937V13.5075C48.6127 17.546 50.9623 22.9796 50.9623 29.0007ZM28.1999 51.7631C22.2522 51.7631 16.7452 49.4135 12.7067 45.6687H43.6931C39.6545 49.4135 34.1475 51.7631 28.1999 51.7631ZM11.5318 13.5075V44.4937C7.71361 40.4553 5.43735 35.0217 5.43735 29.0007C5.43735 22.9796 7.78703 17.546 11.5318 13.5075ZM12.7067 44.4937H43.6931V13.5075H12.7067V44.4937Z" fill="black"/>
<path d="M66.8906 20.1875V37.7366H68.2122V20.1875H66.8906Z" fill="black"/>
<path d="M78.3516 37.7366V20.1875H79.7466L89.5124 33.1842C89.5858 33.331 89.7328 33.4778 89.8796 33.6982L89.953 33.7716C90.0998 33.9918 90.2468 34.1386 90.3936 34.359L90.5404 34.5058L90.6138 34.5792C90.6874 34.7262 90.8342 34.873 90.9076 34.9464H90.981V20.1875H92.3762V37.7366H91.2748L81.362 24.3729C81.2152 24.226 81.0684 23.9323 80.7746 23.5652C80.5544 23.2714 80.334 22.9043 80.1138 22.6106L79.967 22.4637H79.8934V37.6632H78.3516V37.7366Z" fill="black"/>
<path d="M100.227 20.1875L106.982 37.7366H108.818L115.573 20.1875H114.104L109.258 33.0372C109.111 33.331 109.038 33.6982 108.818 34.1386C108.671 34.5792 108.524 34.9464 108.377 35.387C108.23 35.754 108.083 36.1212 108.01 36.415H107.863C107.79 36.1212 107.643 35.754 107.496 35.387C107.349 35.0198 107.202 34.5792 107.055 34.2122C106.908 33.7716 106.762 33.4044 106.615 33.1108L101.695 20.2609H100.227V20.1875Z" fill="black"/>
<path d="M123.43 20.1875H124.825V37.7366H123.43V20.1875Z" fill="black"/>
<path d="M138.632 37.8109C139.513 37.9577 140.395 38.0311 141.349 38.0311C142.744 38.0311 143.919 37.8843 144.947 37.5171C145.975 37.1499 146.783 36.6359 147.37 35.8283C147.958 35.0939 148.251 34.1395 148.251 32.9647C148.251 32.1569 148.104 31.4961 147.737 30.9087C147.37 30.3947 146.93 29.8807 146.342 29.5135C145.755 29.1463 145.094 28.8527 144.36 28.6323C143.625 28.4121 142.891 28.1919 142.083 27.9715C141.276 27.7513 140.541 27.6045 139.807 27.3841C139.073 27.1639 138.412 26.9435 137.825 26.6499C137.237 26.3561 136.797 26.0625 136.429 25.6219C136.062 25.1813 135.916 24.6673 135.916 24.0065C135.916 23.4925 136.136 22.9785 136.503 22.5379C136.87 22.0974 137.457 21.7302 138.339 21.4365C139.146 21.1428 140.248 20.996 141.569 20.996C142.451 20.996 143.258 21.1428 143.993 21.4365C144.727 21.7302 145.314 22.0974 145.681 22.6114C146.122 23.1253 146.342 23.7128 146.342 24.3736V24.961H147.737V24.6673C147.737 23.8596 147.59 23.1253 147.223 22.5379C146.93 21.9505 146.416 21.4365 145.902 21.0694C145.314 20.7022 144.653 20.4085 143.919 20.1882C143.185 19.968 142.304 19.8945 141.423 19.8945C140.174 19.8945 139.073 20.0414 138.192 20.2617C137.311 20.482 136.576 20.7757 136.062 21.2162C135.548 21.6568 135.181 22.0974 134.888 22.6114C134.667 23.1253 134.52 23.7128 134.52 24.3736C134.52 25.1079 134.667 25.7687 135.034 26.2827C135.402 26.7967 135.842 27.2373 136.429 27.6045C137.017 27.9715 137.678 28.2653 138.412 28.4855C139.146 28.7059 139.881 28.9261 140.688 29.1463C141.496 29.3667 142.23 29.5135 142.965 29.7337C143.699 29.9541 144.36 30.1743 144.947 30.4681C145.535 30.7617 145.975 31.1289 146.342 31.5695C146.709 32.0101 146.856 32.5975 146.856 33.2583C146.856 33.9191 146.709 34.5065 146.416 34.9471C146.122 35.3877 145.681 35.7549 145.241 35.9751C144.727 36.2689 144.213 36.4157 143.699 36.5625C143.185 36.7095 142.671 36.7829 142.23 36.7829C141.79 36.7829 141.423 36.8563 141.202 36.8563C140.174 36.8563 139.22 36.7095 138.339 36.4891C137.457 36.2689 136.797 35.8283 136.283 35.2409C135.769 34.6535 135.548 33.9925 135.548 33.1849C135.548 33.1115 135.548 32.9647 135.548 32.8177C135.548 32.6709 135.548 32.5975 135.622 32.5241H134.227C134.227 32.6709 134.227 32.7443 134.227 32.8177V33.0381C134.227 34.0661 134.447 34.8737 134.814 35.5345C135.181 36.1955 135.769 36.7095 136.429 37.0765C136.943 37.4437 137.751 37.6639 138.632 37.8109Z" fill="black"/>
<path d="M157.5 20.1875H158.895V37.7366H157.5V20.1875Z" fill="black"/>
<path fill-rule="evenodd" clip-rule="evenodd" d="M169.031 20.1879V37.7371H177.549C178.577 37.7371 179.531 37.5903 180.339 37.2965C181.147 37.0027 181.808 36.4887 182.248 35.8279C182.689 35.1671 182.909 34.2125 182.909 32.9643C182.909 32.0097 182.762 31.2021 182.468 30.6147C182.175 30.0271 181.808 29.5867 181.294 29.2195C180.78 28.9257 180.266 28.6321 179.678 28.5587V28.4853C180.266 28.2649 180.706 27.9713 181.147 27.6041C181.587 27.2369 181.881 26.7229 182.101 26.1355C182.322 25.5481 182.468 24.9607 182.468 24.2998C182.468 23.4187 182.248 22.6844 181.881 22.0236C181.514 21.3627 180.926 20.9222 180.266 20.555C179.531 20.1879 178.65 20.041 177.622 20.041H169.031V20.1879ZM177.475 28.1181H170.426V21.4362H177.696C178.65 21.4362 179.458 21.7299 180.119 22.2439C180.706 22.7578 181 23.5655 181 24.667C181 25.4013 180.853 25.9887 180.559 26.5027C180.266 27.0167 179.825 27.4573 179.311 27.6775C178.724 27.9713 178.136 28.1181 177.475 28.1181ZM177.916 36.5623H170.426V29.3663H177.769C178.577 29.3663 179.238 29.5131 179.825 29.7335C180.412 29.9537 180.78 30.3943 181.073 30.9083C181.367 31.4223 181.514 32.1565 181.514 32.9643C181.514 34.2859 181.22 35.2405 180.559 35.7545C179.825 36.2685 178.944 36.5623 177.916 36.5623Z" fill="black"/>
<path d="M191.797 37.7366V20.1875H193.192V36.4884H201.856V37.7366H191.797Z" fill="black"/>
<path d="M209.562 20.1875V37.7366H223.001V36.4884H210.885V29.366H221.678V28.1176H210.885V21.4358H222.855V20.1875H209.562Z" fill="black"/>
</g>
</g>
<defs>
<clipPath id="clip0_667_11762">
<rect width="220" height="48" fill="white" transform="translate(3 5)"/>
</clipPath>
<clipPath id="clip1_667_11762">
<rect width="220" height="48" fill="white" transform="translate(3 5)"/>
</clipPath>
</defs>
</svg>
