<svg width="225" height="58" viewBox="0 0 225 58" fill="none" xmlns="http://www.w3.org/2000/svg">
<g clip-path="url(#clip0_667_11761)">
<g clip-path="url(#clip1_667_11761)">
<path d="M164.406 33.76C164.406 33.6446 164.406 33.5116 164.282 33.4406C164.045 32.706 164.014 31.92 164.193 31.1692C164.338 30.5864 164.67 30.0672 165.138 29.6906C165.606 29.3142 166.184 29.1012 166.784 29.084H167.325C167.996 29.1232 168.63 29.405 169.108 29.8768C169.586 30.3486 169.877 30.9782 169.925 31.6482C170.033 32.592 169.783 33.5418 169.224 34.3102C169.166 34.3224 169.112 34.3502 169.068 34.391C169.024 34.4316 168.992 34.4834 168.976 34.5408C168.638 34.7322 168.285 34.8954 167.92 35.0288L167.503 35.162C166.908 35.2322 166.305 35.1386 165.76 34.8916C165.214 34.6446 164.746 34.2534 164.406 33.76Z" fill="black"/>
<path d="M127.991 55.9686C130.152 55.9686 131.904 54.2166 131.904 52.0556C131.904 49.8946 130.152 48.1426 127.991 48.1426C125.83 48.1426 124.078 49.8946 124.078 52.0556C124.078 54.2166 125.83 55.9686 127.991 55.9686Z" fill="black"/>
<path d="M136.178 51.3638C137.903 51.3638 139.301 49.9654 139.301 48.2406C139.301 46.5156 137.903 45.1172 136.178 45.1172C134.453 45.1172 133.055 46.5156 133.055 48.2406C133.055 49.9654 134.453 51.3638 136.178 51.3638Z" fill="black"/>
<path d="M142.421 47.7448C143.754 47.7448 144.835 46.6644 144.835 45.3314C144.835 43.9986 143.754 42.918 142.421 42.918C141.088 42.918 140.008 43.9986 140.008 45.3314C140.008 46.6644 141.088 47.7448 142.421 47.7448Z" fill="black"/>
<path d="M147.961 44.5755C148.97 44.5755 149.788 43.7573 149.788 42.7477C149.788 41.7383 148.97 40.9199 147.961 40.9199C146.951 40.9199 146.133 41.7383 146.133 42.7477C146.133 43.7573 146.951 44.5755 147.961 44.5755Z" fill="black"/>
<path d="M152.453 41.8965C153.139 41.8965 153.695 41.3403 153.695 40.6543C153.695 39.9681 153.139 39.4121 152.453 39.4121C151.767 39.4121 151.211 39.9681 151.211 40.6543C151.211 41.3403 151.767 41.8965 152.453 41.8965Z" fill="black"/>
<path d="M156.064 39.8286C156.539 39.8286 156.925 39.4434 156.925 38.968C156.925 38.4926 156.539 38.1074 156.064 38.1074C155.589 38.1074 155.203 38.4926 155.203 38.968C155.203 39.4434 155.589 39.8286 156.064 39.8286Z" fill="black"/>
<path d="M159.047 38.2331C159.41 38.2331 159.704 37.9391 159.704 37.5765C159.704 37.2139 159.41 36.9199 159.047 36.9199C158.685 36.9199 158.391 37.2139 158.391 37.5765C158.391 37.9391 158.685 38.2331 159.047 38.2331Z" fill="black"/>
<path d="M161.427 36.8468C161.633 36.8468 161.8 36.68 161.8 36.4742C161.8 36.2684 161.633 36.1016 161.427 36.1016C161.221 36.1016 161.055 36.2684 161.055 36.4742C161.055 36.68 161.221 36.8468 161.427 36.8468Z" fill="black"/>
<path d="M163.219 35.9691C163.4 35.9691 163.547 35.8221 163.547 35.6407C163.547 35.4595 163.4 35.3125 163.219 35.3125C163.038 35.3125 162.891 35.4595 162.891 35.6407C162.891 35.8221 163.038 35.9691 163.219 35.9691Z" fill="black"/>
<path d="M190.234 49.9442C191.567 49.9442 192.647 48.8636 192.647 47.5306C192.647 46.1978 191.567 45.1172 190.234 45.1172C188.901 45.1172 187.82 46.1978 187.82 47.5306C187.82 48.8636 188.901 49.9442 190.234 49.9442Z" fill="black"/>
<path d="M185 46.1908C186.009 46.1908 186.827 45.3724 186.827 44.363C186.827 43.3536 186.009 42.5352 185 42.5352C183.99 42.5352 183.172 43.3536 183.172 44.363C183.172 45.3724 183.99 46.1908 185 46.1908Z" fill="black"/>
<path d="M180.758 43.041C181.444 43.041 182 42.485 182 41.7988C182 41.1128 181.444 40.5566 180.758 40.5566C180.072 40.5566 179.516 41.1128 179.516 41.7988C179.516 42.485 180.072 43.041 180.758 43.041Z" fill="black"/>
<path d="M177.353 40.5925C177.828 40.5925 178.213 40.2071 178.213 39.7319C178.213 39.2565 177.828 38.8711 177.353 38.8711C176.877 38.8711 176.492 39.2565 176.492 39.7319C176.492 40.2071 176.877 40.5925 177.353 40.5925Z" fill="black"/>
<path d="M174.532 38.6843C174.894 38.6843 175.188 38.3903 175.188 38.0277C175.188 37.6651 174.894 37.3711 174.532 37.3711C174.169 37.3711 173.875 37.6651 173.875 38.0277C173.875 38.3903 174.169 38.6843 174.532 38.6843Z" fill="black"/>
<path d="M172.287 37.0423C172.493 37.0423 172.659 36.8755 172.659 36.6697C172.659 36.4637 172.493 36.2969 172.287 36.2969C172.081 36.2969 171.914 36.4637 171.914 36.6697C171.914 36.8755 172.081 37.0423 172.287 37.0423Z" fill="black"/>
<path d="M170.602 35.9789C170.783 35.9789 170.93 35.8319 170.93 35.6505C170.93 35.4693 170.783 35.3223 170.602 35.3223C170.42 35.3223 170.273 35.4693 170.273 35.6505C170.273 35.8319 170.42 35.9789 170.602 35.9789Z" fill="black"/>
<path d="M166.976 6.85809C168.309 6.85809 169.389 5.77757 169.389 4.44467C169.389 3.11177 168.309 2.03125 166.976 2.03125C165.643 2.03125 164.562 3.11177 164.562 4.44467C164.562 5.77757 165.643 6.85809 166.976 6.85809Z" fill="black"/>
<path d="M166.976 12.3939C167.986 12.3939 168.804 11.5756 168.804 10.5661C168.804 9.55662 167.986 8.73828 166.976 8.73828C165.967 8.73828 165.148 9.55662 165.148 10.5661C165.148 11.5756 165.967 12.3939 166.976 12.3939Z" fill="black"/>
<path d="M166.977 16.7598C167.663 16.7598 168.219 16.2036 168.219 15.5176C168.219 14.8315 167.663 14.2754 166.977 14.2754C166.291 14.2754 165.734 14.8315 165.734 15.5176C165.734 16.2036 166.291 16.7598 166.977 16.7598Z" fill="black"/>
<path d="M166.978 20.362C167.453 20.362 167.839 19.9766 167.839 19.5013C167.839 19.026 167.453 18.6406 166.978 18.6406C166.503 18.6406 166.117 19.026 166.117 19.5013C166.117 19.9766 166.503 20.362 166.978 20.362Z" fill="black"/>
<path d="M166.977 23.4575C167.34 23.4575 167.634 23.1637 167.634 22.8011C167.634 22.4383 167.34 22.1445 166.977 22.1445C166.614 22.1445 166.32 22.4383 166.32 22.8011C166.32 23.1637 166.614 23.4575 166.977 23.4575Z" fill="black"/>
<path d="M166.982 25.7921C167.188 25.7921 167.355 25.6253 167.355 25.4195C167.355 25.2137 167.188 25.0469 166.982 25.0469C166.776 25.0469 166.609 25.2137 166.609 25.4195C166.609 25.6253 166.776 25.7921 166.982 25.7921Z" fill="black"/>
<path d="M166.969 27.7269C167.15 27.7269 167.297 27.5799 167.297 27.3987C167.297 27.2173 167.15 27.0703 166.969 27.0703C166.788 27.0703 166.641 27.2173 166.641 27.3987C166.641 27.5799 166.788 27.7269 166.969 27.7269Z" fill="black"/>
<path d="M24.6641 34.6832V12.5898H29.3933V22.5896L36.7667 12.5898H42.2324L34.3621 22.6428L42.5163 34.6832H36.8288L29.4022 23.1486V34.6832H24.6641Z" fill="black"/>
<path d="M59.3736 27.3281C59.4 28.3833 59.2062 29.4327 58.8044 30.4089C58.4026 31.3851 57.8016 32.2667 57.04 32.9977C56.256 33.7535 55.3282 34.3441 54.3116 34.7343C53.2948 35.1245 52.2102 35.3065 51.1218 35.2693C50.0298 35.3035 48.942 35.1203 47.9214 34.7303C46.9008 34.3405 45.968 33.7515 45.177 32.9977C43.6729 31.4907 42.8281 29.4483 42.8281 27.3191C42.8281 25.1899 43.6729 23.1477 45.177 21.6405C45.9644 20.8839 46.8952 20.2923 47.9146 19.9007C48.934 19.5091 50.0214 19.3253 51.113 19.3602C52.1998 19.3232 53.283 19.5035 54.2992 19.8905C55.3154 20.2775 56.2442 20.8634 57.0312 21.6139C57.8 22.3491 58.4058 23.2377 58.8094 24.2221C59.2128 25.2065 59.4052 26.2647 59.3736 27.3281ZM54.9904 27.3281C55.0172 26.7997 54.9374 26.2715 54.756 25.7745C54.5746 25.2777 54.2954 24.8223 53.9346 24.4355C53.1548 23.7419 52.1476 23.3589 51.104 23.3589C50.0606 23.3589 49.0534 23.7419 48.2736 24.4355C47.5992 25.2501 47.23 26.2747 47.23 27.3325C47.23 28.3901 47.5992 29.4147 48.2736 30.2295C48.6412 30.5989 49.0824 30.8871 49.5684 31.0751C50.0544 31.2631 50.5746 31.3469 51.0952 31.3209C51.6168 31.3437 52.1374 31.2585 52.6244 31.0707C53.1116 30.8829 53.5546 30.5965 53.9256 30.2295C54.2896 29.8425 54.5714 29.3861 54.7544 28.8875C54.9374 28.3889 55.0176 27.8585 54.9904 27.3281Z" fill="black"/>
<path d="M62.625 34.6828V19.8828H66.8396V22.2076C67.5158 21.3228 68.3716 20.5909 69.3506 20.0602C70.2604 19.6341 71.2496 19.4043 72.254 19.386C73.2584 19.3676 74.2556 19.5611 75.1802 19.9538C75.9622 20.3461 76.6082 20.9644 77.0346 21.7284C77.2608 22.1694 77.4194 22.642 77.5048 23.1304C77.6186 23.9384 77.6662 24.7544 77.6468 25.5704V34.674H73.4056V27.3538C73.4056 25.526 73.1926 24.3282 72.7756 23.7426C72.513 23.4286 72.1776 23.1838 71.7988 23.0292C71.4198 22.8746 71.009 22.8148 70.6018 22.8552C70.0322 22.8518 69.47 22.9826 68.9602 23.2368C68.4654 23.4768 68.0384 23.8368 67.718 24.2838C67.4488 24.6444 67.2528 25.0544 67.1414 25.4904C67.0096 26.1744 66.9532 26.8706 66.9728 27.5668V34.665L62.625 34.6828Z" fill="black"/>
<path d="M85.3998 34.6828L79.375 19.8828H84.3438L86.846 27.5844C87.05 28.2056 87.2098 28.7912 87.334 29.359C87.453 29.865 87.5418 30.3776 87.6002 30.894C87.7244 30.1222 87.8486 29.4566 87.9818 28.9154C88.0884 28.412 88.2308 27.9168 88.4076 27.4336L90.9276 19.8828H95.8164L89.7296 34.6828H85.3998Z" fill="black"/>
<path d="M112.115 28.339H100.979C101.075 29.249 101.486 30.0966 102.142 30.7348C102.838 31.2946 103.717 31.5762 104.608 31.5244C105.313 31.544 106.011 31.3886 106.64 31.072C107.229 30.7504 107.72 30.275 108.06 29.6966L111.538 31.4712C110.829 32.6758 109.816 33.6732 108.601 34.3638C107.341 35.0234 105.932 35.3474 104.511 35.3042C103.466 35.3596 102.422 35.1982 101.443 34.8302C100.464 34.4622 99.5723 33.8956 98.8231 33.166C98.1061 32.393 97.5509 31.4848 97.1897 30.4944C96.8287 29.504 96.6689 28.4514 96.7203 27.3986C96.6841 26.343 96.8601 25.291 97.2381 24.305C97.6161 23.3188 98.1883 22.4186 98.9207 21.6578C99.6503 20.9118 100.527 20.3261 101.496 19.9381C102.465 19.55 103.503 19.3682 104.546 19.4041C105.57 19.3423 106.595 19.4933 107.557 19.8476C108.519 20.2019 109.397 20.7518 110.136 21.4626C110.842 22.2354 111.387 23.141 111.739 24.1268C112.09 25.1124 112.243 26.1582 112.186 27.2034V27.6736C112.186 27.8066 112.141 28.0286 112.115 28.339ZM107.856 25.757C107.796 24.9466 107.432 24.1888 106.835 23.6364C106.187 23.1292 105.377 22.874 104.555 22.9178C103.723 22.878 102.903 23.1324 102.239 23.6364C101.616 24.1798 101.217 24.9358 101.121 25.757H107.856Z" fill="black"/>
<path d="M119.545 23.673C119.856 22.443 120.505 21.3242 121.418 20.4433C122.251 19.7162 123.329 19.3325 124.434 19.3697C124.884 19.3892 125.331 19.4396 125.774 19.5205L126.04 19.5649L125.393 24.1876C125.079 24.0634 124.755 23.9654 124.425 23.8948C124.083 23.8316 123.736 23.7988 123.387 23.7972C122.872 23.7486 122.353 23.8132 121.866 23.9864C121.378 24.1596 120.935 24.4372 120.566 24.7998C119.891 25.7848 119.577 26.973 119.678 28.1626V34.6842H115.375V19.8843H119.616L119.545 23.673Z" fill="black"/>
<path d="M142.791 34.4437C142.834 35.5485 142.739 36.6545 142.507 37.7357C142.33 38.3569 142.001 38.9243 141.549 39.3859C140.866 40.1027 140.011 40.6313 139.064 40.9209C137.876 41.2765 136.64 41.444 135.4 41.4178C133.504 41.5352 131.61 41.143 129.917 40.282C129.308 39.92 128.802 39.4093 128.445 38.7977C128.088 38.1863 127.892 37.494 127.876 36.7862H132.596C132.617 37.0464 132.7 37.2978 132.837 37.52C132.975 37.7422 133.163 37.9284 133.386 38.0638C134.012 38.3676 134.705 38.5081 135.4 38.4721C135.861 38.5167 136.326 38.4604 136.762 38.3072C137.199 38.154 137.597 37.9075 137.929 37.5847C138.527 36.6925 138.794 35.6188 138.683 34.5502V32.4118C138.181 33.2616 137.465 33.9652 136.607 34.4526C135.721 34.915 134.731 35.1441 133.732 35.1181C132.813 35.1545 131.897 34.9826 131.053 34.6154C130.21 34.2482 129.46 33.695 128.861 32.9974C127.59 31.3566 126.96 29.31 127.086 27.2388C126.961 25.1652 127.592 23.1164 128.861 21.4716C129.464 20.7769 130.216 20.2271 131.061 19.8631C131.906 19.499 132.822 19.33 133.741 19.3687C134.751 19.3574 135.744 19.6212 136.616 20.1318C137.503 20.6748 138.234 21.4392 138.736 22.35V19.8833H142.791V34.4437ZM138.896 27.2744C138.958 26.1534 138.601 25.0495 137.893 24.1779C137.554 23.7975 137.134 23.4974 136.665 23.2994C136.195 23.1014 135.687 23.0105 135.178 23.0333C134.663 23.0119 134.149 23.1032 133.672 23.301C133.196 23.4986 132.768 23.7979 132.419 24.1779C131.711 25.0527 131.353 26.1597 131.416 27.2833C131.352 28.3881 131.704 29.4766 132.401 30.3356C133.141 31.0448 134.126 31.4408 135.152 31.4408C136.177 31.4408 137.162 31.0448 137.902 30.3356C138.597 29.471 138.95 28.382 138.896 27.2744Z" fill="black"/>
<path d="M161.505 28.3381H150.369C150.464 29.2501 150.879 30.0989 151.541 30.7339C152.232 31.2963 153.109 31.5781 153.998 31.5235C154.703 31.5431 155.401 31.3875 156.03 31.0711C156.622 30.7499 157.116 30.2747 157.459 29.6957L160.928 31.4703C160.222 32.6737 159.212 33.6711 158 34.3629C156.738 35.0173 155.331 35.3409 153.91 35.3033C152.864 35.3577 151.819 35.1959 150.839 34.8281C149.858 34.4601 148.965 33.8939 148.213 33.1649C147.498 32.3915 146.944 31.4829 146.585 30.4925C146.225 29.5021 146.067 28.4499 146.119 27.3977C146.081 26.3427 146.256 25.2909 146.632 24.3047C147.009 23.3187 147.58 22.4181 148.311 21.6569C149.041 20.9122 149.919 20.3273 150.887 19.9394C151.855 19.5514 152.894 19.3688 153.936 19.4031C154.964 19.3483 155.991 19.5077 156.953 19.8712C157.916 20.2348 158.792 20.7945 159.526 21.5149C160.235 22.2855 160.782 23.1907 161.134 24.1771C161.486 25.1633 161.637 26.2103 161.576 27.2557V27.6727C161.576 27.8057 161.531 28.0277 161.505 28.3381ZM157.246 25.7561C157.186 24.9457 156.822 24.1879 156.225 23.6355C155.577 23.1283 154.767 22.8731 153.945 22.9169C153.113 22.8771 152.293 23.1315 151.629 23.6355C151.012 24.1825 150.617 24.9371 150.52 25.7561H157.246Z" fill="black"/>
<path d="M172.5 35.1347L180.938 13.0234H186.324L194.86 35.1347H189.483L187.708 30.4321H179.146L177.602 35.1347H172.5ZM186.581 26.7143L184.097 19.616C184.035 19.403 183.946 19.0481 183.831 18.5335C183.715 18.0189 183.6 17.3889 183.485 16.6347C183.352 17.3445 183.227 17.9923 183.103 18.5601C182.979 19.128 182.89 19.5007 182.828 19.6959L180.441 26.7499L186.581 26.7143Z" fill="black"/>
<path d="M197.273 35.1347V13.0234H202.003V35.1347H197.273Z" fill="black"/>
</g>
</g>
<defs>
<clipPath id="clip0_667_11761">
<rect width="178" height="56" fill="white" transform="translate(24 1)"/>
</clipPath>
<clipPath id="clip1_667_11761">
<rect width="178" height="56" fill="white" transform="translate(24 1)"/>
</clipPath>
</defs>
</svg>
