<svg width="225" height="58" viewBox="0 0 225 58" fill="none" xmlns="http://www.w3.org/2000/svg">
<g clip-path="url(#clip0_667_11802)">
<path d="M64.4733 37.5747C61.0031 37.5957 57.8628 35.5213 56.5202 32.3212C55.1778 29.1211 55.8981 25.4272 58.3445 22.9659C60.7909 20.5046 64.4804 19.762 67.6884 21.0851C70.8966 22.4083 72.9901 25.5359 72.9901 29.0062C72.9979 33.7214 69.1887 37.5539 64.4733 37.5747ZM64.4733 17.2287C59.7101 17.2039 55.4018 20.0542 53.5618 24.4479C51.7218 28.8415 52.7131 33.9111 56.0727 37.2881C59.4321 40.6651 64.4965 41.6829 68.8997 39.8657C73.3029 38.0487 76.1755 33.7554 76.1757 28.992C76.1757 22.5191 70.9463 17.2623 64.4733 17.2287Z" fill="#231F20"/>
<path d="M107.932 17.9063C107.824 17.9072 107.724 17.9642 107.669 18.0569L95.6087 34.455L83.5489 18.0569C83.4925 17.9628 83.3905 17.9056 83.2807 17.9063C83.1059 17.9063 82.9633 18.0467 82.9609 18.2215V40.0685H86.1511V27.1664L95.4205 39.6827C95.4671 39.7387 95.5361 39.7711 95.6087 39.7711C95.6815 39.7711 95.7505 39.7387 95.7971 39.6827L105.067 27.1664V40.0685H108.257V18.2215C108.256 18.1367 108.221 18.0558 108.16 17.9967C108.099 17.9375 108.017 17.905 107.932 17.9063Z" fill="#231F20"/>
<path d="M127.759 28.9164H120.325V21.1055H127.759C129.913 21.1055 131.66 22.852 131.66 25.0063C131.66 27.1606 129.913 28.907 127.759 28.907M127.759 17.8965H117.125V40.0588H120.315V32.1255H127.75C131.676 32.1255 134.859 28.9423 134.859 25.0157C134.859 21.0891 131.676 17.9059 127.75 17.9059" fill="#231F20"/>
<path d="M38.1366 37.5747C34.1163 37.5973 30.6209 34.8217 29.732 30.9009C28.843 26.9801 30.7996 22.9684 34.4366 21.255C38.0735 19.5416 42.4126 20.5872 44.8699 23.7691L47.1614 21.5059C43.999 17.6849 38.7798 16.2581 34.1133 17.9387C29.4469 19.6193 26.3359 24.0463 26.3359 29.0062C26.3359 33.9661 29.4469 38.3931 34.1133 40.0737C38.7798 41.7543 43.999 40.3275 47.1614 36.5065L44.8699 34.2432C43.2677 36.3428 40.7777 37.5747 38.1366 37.5747Z" fill="#231F20"/>
<path d="M172.684 26.9633L170.242 26.408C167.616 25.8434 167.419 24.0554 167.419 23.4954C167.419 21.6839 168.863 20.644 171.381 20.644C173.969 20.644 175.86 22.3991 176.439 22.9967L178.683 20.7898C176.575 18.5783 174.19 17.4961 171.381 17.4961C167.104 17.4961 164.229 19.9005 164.229 23.4813C164.229 24.62 164.229 28.0831 169.978 29.4994L172.651 30.13C175.131 30.8122 176.335 32.0121 176.335 33.7907C176.335 35.8752 174.326 37.3291 171.456 37.3291C168.383 37.3291 166.492 35.2165 165.927 34.5059L163.711 36.6892C165.221 38.4113 167.8 40.4535 171.489 40.4535C176.086 40.4535 179.554 37.5833 179.554 33.7813C179.554 30.3746 177.201 28.0126 172.708 26.9539" fill="#231F20"/>
<path d="M194.148 26.9633L191.706 26.408C189.08 25.8434 188.883 24.0554 188.883 23.4954C188.883 21.6839 190.327 20.644 192.845 20.644C195.433 20.644 197.324 22.3991 197.898 22.9967L200.147 20.7898C198.039 18.5783 195.649 17.4961 192.845 17.4961C188.568 17.4961 185.693 19.9005 185.693 23.4813C185.693 24.62 185.693 28.0831 191.443 29.4994L194.129 30.1159C196.604 30.7981 197.809 31.998 197.809 33.7766C197.809 35.8611 195.804 37.3149 192.934 37.3149C189.862 37.3149 187.965 35.2023 187.405 34.4918L185.156 36.6986C186.667 38.4207 189.245 40.4629 192.934 40.4629C197.531 40.4629 200.999 37.5927 200.999 33.7907C200.999 30.3841 198.646 28.022 194.153 26.9633" fill="#231F20"/>
<path d="M144.166 31.1804L147.817 24.2165L151.473 31.1804H144.166ZM147.817 17.709C147.692 17.7101 147.578 17.7834 147.525 17.8972L135.898 40.0689H139.507L142.481 34.3895H153.148L156.127 40.0689H159.731L148.109 17.8972C148.055 17.7841 147.942 17.7112 147.817 17.709Z" fill="#231F20"/>
<path d="M59.4453 31.7774L61.6991 34.0454L69.5005 26.2016L67.2421 23.9336L59.4453 31.7774Z" fill="#231F20"/>
</g>
<defs>
<clipPath id="clip0_667_11802">
<rect width="176" height="24" fill="white" transform="translate(25 17)"/>
</clipPath>
</defs>
</svg>
