<svg width="225" height="58" viewBox="0 0 225 58" fill="none" xmlns="http://www.w3.org/2000/svg">
<g clip-path="url(#clip0_667_11799)">
<g clip-path="url(#clip1_667_11799)">
<path d="M152.999 15.3535V22.6514L147.761 27.8791L147.54 27.9875V20.4356H139.941L136.15 24.2031C133.815 22.3973 130.532 21.4927 127.71 22.6717C121.354 25.3313 121.7 35.4718 128.415 37.3894C130.739 38.0534 133.836 37.6504 135.76 36.1562V32.8155L135.652 32.7071H127.615L132.308 27.9875H140.89L140.998 28.096V38.6972C134.015 45.0126 121.11 43.9486 118.068 34.0691C115.747 26.5307 120.196 18.5756 128.1 17.3254C132.271 16.6647 136.705 17.593 139.934 20.3577L145.037 15.3535H153.002H152.999Z" fill="black"/>
<path d="M92.9638 23.3867C92.8181 23.529 91.8118 24.5048 91.7305 24.4912C89.1759 22.3534 85.7269 21.3065 82.6133 22.9632C75.6576 26.6596 78.4731 39.0836 87.5497 37.4776C89.4402 37.1422 90.9818 35.9868 92.3709 34.7435L95.8198 38.1992C93.804 40.5946 91.1071 42.0616 87.9935 42.4988C77.7853 43.9284 70.2672 34.713 73.95 25.0672C77.0942 16.8275 88.6237 14.4524 94.9864 20.2934C95.105 20.4019 95.5082 20.7203 95.4302 20.8728C94.563 21.6622 93.7972 22.5702 92.9638 23.3901V23.3867Z" fill="black"/>
<path d="M110.011 22.6133V42.2166H104.557V22.6133H97.0625V17.6397L97.1743 17.5312H117.394L117.503 17.6397V22.5049L117.394 22.6133H110.011Z" fill="black"/>
</g>
</g>
<defs>
<clipPath id="clip0_667_11799">
<rect width="80" height="28" fill="white" transform="translate(73 15)"/>
</clipPath>
<clipPath id="clip1_667_11799">
<rect width="80" height="28" fill="white" transform="translate(73 15)"/>
</clipPath>
</defs>
</svg>
