<svg width="225" height="58" viewBox="0 0 225 58" fill="none" xmlns="http://www.w3.org/2000/svg">
<g clip-path="url(#clip0_667_11800)">
<path d="M49.2321 17.0469L57.7613 36.1434V20.813H55.029V17.165L55.1398 17.0543H64.7028C64.6808 17.1281 64.7768 17.2167 64.7768 17.2389V20.7022L64.666 20.813H62.0444V42.9298H55.8413L46.8321 22.9545V39.0234H49.5275C49.5423 39.0234 49.7121 39.1932 49.7121 39.208V42.819L49.6014 42.9298H39.8906V39.0234H42.6968V20.813H39.8906V17.0543H49.2321V17.0469Z" fill="black"/>
<path d="M130.211 17.0464H142.211C144.758 17.0779 148.724 17.5929 149.403 21.5879C149.979 24.9996 149.027 28.5737 145.239 29.2161C145.143 29.2309 145.01 29.2383 145.128 29.3565C146.634 29.4673 148.111 30.3461 149.012 31.5275C150.415 33.3737 150.393 36.4605 149.743 38.6463C148.613 42.4419 144.603 42.5675 141.251 42.9219H130.211V39.0081H132.869V20.7978H130.211V17.0391V17.0464ZM137.596 20.8126V27.8869C138.6 27.8427 139.663 27.9535 140.66 27.8869C142.307 27.7909 144.375 27.2371 144.663 25.3245C144.847 24.1135 144.773 22.0827 143.562 21.4476C141.812 20.5246 139.515 20.8938 137.588 20.8126H137.596ZM137.596 31.5349V39.0155H142.211C142.263 39.0155 143.082 38.7939 143.208 38.7571C145.231 38.1147 145.6 36.2759 145.431 34.3337C145.349 33.4401 144.951 32.2881 144.087 31.9115C142.839 31.3725 139.235 31.2543 137.854 31.4169C137.743 31.4315 137.662 31.4241 137.603 31.5275L137.596 31.5349Z" fill="black"/>
<path d="M115.806 16.4629V26.7496C115.806 26.7644 115.932 26.8825 115.954 26.8604C115.954 26.7644 115.968 26.6684 116.013 26.5872C116.552 25.5533 117.571 24.6302 118.671 24.2315C119.269 24.0173 120.702 23.7515 121.308 23.8327C122.711 24.0247 124.143 24.453 125.074 25.605C126.004 26.757 126.292 28.5663 126.44 30.1391V39.2443H128.581V42.9293H119.978L119.868 42.8185V39.3551L119.978 39.2443H121.861V30.6561C121.861 29.9249 121.618 29.2529 121.271 28.6475C120.924 28.0419 121.093 28.1969 120.702 27.9755C118.656 26.8161 117.061 28.3373 116.316 30.1169C116.212 30.3533 115.806 31.3133 115.806 31.5423V39.2443H117.763L117.874 39.3551V42.8185L117.763 42.9293H109.197L109.086 42.8185V39.3551L109.197 39.2443H111.301V20.0739H109.086V16.5737L109.197 16.4629H115.806Z" fill="black"/>
<path d="M176.064 24.3502V28.109H173.775L177.209 37.1772L180.79 28.109H178.501V24.3502H186.772V28.109H185.295C184.187 30.7082 183.138 33.3298 182.038 35.9366C180.613 39.3114 179.225 42.7894 177.703 46.2234C177.164 47.4344 176.478 48.9482 175.252 49.598C173.716 50.4104 171.648 50.1814 170.009 49.9304V46.1716C170.26 46.1052 170.415 46.2898 170.629 46.3194C171.02 46.371 172.482 46.4006 172.83 46.2972C173.177 46.1938 173.118 46.1494 173.199 46.0904C174.018 45.5586 174.594 43.8602 174.934 42.974C174.75 42.627 174.646 42.243 174.506 41.8812C172.896 37.8048 171.028 33.5736 169.344 29.608C169.196 29.261 169.019 28.515 168.812 28.2344C168.606 27.9538 167.343 28.3674 167.21 27.917C167.284 26.92 167.062 25.6498 167.188 24.6825C167.313 23.7151 167.284 24.3575 167.372 24.3575H176.049L176.064 24.3502Z" fill="black"/>
<path d="M151.62 30.0944C151.576 30.0502 151.687 29.0532 151.709 28.8982C151.93 27.5984 152.536 26.1807 153.562 25.3314C154.921 24.2164 156.553 24.0687 158.296 23.825C159.16 23.7068 161.338 23.9579 162.195 24.2164C167.778 25.9074 165.429 34.636 165.939 38.978C165.954 39.0888 165.946 39.17 166.057 39.2292H168.014V42.914H161.922L161.811 42.8034V40.3368L160.799 41.8138C158.156 44.5312 152.809 43.7116 151.495 40.0562C150.808 38.1362 150.889 34.9314 152.226 33.3068C153.71 31.5122 157.868 31.2316 160.076 31.1208C162.284 31.0102 161.235 31.1504 161.811 31.1208V29.3116C161.811 29.1788 161.612 28.551 161.545 28.396C160.733 26.6459 157.417 26.5277 156.376 28.1228C155.985 28.7282 155.97 29.452 155.719 30.087H151.62V30.0944ZM161.811 34.444C160.157 34.5252 157.882 34.1928 156.405 35.0568C155.091 35.8248 154.988 38.4168 156.132 39.34C157.454 40.4108 159.692 39.8568 160.652 38.5498C161.612 37.2428 161.848 35.8544 161.811 34.444Z" fill="black"/>
<path d="M75.5306 24.5993C78.3 25.8769 79.991 28.9563 80.279 31.9101C80.8992 38.4085 78.0266 43.8067 70.871 43.3709C61.2562 42.7803 60.9314 25.419 70.2286 24.0012C71.89 23.7501 73.8986 23.8461 75.538 24.5993H75.5306ZM74.423 38.4011C76.476 35.6615 76.2692 27.0289 71.4692 27.5975C66.6692 28.1661 67.356 36.2523 69.5788 38.6891C70.8488 40.0775 73.33 39.8633 74.423 38.4011Z" fill="black"/>
<path d="M102.809 18.9648V24.3482H106.981L107.092 24.459V27.9962L106.981 28.107H102.809V37.2122C102.949 37.9136 102.824 39.3168 103.71 39.553C105.335 39.9888 105.519 38.1056 105.541 36.9462H108.274L108.037 39.5456C108.015 39.6342 107.941 39.7156 107.927 39.8042C107.683 40.9708 107.299 42.0268 106.243 42.6988C105.187 43.3708 102.41 43.6294 101.029 42.913C99.907 42.337 98.4596 40.3284 98.4596 39.0508V28.107H95.875V24.3482H98.3488L98.4596 24.2374V20.7741L102.817 18.9648H102.809Z" fill="black"/>
<path d="M94.0194 24.0543V28.4777C93.6576 28.2339 93.1702 28.2783 92.764 28.2783C91.6122 28.2193 90.6742 28.2265 89.6848 28.9503C88.6952 29.6739 87.7648 32.1183 87.6688 33.6025C87.5728 35.0869 87.7574 37.3909 87.6688 39.2443H90.2534V42.9293H80.875V39.2443H83.0902V28.1159H80.9856L80.875 28.0051V24.4678L80.9856 24.357H87.1888L87.2996 24.4678V27.7097C87.2996 27.7245 87.3734 27.9239 87.4472 27.8943C87.4102 27.7539 87.462 27.7023 87.5062 27.6063C88.326 25.6789 89.6256 24.2906 91.6194 23.9878C92.0626 23.9878 92.646 23.9361 93.03 23.9878C93.414 24.0395 93.6946 23.9583 94.0194 24.069V24.0543Z" fill="black"/>
<path d="M71.8993 8.24948C73.4649 11.6907 74.7129 15.7596 76.1751 19.2747L77.9991 24.0525C77.9769 24.0746 77.6151 23.9934 77.5411 23.9713C76.9651 23.7866 76.1971 23.3436 75.5769 23.0999C74.2919 22.5903 72.9701 22.1547 71.6925 21.6156L65.4453 24.0525L71.6483 7.83594C71.8625 7.89501 71.8255 8.10179 71.8993 8.24948Z" fill="black"/>
</g>
<defs>
<clipPath id="clip0_667_11800">
<rect width="150" height="44" fill="white" transform="translate(38 7)"/>
</clipPath>
</defs>
</svg>
