<svg width="154" height="43" viewBox="0 0 154 43" fill="none" xmlns="http://www.w3.org/2000/svg">
<path d="M13.7058 42.8864C6.21777 42.8864 0 37.2597 0 27.7264C0 18.1931 6.21777 12.5664 13.7593 12.5664C19.9169 12.5664 22.8586 16.3531 23.4871 17.5597V13.1931H30.8548V42.2464H23.5406V37.6531C22.9656 38.8597 20.084 42.8797 13.6925 42.8797L13.7058 42.8864ZM15.6581 19.0064C10.7039 19.0064 7.48138 22.7931 7.48138 27.7331C7.48138 32.6731 10.7039 36.4597 15.6581 36.4597C20.6122 36.4597 23.6008 32.6731 23.6008 27.7331C23.6008 22.7931 20.4317 19.0064 15.6581 19.0064Z" fill="white"/>
<path d="M41.4783 42.2532H34.1641V13.2065H41.4783V18.0865C42.2271 16.4199 44.4735 13.0332 50.9186 13.0332H57.7113V20.3265H49.9358C43.718 20.3265 41.4716 22.3932 41.4716 26.9865V42.2599L41.4783 42.2532Z" fill="white"/>
<path d="M74.2119 18.9466C69.719 18.9466 66.6101 22.8533 66.6101 27.7333C66.6101 32.6133 69.719 36.52 74.2653 36.52C79.0457 36.52 80.8308 33.48 81.2319 32.6733H88.4325C88.0848 35.7133 84.5748 43.0066 74.1517 43.0066C65.7477 43.0066 59.1221 36.6933 59.1221 27.7333C59.1221 18.7733 65.6875 12.46 74.0915 12.46C84.4544 12.46 87.9645 19.58 88.4258 22.7933H81.1116C80.7104 21.9866 78.8651 18.9466 74.2052 18.9466H74.2119Z" fill="white"/>
<path d="M98.7625 42.2533H91.4482V0H98.7625V18.0867C99.8589 16.02 103.142 12.5733 108.437 12.5733C115.751 12.5733 120.585 17.9133 120.585 25.32V42.26H113.157V26.76C113.157 22.1667 110.396 19.1267 106.077 19.1267C101.758 19.1267 98.7625 22.2867 98.7625 26.76V42.26V42.2533Z" fill="white"/>
<path d="M154 28.1333V28.94H130.854C131.202 33.4733 134.484 36.92 139.318 36.92C144.152 36.92 145.884 34.5666 146.398 33.76H153.653C153.191 36.7466 149.22 43.0066 139.318 43.0066C129.417 43.0066 123.486 36.46 123.486 27.7333C123.486 19.0066 129.818 12.46 138.743 12.46C147.669 12.46 154 18.6066 154 28.1333ZM131.081 23.8866H146.285C145.249 20.2133 142.487 18.1466 138.743 18.1466C134.772 18.1466 132.004 20.3266 131.088 23.8866H131.081Z" fill="white"/>
<path d="M148.792 3.60645H128.694V8.59978H148.792V3.60645Z" fill="white"/>
</svg>
