<svg width="1498" height="420" viewBox="0 0 1498 420" fill="none" xmlns="http://www.w3.org/2000/svg">
<mask id="mask0_4095_233" style="mask-type:alpha" maskUnits="userSpaceOnUse" x="0" y="0" width="1498" height="420">
<path d="M133.321 418.366C60.482 418.366 0 363.477 0 270.478C0 177.479 60.482 122.59 133.841 122.59C193.738 122.59 222.353 159.529 228.466 171.301V128.703H300.134V412.123H228.986V367.314C223.393 379.086 195.363 418.301 133.191 418.301L133.321 418.366ZM152.311 185.413C104.12 185.413 72.7735 222.353 72.7735 270.543C72.7735 318.734 104.12 355.673 152.311 355.673C200.501 355.673 229.572 318.734 229.572 270.543C229.572 222.353 198.745 185.413 152.311 185.413Z" fill="white"/>
<path d="M403.458 412.187H332.311V128.832H403.458V176.437C410.742 160.178 432.594 127.141 495.287 127.141H561.362V198.288H485.727C425.245 198.288 403.393 218.449 403.393 263.258V412.252L403.458 412.187Z" fill="white"/>
<path d="M721.875 184.83C678.172 184.83 647.931 222.94 647.931 270.546C647.931 318.151 678.172 356.261 722.396 356.261C768.895 356.261 786.26 326.605 790.162 318.736H860.204C856.822 348.392 822.679 419.54 721.29 419.54C639.542 419.54 575.093 357.952 575.093 270.546C575.093 183.139 638.957 121.552 720.705 121.552C821.508 121.552 855.651 191.009 860.139 222.355H788.991C785.089 214.486 767.139 184.83 721.81 184.83H721.875Z" fill="white"/>
<path d="M960.675 412.188H889.527V0H960.675V176.438C971.341 156.278 1003.27 122.655 1054.78 122.655C1125.93 122.655 1172.95 174.748 1172.95 247.001V412.253H1100.69V261.048C1100.69 216.24 1073.83 186.584 1031.82 186.584C989.81 186.584 960.675 217.41 960.675 261.048V412.253V412.188Z" fill="white"/>
<path d="M1498 274.448V282.317H1272.85C1276.23 326.54 1308.16 360.163 1355.18 360.163C1402.2 360.163 1419.05 337.206 1424.06 329.337H1494.62C1490.13 358.472 1451.5 419.54 1355.18 419.54C1258.87 419.54 1201.18 355.676 1201.18 270.546C1201.18 185.416 1262.77 121.552 1349.59 121.552C1436.41 121.552 1498 181.514 1498 274.448ZM1275.06 233.021H1422.95C1412.87 197.187 1386.01 177.026 1349.59 177.026C1310.96 177.026 1284.04 198.292 1275.13 233.021H1275.06Z" fill="white"/>
<path d="M1447.32 35.1826H1251.83V83.8934H1447.32V35.1826Z" fill="white"/>
</mask>
<g mask="url(#mask0_4095_233)">
<rect x="-35" y="-48" width="1568" height="568" fill="url(#paint0_linear_4095_233)"/>
</g>
<defs>
<linearGradient id="paint0_linear_4095_233" x1="-35" y1="236" x2="1533" y2="236" gradientUnits="userSpaceOnUse">
<stop offset="0.0769231" stop-color="#33320A"/>
<stop offset="0.610577" stop-color="#827657"/>
<stop offset="1" stop-color="#4F4A25"/>
</linearGradient>
</defs>
</svg>
