<svg width="121" height="32" viewBox="0 0 121 32" fill="none" xmlns="http://www.w3.org/2000/svg">
<path d="M43.9627 0.461888L43.2895 3.98993C42.5328 2.30944 40.3904 0 36.1057 0C29.9685 0 24.8877 4.83017 24.8877 12.3531C24.8877 18.6131 28.5435 22.1854 33.585 22.1854C36.9902 22.1854 39.3831 20.1708 40.474 18.4018L39.845 21.7235H45.1371L49.2597 0.461888H43.9676H43.9627ZM35.4767 17.5223C32.1993 17.5223 30.2633 15.2128 30.2633 11.9747C30.2633 8.15184 32.7005 4.66311 36.8182 4.66311C40.0514 4.66311 41.9874 6.97255 41.9874 10.2107C41.9874 14.1613 39.2996 17.5223 35.4767 17.5223Z" fill="white"/>
<path d="M48.6748 21.7235H53.9669L58.1288 0.461914H52.7925L48.6748 21.7235Z" fill="white"/>
<path d="M76.2513 3.6558C75.7894 2.77133 73.6471 0 69.151 0C63.6477 0 59.1074 4.20122 59.1074 11.0902C59.1074 17.9792 63.6477 22.1854 69.1068 22.1854C73.7699 22.1854 75.873 19.2421 76.2956 18.3625V21.7235H81.6318V0.461888H76.2513V3.6558ZM70.5367 17.4781C66.9251 17.4781 64.5715 14.7067 64.5715 11.0902C64.5715 7.47375 66.9251 4.70242 70.5367 4.70242C74.1483 4.70242 76.3349 7.47375 76.3349 11.0902C76.3349 14.7067 74.0254 17.4781 70.5367 17.4781Z" fill="white"/>
<path d="M96.4559 0C92.5888 0 90.1958 2.52073 89.3949 4.03415V0.461888H84.0586V21.7235H89.3949V10.3777C89.3949 7.10031 91.4979 4.79086 94.7312 4.79086C97.9644 4.79086 99.9004 7.01677 99.9004 10.3777V21.7235H105.32V9.32621C105.32 3.9064 101.792 0 96.4559 0Z" fill="white"/>
<path d="M121 9.60141V5.02183H113.143V0.461914H107.763V14.7903C107.763 19.3305 110.116 21.7235 115.119 21.7235H121V16.9327H116.922C114.023 16.9327 113.138 15.7976 113.138 13.1491V9.59649H120.995L121 9.60141Z" fill="white"/>
<path d="M17.3945 3.69511C16.9719 2.85486 14.7067 0 10.1222 0C4.57957 0 0 4.11769 0 11.0509C0 17.9842 4.57957 22.1018 10.1271 22.1018C14.7509 22.1018 16.9769 19.1585 17.4387 18.2348V21.1781C17.4387 24.7061 15.2128 26.7256 11.3457 26.7256C7.90124 26.7256 6.63842 24.9616 6.34359 24.539H0.167066C0.501198 26.0918 3.14969 31.1775 11.3457 31.1775C19.0357 31.1775 22.775 27.104 22.775 21.2616V0.461888H17.3945V3.69511ZM11.5128 17.3945C7.81279 17.3945 5.45913 14.579 5.45913 11.0509C5.45913 7.52288 7.81279 4.70733 11.5128 4.70733C15.2128 4.70733 17.4781 7.43935 17.4781 11.0509C17.4781 14.6625 15.1244 17.3945 11.5128 17.3945Z" fill="white"/>
</svg>
