<svg width="428" height="111" viewBox="0 0 428 111" fill="none" xmlns="http://www.w3.org/2000/svg">
<mask id="mask0_199_586" style="mask-type:alpha" maskUnits="userSpaceOnUse" x="0" y="0" width="428" height="111">
<path d="M155.503 1.92187L153.122 14.4012C150.445 8.457 142.867 0.288086 127.711 0.288086C106.003 0.288086 88.0312 17.3733 88.0312 43.9831C88.0312 66.1261 100.962 78.7618 118.795 78.7618C130.84 78.7618 139.304 71.6358 143.163 65.3787L140.938 77.1281H159.657L174.239 1.92187H155.52H155.503ZM125.487 62.2676C113.894 62.2676 107.046 54.0987 107.046 42.6448C107.046 29.1226 115.667 16.7823 130.232 16.7823C141.668 16.7823 148.516 24.9513 148.516 36.4051C148.516 50.3792 139.009 62.2676 125.487 62.2676Z" fill="white"/>
<path d="M172.172 77.1281H190.891L205.612 1.92188H186.737L172.172 77.1281Z" fill="white"/>
<path d="M269.715 13.2193C268.082 10.0908 260.504 0.288086 244.6 0.288086C225.134 0.288086 209.074 15.1486 209.074 39.5163C209.074 63.884 225.134 78.7618 244.444 78.7618C260.938 78.7618 268.377 68.3508 269.872 65.2397V77.1281H288.747V1.92187H269.715V13.2193ZM249.502 62.1112C236.727 62.1112 228.402 52.3085 228.402 39.5163C228.402 26.7241 236.727 16.9214 249.502 16.9214C262.276 16.9214 270.011 26.7241 270.011 39.5163C270.011 52.3085 261.842 62.1112 249.502 62.1112Z" fill="white"/>
<path d="M341.183 0.288086C327.505 0.288086 319.04 9.20437 316.207 14.5576V1.92187H297.332V77.1281H316.207V36.9961C316.207 25.4032 323.646 17.2342 335.083 17.2342C346.519 17.2342 353.367 25.1077 353.367 36.9961V77.1281H372.538V33.2766C372.538 14.1057 360.059 0.288086 341.183 0.288086Z" fill="white"/>
<path d="M427.999 34.2499V18.0511H400.208V1.92188H381.176V52.6039C381.176 68.6637 389.501 77.1281 407.195 77.1281H427.999V60.1819H413.573C403.319 60.1819 400.19 56.167 400.19 46.7988V34.2326H427.982L427.999 34.2499Z" fill="white"/>
<path d="M61.5276 13.3584C60.0329 10.3863 52.0204 0.288086 35.8042 0.288086C16.1988 0.288086 0 14.8531 0 39.3772C0 63.9014 16.1988 78.4664 35.8216 78.4664C52.1768 78.4664 60.0502 68.0553 61.684 64.7878V75.1988C61.684 87.6781 53.8106 94.8216 40.132 94.8216C27.9481 94.8216 23.4813 88.5819 22.4385 87.0872H0.590943C1.77283 92.5795 11.141 110.568 40.132 110.568C67.3327 110.568 80.5594 96.1599 80.5594 75.4943V1.92187H61.5276V13.3584ZM40.7229 61.8157C27.6353 61.8157 19.3099 51.8566 19.3099 39.3772C19.3099 26.8979 27.6353 16.9388 40.7229 16.9388C53.8106 16.9388 61.8231 26.6024 61.8231 39.3772C61.8231 52.152 53.4977 61.8157 40.7229 61.8157Z" fill="white"/>
</mask>
<g mask="url(#mask0_199_586)">
<g filter="url(#filter0_f_199_586)">
<g clip-path="url(#paint0_diamond_199_586_clip_path)" data-figma-skip-parse="true"><g transform="matrix(-0.452 0.043 -0.043 -0.452 441 40.2881)"><rect x="0" y="0" width="1028.18" height="247.234" fill="url(#paint0_diamond_199_586)" opacity="1" shape-rendering="crispEdges"/><rect x="0" y="0" width="1028.18" height="247.234" transform="scale(1 -1)" fill="url(#paint0_diamond_199_586)" opacity="1" shape-rendering="crispEdges"/><rect x="0" y="0" width="1028.18" height="247.234" transform="scale(-1 1)" fill="url(#paint0_diamond_199_586)" opacity="1" shape-rendering="crispEdges"/><rect x="0" y="0" width="1028.18" height="247.234" transform="scale(-1)" fill="url(#paint0_diamond_199_586)" opacity="1" shape-rendering="crispEdges"/></g></g><rect x="-18" y="-27.7119" width="459" height="161" data-figma-gradient-fill="{&#34;type&#34;:&#34;GRADIENT_DIAMOND&#34;,&#34;stops&#34;:[{&#34;color&#34;:{&#34;r&#34;:0.0,&#34;g&#34;:0.098039217293262482,&#34;b&#34;:0.34901961684226990,&#34;a&#34;:1.0},&#34;position&#34;:0.0},{&#34;color&#34;:{&#34;r&#34;:0.42352941632270813,&#34;g&#34;:0.60352939367294312,&#34;b&#34;:0.74117648601531982,&#34;a&#34;:1.0},&#34;position&#34;:0.59645634889602661},{&#34;color&#34;:{&#34;r&#34;:0.0078431377187371254,&#34;g&#34;:0.25098040699958801,&#34;b&#34;:0.27058824896812439,&#34;a&#34;:1.0},&#34;position&#34;:1.0}],&#34;stopsVar&#34;:[{&#34;color&#34;:{&#34;r&#34;:0.0,&#34;g&#34;:0.098039217293262482,&#34;b&#34;:0.34901961684226990,&#34;a&#34;:1.0},&#34;position&#34;:0.0},{&#34;color&#34;:{&#34;r&#34;:0.42352941632270813,&#34;g&#34;:0.60352939367294312,&#34;b&#34;:0.74117648601531982,&#34;a&#34;:1.0},&#34;position&#34;:0.59645634889602661},{&#34;color&#34;:{&#34;r&#34;:0.0078431377187371254,&#34;g&#34;:0.25098040699958801,&#34;b&#34;:0.27058824896812439,&#34;a&#34;:1.0},&#34;position&#34;:1.0}],&#34;transform&#34;:{&#34;m00&#34;:-904.0,&#34;m01&#34;:-85.999954223632812,&#34;m02&#34;:936.0,&#34;m10&#34;:85.999969482421875,&#34;m11&#34;:-903.99993896484375,&#34;m12&#34;:449.28808593750},&#34;opacity&#34;:1.0,&#34;blendMode&#34;:&#34;NORMAL&#34;,&#34;visible&#34;:true}"/>
</g>
</g>
<defs>
<filter id="filter0_f_199_586" x="-132" y="-141.712" width="687" height="389" filterUnits="userSpaceOnUse" color-interpolation-filters="sRGB">
<feFlood flood-opacity="0" result="BackgroundImageFix"/>
<feBlend mode="normal" in="SourceGraphic" in2="BackgroundImageFix" result="shape"/>
<feGaussianBlur stdDeviation="57" result="effect1_foregroundBlur_199_586"/>
</filter>
<clipPath id="paint0_diamond_199_586_clip_path"><rect x="-18" y="-27.7119" width="459" height="161"/></clipPath><linearGradient id="paint0_diamond_199_586" x1="0" y1="0" x2="500" y2="500" gradientUnits="userSpaceOnUse">
<stop stop-color="#001959"/>
<stop offset="0.596456" stop-color="#6C9ABD"/>
<stop offset="1" stop-color="#024045"/>
</linearGradient>
</defs>
</svg>
