<svg width="24" height="24" viewBox="0 0 24 24" fill="none" xmlns="http://www.w3.org/2000/svg">
<path d="M23.931 11.676C23.896 11.597 23.049 9.718 21.166 7.835C18.657 5.326 15.488 4 12 4C8.512 4 5.343 5.326 2.83399 7.835C0.950993 9.718 0.0999904 11.6 0.0689909 11.676C0.023504 11.7784 0 11.8891 0 12.001C0 12.113 0.023504 12.2237 0.0689909 12.326C0.10399 12.405 0.950993 14.283 2.83399 16.166C5.343 18.674 8.512 20 12 20C15.488 20 18.657 18.674 21.166 16.166C23.049 14.283 23.896 12.405 23.931 12.326C23.9765 12.2237 24 12.113 24 12.001C24 11.8891 23.9765 11.7784 23.931 11.676ZM12 18.4C8.922 18.4 6.23299 17.281 4.00699 15.075C3.09364 14.1667 2.31658 13.131 1.7 12C2.31641 10.8689 3.09349 9.83318 4.00699 8.92501C6.23299 6.719 8.922 5.6 12 5.6C15.078 5.6 17.767 6.719 19.993 8.92501C20.9082 9.83296 21.6869 10.8687 22.305 12C21.584 13.346 18.443 18.4 12 18.4ZM12 7.2C11.0507 7.2 10.1227 7.48152 9.33326 8.00895C8.5439 8.53638 7.92867 9.28604 7.56538 10.1631C7.20207 11.0402 7.10702 12.0053 7.29222 12.9364C7.47744 13.8675 7.93459 14.7228 8.60589 15.3941C9.27717 16.0654 10.1325 16.5226 11.0636 16.7077C11.9947 16.893 12.9598 16.798 13.8369 16.4347C14.7139 16.0714 15.4637 15.4561 15.991 14.6668C16.5185 13.8773 16.8 12.9493 16.8 12C16.7987 10.7274 16.2926 9.50724 15.3926 8.60735C14.4928 7.70747 13.2726 7.20132 12 7.2ZM12 15.2C11.3671 15.2 10.7484 15.0124 10.2222 14.6607C9.69594 14.3091 9.28578 13.8093 9.04358 13.2246C8.80138 12.6399 8.73801 11.9965 8.86148 11.3757C8.98496 10.755 9.28973 10.1848 9.73725 9.73726C10.1847 9.28973 10.755 8.98496 11.3757 8.86149C11.9965 8.73802 12.6399 8.80139 13.2246 9.04359C13.8093 9.28579 14.3091 9.69594 14.6607 10.2222C15.0124 10.7484 15.2 11.3672 15.2 12C15.2 12.8486 14.8628 13.6626 14.2627 14.2627C13.6626 14.8628 12.8487 15.2 12 15.2Z" fill="#212121"/>
</svg>
