<svg viewBox="0 0 24 24" fill="none" xmlns="http://www.w3.org/2000/svg">
<g clip-path="url(#clip0_245_1720)">
<path d="M23.9588 22.9091C23.9588 23.1984 23.8617 23.4759 23.6888 23.6804C23.5161 23.8851 23.2816 24 23.0373 24H0.921491C0.677099 24 0.442709 23.8851 0.269899 23.6804C0.0970883 23.4759 0 23.1984 0 22.9091V1.09091C0 0.801585 0.0970883 0.524102 0.269899 0.31952C0.442709 0.114938 0.677099 0 0.921491 0C1.16588 0 1.40027 0.114938 1.57308 0.31952C1.74589 0.524102 1.84298 0.801585 1.84298 1.09091V13.9596L7.68639 7.90909C7.8454 7.74431 8.04741 7.64924 8.25858 7.6398C8.46976 7.63036 8.67726 7.70714 8.84631 7.85728L15.6204 13.8723L22.4302 6.81818C22.5195 6.71354 22.6259 6.63164 22.743 6.57747C22.86 6.52332 22.985 6.49805 23.1106 6.50323C23.2362 6.50842 23.3595 6.54394 23.4731 6.60764C23.5866 6.67132 23.688 6.76182 23.7709 6.87357C23.8537 6.98531 23.9165 7.11596 23.9552 7.25745C23.9939 7.39895 24.0078 7.54833 23.9959 7.69641C23.9841 7.84447 23.9467 7.9881 23.8863 8.11849C23.8258 8.24886 23.7435 8.36323 23.6443 8.45455L16.2724 16.0909C16.1133 16.2557 15.9113 16.3508 15.7001 16.3601C15.489 16.3696 15.2815 16.2928 15.1124 16.1427L8.33834 10.1305L1.84298 16.8586V21.8182H23.0373C23.2816 21.8182 23.5161 21.9331 23.6888 22.1377C23.8617 22.3423 23.9588 22.6198 23.9588 22.9091Z" fill="black"/>
</g>
<defs>
<clipPath id="clip0_245_1720">
<rect width="24" height="24" fill="white"/>
</clipPath>
</defs>
</svg>
