<svg width="24" height="26" viewBox="0 0 24 26" fill="none" xmlns="http://www.w3.org/2000/svg">
<g clip-path="url(#clip0_245_1724)">
<path fill-rule="evenodd" clip-rule="evenodd" d="M11.3876 0.25104C11.7373 -0.08368 12.2628 -0.08368 12.6124 0.25104C15.3113 2.83427 18.8336 4.17925 22.4331 4.00104C22.8584 3.97999 23.2421 4.27601 23.3621 4.71797C24.5621 9.13447 24.0553 13.8887 21.9577 17.8937C19.8599 21.8988 16.3507 24.8121 12.2321 25.968C12.0799 26.0107 11.9202 26.0107 11.768 25.968C7.64937 24.8121 4.14008 21.8988 2.04237 17.8937C-0.055331 13.8887 -0.562103 9.13447 0.637902 4.71797C0.757987 4.27601 1.14159 3.97999 1.56693 4.00104C5.1665 4.17925 8.68882 2.83427 11.3876 0.25104ZM2.23038 6.01671C1.41406 9.70125 1.91557 13.5949 3.65068 16.9077C5.46208 20.3661 8.46636 22.902 12.0001 23.9645C15.5337 22.902 18.5379 20.3661 20.3493 16.9077C22.0845 13.5949 22.5859 9.70125 21.7696 6.01671C18.2191 6.00959 14.7747 4.70091 12.0001 2.3058C9.22533 4.70091 5.78099 6.00959 2.23038 6.01671ZM16.3508 9.62623C16.7117 10.0167 16.7117 10.6499 16.3508 11.0404L11.4212 16.3737C11.0602 16.7643 10.475 16.7643 10.114 16.3737L7.64928 13.7071C7.28833 13.3165 7.28833 12.6835 7.64928 12.2929C8.01024 11.9024 8.59548 11.9024 8.95643 12.2929L10.7677 14.2524L15.0437 9.62623C15.4045 9.23571 15.9898 9.23571 16.3508 9.62623Z" fill="#212121"/>
</g>
<defs>
<clipPath id="clip0_245_1724">
<rect width="24" height="26" fill="white"/>
</clipPath>
</defs>
</svg>
