<svg width="24" height="24" viewBox="0 0 24 24" fill="none" xmlns="http://www.w3.org/2000/svg">
<g clip-path="url(#clip0_272_2437)">
<path d="M12.9231 0.923077V4.61538C12.9231 4.8602 12.8258 5.09499 12.6527 5.2681C12.4796 5.44121 12.2448 5.53846 12 5.53846C11.7552 5.53846 11.5204 5.44121 11.3473 5.2681C11.1742 5.09499 11.0769 4.8602 11.0769 4.61538V0.923077C11.0769 0.678265 11.1742 0.443471 11.3473 0.270363C11.5204 0.0972555 11.7552 0 12 0C12.2448 0 12.4796 0.0972555 12.6527 0.270363C12.8258 0.443471 12.9231 0.678265 12.9231 0.923077ZM17.2212 7.70192C17.3425 7.70187 17.4626 7.6779 17.5746 7.63136C17.6868 7.58484 17.7886 7.51668 17.8742 7.43077L20.4854 4.82076C20.6586 4.64756 20.7559 4.41264 20.7559 4.16769C20.7559 3.92274 20.6586 3.68783 20.4854 3.51461C20.3121 3.3414 20.0773 3.2441 19.8324 3.2441C19.5873 3.2441 19.3525 3.3414 19.1792 3.51461L16.5692 6.12577C16.44 6.25479 16.352 6.41924 16.3163 6.59828C16.2806 6.77733 16.2988 6.96294 16.3686 7.13166C16.4384 7.30037 16.5567 7.4446 16.7084 7.54611C16.8602 7.64762 17.0385 7.70183 17.2212 7.70192ZM23.0769 11.0769H19.3846C19.1398 11.0769 18.905 11.1742 18.7319 11.3473C18.5588 11.5204 18.4615 11.7552 18.4615 12C18.4615 12.2448 18.5588 12.4796 18.7319 12.6527C18.905 12.8258 19.1398 12.9231 19.3846 12.9231H23.0769C23.3217 12.9231 23.5566 12.8258 23.7296 12.6527C23.9028 12.4796 24 12.2448 24 12C24 11.7552 23.9028 11.5204 23.7296 11.3473C23.5566 11.1742 23.3217 11.0769 23.0769 11.0769ZM17.8742 16.5692C17.6997 16.4034 17.4673 16.3124 17.2266 16.3154C16.986 16.3185 16.7559 16.4155 16.5857 16.5857C16.4155 16.7559 16.3185 16.986 16.3154 17.2266C16.3124 17.4673 16.4034 17.6997 16.5692 17.8742L19.1792 20.4854C19.3525 20.6586 19.5873 20.7559 19.8324 20.7559C20.0773 20.7559 20.3121 20.6586 20.4854 20.4854C20.6586 20.3121 20.7559 20.0773 20.7559 19.8324C20.7559 19.5873 20.6586 19.3525 20.4854 19.1792L17.8742 16.5692ZM12 18.4615C11.7552 18.4615 11.5204 18.5588 11.3473 18.7319C11.1742 18.905 11.0769 19.1398 11.0769 19.3846V23.0769C11.0769 23.3217 11.1742 23.5566 11.3473 23.7296C11.5204 23.9028 11.7552 24 12 24C12.2448 24 12.4796 23.9028 12.6527 23.7296C12.8258 23.5566 12.9231 23.3217 12.9231 23.0769V19.3846C12.9231 19.1398 12.8258 18.905 12.6527 18.7319C12.4796 18.5588 12.2448 18.4615 12 18.4615ZM6.12577 16.5692L3.51461 19.1792C3.3414 19.3525 3.2441 19.5873 3.2441 19.8324C3.2441 20.0773 3.3414 20.3121 3.51461 20.4854C3.68783 20.6586 3.92274 20.7559 4.16769 20.7559C4.41264 20.7559 4.64756 20.6586 4.82076 20.4854L7.43077 17.8742C7.59657 17.6997 7.68764 17.4673 7.68455 17.2266C7.68148 16.986 7.58449 16.7559 7.41428 16.5857C7.24406 16.4155 7.01408 16.3185 6.77338 16.3154C6.53268 16.3124 6.30028 16.4034 6.12577 16.5692ZM5.53846 12C5.53846 11.7552 5.44121 11.5204 5.2681 11.3473C5.09499 11.1742 4.8602 11.0769 4.61538 11.0769H0.923077C0.678265 11.0769 0.443471 11.1742 0.270363 11.3473C0.0972555 11.5204 0 11.7552 0 12C0 12.2448 0.0972555 12.4796 0.270363 12.6527C0.443471 12.8258 0.678265 12.9231 0.923077 12.9231H4.61538C4.8602 12.9231 5.09499 12.8258 5.2681 12.6527C5.44121 12.4796 5.53846 12.2448 5.53846 12ZM4.82076 3.51461C4.64756 3.3414 4.41264 3.2441 4.16769 3.2441C3.92274 3.2441 3.68783 3.3414 3.51461 3.51461C3.3414 3.68783 3.2441 3.92274 3.2441 4.16769C3.2441 4.41264 3.3414 4.64756 3.51461 4.82076L6.12577 7.43077C6.30028 7.59657 6.53268 7.68764 6.77338 7.68455C7.01408 7.68148 7.24406 7.58449 7.41428 7.41428C7.58449 7.24406 7.68148 7.01408 7.68455 6.77338C7.68764 6.53268 7.59657 6.30028 7.43077 6.12577L4.82076 3.51461Z" fill="#212121"/>
</g>
<defs>
<clipPath id="clip0_272_2437">
<rect width="24" height="24" fill="white"/>
</clipPath>
</defs>
</svg>
