<svg width="24" height="24" viewBox="0 0 24 24" fill="none" xmlns="http://www.w3.org/2000/svg">
<g clip-path="url(#clip0_272_2433)">
<path d="M18.785 12.5213L13.4501 10.5499L11.485 5.21081C11.3686 4.89466 11.158 4.6218 10.8817 4.42907C10.6054 4.23634 10.2766 4.133 9.93971 4.133C9.60281 4.133 9.27403 4.23634 8.99771 4.42907C8.72139 4.6218 8.51084 4.89466 8.39446 5.21081L6.41688 10.5499L1.07781 12.5151C0.761654 12.6314 0.488803 12.842 0.29607 13.1183C0.103338 13.3946 0 13.7234 0 14.0603C0 14.3972 0.103338 14.726 0.29607 15.0023C0.488803 15.2787 0.761654 15.4892 1.07781 15.6055L6.41688 17.5831L8.38205 22.9222C8.49843 23.2383 8.70898 23.5113 8.9853 23.704C9.26162 23.8966 9.5904 24 9.9273 24C10.2642 24 10.593 23.8966 10.8693 23.704C11.1456 23.5113 11.3561 23.2383 11.4725 22.9222L13.4501 17.5831L18.7892 15.6179C19.1054 15.5016 19.3782 15.291 19.571 15.0148C19.7637 14.7384 19.867 14.4096 19.867 14.0727C19.867 13.7359 19.7637 13.407 19.571 13.1307C19.3782 12.8544 19.1054 12.6439 18.7892 12.5275L18.785 12.5213ZM12.5193 16.1578C12.407 16.1992 12.3049 16.2645 12.2203 16.3491C12.1357 16.4338 12.0704 16.5358 12.029 16.6481L9.9335 22.3254L7.84215 16.6523C7.80082 16.5388 7.73515 16.4356 7.64973 16.3502C7.56432 16.2649 7.46125 16.1992 7.34775 16.1578L1.6746 14.0665L7.34775 11.9752C7.46125 11.9338 7.56432 11.8682 7.64973 11.7828C7.73515 11.6974 7.80082 11.5942 7.84215 11.4807L9.9335 5.8076L12.0248 11.4807C12.0663 11.5931 12.1315 11.6951 12.2161 11.7797C12.3009 11.8643 12.4028 11.9296 12.5151 11.971L18.1924 14.0665L12.5193 16.1578ZM13.2433 3.30977C13.2433 3.09032 13.3304 2.87985 13.4856 2.72468C13.6408 2.5695 13.8513 2.48232 14.0707 2.48232H15.7256V0.827442C15.7256 0.607991 15.8127 0.397527 15.968 0.242352C16.1231 0.0871766 16.3336 0 16.553 0C16.7725 0 16.983 0.0871766 17.1381 0.242352C17.2933 0.397527 17.3805 0.607991 17.3805 0.827442V2.48232H19.0353C19.2548 2.48232 19.4653 2.5695 19.6204 2.72468C19.7756 2.87985 19.8628 3.09032 19.8628 3.30977C19.8628 3.52922 19.7756 3.73968 19.6204 3.89486C19.4653 4.05003 19.2548 4.13721 19.0353 4.13721H17.3805V5.79209C17.3805 6.01154 17.2933 6.22201 17.1381 6.37718C16.983 6.53235 16.7725 6.61953 16.553 6.61953C16.3336 6.61953 16.1231 6.53235 15.968 6.37718C15.8127 6.22201 15.7256 6.01154 15.7256 5.79209V4.13721H14.0707C13.8513 4.13721 13.6408 4.05003 13.4856 3.89486C13.3304 3.73968 13.2433 3.52922 13.2433 3.30977ZM24 8.27442C24 8.49387 23.9128 8.70433 23.7576 8.85951C23.6025 9.01468 23.392 9.10186 23.1726 9.10186H22.3451V9.9293C22.3451 10.1487 22.258 10.3592 22.1027 10.5144C21.9476 10.6696 21.7371 10.7567 21.5177 10.7567C21.2982 10.7567 21.0877 10.6696 20.9326 10.5144C20.7774 10.3592 20.6902 10.1487 20.6902 9.9293V9.10186H19.8628C19.6434 9.10186 19.4329 9.01468 19.2777 8.85951C19.1225 8.70433 19.0353 8.49387 19.0353 8.27442C19.0353 8.05497 19.1225 7.8445 19.2777 7.68933C19.4329 7.53415 19.6434 7.44697 19.8628 7.44697H20.6902V6.61953C20.6902 6.40008 20.7774 6.18962 20.9326 6.03444C21.0877 5.87927 21.2982 5.79209 21.5177 5.79209C21.7371 5.79209 21.9476 5.87927 22.1027 6.03444C22.258 6.18962 22.3451 6.40008 22.3451 6.61953V7.44697H23.1726C23.392 7.44697 23.6025 7.53415 23.7576 7.68933C23.9128 7.8445 24 8.05497 24 8.27442Z" fill="#212121"/>
</g>
<defs>
<clipPath id="clip0_272_2433">
<rect width="24" height="24" fill="white"/>
</clipPath>
</defs>
</svg>
