<svg width="24" height="24" viewBox="0 0 24 24" fill="none" xmlns="http://www.w3.org/2000/svg">
<g clip-path="url(#clip0_245_1721)">
<path d="M16.9967 7.00335C16.7112 5.46858 16.012 4.04093 14.9745 2.87449C13.937 1.70806 12.6005 0.847148 11.1095 0.384703C9.61849 -0.0777542 8.02947 -0.124195 6.514 0.250407C4.99851 0.62501 3.61413 1.40641 2.51027 2.51026C1.4064 3.61412 0.625005 4.99851 0.250403 6.51399C-0.124189 8.02947 -0.0777589 9.61848 0.384698 11.1095C0.847155 12.6006 1.70806 13.9369 2.8745 14.9744C4.04093 16.012 5.46858 16.7111 7.00335 16.9966C7.28881 18.5314 7.98804 19.959 9.02555 21.1256C10.0631 22.292 11.3995 23.1529 12.8904 23.6152C14.3815 24.0777 15.9705 24.1242 17.486 23.7496C19.0015 23.375 20.3859 22.5936 21.4897 21.4897C22.5936 20.3859 23.375 19.0015 23.7496 17.486C24.1242 15.9705 24.0778 14.3815 23.6153 12.8905C23.1528 11.3994 22.2919 10.0631 21.1255 9.02556C19.9591 7.98804 18.5314 7.28881 16.9967 7.00335ZM22.2857 15.4293C22.2857 15.5922 22.2783 15.7507 22.2665 15.9125L16.9099 10.5559C17.0489 9.97603 17.1272 9.3832 17.1434 8.7871C18.6175 9.16408 19.9237 10.0221 20.8551 11.2252C21.7866 12.4282 22.2901 13.9078 22.2857 15.4293ZM13.9938 15.2053L19.63 20.8427C19.102 21.2531 18.517 21.584 17.8934 21.8251L12.3375 16.2692C12.9284 15.979 13.4841 15.6221 13.9938 15.2053ZM15.2054 13.9937C15.6219 13.4847 15.9788 12.9298 16.2692 12.3396L21.8251 17.8933C21.5839 18.5162 21.2529 19.1006 20.8427 19.6278L15.2054 13.9937ZM1.71638 8.57283C1.71638 7.21675 2.1185 5.89112 2.8719 4.76359C3.6253 3.63605 4.69613 2.75724 5.94898 2.23829C7.20184 1.71935 8.58044 1.58357 9.9105 1.84812C11.2405 2.11268 12.4622 2.7657 13.4211 3.72459C14.38 4.68349 15.033 5.90518 15.2975 7.23521C15.5621 8.56524 15.4263 9.94381 14.9074 11.1967C14.3885 12.4495 13.5096 13.5204 12.382 14.2738C11.2546 15.0272 9.9289 15.4293 8.57284 15.4293C6.755 15.4273 5.01218 14.7042 3.72678 13.4189C2.44137 12.1335 1.71836 10.3906 1.71638 8.57283ZM8.78711 17.1434C9.38265 17.1289 9.97507 17.0524 10.5548 16.9152L15.9114 22.2718C15.7517 22.2836 15.5901 22.2911 15.4282 22.2911C13.9062 22.2948 12.4264 21.7905 11.2234 20.858C10.0204 19.9256 9.16302 18.6184 8.78711 17.1434Z" fill="#212121"/>
</g>
<defs>
<clipPath id="clip0_245_1721">
<rect width="24" height="24" fill="white"/>
</clipPath>
</defs>
</svg>
