<svg width="24" height="26" viewBox="0 0 24 26" fill="none" xmlns="http://www.w3.org/2000/svg">
<g clip-path="url(#clip0_245_1722)">
<path d="M23.04 5.82027L12.8862 0.229963C12.6149 0.0791228 12.3099 0 12 0C11.6901 0 11.3851 0.0791228 11.1138 0.229963L0.96 5.82259C0.670031 5.98224 0.427963 6.2173 0.259102 6.50321C0.0902277 6.78912 0.000750769 7.11542 0 7.44801V18.552C0.000750769 18.8846 0.0902277 19.2108 0.259102 19.4968C0.427963 19.7828 0.670031 20.0178 0.96 20.1774L11.1138 25.77C11.3851 25.9209 11.6901 26 12 26C12.3099 26 12.6149 25.9209 12.8862 25.77L23.04 20.1774C23.33 20.0178 23.5721 19.7828 23.7409 19.4968C23.9098 19.2108 23.9993 18.8846 24 18.552V7.44918C23.9999 7.11599 23.9106 6.78898 23.7418 6.50239C23.5729 6.2158 23.3305 5.9802 23.04 5.82027ZM22.1538 18.5531L12 24.1469L1.84615 18.5531V7.44918L12 1.85539L22.1538 7.44801V18.5531Z" fill="#212121"/>
</g>
<defs>
<clipPath id="clip0_245_1722">
<rect width="24" height="26" fill="white"/>
</clipPath>
</defs>
</svg>
