<svg width="24" height="24" viewBox="0 0 24 24" fill="none" xmlns="http://www.w3.org/2000/svg">
<g clip-path="url(#clip0_245_1719)">
<path d="M23.0356 3.57582C22.7283 3.2574 22.3635 3.00481 21.9618 2.83249C21.5603 2.66015 21.1298 2.57146 20.6952 2.57146C20.2605 2.57146 19.8301 2.66015 19.4286 2.83249C19.027 3.00481 18.6621 3.2574 18.3549 3.57582C18.1466 3.79146 17.9671 4.03504 17.8212 4.30002L14.9027 3.47512C14.9117 2.79308 14.7241 2.12376 14.3639 1.55279C14.0036 0.9818 13.4872 0.535108 12.8805 0.269848C12.2739 0.0045868 11.6046 -0.0671765 10.9584 0.0637227C10.3122 0.194633 9.71835 0.522253 9.25285 1.00469C8.75582 1.52077 8.4302 2.18728 8.32311 2.90778C8.21602 3.62828 8.33301 4.36539 8.65716 5.01244L5.14708 8.28528C4.51025 7.84926 3.74763 7.65431 2.98808 7.73336C2.22854 7.81241 1.51861 8.16062 0.978232 8.71916C0.374018 9.3403 0.0241028 10.1788 0.00119934 11.0602C-0.0217041 11.9417 0.284168 12.7984 0.855254 13.4523C1.42633 14.1062 2.2187 14.5071 3.06766 14.5714C3.91664 14.6359 4.75693 14.359 5.41391 13.7983L12.6533 19.3005C12.4216 19.9014 12.3588 20.558 12.4723 21.1944C12.5857 21.8308 12.8708 22.4209 13.2944 22.8965C13.718 23.3721 14.263 23.7138 14.8662 23.8821C15.4694 24.0503 16.1063 24.0383 16.7032 23.8474C17.3001 23.6564 17.8326 23.2944 18.2393 22.803C18.6459 22.3118 18.9099 21.7113 19.0009 21.0711C19.0919 20.4309 19.0061 19.777 18.7533 19.1852C18.5007 18.5934 18.0914 18.0877 17.573 17.7267L20.4056 9.41443C20.5008 9.42301 20.5959 9.42729 20.6911 9.42729C21.3455 9.42719 21.9852 9.2261 22.5293 8.84947C23.0733 8.47284 23.4975 7.93757 23.748 7.3113C23.9984 6.68504 24.0641 5.9959 23.9366 5.33101C23.809 4.66612 23.4941 4.05532 23.0314 3.57582H23.0356ZM10.4184 2.21633C10.6498 1.9768 10.9447 1.81375 11.2656 1.74776C11.5866 1.68178 11.9192 1.71583 12.2215 1.84562C12.5238 1.97541 12.782 2.19511 12.9638 2.47695C13.1455 2.75879 13.2426 3.09012 13.2426 3.42905C13.2426 3.76798 13.1455 4.09931 12.9638 4.38114C12.782 4.66299 12.5238 4.88269 12.2215 5.01248C11.9192 5.14227 11.5866 5.17633 11.2656 5.11034C10.9447 5.04436 10.6498 4.88129 10.4184 4.64177C10.2648 4.4823 10.1431 4.29303 10.0602 4.08479C9.97725 3.87655 9.93477 3.65342 9.93515 3.42817C9.93553 3.2029 9.97878 2.97993 10.0624 2.772C10.146 2.56406 10.2684 2.37525 10.4225 2.21633H10.4184ZM2.14481 12.3562C1.99096 12.1971 1.86891 12.0079 1.78563 11.8C1.70236 11.5919 1.6595 11.3688 1.6595 11.1435C1.6595 10.9182 1.70236 10.6952 1.78563 10.4871C1.86891 10.279 1.99096 10.09 2.14481 9.93081C2.37629 9.69127 2.67114 9.52821 2.99208 9.46223C3.313 9.39625 3.64562 9.4303 3.94787 9.56009C4.25013 9.68988 4.50845 9.90956 4.69019 10.1915C4.87194 10.4733 4.96893 10.8045 4.96893 11.1435C4.96893 11.4824 4.87194 11.8138 4.69019 12.0956C4.50845 12.3775 4.25013 12.5971 3.94787 12.7269C3.64562 12.8568 3.313 12.8908 2.99208 12.8248C2.67114 12.7588 2.37629 12.5958 2.14481 12.3562ZM16.8976 21.7837C16.5873 22.1052 16.1663 22.2858 15.7274 22.2858C15.2886 22.2858 14.8676 22.1052 14.5573 21.7837C14.2469 21.4623 14.0726 21.0262 14.0726 20.5715C14.0726 20.1168 14.2469 19.6809 14.5573 19.3593C14.711 19.2001 14.8933 19.0739 15.0942 18.9877C15.295 18.9015 15.5101 18.8572 15.7274 18.8572C15.9448 18.8572 16.1599 18.9015 16.3607 18.9877C16.5615 19.0739 16.7439 19.2001 16.8976 19.3593C17.0513 19.5185 17.1732 19.7075 17.2564 19.9155C17.3395 20.1235 17.3823 20.3464 17.3823 20.5715C17.3823 20.7966 17.3395 21.0196 17.2564 21.2276C17.1732 21.4355 17.0513 21.6245 16.8976 21.7837ZM16.0134 17.1579C15.1554 17.0804 14.3021 17.3525 13.6347 17.9163L6.39536 12.4141C6.5708 11.9556 6.64921 11.4636 6.62531 10.971C6.6014 10.4784 6.47573 9.99698 6.25678 9.55906L9.76788 6.28623C10.1456 6.54556 10.5707 6.72178 11.0169 6.80395C11.4631 6.88611 11.9208 6.87249 12.3617 6.76392C12.8025 6.65534 13.2172 6.45413 13.5799 6.17275C13.9426 5.89138 14.2458 5.53582 14.4704 5.12814L17.3848 5.95412C17.3768 6.52399 17.5062 7.08692 17.7613 7.59197C18.0162 8.09702 18.3887 8.52824 18.845 8.84664L16.0134 17.1579ZM21.8629 7.21183C21.7115 7.38121 21.5288 7.51719 21.3255 7.61164C21.1223 7.70609 20.9027 7.75705 20.68 7.76147C20.4572 7.76591 20.2359 7.7237 20.0293 7.63739C19.8228 7.55109 19.6352 7.42245 19.4776 7.25921C19.3202 7.09597 19.1962 6.90148 19.1131 6.68739C19.03 6.4733 18.9894 6.24404 18.9939 6.01332C18.9983 5.78262 19.0477 5.55521 19.1391 5.34475C19.2304 5.13429 19.3619 4.9451 19.5255 4.78854C19.8359 4.46704 20.2568 4.28644 20.6957 4.28644C21.1347 4.28644 21.5555 4.46704 21.866 4.78854C22.1763 5.11003 22.3507 5.54606 22.3507 6.00072C22.3507 6.45537 22.1763 6.89142 21.866 7.2129L21.8629 7.21183Z" fill="#212121"/>
</g>
<defs>
<clipPath id="clip0_245_1719">
<rect width="24" height="24" fill="white"/>
</clipPath>
</defs>
</svg>
