<svg width="24" height="24" viewBox="0 0 24 24" fill="none" xmlns="http://www.w3.org/2000/svg">
<g clip-path="url(#clip0_272_2441)">
<path d="M11.9983 6.49454C10.9098 6.49454 9.84561 6.81733 8.94058 7.42209C8.03548 8.02686 7.33006 8.88642 6.91349 9.89214C6.49693 10.8977 6.38794 12.0044 6.6003 13.072C6.81266 14.1397 7.33685 15.1203 8.10655 15.89C8.87627 16.6598 9.85699 17.1839 10.9246 17.3963C11.9922 17.6086 13.0988 17.4997 14.1045 17.0831C15.1101 16.6665 15.9697 15.9611 16.5745 15.056C17.1793 14.1509 17.5021 13.0869 17.5021 11.9982C17.5005 10.5391 16.9201 9.14006 15.8884 8.10823C14.8565 7.07641 13.4575 6.49606 11.9983 6.49454ZM11.9983 15.6674C11.2726 15.6674 10.5632 15.4523 9.95985 15.0492C9.35642 14.6459 8.88614 14.0729 8.60842 13.4024C8.33071 12.732 8.25805 11.9942 8.39963 11.2825C8.5412 10.5707 8.89065 9.91697 9.4038 9.4038C9.91692 8.89066 10.5708 8.5412 11.2825 8.39963C11.9943 8.25805 12.732 8.33071 13.4024 8.60842C14.0729 8.88614 14.6459 9.35643 15.0491 9.95977C15.4522 10.5632 15.6675 11.2726 15.6675 11.9982C15.6675 12.9714 15.2809 13.9047 14.5928 14.5928C13.9047 15.2809 12.9714 15.6674 11.9983 15.6674ZM22.0885 12.2459C22.093 12.0808 22.093 11.9157 22.0885 11.7506L23.7992 9.61328C23.889 9.50112 23.951 9.3694 23.9805 9.22879C24.0099 9.08819 24.006 8.94262 23.969 8.80383C23.6885 7.74963 23.269 6.73745 22.7215 5.79396C22.6498 5.67049 22.5502 5.56546 22.4307 5.48723C22.3114 5.409 22.1752 5.35973 22.0335 5.34334L19.3137 5.04063C19.2005 4.92138 19.0859 4.80672 18.9697 4.69665L18.6487 1.97001C18.6322 1.82807 18.5828 1.69196 18.5042 1.57251C18.4258 1.45307 18.3205 1.3536 18.1969 1.28204C17.253 0.735503 16.241 0.316399 15.1871 0.0356709C15.0481 -0.00126541 14.9026 -0.00503252 14.7619 0.0246388C14.6213 0.0543101 14.4897 0.116613 14.3775 0.206507L12.246 1.90808C12.0809 1.90808 11.9158 1.90808 11.7506 1.90808L9.61336 0.200783C9.50112 0.111072 9.36939 0.0489899 9.22879 0.0195142C9.08819 -0.0099614 8.94262 -0.00599873 8.80383 0.0310843C7.7498 0.312032 6.73768 0.731528 5.79396 1.2786C5.6705 1.35028 5.56546 1.44982 5.48723 1.56925C5.40901 1.68868 5.35973 1.82473 5.34334 1.96657L5.04063 4.69092C4.92139 4.80482 4.80673 4.91948 4.69665 5.03491L1.97001 5.34793C1.82807 5.36445 1.69195 5.41389 1.5725 5.49232C1.45306 5.57075 1.3536 5.67601 1.28204 5.7997C0.735492 6.74354 0.316399 7.75563 0.0356594 8.80956C-0.00126465 8.94844 -0.00503146 9.09406 0.0246399 9.23467C0.0543112 9.37528 0.116614 9.50695 0.206508 9.61903L1.90808 11.7506C1.90808 11.9157 1.90808 12.0808 1.90808 12.2459L0.200772 14.3832C0.111073 14.4955 0.0489909 14.6272 0.0195153 14.7678C-0.00996034 14.9084 -0.00599769 15.0539 0.0310731 15.1927C0.311532 16.247 0.731052 17.2591 1.27859 18.2027C1.35028 18.3261 1.44982 18.4311 1.56925 18.5093C1.68868 18.5876 1.82473 18.6369 1.96656 18.6532L4.68633 18.956C4.80023 19.0752 4.91489 19.1898 5.03031 19.2999L5.34793 22.0266C5.36444 22.1686 5.41389 22.3047 5.49232 22.4241C5.57076 22.5435 5.67601 22.643 5.7997 22.7145C6.74354 23.2611 7.75563 23.6803 8.80956 23.9609C8.94844 23.9979 9.09406 24.0017 9.23467 23.972C9.37528 23.9422 9.50695 23.88 9.6191 23.7901L11.7506 22.0884C11.9158 22.0931 12.0809 22.0931 12.246 22.0884L14.3833 23.7993C14.4954 23.8889 14.6271 23.951 14.7678 23.9805C14.9085 24.01 15.054 24.0061 15.1928 23.9689C16.247 23.6884 17.2592 23.2689 18.2026 22.7214C18.326 22.6497 18.4311 22.5503 18.5094 22.4308C18.5875 22.3113 18.6368 22.1753 18.6532 22.0334L18.9559 19.3137C19.0752 19.2006 19.1899 19.0858 19.3 18.9697L22.0266 18.6486C22.1685 18.6321 22.3046 18.5827 22.4241 18.5043C22.5435 18.4259 22.6429 18.3206 22.7146 18.1969C23.2611 17.2531 23.6802 16.2409 23.9609 15.187C23.9978 15.0482 24.0016 14.9025 23.9719 14.762C23.9423 14.6213 23.8799 14.4896 23.79 14.3776L22.0885 12.2459ZM20.2424 11.5007C20.2619 11.8321 20.2619 12.1645 20.2424 12.4959C20.2287 12.7229 20.2999 12.9468 20.4419 13.1243L22.0689 15.1573C21.8823 15.7506 21.6432 16.3261 21.3547 16.8771L18.7633 17.1707C18.5376 17.1957 18.3293 17.3036 18.1785 17.4734C17.9578 17.7217 17.7227 17.9567 17.4745 18.1774C17.3048 18.3282 17.1969 18.5364 17.1718 18.7622L16.8841 21.3512C16.3331 21.6399 15.7575 21.8791 15.1641 22.0656L13.13 20.4385C12.9672 20.3084 12.765 20.2377 12.5566 20.2378H12.5016C12.1702 20.2574 11.8378 20.2574 11.5064 20.2378C11.2794 20.2241 11.0556 20.2953 10.878 20.4373L8.83937 22.0656C8.24603 21.8788 7.67046 21.6398 7.11945 21.3512L6.82592 18.7633C6.80087 18.5377 6.69301 18.3293 6.52321 18.1786C6.27498 17.9578 6.0399 17.7228 5.81918 17.4745C5.66844 17.3047 5.46008 17.1968 5.23442 17.1718L2.64535 16.8829C2.35663 16.3319 2.11757 15.7563 1.93102 15.1629L3.55806 13.1288C3.70014 12.9514 3.77124 12.7274 3.75758 12.5005C3.73808 12.1691 3.73808 11.8367 3.75758 11.5052C3.77124 11.2783 3.70014 11.0544 3.55806 10.8769L1.93102 8.83937C2.11772 8.24604 2.35677 7.67046 2.64535 7.11945L5.23327 6.82591C5.45894 6.80087 5.6673 6.69301 5.81804 6.52321C6.03876 6.27498 6.27383 6.03991 6.52206 5.81919C6.69254 5.66834 6.80084 5.45951 6.82592 5.23326L7.11371 2.64536C7.66466 2.35664 8.24024 2.11757 8.83363 1.93102L10.8677 3.55807C11.0452 3.70014 11.2691 3.77124 11.4961 3.75757C11.8276 3.73808 12.1599 3.73808 12.4913 3.75757C12.7183 3.77124 12.9421 3.70014 13.1197 3.55807L15.1572 1.93102C15.7505 2.11771 16.3261 2.35677 16.8771 2.64536L17.1706 5.23326C17.1957 5.45894 17.3036 5.6673 17.4733 5.81804C17.7216 6.03876 17.9567 6.27383 18.1774 6.52206C18.3281 6.69187 18.5365 6.79972 18.7622 6.82476L21.3513 7.11257C21.6399 7.66352 21.879 8.23911 22.0655 8.83249L20.4385 10.8665C20.295 11.0456 20.2239 11.2717 20.239 11.5007H20.2424Z" fill="#212121"/>
</g>
<defs>
<clipPath id="clip0_272_2441">
<rect width="24" height="24" fill="white"/>
</clipPath>
</defs>
</svg>
