<svg width="24" height="24" viewBox="0 0 24 24" fill="none" xmlns="http://www.w3.org/2000/svg">
<g clip-path="url(#clip0_587_10568)">
<path fill-rule="evenodd" clip-rule="evenodd" d="M11.4999 24C11.9796 24 12.3684 23.6173 12.3684 23.1451V22.3881H14.7751C15.2546 22.3881 15.6434 22.0054 15.6434 21.5333C15.6434 21.0611 15.2546 20.6784 14.7751 20.6784H12.3684V17.5524H14.7751C15.2546 17.5524 15.6434 17.1696 15.6434 16.6975C15.6434 16.2254 15.2546 15.8427 14.7751 15.8427H12.3684V10.7606C13.4743 10.5874 14.5367 10.0814 15.3891 9.24243C17.537 7.12805 17.537 3.70006 15.3891 1.58575C13.2412 -0.528582 9.75876 -0.528582 7.61091 1.58575C5.46303 3.70006 5.46303 7.12805 7.61091 9.24243C8.46325 10.0814 9.5257 10.5874 10.6316 10.7606V23.1451C10.6316 23.6173 11.0204 24 11.4999 24ZM8.83902 8.03343C7.36944 6.58679 7.36944 4.24132 8.83902 2.79468C10.3086 1.34804 12.6914 1.34805 14.161 2.79468C15.6305 4.24132 15.6305 6.58679 14.161 8.03343C12.6914 9.48009 10.3086 9.48009 8.83902 8.03343Z" fill="#212121"/>
</g>
<defs>
<clipPath id="clip0_587_10568">
<rect width="11" height="24" fill="white" transform="translate(6)"/>
</clipPath>
</defs>
</svg>
