<svg width="297" height="382" viewBox="0 0 297 382" fill="none" xmlns="http://www.w3.org/2000/svg">
<path d="M75.3333 363.5C75.3333 364.973 76.5272 366.167 78 366.167C79.4728 366.167 80.6667 364.973 80.6667 363.5C80.6667 362.027 79.4728 360.833 78 360.833C76.5272 360.833 75.3333 362.027 75.3333 363.5ZM1 301L0.527999 301.165C0.7388 301.768 0.971144 302.394 1.22522 303.042L1.69065 302.859L2.15608 302.676C1.90637 302.04 1.67844 301.426 1.472 300.835L1 301ZM3.26117 306.516L2.80769 306.726C3.34314 307.879 3.93601 309.078 4.58723 310.314L5.02962 310.081L5.47201 309.848C4.82834 308.626 4.24289 307.442 3.71464 306.305L3.26117 306.516ZM6.95864 313.553L6.52697 313.805C7.18092 314.924 7.8789 316.065 8.62154 317.224L9.04249 316.954L9.46344 316.684C8.72819 315.537 8.03735 314.408 7.39032 313.3L6.95864 313.553ZM11.2509 320.255L10.8408 320.541C11.5883 321.613 12.3729 322.695 13.1949 323.783L13.5938 323.482L13.9928 323.181C13.1785 322.103 12.4014 321.031 11.661 319.969L11.2509 320.255ZM16.0481 326.609L15.6606 326.925C16.4887 327.94 17.3492 328.958 18.2427 329.975L18.6183 329.645L18.9938 329.315C18.1086 328.307 17.256 327.299 16.4356 326.293L16.0481 326.609ZM21.3021 332.588L20.939 332.931C21.8441 333.888 22.7789 334.841 23.7437 335.788L24.094 335.431L24.4442 335.074C23.4883 334.136 22.5621 333.192 21.6653 332.244L21.3021 332.588ZM26.982 338.162L26.6452 338.531C27.619 339.418 28.6201 340.298 29.649 341.167L29.9717 340.785L30.2943 340.403C29.2751 339.542 28.2833 338.671 27.3187 337.792L26.982 338.162ZM33.0591 343.295L32.7511 343.689C33.7907 344.502 34.8561 345.303 35.9475 346.092L36.2403 345.686L36.5331 345.281C35.4521 344.5 34.3969 343.706 33.3671 342.901L33.0591 343.295ZM39.5109 347.955L39.2339 348.371C40.3336 349.103 41.4575 349.821 42.606 350.522L42.8667 350.096L43.1274 349.669C41.9901 348.974 40.877 348.263 39.788 347.539L39.5109 347.955ZM46.3028 352.105L46.0589 352.541C47.2121 353.186 48.3883 353.814 49.5876 354.424L49.8143 353.978L50.041 353.533C48.8534 352.929 47.6887 352.307 46.5467 351.668L46.3028 352.105ZM53.3958 355.714L53.1867 356.168C54.3863 356.72 55.6075 357.255 56.8505 357.769L57.0419 357.307L57.2332 356.845C56.0022 356.336 54.7929 355.807 53.605 355.259L53.3958 355.714ZM60.7466 358.758L60.5733 359.227C61.8114 359.685 63.07 360.123 64.349 360.54L64.504 360.065L64.6591 359.589C63.3924 359.176 62.146 358.742 60.9198 358.289L60.7466 358.758ZM68.3084 361.226L68.1716 361.707C69.4403 362.068 70.7282 362.409 72.0352 362.728L72.1539 362.242L72.2726 361.757C70.9778 361.44 69.702 361.103 68.4453 360.745L68.3084 361.226ZM76.0349 363.115L75.9343 363.605C76.5877 363.739 77.2458 363.868 77.9084 363.992L78 363.5L78.0916 363.008C77.4351 362.886 76.783 362.758 76.1356 362.625L76.0349 363.115Z" fill="white"/>
<rect opacity="0.5" x="89" y="342" width="208" height="40" rx="5" fill="white"/>
<path d="M126.719 362.268L126.815 359.928H126.707L125.147 364.236L123.587 359.928H123.479L123.575 362.268V366H122.015V357.624H124.139L125.171 360.444H125.267L126.299 357.624H128.279V366H126.719V362.268ZM133.962 366L133.434 363.984H131.142L130.626 366H128.802L131.07 357.624H133.614L135.882 366H133.962ZM132.342 359.364H132.246L131.43 362.532H133.158L132.342 359.364ZM143.03 366H140.978L140.114 364.332L139.526 363.012H139.418L138.818 364.332L137.93 366H136.046L138.398 361.668L136.202 357.624H138.254L138.938 358.956L139.55 360.3H139.646L140.27 358.956L140.99 357.624H142.874L140.678 361.692L143.03 366ZM144.033 366V364.668H145.833V358.956H144.033V357.624H149.433V358.956H147.633V364.668H149.433V366H144.033ZM155.5 362.268L155.596 359.928H155.488L153.928 364.236L152.368 359.928H152.26L152.356 362.268V366H150.796V357.624H152.92L153.952 360.444H154.048L155.08 357.624H157.06V366H155.5V362.268ZM158.423 366V364.668H160.223V358.956H158.423V357.624H163.823V358.956H162.023V364.668H163.823V366H158.423ZM171.331 366H165.295V364.428L169.195 359.1H165.415V357.624H171.211V359.196L167.311 364.524H171.331V366ZM172.814 366V364.668H174.614V358.956H172.814V357.624H178.214V358.956H176.414V364.668H178.214V366H172.814ZM181.509 360.432H181.377V366H179.841V357.624H182.001L183.909 363.192H184.041V357.624H185.577V366H183.417L181.509 360.432ZM191.237 364.812H191.129C191.057 364.988 190.969 365.156 190.865 365.316C190.761 365.476 190.633 365.62 190.481 365.748C190.329 365.868 190.149 365.964 189.941 366.036C189.741 366.108 189.513 366.144 189.257 366.144C188.849 366.144 188.485 366.048 188.165 365.856C187.853 365.664 187.589 365.384 187.373 365.016C187.157 364.648 186.993 364.2 186.881 363.672C186.777 363.144 186.725 362.548 186.725 361.884C186.725 360.46 186.985 359.372 187.505 358.62C188.025 357.86 188.829 357.48 189.917 357.48C190.349 357.48 190.729 357.54 191.057 357.66C191.385 357.772 191.665 357.936 191.897 358.152C192.137 358.36 192.333 358.612 192.485 358.908C192.637 359.204 192.757 359.532 192.845 359.892L191.165 360.3C191.117 360.124 191.061 359.956 190.997 359.796C190.941 359.628 190.865 359.48 190.769 359.352C190.673 359.224 190.553 359.124 190.409 359.052C190.265 358.972 190.089 358.932 189.881 358.932C189.425 358.932 189.101 359.12 188.909 359.496C188.725 359.872 188.633 360.4 188.633 361.08V362.448C188.633 363.128 188.733 363.672 188.933 364.08C189.141 364.488 189.505 364.692 190.025 364.692C190.433 364.692 190.737 364.572 190.937 364.332C191.137 364.092 191.237 363.784 191.237 363.408V362.796H189.809V361.524H192.845V366H191.237V364.812ZM201.607 366V357.624H204.847C205.255 357.624 205.619 357.688 205.939 357.816C206.259 357.936 206.527 358.112 206.743 358.344C206.967 358.576 207.135 358.856 207.247 359.184C207.359 359.512 207.415 359.88 207.415 360.288C207.415 360.696 207.359 361.064 207.247 361.392C207.135 361.72 206.967 362 206.743 362.232C206.527 362.464 206.259 362.644 205.939 362.772C205.619 362.892 205.255 362.952 204.847 362.952H203.419V366H201.607ZM203.419 361.5H204.391C204.815 361.5 205.107 361.42 205.267 361.26C205.435 361.1 205.519 360.836 205.519 360.468V360.108C205.519 359.74 205.435 359.476 205.267 359.316C205.107 359.156 204.815 359.076 204.391 359.076H203.419V361.5ZM211.491 366.144C210.371 366.144 209.543 365.764 209.007 365.004C208.479 364.244 208.215 363.18 208.215 361.812C208.215 360.444 208.479 359.38 209.007 358.62C209.543 357.86 210.371 357.48 211.491 357.48C212.611 357.48 213.435 357.86 213.963 358.62C214.499 359.38 214.767 360.444 214.767 361.812C214.767 363.18 214.499 364.244 213.963 365.004C213.435 365.764 212.611 366.144 211.491 366.144ZM211.491 364.692C212.003 364.692 212.355 364.504 212.547 364.128C212.747 363.744 212.847 363.212 212.847 362.532V361.08C212.847 360.408 212.747 359.884 212.547 359.508C212.355 359.124 212.003 358.932 211.491 358.932C210.979 358.932 210.623 359.124 210.423 359.508C210.231 359.884 210.135 360.408 210.135 361.08V362.544C210.135 363.216 210.231 363.744 210.423 364.128C210.623 364.504 210.979 364.692 211.491 364.692ZM219.586 359.1V366H217.786V359.1H215.374V357.624H221.998V359.1H219.586ZM223.241 366V357.624H228.593V359.1H225.041V361.02H228.473V362.496H225.041V364.524H228.593V366H223.241ZM231.877 360.432H231.745V366H230.209V357.624H232.369L234.277 363.192H234.409V357.624H235.945V366H233.785L231.877 360.432ZM241.172 359.1V366H239.372V359.1H236.96V357.624H243.584V359.1H241.172ZM244.767 366V364.668H246.567V358.956H244.767V357.624H250.167V358.956H248.367V364.668H250.167V366H244.767ZM256.283 366L255.755 363.984H253.463L252.947 366H251.123L253.391 357.624H255.935L258.203 366H256.283ZM254.663 359.364H254.567L253.751 362.532H255.479L254.663 359.364ZM259.362 366V357.624H261.174V364.524H264.774V366H259.362Z" fill="#0E2440"/>
<path d="M75.3333 213.5C75.3333 214.973 76.5272 216.167 78 216.167C79.4728 216.167 80.6667 214.973 80.6667 213.5C80.6667 212.027 79.4728 210.833 78 210.833C76.5272 210.833 75.3333 212.027 75.3333 213.5ZM1 151L0.527999 151.165C0.7388 151.768 0.971144 152.394 1.22522 153.042L1.69065 152.859L2.15608 152.676C1.90637 152.04 1.67844 151.426 1.472 150.835L1 151ZM3.26117 156.516L2.80769 156.726C3.34314 157.879 3.93601 159.078 4.58723 160.314L5.02962 160.081L5.47201 159.848C4.82834 158.626 4.24289 157.442 3.71464 156.305L3.26117 156.516ZM6.95864 163.553L6.52697 163.805C7.18092 164.924 7.8789 166.065 8.62154 167.224L9.04249 166.954L9.46344 166.684C8.72819 165.537 8.03735 164.408 7.39032 163.3L6.95864 163.553ZM11.2509 170.255L10.8408 170.541C11.5883 171.613 12.3729 172.695 13.1949 173.783L13.5938 173.482L13.9928 173.181C13.1785 172.103 12.4014 171.031 11.661 169.969L11.2509 170.255ZM16.0481 176.609L15.6606 176.925C16.4887 177.94 17.3492 178.958 18.2427 179.975L18.6183 179.645L18.9938 179.315C18.1086 178.307 17.256 177.299 16.4356 176.293L16.0481 176.609ZM21.3021 182.588L20.939 182.931C21.8441 183.888 22.7789 184.841 23.7437 185.788L24.094 185.431L24.4442 185.074C23.4883 184.136 22.5621 183.192 21.6653 182.244L21.3021 182.588ZM26.982 188.162L26.6452 188.531C27.619 189.418 28.6201 190.298 29.649 191.167L29.9717 190.785L30.2943 190.403C29.2751 189.542 28.2833 188.671 27.3187 187.792L26.982 188.162ZM33.0591 193.295L32.7511 193.689C33.7907 194.502 34.8561 195.303 35.9475 196.092L36.2403 195.686L36.5331 195.281C35.4521 194.5 34.3969 193.706 33.3671 192.901L33.0591 193.295ZM39.5109 197.955L39.2339 198.371C40.3336 199.103 41.4575 199.821 42.606 200.522L42.8667 200.096L43.1274 199.669C41.9901 198.974 40.877 198.263 39.788 197.539L39.5109 197.955ZM46.3028 202.105L46.0589 202.541C47.2121 203.186 48.3883 203.814 49.5876 204.424L49.8143 203.978L50.041 203.533C48.8534 202.929 47.6887 202.307 46.5467 201.668L46.3028 202.105ZM53.3958 205.714L53.1867 206.168C54.3863 206.72 55.6075 207.255 56.8505 207.769L57.0419 207.307L57.2332 206.845C56.0022 206.336 54.7929 205.807 53.605 205.259L53.3958 205.714ZM60.7466 208.758L60.5733 209.227C61.8114 209.685 63.07 210.123 64.349 210.54L64.504 210.065L64.6591 209.589C63.3924 209.176 62.146 208.742 60.9198 208.289L60.7466 208.758ZM68.3084 211.226L68.1716 211.707C69.4403 212.068 70.7282 212.409 72.0352 212.728L72.1539 212.242L72.2726 211.757C70.9778 211.44 69.702 211.103 68.4453 210.745L68.3084 211.226ZM76.0349 213.115L75.9343 213.605C76.5877 213.739 77.2458 213.868 77.9084 213.992L78 213.5L78.0916 213.008C77.4351 212.886 76.783 212.758 76.1356 212.625L76.0349 213.115Z" fill="white"/>
<rect opacity="0.5" x="89" y="192" width="208" height="40" rx="5" fill="white"/>
<path d="M102.149 216H100.373V207.624H103.613C104.021 207.624 104.385 207.688 104.705 207.816C105.025 207.936 105.293 208.112 105.509 208.344C105.733 208.576 105.901 208.856 106.013 209.184C106.125 209.512 106.181 209.88 106.181 210.288C106.181 210.88 106.053 211.388 105.797 211.812C105.541 212.236 105.177 212.516 104.705 212.652L106.349 216H104.381L102.977 212.892H102.149V216ZM103.181 211.5C103.605 211.5 103.897 211.42 104.057 211.26C104.225 211.1 104.309 210.836 104.309 210.468V210.108C104.309 209.74 104.225 209.476 104.057 209.316C103.897 209.156 103.605 209.076 103.181 209.076H102.149V211.5H103.181ZM107.616 216V207.624H112.968V209.1H109.416V211.02H112.848V212.496H109.416V214.524H112.968V216H107.616ZM116.18 216L113.96 207.624H115.964L116.948 211.884L117.44 214.296H117.536L118.04 211.884L119.036 207.624H120.944L118.724 216H116.18ZM124.647 216.144C123.527 216.144 122.699 215.764 122.163 215.004C121.635 214.244 121.371 213.18 121.371 211.812C121.371 210.444 121.635 209.38 122.163 208.62C122.699 207.86 123.527 207.48 124.647 207.48C125.767 207.48 126.591 207.86 127.119 208.62C127.655 209.38 127.923 210.444 127.923 211.812C127.923 213.18 127.655 214.244 127.119 215.004C126.591 215.764 125.767 216.144 124.647 216.144ZM124.647 214.692C125.159 214.692 125.511 214.504 125.703 214.128C125.903 213.744 126.003 213.212 126.003 212.532V211.08C126.003 210.408 125.903 209.884 125.703 209.508C125.511 209.124 125.159 208.932 124.647 208.932C124.135 208.932 123.779 209.124 123.579 209.508C123.387 209.884 123.291 210.408 123.291 211.08V212.544C123.291 213.216 123.387 213.744 123.579 214.128C123.779 214.504 124.135 214.692 124.647 214.692ZM129.346 216V207.624H131.158V214.524H134.758V216H129.346ZM137.898 207.624V212.928C137.898 213.192 137.906 213.436 137.922 213.66C137.946 213.876 137.994 214.06 138.066 214.212C138.146 214.364 138.262 214.484 138.414 214.572C138.566 214.652 138.774 214.692 139.038 214.692C139.302 214.692 139.51 214.652 139.662 214.572C139.814 214.484 139.926 214.364 139.998 214.212C140.078 214.06 140.126 213.876 140.142 213.66C140.166 213.436 140.178 213.192 140.178 212.928V207.624H141.978V212.688C141.978 213.264 141.938 213.768 141.858 214.2C141.786 214.632 141.642 214.992 141.426 215.28C141.21 215.568 140.91 215.784 140.526 215.928C140.142 216.072 139.646 216.144 139.038 216.144C138.43 216.144 137.934 216.072 137.55 215.928C137.166 215.784 136.866 215.568 136.65 215.28C136.434 214.992 136.286 214.632 136.206 214.2C136.134 213.768 136.098 213.264 136.098 212.688V207.624H137.898ZM147.133 209.1V216H145.333V209.1H142.921V207.624H149.545V209.1H147.133ZM150.728 216V214.668H152.528V208.956H150.728V207.624H156.128V208.956H154.328V214.668H156.128V216H150.728ZM160.623 216.144C159.503 216.144 158.675 215.764 158.139 215.004C157.611 214.244 157.347 213.18 157.347 211.812C157.347 210.444 157.611 209.38 158.139 208.62C158.675 207.86 159.503 207.48 160.623 207.48C161.743 207.48 162.567 207.86 163.095 208.62C163.631 209.38 163.899 210.444 163.899 211.812C163.899 213.18 163.631 214.244 163.095 215.004C162.567 215.764 161.743 216.144 160.623 216.144ZM160.623 214.692C161.135 214.692 161.487 214.504 161.679 214.128C161.879 213.744 161.979 213.212 161.979 212.532V211.08C161.979 210.408 161.879 209.884 161.679 209.508C161.487 209.124 161.135 208.932 160.623 208.932C160.111 208.932 159.755 209.124 159.555 209.508C159.363 209.884 159.267 210.408 159.267 211.08V212.544C159.267 213.216 159.363 213.744 159.555 214.128C159.755 214.504 160.111 214.692 160.623 214.692ZM166.619 210.432H166.487V216H164.951V207.624H167.111L169.019 213.192H169.151V207.624H170.687V216H168.527L166.619 210.432ZM172.314 216V214.668H174.114V208.956H172.314V207.624H177.714V208.956H175.914V214.668H177.714V216H172.314ZM185.221 216H179.185V214.428L183.085 209.1H179.305V207.624H185.101V209.196L181.201 214.524H185.221V216ZM186.705 216V214.668H188.505V208.956H186.705V207.624H192.105V208.956H190.305V214.668H192.105V216H186.705ZM195.4 210.432H195.268V216H193.732V207.624H195.892L197.8 213.192H197.932V207.624H199.468V216H197.308L195.4 210.432ZM205.127 214.812H205.019C204.947 214.988 204.859 215.156 204.755 215.316C204.651 215.476 204.523 215.62 204.371 215.748C204.219 215.868 204.039 215.964 203.831 216.036C203.631 216.108 203.403 216.144 203.147 216.144C202.739 216.144 202.375 216.048 202.055 215.856C201.743 215.664 201.479 215.384 201.263 215.016C201.047 214.648 200.883 214.2 200.771 213.672C200.667 213.144 200.615 212.548 200.615 211.884C200.615 210.46 200.875 209.372 201.395 208.62C201.915 207.86 202.719 207.48 203.807 207.48C204.239 207.48 204.619 207.54 204.947 207.66C205.275 207.772 205.555 207.936 205.787 208.152C206.027 208.36 206.223 208.612 206.375 208.908C206.527 209.204 206.647 209.532 206.735 209.892L205.055 210.3C205.007 210.124 204.951 209.956 204.887 209.796C204.831 209.628 204.755 209.48 204.659 209.352C204.563 209.224 204.443 209.124 204.299 209.052C204.155 208.972 203.979 208.932 203.771 208.932C203.315 208.932 202.991 209.12 202.799 209.496C202.615 209.872 202.523 210.4 202.523 211.08V212.448C202.523 213.128 202.623 213.672 202.823 214.08C203.031 214.488 203.395 214.692 203.915 214.692C204.323 214.692 204.627 214.572 204.827 214.332C205.027 214.092 205.127 213.784 205.127 213.408V212.796H203.699V211.524H206.735V216H205.127V214.812ZM218.186 216.144C217.066 216.144 216.238 215.764 215.702 215.004C215.174 214.244 214.91 213.18 214.91 211.812C214.91 210.444 215.174 209.38 215.702 208.62C216.238 207.86 217.066 207.48 218.186 207.48C219.306 207.48 220.13 207.86 220.658 208.62C221.194 209.38 221.462 210.444 221.462 211.812C221.462 213.18 221.194 214.244 220.658 215.004C220.13 215.764 219.306 216.144 218.186 216.144ZM218.186 214.692C218.698 214.692 219.05 214.504 219.242 214.128C219.442 213.744 219.542 213.212 219.542 212.532V211.08C219.542 210.408 219.442 209.884 219.242 209.508C219.05 209.124 218.698 208.932 218.186 208.932C217.674 208.932 217.318 209.124 217.118 209.508C216.926 209.884 216.83 210.408 216.83 211.08V212.544C216.83 213.216 216.926 213.744 217.118 214.128C217.318 214.504 217.674 214.692 218.186 214.692ZM222.693 216V207.624H225.933C226.341 207.624 226.705 207.688 227.025 207.816C227.345 207.936 227.613 208.112 227.829 208.344C228.053 208.576 228.221 208.856 228.333 209.184C228.445 209.512 228.501 209.88 228.501 210.288C228.501 210.696 228.445 211.064 228.333 211.392C228.221 211.72 228.053 212 227.829 212.232C227.613 212.464 227.345 212.644 227.025 212.772C226.705 212.892 226.341 212.952 225.933 212.952H224.505V216H222.693ZM224.505 211.5H225.477C225.901 211.5 226.193 211.42 226.353 211.26C226.521 211.1 226.605 210.836 226.605 210.468V210.108C226.605 209.74 226.521 209.476 226.353 209.316C226.193 209.156 225.901 209.076 225.477 209.076H224.505V211.5ZM229.937 216V207.624H235.289V209.1H231.737V211.02H235.169V212.496H231.737V214.524H235.289V216H229.937ZM238.86 216H237.084V207.624H240.324C240.732 207.624 241.096 207.688 241.416 207.816C241.736 207.936 242.004 208.112 242.22 208.344C242.444 208.576 242.612 208.856 242.724 209.184C242.836 209.512 242.892 209.88 242.892 210.288C242.892 210.88 242.764 211.388 242.508 211.812C242.252 212.236 241.888 212.516 241.416 212.652L243.06 216H241.092L239.688 212.892H238.86V216ZM239.892 211.5C240.316 211.5 240.608 211.42 240.768 211.26C240.936 211.1 241.02 210.836 241.02 210.468V210.108C241.02 209.74 240.936 209.476 240.768 209.316C240.608 209.156 240.316 209.076 239.892 209.076H238.86V211.5H239.892ZM248.587 216L248.059 213.984H245.767L245.251 216H243.427L245.695 207.624H248.239L250.507 216H248.587ZM246.967 209.364H246.871L246.055 212.532H247.783L246.967 209.364ZM255.063 209.1V216H253.263V209.1H250.851V207.624H257.475V209.1H255.063ZM258.658 216V214.668H260.458V208.956H258.658V207.624H264.058V208.956H262.258V214.668H264.058V216H258.658ZM268.553 216.144C267.433 216.144 266.605 215.764 266.069 215.004C265.541 214.244 265.277 213.18 265.277 211.812C265.277 210.444 265.541 209.38 266.069 208.62C266.605 207.86 267.433 207.48 268.553 207.48C269.673 207.48 270.497 207.86 271.025 208.62C271.561 209.38 271.829 210.444 271.829 211.812C271.829 213.18 271.561 214.244 271.025 215.004C270.497 215.764 269.673 216.144 268.553 216.144ZM268.553 214.692C269.065 214.692 269.417 214.504 269.609 214.128C269.809 213.744 269.909 213.212 269.909 212.532V211.08C269.909 210.408 269.809 209.884 269.609 209.508C269.417 209.124 269.065 208.932 268.553 208.932C268.041 208.932 267.685 209.124 267.485 209.508C267.293 209.884 267.197 210.408 267.197 211.08V212.544C267.197 213.216 267.293 213.744 267.485 214.128C267.685 214.504 268.041 214.692 268.553 214.692ZM274.548 210.432H274.416V216H272.88V207.624H275.04L276.948 213.192H277.08V207.624H278.616V216H276.456L274.548 210.432ZM282.812 216.144C282.108 216.144 281.496 216.028 280.976 215.796C280.456 215.564 280.036 215.248 279.716 214.848L280.76 213.696C281.064 214.032 281.396 214.28 281.756 214.44C282.124 214.6 282.496 214.68 282.872 214.68C283.304 214.68 283.632 214.584 283.856 214.392C284.08 214.2 284.192 213.924 284.192 213.564C284.192 213.268 284.104 213.044 283.928 212.892C283.76 212.74 283.472 212.632 283.064 212.568L282.188 212.424C281.436 212.296 280.892 212.02 280.556 211.596C280.22 211.164 280.052 210.64 280.052 210.024C280.052 209.216 280.316 208.592 280.844 208.152C281.372 207.704 282.112 207.48 283.064 207.48C283.712 207.48 284.276 207.58 284.756 207.78C285.236 207.98 285.624 208.252 285.92 208.596L284.9 209.736C284.676 209.488 284.412 209.296 284.108 209.16C283.804 209.016 283.46 208.944 283.076 208.944C282.268 208.944 281.864 209.276 281.864 209.94C281.864 210.228 281.952 210.444 282.128 210.588C282.312 210.732 282.608 210.84 283.016 210.912L283.892 211.068C284.572 211.188 285.096 211.444 285.464 211.836C285.832 212.228 286.016 212.756 286.016 213.42C286.016 213.812 285.948 214.176 285.812 214.512C285.676 214.84 285.472 215.128 285.2 215.376C284.928 215.616 284.592 215.804 284.192 215.94C283.8 216.076 283.34 216.144 282.812 216.144Z" fill="#0E2440"/>
<path d="M75.3333 63.5C75.3333 64.9728 76.5272 66.1667 78 66.1667C79.4728 66.1667 80.6667 64.9728 80.6667 63.5C80.6667 62.0272 79.4728 60.8333 78 60.8333C76.5272 60.8333 75.3333 62.0272 75.3333 63.5ZM1 1L0.527999 1.16497C0.7388 1.7681 0.971144 2.3943 1.22522 3.0416L1.69065 2.85891L2.15608 2.67622C1.90637 2.04006 1.67844 1.42567 1.472 0.835029L1 1ZM3.26117 6.51557L2.80769 6.72619C3.34314 7.87909 3.93601 9.07789 4.58723 10.3144L5.02962 10.0814L5.47201 9.84836C4.82834 8.62622 4.24289 7.44235 3.71464 6.30496L3.26117 6.51557ZM6.95864 13.5528L6.52697 13.8051C7.18092 14.9239 7.8789 16.0653 8.62154 17.2239L9.04249 16.954L9.46344 16.6842C8.72819 15.5372 8.03735 14.4075 7.39032 13.3005L6.95864 13.5528ZM11.2509 20.2552L10.8408 20.5412C11.5883 21.6132 12.3729 22.6952 13.1949 23.7835L13.5938 23.4821L13.9928 23.1808C13.1785 22.1027 12.4014 21.0309 11.661 19.9692L11.2509 20.2552ZM16.0481 26.6087L15.6606 26.9247C16.4887 27.9402 17.3492 28.9579 18.2427 29.9746L18.6183 29.6446L18.9938 29.3145C18.1086 28.3071 17.256 27.2989 16.4356 26.2927L16.0481 26.6087ZM21.3021 32.5876L20.939 32.9313C21.8441 33.8877 22.7789 34.8407 23.7437 35.7875L24.094 35.4307L24.4442 35.0738C23.4883 34.1357 22.5621 33.1916 21.6653 32.2439L21.3021 32.5876ZM26.982 38.1616L26.6452 38.5312C27.619 39.4183 28.6201 40.2975 29.649 41.1667L29.9717 40.7847L30.2943 40.4028C29.2751 39.5418 28.2833 38.6708 27.3187 37.792L26.982 38.1616ZM33.0591 43.2947L32.7511 43.6885C33.7907 44.5015 34.8561 45.3032 35.9475 46.0916L36.2403 45.6863L36.5331 45.281C35.4521 44.5002 34.3969 43.7061 33.3671 42.9008L33.0591 43.2947ZM39.5109 47.9548L39.2339 48.3711C40.3336 49.1029 41.4575 49.8206 42.606 50.5223L42.8667 50.0957L43.1274 49.669C41.9901 48.9741 40.877 48.2633 39.788 47.5386L39.5109 47.9548ZM46.3028 52.1048L46.0589 52.5413C47.2121 53.1858 48.3883 53.8139 49.5876 54.4241L49.8143 53.9785L50.041 53.5328C48.8534 52.9286 47.6887 52.3066 46.5467 51.6683L46.3028 52.1048ZM53.3958 55.7135L53.1867 56.1677C54.3863 56.7202 55.6075 57.2546 56.8505 57.7694L57.0419 57.3074L57.2332 56.8455C56.0022 56.3357 54.7929 55.8065 53.605 55.2594L53.3958 55.7135ZM60.7466 58.7582L60.5733 59.2272C61.8114 59.6846 63.07 60.1226 64.349 60.5399L64.504 60.0645L64.6591 59.5892C63.3924 59.1759 62.146 58.7421 60.9198 58.2892L60.7466 58.7582ZM68.3084 61.2259L68.1716 61.7068C69.4403 62.0679 70.7282 62.4088 72.0352 62.7282L72.1539 62.2425L72.2726 61.7568C70.9778 61.4403 69.702 61.1027 68.4453 60.745L68.3084 61.2259ZM76.0349 63.115L75.9343 63.6047C76.5877 63.739 77.2458 63.868 77.9084 63.9915L78 63.5L78.0916 63.0085C77.4351 62.8861 76.783 62.7583 76.1356 62.6252L76.0349 63.115Z" fill="white"/>
<rect opacity="0.5" x="89" y="42" width="208" height="40" rx="5" fill="white"/>
<path d="M110.624 66.144C109.92 66.144 109.308 66.028 108.788 65.796C108.268 65.564 107.848 65.248 107.528 64.848L108.572 63.696C108.876 64.032 109.208 64.28 109.568 64.44C109.936 64.6 110.308 64.68 110.684 64.68C111.116 64.68 111.444 64.584 111.668 64.392C111.892 64.2 112.004 63.924 112.004 63.564C112.004 63.268 111.916 63.044 111.74 62.892C111.572 62.74 111.284 62.632 110.876 62.568L110 62.424C109.248 62.296 108.704 62.02 108.368 61.596C108.032 61.164 107.864 60.64 107.864 60.024C107.864 59.216 108.128 58.592 108.656 58.152C109.184 57.704 109.924 57.48 110.876 57.48C111.524 57.48 112.088 57.58 112.568 57.78C113.048 57.98 113.436 58.252 113.732 58.596L112.712 59.736C112.488 59.488 112.224 59.296 111.92 59.16C111.616 59.016 111.272 58.944 110.888 58.944C110.08 58.944 109.676 59.276 109.676 59.94C109.676 60.228 109.764 60.444 109.94 60.588C110.124 60.732 110.42 60.84 110.828 60.912L111.704 61.068C112.384 61.188 112.908 61.444 113.276 61.836C113.644 62.228 113.828 62.756 113.828 63.42C113.828 63.812 113.76 64.176 113.624 64.512C113.488 64.84 113.284 65.128 113.012 65.376C112.74 65.616 112.404 65.804 112.004 65.94C111.612 66.076 111.152 66.144 110.624 66.144ZM118.852 59.1V66H117.052V59.1H114.64V57.624H121.264V59.1H118.852ZM124.235 66H122.459V57.624H125.699C126.107 57.624 126.471 57.688 126.791 57.816C127.111 57.936 127.379 58.112 127.595 58.344C127.819 58.576 127.987 58.856 128.099 59.184C128.211 59.512 128.267 59.88 128.267 60.288C128.267 60.88 128.139 61.388 127.883 61.812C127.627 62.236 127.263 62.516 126.791 62.652L128.435 66H126.467L125.063 62.892H124.235V66ZM125.267 61.5C125.691 61.5 125.983 61.42 126.143 61.26C126.311 61.1 126.395 60.836 126.395 60.468V60.108C126.395 59.74 126.311 59.476 126.143 59.316C125.983 59.156 125.691 59.076 125.267 59.076H124.235V61.5H125.267ZM129.702 66V57.624H135.054V59.1H131.502V61.02H134.934V62.496H131.502V64.524H135.054V66H129.702ZM138.338 60.432H138.206V66H136.67V57.624H138.83L140.738 63.192H140.87V57.624H142.406V66H140.246L138.338 60.432ZM148.065 64.812H147.957C147.885 64.988 147.797 65.156 147.693 65.316C147.589 65.476 147.461 65.62 147.309 65.748C147.157 65.868 146.977 65.964 146.769 66.036C146.569 66.108 146.341 66.144 146.085 66.144C145.677 66.144 145.313 66.048 144.993 65.856C144.681 65.664 144.417 65.384 144.201 65.016C143.985 64.648 143.821 64.2 143.709 63.672C143.605 63.144 143.553 62.548 143.553 61.884C143.553 60.46 143.813 59.372 144.333 58.62C144.853 57.86 145.657 57.48 146.745 57.48C147.177 57.48 147.557 57.54 147.885 57.66C148.213 57.772 148.493 57.936 148.725 58.152C148.965 58.36 149.161 58.612 149.313 58.908C149.465 59.204 149.585 59.532 149.673 59.892L147.993 60.3C147.945 60.124 147.889 59.956 147.825 59.796C147.769 59.628 147.693 59.48 147.597 59.352C147.501 59.224 147.381 59.124 147.237 59.052C147.093 58.972 146.917 58.932 146.709 58.932C146.253 58.932 145.929 59.12 145.737 59.496C145.553 59.872 145.461 60.4 145.461 61.08V62.448C145.461 63.128 145.561 63.672 145.761 64.08C145.969 64.488 146.333 64.692 146.853 64.692C147.261 64.692 147.565 64.572 147.765 64.332C147.965 64.092 148.065 63.784 148.065 63.408V62.796H146.637V61.524H149.673V66H148.065V64.812ZM154.828 59.1V66H153.028V59.1H150.616V57.624H157.24V59.1H154.828ZM162.179 62.496H160.067V66H158.255V57.624H160.067V61.02H162.179V57.624H163.991V66H162.179V62.496ZM165.679 66V57.624H171.031V59.1H167.479V61.02H170.911V62.496H167.479V64.524H171.031V66H165.679ZM174.314 60.432H174.182V66H172.646V57.624H174.806L176.714 63.192H176.846V57.624H178.382V66H176.222L174.314 60.432ZM180.009 66V64.668H181.809V58.956H180.009V57.624H185.409V58.956H183.609V64.668H185.409V66H180.009ZM188.705 60.432H188.573V66H187.037V57.624H189.197L191.105 63.192H191.237V57.624H192.773V66H190.613L188.705 60.432ZM198.432 64.812H198.324C198.252 64.988 198.164 65.156 198.06 65.316C197.956 65.476 197.828 65.62 197.676 65.748C197.524 65.868 197.344 65.964 197.136 66.036C196.936 66.108 196.708 66.144 196.452 66.144C196.044 66.144 195.68 66.048 195.36 65.856C195.048 65.664 194.784 65.384 194.568 65.016C194.352 64.648 194.188 64.2 194.076 63.672C193.972 63.144 193.92 62.548 193.92 61.884C193.92 60.46 194.18 59.372 194.7 58.62C195.22 57.86 196.024 57.48 197.112 57.48C197.544 57.48 197.924 57.54 198.252 57.66C198.58 57.772 198.86 57.936 199.092 58.152C199.332 58.36 199.528 58.612 199.68 58.908C199.832 59.204 199.952 59.532 200.04 59.892L198.36 60.3C198.312 60.124 198.256 59.956 198.192 59.796C198.136 59.628 198.06 59.48 197.964 59.352C197.868 59.224 197.748 59.124 197.604 59.052C197.46 58.972 197.284 58.932 197.076 58.932C196.62 58.932 196.296 59.12 196.104 59.496C195.92 59.872 195.828 60.4 195.828 61.08V62.448C195.828 63.128 195.928 63.672 196.128 64.08C196.336 64.488 196.7 64.692 197.22 64.692C197.628 64.692 197.932 64.572 198.132 64.332C198.332 64.092 198.432 63.784 198.432 63.408V62.796H197.004V61.524H200.04V66H198.432V64.812ZM208.815 57.624H211.755C212.579 57.624 213.207 57.824 213.639 58.224C214.079 58.624 214.299 59.168 214.299 59.856C214.299 60.336 214.179 60.72 213.939 61.008C213.707 61.288 213.371 61.492 212.931 61.62V61.692C213.451 61.82 213.851 62.044 214.131 62.364C214.419 62.684 214.563 63.128 214.563 63.696C214.563 64.4 214.339 64.96 213.891 65.376C213.451 65.792 212.831 66 212.031 66H208.815V57.624ZM211.479 64.74C211.911 64.74 212.227 64.668 212.427 64.524C212.627 64.38 212.727 64.116 212.727 63.732V63.384C212.727 63 212.627 62.736 212.427 62.592C212.227 62.448 211.911 62.376 211.479 62.376H210.567V64.74H211.479ZM211.251 61.176C211.675 61.176 211.983 61.108 212.175 60.972C212.367 60.828 212.463 60.572 212.463 60.204V59.844C212.463 59.476 212.367 59.224 212.175 59.088C211.983 58.952 211.675 58.884 211.251 58.884H210.567V61.176H211.251ZM217.546 57.624V62.928C217.546 63.192 217.554 63.436 217.57 63.66C217.594 63.876 217.642 64.06 217.714 64.212C217.794 64.364 217.91 64.484 218.062 64.572C218.214 64.652 218.422 64.692 218.686 64.692C218.95 64.692 219.158 64.652 219.31 64.572C219.462 64.484 219.574 64.364 219.646 64.212C219.726 64.06 219.774 63.876 219.79 63.66C219.814 63.436 219.826 63.192 219.826 62.928V57.624H221.626V62.688C221.626 63.264 221.586 63.768 221.506 64.2C221.434 64.632 221.29 64.992 221.074 65.28C220.858 65.568 220.558 65.784 220.174 65.928C219.79 66.072 219.294 66.144 218.686 66.144C218.078 66.144 217.582 66.072 217.198 65.928C216.814 65.784 216.514 65.568 216.298 65.28C216.082 64.992 215.934 64.632 215.854 64.2C215.782 63.768 215.746 63.264 215.746 62.688V57.624H217.546ZM225.749 66.144C225.045 66.144 224.433 66.028 223.913 65.796C223.393 65.564 222.973 65.248 222.653 64.848L223.697 63.696C224.001 64.032 224.333 64.28 224.693 64.44C225.061 64.6 225.433 64.68 225.809 64.68C226.241 64.68 226.569 64.584 226.793 64.392C227.017 64.2 227.129 63.924 227.129 63.564C227.129 63.268 227.041 63.044 226.865 62.892C226.697 62.74 226.409 62.632 226.001 62.568L225.125 62.424C224.373 62.296 223.829 62.02 223.493 61.596C223.157 61.164 222.989 60.64 222.989 60.024C222.989 59.216 223.253 58.592 223.781 58.152C224.309 57.704 225.049 57.48 226.001 57.48C226.649 57.48 227.213 57.58 227.693 57.78C228.173 57.98 228.561 58.252 228.857 58.596L227.837 59.736C227.613 59.488 227.349 59.296 227.045 59.16C226.741 59.016 226.397 58.944 226.013 58.944C225.205 58.944 224.801 59.276 224.801 59.94C224.801 60.228 224.889 60.444 225.065 60.588C225.249 60.732 225.545 60.84 225.953 60.912L226.829 61.068C227.509 61.188 228.033 61.444 228.401 61.836C228.769 62.228 228.953 62.756 228.953 63.42C228.953 63.812 228.885 64.176 228.749 64.512C228.613 64.84 228.409 65.128 228.137 65.376C227.865 65.616 227.529 65.804 227.129 65.94C226.737 66.076 226.277 66.144 225.749 66.144ZM230.377 66V64.668H232.177V58.956H230.377V57.624H235.777V58.956H233.977V64.668H235.777V66H230.377ZM239.072 60.432H238.94V66H237.404V57.624H239.564L241.472 63.192H241.604V57.624H243.14V66H240.98L239.072 60.432ZM244.827 66V57.624H250.179V59.1H246.627V61.02H250.059V62.496H246.627V64.524H250.179V66H244.827ZM254.531 66.144C253.827 66.144 253.215 66.028 252.695 65.796C252.175 65.564 251.755 65.248 251.435 64.848L252.479 63.696C252.783 64.032 253.115 64.28 253.475 64.44C253.843 64.6 254.215 64.68 254.59 64.68C255.023 64.68 255.351 64.584 255.575 64.392C255.799 64.2 255.911 63.924 255.911 63.564C255.911 63.268 255.823 63.044 255.647 62.892C255.479 62.74 255.191 62.632 254.783 62.568L253.907 62.424C253.155 62.296 252.611 62.02 252.275 61.596C251.939 61.164 251.771 60.64 251.771 60.024C251.771 59.216 252.035 58.592 252.562 58.152C253.091 57.704 253.831 57.48 254.783 57.48C255.431 57.48 255.995 57.58 256.475 57.78C256.955 57.98 257.343 58.252 257.639 58.596L256.619 59.736C256.395 59.488 256.131 59.296 255.827 59.16C255.523 59.016 255.179 58.944 254.795 58.944C253.987 58.944 253.583 59.276 253.583 59.94C253.583 60.228 253.671 60.444 253.847 60.588C254.031 60.732 254.327 60.84 254.735 60.912L255.611 61.068C256.291 61.188 256.815 61.444 257.183 61.836C257.551 62.228 257.735 62.756 257.735 63.42C257.735 63.812 257.667 64.176 257.531 64.512C257.395 64.84 257.191 65.128 256.919 65.376C256.647 65.616 256.311 65.804 255.911 65.94C255.519 66.076 255.059 66.144 254.531 66.144ZM261.726 66.144C261.022 66.144 260.41 66.028 259.89 65.796C259.37 65.564 258.95 65.248 258.63 64.848L259.674 63.696C259.978 64.032 260.31 64.28 260.67 64.44C261.038 64.6 261.41 64.68 261.786 64.68C262.218 64.68 262.546 64.584 262.77 64.392C262.994 64.2 263.106 63.924 263.106 63.564C263.106 63.268 263.018 63.044 262.842 62.892C262.674 62.74 262.386 62.632 261.978 62.568L261.102 62.424C260.35 62.296 259.806 62.02 259.47 61.596C259.134 61.164 258.966 60.64 258.966 60.024C258.966 59.216 259.23 58.592 259.758 58.152C260.286 57.704 261.026 57.48 261.978 57.48C262.626 57.48 263.19 57.58 263.67 57.78C264.15 57.98 264.538 58.252 264.834 58.596L263.814 59.736C263.59 59.488 263.326 59.296 263.022 59.16C262.718 59.016 262.374 58.944 261.99 58.944C261.182 58.944 260.778 59.276 260.778 59.94C260.778 60.228 260.866 60.444 261.042 60.588C261.226 60.732 261.522 60.84 261.93 60.912L262.806 61.068C263.486 61.188 264.01 61.444 264.378 61.836C264.746 62.228 264.93 62.756 264.93 63.42C264.93 63.812 264.862 64.176 264.726 64.512C264.59 64.84 264.386 65.128 264.114 65.376C263.842 65.616 263.506 65.804 263.106 65.94C262.714 66.076 262.254 66.144 261.726 66.144ZM266.413 66V57.624H271.765V59.1H268.213V61.02H271.645V62.496H268.213V64.524H271.765V66H266.413ZM276.116 66.144C275.412 66.144 274.8 66.028 274.28 65.796C273.76 65.564 273.34 65.248 273.02 64.848L274.064 63.696C274.368 64.032 274.7 64.28 275.06 64.44C275.428 64.6 275.8 64.68 276.176 64.68C276.608 64.68 276.936 64.584 277.16 64.392C277.384 64.2 277.496 63.924 277.496 63.564C277.496 63.268 277.408 63.044 277.232 62.892C277.064 62.74 276.776 62.632 276.368 62.568L275.492 62.424C274.74 62.296 274.196 62.02 273.86 61.596C273.524 61.164 273.356 60.64 273.356 60.024C273.356 59.216 273.62 58.592 274.148 58.152C274.676 57.704 275.416 57.48 276.368 57.48C277.016 57.48 277.58 57.58 278.06 57.78C278.54 57.98 278.928 58.252 279.224 58.596L278.204 59.736C277.98 59.488 277.716 59.296 277.412 59.16C277.108 59.016 276.764 58.944 276.38 58.944C275.572 58.944 275.168 59.276 275.168 59.94C275.168 60.228 275.256 60.444 275.432 60.588C275.616 60.732 275.912 60.84 276.32 60.912L277.196 61.068C277.876 61.188 278.4 61.444 278.768 61.836C279.136 62.228 279.32 62.756 279.32 63.42C279.32 63.812 279.252 64.176 279.116 64.512C278.98 64.84 278.776 65.128 278.504 65.376C278.232 65.616 277.896 65.804 277.496 65.94C277.104 66.076 276.644 66.144 276.116 66.144Z" fill="#0E2440"/>
</svg>
