<svg width="706" height="540" viewBox="0 0 706 540" fill="none" xmlns="http://www.w3.org/2000/svg">
<rect x="684" y="167" width="537" height="145" rx="9" transform="rotate(-180 684 167)" fill="white"/>
<rect x="476.5" y="148.5" width="304" height="49" rx="8.5" transform="rotate(-180 476.5 148.5)" fill="#F8F8F8" stroke="#E4E4E4"/>
<path d="M222.419 122.476H221.366C221.012 122.476 220.751 122.377 220.583 122.179C220.421 121.981 220.34 121.726 220.34 121.414V121.081C220.022 121.039 219.746 120.937 219.512 120.775C219.284 120.607 219.095 120.388 218.945 120.118C218.795 119.842 218.684 119.515 218.612 119.137C218.54 118.753 218.504 118.327 218.504 117.859C218.504 117.349 218.546 116.893 218.63 116.491C218.714 116.083 218.846 115.741 219.026 115.465C219.206 115.189 219.434 114.979 219.71 114.835C219.986 114.685 220.316 114.61 220.7 114.61C221.084 114.61 221.414 114.685 221.69 114.835C221.966 114.979 222.194 115.189 222.374 115.465C222.554 115.741 222.686 116.083 222.77 116.491C222.854 116.893 222.896 117.349 222.896 117.859C222.896 118.801 222.749 119.554 222.455 120.118C222.161 120.676 221.696 120.997 221.06 121.081V121.864H222.419V122.476ZM220.7 120.451C220.952 120.451 221.165 120.403 221.339 120.307C221.513 120.205 221.657 120.064 221.771 119.884C221.885 119.704 221.966 119.488 222.014 119.236C222.068 118.978 222.095 118.69 222.095 118.372V117.346C222.095 117.034 222.068 116.749 222.014 116.491C221.966 116.233 221.885 116.014 221.771 115.834C221.657 115.654 221.513 115.516 221.339 115.42C221.165 115.318 220.952 115.267 220.7 115.267C220.448 115.267 220.235 115.318 220.061 115.42C219.887 115.516 219.743 115.654 219.629 115.834C219.515 116.014 219.431 116.233 219.377 116.491C219.329 116.749 219.305 117.034 219.305 117.346V118.372C219.305 118.69 219.329 118.978 219.377 119.236C219.431 119.488 219.515 119.704 219.629 119.884C219.743 120.064 219.887 120.205 220.061 120.307C220.235 120.403 220.448 120.451 220.7 120.451ZM228.229 121H224.035V120.226L226.132 118.336C226.438 118.06 226.69 117.778 226.888 117.49C227.086 117.196 227.185 116.887 227.185 116.563V116.455C227.185 116.077 227.086 115.786 226.888 115.582C226.69 115.372 226.396 115.267 226.006 115.267C225.622 115.267 225.325 115.366 225.115 115.564C224.911 115.756 224.758 116.014 224.656 116.338L223.981 116.086C224.041 115.9 224.122 115.72 224.224 115.546C224.332 115.366 224.467 115.207 224.629 115.069C224.791 114.931 224.986 114.82 225.214 114.736C225.448 114.652 225.718 114.61 226.024 114.61C226.336 114.61 226.612 114.655 226.852 114.745C227.098 114.835 227.302 114.961 227.464 115.123C227.632 115.285 227.758 115.477 227.842 115.699C227.932 115.921 227.977 116.164 227.977 116.428C227.977 116.668 227.941 116.893 227.869 117.103C227.803 117.313 227.707 117.514 227.581 117.706C227.461 117.898 227.314 118.087 227.14 118.273C226.972 118.453 226.783 118.633 226.573 118.813L224.818 120.343H228.229V121ZM229.333 122.521V121.855H233.653V122.521H229.333ZM234.981 114.718H237.114C237.654 114.718 238.077 114.865 238.383 115.159C238.689 115.453 238.842 115.846 238.842 116.338C238.842 116.716 238.749 117.013 238.563 117.229C238.383 117.445 238.149 117.598 237.861 117.688V117.715C238.215 117.799 238.506 117.958 238.734 118.192C238.962 118.42 239.076 118.753 239.076 119.191C239.076 119.443 239.034 119.68 238.95 119.902C238.866 120.124 238.746 120.316 238.59 120.478C238.44 120.64 238.26 120.769 238.05 120.865C237.846 120.955 237.624 121 237.384 121H234.981V114.718ZM237.159 120.343C237.507 120.343 237.78 120.265 237.978 120.109C238.176 119.953 238.275 119.713 238.275 119.389V119.02C238.275 118.702 238.176 118.465 237.978 118.309C237.78 118.147 237.507 118.066 237.159 118.066H235.737V120.343H237.159ZM237.033 117.445C237.351 117.445 237.6 117.376 237.78 117.238C237.96 117.094 238.05 116.878 238.05 116.59V116.239C238.05 115.951 237.96 115.735 237.78 115.591C237.6 115.447 237.351 115.375 237.033 115.375H235.737V117.445H237.033ZM243.915 121L243.384 119.209H241.179L240.648 121H239.865L241.791 114.718H242.79L244.716 121H243.915ZM242.322 115.519H242.241L241.359 118.552H243.204L242.322 115.519ZM246.449 115.708H246.386V121H245.702V114.718H246.773L248.915 120.01H248.978V114.718H249.662V121H248.591L246.449 115.708ZM252.8 117.922L251.9 118.984V121H251.144V114.718H251.9V117.994H251.927L252.755 116.95L254.609 114.718H255.518L253.313 117.364L255.581 121H254.699L252.8 117.922ZM256.531 121V120.397H258.097V115.321H256.531V114.718H260.419V115.321H258.853V120.397H260.419V121H256.531ZM262.639 115.708H262.576V121H261.892V114.718H262.963L265.105 120.01H265.168V114.718H265.852V121H264.781L262.639 115.708ZM270.564 120.163H270.519C270.465 120.283 270.402 120.4 270.33 120.514C270.258 120.628 270.165 120.73 270.051 120.82C269.943 120.904 269.811 120.973 269.655 121.027C269.499 121.081 269.313 121.108 269.097 121.108C268.413 121.108 267.903 120.832 267.567 120.28C267.237 119.728 267.072 118.936 267.072 117.904C267.072 116.824 267.255 116.005 267.621 115.447C267.987 114.889 268.551 114.61 269.313 114.61C269.607 114.61 269.862 114.649 270.078 114.727C270.294 114.805 270.477 114.91 270.627 115.042C270.783 115.174 270.912 115.324 271.014 115.492C271.116 115.654 271.2 115.819 271.266 115.987L270.618 116.284C270.564 116.146 270.501 116.017 270.429 115.897C270.363 115.771 270.279 115.663 270.177 115.573C270.081 115.477 269.964 115.402 269.826 115.348C269.688 115.294 269.526 115.267 269.34 115.267C268.836 115.267 268.464 115.456 268.224 115.834C267.99 116.212 267.873 116.716 267.873 117.346V118.318C267.873 118.636 267.897 118.927 267.945 119.191C267.993 119.449 268.071 119.674 268.179 119.866C268.293 120.058 268.437 120.208 268.611 120.316C268.791 120.418 269.01 120.469 269.268 120.469C269.676 120.469 269.994 120.346 270.222 120.1C270.45 119.854 270.564 119.536 270.564 119.146V118.498H269.241V117.895H271.266V121H270.564V120.163ZM272.505 122.521V121.855H276.825V122.521H272.505ZM278.171 121V114.718H282.131V115.375H278.927V117.49H281.861V118.147H278.927V121H278.171ZM283.514 121V120.397H285.08V115.321H283.514V114.718H287.402V115.321H285.836V120.397H287.402V121H283.514ZM289.621 115.708H289.558V121H288.874V114.718H289.945L292.087 120.01H292.15V114.718H292.834V121H291.763L289.621 115.708ZM297.88 121L297.349 119.209H295.144L294.613 121H293.83L295.756 114.718H296.755L298.681 121H297.88ZM296.287 115.519H296.206L295.324 118.552H297.169L296.287 115.519ZM300.414 115.708H300.351V121H299.667V114.718H300.738L302.88 120.01H302.943V114.718H303.627V121H302.556L300.414 115.708ZM307.251 121.108C306.483 121.108 305.91 120.829 305.532 120.271C305.16 119.713 304.974 118.909 304.974 117.859C304.974 116.809 305.16 116.005 305.532 115.447C305.91 114.889 306.483 114.61 307.251 114.61C307.539 114.61 307.788 114.649 307.998 114.727C308.208 114.805 308.388 114.91 308.538 115.042C308.688 115.174 308.814 115.324 308.916 115.492C309.018 115.654 309.108 115.819 309.186 115.987L308.538 116.284C308.484 116.146 308.421 116.017 308.349 115.897C308.277 115.771 308.19 115.663 308.088 115.573C307.992 115.477 307.875 115.402 307.737 115.348C307.605 115.294 307.443 115.267 307.251 115.267C306.753 115.267 306.381 115.456 306.135 115.834C305.895 116.212 305.775 116.716 305.775 117.346V118.372C305.775 119.002 305.895 119.506 306.135 119.884C306.381 120.262 306.753 120.451 307.251 120.451C307.443 120.451 307.605 120.424 307.737 120.37C307.875 120.316 307.992 120.244 308.088 120.154C308.19 120.058 308.277 119.95 308.349 119.83C308.421 119.704 308.484 119.572 308.538 119.434L309.186 119.731C309.108 119.905 309.018 120.073 308.916 120.235C308.814 120.397 308.688 120.544 308.538 120.676C308.388 120.808 308.208 120.913 307.998 120.991C307.788 121.069 307.539 121.108 307.251 121.108ZM310.496 121V120.397H312.062V115.321H310.496V114.718H314.384V115.321H312.818V120.397H314.384V121H310.496ZM319.466 121L318.935 119.209H316.73L316.199 121H315.416L317.342 114.718H318.341L320.267 121H319.466ZM317.873 115.519H317.792L316.91 118.552H318.755L317.873 115.519ZM321.613 121V114.718H322.369V120.343H325.348V121H321.613ZM328.612 121.108C328.048 121.108 327.586 121.006 327.226 120.802C326.866 120.592 326.569 120.325 326.335 120.001L326.884 119.551C327.13 119.857 327.388 120.085 327.658 120.235C327.934 120.385 328.261 120.46 328.639 120.46C329.095 120.46 329.443 120.355 329.683 120.145C329.923 119.935 330.043 119.641 330.043 119.263C330.043 118.957 329.956 118.72 329.782 118.552C329.608 118.378 329.305 118.255 328.873 118.183L328.171 118.066C327.865 118.012 327.607 117.931 327.397 117.823C327.193 117.715 327.028 117.586 326.902 117.436C326.776 117.28 326.686 117.112 326.632 116.932C326.578 116.746 326.551 116.554 326.551 116.356C326.551 115.78 326.74 115.345 327.118 115.051C327.496 114.757 328.006 114.61 328.648 114.61C329.152 114.61 329.575 114.694 329.917 114.862C330.265 115.03 330.544 115.267 330.754 115.573L330.223 116.032C330.049 115.804 329.839 115.618 329.593 115.474C329.347 115.33 329.029 115.258 328.639 115.258C328.213 115.258 327.886 115.348 327.658 115.528C327.43 115.708 327.316 115.978 327.316 116.338C327.316 116.62 327.4 116.851 327.568 117.031C327.742 117.205 328.051 117.331 328.495 117.409L329.17 117.526C329.476 117.58 329.734 117.661 329.944 117.769C330.154 117.877 330.322 118.006 330.448 118.156C330.58 118.306 330.673 118.474 330.727 118.66C330.781 118.846 330.808 119.041 330.808 119.245C330.808 119.827 330.616 120.283 330.232 120.613C329.854 120.943 329.314 121.108 328.612 121.108Z" fill="black"/>
<path d="M218.81 134V127.718H221.096C221.678 127.718 222.122 127.877 222.428 128.195C222.734 128.513 222.887 128.957 222.887 129.527C222.887 130.097 222.734 130.541 222.428 130.859C222.122 131.177 221.678 131.336 221.096 131.336H219.566V134H218.81ZM219.566 130.679H221.078C221.396 130.679 221.642 130.601 221.816 130.445C221.996 130.283 222.086 130.055 222.086 129.761V129.293C222.086 128.999 221.996 128.774 221.816 128.618C221.642 128.456 221.396 128.375 221.078 128.375H219.566V130.679ZM224.251 127.718H226.006C226.774 127.718 227.347 127.982 227.725 128.51C228.103 129.038 228.292 129.821 228.292 130.859C228.292 131.897 228.103 132.68 227.725 133.208C227.347 133.736 226.774 134 226.006 134H224.251V127.718ZM225.97 133.343C226.474 133.343 226.852 133.169 227.104 132.821C227.362 132.473 227.491 131.981 227.491 131.345V130.373C227.491 129.737 227.362 129.245 227.104 128.897C226.852 128.549 226.474 128.375 225.97 128.375H225.007V133.343H225.97ZM229.603 134V127.718H233.563V128.375H230.359V130.49H233.293V131.147H230.359V134H229.603ZM236.889 132.326C236.487 132.326 236.202 132.236 236.034 132.056C235.872 131.876 235.791 131.654 235.791 131.39V131.138C235.791 130.874 235.872 130.652 236.034 130.472C236.202 130.292 236.487 130.202 236.889 130.202C237.291 130.202 237.573 130.292 237.735 130.472C237.903 130.652 237.987 130.874 237.987 131.138V131.39C237.987 131.654 237.903 131.876 237.735 132.056C237.573 132.236 237.291 132.326 236.889 132.326ZM244.419 134H240.225V133.226L242.322 131.336C242.628 131.06 242.88 130.778 243.078 130.49C243.276 130.196 243.375 129.887 243.375 129.563V129.455C243.375 129.077 243.276 128.786 243.078 128.582C242.88 128.372 242.586 128.267 242.196 128.267C241.812 128.267 241.515 128.366 241.305 128.564C241.101 128.756 240.948 129.014 240.846 129.338L240.171 129.086C240.231 128.9 240.312 128.72 240.414 128.546C240.522 128.366 240.657 128.207 240.819 128.069C240.981 127.931 241.176 127.82 241.404 127.736C241.638 127.652 241.908 127.61 242.214 127.61C242.526 127.61 242.802 127.655 243.042 127.745C243.288 127.835 243.492 127.961 243.654 128.123C243.822 128.285 243.948 128.477 244.032 128.699C244.122 128.921 244.167 129.164 244.167 129.428C244.167 129.668 244.131 129.893 244.059 130.103C243.993 130.313 243.897 130.514 243.771 130.706C243.651 130.898 243.504 131.087 243.33 131.273C243.162 131.453 242.973 131.633 242.763 131.813L241.008 133.343H244.419V134ZM248.384 134V132.767H245.288V132.101L248.006 127.718H249.104V132.146H250.04V132.767H249.104V134H248.384ZM245.963 132.146H248.384V128.303H248.348L245.963 132.146ZM254.888 128.375H252.08L251.9 130.778H251.963C252.119 130.568 252.293 130.403 252.485 130.283C252.677 130.157 252.941 130.094 253.277 130.094C253.553 130.094 253.805 130.139 254.033 130.229C254.267 130.313 254.468 130.439 254.636 130.607C254.804 130.775 254.936 130.979 255.032 131.219C255.128 131.453 255.176 131.723 255.176 132.029C255.176 132.335 255.128 132.617 255.032 132.875C254.936 133.127 254.795 133.346 254.609 133.532C254.423 133.712 254.198 133.853 253.934 133.955C253.67 134.057 253.37 134.108 253.034 134.108C252.77 134.108 252.533 134.078 252.323 134.018C252.119 133.958 251.936 133.877 251.774 133.775C251.618 133.673 251.48 133.559 251.36 133.433C251.24 133.307 251.132 133.175 251.036 133.037L251.603 132.605C251.687 132.731 251.771 132.845 251.855 132.947C251.945 133.049 252.047 133.139 252.161 133.217C252.275 133.289 252.404 133.346 252.548 133.388C252.692 133.43 252.86 133.451 253.052 133.451C253.484 133.451 253.814 133.334 254.042 133.1C254.276 132.866 254.393 132.542 254.393 132.128V132.056C254.393 131.642 254.276 131.318 254.042 131.084C253.808 130.85 253.472 130.733 253.034 130.733C252.734 130.733 252.5 130.784 252.332 130.886C252.17 130.988 252.02 131.114 251.882 131.264L251.243 131.174L251.468 127.718H254.888V128.375ZM258.196 130.922L257.296 131.984V134H256.54V127.718H257.296V130.994H257.323L258.151 129.95L260.005 127.718H260.914L258.709 130.364L260.977 134H260.095L258.196 130.922ZM261.964 127.718H264.097C264.637 127.718 265.06 127.865 265.366 128.159C265.672 128.453 265.825 128.846 265.825 129.338C265.825 129.716 265.732 130.013 265.546 130.229C265.366 130.445 265.132 130.598 264.844 130.688V130.715C265.198 130.799 265.489 130.958 265.717 131.192C265.945 131.42 266.059 131.753 266.059 132.191C266.059 132.443 266.017 132.68 265.933 132.902C265.849 133.124 265.729 133.316 265.573 133.478C265.423 133.64 265.243 133.769 265.033 133.865C264.829 133.955 264.607 134 264.367 134H261.964V127.718ZM264.142 133.343C264.49 133.343 264.763 133.265 264.961 133.109C265.159 132.953 265.258 132.713 265.258 132.389V132.02C265.258 131.702 265.159 131.465 264.961 131.309C264.763 131.147 264.49 131.066 264.142 131.066H262.72V133.343H264.142ZM264.016 130.445C264.334 130.445 264.583 130.376 264.763 130.238C264.943 130.094 265.033 129.878 265.033 129.59V129.239C265.033 128.951 264.943 128.735 264.763 128.591C264.583 128.447 264.334 128.375 264.016 128.375H262.72V130.445H264.016Z" fill="black" fill-opacity="0.5"/>
<rect x="183" y="110" width="27" height="27" rx="3" fill="#E7E7E7"/>
<path d="M197.583 116V119.75C197.583 120.268 198.068 120.687 198.667 120.687H203M197.769 116H192.167C190.97 116 190 116.839 190 117.875V129.125C190 130.161 190.97 131 192.167 131H200.833C202.03 131 203 130.161 203 129.125V120.527C203 120.029 202.772 119.552 202.365 119.201L199.301 116.549C198.895 116.198 198.344 116 197.769 116Z" stroke="#575757" stroke-width="0.7"/>
<path d="M175.224 46.4H178.95C180.246 46.4 181.368 46.664 182.316 47.192C183.276 47.708 184.008 48.44 184.512 49.388C185.028 50.336 185.286 51.44 185.286 52.7C185.286 53.948 185.028 55.052 184.512 56.012C184.008 56.96 183.276 57.698 182.316 58.226C181.368 58.742 180.246 59 178.95 59H175.224V46.4ZM178.95 57.56C180.45 57.56 181.614 57.122 182.442 56.246C183.27 55.37 183.684 54.188 183.684 52.7C183.684 51.2 183.27 50.018 182.442 49.154C181.626 48.278 180.462 47.84 178.95 47.84H176.79V57.56H178.95ZM191.711 49.82V51.26H190.973C190.097 51.26 189.467 51.554 189.083 52.142C188.711 52.73 188.525 53.456 188.525 54.32V59H187.049V49.82H188.327L188.525 51.206C188.789 50.786 189.131 50.45 189.551 50.198C189.971 49.946 190.553 49.82 191.297 49.82H191.711ZM201.207 57.65V59H200.397C199.809 59 199.389 58.88 199.137 58.64C198.885 58.4 198.753 58.046 198.741 57.578C198.033 58.598 197.007 59.108 195.663 59.108C194.643 59.108 193.821 58.868 193.197 58.388C192.585 57.908 192.279 57.254 192.279 56.426C192.279 55.502 192.591 54.794 193.215 54.302C193.851 53.81 194.769 53.564 195.969 53.564H198.669V52.934C198.669 52.334 198.465 51.866 198.057 51.53C197.661 51.194 197.103 51.026 196.383 51.026C195.747 51.026 195.219 51.17 194.799 51.458C194.391 51.734 194.139 52.106 194.043 52.574H192.567C192.675 51.674 193.071 50.972 193.755 50.468C194.451 49.964 195.351 49.712 196.455 49.712C197.631 49.712 198.537 50 199.173 50.576C199.821 51.14 200.145 51.956 200.145 53.024V56.984C200.145 57.428 200.349 57.65 200.757 57.65H201.207ZM198.669 54.806H195.825C194.457 54.806 193.773 55.316 193.773 56.336C193.773 56.792 193.953 57.158 194.313 57.434C194.673 57.71 195.159 57.848 195.771 57.848C196.671 57.848 197.379 57.614 197.895 57.146C198.411 56.666 198.669 56.036 198.669 55.256V54.806ZM202.954 49.82V48.794C202.954 47.978 203.14 47.378 203.512 46.994C203.896 46.598 204.508 46.4 205.348 46.4H207.04V47.75H205.438C205.078 47.75 204.82 47.828 204.664 47.984C204.508 48.14 204.43 48.398 204.43 48.758V49.82H207.022V51.17H204.43V59H202.954V51.17H201.298V49.82H202.954ZM208.02 47.246H209.496V49.82H211.818V51.17H209.496V56.588C209.496 56.972 209.568 57.248 209.712 57.416C209.868 57.572 210.132 57.65 210.504 57.65H212.106V59H210.414C209.55 59 208.932 58.808 208.56 58.424C208.2 58.04 208.02 57.434 208.02 56.606V47.246ZM226.449 57.65V59H225.639C225.051 59 224.631 58.88 224.379 58.64C224.127 58.4 223.995 58.046 223.983 57.578C223.275 58.598 222.249 59.108 220.905 59.108C219.885 59.108 219.063 58.868 218.439 58.388C217.827 57.908 217.521 57.254 217.521 56.426C217.521 55.502 217.833 54.794 218.457 54.302C219.093 53.81 220.011 53.564 221.211 53.564H223.911V52.934C223.911 52.334 223.707 51.866 223.299 51.53C222.903 51.194 222.345 51.026 221.625 51.026C220.989 51.026 220.461 51.17 220.041 51.458C219.633 51.734 219.381 52.106 219.285 52.574H217.809C217.917 51.674 218.313 50.972 218.997 50.468C219.693 49.964 220.593 49.712 221.697 49.712C222.873 49.712 223.779 50 224.415 50.576C225.063 51.14 225.387 51.956 225.387 53.024V56.984C225.387 57.428 225.591 57.65 225.999 57.65H226.449ZM223.911 54.806H221.067C219.699 54.806 219.015 55.316 219.015 56.336C219.015 56.792 219.195 57.158 219.555 57.434C219.915 57.71 220.401 57.848 221.013 57.848C221.913 57.848 222.621 57.614 223.137 57.146C223.653 56.666 223.911 56.036 223.911 55.256V54.806ZM240.485 55.832C240.293 56.852 239.843 57.656 239.135 58.244C238.427 58.82 237.527 59.108 236.435 59.108C235.547 59.108 234.767 58.91 234.095 58.514C233.423 58.118 232.901 57.566 232.529 56.858C232.157 56.138 231.971 55.316 231.971 54.392C231.971 53.468 232.157 52.652 232.529 51.944C232.913 51.236 233.447 50.69 234.131 50.306C234.815 49.91 235.601 49.712 236.489 49.712C237.569 49.712 238.457 50 239.153 50.576C239.861 51.152 240.305 51.944 240.485 52.952H238.991C238.847 52.364 238.547 51.896 238.091 51.548C237.635 51.2 237.083 51.026 236.435 51.026C235.559 51.026 234.845 51.338 234.293 51.962C233.753 52.586 233.483 53.396 233.483 54.392C233.483 55.4 233.753 56.222 234.293 56.858C234.845 57.482 235.559 57.794 236.435 57.794C237.107 57.794 237.671 57.62 238.127 57.272C238.583 56.924 238.877 56.444 239.009 55.832H240.485ZM242.192 46.4H243.668V59H242.192V46.4ZM245.366 54.41C245.366 53.474 245.546 52.652 245.906 51.944C246.278 51.236 246.794 50.69 247.454 50.306C248.114 49.91 248.87 49.712 249.722 49.712C250.562 49.712 251.306 49.886 251.954 50.234C252.602 50.582 253.112 51.086 253.484 51.746C253.856 52.406 254.054 53.18 254.078 54.068C254.078 54.2 254.066 54.41 254.042 54.698H246.914V54.824C246.938 55.724 247.214 56.444 247.742 56.984C248.27 57.524 248.96 57.794 249.812 57.794C250.472 57.794 251.03 57.632 251.486 57.308C251.954 56.972 252.266 56.51 252.422 55.922H253.916C253.736 56.858 253.286 57.626 252.566 58.226C251.846 58.814 250.964 59.108 249.92 59.108C249.008 59.108 248.21 58.916 247.526 58.532C246.842 58.136 246.308 57.584 245.924 56.876C245.552 56.156 245.366 55.334 245.366 54.41ZM252.548 53.474C252.476 52.694 252.182 52.088 251.666 51.656C251.162 51.224 250.52 51.008 249.74 51.008C249.044 51.008 248.432 51.236 247.904 51.692C247.376 52.148 247.076 52.742 247.004 53.474H252.548ZM264.348 57.65V59H263.538C262.95 59 262.53 58.88 262.278 58.64C262.026 58.4 261.894 58.046 261.882 57.578C261.174 58.598 260.148 59.108 258.804 59.108C257.784 59.108 256.962 58.868 256.338 58.388C255.726 57.908 255.42 57.254 255.42 56.426C255.42 55.502 255.732 54.794 256.356 54.302C256.992 53.81 257.91 53.564 259.11 53.564H261.81V52.934C261.81 52.334 261.606 51.866 261.198 51.53C260.802 51.194 260.244 51.026 259.524 51.026C258.888 51.026 258.36 51.17 257.94 51.458C257.532 51.734 257.28 52.106 257.184 52.574H255.708C255.816 51.674 256.212 50.972 256.896 50.468C257.592 49.964 258.492 49.712 259.596 49.712C260.772 49.712 261.678 50 262.314 50.576C262.962 51.14 263.286 51.956 263.286 53.024V56.984C263.286 57.428 263.49 57.65 263.898 57.65H264.348ZM261.81 54.806H258.966C257.598 54.806 256.914 55.316 256.914 56.336C256.914 56.792 257.094 57.158 257.454 57.434C257.814 57.71 258.3 57.848 258.912 57.848C259.812 57.848 260.52 57.614 261.036 57.146C261.552 56.666 261.81 56.036 261.81 55.256V54.806ZM270.145 49.82V51.26H269.407C268.531 51.26 267.901 51.554 267.517 52.142C267.145 52.73 266.959 53.456 266.959 54.32V59H265.483V49.82H266.761L266.959 51.206C267.223 50.786 267.565 50.45 267.985 50.198C268.405 49.946 268.987 49.82 269.731 49.82H270.145ZM277.357 55.976C277.381 56.528 277.621 56.978 278.077 57.326C278.545 57.674 279.145 57.848 279.877 57.848C280.525 57.848 281.047 57.722 281.443 57.47C281.851 57.206 282.055 56.864 282.055 56.444C282.055 56.084 281.959 55.808 281.767 55.616C281.575 55.424 281.323 55.292 281.011 55.22C280.711 55.148 280.279 55.076 279.715 55.004C278.923 54.908 278.275 54.782 277.771 54.626C277.267 54.47 276.859 54.224 276.547 53.888C276.235 53.54 276.079 53.066 276.079 52.466C276.079 51.926 276.229 51.446 276.529 51.026C276.841 50.606 277.261 50.282 277.789 50.054C278.317 49.814 278.911 49.694 279.571 49.694C280.651 49.694 281.527 49.946 282.199 50.45C282.883 50.954 283.261 51.674 283.333 52.61H281.857C281.797 52.13 281.563 51.734 281.155 51.422C280.747 51.11 280.237 50.954 279.625 50.954C279.001 50.954 278.497 51.086 278.113 51.35C277.729 51.602 277.537 51.938 277.537 52.358C277.537 52.67 277.627 52.91 277.807 53.078C277.987 53.246 278.215 53.36 278.491 53.42C278.779 53.48 279.211 53.546 279.787 53.618C280.591 53.714 281.251 53.846 281.767 54.014C282.295 54.182 282.715 54.452 283.027 54.824C283.351 55.196 283.513 55.7 283.513 56.336C283.513 56.888 283.351 57.374 283.027 57.794C282.703 58.214 282.265 58.538 281.713 58.766C281.161 58.994 280.549 59.108 279.877 59.108C278.677 59.108 277.711 58.832 276.979 58.28C276.259 57.728 275.893 56.96 275.881 55.976H277.357ZM293.09 49.82V59H291.812L291.614 57.776C290.918 58.664 289.94 59.108 288.68 59.108C287.588 59.108 286.712 58.772 286.052 58.1C285.392 57.428 285.062 56.372 285.062 54.932V49.82H286.538V54.842C286.538 55.79 286.742 56.516 287.15 57.02C287.57 57.512 288.164 57.758 288.932 57.758C289.772 57.758 290.426 57.458 290.894 56.858C291.374 56.258 291.614 55.442 291.614 54.41V49.82H293.09ZM305.344 49.712C306.376 49.712 307.21 50.036 307.846 50.684C308.494 51.332 308.818 52.34 308.818 53.708V59H307.342V53.798C307.342 52.91 307.15 52.232 306.766 51.764C306.394 51.296 305.86 51.062 305.164 51.062C304.396 51.062 303.79 51.332 303.346 51.872C302.914 52.412 302.698 53.15 302.698 54.086V59H301.222V53.798C301.222 52.91 301.03 52.232 300.646 51.764C300.262 51.296 299.716 51.062 299.008 51.062C298.264 51.062 297.67 51.35 297.226 51.926C296.794 52.49 296.578 53.234 296.578 54.158V59H295.102V49.82H296.38L296.578 51.08C297.238 50.168 298.132 49.712 299.26 49.712C299.92 49.712 300.502 49.862 301.006 50.162C301.522 50.45 301.906 50.882 302.158 51.458C302.818 50.294 303.88 49.712 305.344 49.712ZM320.953 49.712C321.985 49.712 322.819 50.036 323.455 50.684C324.103 51.332 324.427 52.34 324.427 53.708V59H322.951V53.798C322.951 52.91 322.759 52.232 322.375 51.764C322.003 51.296 321.469 51.062 320.773 51.062C320.005 51.062 319.399 51.332 318.955 51.872C318.523 52.412 318.307 53.15 318.307 54.086V59H316.831V53.798C316.831 52.91 316.639 52.232 316.255 51.764C315.871 51.296 315.325 51.062 314.617 51.062C313.873 51.062 313.279 51.35 312.835 51.926C312.403 52.49 312.187 53.234 312.187 54.158V59H310.711V49.82H311.989L312.187 51.08C312.847 50.168 313.741 49.712 314.869 49.712C315.529 49.712 316.111 49.862 316.615 50.162C317.131 50.45 317.515 50.882 317.767 51.458C318.427 50.294 319.489 49.712 320.953 49.712ZM334.907 57.65V59H334.097C333.509 59 333.089 58.88 332.837 58.64C332.585 58.4 332.453 58.046 332.441 57.578C331.733 58.598 330.707 59.108 329.363 59.108C328.343 59.108 327.521 58.868 326.897 58.388C326.285 57.908 325.979 57.254 325.979 56.426C325.979 55.502 326.291 54.794 326.915 54.302C327.551 53.81 328.469 53.564 329.669 53.564H332.369V52.934C332.369 52.334 332.165 51.866 331.757 51.53C331.361 51.194 330.803 51.026 330.083 51.026C329.447 51.026 328.919 51.17 328.499 51.458C328.091 51.734 327.839 52.106 327.743 52.574H326.267C326.375 51.674 326.771 50.972 327.455 50.468C328.151 49.964 329.051 49.712 330.155 49.712C331.331 49.712 332.237 50 332.873 50.576C333.521 51.14 333.845 51.956 333.845 53.024V56.984C333.845 57.428 334.049 57.65 334.457 57.65H334.907ZM332.369 54.806H329.525C328.157 54.806 327.473 55.316 327.473 56.336C327.473 56.792 327.653 57.158 328.013 57.434C328.373 57.71 328.859 57.848 329.471 57.848C330.371 57.848 331.079 57.614 331.595 57.146C332.111 56.666 332.369 56.036 332.369 55.256V54.806ZM340.703 49.82V51.26H339.965C339.089 51.26 338.459 51.554 338.075 52.142C337.703 52.73 337.517 53.456 337.517 54.32V59H336.041V49.82H337.319L337.517 51.206C337.781 50.786 338.123 50.45 338.543 50.198C338.963 49.946 339.545 49.82 340.289 49.82H340.703ZM342.789 49.82L345.615 57.308L348.351 49.82H349.917L345.687 60.548C345.471 61.1 345.279 61.514 345.111 61.79C344.943 62.066 344.733 62.27 344.481 62.402C344.229 62.534 343.893 62.6 343.473 62.6H341.709V61.25H343.023C343.311 61.25 343.527 61.22 343.671 61.16C343.815 61.1 343.929 60.998 344.013 60.854C344.109 60.722 344.223 60.494 344.355 60.17L344.823 59.072L341.223 49.82H342.789ZM359.959 59.108C359.071 59.108 358.279 58.91 357.583 58.514C356.899 58.118 356.365 57.566 355.981 56.858C355.597 56.15 355.405 55.334 355.405 54.41C355.405 53.486 355.597 52.67 355.981 51.962C356.365 51.254 356.899 50.702 357.583 50.306C358.279 49.91 359.071 49.712 359.959 49.712C360.847 49.712 361.633 49.91 362.317 50.306C363.013 50.702 363.553 51.254 363.937 51.962C364.321 52.67 364.513 53.486 364.513 54.41C364.513 55.334 364.321 56.15 363.937 56.858C363.553 57.566 363.013 58.118 362.317 58.514C361.633 58.91 360.847 59.108 359.959 59.108ZM359.959 57.794C360.559 57.794 361.087 57.65 361.543 57.362C362.011 57.074 362.371 56.672 362.623 56.156C362.875 55.64 363.001 55.058 363.001 54.41C363.001 53.762 362.875 53.18 362.623 52.664C362.371 52.148 362.011 51.746 361.543 51.458C361.087 51.17 360.559 51.026 359.959 51.026C359.359 51.026 358.825 51.17 358.357 51.458C357.901 51.746 357.547 52.148 357.295 52.664C357.043 53.18 356.917 53.762 356.917 54.41C356.917 55.058 357.043 55.64 357.295 56.156C357.547 56.672 357.901 57.074 358.357 57.362C358.825 57.65 359.359 57.794 359.959 57.794ZM366.712 49.82V48.794C366.712 47.978 366.898 47.378 367.27 46.994C367.654 46.598 368.266 46.4 369.106 46.4H370.798V47.75H369.196C368.836 47.75 368.578 47.828 368.422 47.984C368.266 48.14 368.188 48.398 368.188 48.758V49.82H370.78V51.17H368.188V59H366.712V51.17H365.056V49.82H366.712ZM376.488 46.4H377.964V59H376.488V46.4ZM388.573 57.65V59H387.763C387.175 59 386.755 58.88 386.503 58.64C386.251 58.4 386.119 58.046 386.107 57.578C385.399 58.598 384.373 59.108 383.029 59.108C382.009 59.108 381.187 58.868 380.563 58.388C379.951 57.908 379.645 57.254 379.645 56.426C379.645 55.502 379.957 54.794 380.581 54.302C381.217 53.81 382.135 53.564 383.335 53.564H386.035V52.934C386.035 52.334 385.831 51.866 385.423 51.53C385.027 51.194 384.469 51.026 383.749 51.026C383.113 51.026 382.585 51.17 382.165 51.458C381.757 51.734 381.505 52.106 381.409 52.574H379.933C380.041 51.674 380.437 50.972 381.121 50.468C381.817 49.964 382.717 49.712 383.821 49.712C384.997 49.712 385.903 50 386.539 50.576C387.187 51.14 387.511 51.956 387.511 53.024V56.984C387.511 57.428 387.715 57.65 388.123 57.65H388.573ZM386.035 54.806H383.191C381.823 54.806 381.139 55.316 381.139 56.336C381.139 56.792 381.319 57.158 381.679 57.434C382.039 57.71 382.525 57.848 383.137 57.848C384.037 57.848 384.745 57.614 385.261 57.146C385.777 56.666 386.035 56.036 386.035 55.256V54.806ZM390.859 55.976C390.883 56.528 391.123 56.978 391.579 57.326C392.047 57.674 392.647 57.848 393.379 57.848C394.027 57.848 394.549 57.722 394.945 57.47C395.353 57.206 395.557 56.864 395.557 56.444C395.557 56.084 395.461 55.808 395.269 55.616C395.077 55.424 394.825 55.292 394.513 55.22C394.213 55.148 393.781 55.076 393.217 55.004C392.425 54.908 391.777 54.782 391.273 54.626C390.769 54.47 390.361 54.224 390.049 53.888C389.737 53.54 389.581 53.066 389.581 52.466C389.581 51.926 389.731 51.446 390.031 51.026C390.343 50.606 390.763 50.282 391.291 50.054C391.819 49.814 392.413 49.694 393.073 49.694C394.153 49.694 395.029 49.946 395.701 50.45C396.385 50.954 396.763 51.674 396.835 52.61H395.359C395.299 52.13 395.065 51.734 394.657 51.422C394.249 51.11 393.739 50.954 393.127 50.954C392.503 50.954 391.999 51.086 391.615 51.35C391.231 51.602 391.039 51.938 391.039 52.358C391.039 52.67 391.129 52.91 391.309 53.078C391.489 53.246 391.717 53.36 391.993 53.42C392.281 53.48 392.713 53.546 393.289 53.618C394.093 53.714 394.753 53.846 395.269 54.014C395.797 54.182 396.217 54.452 396.529 54.824C396.853 55.196 397.015 55.7 397.015 56.336C397.015 56.888 396.853 57.374 396.529 57.794C396.205 58.214 395.767 58.538 395.215 58.766C394.663 58.994 394.051 59.108 393.379 59.108C392.179 59.108 391.213 58.832 390.481 58.28C389.761 57.728 389.395 56.96 389.383 55.976H390.859ZM399.302 51.17H397.646V49.82H399.302V47.246H400.778V49.82H403.1V51.17H400.778V56.588C400.778 56.972 400.85 57.248 400.994 57.416C401.15 57.572 401.414 57.65 401.786 57.65H403.388V59H401.696C400.832 59 400.214 58.808 399.842 58.424C399.482 58.04 399.302 57.434 399.302 56.606V51.17ZM417.861 49.82V62.6H416.385V57.524C415.617 58.58 414.567 59.108 413.235 59.108C412.383 59.108 411.621 58.922 410.949 58.55C410.289 58.178 409.767 57.638 409.383 56.93C409.011 56.222 408.825 55.382 408.825 54.41C408.825 53.486 409.011 52.67 409.383 51.962C409.767 51.254 410.295 50.702 410.967 50.306C411.639 49.91 412.395 49.712 413.235 49.712C413.979 49.712 414.615 49.85 415.143 50.126C415.671 50.39 416.085 50.756 416.385 51.224L416.583 49.82H417.861ZM413.379 57.794C413.967 57.794 414.489 57.656 414.945 57.38C415.413 57.092 415.773 56.696 416.025 56.192C416.277 55.676 416.403 55.094 416.403 54.446C416.403 53.786 416.277 53.198 416.025 52.682C415.773 52.154 415.413 51.746 414.945 51.458C414.489 51.17 413.967 51.026 413.379 51.026C412.467 51.026 411.729 51.344 411.165 51.98C410.613 52.604 410.337 53.414 410.337 54.41C410.337 55.406 410.613 56.222 411.165 56.858C411.729 57.482 412.467 57.794 413.379 57.794ZM427.773 49.82V59H426.495L426.297 57.776C425.601 58.664 424.623 59.108 423.363 59.108C422.271 59.108 421.395 58.772 420.735 58.1C420.075 57.428 419.745 56.372 419.745 54.932V49.82H421.221V54.842C421.221 55.79 421.425 56.516 421.833 57.02C422.253 57.512 422.847 57.758 423.615 57.758C424.455 57.758 425.109 57.458 425.577 56.858C426.057 56.258 426.297 55.442 426.297 54.41V49.82H427.773ZM438.371 57.65V59H437.561C436.973 59 436.553 58.88 436.301 58.64C436.049 58.4 435.917 58.046 435.905 57.578C435.197 58.598 434.171 59.108 432.827 59.108C431.807 59.108 430.985 58.868 430.361 58.388C429.749 57.908 429.443 57.254 429.443 56.426C429.443 55.502 429.755 54.794 430.379 54.302C431.015 53.81 431.933 53.564 433.133 53.564H435.833V52.934C435.833 52.334 435.629 51.866 435.221 51.53C434.825 51.194 434.267 51.026 433.547 51.026C432.911 51.026 432.383 51.17 431.963 51.458C431.555 51.734 431.303 52.106 431.207 52.574H429.731C429.839 51.674 430.235 50.972 430.919 50.468C431.615 49.964 432.515 49.712 433.619 49.712C434.795 49.712 435.701 50 436.337 50.576C436.985 51.14 437.309 51.956 437.309 53.024V56.984C437.309 57.428 437.513 57.65 437.921 57.65H438.371ZM435.833 54.806H432.989C431.621 54.806 430.937 55.316 430.937 56.336C430.937 56.792 431.117 57.158 431.477 57.434C431.837 57.71 432.323 57.848 432.935 57.848C433.835 57.848 434.543 57.614 435.059 57.146C435.575 56.666 435.833 56.036 435.833 55.256V54.806ZM444.168 49.82V51.26H443.43C442.554 51.26 441.924 51.554 441.54 52.142C441.168 52.73 440.982 53.456 440.982 54.32V59H439.506V49.82H440.784L440.982 51.206C441.246 50.786 441.588 50.45 442.008 50.198C442.428 49.946 443.01 49.82 443.754 49.82H444.168ZM445.518 47.246H446.994V49.82H449.316V51.17H446.994V56.588C446.994 56.972 447.066 57.248 447.21 57.416C447.366 57.572 447.63 57.65 448.002 57.65H449.604V59H447.912C447.048 59 446.43 58.808 446.058 58.424C445.698 58.04 445.518 57.434 445.518 56.606V47.246ZM450.098 54.41C450.098 53.474 450.278 52.652 450.638 51.944C451.01 51.236 451.526 50.69 452.186 50.306C452.846 49.91 453.602 49.712 454.454 49.712C455.294 49.712 456.038 49.886 456.686 50.234C457.334 50.582 457.844 51.086 458.216 51.746C458.588 52.406 458.786 53.18 458.81 54.068C458.81 54.2 458.798 54.41 458.774 54.698H451.646V54.824C451.67 55.724 451.946 56.444 452.474 56.984C453.002 57.524 453.692 57.794 454.544 57.794C455.204 57.794 455.762 57.632 456.218 57.308C456.686 56.972 456.998 56.51 457.154 55.922H458.648C458.468 56.858 458.018 57.626 457.298 58.226C456.578 58.814 455.696 59.108 454.652 59.108C453.74 59.108 452.942 58.916 452.258 58.532C451.574 58.136 451.04 57.584 450.656 56.876C450.284 56.156 450.098 55.334 450.098 54.41ZM457.28 53.474C457.208 52.694 456.914 52.088 456.398 51.656C455.894 51.224 455.252 51.008 454.472 51.008C453.776 51.008 453.164 51.236 452.636 51.692C452.108 52.148 451.808 52.742 451.736 53.474H457.28ZM465.156 49.82V51.26H464.418C463.542 51.26 462.912 51.554 462.528 52.142C462.156 52.73 461.97 53.456 461.97 54.32V59H460.494V49.82H461.772L461.97 51.206C462.234 50.786 462.576 50.45 462.996 50.198C463.416 49.946 463.998 49.82 464.742 49.82H465.156ZM467.664 46.292C468.096 46.292 468.438 46.472 468.69 46.832C468.954 47.18 469.086 47.612 469.086 48.128C469.086 48.896 468.858 49.496 468.402 49.928C467.958 50.36 467.34 50.588 466.548 50.612V49.766C467.076 49.754 467.46 49.604 467.7 49.316C467.94 49.028 468.06 48.698 468.06 48.326C468.06 48.218 468.054 48.14 468.042 48.092C467.898 48.236 467.694 48.308 467.43 48.308C467.142 48.308 466.908 48.224 466.728 48.056C466.56 47.888 466.476 47.648 466.476 47.336C466.476 47.036 466.578 46.79 466.782 46.598C466.998 46.394 467.292 46.292 467.664 46.292ZM471.543 55.976C471.567 56.528 471.807 56.978 472.263 57.326C472.731 57.674 473.331 57.848 474.063 57.848C474.711 57.848 475.233 57.722 475.629 57.47C476.037 57.206 476.241 56.864 476.241 56.444C476.241 56.084 476.145 55.808 475.953 55.616C475.761 55.424 475.509 55.292 475.197 55.22C474.897 55.148 474.465 55.076 473.901 55.004C473.109 54.908 472.461 54.782 471.957 54.626C471.453 54.47 471.045 54.224 470.733 53.888C470.421 53.54 470.265 53.066 470.265 52.466C470.265 51.926 470.415 51.446 470.715 51.026C471.027 50.606 471.447 50.282 471.975 50.054C472.503 49.814 473.097 49.694 473.757 49.694C474.837 49.694 475.713 49.946 476.385 50.45C477.069 50.954 477.447 51.674 477.519 52.61H476.043C475.983 52.13 475.749 51.734 475.341 51.422C474.933 51.11 474.423 50.954 473.811 50.954C473.187 50.954 472.683 51.086 472.299 51.35C471.915 51.602 471.723 51.938 471.723 52.358C471.723 52.67 471.813 52.91 471.993 53.078C472.173 53.246 472.401 53.36 472.677 53.42C472.965 53.48 473.397 53.546 473.973 53.618C474.777 53.714 475.437 53.846 475.953 54.014C476.481 54.182 476.901 54.452 477.213 54.824C477.537 55.196 477.699 55.7 477.699 56.336C477.699 56.888 477.537 57.374 477.213 57.794C476.889 58.214 476.451 58.538 475.899 58.766C475.347 58.994 474.735 59.108 474.063 59.108C472.863 59.108 471.897 58.832 471.165 58.28C470.445 57.728 470.079 56.96 470.067 55.976H471.543ZM490.69 48.182C490.414 48.182 490.186 48.092 490.006 47.912C489.826 47.732 489.736 47.504 489.736 47.228C489.736 46.952 489.826 46.724 490.006 46.544C490.186 46.364 490.414 46.274 490.69 46.274C490.966 46.274 491.194 46.364 491.374 46.544C491.554 46.724 491.644 46.952 491.644 47.228C491.644 47.504 491.554 47.732 491.374 47.912C491.194 48.092 490.966 48.182 490.69 48.182ZM491.428 59H489.952V51.17H486.172V59H484.696V51.17H483.04V49.82H484.696V48.794C484.696 47.978 484.882 47.378 485.254 46.994C485.638 46.598 486.25 46.4 487.09 46.4H488.602V47.75H487.18C486.82 47.75 486.562 47.828 486.406 47.984C486.25 48.14 486.172 48.398 486.172 48.758V49.82H491.428V59ZM497.936 49.712C499.052 49.712 499.946 50.048 500.618 50.72C501.302 51.392 501.644 52.448 501.644 53.888V59H500.168V53.978C500.168 53.03 499.952 52.31 499.52 51.818C499.1 51.314 498.488 51.062 497.684 51.062C496.82 51.062 496.142 51.362 495.65 51.962C495.158 52.562 494.912 53.378 494.912 54.41V59H493.436V49.82H494.714L494.912 51.062C495.608 50.162 496.616 49.712 497.936 49.712ZM512.112 57.65V59H511.302C510.714 59 510.294 58.88 510.042 58.64C509.79 58.4 509.658 58.046 509.646 57.578C508.938 58.598 507.912 59.108 506.568 59.108C505.548 59.108 504.726 58.868 504.102 58.388C503.49 57.908 503.184 57.254 503.184 56.426C503.184 55.502 503.496 54.794 504.12 54.302C504.756 53.81 505.674 53.564 506.874 53.564H509.574V52.934C509.574 52.334 509.37 51.866 508.962 51.53C508.566 51.194 508.008 51.026 507.288 51.026C506.652 51.026 506.124 51.17 505.704 51.458C505.296 51.734 505.044 52.106 504.948 52.574H503.472C503.58 51.674 503.976 50.972 504.66 50.468C505.356 49.964 506.256 49.712 507.36 49.712C508.536 49.712 509.442 50 510.078 50.576C510.726 51.14 511.05 51.956 511.05 53.024V56.984C511.05 57.428 511.254 57.65 511.662 57.65H512.112ZM509.574 54.806H506.73C505.362 54.806 504.678 55.316 504.678 56.336C504.678 56.792 504.858 57.158 505.218 57.434C505.578 57.71 506.064 57.848 506.676 57.848C507.576 57.848 508.284 57.614 508.8 57.146C509.316 56.666 509.574 56.036 509.574 55.256V54.806ZM517.746 49.712C518.862 49.712 519.756 50.048 520.428 50.72C521.112 51.392 521.454 52.448 521.454 53.888V59H519.978V53.978C519.978 53.03 519.762 52.31 519.33 51.818C518.91 51.314 518.298 51.062 517.494 51.062C516.63 51.062 515.952 51.362 515.46 51.962C514.968 52.562 514.722 53.378 514.722 54.41V59H513.246V49.82H514.524L514.722 51.062C515.418 50.162 516.426 49.712 517.746 49.712ZM531.526 55.832C531.334 56.852 530.884 57.656 530.176 58.244C529.468 58.82 528.568 59.108 527.476 59.108C526.588 59.108 525.808 58.91 525.136 58.514C524.464 58.118 523.942 57.566 523.57 56.858C523.198 56.138 523.012 55.316 523.012 54.392C523.012 53.468 523.198 52.652 523.57 51.944C523.954 51.236 524.488 50.69 525.172 50.306C525.856 49.91 526.642 49.712 527.53 49.712C528.61 49.712 529.498 50 530.194 50.576C530.902 51.152 531.346 51.944 531.526 52.952H530.032C529.888 52.364 529.588 51.896 529.132 51.548C528.676 51.2 528.124 51.026 527.476 51.026C526.6 51.026 525.886 51.338 525.334 51.962C524.794 52.586 524.524 53.396 524.524 54.392C524.524 55.4 524.794 56.222 525.334 56.858C525.886 57.482 526.6 57.794 527.476 57.794C528.148 57.794 528.712 57.62 529.168 57.272C529.624 56.924 529.918 56.444 530.05 55.832H531.526ZM533.971 46.274C534.247 46.274 534.475 46.364 534.655 46.544C534.835 46.724 534.925 46.952 534.925 47.228C534.925 47.504 534.835 47.732 534.655 47.912C534.475 48.092 534.247 48.182 533.971 48.182C533.695 48.182 533.467 48.092 533.287 47.912C533.107 47.732 533.017 47.504 533.017 47.228C533.017 46.952 533.107 46.724 533.287 46.544C533.467 46.364 533.695 46.274 533.971 46.274ZM533.233 49.82H534.709V59H533.233V49.82ZM545.317 57.65V59H544.507C543.919 59 543.499 58.88 543.247 58.64C542.995 58.4 542.863 58.046 542.851 57.578C542.143 58.598 541.117 59.108 539.773 59.108C538.753 59.108 537.931 58.868 537.307 58.388C536.695 57.908 536.389 57.254 536.389 56.426C536.389 55.502 536.701 54.794 537.325 54.302C537.961 53.81 538.879 53.564 540.079 53.564H542.779V52.934C542.779 52.334 542.575 51.866 542.167 51.53C541.771 51.194 541.213 51.026 540.493 51.026C539.857 51.026 539.329 51.17 538.909 51.458C538.501 51.734 538.249 52.106 538.153 52.574H536.677C536.785 51.674 537.181 50.972 537.865 50.468C538.561 49.964 539.461 49.712 540.565 49.712C541.741 49.712 542.647 50 543.283 50.576C543.931 51.14 544.255 51.956 544.255 53.024V56.984C544.255 57.428 544.459 57.65 544.867 57.65H545.317ZM542.779 54.806H539.935C538.567 54.806 537.883 55.316 537.883 56.336C537.883 56.792 538.063 57.158 538.423 57.434C538.783 57.71 539.269 57.848 539.881 57.848C540.781 57.848 541.489 57.614 542.005 57.146C542.521 56.666 542.779 56.036 542.779 55.256V54.806ZM546.451 46.4H547.927V59H546.451V46.4ZM559.286 49.712C560.138 49.712 560.894 49.898 561.554 50.27C562.226 50.642 562.748 51.182 563.12 51.89C563.504 52.598 563.696 53.438 563.696 54.41C563.696 55.334 563.504 56.15 563.12 56.858C562.748 57.566 562.226 58.118 561.554 58.514C560.882 58.91 560.126 59.108 559.286 59.108C558.542 59.108 557.906 58.976 557.378 58.712C556.85 58.436 556.436 58.064 556.136 57.596V62.6H554.66V49.82H555.938L556.136 51.296C556.904 50.24 557.954 49.712 559.286 49.712ZM559.142 57.794C560.054 57.794 560.786 57.482 561.338 56.858C561.902 56.222 562.184 55.406 562.184 54.41C562.184 53.414 561.902 52.604 561.338 51.98C560.786 51.344 560.054 51.026 559.142 51.026C558.554 51.026 558.026 51.17 557.558 51.458C557.102 51.734 556.748 52.13 556.496 52.646C556.244 53.15 556.118 53.726 556.118 54.374C556.118 55.034 556.244 55.628 556.496 56.156C556.748 56.672 557.102 57.074 557.558 57.362C558.026 57.65 558.554 57.794 559.142 57.794ZM565.059 54.41C565.059 53.474 565.239 52.652 565.599 51.944C565.971 51.236 566.487 50.69 567.147 50.306C567.807 49.91 568.563 49.712 569.415 49.712C570.255 49.712 570.999 49.886 571.647 50.234C572.295 50.582 572.805 51.086 573.177 51.746C573.549 52.406 573.747 53.18 573.771 54.068C573.771 54.2 573.759 54.41 573.735 54.698H566.607V54.824C566.631 55.724 566.907 56.444 567.435 56.984C567.963 57.524 568.653 57.794 569.505 57.794C570.165 57.794 570.723 57.632 571.179 57.308C571.647 56.972 571.959 56.51 572.115 55.922H573.609C573.429 56.858 572.979 57.626 572.259 58.226C571.539 58.814 570.657 59.108 569.613 59.108C568.701 59.108 567.903 58.916 567.219 58.532C566.535 58.136 566.001 57.584 565.617 56.876C565.245 56.156 565.059 55.334 565.059 54.41ZM572.241 53.474C572.169 52.694 571.875 52.088 571.359 51.656C570.855 51.224 570.213 51.008 569.433 51.008C568.737 51.008 568.125 51.236 567.597 51.692C567.069 52.148 566.769 52.742 566.697 53.474H572.241ZM580.117 49.82V51.26H579.379C578.503 51.26 577.873 51.554 577.489 52.142C577.117 52.73 576.931 53.456 576.931 54.32V59H575.455V49.82H576.733L576.931 51.206C577.195 50.786 577.537 50.45 577.957 50.198C578.377 49.946 578.959 49.82 579.703 49.82H580.117ZM581.467 48.794C581.467 47.978 581.653 47.378 582.025 46.994C582.409 46.598 583.021 46.4 583.861 46.4H585.553V47.75H583.951C583.591 47.75 583.333 47.828 583.177 47.984C583.021 48.14 582.943 48.398 582.943 48.758V49.82H585.535V51.17H582.943V59H581.467V48.794ZM590.338 59.108C589.45 59.108 588.658 58.91 587.962 58.514C587.278 58.118 586.744 57.566 586.36 56.858C585.976 56.15 585.784 55.334 585.784 54.41C585.784 53.486 585.976 52.67 586.36 51.962C586.744 51.254 587.278 50.702 587.962 50.306C588.658 49.91 589.45 49.712 590.338 49.712C591.226 49.712 592.012 49.91 592.696 50.306C593.392 50.702 593.932 51.254 594.316 51.962C594.7 52.67 594.892 53.486 594.892 54.41C594.892 55.334 594.7 56.15 594.316 56.858C593.932 57.566 593.392 58.118 592.696 58.514C592.012 58.91 591.226 59.108 590.338 59.108ZM590.338 57.794C590.938 57.794 591.466 57.65 591.922 57.362C592.39 57.074 592.75 56.672 593.002 56.156C593.254 55.64 593.38 55.058 593.38 54.41C593.38 53.762 593.254 53.18 593.002 52.664C592.75 52.148 592.39 51.746 591.922 51.458C591.466 51.17 590.938 51.026 590.338 51.026C589.738 51.026 589.204 51.17 588.736 51.458C588.28 51.746 587.926 52.148 587.674 52.664C587.422 53.18 587.296 53.762 587.296 54.41C587.296 55.058 587.422 55.64 587.674 56.156C587.926 56.672 588.28 57.074 588.736 57.362C589.204 57.65 589.738 57.794 590.338 57.794ZM601.246 49.82V51.26H600.508C599.632 51.26 599.002 51.554 598.618 52.142C598.246 52.73 598.06 53.456 598.06 54.32V59H596.584V49.82H597.862L598.06 51.206C598.324 50.786 598.666 50.45 599.086 50.198C599.506 49.946 600.088 49.82 600.832 49.82H601.246ZM612.838 49.712C613.87 49.712 614.704 50.036 615.34 50.684C615.988 51.332 616.312 52.34 616.312 53.708V59H614.836V53.798C614.836 52.91 614.644 52.232 614.26 51.764C613.888 51.296 613.354 51.062 612.658 51.062C611.89 51.062 611.284 51.332 610.84 51.872C610.408 52.412 610.192 53.15 610.192 54.086V59H608.716V53.798C608.716 52.91 608.524 52.232 608.14 51.764C607.756 51.296 607.21 51.062 606.502 51.062C605.758 51.062 605.164 51.35 604.72 51.926C604.288 52.49 604.072 53.234 604.072 54.158V59H602.596V49.82H603.874L604.072 51.08C604.732 50.168 605.626 49.712 606.754 49.712C607.414 49.712 607.996 49.862 608.5 50.162C609.016 50.45 609.4 50.882 609.652 51.458C610.312 50.294 611.374 49.712 612.838 49.712ZM626.791 57.65V59H625.981C625.393 59 624.973 58.88 624.721 58.64C624.469 58.4 624.337 58.046 624.325 57.578C623.617 58.598 622.591 59.108 621.247 59.108C620.227 59.108 619.405 58.868 618.781 58.388C618.169 57.908 617.863 57.254 617.863 56.426C617.863 55.502 618.175 54.794 618.799 54.302C619.435 53.81 620.353 53.564 621.553 53.564H624.253V52.934C624.253 52.334 624.049 51.866 623.641 51.53C623.245 51.194 622.687 51.026 621.967 51.026C621.331 51.026 620.803 51.17 620.383 51.458C619.975 51.734 619.723 52.106 619.627 52.574H618.151C618.259 51.674 618.655 50.972 619.339 50.468C620.035 49.964 620.935 49.712 622.039 49.712C623.215 49.712 624.121 50 624.757 50.576C625.405 51.14 625.729 51.956 625.729 53.024V56.984C625.729 57.428 625.933 57.65 626.341 57.65H626.791ZM624.253 54.806H621.409C620.041 54.806 619.357 55.316 619.357 56.336C619.357 56.792 619.537 57.158 619.897 57.434C620.257 57.71 620.743 57.848 621.355 57.848C622.255 57.848 622.963 57.614 623.479 57.146C623.995 56.666 624.253 56.036 624.253 55.256V54.806ZM632.426 49.712C633.542 49.712 634.436 50.048 635.108 50.72C635.792 51.392 636.134 52.448 636.134 53.888V59H634.658V53.978C634.658 53.03 634.442 52.31 634.01 51.818C633.59 51.314 632.978 51.062 632.174 51.062C631.31 51.062 630.632 51.362 630.14 51.962C629.648 52.562 629.402 53.378 629.402 54.41V59H627.926V49.82H629.204L629.402 51.062C630.098 50.162 631.106 49.712 632.426 49.712ZM646.206 55.832C646.014 56.852 645.564 57.656 644.856 58.244C644.148 58.82 643.248 59.108 642.156 59.108C641.268 59.108 640.488 58.91 639.816 58.514C639.144 58.118 638.622 57.566 638.25 56.858C637.878 56.138 637.692 55.316 637.692 54.392C637.692 53.468 637.878 52.652 638.25 51.944C638.634 51.236 639.168 50.69 639.852 50.306C640.536 49.91 641.322 49.712 642.21 49.712C643.29 49.712 644.178 50 644.874 50.576C645.582 51.152 646.026 51.944 646.206 52.952H644.712C644.568 52.364 644.268 51.896 643.812 51.548C643.356 51.2 642.804 51.026 642.156 51.026C641.28 51.026 640.566 51.338 640.014 51.962C639.474 52.586 639.204 53.396 639.204 54.392C639.204 55.4 639.474 56.222 640.014 56.858C640.566 57.482 641.28 57.794 642.156 57.794C642.828 57.794 643.392 57.62 643.848 57.272C644.304 56.924 644.598 56.444 644.73 55.832H646.206ZM647.395 54.41C647.395 53.474 647.575 52.652 647.935 51.944C648.307 51.236 648.823 50.69 649.483 50.306C650.143 49.91 650.899 49.712 651.751 49.712C652.591 49.712 653.335 49.886 653.983 50.234C654.631 50.582 655.141 51.086 655.513 51.746C655.885 52.406 656.083 53.18 656.107 54.068C656.107 54.2 656.095 54.41 656.071 54.698H648.943V54.824C648.967 55.724 649.243 56.444 649.771 56.984C650.299 57.524 650.989 57.794 651.841 57.794C652.501 57.794 653.059 57.632 653.515 57.308C653.983 56.972 654.295 56.51 654.451 55.922H655.945C655.765 56.858 655.315 57.626 654.595 58.226C653.875 58.814 652.993 59.108 651.949 59.108C651.037 59.108 650.239 58.916 649.555 58.532C648.871 58.136 648.337 57.584 647.953 56.876C647.581 56.156 647.395 55.334 647.395 54.41ZM654.577 53.474C654.505 52.694 654.211 52.088 653.695 51.656C653.191 51.224 652.549 51.008 651.769 51.008C651.073 51.008 650.461 51.236 649.933 51.692C649.405 52.148 649.105 52.742 649.033 53.474H654.577ZM175.62 72.82V71.794C175.62 70.978 175.806 70.378 176.178 69.994C176.562 69.598 177.174 69.4 178.014 69.4H179.706V70.75H178.104C177.744 70.75 177.486 70.828 177.33 70.984C177.174 71.14 177.096 71.398 177.096 71.758V72.82H179.688V74.17H177.096V82H175.62V74.17H173.964V72.82H175.62ZM184.494 82.108C183.606 82.108 182.814 81.91 182.118 81.514C181.434 81.118 180.9 80.566 180.516 79.858C180.132 79.15 179.94 78.334 179.94 77.41C179.94 76.486 180.132 75.67 180.516 74.962C180.9 74.254 181.434 73.702 182.118 73.306C182.814 72.91 183.606 72.712 184.494 72.712C185.382 72.712 186.168 72.91 186.852 73.306C187.548 73.702 188.088 74.254 188.472 74.962C188.856 75.67 189.048 76.486 189.048 77.41C189.048 78.334 188.856 79.15 188.472 79.858C188.088 80.566 187.548 81.118 186.852 81.514C186.168 81.91 185.382 82.108 184.494 82.108ZM184.494 80.794C185.094 80.794 185.622 80.65 186.078 80.362C186.546 80.074 186.906 79.672 187.158 79.156C187.41 78.64 187.536 78.058 187.536 77.41C187.536 76.762 187.41 76.18 187.158 75.664C186.906 75.148 186.546 74.746 186.078 74.458C185.622 74.17 185.094 74.026 184.494 74.026C183.894 74.026 183.36 74.17 182.892 74.458C182.436 74.746 182.082 75.148 181.83 75.664C181.578 76.18 181.452 76.762 181.452 77.41C181.452 78.058 181.578 78.64 181.83 79.156C182.082 79.672 182.436 80.074 182.892 80.362C183.36 80.65 183.894 80.794 184.494 80.794ZM195.402 72.82V74.26H194.664C193.788 74.26 193.158 74.554 192.774 75.142C192.402 75.73 192.216 76.456 192.216 77.32V82H190.74V72.82H192.018L192.216 74.206C192.48 73.786 192.822 73.45 193.242 73.198C193.662 72.946 194.244 72.82 194.988 72.82H195.402ZM205.693 82.108C204.805 82.108 204.013 81.91 203.317 81.514C202.633 81.118 202.099 80.566 201.715 79.858C201.331 79.15 201.139 78.334 201.139 77.41C201.139 76.486 201.331 75.67 201.715 74.962C202.099 74.254 202.633 73.702 203.317 73.306C204.013 72.91 204.805 72.712 205.693 72.712C206.581 72.712 207.367 72.91 208.051 73.306C208.747 73.702 209.287 74.254 209.671 74.962C210.055 75.67 210.247 76.486 210.247 77.41C210.247 78.334 210.055 79.15 209.671 79.858C209.287 80.566 208.747 81.118 208.051 81.514C207.367 81.91 206.581 82.108 205.693 82.108ZM205.693 80.794C206.293 80.794 206.821 80.65 207.277 80.362C207.745 80.074 208.105 79.672 208.357 79.156C208.609 78.64 208.735 78.058 208.735 77.41C208.735 76.762 208.609 76.18 208.357 75.664C208.105 75.148 207.745 74.746 207.277 74.458C206.821 74.17 206.293 74.026 205.693 74.026C205.093 74.026 204.559 74.17 204.091 74.458C203.635 74.746 203.281 75.148 203.029 75.664C202.777 76.18 202.651 76.762 202.651 77.41C202.651 78.058 202.777 78.64 203.029 79.156C203.281 79.672 203.635 80.074 204.091 80.362C204.559 80.65 205.093 80.794 205.693 80.794ZM219.842 72.82V82H218.564L218.366 80.776C217.67 81.664 216.692 82.108 215.432 82.108C214.34 82.108 213.464 81.772 212.804 81.1C212.144 80.428 211.814 79.372 211.814 77.932V72.82H213.29V77.842C213.29 78.79 213.494 79.516 213.902 80.02C214.322 80.512 214.916 80.758 215.684 80.758C216.524 80.758 217.178 80.458 217.646 79.858C218.126 79.258 218.366 78.442 218.366 77.41V72.82H219.842ZM226.516 72.82V74.26H225.778C224.902 74.26 224.272 74.554 223.888 75.142C223.516 75.73 223.33 76.456 223.33 77.32V82H221.854V72.82H223.132L223.33 74.206C223.594 73.786 223.936 73.45 224.356 73.198C224.776 72.946 225.358 72.82 226.102 72.82H226.516ZM237.238 72.82V74.26H236.5C235.624 74.26 234.994 74.554 234.61 75.142C234.238 75.73 234.052 76.456 234.052 77.32V82H232.576V72.82H233.854L234.052 74.206C234.316 73.786 234.658 73.45 235.078 73.198C235.498 72.946 236.08 72.82 236.824 72.82H237.238ZM237.737 77.41C237.737 76.474 237.917 75.652 238.277 74.944C238.649 74.236 239.165 73.69 239.825 73.306C240.485 72.91 241.241 72.712 242.093 72.712C242.933 72.712 243.677 72.886 244.325 73.234C244.973 73.582 245.483 74.086 245.855 74.746C246.227 75.406 246.425 76.18 246.449 77.068C246.449 77.2 246.437 77.41 246.413 77.698H239.285V77.824C239.309 78.724 239.585 79.444 240.113 79.984C240.641 80.524 241.331 80.794 242.183 80.794C242.843 80.794 243.401 80.632 243.857 80.308C244.325 79.972 244.637 79.51 244.793 78.922H246.287C246.107 79.858 245.657 80.626 244.937 81.226C244.217 81.814 243.335 82.108 242.291 82.108C241.379 82.108 240.581 81.916 239.897 81.532C239.213 81.136 238.679 80.584 238.295 79.876C237.923 79.156 237.737 78.334 237.737 77.41ZM244.919 76.474C244.847 75.694 244.553 75.088 244.037 74.656C243.533 74.224 242.891 74.008 242.111 74.008C241.415 74.008 240.803 74.236 240.275 74.692C239.747 75.148 239.447 75.742 239.375 76.474H244.919ZM248.64 74.17H246.984V72.82H248.64V70.246H250.116V72.82H252.438V74.17H250.116V79.588C250.116 79.972 250.188 80.248 250.332 80.416C250.488 80.572 250.752 80.65 251.124 80.65H252.726V82H251.034C250.17 82 249.552 81.808 249.18 81.424C248.82 81.04 248.64 80.434 248.64 79.606V74.17ZM262.221 80.65V82H261.411C260.823 82 260.403 81.88 260.151 81.64C259.899 81.4 259.767 81.046 259.755 80.578C259.047 81.598 258.021 82.108 256.677 82.108C255.657 82.108 254.835 81.868 254.211 81.388C253.599 80.908 253.293 80.254 253.293 79.426C253.293 78.502 253.605 77.794 254.229 77.302C254.865 76.81 255.783 76.564 256.983 76.564H259.683V75.934C259.683 75.334 259.479 74.866 259.071 74.53C258.675 74.194 258.117 74.026 257.397 74.026C256.761 74.026 256.233 74.17 255.813 74.458C255.405 74.734 255.153 75.106 255.057 75.574H253.581C253.689 74.674 254.085 73.972 254.769 73.468C255.465 72.964 256.365 72.712 257.469 72.712C258.645 72.712 259.551 73 260.187 73.576C260.835 74.14 261.159 74.956 261.159 76.024V79.984C261.159 80.428 261.363 80.65 261.771 80.65H262.221ZM259.683 77.806H256.839C255.471 77.806 254.787 78.316 254.787 79.336C254.787 79.792 254.967 80.158 255.327 80.434C255.687 80.71 256.173 80.848 256.785 80.848C257.685 80.848 258.393 80.614 258.909 80.146C259.425 79.666 259.683 79.036 259.683 78.256V77.806ZM264.094 69.274C264.37 69.274 264.598 69.364 264.778 69.544C264.958 69.724 265.048 69.952 265.048 70.228C265.048 70.504 264.958 70.732 264.778 70.912C264.598 71.092 264.37 71.182 264.094 71.182C263.818 71.182 263.59 71.092 263.41 70.912C263.23 70.732 263.14 70.504 263.14 70.228C263.14 69.952 263.23 69.724 263.41 69.544C263.59 69.364 263.818 69.274 264.094 69.274ZM263.356 72.82H264.832V82H263.356V72.82ZM266.854 69.4H268.33V82H266.854V69.4ZM279.689 72.712C280.541 72.712 281.297 72.898 281.957 73.27C282.629 73.642 283.151 74.182 283.523 74.89C283.907 75.598 284.099 76.438 284.099 77.41C284.099 78.334 283.907 79.15 283.523 79.858C283.151 80.566 282.629 81.118 281.957 81.514C281.285 81.91 280.529 82.108 279.689 82.108C278.945 82.108 278.309 81.976 277.781 81.712C277.253 81.436 276.839 81.064 276.539 80.596L276.341 82H275.063V69.4H276.539V74.296C277.307 73.24 278.357 72.712 279.689 72.712ZM279.545 80.794C280.457 80.794 281.189 80.482 281.741 79.858C282.305 79.222 282.587 78.406 282.587 77.41C282.587 76.414 282.305 75.604 281.741 74.98C281.189 74.344 280.457 74.026 279.545 74.026C278.957 74.026 278.429 74.17 277.961 74.458C277.505 74.734 277.151 75.13 276.899 75.646C276.647 76.15 276.521 76.726 276.521 77.374C276.521 78.034 276.647 78.628 276.899 79.156C277.151 79.672 277.505 80.074 277.961 80.362C278.429 80.65 278.957 80.794 279.545 80.794ZM294.371 80.65V82H293.561C292.973 82 292.553 81.88 292.301 81.64C292.049 81.4 291.917 81.046 291.905 80.578C291.197 81.598 290.171 82.108 288.827 82.108C287.807 82.108 286.985 81.868 286.361 81.388C285.749 80.908 285.443 80.254 285.443 79.426C285.443 78.502 285.755 77.794 286.379 77.302C287.015 76.81 287.933 76.564 289.133 76.564H291.833V75.934C291.833 75.334 291.629 74.866 291.221 74.53C290.825 74.194 290.267 74.026 289.547 74.026C288.911 74.026 288.383 74.17 287.963 74.458C287.555 74.734 287.303 75.106 287.207 75.574H285.731C285.839 74.674 286.235 73.972 286.919 73.468C287.615 72.964 288.515 72.712 289.619 72.712C290.795 72.712 291.701 73 292.337 73.576C292.985 74.14 293.309 74.956 293.309 76.024V79.984C293.309 80.428 293.513 80.65 293.921 80.65H294.371ZM291.833 77.806H288.989C287.621 77.806 286.937 78.316 286.937 79.336C286.937 79.792 287.117 80.158 287.477 80.434C287.837 80.71 288.323 80.848 288.935 80.848C289.835 80.848 290.543 80.614 291.059 80.146C291.575 79.666 291.833 79.036 291.833 78.256V77.806ZM300.006 72.712C301.122 72.712 302.016 73.048 302.688 73.72C303.372 74.392 303.714 75.448 303.714 76.888V82H302.238V76.978C302.238 76.03 302.022 75.31 301.59 74.818C301.17 74.314 300.558 74.062 299.754 74.062C298.89 74.062 298.212 74.362 297.72 74.962C297.228 75.562 296.982 76.378 296.982 77.41V82H295.506V72.82H296.784L296.982 74.062C297.678 73.162 298.686 72.712 300.006 72.712ZM305.596 69.4H307.072V77.752L311.734 72.82H313.498L309.97 76.582L313.75 82H311.968L308.908 77.644L307.072 79.57V82H305.596V69.4ZM315.633 69.274C315.909 69.274 316.137 69.364 316.317 69.544C316.497 69.724 316.587 69.952 316.587 70.228C316.587 70.504 316.497 70.732 316.317 70.912C316.137 71.092 315.909 71.182 315.633 71.182C315.357 71.182 315.129 71.092 314.949 70.912C314.769 70.732 314.679 70.504 314.679 70.228C314.679 69.952 314.769 69.724 314.949 69.544C315.129 69.364 315.357 69.274 315.633 69.274ZM314.895 72.82H316.371V82H314.895V72.82ZM322.893 72.712C324.009 72.712 324.903 73.048 325.575 73.72C326.259 74.392 326.601 75.448 326.601 76.888V82H325.125V76.978C325.125 76.03 324.909 75.31 324.477 74.818C324.057 74.314 323.445 74.062 322.641 74.062C321.777 74.062 321.099 74.362 320.607 74.962C320.115 75.562 319.869 76.378 319.869 77.41V82H318.393V72.82H319.671L319.869 74.062C320.565 73.162 321.573 72.712 322.893 72.712ZM337.195 72.82V81.55C337.195 84.322 335.677 85.708 332.641 85.708C331.453 85.708 330.481 85.438 329.725 84.898C328.981 84.358 328.549 83.59 328.429 82.594H329.941C330.061 83.17 330.367 83.614 330.859 83.926C331.351 84.238 331.981 84.394 332.749 84.394C334.729 84.394 335.719 83.428 335.719 81.496V80.416C335.059 81.544 334.009 82.108 332.569 82.108C331.717 82.108 330.955 81.922 330.283 81.55C329.623 81.178 329.101 80.638 328.717 79.93C328.345 79.222 328.159 78.382 328.159 77.41C328.159 76.486 328.345 75.67 328.717 74.962C329.101 74.254 329.629 73.702 330.301 73.306C330.973 72.91 331.729 72.712 332.569 72.712C333.313 72.712 333.949 72.862 334.477 73.162C335.005 73.45 335.419 73.864 335.719 74.404L335.917 72.82H337.195ZM332.713 80.794C333.301 80.794 333.823 80.656 334.279 80.38C334.747 80.092 335.107 79.696 335.359 79.192C335.611 78.676 335.737 78.094 335.737 77.446C335.737 76.786 335.611 76.198 335.359 75.682C335.107 75.154 334.747 74.746 334.279 74.458C333.823 74.17 333.301 74.026 332.713 74.026C331.801 74.026 331.063 74.344 330.499 74.98C329.947 75.604 329.671 76.414 329.671 77.41C329.671 78.406 329.947 79.222 330.499 79.858C331.063 80.482 331.801 80.794 332.713 80.794ZM352.628 69.4V82H351.35L351.152 80.524C350.384 81.58 349.334 82.108 348.002 82.108C347.15 82.108 346.388 81.922 345.716 81.55C345.056 81.178 344.534 80.638 344.15 79.93C343.778 79.222 343.592 78.382 343.592 77.41C343.592 76.486 343.778 75.67 344.15 74.962C344.534 74.254 345.062 73.702 345.734 73.306C346.406 72.91 347.162 72.712 348.002 72.712C348.746 72.712 349.382 72.85 349.91 73.126C350.438 73.39 350.852 73.756 351.152 74.224V69.4H352.628ZM348.146 80.794C348.734 80.794 349.256 80.656 349.712 80.38C350.18 80.092 350.54 79.696 350.792 79.192C351.044 78.676 351.17 78.094 351.17 77.446C351.17 76.786 351.044 76.198 350.792 75.682C350.54 75.154 350.18 74.746 349.712 74.458C349.256 74.17 348.734 74.026 348.146 74.026C347.234 74.026 346.496 74.344 345.932 74.98C345.38 75.604 345.104 76.414 345.104 77.41C345.104 78.406 345.38 79.222 345.932 79.858C346.496 80.482 347.234 80.794 348.146 80.794ZM355.377 69.274C355.653 69.274 355.881 69.364 356.061 69.544C356.241 69.724 356.331 69.952 356.331 70.228C356.331 70.504 356.241 70.732 356.061 70.912C355.881 71.092 355.653 71.182 355.377 71.182C355.101 71.182 354.873 71.092 354.693 70.912C354.513 70.732 354.423 70.504 354.423 70.228C354.423 69.952 354.513 69.724 354.693 69.544C354.873 69.364 355.101 69.274 355.377 69.274ZM354.639 72.82H356.115V82H354.639V72.82ZM357.219 72.82H358.803L361.575 80.326L364.329 72.82H365.877L362.439 82H360.657L357.219 72.82ZM367.717 69.274C367.993 69.274 368.221 69.364 368.401 69.544C368.581 69.724 368.671 69.952 368.671 70.228C368.671 70.504 368.581 70.732 368.401 70.912C368.221 71.092 367.993 71.182 367.717 71.182C367.441 71.182 367.213 71.092 367.033 70.912C366.853 70.732 366.763 70.504 366.763 70.228C366.763 69.952 366.853 69.724 367.033 69.544C367.213 69.364 367.441 69.274 367.717 69.274ZM366.979 72.82H368.455V82H366.979V72.82ZM371.629 78.976C371.653 79.528 371.893 79.978 372.349 80.326C372.817 80.674 373.417 80.848 374.149 80.848C374.797 80.848 375.319 80.722 375.715 80.47C376.123 80.206 376.327 79.864 376.327 79.444C376.327 79.084 376.231 78.808 376.039 78.616C375.847 78.424 375.595 78.292 375.283 78.22C374.983 78.148 374.551 78.076 373.987 78.004C373.195 77.908 372.547 77.782 372.043 77.626C371.539 77.47 371.131 77.224 370.819 76.888C370.507 76.54 370.351 76.066 370.351 75.466C370.351 74.926 370.501 74.446 370.801 74.026C371.113 73.606 371.533 73.282 372.061 73.054C372.589 72.814 373.183 72.694 373.843 72.694C374.923 72.694 375.799 72.946 376.471 73.45C377.155 73.954 377.533 74.674 377.605 75.61H376.129C376.069 75.13 375.835 74.734 375.427 74.422C375.019 74.11 374.509 73.954 373.897 73.954C373.273 73.954 372.769 74.086 372.385 74.35C372.001 74.602 371.809 74.938 371.809 75.358C371.809 75.67 371.899 75.91 372.079 76.078C372.259 76.246 372.487 76.36 372.763 76.42C373.051 76.48 373.483 76.546 374.059 76.618C374.863 76.714 375.523 76.846 376.039 77.014C376.567 77.182 376.987 77.452 377.299 77.824C377.623 78.196 377.785 78.7 377.785 79.336C377.785 79.888 377.623 80.374 377.299 80.794C376.975 81.214 376.537 81.538 375.985 81.766C375.433 81.994 374.821 82.108 374.149 82.108C372.949 82.108 371.983 81.832 371.251 81.28C370.531 80.728 370.165 79.96 370.153 78.976H371.629ZM380.197 69.274C380.473 69.274 380.701 69.364 380.881 69.544C381.061 69.724 381.151 69.952 381.151 70.228C381.151 70.504 381.061 70.732 380.881 70.912C380.701 71.092 380.473 71.182 380.197 71.182C379.921 71.182 379.693 71.092 379.513 70.912C379.333 70.732 379.243 70.504 379.243 70.228C379.243 69.952 379.333 69.724 379.513 69.544C379.693 69.364 379.921 69.274 380.197 69.274ZM379.459 72.82H380.935V82H379.459V72.82ZM387.187 82.108C386.299 82.108 385.507 81.91 384.811 81.514C384.127 81.118 383.593 80.566 383.209 79.858C382.825 79.15 382.633 78.334 382.633 77.41C382.633 76.486 382.825 75.67 383.209 74.962C383.593 74.254 384.127 73.702 384.811 73.306C385.507 72.91 386.299 72.712 387.187 72.712C388.075 72.712 388.861 72.91 389.545 73.306C390.241 73.702 390.781 74.254 391.165 74.962C391.549 75.67 391.741 76.486 391.741 77.41C391.741 78.334 391.549 79.15 391.165 79.858C390.781 80.566 390.241 81.118 389.545 81.514C388.861 81.91 388.075 82.108 387.187 82.108ZM387.187 80.794C387.787 80.794 388.315 80.65 388.771 80.362C389.239 80.074 389.599 79.672 389.851 79.156C390.103 78.64 390.229 78.058 390.229 77.41C390.229 76.762 390.103 76.18 389.851 75.664C389.599 75.148 389.239 74.746 388.771 74.458C388.315 74.17 387.787 74.026 387.187 74.026C386.587 74.026 386.053 74.17 385.585 74.458C385.129 74.746 384.775 75.148 384.523 75.664C384.271 76.18 384.145 76.762 384.145 77.41C384.145 78.058 384.271 78.64 384.523 79.156C384.775 79.672 385.129 80.074 385.585 80.362C386.053 80.65 386.587 80.794 387.187 80.794ZM397.934 72.712C399.05 72.712 399.944 73.048 400.616 73.72C401.3 74.392 401.642 75.448 401.642 76.888V82H400.166V76.978C400.166 76.03 399.95 75.31 399.518 74.818C399.098 74.314 398.486 74.062 397.682 74.062C396.818 74.062 396.14 74.362 395.648 74.962C395.156 75.562 394.91 76.378 394.91 77.41V82H393.434V72.82H394.712L394.91 74.062C395.606 73.162 396.614 72.712 397.934 72.712ZM403.344 81.1C403.344 80.8 403.44 80.56 403.632 80.38C403.824 80.188 404.07 80.092 404.37 80.092C404.67 80.092 404.916 80.188 405.108 80.38C405.3 80.56 405.396 80.8 405.396 81.1C405.396 81.4 405.3 81.646 405.108 81.838C404.916 82.018 404.67 82.108 404.37 82.108C404.07 82.108 403.824 82.018 403.632 81.838C403.44 81.646 403.344 81.4 403.344 81.1ZM412.16 69.382H413.726V74.872H420.242V69.382H421.808V82H420.242V76.312H413.726V82H412.16V69.382ZM423.713 77.41C423.713 76.474 423.893 75.652 424.253 74.944C424.625 74.236 425.141 73.69 425.801 73.306C426.461 72.91 427.217 72.712 428.069 72.712C428.909 72.712 429.653 72.886 430.301 73.234C430.949 73.582 431.459 74.086 431.831 74.746C432.203 75.406 432.401 76.18 432.425 77.068C432.425 77.2 432.413 77.41 432.389 77.698H425.261V77.824C425.285 78.724 425.561 79.444 426.089 79.984C426.617 80.524 427.307 80.794 428.159 80.794C428.819 80.794 429.377 80.632 429.833 80.308C430.301 79.972 430.613 79.51 430.769 78.922H432.263C432.083 79.858 431.633 80.626 430.913 81.226C430.193 81.814 429.311 82.108 428.267 82.108C427.355 82.108 426.557 81.916 425.873 81.532C425.189 81.136 424.655 80.584 424.271 79.876C423.899 79.156 423.713 78.334 423.713 77.41ZM430.895 76.474C430.823 75.694 430.529 75.088 430.013 74.656C429.509 74.224 428.867 74.008 428.087 74.008C427.391 74.008 426.779 74.236 426.251 74.692C425.723 75.148 425.423 75.742 425.351 76.474H430.895ZM438.772 72.82V74.26H438.034C437.158 74.26 436.528 74.554 436.144 75.142C435.772 75.73 435.586 76.456 435.586 77.32V82H434.11V72.82H435.388L435.586 74.206C435.85 73.786 436.192 73.45 436.612 73.198C437.032 72.946 437.614 72.82 438.358 72.82H438.772ZM439.27 77.41C439.27 76.474 439.45 75.652 439.81 74.944C440.182 74.236 440.698 73.69 441.358 73.306C442.018 72.91 442.774 72.712 443.626 72.712C444.466 72.712 445.21 72.886 445.858 73.234C446.506 73.582 447.016 74.086 447.388 74.746C447.76 75.406 447.958 76.18 447.982 77.068C447.982 77.2 447.97 77.41 447.946 77.698H440.818V77.824C440.842 78.724 441.118 79.444 441.646 79.984C442.174 80.524 442.864 80.794 443.716 80.794C444.376 80.794 444.934 80.632 445.39 80.308C445.858 79.972 446.17 79.51 446.326 78.922H447.82C447.64 79.858 447.19 80.626 446.47 81.226C445.75 81.814 444.868 82.108 443.824 82.108C442.912 82.108 442.114 81.916 441.43 81.532C440.746 81.136 440.212 80.584 439.828 79.876C439.456 79.156 439.27 78.334 439.27 77.41ZM446.452 76.474C446.38 75.694 446.086 75.088 445.57 74.656C445.066 74.224 444.424 74.008 443.644 74.008C442.948 74.008 442.336 74.236 441.808 74.692C441.28 75.148 440.98 75.742 440.908 76.474H446.452ZM462.963 80.65V82H462.153C461.565 82 461.145 81.88 460.893 81.64C460.641 81.4 460.509 81.046 460.497 80.578C459.789 81.598 458.763 82.108 457.419 82.108C456.399 82.108 455.577 81.868 454.953 81.388C454.341 80.908 454.035 80.254 454.035 79.426C454.035 78.502 454.347 77.794 454.971 77.302C455.607 76.81 456.525 76.564 457.725 76.564H460.425V75.934C460.425 75.334 460.221 74.866 459.813 74.53C459.417 74.194 458.859 74.026 458.139 74.026C457.503 74.026 456.975 74.17 456.555 74.458C456.147 74.734 455.895 75.106 455.799 75.574H454.323C454.431 74.674 454.827 73.972 455.511 73.468C456.207 72.964 457.107 72.712 458.211 72.712C459.387 72.712 460.293 73 460.929 73.576C461.577 74.14 461.901 74.956 461.901 76.024V79.984C461.901 80.428 462.105 80.65 462.513 80.65H462.963ZM460.425 77.806H457.581C456.213 77.806 455.529 78.316 455.529 79.336C455.529 79.792 455.709 80.158 456.069 80.434C456.429 80.71 456.915 80.848 457.527 80.848C458.427 80.848 459.135 80.614 459.651 80.146C460.167 79.666 460.425 79.036 460.425 78.256V77.806ZM468.76 72.82V74.26H468.022C467.146 74.26 466.516 74.554 466.132 75.142C465.76 75.73 465.574 76.456 465.574 77.32V82H464.098V72.82H465.376L465.574 74.206C465.838 73.786 466.18 73.45 466.6 73.198C467.02 72.946 467.602 72.82 468.346 72.82H468.76ZM469.258 77.41C469.258 76.474 469.438 75.652 469.798 74.944C470.17 74.236 470.686 73.69 471.346 73.306C472.006 72.91 472.762 72.712 473.614 72.712C474.454 72.712 475.198 72.886 475.846 73.234C476.494 73.582 477.004 74.086 477.376 74.746C477.748 75.406 477.946 76.18 477.97 77.068C477.97 77.2 477.958 77.41 477.934 77.698H470.806V77.824C470.83 78.724 471.106 79.444 471.634 79.984C472.162 80.524 472.852 80.794 473.704 80.794C474.364 80.794 474.922 80.632 475.378 80.308C475.846 79.972 476.158 79.51 476.314 78.922H477.808C477.628 79.858 477.178 80.626 476.458 81.226C475.738 81.814 474.856 82.108 473.812 82.108C472.9 82.108 472.102 81.916 471.418 81.532C470.734 81.136 470.2 80.584 469.816 79.876C469.444 79.156 469.258 78.334 469.258 77.41ZM476.44 76.474C476.368 75.694 476.074 75.088 475.558 74.656C475.054 74.224 474.412 74.008 473.632 74.008C472.936 74.008 472.324 74.236 471.796 74.692C471.268 75.148 470.968 75.742 470.896 76.474H476.44ZM484.977 74.17H483.321V72.82H484.977V70.246H486.453V72.82H488.775V74.17H486.453V79.588C486.453 79.972 486.525 80.248 486.669 80.416C486.825 80.572 487.089 80.65 487.461 80.65H489.063V82H487.371C486.507 82 485.889 81.808 485.517 81.424C485.157 81.04 484.977 80.434 484.977 79.606V74.17ZM494.613 72.712C495.729 72.712 496.629 73.048 497.313 73.72C497.997 74.392 498.339 75.448 498.339 76.888V82H496.863V76.978C496.863 76.03 496.647 75.31 496.215 74.818C495.783 74.314 495.165 74.062 494.361 74.062C493.509 74.062 492.831 74.362 492.327 74.962C491.835 75.562 491.589 76.378 491.589 77.41V82H490.113V69.4H491.589V74.332C491.889 73.852 492.285 73.462 492.777 73.162C493.281 72.862 493.893 72.712 494.613 72.712ZM499.897 77.41C499.897 76.474 500.077 75.652 500.437 74.944C500.809 74.236 501.325 73.69 501.985 73.306C502.645 72.91 503.401 72.712 504.253 72.712C505.093 72.712 505.837 72.886 506.485 73.234C507.133 73.582 507.643 74.086 508.015 74.746C508.387 75.406 508.585 76.18 508.609 77.068C508.609 77.2 508.597 77.41 508.573 77.698H501.445V77.824C501.469 78.724 501.745 79.444 502.273 79.984C502.801 80.524 503.491 80.794 504.343 80.794C505.003 80.794 505.561 80.632 506.017 80.308C506.485 79.972 506.797 79.51 506.953 78.922H508.447C508.267 79.858 507.817 80.626 507.097 81.226C506.377 81.814 505.495 82.108 504.451 82.108C503.539 82.108 502.741 81.916 502.057 81.532C501.373 81.136 500.839 80.584 500.455 79.876C500.083 79.156 499.897 78.334 499.897 77.41ZM507.079 76.474C507.007 75.694 506.713 75.088 506.197 74.656C505.693 74.224 505.051 74.008 504.271 74.008C503.575 74.008 502.963 74.236 502.435 74.692C501.907 75.148 501.607 75.742 501.535 76.474H507.079ZM519.666 72.82V74.26H518.928C518.052 74.26 517.422 74.554 517.038 75.142C516.666 75.73 516.48 76.456 516.48 77.32V82H515.004V72.82H516.282L516.48 74.206C516.744 73.786 517.086 73.45 517.506 73.198C517.926 72.946 518.508 72.82 519.252 72.82H519.666ZM520.164 77.41C520.164 76.474 520.344 75.652 520.704 74.944C521.076 74.236 521.592 73.69 522.252 73.306C522.912 72.91 523.668 72.712 524.52 72.712C525.36 72.712 526.104 72.886 526.752 73.234C527.4 73.582 527.91 74.086 528.282 74.746C528.654 75.406 528.852 76.18 528.876 77.068C528.876 77.2 528.864 77.41 528.84 77.698H521.712V77.824C521.736 78.724 522.012 79.444 522.54 79.984C523.068 80.524 523.758 80.794 524.61 80.794C525.27 80.794 525.828 80.632 526.284 80.308C526.752 79.972 527.064 79.51 527.22 78.922H528.714C528.534 79.858 528.084 80.626 527.364 81.226C526.644 81.814 525.762 82.108 524.718 82.108C523.806 82.108 523.008 81.916 522.324 81.532C521.64 81.136 521.106 80.584 520.722 79.876C520.35 79.156 520.164 78.334 520.164 77.41ZM527.346 76.474C527.274 75.694 526.98 75.088 526.464 74.656C525.96 74.224 525.318 74.008 524.538 74.008C523.842 74.008 523.23 74.236 522.702 74.692C522.174 75.148 521.874 75.742 521.802 76.474H527.346ZM535.187 72.712C536.039 72.712 536.795 72.898 537.455 73.27C538.127 73.642 538.649 74.182 539.021 74.89C539.405 75.598 539.597 76.438 539.597 77.41C539.597 78.334 539.405 79.15 539.021 79.858C538.649 80.566 538.127 81.118 537.455 81.514C536.783 81.91 536.027 82.108 535.187 82.108C534.443 82.108 533.807 81.976 533.279 81.712C532.751 81.436 532.337 81.064 532.037 80.596V85.6H530.561V72.82H531.839L532.037 74.296C532.805 73.24 533.855 72.712 535.187 72.712ZM535.043 80.794C535.955 80.794 536.687 80.482 537.239 79.858C537.803 79.222 538.085 78.406 538.085 77.41C538.085 76.414 537.803 75.604 537.239 74.98C536.687 74.344 535.955 74.026 535.043 74.026C534.455 74.026 533.927 74.17 533.459 74.458C533.003 74.734 532.649 75.13 532.397 75.646C532.145 76.15 532.019 76.726 532.019 77.374C532.019 78.034 532.145 78.628 532.397 79.156C532.649 79.672 533.003 80.074 533.459 80.362C533.927 80.65 534.455 80.794 535.043 80.794ZM545.513 82.108C544.625 82.108 543.833 81.91 543.137 81.514C542.453 81.118 541.919 80.566 541.535 79.858C541.151 79.15 540.959 78.334 540.959 77.41C540.959 76.486 541.151 75.67 541.535 74.962C541.919 74.254 542.453 73.702 543.137 73.306C543.833 72.91 544.625 72.712 545.513 72.712C546.401 72.712 547.187 72.91 547.871 73.306C548.567 73.702 549.107 74.254 549.491 74.962C549.875 75.67 550.067 76.486 550.067 77.41C550.067 78.334 549.875 79.15 549.491 79.858C549.107 80.566 548.567 81.118 547.871 81.514C547.187 81.91 546.401 82.108 545.513 82.108ZM545.513 80.794C546.113 80.794 546.641 80.65 547.097 80.362C547.565 80.074 547.925 79.672 548.177 79.156C548.429 78.64 548.555 78.058 548.555 77.41C548.555 76.762 548.429 76.18 548.177 75.664C547.925 75.148 547.565 74.746 547.097 74.458C546.641 74.17 546.113 74.026 545.513 74.026C544.913 74.026 544.379 74.17 543.911 74.458C543.455 74.746 543.101 75.148 542.849 75.664C542.597 76.18 542.471 76.762 542.471 77.41C542.471 78.058 542.597 78.64 542.849 79.156C543.101 79.672 543.455 80.074 543.911 80.362C544.379 80.65 544.913 80.794 545.513 80.794ZM556.422 72.82V74.26H555.684C554.808 74.26 554.178 74.554 553.794 75.142C553.422 75.73 553.236 76.456 553.236 77.32V82H551.76V72.82H553.038L553.236 74.206C553.5 73.786 553.842 73.45 554.262 73.198C554.682 72.946 555.264 72.82 556.008 72.82H556.422ZM557.772 70.246H559.248V72.82H561.57V74.17H559.248V79.588C559.248 79.972 559.32 80.248 559.464 80.416C559.62 80.572 559.884 80.65 560.256 80.65H561.858V82H560.166C559.302 82 558.684 81.808 558.312 81.424C557.952 81.04 557.772 80.434 557.772 79.606V70.246ZM564.056 78.976C564.08 79.528 564.32 79.978 564.776 80.326C565.244 80.674 565.844 80.848 566.576 80.848C567.224 80.848 567.746 80.722 568.142 80.47C568.55 80.206 568.754 79.864 568.754 79.444C568.754 79.084 568.658 78.808 568.466 78.616C568.274 78.424 568.022 78.292 567.71 78.22C567.41 78.148 566.978 78.076 566.414 78.004C565.622 77.908 564.974 77.782 564.47 77.626C563.966 77.47 563.558 77.224 563.246 76.888C562.934 76.54 562.778 76.066 562.778 75.466C562.778 74.926 562.928 74.446 563.228 74.026C563.54 73.606 563.96 73.282 564.488 73.054C565.016 72.814 565.61 72.694 566.27 72.694C567.35 72.694 568.226 72.946 568.898 73.45C569.582 73.954 569.96 74.674 570.032 75.61H568.556C568.496 75.13 568.262 74.734 567.854 74.422C567.446 74.11 566.936 73.954 566.324 73.954C565.7 73.954 565.196 74.086 564.812 74.35C564.428 74.602 564.236 74.938 564.236 75.358C564.236 75.67 564.326 75.91 564.506 76.078C564.686 76.246 564.914 76.36 565.19 76.42C565.478 76.48 565.91 76.546 566.486 76.618C567.29 76.714 567.95 76.846 568.466 77.014C568.994 77.182 569.414 77.452 569.726 77.824C570.05 78.196 570.212 78.7 570.212 79.336C570.212 79.888 570.05 80.374 569.726 80.794C569.402 81.214 568.964 81.538 568.412 81.766C567.86 81.994 567.248 82.108 566.576 82.108C565.376 82.108 564.41 81.832 563.678 81.28C562.958 80.728 562.592 79.96 562.58 78.976H564.056ZM571.707 74.35C571.707 74.05 571.803 73.81 571.995 73.63C572.187 73.438 572.433 73.342 572.733 73.342C573.033 73.342 573.279 73.438 573.471 73.63C573.663 73.81 573.759 74.05 573.759 74.35C573.759 74.65 573.663 74.896 573.471 75.088C573.279 75.268 573.033 75.358 572.733 75.358C572.433 75.358 572.187 75.268 571.995 75.088C571.803 74.896 571.707 74.65 571.707 74.35ZM571.707 81.1C571.707 80.8 571.803 80.56 571.995 80.38C572.187 80.188 572.433 80.092 572.733 80.092C573.033 80.092 573.279 80.188 573.471 80.38C573.663 80.56 573.759 80.8 573.759 81.1C573.759 81.4 573.663 81.646 573.471 81.838C573.279 82.018 573.033 82.108 572.733 82.108C572.433 82.108 572.187 82.018 571.995 81.838C571.803 81.646 571.707 81.4 571.707 81.1Z" fill="black"/>
<rect opacity="0.5" x="273" y="294" width="175" height="40" rx="5" fill="white"/>
<path d="M329.455 316.812H329.347C329.275 316.988 329.187 317.156 329.083 317.316C328.979 317.476 328.851 317.62 328.699 317.748C328.547 317.868 328.367 317.964 328.159 318.036C327.959 318.108 327.731 318.144 327.475 318.144C327.067 318.144 326.703 318.048 326.383 317.856C326.071 317.664 325.807 317.384 325.591 317.016C325.375 316.648 325.211 316.2 325.099 315.672C324.995 315.144 324.943 314.548 324.943 313.884C324.943 312.46 325.203 311.372 325.723 310.62C326.243 309.86 327.047 309.48 328.135 309.48C328.567 309.48 328.947 309.54 329.275 309.66C329.603 309.772 329.883 309.936 330.115 310.152C330.355 310.36 330.551 310.612 330.703 310.908C330.855 311.204 330.975 311.532 331.063 311.892L329.383 312.3C329.335 312.124 329.279 311.956 329.215 311.796C329.159 311.628 329.083 311.48 328.987 311.352C328.891 311.224 328.771 311.124 328.627 311.052C328.483 310.972 328.307 310.932 328.099 310.932C327.643 310.932 327.319 311.12 327.127 311.496C326.943 311.872 326.851 312.4 326.851 313.08V314.448C326.851 315.128 326.951 315.672 327.151 316.08C327.359 316.488 327.723 316.692 328.243 316.692C328.651 316.692 328.955 316.572 329.155 316.332C329.355 316.092 329.455 315.784 329.455 315.408V314.796H328.027V313.524H331.063V318H329.455V316.812ZM332.679 318V309.624H338.031V311.1H334.479V313.02H337.911V314.496H334.479V316.524H338.031V318H332.679ZM341.314 312.432H341.182V318H339.646V309.624H341.806L343.714 315.192H343.846V309.624H345.382V318H343.222L341.314 312.432ZM347.069 318V309.624H352.421V311.1H348.869V313.02H352.301V314.496H348.869V316.524H352.421V318H347.069ZM355.993 318H354.217V309.624H357.457C357.865 309.624 358.229 309.688 358.549 309.816C358.869 309.936 359.137 310.112 359.353 310.344C359.577 310.576 359.745 310.856 359.857 311.184C359.969 311.512 360.025 311.88 360.025 312.288C360.025 312.88 359.897 313.388 359.641 313.812C359.385 314.236 359.021 314.516 358.549 314.652L360.193 318H358.225L356.821 314.892H355.993V318ZM357.025 313.5C357.449 313.5 357.741 313.42 357.901 313.26C358.069 313.1 358.153 312.836 358.153 312.468V312.108C358.153 311.74 358.069 311.476 357.901 311.316C357.741 311.156 357.449 311.076 357.025 311.076H355.993V313.5H357.025ZM365.72 318L365.192 315.984H362.9L362.384 318H360.56L362.828 309.624H365.372L367.64 318H365.72ZM364.1 311.364H364.004L363.188 314.532H364.916L364.1 311.364ZM372.195 311.1V318H370.395V311.1H367.983V309.624H374.607V311.1H372.195ZM375.791 318V316.668H377.591V310.956H375.791V309.624H381.191V310.956H379.391V316.668H381.191V318H375.791ZM384.486 312.432H384.354V318H382.818V309.624H384.978L386.886 315.192H387.018V309.624H388.554V318H386.394L384.486 312.432ZM394.213 316.812H394.105C394.033 316.988 393.945 317.156 393.841 317.316C393.737 317.476 393.609 317.62 393.457 317.748C393.305 317.868 393.125 317.964 392.917 318.036C392.717 318.108 392.489 318.144 392.233 318.144C391.825 318.144 391.461 318.048 391.141 317.856C390.829 317.664 390.565 317.384 390.349 317.016C390.133 316.648 389.969 316.2 389.857 315.672C389.753 315.144 389.701 314.548 389.701 313.884C389.701 312.46 389.961 311.372 390.481 310.62C391.001 309.86 391.805 309.48 392.893 309.48C393.325 309.48 393.705 309.54 394.033 309.66C394.361 309.772 394.641 309.936 394.873 310.152C395.113 310.36 395.309 310.612 395.461 310.908C395.613 311.204 395.733 311.532 395.821 311.892L394.141 312.3C394.093 312.124 394.037 311.956 393.973 311.796C393.917 311.628 393.841 311.48 393.745 311.352C393.649 311.224 393.529 311.124 393.385 311.052C393.241 310.972 393.065 310.932 392.857 310.932C392.401 310.932 392.077 311.12 391.885 311.496C391.701 311.872 391.609 312.4 391.609 313.08V314.448C391.609 315.128 391.709 315.672 391.909 316.08C392.117 316.488 392.481 316.692 393.001 316.692C393.409 316.692 393.713 316.572 393.913 316.332C394.113 316.092 394.213 315.784 394.213 315.408V314.796H392.785V313.524H395.821V318H394.213V316.812Z" fill="white"/>
<path d="M465.667 310C465.667 311.473 464.473 312.667 463 312.667C461.527 312.667 460.333 311.473 460.333 310C460.333 308.527 461.527 307.333 463 307.333C464.473 307.333 465.667 308.527 465.667 310ZM630 180L630.47 180.171C630.253 180.767 630.025 181.373 629.787 181.99L629.32 181.81L628.854 181.63C629.09 181.019 629.315 180.418 629.53 179.829L630 180ZM627.836 185.462L628.296 185.658C627.795 186.832 627.26 188.038 626.69 189.273L626.236 189.063L625.782 188.854C626.348 187.628 626.879 186.431 627.376 185.266L627.836 185.462ZM624.534 192.62L624.982 192.842C624.411 193.997 623.811 195.173 623.183 196.369L622.74 196.136L622.297 195.904C622.922 194.715 623.518 193.546 624.086 192.398L624.534 192.62ZM620.859 199.616L621.296 199.859C620.67 200.987 620.019 202.13 619.344 203.286L618.912 203.034L618.48 202.782C619.152 201.632 619.799 200.495 620.422 199.374L620.859 199.616ZM616.896 206.405L617.323 206.666C616.646 207.773 615.947 208.89 615.226 210.017L614.805 209.747L614.384 209.478C615.101 208.357 615.796 207.245 616.47 206.144L616.896 206.405ZM612.639 213.061L613.055 213.339C612.336 214.416 611.598 215.501 610.84 216.592L610.429 216.306L610.019 216.021C610.773 214.935 611.508 213.856 612.223 212.784L612.639 213.061ZM608.154 219.517L608.559 219.81C607.794 220.87 607.01 221.935 606.208 223.003L605.808 222.703L605.408 222.403C606.206 221.339 606.987 220.279 607.749 219.225L608.154 219.517ZM603.421 225.824L603.816 226.132C603.015 227.16 602.197 228.19 601.363 229.223L600.974 228.909L600.585 228.595C601.416 227.567 602.23 226.54 603.027 225.517L603.421 225.824ZM598.458 231.968L598.842 232.289C598.008 233.285 597.159 234.282 596.293 235.279L595.916 234.952L595.538 234.624C596.399 233.631 597.245 232.638 598.075 231.647L598.458 231.968ZM593.304 237.911L593.676 238.245C592.803 239.217 591.915 240.189 591.011 241.16L590.645 240.82L590.279 240.479C591.178 239.512 592.063 238.545 592.932 237.577L593.304 237.911ZM587.941 243.677L588.302 244.024C587.391 244.97 586.466 245.914 585.527 246.857L585.173 246.504L584.819 246.151C585.754 245.213 586.675 244.272 587.581 243.331L587.941 243.677ZM582.38 249.259L582.728 249.618C581.786 250.532 580.83 251.443 579.86 252.352L579.518 251.987L579.176 251.622C580.142 250.717 581.094 249.81 582.032 248.9L582.38 249.259ZM576.627 254.648L576.963 255.019C575.991 255.898 575.006 256.774 574.008 257.647L573.679 257.27L573.35 256.894C574.344 256.025 575.325 255.153 576.292 254.277L576.627 254.648ZM570.692 259.836L571.015 260.218C570.014 261.062 569.001 261.902 567.975 262.738L567.659 262.351L567.344 261.963C568.365 261.131 569.374 260.294 570.37 259.454L570.692 259.836ZM564.581 264.815L564.89 265.208C563.862 266.017 562.821 266.82 561.769 267.619L561.466 267.221L561.164 266.822C562.212 266.027 563.248 265.227 564.272 264.422L564.581 264.815ZM558.301 269.579L558.596 269.983C557.541 270.754 556.474 271.521 555.395 272.282L555.107 271.873L554.819 271.464C555.893 270.707 556.955 269.944 558.006 269.175L558.301 269.579ZM551.86 274.121L552.141 274.534C551.06 275.269 549.967 275.997 548.863 276.719L548.589 276.301L548.316 275.882C549.415 275.163 550.503 274.438 551.579 273.707L551.86 274.121ZM545.265 278.434L545.531 278.857C544.425 279.553 543.308 280.243 542.179 280.926L541.92 280.498L541.661 280.07C542.785 279.39 543.897 278.704 544.998 278.011L545.265 278.434ZM538.524 282.513L538.775 282.945C537.645 283.602 536.504 284.252 535.352 284.895L535.108 284.459L534.864 284.022C536.011 283.382 537.147 282.735 538.272 282.081L538.524 282.513ZM531.644 286.352L531.88 286.793C530.727 287.411 529.563 288.021 528.388 288.623L528.16 288.178L527.932 287.734C529.101 287.134 530.26 286.526 531.408 285.911L531.644 286.352ZM524.636 289.948L524.856 290.397C523.68 290.974 522.494 291.543 521.298 292.105L521.086 291.652L520.873 291.2C522.064 290.641 523.245 290.074 524.415 289.499L524.636 289.948ZM517.506 293.295L517.71 293.752C516.513 294.288 515.306 294.817 514.089 295.337L513.893 294.878L513.696 294.418C514.908 293.9 516.109 293.373 517.301 292.839L517.506 293.295ZM510.263 296.392L510.452 296.855C509.234 297.351 508.007 297.838 506.77 298.317L506.589 297.851L506.409 297.385C507.64 296.908 508.862 296.423 510.074 295.929L510.263 296.392ZM502.917 299.236L503.089 299.705C501.853 300.16 500.607 300.605 499.351 301.042L499.187 300.57L499.023 300.098C500.273 299.663 501.513 299.219 502.744 298.767L502.917 299.236ZM495.475 301.826L495.631 302.301C494.383 302.711 493.126 303.113 491.859 303.506L491.711 303.029L491.563 302.551C492.824 302.16 494.076 301.76 495.319 301.351L495.475 301.826ZM487.946 304.161L488.086 304.641C486.828 305.008 485.562 305.366 484.286 305.715L484.154 305.233L484.022 304.751C485.293 304.403 486.554 304.047 487.806 303.681L487.946 304.161ZM480.338 306.243L480.462 306.727C479.197 307.051 477.923 307.365 476.641 307.671L476.526 307.184L476.41 306.698C477.686 306.394 478.954 306.081 480.214 305.759L480.338 306.243ZM472.662 308.071L472.77 308.559C471.499 308.84 470.219 309.112 468.931 309.374L468.831 308.884L468.732 308.395C470.014 308.133 471.288 307.862 472.554 307.583L472.662 308.071ZM464.956 309.642L465.048 310.134C464.397 310.255 463.743 310.375 463.088 310.492L463 310L462.912 309.508C463.565 309.391 464.216 309.272 464.864 309.151L464.956 309.642Z" fill="white"/>
</svg>
