<svg width="160" height="52" viewBox="0 0 160 52" fill="none" xmlns="http://www.w3.org/2000/svg">
<g clip-path="url(#clip0_570_10454)">
<path d="M69.2862 19.5288C68.3483 19.5288 67.7373 19.4595 66.9423 19.4595C66.0619 19.4595 65.3375 19.5288 64.3997 19.5288C64.3422 19.5288 64.2863 19.3887 64.2863 19.2774C64.2863 19.1807 64.3143 19.0405 64.3717 19.0261C65.2948 18.9842 65.5363 18.7892 65.5363 18.441C65.5363 18.2734 65.4656 18.0784 65.3949 17.8559L64.7839 16.2105H61.829L61.2607 17.6884C61.1753 17.9253 61.0899 18.1622 61.0899 18.3572C61.0899 18.7328 61.3034 18.9842 62.1971 19.0261C62.2545 19.0405 62.2825 19.1792 62.2825 19.2774C62.2825 19.3887 62.2265 19.5288 62.1691 19.5288C61.3314 19.5288 61.1032 19.4595 60.3229 19.4595C59.6971 19.4595 59.3718 19.5288 58.7033 19.5288C58.6327 19.5288 58.59 19.3887 58.6032 19.2774C58.6032 19.1807 58.7033 19.0405 58.7593 19.0261C59.6677 18.9567 59.9813 18.5248 60.4068 17.632L63.8299 9.72842C63.8578 9.67208 64.0007 9.61719 64.142 9.61719C64.2981 9.61719 64.4394 9.67353 64.4541 9.72842L67.5077 17.632C67.8198 18.4815 68.2041 18.9148 69.2553 19.0261C69.3127 19.0405 69.3966 19.1792 69.3966 19.2774C69.3966 19.3887 69.3392 19.5288 69.2832 19.5288H69.2862ZM63.3484 12.336L62.0558 15.6529H64.5704L63.3484 12.336Z" fill="white"/>
<path d="M83.747 19.5295C82.8092 19.5295 82.0995 19.4602 81.2191 19.4602C80.3387 19.4602 79.6982 19.5295 78.7618 19.5295C78.6912 19.5295 78.6337 19.3894 78.6337 19.2781C78.6337 19.1813 78.6764 19.0412 78.7471 19.0268C79.9397 18.9011 80.1531 18.5948 80.1105 17.8566L79.841 11.4728L76.574 19.6407C76.5593 19.6971 76.4179 19.752 76.2619 19.752C76.0778 19.752 75.963 19.6956 75.9497 19.6407L72.7681 11.7935L72.3426 17.8566C72.2852 18.6093 72.5414 18.9025 73.7634 19.0268C73.8208 19.0412 73.8488 19.1799 73.8488 19.2781C73.8488 19.3894 73.7914 19.5295 73.7207 19.5295C72.9963 19.5295 72.456 19.4602 71.7891 19.4602C71.1221 19.4602 70.5818 19.5295 69.9133 19.5295C69.8559 19.5295 69.8132 19.3894 69.8132 19.2781C69.8132 19.1669 69.8839 19.0412 69.956 19.0268C71.206 18.8866 71.4622 18.5948 71.5329 17.8566L72.1866 11.5291C72.2572 10.7909 71.9451 10.4832 70.7511 10.3445C70.6937 10.3445 70.6524 10.2058 70.6524 10.0932C70.6524 9.99637 70.7231 9.8418 70.7805 9.8418C71.2782 9.8418 71.9878 9.91114 72.4001 9.91114C72.883 9.91114 73.6648 9.8418 74.2036 9.8418L77.0304 16.867L79.8425 9.8418C80.4815 9.8418 81.0778 9.91114 81.5754 9.91114C82.1717 9.91114 82.6973 9.8418 83.323 9.8418C83.3804 9.8418 83.4364 9.99493 83.4364 10.0932C83.4364 10.2044 83.3937 10.3445 83.3363 10.3445C82.1437 10.4832 81.9302 10.7909 81.9582 11.5291L82.2703 17.8566C82.313 18.5948 82.4691 18.8881 83.7338 19.0268C83.7897 19.0412 83.8471 19.1655 83.8471 19.2781C83.8471 19.3908 83.8044 19.5295 83.747 19.5295Z" fill="white"/>
<path d="M93.4068 19.5295C92.4984 19.5021 90.2252 19.4602 89.2873 19.4602C88.3495 19.4602 85.9629 19.5021 85.0677 19.5295C85.0103 19.5295 84.9543 19.3894 84.9543 19.2781C84.9543 19.1813 85.0118 19.0412 85.0677 19.0268C86.2897 18.9011 86.4885 18.5948 86.4885 17.8566V11.5291C86.4885 10.7909 86.2897 10.4832 85.0677 10.3445C85.0103 10.3445 84.9543 10.2058 84.9543 10.0932C84.9543 9.99637 85.0118 9.8418 85.0677 9.8418C85.9629 9.86924 88.2066 9.91114 89.1445 9.91114C90.0823 9.91114 92.2981 9.86924 93.208 9.8418C93.2507 10.6219 93.3494 11.6404 93.4922 12.4479C93.5054 12.5447 93.3641 12.6285 93.1653 12.6285C93.0667 12.6285 92.9813 12.5722 92.9666 12.5303C92.6971 11.2893 91.802 10.4818 90.58 10.4818H89.4434C89.0738 10.4818 88.6189 10.6349 88.6189 11.3182V14.3014H89.7555C90.608 14.3014 91.1056 13.9388 91.2322 12.8105C91.2469 12.7412 91.3883 12.6993 91.4884 12.6993C91.6018 12.6993 91.7446 12.7412 91.7446 12.8105C91.7446 13.5083 91.6739 13.9677 91.6739 14.6221C91.6739 15.2765 91.7446 15.7085 91.7446 16.4062C91.7446 16.4625 91.6018 16.5174 91.4884 16.5174C91.3897 16.5174 91.2469 16.4611 91.2322 16.4062C91.1041 15.2765 90.608 14.8735 89.7555 14.8735H88.6189V18.0661C88.6189 18.7494 89.0738 18.8881 89.4434 18.8881H90.58C91.9006 18.8881 93.1094 17.8985 93.5201 16.6157C93.5349 16.5738 93.6055 16.5593 93.6909 16.5593C93.875 16.5593 94.0605 16.6561 94.0325 16.7544C93.791 17.5764 93.5643 18.6642 93.4068 19.5281V19.5295Z" fill="white"/>
<path d="M105.624 19.5295C105.141 19.5295 104.246 19.4602 103.934 19.4602C103.521 19.4602 102.812 19.5295 102.4 19.5295L100.425 16.0306C99.9703 15.2505 99.7008 15.1104 98.8337 15.1104V17.8566C98.8337 18.5948 98.9617 18.9025 100.197 19.0268C100.254 19.0412 100.31 19.1799 100.31 19.2781C100.31 19.3894 100.253 19.5295 100.197 19.5295C99.2592 19.5295 98.6482 19.4602 97.7677 19.4602C96.8873 19.4602 96.2336 19.5295 95.2957 19.5295C95.2251 19.5295 95.1824 19.3894 95.1824 19.2781C95.1824 19.1813 95.2251 19.0412 95.2957 19.0268C96.503 18.9011 96.7018 18.5948 96.7018 17.8566V11.5291C96.7018 10.7909 96.503 10.4832 95.2957 10.3445C95.2251 10.3445 95.1824 10.2058 95.1824 10.0932C95.1824 9.99637 95.2251 9.8418 95.2957 9.8418C96.2336 9.8418 96.9153 9.91114 97.7957 9.91114C98.6761 9.91114 99.1458 9.8418 100.082 9.8418C102.71 9.8418 103.917 10.9152 103.917 12.3367C103.917 13.5213 103.165 14.3158 101.815 14.7478L103.945 18.0516C104.272 18.5948 104.612 18.9155 105.678 19.0268C105.734 19.0412 105.764 19.1799 105.764 19.2781C105.749 19.3894 105.693 19.5295 105.621 19.5295H105.624ZM99.9555 10.4283C98.9191 10.4283 98.8337 10.7346 98.8337 11.4034V14.5397C99.0604 14.5816 99.3313 14.5961 99.6287 14.5961C101.092 14.5961 101.674 13.9272 101.674 12.4768C101.674 11.1665 101.176 10.4283 99.9541 10.4283H99.9555Z" fill="white"/>
<path d="M111.718 19.5295C110.78 19.5295 110.126 19.4602 109.246 19.4602C108.365 19.4602 107.697 19.5295 106.746 19.5295C106.69 19.5295 106.632 19.3894 106.632 19.2781C106.632 19.1813 106.69 19.0412 106.746 19.0268C107.982 18.9011 108.166 18.5948 108.166 17.8566V11.5291C108.166 10.7909 107.982 10.4832 106.746 10.3445C106.69 10.3445 106.632 10.2058 106.632 10.0932C106.632 9.99637 106.69 9.8418 106.746 9.8418C107.698 9.8418 108.365 9.91114 109.246 9.91114C110.126 9.91114 110.78 9.8418 111.718 9.8418C111.788 9.8418 111.831 9.99493 111.831 10.0932C111.831 10.2044 111.788 10.3445 111.718 10.3445C110.496 10.4832 110.312 10.7909 110.312 11.5291V17.8566C110.312 18.5948 110.496 18.9025 111.718 19.0268C111.788 19.0412 111.831 19.1799 111.831 19.2781C111.831 19.3894 111.788 19.5295 111.718 19.5295Z" fill="white"/>
<path d="M122.67 19.2361C121.79 19.2361 120.469 19.7518 119.119 19.7518C115.326 19.7518 113.451 17.3118 113.451 14.7346C113.451 12.0172 115.681 9.61914 119.232 9.61914C120.666 9.61914 121.604 9.9673 122.485 9.9673C122.542 10.7618 122.641 11.919 122.741 12.6716C122.741 12.741 122.57 12.7829 122.457 12.7829C122.357 12.7829 122.243 12.741 122.23 12.6716C121.946 11.4177 120.739 10.1898 119.175 10.1898C116.931 10.1898 115.709 12.1545 115.709 14.7331C115.709 17.3118 116.931 19.1927 119.119 19.1927C120.937 19.1927 122.003 18.0081 122.6 16.5303C122.627 16.4465 122.742 16.419 122.841 16.419C122.954 16.419 123.097 16.4754 123.11 16.5303C122.982 17.2555 122.784 18.482 122.67 19.2346V19.2361Z" fill="white"/>
<path d="M134.702 19.5288C133.764 19.5288 133.153 19.4595 132.358 19.4595C131.477 19.4595 130.753 19.5288 129.815 19.5288C129.758 19.5288 129.702 19.3887 129.702 19.2774C129.702 19.1807 129.73 19.0405 129.787 19.0261C130.71 18.9842 130.952 18.7892 130.952 18.441C130.952 18.2734 130.881 18.0784 130.81 17.8559L130.199 16.2105H127.245L126.676 17.6884C126.591 17.9253 126.505 18.1622 126.505 18.3572C126.505 18.7328 126.719 18.9842 127.614 19.0261C127.672 19.0405 127.699 19.1792 127.699 19.2774C127.699 19.3887 127.642 19.5288 127.586 19.5288C126.748 19.5288 126.52 19.4595 125.74 19.4595C125.114 19.4595 124.789 19.5288 124.12 19.5288C124.05 19.5288 124.007 19.3887 124.022 19.2774C124.022 19.1807 124.12 19.0405 124.178 19.0261C125.086 18.9567 125.4 18.5248 125.825 17.632L129.248 9.72842C129.276 9.67208 129.419 9.61719 129.56 9.61719C129.717 9.61719 129.859 9.67353 129.873 9.72842L132.928 17.632C133.24 18.4815 133.624 18.9148 134.675 19.0261C134.733 19.0405 134.817 19.1792 134.817 19.2774C134.817 19.3887 134.759 19.5288 134.703 19.5288H134.702ZM128.764 12.336L127.471 15.6529H129.986L128.764 12.336Z" fill="white"/>
<path d="M147.402 10.3565C146.166 10.4966 145.91 10.7885 145.895 11.5267L145.739 19.5964C145.739 19.6657 145.641 19.7351 145.455 19.7351C145.284 19.7351 145.186 19.6932 145.114 19.6238L137.997 12.1522L137.911 17.8527C137.883 18.5909 138.195 18.8986 139.417 19.0229C139.488 19.0373 139.531 19.1616 139.531 19.2742C139.531 19.3869 139.473 19.5256 139.417 19.5256C138.693 19.5256 138.139 19.4563 137.471 19.4563C136.803 19.4563 136.264 19.5256 135.61 19.5256C135.553 19.5256 135.497 19.3999 135.497 19.2742C135.497 19.163 135.554 19.0373 135.625 19.0229C136.847 18.8972 137.101 18.5909 137.116 17.8527L137.358 11.7477C137.372 10.8983 137.073 10.4938 135.795 10.3406C135.738 10.3406 135.695 10.2019 135.695 10.0893C135.695 9.99247 135.738 9.83789 135.809 9.83789C136.292 9.83789 136.832 9.90723 137.244 9.90723C137.755 9.90723 138.011 9.83789 138.65 9.83789L145.156 16.7375V11.5238C145.156 10.7856 144.801 10.4923 143.594 10.3536C143.524 10.3392 143.481 10.2149 143.481 10.1023C143.481 9.98958 143.538 9.83789 143.594 9.83789C144.333 9.83789 144.816 9.92168 145.483 9.92168C146.15 9.92168 146.748 9.83789 147.4 9.83789C147.471 9.83789 147.513 9.97658 147.513 10.1023C147.513 10.2135 147.456 10.3392 147.4 10.3536L147.402 10.3565Z" fill="white"/>
<path d="M69.6955 22.8191C68.4603 22.9578 68.2468 23.2366 68.2468 24.0037V28.381C68.2468 30.5003 67.1102 32.228 64.5675 32.228C61.6126 32.228 60.1359 30.7372 60.1359 28.2697V24.0037C60.1359 23.2655 59.9519 22.9578 58.7152 22.8191C58.6578 22.8191 58.6018 22.6805 58.6018 22.5678C58.6018 22.471 58.6592 22.3164 58.7152 22.3164C59.653 22.3164 60.32 22.3857 61.2004 22.3857C62.0808 22.3857 62.7493 22.3164 63.6871 22.3164C63.7431 22.3164 63.8005 22.4695 63.8005 22.5678C63.8005 22.679 63.7431 22.8191 63.6871 22.8191C62.4504 22.9578 62.2663 23.2655 62.2663 24.0037V28.4084C62.2663 30.6664 63.1615 31.4465 64.9091 31.4465C66.6567 31.4465 67.5519 30.3457 67.5519 28.2408V24.0037C67.5519 23.2655 67.3251 22.9578 66.1031 22.8191C66.0457 22.8191 65.9898 22.6805 65.9898 22.5678C65.9898 22.471 66.0472 22.3164 66.1031 22.3164C66.7568 22.3164 67.225 22.3857 67.9067 22.3857C68.5884 22.3857 68.9859 22.3164 69.697 22.3164C69.7544 22.3164 69.8104 22.4695 69.8104 22.5678C69.8104 22.679 69.753 22.8191 69.697 22.8191H69.6955Z" fill="white"/>
<path d="M82.4382 22.8331C81.2029 22.9732 80.9467 23.265 80.932 24.0032L80.7759 32.0729C80.7759 32.1423 80.6773 32.2116 80.4918 32.2116C80.321 32.2116 80.2224 32.1697 80.1502 32.1004L73.0332 24.6288L72.9478 30.3293C72.9198 31.0675 73.2319 31.3752 74.4539 31.4994C74.5246 31.5139 74.5673 31.6381 74.5673 31.7508C74.5673 31.8635 74.5099 32.0022 74.4539 32.0022C73.7296 32.0022 73.176 31.9328 72.5075 31.9328C71.8391 31.9328 71.3003 32.0022 70.6466 32.0022C70.5891 32.0022 70.5332 31.8765 70.5332 31.7508C70.5332 31.6396 70.5906 31.5139 70.6613 31.4994C71.8833 31.3737 72.138 31.0675 72.1527 30.3293L72.3942 24.2243C72.4089 23.3748 72.11 22.9703 70.8321 22.8172C70.7747 22.8172 70.732 22.6785 70.732 22.5658C70.732 22.469 70.7747 22.3145 70.8453 22.3145C71.3282 22.3145 71.8686 22.3838 72.2808 22.3838C72.7917 22.3838 73.0479 22.3145 73.6869 22.3145L80.1929 29.214V24.0003C80.1929 23.2621 79.8381 22.9689 78.6308 22.8302C78.5601 22.8157 78.5174 22.6915 78.5174 22.5788C78.5174 22.4661 78.5749 22.3145 78.6308 22.3145C79.3699 22.3145 79.8528 22.3982 80.5198 22.3982C81.1867 22.3982 81.7845 22.3145 82.4367 22.3145C82.5074 22.3145 82.5501 22.4531 82.5501 22.5788C82.5501 22.6901 82.4926 22.8157 82.4367 22.8302L82.4382 22.8331Z" fill="white"/>
<path d="M88.6454 32.0061C87.7075 32.0061 87.0538 31.9367 86.1734 31.9367C85.2929 31.9367 84.6245 32.0061 83.6734 32.0061C83.6175 32.0061 83.5601 31.8659 83.5601 31.7547C83.5601 31.6579 83.6175 31.5178 83.6734 31.5033C84.9102 31.3777 85.0942 31.0714 85.0942 30.3332V24.0057C85.0942 23.2675 84.9102 22.9598 83.6734 22.8211C83.6175 22.8211 83.5601 22.6824 83.5601 22.5697C83.5601 22.4729 83.6175 22.3184 83.6734 22.3184C84.626 22.3184 85.2929 22.3877 86.1734 22.3877C87.0538 22.3877 87.7075 22.3184 88.6454 22.3184C88.716 22.3184 88.7587 22.4715 88.7587 22.5697C88.7587 22.681 88.716 22.8211 88.6454 22.8211C87.4234 22.9598 87.2393 23.2675 87.2393 24.0057V30.3332C87.2393 31.0714 87.4234 31.3791 88.6454 31.5033C88.716 31.5178 88.7587 31.6565 88.7587 31.7547C88.7587 31.8659 88.716 32.0061 88.6454 32.0061Z" fill="white"/>
<path d="M100.862 22.8191C99.9393 22.9029 99.6551 23.3204 99.2429 24.2262L95.5784 32.1153C95.5504 32.1847 95.437 32.2266 95.2662 32.2266C95.1102 32.2266 94.9821 32.1702 94.9541 32.1153L91.6724 24.2262C91.2601 23.2092 91.0466 22.9434 89.9822 22.8191C89.9247 22.8191 89.8394 22.6805 89.8394 22.5678C89.8394 22.471 89.8968 22.3164 89.9527 22.3164C90.8906 22.3164 91.4162 22.3857 92.2539 22.3857C93.1343 22.3857 93.816 22.3164 94.7539 22.3164C94.8098 22.3164 94.8525 22.4695 94.8525 22.5678C94.8525 22.679 94.8378 22.8191 94.7671 22.8191C93.8587 22.861 93.6173 23.0561 93.6025 23.4042C93.6025 23.5718 93.6879 23.8217 93.7586 24.0037L96.0451 29.6075L98.4169 24.1713C98.4876 23.9907 98.573 23.6975 98.573 23.5299C98.5583 23.1398 98.3315 22.874 97.4084 22.8191C97.351 22.8191 97.323 22.6805 97.323 22.5678C97.3083 22.471 97.3657 22.3164 97.4364 22.3164C98.1887 22.3164 98.5023 22.3857 99.2694 22.3857C99.9084 22.3857 100.25 22.3164 100.917 22.3164C100.96 22.3164 101.016 22.4421 101.016 22.5533C101.002 22.6516 100.945 22.8177 100.859 22.8177L100.862 22.8191Z" fill="white"/>
<path d="M110.153 32.0061C109.244 31.9786 106.971 31.9367 106.033 31.9367C105.095 31.9367 102.709 31.9786 101.814 32.0061C101.756 32.0061 101.7 31.8659 101.7 31.7547C101.7 31.6579 101.758 31.5178 101.814 31.5033C103.036 31.3777 103.234 31.0714 103.234 30.3332V24.0057C103.234 23.2675 103.036 22.9598 101.814 22.8211C101.756 22.8211 101.7 22.6824 101.7 22.5697C101.7 22.4729 101.758 22.3184 101.814 22.3184C102.709 22.3458 104.952 22.3877 105.89 22.3877C106.828 22.3877 109.044 22.3458 109.954 22.3184C109.997 23.0985 110.095 24.1169 110.238 24.9245C110.251 25.0213 110.11 25.1051 109.911 25.1051C109.813 25.1051 109.727 25.0487 109.712 25.0068C109.443 23.7659 108.548 22.9583 107.326 22.9583H106.189C105.82 22.9583 105.365 23.1115 105.365 23.7948V26.7779H106.501C107.354 26.7779 107.851 26.4153 107.978 25.2871C107.993 25.2177 108.134 25.1758 108.234 25.1758C108.348 25.1758 108.49 25.2177 108.49 25.2871C108.49 25.9848 108.42 26.4442 108.42 27.0986C108.42 27.7531 108.49 28.185 108.49 28.8828C108.49 28.9391 108.348 28.994 108.234 28.994C108.136 28.994 107.993 28.9377 107.978 28.8828C107.85 27.7531 107.354 27.35 106.501 27.35H105.365V30.5427C105.365 31.226 105.82 31.3646 106.189 31.3646H107.326C108.646 31.3646 109.855 30.3751 110.266 29.0922C110.281 29.0503 110.351 29.0359 110.437 29.0359C110.621 29.0359 110.806 29.1327 110.778 29.2309C110.537 30.0529 110.31 31.1407 110.153 32.0046V32.0061Z" fill="white"/>
<path d="M122.37 32.0061C121.887 32.0061 120.992 31.9367 120.68 31.9367C120.267 31.9367 119.558 32.0061 119.145 32.0061L117.171 28.5072C116.716 27.7271 116.447 27.5869 115.58 27.5869V30.3332C115.58 31.0714 115.708 31.3791 116.943 31.5033C117 31.5178 117.056 31.6565 117.056 31.7547C117.056 31.8659 116.999 32.0061 116.943 32.0061C116.005 32.0061 115.394 31.9367 114.514 31.9367C113.633 31.9367 112.979 32.0061 112.042 32.0061C111.971 32.0061 111.928 31.8659 111.928 31.7547C111.928 31.6579 111.971 31.5178 112.042 31.5033C113.249 31.3777 113.448 31.0714 113.448 30.3332V24.0057C113.448 23.2675 113.249 22.9598 112.042 22.8211C111.971 22.8211 111.928 22.6824 111.928 22.5697C111.928 22.4729 111.971 22.3184 112.042 22.3184C112.979 22.3184 113.661 22.3877 114.542 22.3877C115.422 22.3877 115.892 22.3184 116.828 22.3184C119.456 22.3184 120.663 23.3917 120.663 24.8132C120.663 25.9978 119.911 26.7924 118.561 27.2243L120.691 30.5282C121.018 31.0714 121.358 31.3921 122.424 31.5033C122.48 31.5178 122.51 31.6565 122.51 31.7547C122.495 31.8659 122.439 32.0061 122.367 32.0061H122.37ZM116.701 22.9049C115.665 22.9049 115.58 23.2111 115.58 23.88V27.0163C115.806 27.0582 116.077 27.0726 116.375 27.0726C117.838 27.0726 118.42 26.4038 118.42 24.9534C118.42 23.6431 117.922 22.9049 116.7 22.9049H116.701Z" fill="white"/>
<path d="M126.617 32.2278C125.325 32.2278 124.615 31.754 123.521 31.6558C123.493 30.9031 123.464 29.733 123.408 29.0627C123.408 29.0063 123.564 28.9514 123.677 28.9514C123.777 28.9514 123.891 28.9789 123.919 29.0627C124.359 30.763 125.382 31.6688 126.645 31.6688C127.825 31.6688 128.322 31.0274 128.322 30.0941C128.322 27.9474 123.649 27.7105 123.649 24.9931C123.649 23.4315 124.927 22.0938 127.044 22.0938C128.095 22.0938 128.394 22.3726 129.416 22.4838C129.459 23.2783 129.502 24.0454 129.6 24.8111C129.615 24.8674 129.459 24.9223 129.359 24.9223C129.245 24.9223 129.103 24.8949 129.089 24.8111C128.748 23.3751 128.081 22.6644 127.03 22.6644C126.049 22.6644 125.438 23.2639 125.438 24.1133C125.438 26.078 130.083 26.4407 130.083 29.1306C130.083 31.0548 128.677 32.225 126.617 32.225V32.2278Z" fill="white"/>
<path d="M136.717 32.0061C135.78 32.0061 135.126 31.9367 134.245 31.9367C133.365 31.9367 132.697 32.0061 131.745 32.0061C131.69 32.0061 131.632 31.8659 131.632 31.7547C131.632 31.6579 131.69 31.5178 131.745 31.5033C132.982 31.3777 133.166 31.0714 133.166 30.3332V24.0057C133.166 23.2675 132.982 22.9598 131.745 22.8211C131.69 22.8211 131.632 22.6824 131.632 22.5697C131.632 22.4729 131.69 22.3184 131.745 22.3184C132.698 22.3184 133.365 22.3877 134.245 22.3877C135.126 22.3877 135.78 22.3184 136.717 22.3184C136.788 22.3184 136.831 22.4715 136.831 22.5697C136.831 22.681 136.788 22.8211 136.717 22.8211C135.495 22.9598 135.311 23.2675 135.311 24.0057V30.3332C135.311 31.0714 135.495 31.3791 136.717 31.5033C136.788 31.5178 136.831 31.6565 136.831 31.7547C136.831 31.8659 136.788 32.0061 136.717 32.0061Z" fill="white"/>
<path d="M147.995 25.2584C147.91 25.2584 147.796 25.2165 147.782 25.1746C147.427 23.9481 146.461 22.9585 145.338 22.9585H144.897C144.442 22.9585 144.286 23.1116 144.286 23.5017V30.3319C144.286 31.0701 144.47 31.3778 145.707 31.5021C145.763 31.5165 145.82 31.6552 145.82 31.7534C145.82 31.8647 145.763 32.0048 145.707 32.0048C144.769 32.0048 144.102 31.9355 143.235 31.9355C142.368 31.9355 141.673 32.0048 140.735 32.0048C140.678 32.0048 140.622 31.8647 140.622 31.7534C140.622 31.6566 140.679 31.5165 140.735 31.5021C141.97 31.3764 142.156 31.0701 142.156 30.3319V23.5017C142.156 23.0842 142 22.9585 141.545 22.9585H141.218C140.21 22.9585 138.859 24.0044 138.462 25.1746C138.434 25.2309 138.334 25.2584 138.248 25.2584C138.092 25.2584 137.922 25.1746 137.95 25.0908C138.219 24.1431 138.418 23.1116 138.589 22.1914C139.157 22.3026 140.634 22.3864 143.234 22.3864C145.834 22.3864 147.396 22.3026 147.949 22.1914C148.02 23.0827 148.133 24.1012 148.291 25.0908C148.306 25.1746 148.178 25.2584 147.992 25.2584H147.995Z" fill="white"/>
<path d="M159.843 22.8186C158.877 22.9299 158.493 23.2506 157.954 24.0032L155.383 27.6553V30.3307C155.383 31.0689 155.454 31.3766 156.69 31.5009C156.748 31.5153 156.804 31.654 156.804 31.7522C156.804 31.8635 156.746 32.0036 156.69 32.0036C155.753 32.0036 155.199 31.9343 154.319 31.9343C153.438 31.9343 152.77 32.0036 151.833 32.0036C151.776 32.0036 151.72 31.8635 151.72 31.7522C151.72 31.6554 151.776 31.5153 151.833 31.5009C153.055 31.3752 153.254 31.0689 153.254 30.3307V27.6683L150.868 24.0018C150.385 23.291 149.987 22.9284 148.936 22.8172C148.88 22.8172 148.823 22.6785 148.823 22.5658C148.823 22.469 148.88 22.3145 148.936 22.3145C149.618 22.3145 150.385 22.3838 151.152 22.3838C151.919 22.3838 152.87 22.3145 153.808 22.3145C153.878 22.3145 153.921 22.4676 153.921 22.5658C153.921 22.6771 153.864 22.8172 153.808 22.8172C153.111 22.9154 152.87 23.0686 152.87 23.3055C152.87 23.5424 152.998 23.7374 153.169 24.0018L155.1 26.9431L157.103 24.0018C157.259 23.7793 157.344 23.5973 157.344 23.4167C157.344 23.1234 157.103 22.9154 156.293 22.8172C156.236 22.8172 156.222 22.6785 156.222 22.5658C156.222 22.469 156.265 22.3145 156.336 22.3145C157.16 22.3145 157.543 22.3838 158.325 22.3838C158.993 22.3838 159.248 22.3145 159.887 22.3145C159.944 22.3145 160 22.4676 160 22.5658C160 22.6771 159.915 22.8172 159.844 22.8172L159.843 22.8186Z" fill="white"/>
<path d="M62.733 42.6017C60.8352 42.6017 59.7192 41.368 59.7192 39.8078C59.7192 38.2476 60.8352 36.959 62.733 36.959C64.6308 36.959 65.7468 38.2548 65.7468 39.8078C65.7468 41.3608 64.6308 42.6017 62.733 42.6017ZM62.733 37.2782C61.5228 37.2782 60.9766 38.3733 60.9766 39.8078C60.9766 41.2423 61.5228 42.2911 62.733 42.2911C63.9432 42.2911 64.4895 41.251 64.4895 39.8078C64.4895 38.3646 63.9432 37.2782 62.733 37.2782Z" fill="white"/>
<path d="M71.1485 38.6687C71.1014 38.6687 71.0381 38.637 71.0381 38.6138C70.8806 37.9161 70.3506 37.4423 69.638 37.4423H69.0446C68.8311 37.4423 68.5779 37.5275 68.5779 37.9074V39.5919H69.2257C69.6998 39.5919 69.9766 39.3824 70.0561 38.754C70.0561 38.715 70.1356 38.6919 70.1989 38.6919C70.2622 38.6919 70.3417 38.715 70.3417 38.754C70.3417 39.1426 70.2946 39.3983 70.2946 39.7623C70.2946 40.1264 70.3417 40.3676 70.3417 40.7562C70.3417 40.7866 70.2622 40.8184 70.1989 40.8184C70.1356 40.8184 70.0561 40.788 70.0561 40.7562C69.9766 40.1278 69.6998 39.9025 69.2257 39.9025H68.5779V41.5479C68.5779 41.9596 68.7119 42.1301 69.4009 42.1994C69.4318 42.2067 69.4642 42.2847 69.4642 42.3396C69.4642 42.4017 69.4318 42.4797 69.4009 42.4797C68.8783 42.4797 68.4749 42.4407 67.9846 42.4407C67.4943 42.4407 67.1306 42.4797 66.608 42.4797C66.5682 42.4797 66.5447 42.4017 66.5447 42.3396C66.5447 42.2847 66.5682 42.2081 66.608 42.1994C67.2808 42.1301 67.3912 41.9582 67.3912 41.5479V38.0244C67.3912 37.6127 67.2808 37.4423 66.608 37.3642C66.5682 37.3642 66.5447 37.2862 66.5447 37.2241C66.5447 37.1692 66.5682 37.084 66.608 37.084C67.1056 37.0999 68.3644 37.123 68.8856 37.123C69.4068 37.123 70.6332 37.0999 71.1323 37.084C71.1795 37.5347 71.2266 38.101 71.3223 38.5662C71.3296 38.6211 71.2354 38.6673 71.1485 38.6673V38.6687Z" fill="white"/>
<path d="M78.5676 44.4779C77.6209 44.4779 76.6168 44.4072 75.7275 44.4072C74.8383 44.4072 73.9917 44.4779 73.045 44.4779C72.9876 44.4779 72.9302 44.3364 72.9302 44.2251C72.9302 44.1269 72.9876 43.9868 73.045 43.9723C74.2788 43.8452 74.479 43.536 74.479 42.7906V36.401C74.479 35.6556 74.2788 35.345 73.045 35.2048C72.9876 35.2048 72.9302 35.0633 72.9302 34.952C72.9302 34.8538 72.9876 34.6992 73.045 34.6992C73.9917 34.6992 74.7234 34.77 75.6127 34.77C76.502 34.77 77.2764 34.6992 78.2231 34.6992C80.461 34.6992 81.6226 35.6137 81.6226 36.937C81.6226 37.9641 80.6612 38.8655 79.1565 39.1328C81.0204 39.3293 82.2262 40.4127 82.2262 41.6941C82.2262 43.3136 81.0499 44.4808 78.5691 44.4808L78.5676 44.4779ZM77.6503 35.2872H77.4207C76.9039 35.2872 76.6315 35.527 76.6315 35.9907V38.932H77.5208C78.8547 38.932 79.342 38.3267 79.342 37.0323C79.342 35.8361 78.84 35.2872 77.6503 35.2872ZM77.9507 39.5098H76.6315V42.9018C76.6315 43.5779 76.9466 43.9015 77.936 43.9015C78.9828 43.9015 79.9589 43.0998 79.9589 41.6219C79.9589 40.2986 79.2419 39.5113 77.9507 39.5113V39.5098Z" fill="white"/>
<path d="M92.0803 44.4779C91.163 44.449 88.8677 44.4072 87.9211 44.4072C86.9744 44.4072 84.5642 44.449 83.6617 44.4779C83.6043 44.4779 83.5469 44.3364 83.5469 44.2251C83.5469 44.1269 83.6043 43.9868 83.6617 43.9723C84.8955 43.8452 85.0957 43.536 85.0957 42.7906V36.401C85.0957 35.6556 84.8955 35.345 83.6617 35.2048C83.6043 35.2048 83.5469 35.0633 83.5469 34.952C83.5469 34.8538 83.6043 34.6992 83.6617 34.6992C84.5657 34.7281 86.8316 34.77 87.7782 34.77C88.7249 34.77 90.9628 34.7281 91.8801 34.6992C91.9227 35.488 92.0229 36.5151 92.1672 37.3313C92.1819 37.4296 92.0376 37.5134 91.8374 37.5134C91.7372 37.5134 91.6504 37.457 91.6371 37.4151C91.3647 36.1626 90.4608 35.3464 89.227 35.3464H88.0801C87.7076 35.3464 87.2482 35.501 87.2482 36.1915V39.2036H88.3951C89.255 39.2036 89.757 38.8381 89.8866 37.6983C89.9013 37.6275 90.0441 37.5856 90.1442 37.5856C90.2591 37.5856 90.4019 37.6275 90.4019 37.6983C90.4019 38.4018 90.3297 38.867 90.3297 39.5286C90.3297 40.1903 90.4019 40.6265 90.4019 41.3301C90.4019 41.3864 90.2591 41.4428 90.1442 41.4428C90.0441 41.4428 89.8998 41.3864 89.8866 41.3301C89.757 40.1903 89.255 39.7814 88.3951 39.7814H87.2482V43.0044C87.2482 43.6935 87.7076 43.8351 88.0801 43.8351H89.227C90.5609 43.8351 91.7799 42.8354 92.1966 41.541C92.2113 41.4991 92.2835 41.4847 92.3689 41.4847C92.5558 41.4847 92.7413 41.5829 92.7134 41.6811C92.469 42.5118 92.2393 43.6097 92.0818 44.4823L92.0803 44.4779Z" fill="white"/>
<path d="M99.2225 44.4779C98.2758 44.4779 97.6162 44.4072 96.727 44.4072C95.8377 44.4072 95.1634 44.4779 94.202 44.4779C94.1446 44.4779 94.0872 44.3364 94.0872 44.2251C94.0872 44.1269 94.1446 43.9868 94.202 43.9723C95.4505 43.8452 95.636 43.536 95.636 42.7906V36.401C95.636 35.6556 95.4505 35.345 94.202 35.2048C94.1446 35.2048 94.0872 35.0633 94.0872 34.952C94.0872 34.8538 94.1446 34.6992 94.202 34.6992C95.1634 34.6992 95.8362 34.77 96.727 34.77C97.6177 34.77 98.2758 34.6992 99.2225 34.6992C99.2947 34.6992 99.3374 34.8538 99.3374 34.952C99.3374 35.0647 99.2947 35.2048 99.2225 35.2048C97.9887 35.345 97.8032 35.6556 97.8032 36.401V42.7906C97.8032 43.536 97.9902 43.8466 99.2225 43.9723C99.2947 43.9868 99.3374 44.1269 99.3374 44.2251C99.3374 44.3378 99.2947 44.4779 99.2225 44.4779Z" fill="white"/>
<path d="M111.4 44.4774C110.912 44.4774 110.008 44.4066 109.693 44.4066C109.278 44.4066 108.56 44.4774 108.145 44.4774L106.151 40.9453C105.692 40.1565 105.419 40.0164 104.545 40.0164V42.7887C104.545 43.5341 104.674 43.8447 105.921 43.9704C105.979 43.9848 106.036 44.1249 106.036 44.2232C106.036 44.3359 105.979 44.476 105.921 44.476C104.975 44.476 104.358 44.4052 103.469 44.4052C102.579 44.4052 101.92 44.476 100.973 44.476C100.901 44.476 100.858 44.3344 100.858 44.2232C100.858 44.1249 100.901 43.9848 100.973 43.9704C102.192 43.8432 102.394 43.5341 102.394 42.7887V36.399C102.394 35.6536 102.194 35.343 100.973 35.2029C100.901 35.2029 100.858 35.0613 100.858 34.9501C100.858 34.8518 100.901 34.6973 100.973 34.6973C101.92 34.6973 102.609 34.7681 103.498 34.7681C104.387 34.7681 104.86 34.6973 105.808 34.6973C108.461 34.6973 109.68 35.7807 109.68 37.2167C109.68 38.4129 108.92 39.2146 107.557 39.6509L109.708 42.9866C110.038 43.5355 110.382 43.8591 111.459 43.9718C111.516 43.9863 111.544 44.1264 111.544 44.2246C111.529 44.3373 111.472 44.4774 111.4 44.4774ZM105.677 35.2867C104.63 35.2867 104.543 35.5958 104.543 36.2719V39.4385C104.773 39.4804 105.045 39.4949 105.347 39.4949C106.824 39.4949 107.413 38.8188 107.413 37.3554C107.413 36.0321 106.911 35.2867 105.677 35.2867Z" fill="white"/>
<path d="M122.645 35.2024C121.397 35.3425 121.182 35.6242 121.182 36.3985V40.8177C121.182 42.9572 120.035 44.7023 117.467 44.7023C114.484 44.7023 112.991 43.197 112.991 40.705V36.3985C112.991 35.6531 112.804 35.3425 111.557 35.2024C111.5 35.2024 111.442 35.0608 111.442 34.9496C111.442 34.8513 111.5 34.6968 111.557 34.6968C112.504 34.6968 113.178 34.7675 114.067 34.7675C114.957 34.7675 115.631 34.6968 116.578 34.6968C116.635 34.6968 116.693 34.8513 116.693 34.9496C116.693 35.0622 116.635 35.2024 116.578 35.2024C115.329 35.3425 115.144 35.6531 115.144 36.3985V40.8451C115.144 43.1247 116.048 43.9135 117.812 43.9135C119.575 43.9135 120.479 42.8011 120.479 40.6761V36.3971C120.479 35.6517 120.25 35.3411 119.016 35.2009C118.958 35.2009 118.901 35.0594 118.901 34.9481C118.901 34.8499 118.958 34.6953 119.016 34.6953C119.675 34.6953 120.15 34.7661 120.837 34.7661C121.525 34.7661 121.927 34.6953 122.645 34.6953C122.702 34.6953 122.76 34.8499 122.76 34.9481C122.76 35.0608 122.702 35.2009 122.645 35.2009V35.2024Z" fill="white"/>
<path d="M133.388 37.6662C133.303 37.6662 133.188 37.6243 133.173 37.5809C132.814 36.3429 131.839 35.3432 130.706 35.3432H130.261C129.802 35.3432 129.644 35.4978 129.644 35.8922V42.7888C129.644 43.5343 129.831 43.8449 131.078 43.9705C131.136 43.985 131.193 44.1251 131.193 44.2233C131.193 44.336 131.136 44.4762 131.078 44.4762C130.132 44.4762 129.457 44.4054 128.583 44.4054C127.708 44.4054 127.004 44.4762 126.058 44.4762C126 44.4762 125.943 44.3346 125.943 44.2233C125.943 44.1251 126 43.985 126.058 43.9705C127.306 43.8434 127.492 43.5343 127.492 42.7888V35.8922C127.492 35.4703 127.334 35.3432 126.875 35.3432H126.545C125.526 35.3432 124.164 36.3992 123.762 37.5809C123.734 37.6373 123.633 37.6662 123.548 37.6662C123.39 37.6662 123.218 37.5809 123.246 37.4971C123.518 36.5408 123.72 35.4992 123.891 34.5703C124.465 34.683 125.956 34.7668 128.581 34.7668C131.206 34.7668 132.783 34.683 133.343 34.5703C133.415 35.4718 133.53 36.4989 133.687 37.4971C133.702 37.5809 133.572 37.6662 133.385 37.6662H133.388Z" fill="white"/>
<path d="M52.5977 27.3444C52.8701 26.9298 53.0305 26.4386 53.0305 25.9085C53.0305 25.3783 52.8701 24.8871 52.5977 24.4725C52.5565 23.7502 52.4858 23.0351 52.3842 22.3301C52.5682 21.8722 52.6271 21.3608 52.5226 20.8421C52.4181 20.3278 52.1678 19.8786 51.8233 19.5261C51.6289 18.7835 51.4007 18.0554 51.1431 17.3418C51.2284 16.8607 51.1813 16.3493 50.9752 15.8654C50.7691 15.38 50.4305 14.9899 50.0212 14.7111C49.687 14.0379 49.3248 13.3806 48.9331 12.7421C48.9214 12.2509 48.7727 11.7583 48.4708 11.322C48.169 10.8828 47.7553 10.5636 47.293 10.3714C46.8793 9.83981 46.4464 9.32552 45.993 8.82712C45.887 8.34462 45.6455 7.88522 45.2642 7.50962C44.8814 7.13401 44.4132 6.89709 43.9215 6.79453C43.3767 6.31635 42.8128 5.86129 42.2298 5.42935C42.031 4.97718 41.7027 4.57412 41.2551 4.28086C40.8076 3.9876 40.304 3.84459 39.8049 3.83592C39.1409 3.4502 38.4578 3.09193 37.7584 2.764C37.4713 2.36384 37.0709 2.0359 36.5762 1.83655C36.0815 1.63719 35.5618 1.59529 35.0715 1.68197C34.3545 1.43783 33.6228 1.22402 32.8793 1.042C32.5171 0.705398 32.0577 0.461255 31.5321 0.361575C31.0036 0.261896 30.4824 0.32257 30.0171 0.504594C29.3458 0.416471 28.667 0.352908 27.9795 0.315347C27.5569 0.04809 27.0563 -0.109375 26.516 -0.109375C25.9757 -0.109375 25.4751 0.04809 25.0525 0.315347C24.3164 0.355797 23.5876 0.425139 22.8691 0.524819C22.4024 0.34424 21.8812 0.286454 21.3527 0.389023C20.8285 0.491592 20.3707 0.73718 20.0114 1.07522C19.2547 1.26592 18.5126 1.48983 17.7853 1.74264C17.295 1.65886 16.7738 1.70508 16.2806 1.90733C15.7859 2.10958 15.3884 2.44185 15.1043 2.84345C14.4182 3.17139 13.7483 3.52677 13.0975 3.91104C12.5969 3.9226 12.0949 4.0685 11.6503 4.36465C11.2042 4.6608 10.8773 5.06674 10.6815 5.52036C10.1397 5.9263 9.61555 6.35102 9.10761 6.79597C8.61586 6.89998 8.14767 7.1369 7.76488 7.51106C7.38208 7.88667 7.14062 8.34606 7.03609 8.82857C6.54876 9.36308 6.08499 9.91638 5.64477 10.4885C5.18395 10.6835 4.77318 11.0056 4.4743 11.4448C4.17542 11.884 4.02967 12.378 4.02083 12.8678C3.62773 13.5193 3.2626 14.1896 2.92839 14.8758C2.52057 15.1575 2.18636 15.5504 1.98318 16.0358C1.78 16.5212 1.73731 17.0312 1.82564 17.5123C1.57683 18.2158 1.35893 18.9338 1.17342 19.6633C0.830373 20.0187 0.581556 20.4694 0.479968 20.9852C0.378379 21.5038 0.440216 22.0152 0.625725 22.4717C0.535915 23.1304 0.471134 23.7964 0.432854 24.4711C0.16048 24.8857 0 25.3768 0 25.907C0 26.4372 0.16048 26.9284 0.432854 27.343C0.474078 28.0653 0.544749 28.7804 0.646337 29.4854C0.4623 29.9433 0.403408 30.4547 0.507941 30.9733C0.612474 31.4876 0.862764 31.9369 1.20728 32.2894C1.40162 33.0319 1.62983 33.76 1.88748 34.4737C1.80209 34.9548 1.8492 35.4662 2.05532 35.9501C2.26144 36.4355 2.60007 36.8256 3.00937 37.1044C3.34358 37.7776 3.70576 38.4349 4.09739 39.0734C4.10917 39.5646 4.25787 40.0572 4.55969 40.4935C4.86151 40.9326 5.27523 41.2519 5.73753 41.444C6.15124 41.9757 6.5841 42.49 7.03756 42.9884C7.14357 43.4709 7.38502 43.9303 7.76635 44.3059C8.14914 44.6815 8.61733 44.9184 9.10908 45.021C9.65383 45.4977 10.2177 45.9542 10.8007 46.3861C10.9995 46.8383 11.3278 47.2414 11.7754 47.5346C12.223 47.8279 12.7265 47.9709 13.2256 47.9796C13.8896 48.3653 14.5728 48.7236 15.2721 49.0515C15.5592 49.4516 15.9597 49.7796 16.4544 49.9789C16.949 50.1783 17.4688 50.2202 17.959 50.1335C18.676 50.3777 19.4078 50.5915 20.1513 50.7735C20.5135 51.1101 20.9728 51.3542 21.4984 51.4539C22.027 51.5536 22.5482 51.4929 23.0134 51.3109C23.6848 51.399 24.3635 51.4626 25.0511 51.5001C25.4736 51.7674 25.9742 51.9249 26.5145 51.9249C27.0549 51.9249 27.5554 51.7674 27.978 51.5001C28.7141 51.4597 29.4429 51.3903 30.1614 51.2907C30.6281 51.4712 31.1493 51.529 31.6779 51.4265C32.202 51.3239 32.6599 51.0783 33.0191 50.7403C33.7759 50.5496 34.5179 50.3256 35.2452 50.0728C35.7355 50.1566 36.2567 50.1104 36.7499 49.9082C37.2446 49.7059 37.6421 49.3736 37.9263 48.972C38.6124 48.6441 39.2823 48.2887 39.933 47.9044C40.4336 47.8929 40.9356 47.747 41.3803 47.4508C41.8264 47.1547 42.1532 46.7487 42.3491 46.2951C42.8909 45.8892 43.415 45.4645 43.9229 45.0195C44.4147 44.9155 44.8829 44.6786 45.2657 44.3044C45.6485 43.9288 45.8899 43.4694 45.9944 42.9869C46.4818 42.4524 46.9455 41.8991 47.3858 41.327C47.8466 41.132 48.2574 40.8099 48.5562 40.3707C48.8551 39.9315 49.0009 39.4375 49.0097 38.9477C49.4028 38.2962 49.7679 37.6259 50.1021 36.9397C50.51 36.658 50.8442 36.265 51.0474 35.7796C51.2505 35.2942 51.2932 34.7843 51.2049 34.3032C51.4537 33.5997 51.6716 32.8817 51.8571 32.1522C52.2002 31.7968 52.449 31.3461 52.5506 30.8303C52.6522 30.3117 52.5903 29.8003 52.4048 29.3438C52.4946 28.685 52.5594 28.0191 52.5977 27.3444ZM51.7055 25.9085C51.7055 39.5371 40.4056 50.6247 26.516 50.6247C12.6264 50.6247 1.32506 39.5371 1.32506 25.9085C1.32506 12.2798 12.6249 1.19224 26.5145 1.19224C40.4041 1.19224 51.704 12.2798 51.704 25.9085H51.7055Z" fill="white"/>
<path d="M37.7245 27.631C37.5463 27.5154 36.6629 27.3955 35.3953 27.0907C34.8108 26.9505 33.5107 26.8668 33.5107 26.8653C32.5037 26.5822 32.489 26.5417 31.4142 26.6399C30.7531 26.7006 30.4543 26.5822 30.3659 26.4608C30.2643 26.3221 30.2069 25.8728 31.4024 25.9956C32.1459 26.0722 32.8232 25.7948 33.9716 25.1462C34.3853 24.9122 34.8049 24.5496 35.4056 24.3098C35.7707 24.1638 36.1344 24.0887 36.5834 23.9428C37.059 23.7868 37.1606 23.4343 37.0104 23.2335C36.9 23.0847 36.7454 22.9821 36.582 22.8897C35.8561 22.4808 34.6282 22.3797 33.4916 22.3003C32.8129 22.2526 32.514 21.799 32.0208 21.695C31.1845 21.5187 31.3244 21.2962 31.3244 21.2962C31.6159 20.8845 32.4316 21.3887 33.0882 21.4075C34.3956 21.445 34.7769 21.2457 34.7769 21.2457C34.7769 21.2457 34.8564 21.2255 34.9094 21.1677C34.9727 21.0969 34.9904 20.9755 34.9242 20.9004L34.8476 20.8123C34.5384 20.5089 33.7448 19.8892 32.7039 19.4847C32.0694 19.2376 31.7808 18.8129 31.4083 18.68C30.3247 18.2914 29.6239 18.2351 29.6239 18.2351C29.6239 18.2351 29.3339 18.1701 29.3368 18.0429C29.3368 17.9591 29.3942 17.9115 29.6121 17.897C29.9154 17.8782 30.2585 17.91 30.6692 17.91C31.08 17.91 31.9442 17.8248 31.9766 17.8219C32.0797 17.8118 32.1562 17.7266 32.1562 17.6254C32.1562 17.5835 32.14 17.5445 32.1165 17.5142C32.0605 17.4434 31.3406 17.2585 30.2658 16.9118C30.098 16.8583 29.7667 16.5203 29.5989 16.464C29.0217 16.2747 28.689 16.1505 28.396 16.0753C28.2444 16.0363 28.2591 15.9237 28.2635 15.9049C28.2871 15.8124 28.3886 15.6925 29.1748 15.9135C30.0376 16.1548 30.8547 15.9294 30.868 15.9294C30.971 15.9294 31.0564 15.8471 31.055 15.746C31.055 15.6477 30.9902 15.6073 30.9902 15.6073C30.9004 15.5249 30.3998 15.5639 30.2128 15.3126C29.6784 14.5932 29.113 14.4559 28.5712 14.2161C27.732 13.8463 27.1151 13.2641 26.9929 13.1384C26.7971 12.9362 26.3878 12.7744 25.98 13.1384C25.5559 13.5169 24.0822 15.0757 23.0177 15.3227C21.3231 15.7142 21.114 16.162 21.1155 16.3773C21.1155 16.4784 21.223 16.5954 21.4747 16.5564C21.4747 16.5564 22.2448 16.3729 22.8926 16.5246C23.4623 16.6575 24.4488 16.49 24.5195 16.49C24.6961 16.49 24.7226 16.594 24.7226 16.6344C24.7226 16.7355 24.6623 16.8482 24.253 16.8901C24.253 16.8901 23.4977 16.9262 21.8634 17.3683C20.5781 17.715 19.7625 18.2885 19.5151 18.4474C19.5151 18.4474 19.4135 18.5038 19.4209 18.6107C19.4283 18.7176 19.546 18.7595 19.546 18.7595C19.6903 18.8346 21.6308 19.0542 22.1167 19.0903C22.4524 19.1149 22.4509 19.3258 22.2506 19.4255C22.0563 19.5222 21.0802 19.7606 20.0658 20.5927C18.7009 21.7123 17.5776 21.7816 17.2905 21.8799C17.1492 21.9276 16.8724 22.0475 16.893 22.2873C16.918 22.5921 17.3464 22.6311 17.3464 22.6311C17.3464 22.6311 18.2681 22.6773 18.9498 22.9374C19.8596 23.2841 20.4662 23.3635 21.0478 23.2205C21.6293 23.0775 22.4892 23.1353 22.5495 23.4256C22.6055 23.7001 22.0416 23.6886 21.5808 23.7088C19.5622 23.7969 18.2607 24.447 17.7263 24.8038C17.5216 24.9411 17.6144 25.1852 17.85 25.2285C18.2799 25.3094 19.0072 25.386 19.6682 25.3239C20.3087 25.2632 20.8343 25.5926 21.3584 25.5362C21.5896 25.5117 21.6455 25.5637 21.647 25.6316C21.6485 25.6966 21.6058 25.7602 21.3629 25.8512C21.1641 25.9263 20.6238 25.9928 20.0908 26.1531C19.7345 26.26 19.1912 26.5013 18.9188 26.6024C18.1901 26.8754 17.607 27.3536 17.0343 27.5703C15.1807 28.2695 15.2204 28.7809 15.2204 28.7809C15.2204 28.7809 15.1674 29.2027 16.1789 29.3703C16.5013 29.4238 16.9342 29.3703 17.4215 29.4151C18.0561 29.4729 19.4386 29.6636 20.4279 29.6101C21.6411 29.5437 22.2845 29.2475 22.9382 29.0597C23.0957 29.0149 23.3078 29.1522 23.0589 29.392C22.7571 29.6823 22.1034 30.0117 21.6293 30.1417C21.6293 30.1417 20.294 30.344 19.5814 30.5C18.7186 30.6907 18.0134 31.1154 17.476 31.4159C17.2625 31.5344 17.3302 31.8507 17.5732 31.8782C17.5732 31.8782 18.8025 31.6572 19.2118 31.8955C19.6741 32.1498 19.8184 32.6207 21.7972 32.3202C23.5006 32.0617 24.5666 31.8002 24.5666 33.4081C24.5666 33.4861 24.5621 36.5155 24.5651 36.8304C24.5695 37.492 23.6405 37.9066 22.7512 37.9066C22.5289 37.9066 22.3611 38.0497 22.1667 38.1522C22.0754 38.1999 21.9253 38.2851 21.7353 38.34C21.5469 38.3949 20.6444 38.4744 20.1674 38.5697H17.4937C20.0496 40.3264 23.1605 41.3564 26.5159 41.3564C29.8712 41.3564 32.9954 40.3221 35.5543 38.5596H32.8806C32.2932 38.4542 31.5982 38.2967 31.2552 38.0294C31.0859 37.9124 30.9254 37.8055 30.5882 37.8012C30.4705 37.7997 29.5385 37.7506 29.0909 37.7116C28.4372 37.6538 28.4814 36.9301 28.4711 36.8318C28.4711 36.8275 28.4667 34.0394 28.4667 33.8992C28.4696 33.58 28.4034 32.9674 29.3721 33.1047C29.6857 33.1495 30.1053 33.3084 30.5529 33.291C31.4731 33.2549 31.8294 32.8143 32.5037 32.6381C33.1383 32.4734 33.5858 32.3621 33.8729 32.1714C34.0614 32.0472 34.1689 31.8565 34.1527 31.8031C34.1056 31.6514 33.7463 32.0617 32.8732 31.569C31.6336 30.8684 30.5691 30.7499 29.9404 30.9854C29.4045 31.1862 29.4178 30.5549 30.416 30.4018C31.0108 30.3108 31.8368 30.6098 33.1574 30.4292C34.3485 30.2674 34.9639 29.7676 35.9489 29.1984C36.5186 28.869 37.0104 28.7217 37.3917 28.4761C38.0528 28.0514 37.9836 27.7957 37.7215 27.6266L37.7245 27.631Z" fill="white"/>
<path d="M23.3256 47.4885C23.1784 47.4567 22.8898 47.3759 22.7205 47.3383C22.5512 47.3007 22.27 47.2588 22.1213 47.2256C22.1036 47.2213 22.1036 47.1707 22.1095 47.1433C22.1154 47.1187 22.136 47.0725 22.1551 47.0739C22.4039 47.0985 22.4658 47.0739 22.5173 46.8486L22.8118 45.5426C22.85 45.3736 22.8515 45.2364 22.6336 45.1887C22.6086 45.1829 22.5733 45.1786 22.5364 45.1742C22.5217 45.1742 22.5232 45.1208 22.5276 45.0962C22.5335 45.0717 22.5541 45.0298 22.5674 45.0327C22.8059 45.0081 23.2431 45.0341 23.464 44.9734C23.4964 44.9619 23.5155 44.9561 23.5405 44.9604C23.5685 44.9662 23.5891 45.0067 23.5847 45.0283C23.5391 45.167 23.4669 45.4169 23.4272 45.5961L23.1151 46.9786C23.065 47.2039 23.1224 47.2559 23.3595 47.3368C23.3727 47.3441 23.3757 47.3946 23.3698 47.4192C23.3639 47.4466 23.3388 47.4914 23.3241 47.4885H23.3256Z" fill="white"/>
<path d="M24.8362 47.6719C24.2973 47.6184 23.994 47.3382 24.0308 46.9842C24.0632 46.6722 24.2635 46.5017 24.6315 46.3992C24.3533 46.1998 24.2267 45.9976 24.2576 45.7C24.2944 45.3345 24.658 45.0658 25.1792 45.1178C25.5664 45.1553 25.9375 45.4067 25.8992 45.7838C25.8697 46.0669 25.6592 46.1608 25.378 46.2735C25.7343 46.4945 25.8462 46.8037 25.8197 47.0651C25.7814 47.4451 25.3397 47.7239 24.8377 47.6733L24.8362 47.6719ZM24.795 46.5393C24.6212 46.6014 24.5358 46.7473 24.5079 47.0189C24.4769 47.3281 24.6183 47.4769 24.845 47.5C25.0585 47.5217 25.1895 47.409 25.2131 47.1778C25.2381 46.9366 25.0467 46.6997 24.7935 46.5379L24.795 46.5393ZM25.1851 45.2882C24.9893 45.2695 24.87 45.372 24.8524 45.5454C24.8288 45.7794 24.9422 45.9513 25.2219 46.1478C25.353 46.0857 25.4192 45.96 25.4442 45.7216C25.4722 45.4457 25.3559 45.3041 25.1851 45.2882Z" fill="white"/>
<path d="M27.4655 47.7239C26.856 47.7499 26.4511 47.3844 26.4246 46.8051C26.3908 46.0264 27.1946 45.281 28.0206 44.9242C28.0353 44.9198 28.0692 44.9574 28.0809 44.982C28.0927 45.0094 28.103 45.0585 28.0883 45.0672C27.3389 45.528 27.0445 46.025 27.0827 46.9062C27.1019 47.3555 27.177 47.5679 27.4582 47.5563C27.732 47.5447 27.7659 47.3309 27.7497 46.9495C27.732 46.5364 27.682 46.3818 27.5156 46.389C27.4508 46.3919 27.3978 46.4078 27.3625 46.428C27.3477 46.4353 27.3036 46.4093 27.2889 46.389C27.2697 46.3688 27.2462 46.324 27.2565 46.3125C27.3212 46.2099 27.4582 46.1333 27.6348 46.1261C28.1104 46.1059 28.3798 46.4064 28.4004 46.8513C28.4196 47.2833 28.0809 47.7008 27.467 47.7268L27.4655 47.7239Z" fill="white"/>
<path d="M30.0614 47.4213C29.4637 47.5339 29.0073 47.232 28.8939 46.6614C28.7437 45.8972 29.4283 45.0434 30.191 44.571C30.2042 44.5652 30.244 44.597 30.2587 44.6187C30.2749 44.6447 30.2911 44.6924 30.2793 44.701C29.608 45.2644 29.3901 45.7989 29.5594 46.6643C29.6462 47.1049 29.7522 47.3057 30.0276 47.2537C30.297 47.2031 30.2985 46.9864 30.2248 46.6108C30.1453 46.2049 30.0717 46.059 29.9098 46.0908C29.8465 46.1023 29.7949 46.1269 29.764 46.1514C29.7508 46.1615 29.7037 46.1413 29.6845 46.1225C29.6624 46.1052 29.633 46.0633 29.6418 46.0518C29.6904 45.942 29.8141 45.8466 29.9878 45.8134C30.456 45.7253 30.7667 45.9839 30.8535 46.4216C30.9374 46.8449 30.6636 47.3086 30.0614 47.4213Z" fill="white"/>
<path d="M26.5145 8.84557C31.1581 8.84557 35.5235 10.6196 38.8067 13.8411C42.0899 17.0626 43.8979 21.346 43.8979 25.9023C43.8979 30.4587 42.0899 34.7421 38.8067 37.9636C35.5235 41.1851 31.1581 42.9591 26.5145 42.9591C21.8709 42.9591 17.5055 41.1851 14.2223 37.9636C10.9391 34.7421 9.13113 30.4587 9.13113 25.9023C9.13113 21.346 10.9391 17.0626 14.2223 13.8411C17.5055 10.6196 21.8709 8.84557 26.5145 8.84557ZM26.5145 8.55664C16.7517 8.55664 8.83667 16.323 8.83667 25.9023C8.83667 35.4817 16.7517 43.2481 26.5145 43.2481C36.2773 43.2481 44.1923 35.4817 44.1923 25.9023C44.1923 16.323 36.2773 8.55664 26.5145 8.55664Z" fill="white"/>
<path d="M26.5176 9.71659C30.9242 9.71659 35.0672 11.3996 38.1826 14.4579C41.2979 17.5147 43.0146 21.5799 43.0146 25.9037C43.0146 30.2275 41.2994 34.2927 38.1826 37.3495C35.0672 40.4064 30.9242 42.0908 26.5176 42.0908C22.111 42.0908 17.968 40.4078 14.8526 37.3495C11.7372 34.2927 10.0205 30.2275 10.0205 25.9037C10.0205 21.5799 11.7358 17.5147 14.8526 14.4579C17.968 11.401 22.111 9.71659 26.5176 9.71659ZM26.5176 9.2832C17.1626 9.2832 9.57886 16.7245 9.57886 25.9037C9.57886 35.0829 17.1626 42.5242 26.5176 42.5242C35.8725 42.5242 43.4563 35.0829 43.4563 25.9037C43.4563 16.7245 35.8725 9.2832 26.5176 9.2832Z" fill="white"/>
<path d="M26.5145 2.19151C32.9691 2.19151 39.0364 4.6575 43.6005 9.13586C48.1646 13.6142 50.6778 19.5676 50.6778 25.9008C50.6778 32.2341 48.1646 38.1874 43.6005 42.6658C39.0364 47.1441 32.9691 49.6101 26.5145 49.6101C20.06 49.6101 13.9927 47.1441 9.42857 42.6658C4.86446 38.1874 2.35125 32.2341 2.35125 25.9008C2.35125 19.5676 4.86446 13.6142 9.42857 9.13586C13.9927 4.6575 20.06 2.19151 26.5145 2.19151ZM26.5145 1.91992C13.0165 1.92137 2.07446 12.6579 2.07446 25.9023C2.07446 39.1467 13.0165 49.8832 26.5145 49.8832C40.0125 49.8832 50.9546 39.1467 50.9546 25.9023C50.9546 12.6579 40.0125 1.92137 26.5145 1.92137V1.91992Z" fill="white"/>
<path d="M10.4504 40.8212C10.7155 41.0119 10.8067 40.996 10.9481 40.8472L11.7475 39.9992C12.1347 39.589 12.6707 39.4546 13.1624 39.901C13.7351 40.4211 13.7484 40.97 13.2979 41.4468L12.519 42.2731C12.3836 42.4161 12.3644 42.5086 12.5779 42.7527C12.5897 42.7628 12.575 42.8004 12.5544 42.8206C12.5367 42.8394 12.4969 42.8596 12.4866 42.8495C12.3055 42.6848 12.1892 42.5534 12.0184 42.3988C11.8477 42.2442 11.7063 42.1402 11.5237 41.9755C11.512 41.9654 11.5296 41.9264 11.5473 41.9076C11.5679 41.8859 11.6047 41.8686 11.615 41.8787C11.88 42.0694 11.9713 42.042 12.1068 41.8989L12.9121 41.0466C13.3244 40.6089 13.2934 40.3012 12.9563 39.9935C12.6236 39.6915 12.2437 39.7421 11.8594 40.1495L11.085 40.97C10.9496 41.1131 10.9378 41.2127 11.1498 41.454C11.1601 41.4641 11.1468 41.5002 11.1262 41.5219C11.1086 41.5407 11.0688 41.5609 11.0585 41.5508C10.9319 41.4366 10.8539 41.3399 10.7213 41.22C10.5888 41.1 10.499 41.0437 10.3621 40.918C10.3518 40.9079 10.368 40.8689 10.3857 40.8501C10.4063 40.8285 10.4431 40.8111 10.4534 40.8212H10.4504Z" fill="white"/>
<path d="M9.01347 38.0809C9.02819 38.0983 9.03703 38.1286 9.03114 38.1373C8.83238 38.4117 8.78527 38.77 8.97078 38.9968L9.04292 39.0864C9.118 39.1774 9.17542 39.1846 9.25787 39.1196L10.6889 37.9899C10.8435 37.8686 10.8774 37.779 10.6992 37.5103C10.6934 37.4958 10.7125 37.4626 10.7331 37.4453C10.7567 37.4265 10.7949 37.4149 10.8053 37.4265C10.9598 37.6157 11.0555 37.7617 11.1998 37.9365C11.3456 38.1141 11.4722 38.2398 11.6283 38.4291C11.6371 38.4406 11.618 38.4753 11.5944 38.4941C11.5738 38.51 11.5355 38.5215 11.5223 38.5129C11.2911 38.2846 11.1969 38.2976 11.0423 38.4204L9.61122 39.5501C9.52289 39.6195 9.52289 39.6715 9.59797 39.7639L9.65245 39.8304C9.81882 40.0341 10.262 40.1337 10.5726 40.0196C10.5888 40.0167 10.6109 40.0312 10.6256 40.0485C10.6521 40.0803 10.6624 40.128 10.6404 40.1366C10.3974 40.2392 10.1486 40.3692 9.92629 40.4877C9.85562 40.3548 9.62889 40.0427 9.19898 39.5183C8.77202 38.9968 8.49375 38.692 8.37744 38.5981C8.55264 38.4363 8.74699 38.2456 8.92808 38.0506C8.9428 38.0332 8.98255 38.0462 9.012 38.0838L9.01347 38.0809Z" fill="white"/>
<path d="M6.16159 34.411C6.29262 34.6147 6.4266 34.6305 6.69309 34.6175L9.02226 34.5222C9.04287 34.5208 9.06643 34.541 9.08704 34.5814C9.10618 34.6175 9.10765 34.6537 9.09734 34.6667L7.59708 36.3655C7.40273 36.5822 7.36445 36.6631 7.46163 36.9246C7.46899 36.9376 7.44543 36.9737 7.41893 36.9867C7.39537 36.9983 7.3512 37.0041 7.34531 36.9911C7.23342 36.7744 7.18778 36.6444 7.08766 36.4508C6.98313 36.2471 6.88449 36.0983 6.77259 35.8816C6.76523 35.8686 6.79762 35.8397 6.82118 35.8281C6.84768 35.8151 6.88301 35.8021 6.89185 35.818C7.0111 36.0232 7.08619 36.055 7.17158 36.0174C7.21134 35.9972 7.26139 35.948 7.29673 35.909L8.36709 34.7114L6.77995 34.8126C6.72842 34.8183 6.64745 34.8328 6.6077 34.853C6.51641 34.9021 6.47961 34.9874 6.57678 35.207C6.58414 35.22 6.55322 35.2431 6.52672 35.2561C6.50464 35.2705 6.46194 35.2763 6.45311 35.2604C6.3633 35.087 6.34268 35.0061 6.2514 34.8285C6.17484 34.6811 6.11742 34.6103 6.03792 34.4557C6.0335 34.4456 6.05559 34.4182 6.08356 34.4052C6.10859 34.3965 6.1557 34.3893 6.16601 34.4095L6.16159 34.411Z" fill="white"/>
<path d="M7.86926 31.882C7.95318 32.1102 7.9944 32.2749 8.07391 32.4902C8.15341 32.704 8.23144 32.86 8.31684 33.0926C8.32272 33.107 8.29181 33.133 8.26383 33.1431C8.2388 33.1518 8.19905 33.1503 8.19022 33.1388C8.04741 32.8499 7.95318 32.8325 7.7662 32.899L6.16729 33.4696C5.98031 33.5361 5.91994 33.6083 5.9965 33.9218C6.00239 33.9348 5.97147 33.9622 5.9435 33.9723C5.91847 33.981 5.8743 33.981 5.86988 33.968C5.78449 33.7369 5.74179 33.5678 5.66229 33.354C5.58279 33.1402 5.50623 32.9871 5.42231 32.7589C5.41642 32.7415 5.45028 32.717 5.47531 32.7083C5.50328 32.6982 5.54303 32.6967 5.54892 32.7141C5.69468 32.9987 5.78891 33.016 5.97589 32.9495L7.5748 32.3789C7.76178 32.3125 7.82214 32.2402 7.74411 31.9311C7.74117 31.9123 7.77209 31.8892 7.79712 31.8805C7.82509 31.8704 7.86484 31.869 7.87073 31.8863L7.86926 31.882Z" fill="white"/>
<path d="M5.38124 29.5378C5.38713 29.5595 5.38124 29.5898 5.37241 29.597C5.07353 29.7617 4.8733 30.0651 4.94103 30.3468L4.96753 30.458C4.9955 30.5722 5.04409 30.6025 5.14715 30.5794L6.93451 30.1633C7.12738 30.1186 7.19658 30.0535 7.15388 29.7343C7.15388 29.7184 7.18775 29.6967 7.21278 29.6909C7.24222 29.6837 7.28197 29.6909 7.28492 29.7039C7.34234 29.9409 7.36442 30.1128 7.41742 30.3309C7.47043 30.5534 7.53079 30.721 7.58821 30.9564C7.59115 30.9709 7.55876 30.994 7.52932 30.9998C7.50429 31.0056 7.46454 30.9998 7.45718 30.9868C7.3497 30.6834 7.25842 30.656 7.06407 30.7007L5.27671 31.1168C5.16776 31.1428 5.1442 31.189 5.17218 31.3032L5.19132 31.3855C5.25315 31.6398 5.60798 31.9157 5.93924 31.9446C5.95544 31.9489 5.96869 31.972 5.97458 31.9937C5.98341 32.0327 5.9731 32.0804 5.94955 32.0789C5.68453 32.0688 5.40333 32.0818 5.15156 32.0948C5.14568 31.9446 5.07795 31.5675 4.92041 30.9131C4.76288 30.2616 4.6451 29.8701 4.58179 29.7372C4.81146 29.6649 5.07059 29.5739 5.31941 29.4742C5.34002 29.4656 5.36946 29.493 5.38124 29.5393V29.5378Z" fill="white"/>
<path d="M6.87402 26.4542C6.89905 26.6954 6.89611 26.8543 6.91672 27.0595C6.94028 27.2863 6.97708 27.4712 7.00211 27.7125C7.00358 27.7269 6.96825 27.7457 6.93733 27.7486C6.91083 27.7515 6.87255 27.7486 6.86813 27.7327C6.8328 27.4958 6.77391 27.438 6.68115 27.4481C6.63698 27.4524 6.58545 27.4755 6.52803 27.5001L6.10401 27.6995L6.18057 28.4608L6.59134 28.5691C6.6576 28.585 6.72238 28.6009 6.77538 28.5951C6.8755 28.585 6.93733 28.5243 6.92555 28.2918C6.9285 28.2773 6.96383 28.2658 6.99033 28.2629C7.01978 28.26 7.05953 28.2715 7.061 28.286C7.08309 28.5027 7.06984 28.5619 7.09045 28.7642C7.10665 28.9245 7.13315 29.0083 7.15081 29.1802C7.15229 29.199 7.11695 29.2134 7.08603 29.212C7.05953 29.2149 7.01978 29.1932 7.01536 29.1788C6.97267 28.9462 6.84899 28.8768 6.60018 28.7902L4.39615 28.1126C4.37996 28.1068 4.36229 28.0722 4.35787 28.0346C4.35346 27.9942 4.36524 27.9566 4.37996 27.9508L6.41614 26.9584C6.63551 26.8558 6.74152 26.746 6.74446 26.4715C6.74741 26.4571 6.78127 26.4311 6.80777 26.4282C6.83722 26.4253 6.87697 26.4368 6.87844 26.4513L6.87402 26.4542ZM5.10285 28.1704L6.02451 28.4174L5.95973 27.7688L5.10433 28.1704H5.10285Z" fill="white"/>
<path d="M7.08173 22.8231C7.06554 23.0658 7.03315 23.2479 7.01842 23.4747C7.00223 23.7029 7.00959 23.869 6.9934 24.1103C6.9934 24.1291 6.95364 24.1406 6.9242 24.1392C6.8977 24.1377 6.86089 24.1233 6.85942 24.106C6.84764 23.7954 6.76813 23.7347 6.56938 23.7332L4.85121 23.6885L6.98456 24.678C6.99928 24.6824 7.01106 24.7199 7.00959 24.7604C7.00665 24.8081 6.98898 24.8369 6.97426 24.8398L4.81146 25.5217L6.43098 25.7398C6.63268 25.7673 6.71513 25.7066 6.77108 25.3931C6.7755 25.3787 6.81378 25.3744 6.84028 25.3758C6.86972 25.3772 6.90653 25.3946 6.90506 25.4134C6.89181 25.6012 6.86383 25.7384 6.85206 25.9118C6.84028 26.0909 6.84911 26.2252 6.83733 26.3972C6.83733 26.4116 6.79758 26.4203 6.76814 26.4188C6.73869 26.4174 6.7063 26.3957 6.70335 26.3784C6.68863 26.0533 6.61502 25.9811 6.41773 25.9508L4.73048 25.6691C4.53319 25.6373 4.44633 25.7124 4.38744 26.0187C4.38744 26.0331 4.34768 26.0418 4.31824 26.0403C4.29174 26.0389 4.25199 26.0172 4.25346 26.0028C4.26229 25.8742 4.29321 25.6922 4.30057 25.5853C4.3094 25.461 4.30499 25.2573 4.31382 25.1172L6.24989 24.5119L4.41541 23.6596C4.42719 23.4949 4.45663 23.3418 4.46547 23.2132C4.47577 23.0586 4.46547 22.9214 4.47725 22.761C4.47725 22.7466 4.51994 22.735 4.54644 22.7365C4.57589 22.7379 4.6127 22.7523 4.6127 22.7668C4.62889 23.0774 4.70692 23.1381 4.90568 23.1438L6.60913 23.1756C6.80789 23.1785 6.88886 23.1424 6.94923 22.8188C6.95364 22.8043 6.98898 22.7913 7.01842 22.7942C7.04787 22.7971 7.08468 22.8101 7.08468 22.8246L7.08173 22.8231Z" fill="white"/>
<path d="M8.4894 18.1885C8.40695 18.4211 8.33334 18.5757 8.25825 18.7909C8.18169 19.0062 8.15225 19.1477 8.07127 19.3774C8.06538 19.3948 8.02563 19.3933 7.99765 19.3832C7.97263 19.3745 7.94171 19.3529 7.94318 19.3341C8.01679 19.0249 7.94465 18.9801 7.7562 18.9166L7.01269 18.6638L6.61517 19.7935L7.35868 20.0463C7.54713 20.1098 7.63105 20.1185 7.76798 19.831C7.77828 19.8151 7.81656 19.8166 7.84159 19.8253C7.86957 19.8354 7.90196 19.857 7.89607 19.8744C7.81509 20.1041 7.75178 20.2298 7.67522 20.445C7.59866 20.6603 7.55891 20.8307 7.47941 21.059C7.47499 21.0734 7.43377 21.0749 7.40579 21.0648C7.38076 21.0561 7.34985 21.0301 7.35132 21.0156C7.42493 20.7065 7.3631 20.6314 7.17612 20.5678L5.56837 20.0232C5.37992 19.9596 5.28569 19.9813 5.14435 20.2688C5.13993 20.2832 5.09871 20.2847 5.07074 20.2745C5.04571 20.2659 5.01184 20.2384 5.01626 20.2254C5.09724 19.9957 5.17232 19.8383 5.24741 19.623C5.32397 19.4078 5.35194 19.2691 5.43292 19.0394C5.43881 19.022 5.48151 19.0249 5.50653 19.0336C5.53451 19.0437 5.5669 19.0654 5.56101 19.0827C5.49181 19.3933 5.56248 19.4381 5.75094 19.5017L6.46941 19.7458L6.86693 18.6161L6.14845 18.372C5.96 18.3084 5.87608 18.2997 5.73621 18.5858C5.73032 18.6031 5.69057 18.6017 5.6626 18.5915C5.63757 18.5829 5.60223 18.5598 5.60812 18.5424C5.6891 18.3127 5.75388 18.1842 5.83044 17.9675C5.907 17.7522 5.94528 17.5861 6.02625 17.3535C6.03067 17.339 6.07484 17.339 6.09987 17.3477C6.12784 17.3578 6.15876 17.3838 6.15434 17.3968C6.08367 17.7118 6.14551 17.7825 6.33249 17.8461L7.94024 18.3907C8.12722 18.4543 8.22144 18.4355 8.35984 18.1437C8.36867 18.1307 8.40842 18.1293 8.43345 18.1379C8.46143 18.148 8.49235 18.174 8.48793 18.187L8.4894 18.1885Z" fill="white"/>
<path d="M9.87615 15.6446C9.75984 15.8584 9.66708 15.9899 9.56844 16.1719C9.45949 16.3727 9.38588 16.5475 9.26809 16.7613C9.26073 16.7743 9.22098 16.77 9.19448 16.7555C9.17092 16.744 9.14147 16.7194 9.14589 16.7049C9.25042 16.4883 9.23423 16.4088 9.15178 16.3655C9.11203 16.3452 9.05755 16.3366 8.99572 16.325L8.529 16.26L8.16093 16.9346L8.44066 17.2481C8.4863 17.2972 8.53194 17.3464 8.57759 17.3709C8.6674 17.4172 8.75279 17.3998 8.87352 17.2005C8.88382 17.1889 8.92063 17.2005 8.94419 17.212C8.97069 17.2265 8.99719 17.2568 8.98983 17.2698C8.8853 17.4619 8.84113 17.5053 8.74396 17.683C8.66592 17.826 8.64237 17.9083 8.55845 18.0615C8.54961 18.0773 8.51133 18.0701 8.4863 18.0528C8.46275 18.0412 8.44214 18.0008 8.44655 17.9863C8.54372 17.7696 8.47894 17.6454 8.32141 17.4359L6.8712 15.6706C6.86089 15.6576 6.86531 15.6171 6.88298 15.5854C6.90212 15.5492 6.93303 15.5247 6.94776 15.5276L9.20331 15.8136C9.44329 15.8483 9.59494 15.8136 9.751 15.5882C9.76131 15.5767 9.80548 15.5752 9.82756 15.5882C9.85406 15.6027 9.88057 15.633 9.8732 15.646L9.87615 15.6446ZM7.43067 16.1069L8.05639 16.8147L8.36852 16.2398L7.4292 16.1054L7.43067 16.1069Z" fill="white"/>
<path d="M10.842 14.3539C10.6962 14.5504 10.5254 14.7468 10.3885 14.9303C10.2516 15.1138 10.1353 15.3001 9.98951 15.4966C9.98068 15.5081 9.94093 15.498 9.91737 15.4807C9.89676 15.4648 9.87467 15.4316 9.88056 15.4171C10.044 15.1427 10.0087 15.0531 9.84817 14.9375L8.47452 13.9508C8.31404 13.8353 8.21687 13.8295 7.99603 14.0635C7.98719 14.0751 7.94744 14.065 7.92389 14.0476C7.90327 14.0317 7.87824 13.9971 7.88708 13.9841C8.03284 13.7876 8.16092 13.6475 8.29785 13.464C8.43477 13.2805 8.5393 13.1086 8.68506 12.9121C9.03105 12.4484 9.40648 12.3502 9.69064 12.5539C9.91148 12.7128 9.95712 13.0508 9.78192 13.4033C10.1117 13.0479 10.5313 12.9656 10.8066 13.1635C11.1541 13.4134 11.2248 13.8367 10.8405 14.351L10.842 14.3539ZM8.72481 13.1245L8.68948 13.1722C8.60997 13.2791 8.61881 13.373 8.71892 13.4438L9.35201 13.8974L9.48893 13.7139C9.69505 13.438 9.64058 13.243 9.36232 13.0436C9.10466 12.8587 8.90885 12.8775 8.72629 13.1245H8.72481ZM9.67886 13.7139L9.47568 13.9869L10.2045 14.5099C10.3502 14.6139 10.468 14.5995 10.6211 14.3943C10.7831 14.1776 10.761 13.8526 10.443 13.6243C10.1588 13.4207 9.87909 13.4467 9.67886 13.7139Z" fill="white"/>
<path d="M13.1195 11.8282C12.9472 11.9929 12.5232 12.409 12.3524 12.5838C12.1802 12.7586 11.7517 13.2122 11.5942 13.3841C11.5839 13.3942 11.5471 13.3798 11.525 13.3596C11.5058 13.3422 11.4896 13.3061 11.497 13.2931C11.6958 13.0417 11.6737 12.9493 11.5294 12.8135L10.303 11.6549C10.1602 11.5191 10.0645 11.5003 9.81271 11.7026C9.8024 11.7127 9.76412 11.6982 9.74351 11.678C9.72437 11.6607 9.70523 11.6217 9.71553 11.6116C9.88485 11.4498 10.303 11.038 10.4752 10.8632C10.6475 10.6884 11.045 10.2666 11.2055 10.0918C11.3645 10.2261 11.5795 10.3937 11.762 10.5151C11.7841 10.531 11.7738 10.5714 11.737 10.609C11.7193 10.6278 11.6928 10.6335 11.681 10.6278C11.391 10.4515 11.07 10.4703 10.8477 10.6985L10.6401 10.9109C10.5724 10.9802 10.5194 11.0929 10.6519 11.2172L11.2305 11.7632L11.4381 11.5509C11.5942 11.392 11.6148 11.2331 11.419 11.0019C11.4087 10.986 11.4263 10.9528 11.444 10.934C11.4646 10.9123 11.4985 10.8936 11.5117 10.9066C11.6472 11.0337 11.7237 11.1319 11.8504 11.2518C11.977 11.3717 12.0741 11.4382 12.2096 11.5653C12.2199 11.5754 12.2052 11.613 12.1846 11.6332C12.1669 11.652 12.1301 11.6679 12.1168 11.6607C11.8739 11.4786 11.7061 11.4974 11.55 11.6563L11.3424 11.8687L11.9608 12.4523C12.0933 12.578 12.2037 12.5173 12.2714 12.4494L12.479 12.2371C12.7205 11.99 12.7499 11.5841 12.5762 11.2721C12.5703 11.2619 12.5806 11.2461 12.5968 11.2302C12.6307 11.1955 12.6837 11.1796 12.6969 11.2027C12.8118 11.3977 12.9811 11.639 13.121 11.8268L13.1195 11.8282Z" fill="white"/>
<path d="M15.5121 9.92715C15.3177 10.0774 15.1793 10.1597 15.0144 10.2883C14.8319 10.4299 14.6935 10.5599 14.4991 10.7101C14.4873 10.7188 14.452 10.7 14.4343 10.6769C14.4181 10.6567 14.4005 10.6235 14.4108 10.6119C14.5948 10.4559 14.6125 10.3764 14.5551 10.3042C14.5271 10.2695 14.48 10.2406 14.4284 10.206L14.028 9.96182L13.4155 10.4342L13.5436 10.8315C13.5657 10.8936 13.5863 10.9572 13.6187 10.9976C13.6805 11.0756 13.7674 11.0944 13.9603 10.9586C13.975 10.9528 14.003 10.9774 14.0191 10.9976C14.0368 11.0207 14.0486 11.0583 14.0368 11.0684C13.8631 11.2028 13.8042 11.2244 13.6422 11.3501C13.5127 11.4498 13.4567 11.5162 13.3183 11.6232C13.3036 11.6347 13.2712 11.613 13.2565 11.587C13.2403 11.5668 13.2374 11.522 13.2477 11.5105C13.4243 11.3501 13.417 11.2114 13.3581 10.9572L12.7544 8.77C12.7515 8.75411 12.7706 8.71944 12.8001 8.69633C12.8325 8.67177 12.8708 8.66021 12.884 8.66888L14.8304 9.82025C15.0365 9.94593 15.1881 9.97483 15.4252 9.83036C15.4399 9.82458 15.4797 9.83903 15.4959 9.85925C15.515 9.88237 15.5253 9.91993 15.5135 9.93004L15.5121 9.92715ZM13.0857 9.38541L13.3684 10.2811L13.8896 9.87948L13.0842 9.38686L13.0857 9.38541Z" fill="white"/>
<path d="M17.133 6.23836C16.8665 6.4276 16.8459 6.52728 16.9401 6.6992L17.9663 8.57722C17.9751 8.59311 17.9619 8.622 17.9192 8.64512C17.8794 8.66679 17.8514 8.66967 17.8264 8.66245L15.2057 7.84479L15.936 9.16807C16.0273 9.34143 16.1392 9.37321 16.4366 9.24608C16.4542 9.2403 16.4807 9.26342 16.4955 9.28942C16.5102 9.31543 16.5161 9.35443 16.5028 9.36165C16.3365 9.45411 16.1995 9.50756 16.0449 9.59279C15.8845 9.68092 15.7755 9.76182 15.6253 9.84416C15.6121 9.85138 15.5826 9.82971 15.5664 9.80082C15.5517 9.77482 15.5488 9.7387 15.5635 9.72715C15.8285 9.54368 15.8462 9.44111 15.7534 9.2692L15.0055 7.83323C14.8966 7.63532 14.7744 7.58042 14.4608 7.70755C14.4475 7.71477 14.4195 7.68732 14.4048 7.66277C14.3916 7.63965 14.3813 7.5992 14.3974 7.59053C14.5093 7.52986 14.6418 7.47641 14.7375 7.4244C14.8553 7.35939 14.9054 7.31172 15.0526 7.23082L17.4583 7.99503L16.7723 6.79454C16.6751 6.62407 16.5544 6.60241 16.2584 6.72231C16.2408 6.72809 16.2143 6.70497 16.1995 6.67897C16.1848 6.65297 16.1775 6.61107 16.1907 6.60385C16.36 6.50995 16.4822 6.46805 16.6368 6.38427C16.7973 6.29614 16.9165 6.20513 17.0667 6.12279C17.0829 6.11412 17.1109 6.14012 17.1271 6.16902C17.1418 6.19502 17.1447 6.23113 17.1344 6.24125L17.133 6.23836Z" fill="white"/>
<path d="M20.2351 5.77023C20.2145 5.77745 20.1821 5.77745 20.1748 5.77023C19.9716 5.49864 19.6403 5.34118 19.3621 5.44374L19.2531 5.48419C19.1412 5.52464 19.1162 5.5781 19.153 5.67344L19.7949 7.36222C19.8641 7.54424 19.9392 7.60347 20.2558 7.52257C20.2705 7.52113 20.2985 7.55002 20.3073 7.57458C20.3176 7.60203 20.3161 7.64103 20.3029 7.64681C20.0717 7.73204 19.8995 7.77538 19.6845 7.85339C19.4666 7.93285 19.3047 8.0123 19.0735 8.09754C19.0588 8.10331 19.0323 8.07298 19.022 8.04553C19.0131 8.02097 19.0131 7.98196 19.0264 7.9733C19.3209 7.83028 19.337 7.73782 19.2678 7.5558L18.6259 5.86702C18.5862 5.76301 18.5361 5.74712 18.4242 5.78757L18.3432 5.81646C18.0944 5.90747 17.8589 6.28885 17.8706 6.6139C17.8692 6.62979 17.8471 6.64568 17.8265 6.65435C17.7882 6.66879 17.7381 6.66301 17.7367 6.6399C17.7146 6.38131 17.666 6.10828 17.6218 5.86558C17.7735 5.84102 18.146 5.72834 18.7894 5.49286C19.4283 5.25883 19.8111 5.09559 19.9377 5.01758C20.0393 5.23138 20.163 5.47264 20.294 5.70378C20.3058 5.72256 20.2823 5.75579 20.2366 5.77168L20.2351 5.77023Z" fill="white"/>
<path d="M24.9422 6.6842C24.6978 6.72032 24.5359 6.7261 24.3283 6.75643C24.0986 6.7911 23.9116 6.83733 23.6672 6.87345C23.6525 6.87634 23.6319 6.84167 23.6275 6.81277C23.6231 6.78677 23.626 6.74921 23.6393 6.74343C23.8778 6.6972 23.9337 6.63653 23.919 6.54552C23.9116 6.50218 23.8866 6.45306 23.8586 6.39816L23.6334 5.99222L22.8619 6.10635L22.7736 6.51373C22.7603 6.57874 22.7485 6.64375 22.7559 6.69431C22.7706 6.79255 22.8369 6.85033 23.0724 6.82578C23.0872 6.82578 23.1004 6.86189 23.1048 6.88789C23.1092 6.91679 23.1004 6.95579 23.0857 6.95724C22.8678 6.98902 22.8045 6.98035 22.6013 7.01069C22.4379 7.03525 22.3554 7.06558 22.1817 7.09159C22.1626 7.09448 22.1464 7.05981 22.1464 7.02947C22.1419 7.00347 22.1626 6.96446 22.1773 6.95868C22.4114 6.90523 22.4762 6.78099 22.5512 6.53107L23.1269 4.33667C23.1328 4.32078 23.1667 4.30056 23.2035 4.29478C23.2447 4.289 23.283 4.29767 23.2889 4.31211L24.4034 6.25659C24.5197 6.46606 24.636 6.5643 24.9157 6.55274C24.9305 6.55418 24.9584 6.58741 24.9629 6.61341C24.9673 6.64231 24.9584 6.68131 24.9437 6.68276L24.9422 6.6842ZM23.1048 5.03732L22.9002 5.95322L23.5568 5.85643L23.1048 5.03876V5.03732Z" fill="white"/>
<path d="M26.5735 6.66659C26.3261 6.67237 26.0626 6.66081 25.8314 6.66659C25.5988 6.67237 25.378 6.69693 25.1306 6.7027C25.1159 6.7027 25.0997 6.66659 25.0982 6.6377C25.0982 6.61169 25.1115 6.57413 25.1262 6.57124C25.4472 6.53079 25.4987 6.44845 25.4928 6.25342L25.4501 4.58343C25.4457 4.3884 25.3912 4.30895 25.0673 4.28005C25.0526 4.28005 25.0364 4.24394 25.0349 4.21505C25.0349 4.18904 25.0482 4.14859 25.0629 4.14859C25.3102 4.14281 25.5016 4.15582 25.7343 4.15004C25.9669 4.14426 26.1686 4.12115 26.4159 4.11392C27.0004 4.09948 27.3111 4.33062 27.3199 4.67733C27.3273 4.94603 27.0814 5.18728 26.6898 5.26674C27.1786 5.30574 27.501 5.58167 27.5098 5.91682C27.5201 6.3401 27.2213 6.65214 26.572 6.66948L26.5735 6.66659ZM26.2716 4.26994H26.2113C26.0758 4.27428 26.0066 4.33928 26.0096 4.46063L26.0302 5.22918L26.2628 5.2234C26.6117 5.21473 26.7354 5.05293 26.7266 4.71489C26.7192 4.40285 26.5838 4.26272 26.2731 4.26994H26.2716ZM26.3791 5.37075L26.0346 5.37942L26.0582 6.26642C26.0626 6.44267 26.148 6.52501 26.4056 6.51924C26.6795 6.51201 26.9283 6.29676 26.9194 5.9096C26.9106 5.56433 26.7177 5.36208 26.3806 5.37075H26.3791Z" fill="white"/>
<path d="M30.9344 4.63253C30.606 4.62676 30.5398 4.69176 30.5133 4.89257L30.3558 6.03816C30.2792 6.5929 29.92 7.00462 29.2545 6.9165C28.4815 6.81393 28.1488 6.37332 28.2371 5.72757L28.3902 4.61231C28.4167 4.41873 28.3799 4.33205 28.0619 4.2526C28.0472 4.25115 28.0369 4.21215 28.0413 4.18325C28.0443 4.15725 28.0649 4.11969 28.0796 4.12113C28.3255 4.15292 28.4963 4.19481 28.7274 4.22515C28.9571 4.25548 29.1352 4.25982 29.3796 4.29305C29.3944 4.29449 29.4032 4.33638 29.4002 4.36239C29.3958 4.39128 29.3767 4.42595 29.362 4.42451C29.0336 4.41873 28.9747 4.4924 28.9482 4.68599L28.7892 5.8388C28.7083 6.42966 28.9144 6.66513 29.3708 6.72581C29.8198 6.78504 30.1011 6.52934 30.1776 5.97893L30.3293 4.8709C30.3558 4.67732 30.3072 4.5892 29.9936 4.51118C29.9789 4.50974 29.9685 4.47074 29.973 4.44184C29.9759 4.41584 29.9965 4.37828 30.0112 4.37972C30.182 4.40284 30.3028 4.43751 30.4809 4.46062C30.6591 4.48374 30.7665 4.4794 30.952 4.50396C30.9668 4.50541 30.9771 4.5473 30.9726 4.5733C30.9682 4.6022 30.9491 4.63687 30.9344 4.63542V4.63253Z" fill="white"/>
<path d="M34.4413 5.62734C34.1189 5.56955 34.0306 5.62445 33.9702 5.8108L33.3033 7.83762C33.2974 7.85496 33.2679 7.86507 33.2208 7.85207C33.1781 7.83907 33.156 7.82173 33.1428 7.79862L31.9252 5.37886L31.4599 6.81338C31.3952 6.99829 31.4511 7.09942 31.75 7.22221C31.7662 7.23088 31.7677 7.26555 31.7588 7.29444C31.75 7.32334 31.725 7.35367 31.7102 7.34934C31.5277 7.29444 31.3922 7.23666 31.2244 7.1861C31.0492 7.13409 30.9137 7.11386 30.7488 7.06475C30.7341 7.06041 30.7297 7.0243 30.74 6.99251C30.7488 6.96507 30.7724 6.93762 30.7915 6.93906C31.1095 6.99829 31.1979 6.94051 31.2597 6.75559L31.7956 5.23151C31.8648 5.0177 31.8221 4.89346 31.51 4.75911C31.4953 4.75478 31.4953 4.71577 31.5041 4.68833C31.5115 4.66377 31.535 4.62765 31.5527 4.63343C31.6749 4.66954 31.8059 4.72733 31.909 4.75911C32.0386 4.79812 32.1078 4.79956 32.2697 4.84723L33.3769 7.07775L33.7817 5.76024C33.8392 5.57388 33.7729 5.47276 33.4785 5.34708C33.4623 5.33841 33.4608 5.30374 33.4696 5.27485C33.4785 5.24595 33.505 5.21273 33.5182 5.21706C33.7052 5.27196 33.82 5.32974 33.9893 5.37886C34.1645 5.43087 34.3147 5.45254 34.4796 5.50165C34.4973 5.50743 34.4973 5.54499 34.4885 5.57677C34.4796 5.60422 34.4561 5.63167 34.4399 5.63167L34.4413 5.62734Z" fill="white"/>
<path d="M35.1554 8.6362C35.0038 8.56253 34.6931 8.40073 34.5385 8.32561C34.381 8.24904 34.0365 8.0858 33.8819 8.01934C33.8686 8.01356 33.8716 7.97312 33.8848 7.94711C33.8966 7.924 33.926 7.89799 33.9422 7.90088C34.247 8.01068 34.3295 7.96156 34.4178 7.78676L35.1687 6.29156C35.257 6.11676 35.2467 6.02142 34.9728 5.84806C34.9596 5.84228 34.9625 5.80183 34.9758 5.77583C34.9876 5.75272 35.0185 5.72238 35.0332 5.7296C35.1819 5.80906 35.522 5.97952 35.681 6.05464C35.8356 6.12976 36.1566 6.27278 36.3082 6.34646C37.1857 6.77118 37.3742 7.50217 37.0503 8.14647C36.744 8.75611 36.0874 9.08837 35.1569 8.6362H35.1554ZM36.2228 6.47792L35.9946 6.37535C35.9019 6.3349 35.7841 6.31034 35.7031 6.47214L34.8889 8.09157C34.808 8.25337 34.8992 8.32994 34.9876 8.37761L35.2099 8.49318C35.7222 8.74599 36.2155 8.48018 36.5143 7.88644C36.8206 7.27536 36.7514 6.72495 36.2228 6.47792Z" fill="white"/>
<path d="M38.8097 10.8608C38.6066 10.7221 38.4844 10.6181 38.3121 10.4996C38.1207 10.3696 37.9529 10.2786 37.7497 10.1399C37.7379 10.1312 37.7468 10.0922 37.7629 10.0691C37.7777 10.0474 37.8056 10.0214 37.8204 10.0272C38.0265 10.1543 38.1089 10.1471 38.1619 10.072C38.187 10.0359 38.2017 9.98243 38.2208 9.92465L38.3401 9.47826L37.6996 9.04342L37.3507 9.28034C37.2962 9.31935 37.2418 9.35835 37.2108 9.40025C37.1534 9.48115 37.1608 9.56782 37.3492 9.7094C37.3595 9.72096 37.3448 9.75563 37.3286 9.77585C37.311 9.80041 37.2786 9.82208 37.2653 9.81341C37.0842 9.69062 37.0445 9.6415 36.8752 9.52593C36.7397 9.43347 36.6587 9.40025 36.513 9.30201C36.4982 9.2919 36.51 9.25434 36.5292 9.23267C36.5439 9.211 36.5866 9.19655 36.6013 9.20089C36.8089 9.31935 36.9429 9.27167 37.1726 9.14166L39.1248 7.93106C39.1395 7.92239 39.1793 7.93106 39.2102 7.95273C39.2441 7.97584 39.2662 8.00907 39.2603 8.02351L38.7141 10.1876C38.6522 10.4173 38.6684 10.569 38.8804 10.7481C38.8907 10.7596 38.8878 10.803 38.8731 10.8232C38.8554 10.8478 38.823 10.8694 38.8097 10.8608ZM38.6228 8.42512L37.8351 8.95386L38.3813 9.32368L38.6242 8.42368L38.6228 8.42512Z" fill="white"/>
<path d="M42.8804 11.2915C42.6184 11.0979 42.5153 11.108 42.3755 11.2467L40.8502 12.7621C40.8369 12.7751 40.806 12.7708 40.7707 12.7376C40.7383 12.7072 40.7265 12.6812 40.7265 12.6552L40.75 9.95665L39.6767 11.0315C39.5339 11.1672 39.5369 11.2814 39.7474 11.5241C39.7577 11.54 39.743 11.5717 39.7224 11.592C39.7018 11.6136 39.665 11.6295 39.6547 11.6194C39.5163 11.4894 39.4235 11.3782 39.2954 11.2583C39.1629 11.134 39.051 11.056 38.9259 10.939C38.9156 10.9289 38.9273 10.8942 38.9509 10.8711C38.9715 10.8494 39.0054 10.8364 39.0216 10.8465C39.2777 11.0401 39.3838 11.0271 39.5236 10.8884L40.7015 9.76307C40.8619 9.60271 40.8796 9.47269 40.6632 9.21555C40.6529 9.20544 40.6705 9.17077 40.6911 9.15054C40.7088 9.13176 40.7456 9.11009 40.7589 9.12309C40.8516 9.20977 40.9414 9.31956 41.0209 9.39179C41.1181 9.48281 41.1799 9.51459 41.3036 9.63016L41.2698 12.1106L42.2356 11.1138C42.3725 10.9722 42.3593 10.8538 42.1531 10.6111C42.1428 10.5952 42.1576 10.5648 42.1782 10.5432C42.1988 10.5215 42.2385 10.5027 42.2488 10.5128C42.3902 10.6443 42.4667 10.7469 42.5948 10.8653C42.7273 10.9896 42.8525 11.0748 42.9776 11.1918C42.9909 11.2048 42.9732 11.2395 42.9496 11.2626C42.929 11.2843 42.8952 11.2973 42.8819 11.29L42.8804 11.2915Z" fill="white"/>
<path d="M44.2514 14.0565C44.2381 14.0391 44.2278 14.0088 44.2352 13.9987C44.4383 13.7285 44.4928 13.3703 44.3117 13.1406L44.2411 13.051C44.1674 12.9586 44.11 12.9513 44.0261 13.0135L42.573 14.1157C42.4154 14.2356 42.3801 14.3223 42.5538 14.5953C42.5597 14.6098 42.5391 14.643 42.5185 14.6589C42.4949 14.6762 42.4566 14.6878 42.4463 14.6762C42.2947 14.4841 42.2019 14.3367 42.0621 14.159C41.9193 13.9785 41.7956 13.8499 41.6439 13.6578C41.6351 13.6462 41.6557 13.6115 41.6793 13.5942C41.6999 13.5783 41.7382 13.5682 41.7514 13.5769C41.9781 13.8094 42.0724 13.7979 42.2299 13.6794L43.6831 12.5772C43.7714 12.5093 43.7729 12.4573 43.7007 12.3648L43.6477 12.2984C43.4843 12.0918 43.0441 11.9849 42.7305 12.0918C42.7143 12.0947 42.6922 12.0788 42.679 12.0614C42.6539 12.0297 42.6436 11.9805 42.6657 11.9733C42.9101 11.8751 43.1619 11.7494 43.3857 11.6367C43.4534 11.7711 43.6742 12.0874 44.0938 12.6191C44.512 13.1492 44.7843 13.4584 44.8962 13.5537C44.7181 13.7127 44.5193 13.9005 44.3353 14.0911C44.3191 14.107 44.2808 14.0955 44.2514 14.0565Z" fill="white"/>
<path d="M43.6476 16.5287C43.5195 16.3207 43.4474 16.1661 43.3267 15.9711C43.2059 15.776 43.0999 15.6374 42.9704 15.4264C42.963 15.4134 42.9866 15.3817 43.0131 15.3672C43.0351 15.3542 43.0749 15.347 43.0867 15.3585C43.284 15.6157 43.3797 15.6142 43.5504 15.5131L45.0065 14.6507C45.1773 14.5495 45.2215 14.4672 45.086 14.1739C45.0787 14.1609 45.1022 14.1292 45.1287 14.1147C45.1508 14.1017 45.1935 14.093 45.2024 14.106C45.3319 14.317 45.407 14.4744 45.5277 14.6694C45.6485 14.8645 45.753 15.0003 45.8811 15.2083C45.8914 15.2242 45.8619 15.2545 45.8384 15.2675C45.8134 15.282 45.7751 15.2921 45.7648 15.2762C45.566 15.0248 45.4703 15.0248 45.301 15.126L43.8449 15.9884C43.6741 16.0895 43.6299 16.1719 43.7669 16.4593C43.7728 16.4767 43.7477 16.5056 43.7242 16.5186C43.6991 16.533 43.6609 16.5431 43.6506 16.5272L43.6476 16.5287Z" fill="white"/>
<path d="M47.265 18.3671C47.0971 18.0898 47.0058 18.0695 46.8174 18.1519L45.7426 18.6243C45.2229 18.8525 44.6752 18.7702 44.4013 18.1692C44.0833 17.4715 44.2894 16.9615 44.8946 16.6943L45.9414 16.2349C46.1225 16.1554 46.1784 16.0788 46.0783 15.7711C46.0724 15.7581 46.1004 15.7292 46.1283 15.7177C46.1519 15.7076 46.1961 15.7047 46.202 15.7177C46.3035 15.9387 46.358 16.1048 46.4523 16.3129C46.548 16.5209 46.6363 16.6711 46.7379 16.8922C46.7438 16.9052 46.7128 16.9355 46.6893 16.9456C46.6613 16.9572 46.6216 16.9586 46.6157 16.9456C46.4478 16.6683 46.3536 16.6581 46.171 16.7376L45.0904 17.2129C44.5368 17.457 44.4411 17.7517 44.6296 18.1649C44.8151 18.5708 45.1846 18.6705 45.7014 18.4437L46.7408 17.9872C46.9219 17.9077 46.9734 17.8211 46.8748 17.5177C46.8689 17.5047 46.8969 17.4758 46.9234 17.4642C46.9469 17.4541 46.9911 17.4512 46.997 17.4642C47.0677 17.6188 47.1015 17.7373 47.1751 17.8976C47.2488 18.0594 47.3091 18.1447 47.3857 18.3137C47.3916 18.3267 47.3607 18.357 47.3371 18.3671C47.3091 18.3787 47.2694 18.3816 47.2635 18.3671H47.265Z" fill="white"/>
<path d="M45.2407 20.4008C45.1435 20.0801 45.2112 19.8678 45.1538 19.589C45.3452 19.5254 45.6456 19.43 45.8134 19.365C45.8281 19.3607 45.8546 19.3954 45.862 19.4243C45.8693 19.4488 45.8708 19.4792 45.8517 19.4922C45.4468 19.7305 45.2907 20.0512 45.3864 20.3662C45.4748 20.658 45.6779 20.7331 45.9194 20.6638C46.473 20.502 46.18 19.3246 46.8808 19.1194C47.2827 19.001 47.7244 19.2177 47.8849 19.7421C47.9644 20.0021 47.9144 20.0975 47.9629 20.3604C47.7612 20.4312 47.5669 20.4991 47.377 20.5814C47.3637 20.5886 47.3372 20.554 47.3299 20.5294C47.321 20.502 47.3181 20.4644 47.3387 20.4543C47.6832 20.2607 47.8157 20.0426 47.7362 19.7811C47.6626 19.5384 47.4624 19.4315 47.243 19.4965C46.7365 19.6453 46.9942 20.8241 46.3007 21.0278C45.8046 21.1737 45.3967 20.9122 45.2421 20.4023L45.2407 20.4008Z" fill="white"/>
<path d="M46.1771 26.0922C46.1594 25.8466 46.1668 25.6761 46.1506 25.4493C46.1344 25.221 46.1064 25.0795 46.0888 24.8382C46.0888 24.8194 46.1241 24.8064 46.1536 24.805C46.1801 24.8035 46.2183 24.8122 46.2227 24.8295C46.2787 25.143 46.3626 25.156 46.5599 25.1416L47.3461 25.0896L47.2622 23.8963L46.476 23.9498C46.2772 23.9628 46.1962 23.9873 46.1845 24.3051C46.1815 24.3239 46.1447 24.3369 46.1197 24.3384C46.0902 24.3398 46.052 24.3326 46.0505 24.3138C46.0343 24.0711 46.0431 23.931 46.0269 23.7027C46.0107 23.4759 45.9798 23.304 45.9636 23.0613C45.9636 23.0469 45.999 23.0295 46.0284 23.0281C46.0549 23.0266 46.0932 23.0382 46.0976 23.0527C46.1535 23.3661 46.2389 23.4124 46.4377 23.3994L48.1353 23.2852C48.334 23.2722 48.412 23.2145 48.4268 22.8966C48.4268 22.8822 48.4621 22.8648 48.4915 22.8634C48.518 22.862 48.5593 22.8735 48.5607 22.888C48.5769 23.1307 48.5711 23.304 48.5873 23.5308C48.6034 23.7591 48.6314 23.8963 48.6491 24.139C48.6491 24.1578 48.6093 24.1708 48.5843 24.1722C48.5549 24.1737 48.5166 24.1665 48.5151 24.1477C48.4562 23.8342 48.3723 23.8212 48.1735 23.8356L47.4138 23.8862L47.4978 25.0795L48.2575 25.0289C48.4562 25.0159 48.5372 24.9913 48.5519 24.6735C48.5519 24.6547 48.5872 24.6417 48.6167 24.6403C48.6432 24.6389 48.6844 24.6461 48.6859 24.6649C48.7021 24.9076 48.6947 25.052 48.7094 25.2788C48.7256 25.5071 48.7551 25.6747 48.7728 25.9202C48.7728 25.9347 48.733 25.952 48.708 25.9535C48.6785 25.9549 48.6402 25.9434 48.6388 25.9289C48.5784 25.6125 48.493 25.5692 48.2957 25.5836L46.5982 25.6978C46.3994 25.7108 46.3214 25.7642 46.3096 26.0864C46.3067 26.1008 46.2699 26.1182 46.2448 26.1196C46.2154 26.1211 46.1771 26.1095 46.1756 26.095L46.1771 26.0922Z" fill="white"/>
<path d="M45.9222 28.9654C45.9443 28.7242 45.9767 28.5681 45.9943 28.363C46.0149 28.1362 46.012 27.9469 46.0341 27.7057C46.0341 27.6912 46.0738 27.6797 46.1033 27.6826C46.1298 27.684 46.1666 27.6956 46.1681 27.71C46.1577 27.9498 46.2049 28.0163 46.2976 28.0235C46.3418 28.0278 46.3963 28.0134 46.4581 28.0004L46.913 27.8805L46.9808 27.1177L46.598 26.9371C46.5361 26.9097 46.4743 26.8823 46.4228 26.8779C46.3212 26.8693 46.2505 26.9184 46.2181 27.1481C46.2137 27.1625 46.1754 27.1668 46.1489 27.164C46.1195 27.1611 46.0827 27.1437 46.0841 27.1293C46.1033 26.9126 46.1268 26.8563 46.1445 26.654C46.1592 26.4922 46.1474 26.407 46.1622 26.2351C46.1636 26.2163 46.2019 26.2091 46.2314 26.2148C46.2579 26.2177 46.2932 26.2466 46.2947 26.2611C46.2932 26.4965 46.4007 26.5875 46.6304 26.7176L48.6695 27.7823C48.6842 27.7909 48.696 27.8285 48.6916 27.866C48.6886 27.9065 48.6695 27.9412 48.6548 27.9441L46.4669 28.5508C46.2314 28.6115 46.1077 28.701 46.0532 28.9697C46.0488 28.9842 46.009 29.003 45.9825 29.0001C45.9531 28.9972 45.9163 28.9799 45.9178 28.9654H45.9222ZM47.9849 27.5988L47.125 27.19L47.0676 27.8386L47.9849 27.5988Z" fill="white"/>
<path d="M45.5498 30.5266C45.6057 30.2897 45.6838 30.0441 45.7368 29.8216C45.7898 29.5991 45.8207 29.3839 45.8781 29.147C45.881 29.1325 45.9208 29.1267 45.9502 29.134C45.9753 29.1397 46.0091 29.1629 46.0091 29.1773C45.9694 29.4922 46.0371 29.5616 46.2315 29.6064L47.8893 29.9849C48.0821 30.0296 48.1749 29.9964 48.2838 29.6974C48.2868 29.6829 48.3265 29.6772 48.356 29.6844C48.381 29.6902 48.4178 29.7133 48.4149 29.7277C48.3589 29.9646 48.2971 30.1423 48.2441 30.3648C48.1911 30.5873 48.1646 30.7852 48.1072 31.0207C47.9746 31.5797 47.6684 31.8152 47.3254 31.7372C47.0589 31.6765 46.8822 31.3833 46.9013 30.9903C46.7394 31.4439 46.3875 31.6809 46.0548 31.6057C45.6352 31.5104 45.4011 31.1463 45.5483 30.5266H45.5498ZM46.8748 30.6667L46.9529 30.3373L46.0724 30.1365C45.8972 30.0961 45.7942 30.1568 45.7353 30.4038C45.6735 30.6653 45.8236 30.9571 46.2064 31.0438C46.5495 31.1218 46.7968 30.9903 46.8734 30.6667H46.8748ZM47.9879 30.8415L48.0012 30.7837C48.0321 30.6552 47.9864 30.5728 47.8657 30.5454L47.1031 30.3706L47.0501 30.593C46.9705 30.9268 47.0986 31.0842 47.4358 31.1608C47.7464 31.2316 47.9187 31.1391 47.9894 30.8415H47.9879Z" fill="white"/>
<path d="M44.4602 33.7254C44.553 33.5087 44.7767 32.9627 44.8651 32.7358C44.9534 32.509 45.1669 31.9283 45.2449 31.7087C45.2508 31.6943 45.2906 31.6943 45.3186 31.7044C45.3436 31.713 45.373 31.7405 45.3716 31.7549C45.2876 32.0626 45.3465 32.1392 45.532 32.2086L47.1221 32.8037C47.3076 32.8731 47.4033 32.8543 47.5535 32.5712C47.5594 32.5582 47.5991 32.5567 47.6271 32.5668C47.6521 32.5755 47.6845 32.6044 47.6801 32.6174C47.5888 32.8312 47.368 33.37 47.2796 33.5968C47.1913 33.8237 46.994 34.3639 46.9145 34.5864C46.7143 34.5229 46.4493 34.4521 46.2328 34.4102C46.2063 34.4044 46.199 34.3625 46.2181 34.3134C46.227 34.2888 46.249 34.2744 46.2608 34.2744C46.598 34.3249 46.8851 34.1848 46.9999 33.8901L47.1074 33.6156C47.1427 33.5261 47.1471 33.4018 46.9749 33.3383L46.2255 33.058L46.118 33.3325C46.0385 33.5391 46.0827 33.6936 46.3536 33.8309C46.3698 33.841 46.3668 33.8786 46.358 33.9031C46.3477 33.9306 46.3241 33.9609 46.3065 33.9551C46.1313 33.8901 46.0223 33.8294 45.8574 33.7673C45.6925 33.7052 45.5777 33.6821 45.4025 33.6171C45.3892 33.6113 45.3877 33.5723 45.3981 33.5448C45.4069 33.5203 45.4349 33.4914 45.4496 33.4928C45.7455 33.568 45.8942 33.4856 45.9737 33.279L46.0812 33.0045L45.2788 32.7041C45.1065 32.6391 45.03 32.7373 44.9946 32.8254L44.8872 33.0999C44.7635 33.4192 44.8975 33.8049 45.1816 34.0245C45.1905 34.0317 45.1875 34.0505 45.1802 34.0707C45.1625 34.1155 45.1213 34.1501 45.0992 34.1343C44.9151 33.9985 44.6634 33.841 44.4617 33.7225L44.4602 33.7254Z" fill="white"/>
<path d="M43.01 36.3897C43.1293 36.1773 43.2235 36.0473 43.3251 35.8667C43.437 35.6674 43.5135 35.494 43.6328 35.2816C43.6401 35.2686 43.6799 35.273 43.7064 35.2874C43.73 35.3004 43.7579 35.3235 43.755 35.3394C43.6475 35.5547 43.6622 35.6341 43.7447 35.6775C43.7844 35.6991 43.8389 35.7078 43.9007 35.7194L44.366 35.7902L44.7429 35.1198L44.4676 34.802C44.4219 34.7529 44.3778 34.7023 44.3321 34.6778C44.2438 34.6301 44.1569 34.646 44.0333 34.8439C44.0229 34.8555 43.9861 34.8439 43.9641 34.8309C43.9376 34.8165 43.9125 34.7861 43.9199 34.7731C44.0274 34.5824 44.0715 34.5405 44.1716 34.3629C44.2512 34.2213 44.2762 34.1389 44.3616 33.9873C44.3704 33.9714 44.4087 33.9786 44.4337 33.9974C44.4573 34.0104 44.4764 34.0508 44.4735 34.0653C44.3734 34.2805 44.4352 34.4062 44.5913 34.6171L46.015 36.4012C46.0238 36.4142 46.0194 36.4547 46.0017 36.4865C45.9811 36.5226 45.9502 36.5471 45.9355 36.5428L43.6858 36.2264C43.4458 36.1889 43.2956 36.2207 43.1352 36.4446C43.1248 36.4561 43.0807 36.4576 43.0586 36.4446C43.0321 36.4301 43.0071 36.3998 43.0144 36.3868L43.01 36.3897ZM45.4599 35.9621L44.8445 35.2455L44.5235 35.8147L45.4599 35.9606V35.9621Z" fill="white"/>
<path d="M42.9792 40.4077C43.1499 40.1318 43.1293 40.0321 42.9733 39.9108L41.2831 38.573C41.2683 38.5615 41.2698 38.5297 41.2993 38.4921C41.3272 38.4575 41.3523 38.443 41.3788 38.4401L44.1172 38.1931L42.9203 37.2541C42.7686 37.1284 42.6523 37.1428 42.4285 37.3725C42.4138 37.3841 42.3799 37.3725 42.3564 37.3552C42.3328 37.3379 42.3122 37.3032 42.321 37.2916C42.4388 37.1428 42.5433 37.0417 42.6508 36.9045C42.7627 36.7615 42.8319 36.6459 42.9365 36.513C42.9453 36.5014 42.9821 36.5101 43.0086 36.5303C43.0322 36.5477 43.0498 36.5794 43.041 36.5968C42.8702 36.8669 42.8938 36.9695 43.0483 37.0908L44.3072 38.1281C44.4853 38.2682 44.6193 38.2726 44.8593 38.0356C44.8681 38.0241 44.9049 38.0385 44.9285 38.0559C44.9491 38.0717 44.9741 38.105 44.9638 38.1194C44.8858 38.2177 44.7842 38.3173 44.7165 38.4011C44.634 38.5051 44.6075 38.5687 44.5044 38.7002L41.9854 38.9154L43.0925 39.7591C43.2501 39.879 43.3693 39.853 43.5946 39.6291C43.6093 39.6175 43.6432 39.6291 43.6667 39.6464C43.6903 39.6652 43.7138 39.7013 43.705 39.7129C43.5857 39.8645 43.49 39.9498 43.3811 40.0856C43.2677 40.2286 43.1941 40.3572 43.0881 40.4915C43.0763 40.506 43.0395 40.4915 43.013 40.4713C42.9895 40.4539 42.9718 40.4207 42.9777 40.4077H42.9792Z" fill="white"/>
<path d="M40.3158 42.0231C40.332 42.0072 40.3615 41.9957 40.3718 42.0014C40.6662 42.1734 41.0343 42.1907 41.2493 41.9899L41.3332 41.9119C41.42 41.831 41.4215 41.7732 41.3494 41.6995L40.0861 40.3921C39.9492 40.2505 39.8579 40.2245 39.5973 40.421C39.5841 40.4282 39.5473 40.4123 39.5296 40.3936C39.509 40.3719 39.4943 40.3358 39.5046 40.3257C39.6842 40.1581 39.8256 40.0526 39.9904 39.8981C40.1598 39.7406 40.2761 39.6062 40.4557 39.4387C40.466 39.4286 40.5028 39.4444 40.5234 39.4661C40.5411 39.4849 40.5558 39.521 40.5484 39.534C40.335 39.7782 40.3571 39.8692 40.4925 40.0107L41.7557 41.3181C41.8338 41.3976 41.8868 41.3947 41.9736 41.3138L42.0369 41.256C42.2298 41.0769 42.2946 40.6363 42.1547 40.3416C42.1503 40.3257 42.1636 40.3026 42.1797 40.2881C42.2092 40.2607 42.2578 40.2462 42.2681 40.2664C42.3918 40.4961 42.5449 40.7287 42.6818 40.9353C42.5522 41.0148 42.2534 41.2618 41.7557 41.7255C41.261 42.1864 40.9739 42.4825 40.8885 42.6039C40.7104 42.4464 40.4999 42.2716 40.2864 42.1098C40.2687 42.0968 40.2775 42.0578 40.3129 42.0246L40.3158 42.0231Z" fill="white"/>
<path d="M19.4049 45.425C19.3799 45.425 19.3548 45.4207 19.3298 45.412C17.672 44.8255 16.0907 44.0324 14.6317 43.0529C14.5316 42.985 14.5051 42.8507 14.5743 42.7525C14.6435 42.6542 14.7804 42.6282 14.8805 42.6961C16.3101 43.6539 17.8575 44.4311 19.48 45.0046C19.5948 45.0451 19.6537 45.1693 19.6125 45.282C19.5801 45.3701 19.4947 45.425 19.4049 45.425Z" fill="white"/>
<path d="M33.6243 45.425C33.5345 45.425 33.4491 45.3701 33.4167 45.282C33.3755 45.1693 33.4344 45.0451 33.5492 45.0046C35.1732 44.4297 36.7205 43.6539 38.1501 42.6961C38.2502 42.6282 38.3886 42.6542 38.4564 42.7525C38.5256 42.8507 38.4991 42.9865 38.399 43.0529C36.9384 44.031 35.3572 44.8255 33.6994 45.412C33.6744 45.4207 33.6493 45.425 33.6243 45.425Z" fill="white"/>
</g>
<defs>
<clipPath id="clip0_570_10454">
<rect width="160" height="52" fill="white"/>
</clipPath>
</defs>
</svg>
