<svg width="73" height="23" viewBox="0 0 73 23" fill="none" xmlns="http://www.w3.org/2000/svg">
<g clip-path="url(#clip0_464_28270)">
<path d="M32.865 20.9083C31.1683 20.8889 29.8903 20.2741 29.0263 19.0518C28.1646 17.878 27.7386 16.4185 27.7386 14.6734H39.5549C39.4218 8.92012 37.195 6.02051 32.8747 5.9842C30.677 6.02293 28.9706 6.82649 27.758 8.39006C26.497 9.97299 25.8725 11.9432 25.8725 14.3224C25.8531 16.6823 26.4122 18.6162 27.5498 20.141C28.6874 21.7046 30.4688 22.5009 32.8747 22.5396C34.7892 22.5202 36.268 22.0096 37.3088 21.0148C38.3229 20.049 39.0345 18.8074 39.4412 17.2898H37.4806C36.8271 19.6884 35.2926 20.8913 32.865 20.9107V20.9083ZM29.2731 9.25414C30.1154 8.17465 31.3208 7.62522 32.8747 7.60586C34.4576 7.62522 35.6605 8.16496 36.4859 9.22751C37.2919 10.2513 37.6985 11.568 37.6985 13.1703H27.7386C27.9177 11.6261 28.4308 10.3264 29.2731 9.25655V9.25414Z" fill="white"/>
<path d="M54.4502 16.6821C54.0049 19.4583 52.451 20.8718 49.7886 20.9081C47.9781 20.8694 46.6711 20.1796 45.8748 18.8242C45.0688 17.5075 44.6622 15.9996 44.6622 14.2956C44.6428 12.5796 45.0591 11.0451 45.9039 9.69934C46.7002 8.34392 47.9975 7.65169 49.7886 7.60571C52.1484 7.65411 53.6539 8.89334 54.3098 11.35H56.1009C55.4765 7.73882 53.3707 5.94774 49.7982 5.98647C47.5231 6.0252 45.7998 6.84813 44.6235 8.4601C43.4109 10.0793 42.8033 12.0229 42.8033 14.2884C42.8033 16.5539 43.3721 18.5991 44.5097 20.1457C45.6473 21.7093 47.4093 22.5056 49.7982 22.5443C51.7128 22.5249 53.211 21.9755 54.2808 20.9057C55.3603 19.8625 56.0525 18.4514 56.3381 16.6894H54.4526L54.4502 16.6821Z" fill="white"/>
<path d="M72.3799 9.91724C72.3049 9.32909 72.087 8.7603 71.7167 8.22055C70.5598 6.67635 69.0059 5.92846 67.0647 5.98412C66.0312 5.98412 65.1308 6.21164 64.3733 6.67635C63.5866 7.14106 62.8484 7.7752 62.1562 8.59087V0.279282H60.4135V22.1135H62.1562V13.6519C62.1368 12.6184 62.2699 11.6236 62.5459 10.6772C62.8678 9.82527 63.3712 9.11368 64.0707 8.52553C64.7823 7.93737 65.6827 7.62515 66.7912 7.60578C69.4536 7.60578 70.7607 9.02654 70.7244 11.8608V22.1135H72.467V11.8318C72.467 11.1589 72.438 10.5248 72.3823 9.91724H72.3799Z" fill="white"/>
<path d="M10.6304 9.67573L10.0059 11.4087L3.0425 11.4039C2.49065 11.4039 2.04289 11.8516 2.04289 12.4035V21.0104C2.04289 21.6179 1.54913 22.1117 0.94161 22.1117H-0.00476074V0.277382H2.0332V8.34209C2.0332 8.37114 2.03321 8.40018 2.04289 8.42681C2.08161 9.06095 2.56327 9.57407 3.18046 9.6491C3.23855 9.66846 3.29423 9.66846 3.35958 9.66846L10.6328 9.6733L10.6304 9.67573Z" fill="white"/>
<path d="M22.0933 1.13185L21.0138 2.21134H12.5424V0.173378H21.7811C21.9045 0.173378 22.0183 0.212106 22.0933 0.277456C22.3498 0.475928 22.3958 0.901916 22.0933 1.12943V1.13185Z" fill="white"/>
<path d="M25.6571 1.87244L26.9641 0.565428L5.48083 22.0681H8.34173L27.9008 2.50899C28.0896 2.3202 28.3462 2.21613 28.6124 2.21613H32.4027V2.02734L32.4124 0.284662V0.180588H27.9492C27.5886 0.180588 27.2207 0.313709 26.9641 0.570269" fill="white"/>
</g>
<defs>
<clipPath id="clip0_464_28270">
<rect width="73" height="23" fill="white"/>
</clipPath>
</defs>
</svg>
