<svg width="160" height="50" viewBox="0 0 160 50" fill="none" xmlns="http://www.w3.org/2000/svg">
<path d="M64.4198 49.4665H48V48.6891C48.5958 48.6522 49.936 48.4684 50.4198 48.3195C51.0528 48.0969 51.2755 47.6535 51.2755 47.1357V34.3685C51.2755 33.8132 51.0528 33.3679 50.4198 33.1471C49.9738 32.9614 48.7072 32.6281 48.112 32.5918V31.8145H58.2022V32.5918C57.6064 32.6281 56.4518 32.7756 55.6698 33.0352C55.1117 33.2203 54.8128 33.7019 54.8128 34.219V46.3214C54.8128 48.2451 55.3344 48.6147 57.9027 48.6147C59.4304 48.6147 60.9568 48.4302 61.5155 47.8755C62.2221 47.1726 63.7491 44.4703 64.121 43.2127H64.9773L64.4198 49.4665Z" fill="white"/>
<path fill-rule="evenodd" clip-rule="evenodd" d="M76.4812 49.4663V48.6889C77.5244 48.6145 79.6089 48.3193 79.6089 47.7271C79.6089 47.5426 79.5718 47.4313 79.4975 47.208L77.8963 43.3238H71.5289C71.0828 44.4701 70.7846 45.2112 70.5241 45.9873C70.3379 46.5432 70.2259 47.0242 70.2259 47.3937C70.2259 48.2086 72.6835 48.5782 73.6511 48.6889V49.4663H65.2371V48.6889C65.8329 48.652 67.1366 48.3562 67.5455 48.1348C68.1414 47.8021 68.6623 47.0986 69.0348 46.2468C71.0086 41.8422 73.2415 36.4402 75.2902 31.5547H76.7795C79.5347 38.1418 82.2521 44.6189 83.2198 47.0242C83.406 47.4682 83.7049 47.8759 84.263 48.1348C84.7839 48.3944 85.9379 48.6145 86.4595 48.6889V49.4663H76.4812ZM74.6943 35.7366L71.9763 42.2869H77.4124L74.6943 35.7366Z" fill="white"/>
<path d="M103.25 33.2947C102.505 33.7019 102.431 35.1452 102.431 36.6993V44.2489C102.431 48.5047 98.0749 49.9856 95.3574 49.9856C90.4794 49.9856 87.8355 47.4315 87.8355 44.7298V34.2941C87.8355 33.7756 87.5373 33.3679 86.9792 33.1103C86.4947 32.8876 85.2666 32.6281 84.7456 32.5918V31.8145H94.5747V32.5918C93.9782 32.6281 92.7494 32.8513 92.3034 32.9983C91.6704 33.1834 91.447 33.665 91.447 34.1821V44.0638C91.447 45.8768 91.8566 48.5416 96.0269 48.5416C100.196 48.5416 101.165 45.6923 101.165 44.0638V36.8469C101.165 35.0339 100.867 33.7756 100.27 33.443C99.6006 33.0346 97.8515 32.665 97.1059 32.5918V31.8145H106.154V32.5918C105.558 32.6281 103.809 32.9608 103.25 33.2947Z" fill="white"/>
<path fill-rule="evenodd" clip-rule="evenodd" d="M97.5328 37.3966C98.4851 37.3966 99.4451 37.2916 100.389 37.0836V38.3769C99.4541 38.5632 98.4934 38.658 97.5328 38.658C95.7126 38.658 93.9264 38.3171 92.2227 37.6447V36.2821C93.9066 37.0219 95.6928 37.3966 97.5328 37.3966ZM112 24.2783C112 30.0556 108.548 35.2369 103.198 37.5079V36.1237C107.775 33.9519 110.731 29.3069 110.731 24.2783C110.731 22.7235 110.418 21.0397 109.85 19.5372C109.789 19.3794 109.795 19.2076 109.866 19.0543C109.935 18.901 110.061 18.784 110.22 18.7248C110.292 18.6977 110.367 18.6841 110.444 18.6841C110.706 18.6841 110.945 18.8482 111.037 19.0931C111.658 20.7344 112 22.5753 112 24.2783ZM80.8685 39.4621C83.081 39.1886 85.1706 38.471 87.0835 37.3272V38.7783C85.2992 39.7426 83.3798 40.3788 81.376 40.6688L80.8685 39.4621ZM94.8531 23.7153C94.8531 19.8094 93.4054 16.0524 90.7757 13.1358L90.736 13.0912L90.6848 13.1224C86.768 15.5098 84.3347 19.7846 84.3347 24.2783C84.3347 26.6682 84.9914 29.006 86.2349 31.0467H84.7782C83.6576 28.971 83.0656 26.6313 83.0656 24.2783C83.0656 19.408 85.5642 14.9004 89.7498 12.2197L89.8278 12.1701L89.76 12.1078C86.791 9.35777 82.9286 7.84314 78.8851 7.84314C75.6986 7.84314 72.6189 8.77826 69.9802 10.5467L69.9488 10.5677V36.8629L69.9802 36.8845C70.5402 37.2592 71.1488 37.6103 71.7907 37.9277L71.3062 39.1014C68.4666 37.714 66.0634 35.5785 64.3533 32.9227C62.583 30.172 61.6467 26.9882 61.6467 23.7153C61.6467 18.3158 64.265 13.1657 68.6502 9.93856L68.6797 9.91693V2.94302L68.5581 3.05688L58.9677 12.0791C58.8493 12.1905 58.6944 12.2515 58.5312 12.2515C58.3552 12.2515 58.1914 12.1816 58.0704 12.0543C57.9539 11.9322 57.8925 11.7719 57.897 11.6033C57.9014 11.4354 57.9718 11.2789 58.0947 11.1631L69.9488 0.0117188V9.07088L70.0576 9.00599C72.7226 7.42012 75.7747 6.58169 78.8851 6.58169C83.4112 6.58169 87.6909 8.32152 90.937 11.4812L90.9734 11.5168L91.0195 11.4939C92.7789 10.6001 94.6669 10.0772 96.6317 9.9392C96.6492 9.93793 96.6665 9.93729 96.6835 9.93729C97.0106 9.93729 97.2851 10.1949 97.3088 10.5238C97.3203 10.6917 97.2659 10.8546 97.1552 10.9818C97.0438 11.109 96.8896 11.1854 96.7206 11.1975C95.0656 11.3139 93.4656 11.7299 91.9642 12.4354L91.8784 12.4755L91.9405 12.5461C94.6374 15.6568 96.1222 19.623 96.1222 23.7153C96.1222 26.277 95.5629 28.7433 94.4595 31.0467H93.0394C94.2266 28.7929 94.8531 26.2604 94.8531 23.7153ZM68.6797 11.52L68.5613 11.6199C64.9734 14.6498 62.9158 19.0582 62.9158 23.7153C62.9158 28.3724 64.9734 32.7808 68.5613 35.8107L68.6797 35.9106V11.52ZM108.038 12.534H106.549V12.0766L108.198 10.0225H108.555V12.0722H108.968V12.534H108.555V13.3374H108.038V12.534ZM108.095 12.0715V10.8018L107.075 12.0715H108.095ZM110.798 16.401H109.309V15.9437L110.958 13.8889H111.315V15.9386H111.728V16.401H111.315V17.2045H110.798V16.401ZM110.854 15.9386V14.6682L109.835 15.9386H110.854ZM108.287 15.179C108.351 15.0908 108.383 14.9833 108.383 14.8565C108.383 14.7543 108.362 14.6646 108.32 14.5874C108.278 14.5102 108.215 14.4492 108.132 14.4042C108.049 14.3593 107.943 14.3368 107.815 14.3368C107.684 14.3368 107.562 14.3595 107.451 14.4048C107.34 14.4498 107.243 14.5049 107.16 14.5702C107.077 14.6356 107.01 14.6994 106.96 14.7617L106.632 14.4208C106.663 14.3834 106.714 14.3336 106.784 14.2713C106.854 14.2093 106.942 14.1472 107.047 14.0849C107.152 14.0225 107.273 13.9704 107.411 13.9284C107.549 13.8864 107.704 13.8654 107.876 13.8654C108.114 13.8654 108.314 13.9078 108.476 13.9926C108.637 14.0779 108.759 14.1939 108.842 14.3406C108.925 14.4878 108.966 14.6525 108.966 14.8349C108.966 14.9833 108.94 15.1124 108.886 15.2223C108.833 15.3321 108.763 15.4265 108.677 15.5054C108.591 15.5842 108.495 15.6546 108.39 15.7166C108.285 15.7785 108.181 15.8372 108.078 15.8928C107.9 15.9822 107.757 16.0626 107.649 16.1339C107.54 16.2051 107.456 16.2732 107.395 16.3381C107.334 16.4029 107.29 16.4678 107.265 16.5327C107.241 16.5976 107.223 16.6671 107.214 16.7414H108.971V17.2038H106.612C106.612 17.0151 106.627 16.8497 106.655 16.7076C106.683 16.5652 106.727 16.4367 106.787 16.3222C106.846 16.2081 106.921 16.1076 107.012 16.0206C107.103 15.9341 107.208 15.8552 107.327 15.784C107.442 15.7161 107.562 15.6527 107.686 15.5938C107.809 15.5353 107.925 15.4735 108.031 15.4087C108.138 15.3438 108.223 15.2672 108.287 15.179ZM99.0259 10.8807C98.9491 10.9087 98.8794 10.9227 98.8166 10.9227V10.4462C98.9011 10.4462 98.9865 10.4246 99.0726 10.3813C99.1588 10.3376 99.2395 10.287 99.3146 10.2293C99.3901 10.1716 99.4505 10.1194 99.4957 10.0728C99.5409 10.0261 99.5652 10.0013 99.5686 9.99836H100.099V12.8743H100.696V13.3368H98.9248V12.8743H99.5686V10.5213C99.5435 10.5586 99.5019 10.5997 99.4438 10.6447C99.3858 10.69 99.321 10.7337 99.2493 10.7757C99.1772 10.8177 99.1027 10.8527 99.0259 10.8807ZM101.149 11.6968C101.047 11.5297 100.996 11.344 100.996 11.1396C100.996 10.9263 101.05 10.7329 101.156 10.5594C101.263 10.3864 101.408 10.2496 101.591 10.1491C101.774 10.0486 101.978 9.99836 102.204 9.99836C102.451 9.99836 102.665 10.0562 102.845 10.172C103.025 10.2878 103.166 10.454 103.268 10.6708C103.37 10.887 103.421 11.1483 103.421 11.4545C103.421 11.8747 103.368 12.2255 103.263 12.5066C103.158 12.7882 103.011 13.0009 102.822 13.1447C102.632 13.2884 102.409 13.3603 102.152 13.3603C101.939 13.3603 101.744 13.3111 101.565 13.2127C101.386 13.1148 101.242 12.9772 101.133 12.7999L101.438 12.4825C101.51 12.6101 101.61 12.7127 101.739 12.7903C101.867 12.8684 102.007 12.9074 102.157 12.9074C102.313 12.9074 102.45 12.8641 102.566 12.7776C102.681 12.6911 102.772 12.5637 102.838 12.3953C102.904 12.2274 102.937 12.0259 102.937 11.791C102.893 11.8813 102.832 11.9608 102.753 12.0295C102.675 12.0978 102.585 12.1506 102.483 12.1879C102.382 12.2252 102.271 12.2439 102.152 12.2439C101.939 12.2439 101.744 12.1945 101.567 12.0957C101.39 11.9969 101.251 11.8639 101.149 11.6968ZM101.494 11.1351C101.494 11.2615 101.527 11.3771 101.591 11.4818C101.655 11.5866 101.741 11.6705 101.849 11.7337C101.957 11.7969 102.076 11.8285 102.204 11.8285C102.332 11.8285 102.45 11.7969 102.559 11.7337C102.667 11.6705 102.753 11.5866 102.817 11.4818C102.881 11.3771 102.913 11.263 102.913 11.1396C102.913 11.0102 102.88 10.8923 102.815 10.7859C102.749 10.6799 102.662 10.5944 102.554 10.5295C102.446 10.4646 102.327 10.4322 102.199 10.4322C102.071 10.4322 101.953 10.4638 101.847 10.527C101.74 10.5902 101.655 10.6758 101.591 10.784C101.527 10.8917 101.494 11.0087 101.494 11.1351ZM103.348 15.5582C103.348 15.3601 103.381 15.1623 103.446 14.9646C103.512 14.7666 103.608 14.5864 103.733 14.4239C103.858 14.2619 104.008 14.1322 104.184 14.0346C104.359 13.9375 104.556 13.8889 104.776 13.8889C105.011 13.8889 105.217 13.9413 105.393 14.0461C105.57 14.1512 105.718 14.2874 105.837 14.4545C105.956 14.6211 106.047 14.802 106.108 14.9971C106.169 15.1917 106.199 15.3788 106.199 15.5582C106.199 15.7587 106.166 15.9572 106.1 16.1536C106.035 16.3499 105.94 16.5285 105.816 16.6892C105.693 16.8499 105.543 16.9791 105.368 17.0766C105.192 17.1737 104.995 17.224 104.776 17.2274C104.541 17.221 104.334 17.1669 104.156 17.0652C103.977 16.9629 103.828 16.8291 103.709 16.6638C103.59 16.4984 103.5 16.3192 103.439 16.1262C103.378 15.9328 103.348 15.7435 103.348 15.5582ZM103.884 15.5582C103.889 15.6998 103.911 15.8408 103.947 15.9812C103.983 16.1216 104.038 16.2503 104.113 16.3673C104.188 16.4844 104.281 16.5783 104.39 16.6491C104.5 16.7199 104.628 16.7554 104.776 16.7554C104.929 16.7554 105.062 16.7176 105.172 16.6421C105.284 16.5666 105.376 16.468 105.448 16.3463C105.52 16.2246 105.574 16.0944 105.61 15.9557C105.645 15.8171 105.664 15.6845 105.664 15.5582C105.664 15.4161 105.644 15.2751 105.605 15.1351C105.566 14.9948 105.509 14.866 105.434 14.749C105.359 14.6315 105.266 14.5374 105.156 14.4666C105.047 14.3957 104.92 14.3603 104.776 14.3603C104.623 14.3603 104.489 14.3981 104.376 14.4736C104.264 14.549 104.171 14.6476 104.099 14.7694C104.027 14.8911 103.973 15.0213 103.937 15.1599C103.901 15.299 103.884 15.4318 103.884 15.5582ZM105.528 11.312C105.592 11.2238 105.624 11.1163 105.624 10.9895C105.624 10.8872 105.603 10.7976 105.56 10.7204C105.518 10.6432 105.455 10.5821 105.372 10.5372C105.289 10.4922 105.184 10.4697 105.055 10.4697C104.924 10.4697 104.803 10.4924 104.691 10.5378C104.58 10.5828 104.483 10.6379 104.4 10.7032C104.317 10.7685 104.25 10.8323 104.2 10.8947L103.871 10.5537C103.903 10.5164 103.954 10.4666 104.024 10.4042C104.095 10.3423 104.182 10.2802 104.287 10.2178C104.392 10.1555 104.514 10.1033 104.652 10.0613C104.789 10.0194 104.944 9.99836 105.116 9.99836C105.354 9.99836 105.554 10.0408 105.715 10.1256C105.876 10.2108 105.999 10.3268 106.082 10.4736C106.165 10.6207 106.206 10.7855 106.206 10.9678C106.206 11.1163 106.18 11.2454 106.127 11.3552C106.073 11.4651 106.004 11.5594 105.917 11.6383C105.831 11.7172 105.736 11.7876 105.631 11.8495C105.526 11.9114 105.422 11.9702 105.318 12.0257C105.14 12.1152 104.997 12.1956 104.888 12.2668C104.78 12.3381 104.696 12.4061 104.635 12.471C104.574 12.5359 104.531 12.6008 104.506 12.6657C104.48 12.7305 104.463 12.8001 104.454 12.8743H106.211V13.3368H103.853C103.853 13.1481 103.867 12.9827 103.895 12.8406C103.923 12.6981 103.967 12.5696 104.027 12.4551C104.086 12.341 104.161 12.2405 104.252 12.1536C104.343 12.0671 104.448 11.9882 104.567 11.9169C104.683 11.8491 104.802 11.7857 104.926 11.7267C105.05 11.6682 105.165 11.6065 105.272 11.5416C105.378 11.4767 105.463 11.4002 105.528 11.312ZM101.135 16.7414H102.892V17.2038H100.534C100.534 17.0151 100.548 16.8497 100.576 16.7076C100.604 16.5652 100.648 16.4367 100.708 16.3222C100.767 16.2081 100.842 16.1076 100.933 16.0206C101.024 15.9341 101.129 15.8552 101.248 15.784C101.364 15.7161 101.483 15.6527 101.607 15.5938C101.731 15.5353 101.846 15.4735 101.953 15.4087C102.059 15.3438 102.144 15.2672 102.209 15.179C102.273 15.0908 102.305 14.9833 102.305 14.8565C102.305 14.7543 102.284 14.6646 102.241 14.5874C102.199 14.5102 102.137 14.4492 102.054 14.4042C101.971 14.3593 101.865 14.3368 101.736 14.3368C101.605 14.3368 101.484 14.3595 101.372 14.4048C101.261 14.4498 101.164 14.5049 101.081 14.5702C100.998 14.6356 100.932 14.6994 100.881 14.7617L100.552 14.4208C100.584 14.3834 100.635 14.3336 100.705 14.2713C100.776 14.2093 100.863 14.1472 100.968 14.0849C101.073 14.0225 101.195 13.9704 101.332 13.9284C101.47 13.8864 101.625 13.8654 101.798 13.8654C102.035 13.8654 102.235 13.9078 102.396 13.9926C102.557 14.0779 102.68 14.1939 102.763 14.3406C102.846 14.4878 102.887 14.6525 102.887 14.8349C102.887 14.9833 102.861 15.1124 102.808 15.2223C102.754 15.3321 102.685 15.4265 102.598 15.5054C102.512 15.5842 102.417 15.6546 102.312 15.7166C102.207 15.7785 102.103 15.8372 101.999 15.8928C101.821 15.9822 101.678 16.0626 101.57 16.1339C101.462 16.2051 101.377 16.2732 101.316 16.3381C101.255 16.4029 101.212 16.4678 101.187 16.5327C101.162 16.5976 101.145 16.6671 101.135 16.7414Z" fill="white"/>
</svg>
