<svg width="160" height="64" viewBox="0 0 160 64" fill="none" xmlns="http://www.w3.org/2000/svg">
<path d="M70.9399 60.4662C67.6148 59.2119 65.0854 57.9601 62.0098 55.4985L61.1558 54.815C62.0496 53.1588 62.6157 52.0048 63.4367 50.6905C74.7569 57.9442 83.4741 60.1363 95.4283 51.2959L96.2832 50.5977C96.8592 51.583 98.3025 53.4282 98.6128 54.7334C98.6128 54.8059 96.4921 56.4493 95.4837 57.1155C84.8718 64.3655 79.1146 63.5114 70.9399 60.4662Z" stroke="white" stroke-width="0.366154" stroke-linecap="round" stroke-linejoin="round"/>
<path d="M95.4843 49.0035C95.4585 49.0126 92.3011 49.1409 92.0818 49.1408L91.5325 49.1404C91.7151 49.2097 93.3269 51.078 93.3294 51.0647C94.1392 50.4825 96.4236 48.6891 95.4843 49.0035Z" fill="#F7FFFF" stroke="white" stroke-width="0.366154" stroke-linecap="round" stroke-linejoin="round"/>
<path d="M98.4211 51.7501C99.4079 50.9442 100.503 50.2772 101.09 49.502C101.332 49.1838 101.615 48.393 101.379 48.4778C101.13 48.567 100.642 48.4548 100.015 48.5047C99.3887 48.5547 98.7319 48.5962 98.7181 48.5856C98.7043 48.575 98.5785 47.7609 98.3901 46.6866C98.2019 45.6123 97.9549 44.4864 97.929 44.4981C97.3046 44.781 97.4744 45.2017 96.9577 45.8081C96.4411 46.4145 95.5193 47.4062 94.9702 48.0235L93.6919 49.1994L94.7925 49.1381L95.5091 49.1394L96.3592 50.6439C96.8557 51.5226 97.4367 52.6401 97.474 52.4419C97.4801 52.4094 97.9738 52.1154 98.4211 51.7501Z" stroke="white" stroke-width="0.366154" stroke-linecap="round" stroke-linejoin="round"/>
<path d="M65.3695 50.3342C64.8235 49.9148 64.0268 49.3086 64.3319 49.4146C64.3578 49.4236 67.6438 49.5519 67.8631 49.5517L68.2837 49.5515L68.2251 49.5962L67.3012 50.4207C66.8704 50.8051 66.4127 51.2539 66.4098 51.1162C66.4094 51.0973 65.9156 50.7536 65.3695 50.3342Z" stroke="white" stroke-width="0.366154" stroke-linecap="round" stroke-linejoin="round"/>
<path d="M61.2092 51.9916C60.2224 51.1857 59.1272 50.5186 58.5399 49.7434C58.2987 49.4253 58.0153 48.5175 58.2518 48.6023C58.5004 48.6915 58.9883 48.6962 59.6149 48.7462C60.2416 48.7962 60.6645 48.8377 60.6783 48.8271C60.6922 48.8165 60.9219 48.0023 61.1102 46.928C61.2985 45.8538 61.4927 44.7165 61.5194 44.7266C61.5461 44.7366 62.1559 45.4432 62.6726 46.0496C63.1893 46.656 64.111 47.6477 64.6601 48.265L65.9385 49.4408L64.8378 49.3795L64.1213 49.3808L63.2711 50.8853C62.7746 51.7639 62.1937 52.8814 62.1563 52.6834C62.1502 52.6509 61.6565 52.3569 61.2092 51.9916Z" stroke="white" stroke-width="0.366154" stroke-linecap="round" stroke-linejoin="round"/>
<path d="M98.0499 53.4877C97.7573 52.9757 97.4341 52.4837 97.4658 52.4544C97.4868 52.435 97.8125 52.2142 98.0925 52.0056C98.9143 51.3937 100.533 49.5151 101.24 48.7399L101.45 48.5094L102.209 48.5033C102.616 48.5023 103.077 48.4905 103.077 48.5059C103.077 48.5213 102.707 49.0045 102.367 49.4224C100.815 51.3328 99.8836 52.7176 98.4302 53.4666L98.1581 53.6771L98.0499 53.4877Z" stroke="white" stroke-width="0.366154" stroke-linecap="round" stroke-linejoin="round"/>
<path d="M91.9653 48.9073C93.7366 47.8252 95.3661 46.2819 96.7654 44.336C96.9767 44.0421 97.5642 43.1699 97.5802 43.1255C97.5841 43.1148 97.6422 43.0541 97.6465 43.0589C97.6509 43.0635 97.8269 43.5226 97.8842 44.0189L98.0643 44.9514L97.9696 45.0732C97.9696 45.0732 96.8346 46.5627 96.1865 47.288C95.8368 47.6794 95.0512 48.4361 94.6474 48.8336L94.3427 49.1336L93.054 49.1315L91.6919 49.1018L91.9653 48.9073Z" stroke="white" stroke-width="0.366154" stroke-linecap="round" stroke-linejoin="round"/>
<path d="M61.4064 53.7033C60.3174 52.9642 58.3113 50.9659 57.3657 49.8114C57.1035 49.4914 56.3804 48.5233 56.3804 48.5042C56.3804 48.5009 56.8297 48.5271 57.2753 48.5623C57.7208 48.5977 58.2313 48.6414 58.2647 48.6418C58.3145 48.6426 58.291 48.711 58.3175 48.7568C58.4117 48.9196 58.6868 49.2526 58.857 49.4791C59.5906 50.4552 60.4263 51.2863 61.8686 52.4003C62.0431 52.535 62.1857 52.7138 62.1931 52.7204C62.2004 52.7271 62.0711 52.9834 61.8955 53.269L61.5761 53.8184L61.4064 53.7033Z" stroke="white" stroke-width="0.366154" stroke-linecap="round" stroke-linejoin="round"/>
<path d="M66.9076 49.4896C66.1778 49.4588 65.9249 49.4353 65.9074 49.4216C65.8706 49.3927 65.6021 49.1453 65.4732 49.0289C64.9678 48.5724 64.2515 47.8255 63.7563 47.2888C63.188 46.6729 62.5866 46.0561 61.9465 45.2825C61.7479 45.0426 61.5852 44.7136 61.5703 44.6998L61.5071 44.7254L61.5868 43.9997C61.6272 43.6319 61.7675 43.2171 61.7721 43.2188C61.7766 43.2204 61.9267 43.3951 62.0017 43.4885C62.5802 44.2075 63.0273 44.7491 63.7698 45.4989C64.687 46.4251 65.4857 47.1085 67.3522 48.7185C67.7723 49.0808 68.3844 49.6362 68.176 49.5452C68.1543 49.5357 67.9075 49.5318 66.9076 49.4896Z" stroke="white" stroke-width="0.366154" stroke-linecap="round" stroke-linejoin="round"/>
<path d="M78.7457 63.5518C73.8581 63.2791 68.9026 61.4806 63.8478 58.4785C62.5844 57.7282 60.3192 56.2827 60.341 56.203C60.3516 56.1644 60.6017 55.7414 60.7816 55.4401L61.1553 54.8143L61.6162 55.191C64.5909 57.6219 71.431 61.0028 76.1905 61.8138C78.7961 62.2578 81.9107 62.2605 84.5185 61.7789C88.909 60.968 95.0483 57.7687 97.6303 55.6193L98.6486 54.7715L99.0185 55.4965C99.2852 56.0191 99.4484 56.1661 99.3658 56.2329C99.312 56.2764 98.6236 56.7557 98.0434 57.1942C93.4715 60.9889 87.3954 63.2066 83.3659 63.4823C82.1577 63.5649 79.814 63.6114 78.7457 63.5518Z" stroke="white" stroke-width="0.366154" stroke-linecap="round" stroke-linejoin="round"/>
<path d="M77.2616 56.9972C74.7614 56.584 71.3514 55.4577 68.6238 53.9992C67.0161 53.1395 63.4783 50.8128 63.4783 50.6133C63.4783 50.511 63.8485 49.8541 64.1305 49.4345C64.1481 49.4084 64.7356 49.8706 65.266 50.2937C68.6035 52.9566 73.2433 55.1027 76.9557 55.7422C79.9059 56.2503 83.4233 55.9349 86.2372 54.9497C88.9992 53.9826 92.195 52.1504 94.2241 50.3277C94.802 49.8087 95.4251 49.2045 95.4885 49.2051C95.5518 49.2057 95.8149 49.6745 95.9371 49.9831L96.2845 50.5983L95.2771 51.4005C91.5645 54.3567 87.3643 56.347 83.4273 56.9385C81.9807 57.1558 79.1451 57.3085 77.2616 56.9972Z" stroke="white" stroke-width="0.366154" stroke-linecap="round" stroke-linejoin="round"/>
<path d="M61.7362 43.1755C63.6952 45.7046 66.0167 47.5809 68.2852 49.553L66.4336 51.1644C74.4693 56.6028 83.2413 58.6306 93.3333 51.0778L91.532 49.1415C94.0048 47.7371 96.0193 45.6196 97.6694 42.9355L98.7667 48.5243L103.155 48.4558C100.115 52.3054 99.2538 52.8352 98.1495 53.736L99.3839 56.2046C86.0444 67.0441 73.0458 65.1852 60.3391 56.2046L61.5991 53.899C58.1327 51.0149 57.435 49.9518 56.3188 48.49L60.7419 48.8329L61.7362 43.1755Z" stroke="white" stroke-width="0.366154" stroke-linejoin="round"/>
<path d="M68.2817 49.5523L64.1157 49.3809L66.4302 51.1638" stroke="white" stroke-width="0.366154" stroke-linejoin="round"/>
<path d="M64.1178 49.3809L61.5977 53.8984" stroke="white" stroke-width="0.366154"/>
<path d="M91.5325 49.1406H95.5098L93.3338 51.077" stroke="white" stroke-width="0.366154" stroke-linejoin="round"/>
<path d="M95.5071 49.1406L98.1472 53.7351" stroke="white" stroke-width="0.366154"/>
<path d="M96.2788 50.5977C85.1588 60.0084 74.2075 58.7934 63.4529 50.6662" stroke="white" stroke-width="0.366154"/>
<path d="M61.1558 54.8143C72.9911 63.6595 85.3534 65.4574 98.6491 54.7715" stroke="white" stroke-width="0.366154"/>
<path d="M58.2681 48.6406C59.2911 50.3666 60.7797 51.5648 62.2472 52.6874" stroke="white" stroke-width="0.366154" stroke-linejoin="round"/>
<path d="M61.5071 44.7266C62.8818 46.4006 64.2933 48.0378 65.9388 49.441" stroke="white" stroke-width="0.366154"/>
<path d="M98.0624 44.9492C96.9216 46.5761 95.6755 47.9569 94.3408 49.1314" stroke="white" stroke-width="0.366154"/>
<path d="M101.4 48.502C99.8235 50.5227 98.527 51.7442 97.4346 52.4418" stroke="white" stroke-width="0.366154"/>
<path d="M95.0589 52.9395L94.3297 52.832L94.2222 53.5614L94.9515 53.6689L95.0589 52.9395Z" fill="white"/>
<path d="M95.8874 53.3742L95.2174 53.2754L95.1187 53.9454L95.7886 54.044L95.8874 53.3742Z" fill="white"/>
<path d="M95.1166 53.9437L94.4381 53.8438L94.3381 54.5221L95.0166 54.6221L95.1166 53.9437Z" fill="white"/>
<path d="M95.9659 54.2109C95.8994 54.9109 95.7883 55.4753 95.2716 54.8024C94.9163 56.065 94.4289 55.9076 93.8916 55.2139L93.0001 55.8996C93.1946 56.7856 93.2476 57.6381 92.2029 58.2312C92.6794 58.2376 93.4225 58.5221 93.5573 56.0282L93.9087 55.8053C94.3463 56.1628 94.7811 56.6123 95.263 55.5739C95.5624 55.408 96.161 56.205 96.1459 54.9567L96.1631 54.4253L95.9659 54.2109Z" fill="white"/>
<path d="M91.1874 55.7305C90.7644 55.7349 90.5311 56.2191 90.5311 56.2191C90.2134 57.0466 91.0116 57.3097 91.0116 57.3097C91.3927 57.3664 91.5623 56.8594 91.7269 56.9251C91.8512 56.9747 91.8326 57.2351 91.3115 57.7944C89.8822 58.9663 88.4244 60.243 87.9703 57.8285C87.8678 58.6828 87.8782 59.5897 89.1431 59.8541C90.417 59.5471 91.9286 58.078 91.9286 58.078C92.3625 57.3707 92.2198 57.0233 92.2198 57.0233C92.2198 57.0233 92.0943 56.1827 91.5099 55.8161C91.3927 55.7541 91.285 55.7296 91.1874 55.7305ZM91.1602 56.217C91.2319 56.217 91.3005 56.2454 91.3511 56.296C91.4018 56.3467 91.4303 56.4153 91.4303 56.4869C91.4303 56.5585 91.4018 56.6271 91.3511 56.6778C91.3005 56.7284 91.2319 56.7569 91.1602 56.7569C91.0886 56.7569 91.02 56.7284 90.9694 56.6778C90.9187 56.6271 90.8903 56.5585 90.8902 56.4869C90.8903 56.4153 90.9187 56.3467 90.9694 56.296C91.02 56.2454 91.0886 56.217 91.1602 56.217Z" fill="white"/>
<path d="M89.785 56.1675L89.087 56.084L89.0034 56.7819L89.7014 56.8654L89.785 56.1675Z" fill="white"/>
<path d="M86.9434 60.2408C87.1743 60.2408 87.3616 60.0535 87.3616 59.8225C87.3616 59.5916 87.1743 59.4043 86.9434 59.4043C86.7124 59.4043 86.5251 59.5916 86.5251 59.8225C86.5251 60.0535 86.7124 60.2408 86.9434 60.2408Z" fill="white"/>
<path d="M85.8401 57.4505L85.181 57.1152L84.8457 57.7743L85.5048 58.1096L85.8401 57.4505Z" fill="white"/>
<path d="M84.8469 57.7729L84.2028 57.4453L83.8752 58.0894L84.5193 58.4169L84.8469 57.7729Z" fill="white"/>
<path d="M77.9162 60.9064L77.3698 60.4082L76.8716 60.9546L77.418 61.4529L77.9162 60.9064Z" fill="white"/>
<path d="M76.8711 60.9535L76.3695 60.4961L75.9121 60.9977L76.4137 61.4551L76.8711 60.9535Z" fill="white"/>
<path d="M76.5123 57.5149L75.9853 56.9961L75.4666 57.5231L75.9936 58.0419L76.5123 57.5149Z" fill="white"/>
<path d="M75.4657 57.5212L74.9819 57.0449L74.5056 57.5287L74.9894 58.005L75.4657 57.5212Z" fill="white"/>
<path d="M82.7709 58.4317L82.0903 58.0332L81.6919 58.7137L82.3724 59.1122L82.7709 58.4317Z" fill="white"/>
<path d="M75.5471 58.041C75.431 58.2179 75.3678 58.4875 75.1698 58.521C73.3245 59.0872 73.6099 59.8582 73.6099 59.8582C73.6099 59.8582 74.2829 60.3226 74.8013 59.9183C75.2787 59.6138 75.3514 59.8065 75.4272 59.9952C75.8089 60.6707 76.5156 59.9867 76.5156 59.9867C76.5125 59.9713 77.1386 59.6291 77.3729 59.9525C77.8807 60.6206 78.5951 59.7229 79.233 59.9353C79.2401 60.3127 79.0642 60.7684 79.5158 60.9552C79.8768 61.0657 80.2142 60.9174 80.5529 60.784C80.9556 60.5347 81.1902 60.2972 81.1902 60.2972C81.1902 60.2972 81.3833 60.6121 81.556 60.8439C82.3256 61.6873 84.0694 60.8067 84.2736 60.6437L85.5162 59.6268C85.4912 59.2404 85.4714 58.8519 85.3019 58.521C85.2536 58.4214 85.1841 58.4169 85.1133 58.4182C84.9017 58.5048 84.8393 58.6637 84.8904 58.7953C85.4194 59.7041 84.5341 60.209 84.4275 60.0854C84.4275 60.0854 84.319 60.0175 84.2946 59.9824C84.1614 59.7773 84.3245 59.3697 84.3247 59.0866C83.6226 58.8329 83.2018 59.1725 83.2018 59.1725L81.8988 60.3212C81.3754 60.4717 81.3604 59.9868 81.1702 59.7211C80.4084 60.7306 79.8635 60.7196 79.4901 59.9011C79.4406 59.7911 79.4743 59.725 79.5244 59.6697C79.7614 59.436 80.1022 59.6277 80.3645 59.7039L80.7673 59.3612C79.7061 59.2766 79.1227 58.7645 78.4787 58.3067L77.5358 59.0095C78.0852 58.9711 78.5093 59.0481 78.7616 59.2838C78.1402 60.0766 77.7058 59.4977 77.21 59.3697C76.6994 59.403 75.8282 60.2179 75.5813 59.318L75.5471 58.041ZM74.7519 59.0264C74.8023 59.0267 74.8583 59.032 74.9213 59.0439C75.2501 59.0943 75.2556 59.2924 75.2556 59.2924C75.2253 59.6213 74.7317 59.6531 74.4928 59.6354C74.2665 59.6476 74.1413 59.4382 74.1413 59.4382C74.0256 59.2403 74.3991 59.0251 74.7519 59.0264ZM83.7625 59.4447C83.8068 59.4445 83.8515 59.4479 83.8961 59.4553C84.1191 59.5785 84.0579 59.729 83.8619 59.8926C83.5611 60.1666 82.7686 60.5134 82.7686 60.5134C82.7686 60.5134 82.2489 60.6712 82.4818 60.2438C82.4818 60.2438 83.0971 59.4467 83.7625 59.4447Z" fill="white"/>
<path d="M72.2235 59.4406C72.411 59.4406 72.5629 59.2886 72.5629 59.1011C72.5629 58.9136 72.411 58.7617 72.2235 58.7617C72.0361 58.7617 71.884 58.9136 71.884 59.1011C71.884 59.2886 72.0361 59.4406 72.2235 59.4406Z" fill="white"/>
<path d="M71.7012 56.7757C71.6324 56.7771 71.5533 56.7838 71.4624 56.7968C70.8788 57.0102 70.5671 57.3594 70.5653 57.8636C70.6726 58.0252 70.711 58.173 71.2682 58.1546C70.9303 58.5527 70.5664 59.1012 68.8804 58.4333C69.1537 59.2776 70.7613 59.2161 71.132 58.8456C71.132 58.8456 71.8039 58.2554 72.1655 57.2574C72.1604 57.0186 72.183 56.7656 71.7012 56.7757ZM71.3446 57.253C71.398 57.253 71.4493 57.2742 71.487 57.312C71.5248 57.3496 71.546 57.4008 71.5461 57.4543C71.5461 57.4807 71.5409 57.507 71.5308 57.5313C71.5206 57.5558 71.5058 57.578 71.4871 57.5967C71.4684 57.6155 71.4462 57.6303 71.4217 57.6404C71.3972 57.6505 71.3711 57.6557 71.3446 57.6557C71.3181 57.6557 71.292 57.6505 71.2675 57.6404C71.2431 57.6303 71.2208 57.6155 71.2022 57.5967C71.1834 57.578 71.1686 57.5558 71.1585 57.5313C71.1484 57.507 71.1432 57.4807 71.1432 57.4543C71.1432 57.4009 71.1644 57.3497 71.2022 57.3121C71.2398 57.2743 71.2913 57.2531 71.3446 57.253Z" fill="white"/>
<path d="M66.8752 53.3121C66.7957 53.2977 66.6631 53.3791 66.4593 53.6863C66.0036 54.5502 65.1438 55.3103 65.4136 56.3608C65.5845 56.8509 66.1636 57.2648 67.0081 57.6293C67.7238 57.9247 68.441 58.1948 69.1681 57.9036C69.5038 57.713 69.9283 56.375 69.8368 56.0007C69.7378 55.5958 69.1167 55.4521 69.1167 55.4521C68.7112 55.3151 68.6341 54.9827 68.4481 54.715L68.0323 55.0577C68.1538 55.3149 68.4642 55.4712 68.3967 55.8292C68.0201 56.1718 68.0537 56.425 68.0537 56.425C68.0951 56.7807 68.3283 56.9722 68.8938 57.0123C69.3816 57.0863 69.3002 57.6712 68.8251 57.5951C68.0448 57.3289 67.2653 57.0611 66.5966 56.5494C65.672 55.9274 66.2814 54.7585 66.9565 53.5664C66.9916 53.5075 66.9773 53.3306 66.8752 53.3121ZM68.9153 56.0435C68.9508 56.0435 68.9859 56.0505 69.0187 56.064C69.0514 56.0777 69.0812 56.0976 69.1062 56.1226C69.1313 56.1478 69.1512 56.1776 69.1648 56.2103C69.1783 56.2431 69.1853 56.2782 69.1853 56.3137C69.1853 56.3853 69.1568 56.454 69.1062 56.5046C69.0555 56.5552 68.9869 56.5836 68.9153 56.5836C68.8437 56.5836 68.775 56.5552 68.7244 56.5046C68.6737 56.454 68.6454 56.3853 68.6453 56.3137C68.6453 56.2782 68.6522 56.2431 68.6658 56.2103C68.6794 56.1776 68.6992 56.1478 68.7243 56.1226C68.7493 56.0976 68.7791 56.0777 68.8119 56.064C68.8447 56.0505 68.8798 56.0435 68.9153 56.0435Z" fill="white"/>
<path d="M64.4459 54.3429C65.6512 54.7029 65.596 54.5048 65.1983 53.9371C64.8549 53.7768 63.6176 53.9868 63.5799 54.3674L63.5193 54.7796C63.1362 54.9422 63.0286 55.0655 62.8586 55.1978C63.0347 55.0956 64.6103 55.5311 64.6103 55.5311L65.1316 55.1069C64.7514 55.0023 64.4264 54.815 64.1375 54.5735C64.1375 54.5735 63.9502 54.3824 64.4459 54.3429Z" fill="white"/>
<path d="M74.8562 40.7188C75.9222 42.0596 77.9497 44.3708 80.2361 44.2618C80.8112 44.2344 83.1741 43.7566 85.7506 40.035C84.0433 42.1677 81.2223 43.9406 80.6432 42.5682L80.6517 34.7509C80.3475 34.8091 80.0091 34.8154 79.6404 34.7766L79.6484 42.5682C79.1341 44.08 76.014 41.9833 74.8562 40.7188ZM74.8562 40.7188C74.7334 40.5848 74.633 40.4586 74.5612 40.3449C74.646 40.4547 74.7522 40.5881 74.8562 40.7188ZM94.7649 26.9766L84.7187 26.9936L83.894 26.997C83.8889 26.9904 83.8838 26.9838 83.8786 26.9772H82.1566C83.0774 27.6502 83.6217 28.7221 83.6217 29.8625C83.6217 31.8363 82.0216 33.4364 80.0478 33.4364C78.0739 33.4364 76.4738 31.8363 76.4738 29.8625C76.4739 28.7221 77.0182 27.6502 77.9388 26.9772H76.2167H72.9924H65.5251C65.6461 27.7441 65.9291 28.8443 67.1495 28.8443H75.3131C75.2669 29.036 75.2324 29.2304 75.2098 29.4263L67.7434 29.4382C67.6953 29.6686 67.7921 29.8989 68.1314 30.1292L75.1789 30.082C75.1828 30.277 75.1985 30.4715 75.2257 30.6646L69.9617 30.6989C69.9781 30.9533 70.0748 31.1434 70.2527 31.2686L75.3266 31.1775C75.3705 31.3513 75.4239 31.5226 75.4867 31.6905L71.4287 31.7778C71.505 31.9453 71.5051 32.0476 71.7924 32.396L75.7736 32.3173C75.8477 32.453 75.9283 32.5852 76.0149 32.7133L72.4591 32.7355C72.4591 32.7355 72.5331 33.3279 72.956 33.3294L76.3868 33.3415C76.4691 33.3791 76.5508 33.4172 76.6325 33.4552C77.2726 34.085 78.0744 34.5255 78.9493 34.728L79.0173 41.7138C78.2925 42.9945 76.3503 41.2816 76.3503 41.2816L77.5868 40.021C74.9476 40.5573 74.3913 39.7293 73.5502 39.0876C74.6208 40.9566 74.2401 42.1611 74.1563 43.6697L75.4413 42.2999C77.5835 43.5041 79.3538 44.9385 80.1448 46.9792C80.8078 44.9229 82.9193 43.3121 84.7513 42.1303L86.012 43.609C85.9393 41.9561 86.2014 40.4062 86.5453 38.8813C85.0615 40.4094 83.3771 40.0005 82.8117 39.9482L83.9268 41.1848C83.9268 41.1848 82.2285 43.0128 81.3769 41.7138L81.2898 34.6924C82.1936 34.4539 83.0098 33.9604 83.6407 33.2709C83.6407 33.2709 87.1389 33.349 87.256 33.2854C87.3732 33.2218 87.6926 32.9507 87.8624 32.662L84.1331 32.6841C84.2132 32.5795 84.2886 32.4712 84.359 32.3596C84.359 32.3596 88.3857 32.4196 88.4561 32.3596C88.5264 32.2996 88.7472 32.2269 88.8576 31.7733L84.6735 31.765C84.7474 31.5946 84.8105 31.4196 84.8624 31.2409C84.8624 31.2409 89.9197 31.3132 90.0676 31.2452C90.2155 31.1773 90.3195 30.931 90.3761 30.7652L84.9785 30.7322C85.0093 30.5464 85.0283 30.3586 85.0353 30.1703L92.1248 30.148C92.3922 30.1472 92.5913 29.9662 92.6089 29.3361L84.9841 29.3086C84.9575 29.1409 84.9213 28.9749 84.8757 28.8116L93.3934 28.8107C94.2455 28.8106 94.7069 27.8541 94.7649 26.9766Z" stroke="white" stroke-width="0.366154" stroke-linejoin="round"/>
<path d="M91.9732 39.7695C93.3731 41.2179 94.7693 42.6698 96.167 44.1202L94.1271 46.1947C94.4134 45.7429 94.6272 45.1601 94.4356 44.9087C94.1724 44.5704 93.7968 44.2977 93.349 44.1114C92.9235 43.9344 92.2488 43.795 91.8298 43.4687C91.8298 43.4687 90.8226 42.5131 90.8184 41.8401C90.8184 41.8378 90.8076 41.6022 90.5783 41.607C90.412 41.6105 90.3384 41.3772 90.3384 41.3772L91.9732 39.7695ZM92.2503 40.7343C92.1805 40.7343 92.1114 40.7481 92.0469 40.7748C91.9824 40.8015 91.9238 40.8407 91.8745 40.89C91.8251 40.9393 91.786 40.998 91.7594 41.0625C91.7326 41.127 91.7189 41.1961 91.7189 41.2659C91.7189 41.4068 91.7749 41.542 91.8746 41.6416C91.9742 41.7413 92.1094 41.7972 92.2503 41.7973C92.3912 41.7972 92.5264 41.7413 92.6261 41.6416C92.7257 41.542 92.7817 41.4068 92.7817 41.2659C92.7818 41.125 92.7259 40.9899 92.6262 40.8902C92.5267 40.7905 92.3912 40.7344 92.2503 40.7343ZM93.7629 42.2311C93.7609 42.2311 93.7589 42.2311 93.7569 42.2311C93.666 42.2312 93.5789 42.2673 93.5146 42.3316C93.4504 42.3958 93.4142 42.483 93.4142 42.5739C93.4142 42.6189 93.423 42.6635 93.4402 42.7051C93.4574 42.7467 93.4826 42.7846 93.5145 42.8164C93.5464 42.8482 93.5841 42.8735 93.6257 42.8908C93.6673 42.908 93.7119 42.9168 93.7569 42.9169C93.802 42.9169 93.8466 42.908 93.8882 42.8908C93.9298 42.8736 93.9676 42.8483 93.9995 42.8165C94.0314 42.7846 94.0566 42.7468 94.0738 42.7052C94.0911 42.6635 94.0999 42.6189 94.0999 42.5739C94.0999 42.484 94.0646 42.3977 94.0015 42.3335C93.9385 42.2694 93.8528 42.2327 93.7629 42.2311Z" stroke="white" stroke-width="0.366154" stroke-linejoin="round"/>
<path d="M91.3588 38.0938L92.5075 39.1996L88.4788 43.1894C87.6838 43.809 86.5281 42.9868 86.5156 41.9683C86.5651 40.444 88.0073 40.6397 88.0073 40.6397C88.4854 40.7139 88.4631 40.7882 88.6329 40.8625L91.3588 38.0938ZM88.1733 41.3206C87.7716 41.3206 87.4459 41.6463 87.4459 42.048C87.4459 42.4497 87.7716 42.7754 88.1733 42.7754C88.575 42.7753 88.9005 42.4496 88.9005 42.048C88.9005 41.6464 88.575 41.3207 88.1733 41.3206Z" stroke="white" stroke-width="0.366154" stroke-linejoin="round"/>
<path d="M90.7791 38.6584L69.0929 17.0358C69.0929 17.0358 67.658 15.8209 65.9942 16.1058C65.7499 17.3192 66.3028 17.8716 66.3028 17.8716L88.9646 40.5075L90.7791 38.6584Z" fill="#F6F6F6" stroke="white" stroke-width="0.366154"/>
<path d="M65.9934 16.1094L89.6995 39.6742" stroke="white" stroke-width="0.366154"/>
<path d="M67.4053 16.2148L90.3408 39.0048" stroke="white" stroke-width="0.366154"/>
<path d="M68.0779 39.9629C66.6781 41.4113 65.2817 42.8631 63.884 44.3136L65.924 46.388C65.6376 45.9362 65.4238 45.3535 65.6155 45.1022C65.8786 44.7638 66.2543 44.4911 66.7021 44.3049C67.1275 44.1279 67.8022 43.9884 68.2213 43.6621C68.2213 43.6621 69.2285 42.7064 69.2327 42.0335C69.2328 42.0313 69.2434 41.7955 69.4727 41.8003C69.639 41.8039 69.7128 41.5706 69.7128 41.5706L68.0779 39.9629ZM67.8007 40.9276C67.8706 40.9276 67.9397 40.9414 68.0041 40.9682C68.0686 40.9949 68.1272 41.034 68.1766 41.0834C68.2259 41.1328 68.2651 41.1914 68.2918 41.2559C68.3184 41.3203 68.3322 41.3894 68.3321 41.4593C68.3321 41.6002 68.2762 41.7353 68.1765 41.835C68.0769 41.9346 67.9417 41.9907 67.8007 41.9907C67.6598 41.9907 67.5247 41.9346 67.425 41.835C67.3254 41.7353 67.2694 41.6002 67.2694 41.4593C67.2694 41.3184 67.3252 41.1832 67.4248 41.0835C67.5243 40.9839 67.6598 40.9278 67.8007 40.9276ZM66.2882 42.4246C66.2902 42.4245 66.2922 42.4245 66.2941 42.4246C66.385 42.4246 66.4722 42.4607 66.5365 42.5249C66.6008 42.5892 66.6369 42.6764 66.637 42.7673C66.637 42.8123 66.6281 42.8569 66.6109 42.8985C66.5936 42.9401 66.5684 42.9779 66.5366 43.0098C66.5047 43.0417 66.4669 43.0669 66.4254 43.0841C66.3837 43.1014 66.3392 43.1103 66.2941 43.1103C66.2491 43.1103 66.2045 43.1015 66.1629 43.0842C66.1213 43.067 66.0834 43.0418 66.0516 43.0098C66.0197 42.978 65.9945 42.9402 65.9772 42.8985C65.96 42.857 65.9511 42.8124 65.9511 42.7673C65.9511 42.6773 65.9865 42.5911 66.0496 42.527C66.1126 42.4629 66.1982 42.4261 66.2882 42.4246Z" stroke="white" stroke-width="0.366154" stroke-linejoin="round"/>
<path d="M68.692 38.2871L67.5435 39.3929L71.5721 43.3827C72.3671 44.0023 73.5227 43.18 73.5352 42.1616C73.4859 40.6373 72.0436 40.8329 72.0436 40.8329C71.5655 40.9072 71.5878 40.9815 71.418 41.0558L68.692 38.2871ZM71.8776 41.5139C72.2793 41.5139 72.6049 41.8396 72.6049 42.2413C72.6049 42.643 72.2793 42.9687 71.8776 42.9687C71.4759 42.9686 71.1504 42.6429 71.1504 42.2413C71.1504 41.8397 71.4759 41.514 71.8776 41.5139Z" stroke="white" stroke-width="0.366154" stroke-linejoin="round"/>
<path d="M69.2681 38.8538L90.9542 17.2311C90.9542 17.2311 92.3892 16.0162 94.053 16.3011C94.2973 17.5145 93.7444 18.0668 93.7444 18.0668L71.0826 40.7028L69.2681 38.8538Z" fill="#F6F6F6" stroke="white" stroke-width="0.366154"/>
<path d="M94.0536 16.3008L70.3477 39.8657" stroke="white" stroke-width="0.366154"/>
<path d="M92.6422 16.4082L69.7065 39.1981" stroke="white" stroke-width="0.366154"/>
<path d="M75.1579 12.4986C72.8961 12.5261 71.0373 13.664 69.3028 15.1443C69.3028 15.1443 68.8819 15.4836 69.3694 15.6869C69.3694 15.6869 71.7744 16.8719 75.2913 16.5263C78.5468 20.97 76.207 22.4206 75.7761 23.1208C75.7761 23.1208 76.9967 23.2503 78.5158 22.1996C78.8027 22.0751 79.0248 22.2481 79.0248 22.2481C79.0131 22.6063 79.2189 22.636 79.2189 22.636L82.1768 22.5875C82.4229 22.4337 82.4809 22.1366 83.1708 22.3208L84.286 22.8784C82.1236 20.0907 83.3753 18.2575 85.4255 16.6476C87.8997 16.9304 90.0259 16.5542 91.6322 15.1928C89.704 15.4435 87.7838 15.5249 85.9791 15.1253C84.0563 14.6994 82.0742 14.2797 80.4553 14.2473C78.4414 12.9806 76.7053 12.4796 75.1579 12.4986ZM81.8807 15.7115C82.1694 15.7124 82.4718 15.7706 82.801 15.9385C82.2244 17.4814 81.4191 17.7508 81.4191 17.7508C80.9066 17.1224 80.9756 16.2665 81.0434 15.8293C81.317 15.7675 81.5919 15.7108 81.8807 15.7115ZM78.4656 15.8715C78.6153 15.8689 78.7834 15.8799 78.9756 15.9086C78.9368 16.59 78.9821 17.4114 78.4996 17.8328C78.024 17.5961 77.6087 17.2122 77.4671 16.1485C77.7343 16.0083 78.0167 15.879 78.4656 15.8715ZM83.1637 16.0206C83.5202 16.0211 83.8155 16.1615 84.0921 16.3445C83.8056 16.8666 83.5236 17.4122 83.1587 17.5265C83.1587 17.5265 82.8574 16.9513 83.0072 16.0294C83.0607 16.0235 83.1127 16.0205 83.1637 16.0206ZM77.0556 16.2342C77.084 16.5471 77.2757 17.1979 76.7471 17.5201C76.2873 17.4551 76.0657 16.9817 75.9241 16.3714L77.0556 16.2342ZM84.298 16.4111C84.5184 16.4589 84.688 16.5022 85.2498 16.581C85.2819 16.6613 84.4512 17.4627 84.298 17.3265C84.1934 17.2333 84.0093 16.6381 84.298 16.4111Z" stroke="white" stroke-width="0.366154" stroke-linejoin="round"/>
<path d="M76.5542 11.6294C77.5399 13.1822 88.1437 15.2321 90.7132 13.4477C89.5247 13.1774 85.9128 12.0658 85.9128 12.0658C85.1612 11.8859 84.4095 11.9706 83.6579 12.0416C82.212 11.8727 82.1821 11.3556 80.5546 10.9748C77.5165 10.3909 76.5542 11.6294 76.5542 11.6294Z" stroke="white" stroke-width="0.366154" stroke-linejoin="round"/>
<path d="M79.1959 9.03488C77.1323 11.5461 71.6743 12.859 70.3223 11.1926C72.1034 10.5283 73.1781 10.4982 76.0926 8.81668C77.0197 8.53816 77.9976 8.71586 78.9535 8.69546C79.4734 8.7157 79.1959 9.03488 79.1959 9.03488Z" stroke="white" stroke-width="0.366154"/>
<path d="M79.489 9.49561C82.7226 12.4224 88.4146 11.2288 89.8173 10.7321C87.0905 10.3435 84.678 9.66919 82.3014 8.96223C80.927 8.70745 80.14 8.97858 79.489 9.49561Z" stroke="white" stroke-width="0.366154" stroke-linejoin="round"/>
<path d="M88.2168 7.71401C82.898 8.97282 72.7731 8.27961 72.481 7.60044C72.481 7.60044 72.3999 7.45094 72.5131 7.33686C74.2293 5.79641 82.9468 5.44658 83.8583 6.06426C85.0752 6.69428 85.2628 6.73115 85.9893 6.9976C86.7158 7.26405 87.4585 7.49433 88.2168 7.71401Z" stroke="white" stroke-width="0.366154" stroke-linejoin="round"/>
<path d="M74.1157 4.93677L84.1652 4.91252C84.8902 4.84909 84.735 4.39575 84.1167 4.16094C80.7124 3.29557 76.1971 3.029 74.1157 4.93677Z" stroke="white" stroke-width="0.366154" stroke-linejoin="round"/>
<path d="M82.5101 2.81201H77.384C77.5397 2.14806 78.5602 1.39345 80.2642 1.09766C81.8993 1.37364 82.5421 2.62283 82.5101 2.81201Z" stroke="white" stroke-width="0.366154" stroke-linejoin="round"/>
<path d="M72.4021 11.9531L72.4143 13.1291" stroke="white" stroke-width="0.366154"/>
<path d="M73.0071 11.9199L73.016 12.874" stroke="white" stroke-width="0.366154"/>
<path d="M74.4346 11.668L74.4475 12.5337" stroke="white" stroke-width="0.366154"/>
<path d="M75.0579 11.5156L75.0611 12.4691" stroke="white" stroke-width="0.366154"/>
<path d="M74.8623 8.16211L74.888 9.5036" stroke="white" stroke-width="0.366154"/>
<path d="M75.594 8.22852L75.6024 9.12855" stroke="white" stroke-width="0.366154"/>
<path d="M79.2136 12.959V13.5651" stroke="white" stroke-width="0.366154"/>
<path d="M80.0723 13.2012V14.0013" stroke="white" stroke-width="0.366154"/>
<path d="M81.1413 13.4551L81.105 14.2552" stroke="white" stroke-width="0.366154"/>
<path d="M81.7319 13.6016L81.6956 14.3168" stroke="white" stroke-width="0.366154"/>
<path d="M83.2317 13.8242L83.234 14.588" stroke="white" stroke-width="0.366154"/>
<path d="M83.733 13.877L83.7209 14.676" stroke="white" stroke-width="0.366154"/>
<path d="M85.6194 14.1094V15.0351" stroke="white" stroke-width="0.366154"/>
<path d="M86.2974 14.123L86.2717 15.1688" stroke="white" stroke-width="0.366154"/>
<path d="M79.0629 9.20117L79.0508 10.7952" stroke="white" stroke-width="0.366154"/>
<path d="M79.0361 8.43164L79.0483 8.69833" stroke="white" stroke-width="0.366154"/>
<path d="M79.7317 8.41992L79.762 9.32909" stroke="white" stroke-width="0.366154"/>
<path d="M79.7788 9.75391L79.8152 10.8388" stroke="white" stroke-width="0.366154"/>
<path d="M81.2788 10.6621V11.1507" stroke="white" stroke-width="0.366154"/>
<path d="M81.8296 10.8672V11.3815" stroke="white" stroke-width="0.366154"/>
<path d="M81.0833 8.39062L81.1003 8.87064" stroke="white" stroke-width="0.366154"/>
<path d="M81.7534 8.4082V8.85394" stroke="white" stroke-width="0.366154"/>
<path d="M83.6567 12.043L83.6377 11.2754" stroke="white" stroke-width="0.366154"/>
<path d="M84.2065 12.0124L84.2188 11.3457" stroke="white" stroke-width="0.366154"/>
<path d="M83.6448 9.3005L83.8848 8.32422" stroke="white" stroke-width="0.366154"/>
<path d="M84.2717 9.56236L84.6045 8.26562" stroke="white" stroke-width="0.366154"/>
<path d="M86.5361 11.3984L86.5533 12.2556" stroke="white" stroke-width="0.366154"/>
<path d="M87.0147 11.2949L86.989 12.3749" stroke="white" stroke-width="0.366154"/>
<path d="M79.3477 4.9707L79.3599 5.84351" stroke="white" stroke-width="0.366154"/>
<path d="M79.8948 4.93555L79.919 5.84473" stroke="white" stroke-width="0.366154"/>
<path d="M79.2898 2.80273L79.3156 3.51418" stroke="white" stroke-width="0.366154"/>
<path d="M79.8657 2.79297L79.8829 3.55586" stroke="white" stroke-width="0.366154"/>
<path d="M78.6411 2.81055V3.50485" stroke="white" stroke-width="0.366154"/>
<path d="M78.1448 2.83594L78.1619 3.53025" stroke="white" stroke-width="0.366154"/>
<path d="M81.0836 2.86914L81.0579 3.59774" stroke="white" stroke-width="0.366154"/>
<path d="M81.7547 2.81836L81.6775 3.63268" stroke="white" stroke-width="0.366154"/>
<path d="M81.0325 4.94531L81.0688 5.78176" stroke="white" stroke-width="0.366154"/>
<path d="M81.605 4.92188V5.81892" stroke="white" stroke-width="0.366154"/>
<path d="M76.6208 4.98242L76.6086 6.1098" stroke="white" stroke-width="0.366154"/>
<path d="M77.2151 4.93555L77.2029 6.01444" stroke="white" stroke-width="0.366154"/>
<path d="M50.7644 39.0176C51.9081 42.4573 53.4584 45.6963 58.3207 47.0793C56.3185 42.8055 53.7082 40.3993 50.7644 39.0176Z" stroke="white" stroke-width="0.366154"/>
<path d="M59.9121 36.541C60.6703 39.1359 61.7016 41.54 59.0023 46.5486C58.067 44.8872 56.7862 40.8329 59.9121 36.541Z" stroke="white" stroke-width="0.366154"/>
<path d="M56.7012 42.2169C51.5725 39.3568 50.6474 35.422 50 31.4414C52.5548 33.2904 54.8134 36.7473 56.7012 42.2169Z" stroke="white" stroke-width="0.366154"/>
<path d="M59.4321 30.2617C60.2207 34.2357 59.3937 37.4264 57.0374 39.8755C55.548 35.6034 56.6368 32.5344 59.4321 30.2617Z" stroke="white" stroke-width="0.366154"/>
<path d="M54.038 34.5135C51.0291 31.1735 49.8823 27.3681 51.8222 22.791C54.2381 25.8599 54.0141 30.2486 54.038 34.5135Z" stroke="white" stroke-width="0.366154"/>
<path d="M59.4711 24.9727C53.0542 29.3398 54.577 33.6222 55.1466 34.8367C58.5094 30.5881 59.7427 27.1897 59.4711 24.9727Z" stroke="white" stroke-width="0.366154"/>
<path d="M55.7164 14.8945C51.9214 18.524 53.4404 23.1637 54.5013 27.6177C54.6672 25.7174 55.3641 24.3672 56.4312 22.0424C57.5304 19.1574 56.2838 16.7727 55.7164 14.8945Z" stroke="white" stroke-width="0.366154"/>
<path d="M62.2229 18.3262C61.3296 23.4177 58.4189 25.0055 55.7898 27.0823C56.1507 23.688 57.5978 20.5833 62.2229 18.3262Z" stroke="white" stroke-width="0.366154"/>
<path d="M66.9381 12.3906C65.9441 13.3178 65.8642 13.5358 61.928 14.9216C59.8996 15.7204 57.9426 18.8325 57.1812 20.2533C58.9109 19.1368 59.2758 18.5642 62.5421 17.5371C63.7626 16.9057 66.3598 16.1019 66.9381 12.3906Z" stroke="white" stroke-width="0.366154"/>
<path d="M61.5069 8.24609C60.119 15.785 58.8362 16.0618 57.5398 17.2882C57.7622 10.2868 59.8494 10.0451 61.5069 8.24609Z" stroke="white" stroke-width="0.366154"/>
<path d="M69.976 5.96094C67.5724 11.4009 64.3031 13.2211 60.8623 14.324C62.8747 9.43401 66.0598 6.94825 69.976 5.96094Z" stroke="white" stroke-width="0.366154"/>
<path d="M59.9098 36.541C59.1355 40.0025 59.0788 43.2725 59 46.5486" stroke="white" stroke-width="0.366154"/>
<path d="M58.3207 47.0793C56.9722 45.8037 55.8706 44.411 54.2566 43.2671C52.7481 42.1978 51.7316 40.5847 50.7644 39.0176" stroke="white" stroke-width="0.366154"/>
<path d="M56.7012 42.2169C54.5753 40.2791 51.7138 35.8599 50 31.4414" stroke="white" stroke-width="0.366154"/>
<path d="M57.0377 39.8755C56.8113 38.7486 56.8834 36.5002 57.7351 35.0683C58.5505 33.6972 58.7528 32.5339 59.4323 30.2617" stroke="white" stroke-width="0.366154"/>
<path d="M59.4697 24.9727C56.739 28.5751 55.1153 31.9076 55.1452 34.8367" stroke="white" stroke-width="0.366154"/>
<path d="M54.0384 34.5135C52.8307 30.6545 51.176 26.8418 51.8225 22.791" stroke="white" stroke-width="0.366154"/>
<path d="M54.5034 27.6177C54.5199 25.4715 54.5053 23.4206 54.9784 21.3535C55.4783 19.1688 55.8876 17.3138 55.7186 14.8945" stroke="white" stroke-width="0.366154"/>
<path d="M55.7898 27.0823C57.1533 24.4573 57.3648 23.6695 58.8307 22.6039C60.3432 21.5044 61.3076 20.1604 62.2229 18.3262" stroke="white" stroke-width="0.366154"/>
<path d="M57.1812 20.2533C58.8314 18.6487 60.1779 16.8257 62.1857 16.2458C64.3472 15.6215 66.0372 14.0538 66.9381 12.3906" stroke="white" stroke-width="0.366154"/>
<path d="M57.5398 17.2882C58.1039 13.7953 59.6727 10.9369 61.5069 8.24609" stroke="white" stroke-width="0.366154"/>
<path d="M60.8623 14.324C62.6288 12.4661 63.8608 10.9991 69.976 5.96094" stroke="white" stroke-width="0.366154"/>
<path d="M109.007 38.9746C107.863 42.4143 106.313 45.6534 101.451 47.0363C103.453 42.7625 106.063 40.3565 109.007 38.9746Z" stroke="white" stroke-width="0.366154"/>
<path d="M99.8594 36.498C99.1012 39.0929 98.0699 41.4971 100.769 46.5056C101.704 44.8443 102.985 40.7899 99.8594 36.498Z" stroke="white" stroke-width="0.366154"/>
<path d="M103.07 42.1738C108.199 39.3138 109.124 35.379 109.771 31.3984C107.217 33.2474 104.958 36.7043 103.07 42.1738Z" stroke="white" stroke-width="0.366154"/>
<path d="M100.336 30.2188C99.5472 34.1928 100.374 37.3834 102.73 39.8327C104.22 35.5604 103.131 32.4914 100.336 30.2188Z" stroke="white" stroke-width="0.366154"/>
<path d="M105.73 34.4725C108.739 31.1325 109.886 27.3271 107.946 22.75C105.53 25.8188 105.754 30.2076 105.73 34.4725Z" stroke="white" stroke-width="0.366154"/>
<path d="M100.304 24.9297C106.721 29.2968 105.198 33.5792 104.628 34.7938C101.266 30.5451 100.032 27.1467 100.304 24.9297Z" stroke="white" stroke-width="0.366154"/>
<path d="M104.052 14.8516C107.847 18.481 106.328 23.1207 105.267 27.5748C105.101 25.6744 104.404 24.3243 103.337 21.9994C102.238 19.1145 103.484 16.7298 104.052 14.8516Z" stroke="white" stroke-width="0.366154"/>
<path d="M97.5486 18.2812C98.442 23.3727 101.353 24.9605 103.982 27.0374C103.621 23.6431 102.174 20.5384 97.5486 18.2812Z" stroke="white" stroke-width="0.366154"/>
<path d="M92.8301 12.3496C93.8241 13.2767 93.904 13.4947 97.8401 14.8806C99.8686 15.6793 101.826 18.7914 102.587 20.2122C100.857 19.0958 100.492 18.5231 97.226 17.496C96.0056 16.8647 93.4084 16.0609 92.8301 12.3496Z" stroke="white" stroke-width="0.366154"/>
<path d="M98.2646 8.20312C99.6526 15.7421 100.935 16.0188 102.232 17.2452C102.009 10.2438 99.9222 10.0021 98.2646 8.20312Z" stroke="white" stroke-width="0.366154"/>
<path d="M89.7957 5.91602C92.1993 11.3561 95.4686 13.1762 98.9093 14.279C96.897 9.38909 93.7118 6.90333 89.7957 5.91602Z" stroke="white" stroke-width="0.366154"/>
<path d="M99.8582 36.498C100.632 39.9595 100.689 43.2296 100.768 46.5056" stroke="white" stroke-width="0.366154"/>
<path d="M101.451 47.0363C102.799 45.7607 103.901 44.368 105.515 43.2241C107.023 42.1549 108.04 40.5417 109.007 38.9746" stroke="white" stroke-width="0.366154"/>
<path d="M103.07 42.1738C105.196 40.236 108.058 35.8168 109.771 31.3984" stroke="white" stroke-width="0.366154"/>
<path d="M102.73 39.8327C102.957 38.7057 102.885 36.4573 102.033 35.0253C101.217 33.6543 101.015 32.4909 100.336 30.2188" stroke="white" stroke-width="0.366154"/>
<path d="M100.298 24.9297C103.029 28.5321 104.653 31.8646 104.623 34.7938" stroke="white" stroke-width="0.366154"/>
<path d="M105.729 34.4725C106.937 30.6135 108.592 26.8007 107.945 22.75" stroke="white" stroke-width="0.366154"/>
<path d="M105.268 27.5748C105.251 25.4285 105.266 23.3777 104.793 21.3106C104.293 19.1258 103.884 17.2709 104.053 14.8516" stroke="white" stroke-width="0.366154"/>
<path d="M103.982 27.0374C102.618 24.4123 102.407 23.6246 100.941 22.559C99.4284 21.4595 98.464 20.1155 97.5486 18.2812" stroke="white" stroke-width="0.366154"/>
<path d="M102.587 20.2122C100.937 18.6077 99.5902 16.7847 97.5825 16.2048C95.421 15.5805 93.731 14.0128 92.8301 12.3496" stroke="white" stroke-width="0.366154"/>
<path d="M102.232 17.2452C101.668 13.7522 100.099 10.8939 98.2646 8.20312" stroke="white" stroke-width="0.366154"/>
<path d="M98.9093 14.279C97.1429 12.4212 95.9108 10.9542 89.7957 5.91602" stroke="white" stroke-width="0.366154"/>
</svg>
