<svg width="119" height="64" viewBox="0 0 119 64" fill="none" xmlns="http://www.w3.org/2000/svg">
<path d="M51.0287 60.4662C47.7036 59.2119 45.1742 57.9601 42.0987 55.4985L41.2446 54.815C42.1385 53.1588 42.7046 52.0048 43.5255 50.6905C54.8457 57.9442 63.563 60.1363 75.5172 51.2959L76.3721 50.5977C76.9481 51.583 78.3913 53.4282 78.7017 54.7334C78.7017 54.8059 76.581 56.4493 75.5726 57.1155C64.9607 64.3655 59.2035 63.5114 51.0287 60.4662Z" stroke="white" stroke-width="0.366154" stroke-linecap="round" stroke-linejoin="round"/>
<path d="M75.5732 49.0035C75.5473 49.0126 72.39 49.1409 72.1706 49.1408L71.6213 49.1404C71.804 49.2097 73.4157 51.078 73.4183 51.0647C74.2281 50.4825 76.5124 48.6891 75.5732 49.0035Z" fill="#F7FFFF" stroke="white" stroke-width="0.366154" stroke-linecap="round" stroke-linejoin="round"/>
<path d="M78.51 51.7501C79.4968 50.9442 80.5919 50.2772 81.1793 49.502C81.4204 49.1838 81.7039 48.393 81.4674 48.4778C81.2189 48.567 80.7309 48.4548 80.1042 48.5047C79.4776 48.5547 78.8208 48.5962 78.807 48.5856C78.7932 48.575 78.6674 47.7609 78.479 46.6866C78.2907 45.6123 78.0438 44.4864 78.0178 44.4981C77.3935 44.781 77.5633 45.2017 77.0466 45.8081C76.53 46.4145 75.6082 47.4062 75.0591 48.0235L73.7808 49.1994L74.8814 49.1381L75.598 49.1394L76.4481 50.6439C76.9446 51.5226 77.5256 52.6401 77.5629 52.4419C77.569 52.4094 78.0626 52.1154 78.51 51.7501Z" stroke="white" stroke-width="0.366154" stroke-linecap="round" stroke-linejoin="round"/>
<path d="M45.4584 50.3342C44.9124 49.9148 44.1157 49.3086 44.4208 49.4146C44.4466 49.4236 47.7326 49.5519 47.952 49.5517L48.3725 49.5515L48.3139 49.5962L47.3901 50.4207C46.9593 50.8051 46.5016 51.2539 46.4986 51.1162C46.4983 51.0973 46.0044 50.7536 45.4584 50.3342Z" stroke="white" stroke-width="0.366154" stroke-linecap="round" stroke-linejoin="round"/>
<path d="M41.298 51.9916C40.3112 51.1857 39.2161 50.5186 38.6287 49.7434C38.3876 49.4253 38.1041 48.5175 38.3407 48.6023C38.5892 48.6915 39.0772 48.6962 39.7038 48.7462C40.3304 48.7962 40.7534 48.8377 40.7672 48.8271C40.781 48.8165 41.0108 48.0023 41.1991 46.928C41.3874 45.8538 41.5816 44.7165 41.6083 44.7266C41.6349 44.7366 42.2448 45.4432 42.7614 46.0496C43.2781 46.656 44.1998 47.6477 44.7489 48.265L46.0274 49.4408L44.9267 49.3795L44.2101 49.3808L43.36 50.8853C42.8634 51.7639 42.2825 52.8814 42.2452 52.6834C42.239 52.6509 41.7454 52.3569 41.298 51.9916Z" stroke="white" stroke-width="0.366154" stroke-linecap="round" stroke-linejoin="round"/>
<path d="M78.1387 53.4877C77.8462 52.9757 77.5229 52.4837 77.5547 52.4544C77.5757 52.435 77.9014 52.2142 78.1814 52.0056C79.0032 51.3937 80.6221 49.5151 81.3291 48.7399L81.5393 48.5094L82.2981 48.5033C82.7048 48.5023 83.1662 48.4905 83.1662 48.5059C83.1662 48.5213 82.7961 49.0045 82.4563 49.4224C80.9037 51.3328 79.9725 52.7176 78.5191 53.4666L78.247 53.6771L78.1387 53.4877Z" stroke="white" stroke-width="0.366154" stroke-linecap="round" stroke-linejoin="round"/>
<path d="M72.0542 48.9073C73.8255 47.8252 75.455 46.2819 76.8543 44.336C77.0656 44.0421 77.6531 43.1699 77.669 43.1255C77.6729 43.1148 77.7311 43.0541 77.7354 43.0589C77.7398 43.0635 77.9158 43.5226 77.9731 44.0189L78.1531 44.9514L78.0585 45.0732C78.0585 45.0732 76.9235 46.5627 76.2753 47.288C75.9256 47.6794 75.1401 48.4361 74.7363 48.8336L74.4316 49.1336L73.1429 49.1315L71.7808 49.1018L72.0542 48.9073Z" stroke="white" stroke-width="0.366154" stroke-linecap="round" stroke-linejoin="round"/>
<path d="M41.4953 53.7033C40.4063 52.9642 38.4001 50.9659 37.4545 49.8114C37.1924 49.4914 36.4692 48.5233 36.4692 48.5042C36.4692 48.5009 36.9186 48.5271 37.3641 48.5623C37.8096 48.5977 38.3202 48.6414 38.3535 48.6418C38.4034 48.6426 38.3799 48.711 38.4064 48.7568C38.5005 48.9196 38.7757 49.2526 38.9458 49.4791C39.6794 50.4552 40.5152 51.2863 41.9575 52.4003C42.1319 52.535 42.2746 52.7138 42.2819 52.7204C42.2892 52.7271 42.16 52.9834 41.9844 53.269L41.6649 53.8184L41.4953 53.7033Z" stroke="white" stroke-width="0.366154" stroke-linecap="round" stroke-linejoin="round"/>
<path d="M46.9964 49.4896C46.2666 49.4588 46.0138 49.4353 45.9963 49.4216C45.9594 49.3927 45.6909 49.1453 45.5621 49.0289C45.0567 48.5724 44.3403 47.8255 43.8451 47.2888C43.2768 46.6729 42.6755 46.0561 42.0353 45.2825C41.8367 45.0426 41.674 44.7136 41.6592 44.6998L41.5959 44.7254L41.6756 43.9997C41.7161 43.6319 41.8564 43.2171 41.8609 43.2188C41.8655 43.2204 42.0156 43.3951 42.0906 43.4885C42.6691 44.2075 43.1162 44.7491 43.8587 45.4989C44.7759 46.4251 45.5745 47.1085 47.4411 48.7185C47.8612 49.0808 48.4733 49.6362 48.2648 49.5452C48.2431 49.5357 47.9964 49.5318 46.9964 49.4896Z" stroke="white" stroke-width="0.366154" stroke-linecap="round" stroke-linejoin="round"/>
<path d="M58.8346 63.5518C53.9469 63.2791 48.9915 61.4806 43.9367 58.4785C42.6733 57.7282 40.408 56.2827 40.4298 56.203C40.4404 56.1644 40.6906 55.7414 40.8705 55.4401L41.2441 54.8143L41.7051 55.191C44.6798 57.6219 51.5198 61.0028 56.2794 61.8138C58.8849 62.2578 61.9996 62.2605 64.6074 61.7789C68.9979 60.968 75.1371 57.7687 77.7191 55.6193L78.7375 54.7715L79.1074 55.4965C79.374 56.0191 79.5373 56.1661 79.4546 56.2329C79.4008 56.2764 78.7124 56.7557 78.1322 57.1942C73.5603 60.9889 67.4842 63.2066 63.4548 63.4823C62.2466 63.5649 59.9028 63.6114 58.8346 63.5518Z" stroke="white" stroke-width="0.366154" stroke-linecap="round" stroke-linejoin="round"/>
<path d="M57.3504 56.9972C54.8502 56.584 51.4403 55.4577 48.7126 53.9992C47.1049 53.1395 43.5671 50.8128 43.5671 50.6133C43.5671 50.511 43.9374 49.8541 44.2194 49.4345C44.237 49.4084 44.8245 49.8706 45.3549 50.2937C48.6923 52.9566 53.3321 55.1027 57.0445 55.7422C59.9947 56.2503 63.5121 55.9349 66.3261 54.9497C69.088 53.9826 72.2838 52.1504 74.313 50.3277C74.8909 49.8087 75.514 49.2045 75.5773 49.2051C75.6407 49.2057 75.9037 49.6745 76.026 49.9831L76.3734 50.5983L75.366 51.4005C71.6534 54.3567 67.4531 56.347 63.5162 56.9385C62.0695 57.1558 59.234 57.3085 57.3504 56.9972Z" stroke="white" stroke-width="0.366154" stroke-linecap="round" stroke-linejoin="round"/>
<path d="M41.8251 43.1755C43.784 45.7046 46.1056 47.5809 48.3741 49.553L46.5225 51.1644C54.5582 56.6028 63.3302 58.6306 73.4222 51.0778L71.6209 49.1415C74.0937 47.7371 76.1081 45.6196 77.7583 42.9355L78.8556 48.5243L83.2443 48.4558C80.2034 52.3054 79.3426 52.8352 78.2384 53.736L79.4728 56.2046C66.1332 67.0441 53.1346 65.1852 40.4279 56.2046L41.688 53.899C38.2216 51.0149 37.5238 49.9518 36.4077 48.49L40.8308 48.8329L41.8251 43.1755Z" stroke="white" stroke-width="0.366154" stroke-linejoin="round"/>
<path d="M48.3705 49.5523L44.2046 49.3809L46.5191 51.1638" stroke="white" stroke-width="0.366154" stroke-linejoin="round"/>
<path d="M44.2066 49.3809L41.6865 53.8984" stroke="white" stroke-width="0.366154"/>
<path d="M71.6213 49.1406H75.5987L73.4227 51.077" stroke="white" stroke-width="0.366154" stroke-linejoin="round"/>
<path d="M75.5959 49.1406L78.2361 53.7351" stroke="white" stroke-width="0.366154"/>
<path d="M76.3676 50.5977C65.2477 60.0084 54.2963 58.7934 43.5417 50.6662" stroke="white" stroke-width="0.366154"/>
<path d="M41.2446 54.8143C53.08 63.6595 65.4423 65.4574 78.738 54.7715" stroke="white" stroke-width="0.366154"/>
<path d="M38.3569 48.6406C39.38 50.3666 40.8686 51.5648 42.336 52.6874" stroke="white" stroke-width="0.366154" stroke-linejoin="round"/>
<path d="M41.5959 44.7266C42.9706 46.4006 44.3822 48.0378 46.0276 49.441" stroke="white" stroke-width="0.366154"/>
<path d="M78.1512 44.9492C77.0105 46.5761 75.7643 47.9569 74.4297 49.1314" stroke="white" stroke-width="0.366154"/>
<path d="M81.4889 48.502C79.9124 50.5227 78.6159 51.7442 77.5234 52.4418" stroke="white" stroke-width="0.366154"/>
<path d="M75.1478 52.9395L74.4185 52.832L74.311 53.5614L75.0404 53.6689L75.1478 52.9395Z" fill="white"/>
<path d="M75.9763 53.3742L75.3063 53.2754L75.2075 53.9454L75.8775 54.044L75.9763 53.3742Z" fill="white"/>
<path d="M75.2055 53.9437L74.527 53.8438L74.427 54.5221L75.1055 54.6221L75.2055 53.9437Z" fill="white"/>
<path d="M76.0548 54.2109C75.9883 54.9109 75.8771 55.4753 75.3605 54.8024C75.0052 56.065 74.5177 55.9076 73.9804 55.2139L73.089 55.8996C73.2835 56.7856 73.3364 57.6381 72.2917 58.2312C72.7683 58.2376 73.5114 58.5221 73.6461 56.0282L73.9976 55.8053C74.4352 56.1628 74.8699 56.6123 75.3519 55.5739C75.6513 55.408 76.2499 56.205 76.2348 54.9567L76.252 54.4253L76.0548 54.2109Z" fill="white"/>
<path d="M71.2763 55.7305C70.8532 55.7349 70.62 56.2191 70.62 56.2191C70.3023 57.0466 71.1004 57.3097 71.1004 57.3097C71.4816 57.3664 71.6512 56.8594 71.8157 56.9251C71.94 56.9747 71.9215 57.2351 71.4004 57.7944C69.9711 58.9663 68.5133 60.243 68.0591 57.8285C67.9566 58.6828 67.967 59.5897 69.232 59.8541C70.5059 59.5471 72.0175 58.078 72.0175 58.078C72.4514 57.3707 72.3086 57.0233 72.3086 57.0233C72.3086 57.0233 72.1831 56.1827 71.5988 55.8161C71.4816 55.7541 71.3739 55.7296 71.2763 55.7305ZM71.2491 56.217C71.3207 56.217 71.3894 56.2454 71.44 56.296C71.4906 56.3467 71.5191 56.4153 71.5191 56.4869C71.5191 56.5585 71.4906 56.6271 71.44 56.6778C71.3894 56.7284 71.3207 56.7569 71.2491 56.7569C71.1775 56.7569 71.1089 56.7284 71.0582 56.6778C71.0076 56.6271 70.9792 56.5585 70.9791 56.4869C70.9792 56.4153 71.0076 56.3467 71.0582 56.296C71.1089 56.2454 71.1775 56.217 71.2491 56.217Z" fill="white"/>
<path d="M69.8738 56.1675L69.1759 56.084L69.0923 56.7819L69.7903 56.8654L69.8738 56.1675Z" fill="white"/>
<path d="M67.0322 60.2408C67.2632 60.2408 67.4505 60.0535 67.4505 59.8225C67.4505 59.5916 67.2632 59.4043 67.0322 59.4043C66.8013 59.4043 66.614 59.5916 66.614 59.8225C66.614 60.0535 66.8013 60.2408 67.0322 60.2408Z" fill="white"/>
<path d="M65.929 57.4505L65.2699 57.1152L64.9346 57.7743L65.5937 58.1096L65.929 57.4505Z" fill="white"/>
<path d="M64.9358 57.7729L64.2917 57.4453L63.9641 58.0894L64.6082 58.4169L64.9358 57.7729Z" fill="white"/>
<path d="M58.005 60.9064L57.4586 60.4082L56.9604 60.9546L57.5069 61.4529L58.005 60.9064Z" fill="white"/>
<path d="M56.96 60.9535L56.4583 60.4961L56.001 60.9977L56.5026 61.4551L56.96 60.9535Z" fill="white"/>
<path d="M56.6012 57.5149L56.0742 56.9961L55.5554 57.5231L56.0824 58.0419L56.6012 57.5149Z" fill="white"/>
<path d="M55.5546 57.5212L55.0708 57.0449L54.5945 57.5287L55.0783 58.005L55.5546 57.5212Z" fill="white"/>
<path d="M62.8598 58.4317L62.1791 58.0332L61.7808 58.7137L62.4613 59.1122L62.8598 58.4317Z" fill="white"/>
<path d="M55.636 58.041C55.5199 58.2179 55.4567 58.4875 55.2586 58.521C53.4134 59.0872 53.6988 59.8582 53.6988 59.8582C53.6988 59.8582 54.3718 60.3226 54.8902 59.9183C55.3676 59.6138 55.4402 59.8065 55.516 59.9952C55.8978 60.6707 56.6045 59.9867 56.6045 59.9867C56.6013 59.9713 57.2275 59.6291 57.4618 59.9525C57.9695 60.6206 58.6839 59.7229 59.3219 59.9353C59.3289 60.3127 59.1531 60.7684 59.6047 60.9552C59.9657 61.0657 60.303 60.9174 60.6418 60.784C61.0445 60.5347 61.2791 60.2972 61.2791 60.2972C61.2791 60.2972 61.4722 60.6121 61.6449 60.8439C62.4145 61.6873 64.1582 60.8067 64.3625 60.6437L65.6051 59.6268C65.5801 59.2404 65.5603 58.8519 65.3908 58.521C65.3424 58.4214 65.273 58.4169 65.2022 58.4182C64.9906 58.5048 64.9282 58.6637 64.9793 58.7953C65.5083 59.7041 64.6229 60.209 64.5164 60.0854C64.5164 60.0854 64.4078 60.0175 64.3835 59.9824C64.2503 59.7773 64.4133 59.3697 64.4136 59.0866C63.7115 58.8329 63.2906 59.1725 63.2906 59.1725L61.9876 60.3212C61.4643 60.4717 61.4493 59.9868 61.259 59.7211C60.4973 60.7306 59.9523 60.7196 59.579 59.9011C59.5295 59.7911 59.5631 59.725 59.6133 59.6697C59.8503 59.436 60.1911 59.6277 60.4534 59.7039L60.8561 59.3612C59.7949 59.2766 59.2116 58.7645 58.5676 58.3067L57.6247 59.0095C58.1741 58.9711 58.5981 59.0481 58.8504 59.2838C58.2291 60.0766 57.7947 59.4977 57.2988 59.3697C56.7882 59.403 55.9171 60.2179 55.6702 59.318L55.636 58.041ZM54.8408 59.0264C54.8911 59.0267 54.9472 59.032 55.0101 59.0439C55.339 59.0943 55.3444 59.2924 55.3444 59.2924C55.3142 59.6213 54.8206 59.6531 54.5817 59.6354C54.3554 59.6476 54.2302 59.4382 54.2302 59.4382C54.1145 59.2403 54.4879 59.0251 54.8408 59.0264ZM63.8513 59.4447C63.8957 59.4445 63.9404 59.4479 63.985 59.4553C64.208 59.5785 64.1467 59.729 63.9508 59.8926C63.65 60.1666 62.8575 60.5134 62.8575 60.5134C62.8575 60.5134 62.3378 60.6712 62.5707 60.2438C62.5707 60.2438 63.186 59.4467 63.8513 59.4447Z" fill="white"/>
<path d="M52.3124 59.4406C52.4998 59.4406 52.6518 59.2886 52.6518 59.1011C52.6518 58.9136 52.4998 58.7617 52.3124 58.7617C52.1249 58.7617 51.9729 58.9136 51.9729 59.1011C51.9729 59.2886 52.1249 59.4406 52.3124 59.4406Z" fill="white"/>
<path d="M51.7901 56.7757C51.7212 56.7771 51.6422 56.7838 51.5512 56.7968C50.9677 57.0102 50.656 57.3594 50.6542 57.8636C50.7614 58.0252 50.7998 58.173 51.3571 58.1546C51.0192 58.5527 50.6553 59.1012 48.9692 58.4333C49.2426 59.2776 50.8502 59.2161 51.2208 58.8456C51.2208 58.8456 51.8927 58.2554 52.2544 57.2574C52.2493 57.0186 52.2718 56.7656 51.7901 56.7757ZM51.4335 57.253C51.4868 57.253 51.5381 57.2742 51.5759 57.312C51.6136 57.3496 51.6349 57.4008 51.635 57.4543C51.635 57.4807 51.6298 57.507 51.6197 57.5313C51.6095 57.5558 51.5946 57.578 51.576 57.5967C51.5572 57.6155 51.5351 57.6303 51.5106 57.6404C51.4861 57.6505 51.46 57.6557 51.4335 57.6557C51.407 57.6557 51.3808 57.6505 51.3563 57.6404C51.332 57.6303 51.3097 57.6155 51.291 57.5967C51.2723 57.578 51.2575 57.5558 51.2474 57.5313C51.2372 57.507 51.2321 57.4807 51.2321 57.4543C51.2321 57.4009 51.2533 57.3497 51.291 57.3121C51.3287 57.2743 51.3802 57.2531 51.4335 57.253Z" fill="white"/>
<path d="M46.964 53.3121C46.8845 53.2977 46.752 53.3791 46.5482 53.6863C46.0925 54.5502 45.2327 55.3103 45.5025 56.3608C45.6734 56.8509 46.2525 57.2648 47.0969 57.6293C47.8127 57.9247 48.5299 58.1948 49.257 57.9036C49.5927 57.713 50.0172 56.375 49.9256 56.0007C49.8267 55.5958 49.2056 55.4521 49.2056 55.4521C48.8001 55.3151 48.723 54.9827 48.5369 54.715L48.1212 55.0577C48.2426 55.3149 48.5531 55.4712 48.4856 55.8292C48.109 56.1718 48.1425 56.425 48.1425 56.425C48.184 56.7807 48.4172 56.9722 48.9827 57.0123C49.4705 57.0863 49.3891 57.6712 48.914 57.5951C48.1336 57.3289 47.3541 57.0611 46.6855 56.5494C45.7609 55.9274 46.3703 54.7585 47.0454 53.5664C47.0804 53.5075 47.0661 53.3306 46.964 53.3121ZM49.0041 56.0435C49.0397 56.0435 49.0747 56.0505 49.1076 56.064C49.1403 56.0777 49.1701 56.0976 49.1951 56.1226C49.2202 56.1478 49.2401 56.1776 49.2536 56.2103C49.2672 56.2431 49.2741 56.2782 49.2741 56.3137C49.2741 56.3853 49.2457 56.454 49.195 56.5046C49.1444 56.5552 49.0757 56.5836 49.0041 56.5836C48.9325 56.5836 48.8639 56.5552 48.8133 56.5046C48.7626 56.454 48.7342 56.3853 48.7341 56.3137C48.7341 56.2782 48.7411 56.2431 48.7546 56.2103C48.7683 56.1776 48.7881 56.1478 48.8132 56.1226C48.8382 56.0976 48.868 56.0777 48.9008 56.064C48.9336 56.0505 48.9687 56.0435 49.0041 56.0435Z" fill="white"/>
<path d="M44.5348 54.3429C45.74 54.7029 45.6849 54.5048 45.2871 53.9371C44.9438 53.7768 43.7065 53.9868 43.6688 54.3674L43.6082 54.7796C43.225 54.9422 43.1174 55.0655 42.9475 55.1978C43.1236 55.0956 44.6992 55.5311 44.6992 55.5311L45.2204 55.1069C44.8402 55.0023 44.5152 54.815 44.2264 54.5735C44.2264 54.5735 44.039 54.3824 44.5348 54.3429Z" fill="white"/>
<path d="M54.945 40.7188C56.011 42.0596 58.0385 44.3708 60.325 44.2618C60.9001 44.2344 63.263 43.7566 65.8395 40.035C64.1322 42.1677 61.3112 43.9406 60.732 42.5682L60.7406 34.7509C60.4364 34.8091 60.098 34.8154 59.7293 34.7766L59.7372 42.5682C59.2229 44.08 56.1029 41.9833 54.945 40.7188ZM54.945 40.7188C54.8223 40.5848 54.7219 40.4586 54.6501 40.3449C54.7348 40.4547 54.8411 40.5881 54.945 40.7188ZM74.8538 26.9766L64.8076 26.9936L63.9829 26.997C63.9777 26.9904 63.9726 26.9838 63.9675 26.9772H62.2455C63.1662 27.6502 63.7105 28.7221 63.7105 29.8625C63.7105 31.8363 62.1104 33.4364 60.1366 33.4364C58.1627 33.4364 56.5627 31.8363 56.5627 29.8625C56.5627 28.7221 57.107 27.6502 58.0277 26.9772H56.3055H53.0812H45.614C45.735 27.7441 46.018 28.8443 47.2384 28.8443H55.4019C55.3557 29.036 55.3212 29.2304 55.2987 29.4263L47.8323 29.4382C47.7842 29.6686 47.881 29.8989 48.2203 30.1292L55.2677 30.082C55.2717 30.277 55.2874 30.4715 55.3146 30.6646L50.0506 30.6989C50.0669 30.9533 50.1637 31.1434 50.3416 31.2686L55.4155 31.1775C55.4593 31.3513 55.5128 31.5226 55.5756 31.6905L51.5176 31.7778C51.5938 31.9453 51.5939 32.0476 51.8813 32.396L55.8625 32.3173C55.9366 32.453 56.0172 32.5852 56.1038 32.7133L52.548 32.7355C52.548 32.7355 52.622 33.3279 53.0449 33.3294L56.4756 33.3415C56.5579 33.3791 56.6396 33.4172 56.7214 33.4552C57.3614 34.085 58.1633 34.5255 59.0382 34.728L59.1061 41.7138C58.3814 42.9945 56.4392 41.2816 56.4392 41.2816L57.6757 40.021C55.0365 40.5573 54.4801 39.7293 53.6391 39.0876C54.7096 40.9566 54.329 42.1611 54.2452 43.6697L55.5301 42.2999C57.6724 43.5041 59.4427 44.9385 60.2337 46.9792C60.8967 44.9229 63.0082 43.3121 64.8402 42.1303L66.1009 43.609C66.0282 41.9561 66.2903 40.4062 66.6341 38.8813C65.1503 40.4094 63.4659 40.0005 62.9006 39.9482L64.0157 41.1848C64.0157 41.1848 62.3174 43.0128 61.4658 41.7138L61.3787 34.6924C62.2825 34.4539 63.0986 33.9604 63.7295 33.2709C63.7295 33.2709 67.2277 33.349 67.3449 33.2854C67.462 33.2218 67.7815 32.9507 67.9512 32.662L64.222 32.6841C64.3021 32.5795 64.3775 32.4712 64.4479 32.3596C64.4479 32.3596 68.4745 32.4196 68.5449 32.3596C68.6152 32.2996 68.8361 32.2269 68.9465 31.7733L64.7623 31.765C64.8363 31.5946 64.8993 31.4196 64.9513 31.2409C64.9513 31.2409 70.0086 31.3132 70.1564 31.2452C70.3044 31.1773 70.4084 30.931 70.4649 30.7652L65.0673 30.7322C65.0982 30.5464 65.1171 30.3586 65.1242 30.1703L72.2137 30.148C72.481 30.1472 72.6802 29.9662 72.6978 29.3361L65.073 29.3086C65.0464 29.1409 65.0102 28.9749 64.9646 28.8116L73.4823 28.8107C74.3343 28.8106 74.7958 27.8541 74.8538 26.9766Z" stroke="white" stroke-width="0.366154" stroke-linejoin="round"/>
<path d="M72.062 39.7695C73.462 41.2179 74.8582 42.6698 76.2559 44.1202L74.216 46.1947C74.5023 45.7429 74.7161 45.1601 74.5244 44.9087C74.2613 44.5704 73.8857 44.2977 73.4378 44.1114C73.0124 43.9344 72.3377 43.795 71.9186 43.4687C71.9186 43.4687 70.9114 42.5131 70.9072 41.8401C70.9072 41.8378 70.8965 41.6022 70.6672 41.607C70.5009 41.6105 70.4272 41.3772 70.4272 41.3772L72.062 39.7695ZM72.3392 40.7343C72.2693 40.7343 72.2002 40.7481 72.1358 40.7748C72.0713 40.8015 72.0127 40.8407 71.9633 40.89C71.914 40.9393 71.8748 40.998 71.8482 41.0625C71.8215 41.127 71.8078 41.1961 71.8078 41.2659C71.8078 41.4068 71.8638 41.542 71.9634 41.6416C72.063 41.7413 72.1983 41.7972 72.3392 41.7973C72.4801 41.7972 72.6153 41.7413 72.7149 41.6416C72.8145 41.542 72.8706 41.4068 72.8706 41.2659C72.8707 41.125 72.8147 40.9899 72.7151 40.8902C72.6156 40.7905 72.4801 40.7344 72.3392 40.7343ZM73.8518 42.2311C73.8498 42.2311 73.8478 42.2311 73.8458 42.2311C73.7549 42.2312 73.6678 42.2673 73.6035 42.3316C73.5392 42.3958 73.503 42.483 73.503 42.5739C73.503 42.6189 73.5119 42.6635 73.5291 42.7051C73.5463 42.7467 73.5715 42.7846 73.6034 42.8164C73.6352 42.8482 73.673 42.8735 73.7145 42.8908C73.7562 42.908 73.8008 42.9168 73.8458 42.9169C73.8909 42.9169 73.9355 42.908 73.977 42.8908C74.0187 42.8736 74.0565 42.8483 74.0884 42.8165C74.1202 42.7846 74.1455 42.7468 74.1627 42.7052C74.18 42.6635 74.1888 42.6189 74.1888 42.5739C74.1888 42.484 74.1534 42.3977 74.0904 42.3335C74.0274 42.2694 73.9417 42.2327 73.8518 42.2311Z" stroke="white" stroke-width="0.366154" stroke-linejoin="round"/>
<path d="M71.4477 38.0938L72.5964 39.1996L68.5676 43.1894C67.7726 43.809 66.617 42.9868 66.6045 41.9683C66.6539 40.444 68.0962 40.6397 68.0962 40.6397C68.5743 40.7139 68.5519 40.7882 68.7218 40.8625L71.4477 38.0938ZM68.2622 41.3206C67.8605 41.3206 67.5348 41.6463 67.5348 42.048C67.5348 42.4497 67.8605 42.7754 68.2622 42.7754C68.6639 42.7753 68.9894 42.4496 68.9894 42.048C68.9894 41.6464 68.6639 41.3207 68.2622 41.3206Z" stroke="white" stroke-width="0.366154" stroke-linejoin="round"/>
<path d="M70.8679 38.6584L49.1818 17.0358C49.1818 17.0358 47.7469 15.8209 46.0831 16.1058C45.8388 17.3192 46.3917 17.8716 46.3917 17.8716L69.0535 40.5075L70.8679 38.6584Z" fill="#F6F6F6" stroke="white" stroke-width="0.366154"/>
<path d="M46.0823 16.1094L69.7883 39.6742" stroke="white" stroke-width="0.366154"/>
<path d="M47.4941 16.2148L70.4297 39.0048" stroke="white" stroke-width="0.366154"/>
<path d="M48.1668 39.9629C46.7669 41.4113 45.3706 42.8631 43.9729 44.3136L46.0128 46.388C45.7265 45.9362 45.5127 45.3535 45.7043 45.1022C45.9675 44.7638 46.3431 44.4911 46.7909 44.3049C47.2164 44.1279 47.8911 43.9884 48.3102 43.6621C48.3102 43.6621 49.3174 42.7064 49.3215 42.0335C49.3216 42.0313 49.3323 41.7955 49.5616 41.8003C49.7279 41.8039 49.8016 41.5706 49.8016 41.5706L48.1668 39.9629ZM47.8896 40.9276C47.9595 40.9276 48.0286 40.9414 48.093 40.9682C48.1575 40.9949 48.2161 41.034 48.2654 41.0834C48.3148 41.1328 48.3539 41.1914 48.3806 41.2559C48.4073 41.3203 48.4211 41.3894 48.421 41.4593C48.421 41.6002 48.3651 41.7353 48.2654 41.835C48.1657 41.9346 48.0306 41.9907 47.8896 41.9907C47.7487 41.9907 47.6136 41.9346 47.5139 41.835C47.4142 41.7353 47.3582 41.6002 47.3582 41.4593C47.3582 41.3184 47.4141 41.1832 47.5137 41.0835C47.6132 40.9839 47.7487 40.9278 47.8896 40.9276ZM46.3771 42.4246C46.379 42.4245 46.3811 42.4245 46.383 42.4246C46.4739 42.4246 46.5611 42.4607 46.6254 42.5249C46.6897 42.5892 46.7257 42.6764 46.7258 42.7673C46.7258 42.8123 46.7169 42.8569 46.6998 42.8985C46.6825 42.9401 46.6573 42.9779 46.6255 43.0098C46.5936 43.0417 46.5558 43.0669 46.5143 43.0841C46.4726 43.1014 46.4281 43.1103 46.383 43.1103C46.3379 43.1103 46.2934 43.1015 46.2518 43.0842C46.2101 43.067 46.1723 43.0418 46.1405 43.0098C46.1086 42.978 46.0833 42.9402 46.0661 42.8985C46.0488 42.857 46.04 42.8124 46.04 42.7673C46.04 42.6773 46.0753 42.5911 46.1384 42.527C46.2015 42.4629 46.2871 42.4261 46.3771 42.4246Z" stroke="white" stroke-width="0.366154" stroke-linejoin="round"/>
<path d="M48.7809 38.2871L47.6323 39.3929L51.661 43.3827C52.456 44.0023 53.6116 43.18 53.6241 42.1616C53.5748 40.6373 52.1325 40.8329 52.1325 40.8329C51.6544 40.9072 51.6767 40.9815 51.5068 41.0558L48.7809 38.2871ZM51.9664 41.5139C52.3681 41.5139 52.6938 41.8396 52.6938 42.2413C52.6938 42.643 52.3681 42.9687 51.9664 42.9687C51.5648 42.9686 51.2392 42.6429 51.2392 42.2413C51.2392 41.8397 51.5648 41.514 51.9664 41.5139Z" stroke="white" stroke-width="0.366154" stroke-linejoin="round"/>
<path d="M49.3569 38.8538L71.0431 17.2311C71.0431 17.2311 72.4781 16.0162 74.1419 16.3011C74.3861 17.5145 73.8332 18.0668 73.8332 18.0668L51.1715 40.7028L49.3569 38.8538Z" fill="#F6F6F6" stroke="white" stroke-width="0.366154"/>
<path d="M74.1425 16.3008L50.4365 39.8657" stroke="white" stroke-width="0.366154"/>
<path d="M72.7311 16.4082L49.7954 39.1981" stroke="white" stroke-width="0.366154"/>
<path d="M55.2468 12.4986C52.985 12.5261 51.1262 13.664 49.3917 15.1443C49.3917 15.1443 48.9708 15.4836 49.4583 15.6869C49.4583 15.6869 51.8633 16.8719 55.3802 16.5263C58.6357 20.97 56.2959 22.4206 55.865 23.1208C55.865 23.1208 57.0855 23.2503 58.6046 22.1996C58.8915 22.0751 59.1137 22.2481 59.1137 22.2481C59.102 22.6063 59.3078 22.636 59.3078 22.636L62.2656 22.5875C62.5118 22.4337 62.5698 22.1366 63.2597 22.3208L64.3748 22.8784C62.2125 20.0907 63.4642 18.2575 65.5144 16.6476C67.9885 16.9304 70.1148 16.5542 71.721 15.1928C69.7929 15.4435 67.8727 15.5249 66.068 15.1253C64.1452 14.6994 62.163 14.2797 60.5442 14.2473C58.5303 12.9806 56.7942 12.4796 55.2468 12.4986ZM61.9696 15.7115C62.2583 15.7124 62.5607 15.7706 62.8899 15.9385C62.3133 17.4814 61.508 17.7508 61.508 17.7508C60.9955 17.1224 61.0645 16.2665 61.1323 15.8293C61.4059 15.7675 61.6807 15.7108 61.9696 15.7115ZM58.5545 15.8715C58.7042 15.8689 58.8722 15.8799 59.0644 15.9086C59.0256 16.59 59.071 17.4114 58.5885 17.8328C58.1129 17.5961 57.6976 17.2122 57.556 16.1485C57.8232 16.0083 58.1055 15.879 58.5545 15.8715ZM63.2525 16.0206C63.6091 16.0211 63.9044 16.1615 64.181 16.3445C63.8945 16.8666 63.6125 17.4122 63.2476 17.5265C63.2476 17.5265 62.9463 16.9513 63.096 16.0294C63.1496 16.0235 63.2016 16.0205 63.2525 16.0206ZM57.1444 16.2342C57.1729 16.5471 57.3645 17.1979 56.8359 17.5201C56.3761 17.4551 56.1546 16.9817 56.0129 16.3714L57.1444 16.2342ZM64.3869 16.4111C64.6073 16.4589 64.7768 16.5022 65.3386 16.581C65.3707 16.6613 64.54 17.4627 64.3869 17.3265C64.2823 17.2333 64.0982 16.6381 64.3869 16.4111Z" stroke="white" stroke-width="0.366154" stroke-linejoin="round"/>
<path d="M56.6431 11.6294C57.6288 13.1822 68.2325 15.2321 70.8021 13.4477C69.6135 13.1774 66.0016 12.0658 66.0016 12.0658C65.25 11.8859 64.4984 11.9706 63.7468 12.0416C62.3009 11.8727 62.271 11.3556 60.6434 10.9748C57.6054 10.3909 56.6431 11.6294 56.6431 11.6294Z" stroke="white" stroke-width="0.366154" stroke-linejoin="round"/>
<path d="M59.2848 9.03488C57.2212 11.5461 51.7632 12.859 50.4111 11.1926C52.1923 10.5283 53.2669 10.4982 56.1814 8.81668C57.1086 8.53816 58.0865 8.71586 59.0423 8.69546C59.5623 8.7157 59.2848 9.03488 59.2848 9.03488Z" stroke="white" stroke-width="0.366154"/>
<path d="M59.5779 9.49561C62.8115 12.4224 68.5035 11.2288 69.9062 10.7321C67.1793 10.3435 64.7669 9.66919 62.3903 8.96223C61.0158 8.70745 60.2288 8.97858 59.5779 9.49561Z" stroke="white" stroke-width="0.366154" stroke-linejoin="round"/>
<path d="M68.3057 7.71401C62.9869 8.97282 52.862 8.27961 52.5699 7.60044C52.5699 7.60044 52.4887 7.45094 52.602 7.33686C54.3181 5.79641 63.0357 5.44658 63.9472 6.06426C65.1641 6.69428 65.3516 6.73115 66.0782 6.9976C66.8047 7.26405 67.5474 7.49433 68.3057 7.71401Z" stroke="white" stroke-width="0.366154" stroke-linejoin="round"/>
<path d="M54.2046 4.93677L64.2541 4.91252C64.979 4.84909 64.8239 4.39575 64.2056 4.16094C60.8012 3.29557 56.286 3.029 54.2046 4.93677Z" stroke="white" stroke-width="0.366154" stroke-linejoin="round"/>
<path d="M62.5989 2.81201H57.4729C57.6285 2.14806 58.6491 1.39345 60.3531 1.09766C61.9881 1.37364 62.6309 2.62283 62.5989 2.81201Z" stroke="white" stroke-width="0.366154" stroke-linejoin="round"/>
<path d="M52.491 11.9531L52.5032 13.1291" stroke="white" stroke-width="0.366154"/>
<path d="M53.0959 11.9199L53.1049 12.874" stroke="white" stroke-width="0.366154"/>
<path d="M54.5234 11.668L54.5363 12.5337" stroke="white" stroke-width="0.366154"/>
<path d="M55.1467 11.5156L55.15 12.4691" stroke="white" stroke-width="0.366154"/>
<path d="M54.9512 8.16211L54.9769 9.5036" stroke="white" stroke-width="0.366154"/>
<path d="M55.6829 8.22852L55.6913 9.12855" stroke="white" stroke-width="0.366154"/>
<path d="M59.3025 12.959V13.5651" stroke="white" stroke-width="0.366154"/>
<path d="M60.1611 13.2012V14.0013" stroke="white" stroke-width="0.366154"/>
<path d="M61.2302 13.4551L61.1938 14.2552" stroke="white" stroke-width="0.366154"/>
<path d="M61.8208 13.6016L61.7844 14.3168" stroke="white" stroke-width="0.366154"/>
<path d="M63.3206 13.8242L63.3229 14.588" stroke="white" stroke-width="0.366154"/>
<path d="M63.8219 13.877L63.8098 14.676" stroke="white" stroke-width="0.366154"/>
<path d="M65.7083 14.1094V15.0351" stroke="white" stroke-width="0.366154"/>
<path d="M66.3863 14.123L66.3606 15.1688" stroke="white" stroke-width="0.366154"/>
<path d="M59.1518 9.20117L59.1396 10.7952" stroke="white" stroke-width="0.366154"/>
<path d="M59.125 8.43164L59.1372 8.69833" stroke="white" stroke-width="0.366154"/>
<path d="M59.8206 8.41992L59.8509 9.32909" stroke="white" stroke-width="0.366154"/>
<path d="M59.8677 9.75391L59.904 10.8388" stroke="white" stroke-width="0.366154"/>
<path d="M61.3677 10.6621V11.1507" stroke="white" stroke-width="0.366154"/>
<path d="M61.9185 10.8672V11.3815" stroke="white" stroke-width="0.366154"/>
<path d="M61.1721 8.39062L61.1892 8.87064" stroke="white" stroke-width="0.366154"/>
<path d="M61.8423 8.4082V8.85394" stroke="white" stroke-width="0.366154"/>
<path d="M63.7456 12.043L63.7266 11.2754" stroke="white" stroke-width="0.366154"/>
<path d="M64.2954 12.0124L64.3077 11.3457" stroke="white" stroke-width="0.366154"/>
<path d="M63.7336 9.3005L63.9737 8.32422" stroke="white" stroke-width="0.366154"/>
<path d="M64.3606 9.56236L64.6934 8.26562" stroke="white" stroke-width="0.366154"/>
<path d="M66.625 11.3984L66.6422 12.2556" stroke="white" stroke-width="0.366154"/>
<path d="M67.1036 11.2949L67.0779 12.3749" stroke="white" stroke-width="0.366154"/>
<path d="M59.4365 4.9707L59.4488 5.84351" stroke="white" stroke-width="0.366154"/>
<path d="M59.9836 4.93555L60.0079 5.84473" stroke="white" stroke-width="0.366154"/>
<path d="M59.3787 2.80273L59.4044 3.51418" stroke="white" stroke-width="0.366154"/>
<path d="M59.9546 2.79297L59.9718 3.55586" stroke="white" stroke-width="0.366154"/>
<path d="M58.73 2.81055V3.50485" stroke="white" stroke-width="0.366154"/>
<path d="M58.2336 2.83594L58.2508 3.53025" stroke="white" stroke-width="0.366154"/>
<path d="M61.1724 2.86914L61.1467 3.59774" stroke="white" stroke-width="0.366154"/>
<path d="M61.8435 2.81836L61.7664 3.63268" stroke="white" stroke-width="0.366154"/>
<path d="M61.1213 4.94531L61.1577 5.78176" stroke="white" stroke-width="0.366154"/>
<path d="M61.6938 4.92188V5.81892" stroke="white" stroke-width="0.366154"/>
<path d="M56.7097 4.98242L56.6975 6.1098" stroke="white" stroke-width="0.366154"/>
<path d="M57.304 4.93555L57.2917 6.01444" stroke="white" stroke-width="0.366154"/>
<path d="M30.8533 39.0176C31.9969 42.4573 33.5473 45.6963 38.4095 47.0793C36.4074 42.8055 33.7971 40.3993 30.8533 39.0176Z" stroke="white" stroke-width="0.366154"/>
<path d="M40.001 36.541C40.7591 39.1359 41.7905 41.54 39.0912 46.5486C38.1559 44.8872 36.8751 40.8329 40.001 36.541Z" stroke="white" stroke-width="0.366154"/>
<path d="M36.7901 42.2169C31.6614 39.3568 30.7363 35.422 30.0889 31.4414C32.6437 33.2904 34.9022 36.7473 36.7901 42.2169Z" stroke="white" stroke-width="0.366154"/>
<path d="M39.5209 30.2617C40.3096 34.2357 39.4826 37.4264 37.1263 39.8755C35.6369 35.6034 36.7257 32.5344 39.5209 30.2617Z" stroke="white" stroke-width="0.366154"/>
<path d="M34.1269 34.5135C31.1179 31.1735 29.9711 27.3681 31.911 22.791C34.3269 25.8599 34.103 30.2486 34.1269 34.5135Z" stroke="white" stroke-width="0.366154"/>
<path d="M39.56 24.9727C33.1431 29.3398 34.6658 33.6222 35.2354 34.8367C38.5983 30.5881 39.8315 27.1897 39.56 24.9727Z" stroke="white" stroke-width="0.366154"/>
<path d="M35.8053 14.8945C32.0103 18.524 33.5293 23.1637 34.5901 27.6177C34.7561 25.7174 35.453 24.3672 36.5201 22.0424C37.6193 19.1574 36.3727 16.7727 35.8053 14.8945Z" stroke="white" stroke-width="0.366154"/>
<path d="M42.3118 18.3262C41.4185 23.4177 38.5078 25.0055 35.8787 27.0823C36.2395 23.688 37.6866 20.5833 42.3118 18.3262Z" stroke="white" stroke-width="0.366154"/>
<path d="M47.027 12.3906C46.0329 13.3178 45.9531 13.5358 42.0169 14.9216C39.9885 15.7204 38.0315 18.8325 37.27 20.2533C38.9998 19.1368 39.3647 18.5642 42.631 17.5371C43.8515 16.9057 46.4487 16.1019 47.027 12.3906Z" stroke="white" stroke-width="0.366154"/>
<path d="M41.5957 8.24609C40.2079 15.785 38.9251 16.0618 37.6287 17.2882C37.8511 10.2868 39.9382 10.0451 41.5957 8.24609Z" stroke="white" stroke-width="0.366154"/>
<path d="M50.0649 5.96094C47.6612 11.4009 44.392 13.2211 40.9512 14.324C42.9636 9.43401 46.1487 6.94825 50.0649 5.96094Z" stroke="white" stroke-width="0.366154"/>
<path d="M39.9987 36.541C39.2244 40.0025 39.1677 43.2725 39.0889 46.5486" stroke="white" stroke-width="0.366154"/>
<path d="M38.4095 47.0793C37.0611 45.8037 35.9594 44.411 34.3455 43.2671C32.837 42.1978 31.8205 40.5847 30.8533 39.0176" stroke="white" stroke-width="0.366154"/>
<path d="M36.7901 42.2169C34.6642 40.2791 31.8026 35.8599 30.0889 31.4414" stroke="white" stroke-width="0.366154"/>
<path d="M37.1266 39.8755C36.9002 38.7486 36.9722 36.5002 37.8239 35.0683C38.6394 33.6972 38.8417 32.5339 39.5211 30.2617" stroke="white" stroke-width="0.366154"/>
<path d="M39.5586 24.9727C36.8279 28.5751 35.2042 31.9076 35.234 34.8367" stroke="white" stroke-width="0.366154"/>
<path d="M34.1272 34.5135C32.9196 30.6545 31.2648 26.8418 31.9114 22.791" stroke="white" stroke-width="0.366154"/>
<path d="M34.5923 27.6177C34.6087 25.4715 34.5941 23.4206 35.0673 21.3535C35.5672 19.1688 35.9765 17.3138 35.8075 14.8945" stroke="white" stroke-width="0.366154"/>
<path d="M35.8787 27.0823C37.2421 24.4573 37.4537 23.6695 38.9196 22.6039C40.432 21.5044 41.3965 20.1604 42.3118 18.3262" stroke="white" stroke-width="0.366154"/>
<path d="M37.27 20.2533C38.9202 18.6487 40.2668 16.8257 42.2746 16.2458C44.4361 15.6215 46.1261 14.0538 47.027 12.3906" stroke="white" stroke-width="0.366154"/>
<path d="M37.6287 17.2882C38.1928 13.7953 39.7615 10.9369 41.5957 8.24609" stroke="white" stroke-width="0.366154"/>
<path d="M40.9512 14.324C42.7177 12.4661 43.9496 10.9991 50.0649 5.96094" stroke="white" stroke-width="0.366154"/>
<path d="M89.0958 38.9746C87.9522 42.4143 86.4018 45.6534 81.5396 47.0363C83.5417 42.7625 86.152 40.3565 89.0958 38.9746Z" stroke="white" stroke-width="0.366154"/>
<path d="M79.9482 36.498C79.1901 39.0929 78.1587 41.4971 80.8581 46.5056C81.7933 44.8443 83.0741 40.7899 79.9482 36.498Z" stroke="white" stroke-width="0.366154"/>
<path d="M83.1592 42.1738C88.2878 39.3138 89.2129 35.379 89.8603 31.3984C87.3055 33.2474 85.047 36.7043 83.1592 42.1738Z" stroke="white" stroke-width="0.366154"/>
<path d="M80.4248 30.2188C79.6361 34.1928 80.463 37.3834 82.8193 39.8327C84.3088 35.5604 83.22 32.4914 80.4248 30.2188Z" stroke="white" stroke-width="0.366154"/>
<path d="M85.8186 34.4725C88.8276 31.1325 89.9744 27.3271 88.0345 22.75C85.6186 25.8188 85.8425 30.2076 85.8186 34.4725Z" stroke="white" stroke-width="0.366154"/>
<path d="M80.3928 24.9297C86.8095 29.2968 85.2868 33.5792 84.7172 34.7938C81.3544 30.5451 80.1212 27.1467 80.3928 24.9297Z" stroke="white" stroke-width="0.366154"/>
<path d="M84.1404 14.8516C87.9354 18.481 86.4164 23.1207 85.3556 27.5748C85.1895 25.6744 84.4927 24.3243 83.4255 21.9994C82.3264 19.1145 83.5729 16.7298 84.1404 14.8516Z" stroke="white" stroke-width="0.366154"/>
<path d="M77.6375 18.2812C78.5309 23.3727 81.4416 24.9605 84.0707 27.0374C83.7098 23.6431 82.2627 20.5384 77.6375 18.2812Z" stroke="white" stroke-width="0.366154"/>
<path d="M72.9189 12.3496C73.913 13.2767 73.9928 13.4947 77.9289 14.8806C79.9575 15.6793 81.9144 18.7914 82.6759 20.2122C80.9461 19.0958 80.5812 18.5231 77.3149 17.496C76.0945 16.8647 73.4973 16.0609 72.9189 12.3496Z" stroke="white" stroke-width="0.366154"/>
<path d="M78.3535 8.20312C79.7415 15.7421 81.0242 16.0188 82.3207 17.2452C82.0983 10.2438 80.0111 10.0021 78.3535 8.20312Z" stroke="white" stroke-width="0.366154"/>
<path d="M69.8845 5.91602C72.2881 11.3561 75.5574 13.1762 78.9982 14.279C76.9858 9.38909 73.8007 6.90333 69.8845 5.91602Z" stroke="white" stroke-width="0.366154"/>
<path d="M79.947 36.498C80.7213 39.9595 80.778 43.2296 80.8568 46.5056" stroke="white" stroke-width="0.366154"/>
<path d="M81.5396 47.0363C82.888 45.7607 83.9896 44.368 85.6036 43.2241C87.1121 42.1549 88.1286 40.5417 89.0958 38.9746" stroke="white" stroke-width="0.366154"/>
<path d="M83.1592 42.1738C85.2851 40.236 88.1465 35.8168 89.8603 31.3984" stroke="white" stroke-width="0.366154"/>
<path d="M82.8191 39.8327C83.0455 38.7057 82.9734 36.4573 82.1218 35.0253C81.3063 33.6543 81.104 32.4909 80.4246 30.2188" stroke="white" stroke-width="0.366154"/>
<path d="M80.387 24.9297C83.1176 28.5321 84.7414 31.8646 84.7115 34.7938" stroke="white" stroke-width="0.366154"/>
<path d="M85.8184 34.4725C87.026 30.6135 88.6807 26.8007 88.0342 22.75" stroke="white" stroke-width="0.366154"/>
<path d="M85.3567 27.5748C85.3403 25.4285 85.3548 23.3777 84.8817 21.3106C84.3818 19.1258 83.9725 17.2709 84.1415 14.8516" stroke="white" stroke-width="0.366154"/>
<path d="M84.0707 27.0374C82.7072 24.4123 82.4957 23.6246 81.0297 22.559C79.5173 21.4595 78.5528 20.1155 77.6375 18.2812" stroke="white" stroke-width="0.366154"/>
<path d="M82.6759 20.2122C81.0257 18.6077 79.6791 16.7847 77.6714 16.2048C75.5098 15.5805 73.8199 14.0128 72.9189 12.3496" stroke="white" stroke-width="0.366154"/>
<path d="M82.3207 17.2452C81.7566 13.7522 80.1878 10.8939 78.3535 8.20312" stroke="white" stroke-width="0.366154"/>
<path d="M78.9982 14.279C77.2317 12.4212 75.9997 10.9542 69.8845 5.91602" stroke="white" stroke-width="0.366154"/>
</svg>
