<svg width="118" height="64" viewBox="0 0 118 64" fill="none" xmlns="http://www.w3.org/2000/svg">
<path d="M54.4697 37.0311C54.9893 36.3142 54.6919 34.7282 53.6814 34.5773C52.5196 34.5461 53.6445 36.5198 54.1514 37.0123L54.3136 37.066L54.4697 37.0311ZM57.1327 36.8128C57.5337 36.1568 56.8736 35.2938 56.1207 35.4858C56.2495 35.9298 56.5897 36.9414 57.1327 36.8128ZM71.111 35.7357C72.7795 35.0587 69.084 34.1844 69.4746 35.4011C69.8418 35.6933 70.6624 35.9226 71.111 35.7357ZM67.5607 34.674C69.278 34.4199 66.7046 32.564 66.0531 33.7267C65.1526 34.4138 67.0657 34.9433 67.5607 34.674ZM75.6218 35.0018C76.021 35.5568 77.7992 36.6586 76.1425 36.5627C74.8719 36.6169 73.8387 34.7055 72.5448 35.658C71.5441 35.908 71.4727 37.0567 72.387 37.5251C74.1625 38.8102 76.5073 39.6069 77.687 41.5444C77.6949 42.5011 76.2911 41.9814 75.916 41.4811C74.6558 40.4899 73.1978 39.5404 71.5216 39.7691C69.8991 39.6996 68.1831 40.1334 66.7568 39.2055C65.9606 38.697 64.6349 38.2534 64.067 39.3324C63.402 40.8681 63.8639 42.7275 64.1428 44.3462C64.7568 46.1012 66.7854 46.783 67.8805 48.1657C66.9807 48.7913 66.3065 47.2423 65.5967 46.8625C64.6459 46.4607 63.517 46.5958 62.5575 46.505C61.4021 46.5009 63.5443 48.5096 62.3564 47.7727C61.6765 47.317 60.9264 46.7246 60.1498 46.2949C60.1126 45.3064 59.2253 45.0484 58.5603 45.4509C57.8654 45.8204 57.0615 45.005 56.2598 45.2741C54.928 45.6401 54.1838 46.9302 52.8462 47.3375C52.1619 47.6324 51.4558 47.7051 50.6804 47.7897C49.9843 47.924 49.3657 48.1055 48.7332 48.6156C48.1368 49.6716 47.6948 48.8105 48.5434 48.3192C49.5207 47.175 50.9139 47.457 52.0206 46.5056C52.8834 45.9094 53.6748 45.0534 53.9503 44.0361C54.3233 43.1582 54.7093 42.1416 55.093 41.3698C54.9866 40.6857 54.462 39.9392 53.7447 39.6952C53.0562 39.1441 52.2034 39.2362 51.4666 39.5926C50.4413 40.0801 49.2719 40.5322 48.2025 40.9999C47.3604 41.3233 46.503 41.6912 45.6251 41.8894C44.5138 42.1576 43.1297 42.2806 42.0538 41.9532C41.1269 41.4094 41.7015 41.1858 42.3195 41.0299C43.2628 40.735 43.994 40.5274 44.9462 40.2319C45.9544 39.9083 47.3244 39.4559 48.3685 38.8342C48.8407 38.5151 49.5885 38.1479 49.504 37.4174C49.0508 36.5484 47.7437 36.5862 46.9994 36.8672C45.8998 37.3939 44.7774 38.2054 43.6127 38.5609C43.1124 38.7917 42.3968 38.9354 41.8454 39.1994C41.1974 39.2377 40.3783 39.6171 39.6675 39.3218C39.3786 39.2809 38.4387 38.7145 39.1955 38.682C40.7243 38.924 41.5183 37.1937 42.5856 36.4105C43.0933 35.8425 44.8834 35.0169 43.0159 35.131C41.4141 35.3308 41.104 34.4074 41.4469 33.1144C41.6337 32.4975 41.2674 31.5317 41.9135 31.2041C43.0876 30.1175 44.0841 28.6775 45.6025 28.0379C47.0962 28.0535 48.2946 26.7746 48.8046 25.5094C48.5034 24.5798 48.1969 23.4133 47.6217 22.709C46.6047 22.7415 45.6014 23.2994 44.6469 23.1735C43.2389 23.2495 44.232 22.0147 44.9239 21.6822C45.9942 20.9294 47.1824 20.2691 48.4298 19.7263C49.4268 19.4532 49.3955 18.4253 49.8778 17.7691C50.563 17.0046 51.5189 16.6516 52.4588 16.735C52.9471 16.2556 52.4815 14.9054 51.7719 14.8512C50.7979 14.9301 49.779 14.7387 51.2801 13.8707C51.8259 13.116 53.533 13.105 53.4683 12.2555C53.7538 11.3308 53.7449 10.2462 54.2219 9.42549C55.4545 8.05947 57.1434 7.20138 58.0759 5.55155C58.5619 5.03573 59.0308 2.91847 59.3096 4.69602C59.9465 6.4943 60.8866 8.42257 62.4291 9.67003C63.253 9.54063 63.8905 10.0169 64.5464 10.5245C65.8727 11.5311 67.4278 12.2705 68.4581 13.5282C69.0451 14.3101 71.3221 16.0598 69.0657 15.359C68.1905 14.9708 67.1411 15.3895 68.1528 16.2592C68.6219 17.4153 71.039 17.9669 70.3164 19.2284C69.4934 19.0871 68.7125 18.4627 67.9326 18.0958C67.3704 18.0915 66.8039 17.8452 66.365 18.247C65.8405 19.1152 66.8917 19.7017 67.5003 20.1207C69.4747 21.7062 70.7418 23.9448 72.848 25.3872C73.7912 25.9818 76.3215 28.0818 73.6494 27.1691C72.6746 27.0298 71.6766 26.6014 70.682 26.8324C69.985 28.2052 72.3355 28.3048 73.1251 28.7046C73.9577 29.153 75.8693 29.3724 75.9776 30.212C74.7805 30.5983 73.2331 30.3623 71.9394 30.5128C71.37 30.4189 69.6968 30.8885 70.5856 31.5575C72.2643 32.7056 73.943 33.8537 75.6218 35.0018ZM46.8592 31.3896C46.5097 30.5029 45.1802 30.6331 44.7538 31.4011C45.428 31.4283 46.2012 31.4534 46.8592 31.3896ZM50.9284 31.3871C51.1204 30.5739 50.4059 29.3646 49.3135 29.7826C48.0546 29.6951 46.5411 30.0015 48.0471 31.4228C49.0043 31.3981 49.9818 31.4713 50.9284 31.3871ZM52.1241 30.6222C52.2852 29.6783 51.1334 30.0434 52.1241 30.6222ZM62.4507 30.2852C62.747 28.8684 61.3679 28.8873 61.943 30.148C62.0584 30.2967 62.315 30.542 62.4507 30.2852ZM61.0412 30.0837C61.4719 29.3631 60.8187 28.3785 60.2813 27.8473C59.485 28.189 59.9685 30.175 60.8842 30.1336L61.0412 30.0837ZM56.1334 28.6711C56.425 27.4292 53.6717 27.0736 55.1552 28.3075C55.3772 28.568 55.7999 28.8671 56.1334 28.6711ZM58.0457 28.2617C58.6719 27.1738 57.6301 26.5676 57.7701 27.7925C57.8746 27.5104 57.8445 28.4445 58.0457 28.2617ZM68.4532 27.5574C69.2725 26.9393 68.4656 25.7176 68.3024 27.3823C68.1321 27.5894 68.2688 27.7089 68.4532 27.5574ZM67.3628 26.9615C68.3675 25.4026 66.5443 26.6036 67.2883 27.1647L67.3294 27.0526L67.3628 26.9615ZM50.771 24.2735C52.7937 24.3215 51.228 22.7188 50.6441 21.9743C50.2049 21.6694 49.1136 21.5563 48.9533 22.1585C49.0999 23.0247 49.7694 24.368 50.771 24.2735ZM65.9877 24.0781C66.5307 23.5734 66.5293 22.4185 65.6689 22.2374C64.8391 21.6512 63.2464 22.5316 63.7751 23.4995C64.4254 23.7904 65.26 24.3219 65.9877 24.0781ZM53.2192 23.363C54.5607 22.6334 54.6613 21.0101 52.8486 21.389C51.5659 21.3538 52.3082 23.3956 53.0404 23.4916C53.1172 23.499 53.1505 23.3795 53.2192 23.363ZM61.9215 22.5494C62.6809 22.5446 62.8874 21.1785 62.2361 20.9481C61.7041 21.0544 60.6707 22.3691 61.4595 22.5784L61.9215 22.5494ZM54.4431 19.5249C55.4189 19.274 56.6327 18.139 56.0925 17.1229C55.1503 16.9567 54.3548 17.8961 53.8157 18.5671C53.1354 19.3167 53.5542 19.9161 54.4431 19.5249ZM64.1023 17.7351C64.7835 17.734 65.1582 16.4514 64.5558 16.1909C63.7768 15.9044 63.1263 16.693 63.3559 17.4471C63.396 17.722 63.8921 17.8004 64.1023 17.7351ZM57.7914 17.4619C58.3709 16.3352 57.8874 15.7862 57.211 16.8375C56.8921 17.2659 57.422 17.8769 57.7914 17.4619ZM62.2665 16.7331C62.8224 15.931 61.2207 15.1203 60.9028 16.0327C60.5027 16.8804 61.8395 16.9487 62.2665 16.7331ZM59.8727 16.3451C59.7497 17.3768 59.6752 14.8848 59.8727 16.3451ZM53.7246 15.3729C54.2114 15.1193 55.1058 14.0867 54.0744 13.9467C53.1687 13.6104 53.1516 14.7496 53.3 15.3444C53.2746 15.6852 53.5813 15.4766 53.7246 15.3729Z" fill="#999999"/>
<path d="M65.8191 59.5666C65.7656 59.474 65.6799 59.3245 65.6288 59.2345C65.4997 59.007 65.3663 58.8161 65.1468 58.5444C65.0434 58.4164 64.9588 58.3029 64.9588 58.2922C64.9588 58.2432 64.1921 57.1995 64.0137 57.0057C63.9397 56.9252 63.7735 56.7716 63.6444 56.6643C63.5153 56.5571 63.3309 56.402 63.2346 56.3197C63.1383 56.2374 62.9923 56.1312 62.9101 56.0837C62.8279 56.0363 62.7329 55.9664 62.699 55.9285C62.6405 55.863 62.5105 55.7687 62.2793 55.6242C62.2221 55.5884 62.0696 55.486 61.9402 55.3967C60.9566 54.7167 60.6196 54.5291 60.1213 54.3843C59.9695 54.3401 59.7796 54.281 59.6993 54.2528L59.5532 54.2016L59.074 54.2031L58.5949 54.2046L58.4572 54.2672C58.3814 54.3016 58.261 54.3456 58.1896 54.365C58.1182 54.3843 57.899 54.4534 57.7026 54.5184C57.1666 54.6958 57.0238 54.7538 56.55 54.9865C56.1344 55.1907 55.9396 55.2993 55.8529 55.3753C55.8167 55.407 55.7433 55.4516 55.6897 55.4744C55.6361 55.4972 55.4704 55.5987 55.3215 55.7C55.1726 55.8013 55.0155 55.9033 54.9725 55.9266C54.9295 55.9499 54.8943 55.982 54.8943 55.9978C54.8943 56.0137 54.803 56.0967 54.6913 56.1824C54.3723 56.4272 54.0763 56.711 53.5794 57.2487C53.4008 57.4419 53.2099 57.6454 53.155 57.701C52.8242 58.0362 52.3406 58.678 52.0203 59.2071C51.9204 59.372 51.8274 59.514 51.8135 59.5226C51.7794 59.5437 51.2907 59.374 51.0305 59.2508C50.9146 59.1959 50.7978 59.1505 50.7711 59.1499C50.7443 59.1494 50.6955 59.1285 50.6626 59.1035L50.6028 59.0582L50.6233 58.9937C50.6345 58.9582 50.687 58.8746 50.7399 58.808C50.7927 58.7414 50.836 58.6745 50.836 58.6592C50.836 58.6086 51.1071 58.2674 51.2403 58.1503C51.2752 58.1196 51.3629 58.034 51.4351 57.9601C51.5074 57.8861 51.6834 57.7239 51.8262 57.5995C51.9691 57.4752 52.139 57.3236 52.2038 57.2627C52.2686 57.2017 52.4001 57.0909 52.496 57.0163C52.5919 56.9418 52.8042 56.7589 52.9677 56.61C53.3791 56.2355 54.0347 55.696 54.5214 55.3316C54.6407 55.2422 54.7627 55.1445 54.7924 55.1144C54.8488 55.0572 55.0816 54.8928 55.1061 54.8928C55.1404 54.8928 55.4683 54.6665 55.5243 54.6041C55.5583 54.5662 55.5994 54.5352 55.6157 54.5352C55.632 54.5352 55.6918 54.5004 55.7487 54.4578C55.8055 54.4153 55.9423 54.3312 56.0526 54.2709C56.1629 54.2107 56.372 54.0912 56.5172 54.0054L56.7814 53.8494L56.7712 53.7779L56.7611 53.7064L56.6312 53.669C56.5598 53.6484 56.3251 53.6061 56.1096 53.575L55.7179 53.5184L55.2331 53.537L54.7482 53.5556L54.2774 53.6363C53.5 53.7695 52.7744 53.9853 52.3781 54.2011C52.3246 54.2303 52.2588 54.2637 52.232 54.2754C52.1669 54.3037 51.9469 54.4148 51.8262 54.4802C51.7726 54.5092 51.5462 54.6136 51.323 54.7121C51.0998 54.8107 50.5423 55.0803 50.0842 55.3114C49.6261 55.5425 49.217 55.7418 49.1752 55.7544C49.1333 55.7669 49.0406 55.8033 48.9692 55.8353C48.7789 55.9204 48.5988 55.9848 48.4335 56.027C48.3531 56.0476 48.0609 56.1241 47.7842 56.1971L47.2809 56.3298L46.8751 56.396L46.4693 56.4623L45.5115 56.4656L44.5538 56.4688L44.359 56.4305C44.2518 56.4094 44.0619 56.3768 43.9369 56.358C42.3734 56.1238 42.2521 56.0945 41.0961 55.672C40.9443 55.6166 40.7826 55.5593 40.7368 55.5448C40.6415 55.5145 40.618 55.5021 40.2806 55.3032C40.1446 55.223 39.9401 55.1133 39.8261 55.0595C39.7121 55.0057 39.5605 54.9174 39.489 54.8634C39.4176 54.8093 39.3012 54.7334 39.2303 54.6946C39.1594 54.6559 39.0645 54.599 39.0193 54.5682C38.7513 54.3858 38.4718 54.2094 38.4014 54.1783C38.281 54.125 38.182 54.0648 38.115 54.0041C38.0822 53.9744 38.0444 53.9502 38.031 53.9502C37.9744 53.9502 37.2326 53.2721 37.2326 53.2204V53.1982L37.2895 53.2136C37.8066 53.3543 38.1402 53.4601 38.2138 53.5068C38.2545 53.5326 38.3389 53.5643 38.4014 53.5773C38.4639 53.5902 38.5662 53.6267 38.6287 53.6584C39.0881 53.8915 39.7657 54.1346 40.2033 54.2234C40.7132 54.3268 40.7915 54.3399 41.0961 54.3734C41.2658 54.392 41.536 54.4281 41.6967 54.4536C41.8574 54.4791 42.1789 54.5292 42.411 54.5648L42.8331 54.6296L43.5798 54.6373C44.3119 54.6449 44.5988 54.633 45.3492 54.5637L45.7226 54.5292L46.1121 54.4488C46.5683 54.3545 47.5505 54.1033 47.7554 54.0284C47.8337 53.9998 47.9845 53.9554 48.0905 53.9297C48.1965 53.9041 48.2988 53.8704 48.3178 53.8549C48.3368 53.8393 48.4619 53.7898 48.5958 53.7449C48.7297 53.6999 48.9248 53.618 49.0293 53.5629L49.2193 53.4626H49.2952C49.337 53.4626 49.3796 53.4489 49.3899 53.4322C49.4002 53.4155 49.5289 53.3567 49.6759 53.3015C49.8229 53.2463 49.971 53.1853 50.005 53.166C50.0889 53.1181 50.613 52.9434 50.6739 52.9429C50.7008 52.9426 50.8542 52.8977 51.0148 52.8428C51.4179 52.7051 51.3855 52.7121 52.508 52.5211C53.0164 52.4345 53.846 52.3635 54.456 52.3543L54.943 52.3469L55.4252 52.3863L55.9074 52.4256L56.3018 52.5082C56.5187 52.5537 56.7838 52.6024 56.8909 52.6165C57.4571 52.691 58.0374 52.8271 58.4493 52.9821C58.9916 53.186 59.067 53.2163 59.097 53.2416L59.1279 53.2676H59.348H59.5681L60.1937 53.1337C60.5378 53.06 60.8997 52.9882 60.9979 52.9741C61.2701 52.935 62.1438 52.7831 62.5019 52.7127L62.8208 52.65L63.1187 52.6518C63.4888 52.6541 63.9569 52.6924 64.4231 52.7587C64.6195 52.7866 65.0505 52.8403 65.3809 52.8782C65.7112 52.916 66.0618 52.9605 66.16 52.977C66.5862 53.0489 67.0317 53.1165 67.6535 53.2037C68.0195 53.255 68.4505 53.3187 68.6112 53.3452C68.9276 53.3973 69.2211 53.4358 69.8774 53.5111C70.1096 53.5377 70.3652 53.5741 70.4456 53.5919C70.5259 53.6098 70.7305 53.6397 70.9001 53.6585C71.3107 53.7041 71.503 53.7346 71.8903 53.8158C72.0689 53.8532 72.3319 53.9067 72.4747 53.9345C72.6176 53.9624 72.8367 54.0051 72.9617 54.0294C73.1818 54.0723 73.6577 54.1569 74.2604 54.2604L74.5526 54.3105L75.3642 54.33L76.1759 54.3494L76.7278 54.3104C77.0314 54.289 77.4696 54.2433 77.7018 54.2088L78.1238 54.1462L78.3186 54.0836C78.4258 54.0492 78.5573 54.0056 78.6108 53.9867C78.6644 53.9678 78.8251 53.9133 78.968 53.8654C79.4045 53.7191 80.092 53.4623 80.2318 53.3933C80.3045 53.3574 80.4444 53.2976 80.5426 53.2605C80.6408 53.2233 80.756 53.1658 80.7986 53.1327L80.876 53.0725H80.9375C80.9713 53.0725 81.1556 52.9964 81.347 52.9034C81.9023 52.6337 82.0403 52.5976 81.8515 52.7716C81.798 52.8209 81.6934 52.9173 81.6191 52.9859C81.5449 53.0544 81.4841 53.1211 81.4841 53.1341C81.4841 53.147 81.3964 53.2144 81.2893 53.2838C81.1822 53.3532 81.0945 53.421 81.0945 53.4343C81.0945 53.4477 80.9521 53.5558 80.778 53.6746C80.6039 53.7935 80.3738 53.9523 80.2666 54.0276C80.1595 54.103 79.9942 54.2183 79.8992 54.2839C79.8043 54.3495 79.667 54.4512 79.594 54.5098C79.521 54.5685 79.3694 54.675 79.2571 54.7465C79.1449 54.8181 78.9061 54.9899 78.7265 55.1285C78.5469 55.267 78.3887 55.3804 78.3748 55.3804C78.361 55.3804 78.272 55.4316 78.1771 55.4941C77.7625 55.7675 77.3931 55.9388 76.9875 56.0457C76.8982 56.0693 76.7156 56.1177 76.5817 56.1533C76.2542 56.2404 76.0344 56.284 75.7051 56.3272L75.4291 56.3634L74.3902 56.3602L73.3513 56.3571L72.7596 56.3087C72.4342 56.2821 72.0397 56.2394 71.883 56.2139C71.7263 56.1883 71.4666 56.1503 71.3059 56.1294C70.118 55.9748 69.77 55.8944 69.2677 55.659C69.1315 55.5951 69.0026 55.5429 68.9812 55.5429C68.9599 55.5429 68.8679 55.5081 68.7768 55.4655C68.5214 55.346 68.2692 55.2468 68.1024 55.2002C68.019 55.1769 67.9222 55.1426 67.8873 55.1239C67.8525 55.1052 67.7016 55.0534 67.552 55.0087C67.4025 54.964 67.1559 54.8824 67.0042 54.8273C66.8524 54.7722 66.6113 54.6985 66.4685 54.6636C66.3256 54.6286 66.0561 54.5489 65.8696 54.4864C65.683 54.4239 65.4918 54.3727 65.4445 54.3727C65.3972 54.3727 65.2723 54.3426 65.1668 54.3058C65.0613 54.269 64.7997 54.1957 64.5854 54.1429L64.1958 54.0469L63.7088 54.0113L63.2218 53.9757L62.526 53.9944L61.8301 54.0132L61.784 54.0593L61.738 54.1054L61.7586 54.1706L61.7793 54.2357L61.8763 54.276C61.9297 54.2981 61.984 54.3332 61.997 54.354C62.01 54.3747 62.1254 54.4602 62.2536 54.5438C62.3817 54.6275 62.5935 54.7858 62.7243 54.8955C62.8551 55.0052 63.0425 55.1471 63.1407 55.2109C63.2389 55.2746 63.4032 55.3983 63.5058 55.4857C63.6083 55.5731 63.7673 55.6951 63.859 55.7569C63.9506 55.8187 64.0566 55.8981 64.0945 55.9335C64.1324 55.9688 64.2456 56.0599 64.346 56.136C64.8157 56.4916 65.3944 57.0152 65.5152 57.1938C65.5444 57.237 65.6818 57.3915 65.8205 57.5372C65.9592 57.6828 66.1508 57.8846 66.2462 57.9854L66.4198 58.1688L66.4206 58.213C66.4211 58.2372 66.4905 58.3329 66.5749 58.4255C66.7909 58.6627 67.0366 58.9749 67.0366 59.0121C67.0366 59.0293 67.0659 59.0699 67.1016 59.1022C67.1373 59.1346 67.1665 59.178 67.1665 59.1988V59.2365L66.6888 59.4131L66.2111 59.5898L66.103 59.6629C66.0435 59.7032 65.9772 59.7358 65.9557 59.7356L65.9166 59.7351L65.8191 59.5666ZM75.3995 52.8762C75.2224 52.8627 74.9449 52.8361 74.7826 52.8169C74.6204 52.7978 74.2612 52.7587 73.9844 52.73C73.7076 52.7014 73.4373 52.6637 73.3838 52.6464L73.2864 52.6148L72.3124 52.5509C71.7767 52.5157 71.2727 52.4734 71.1923 52.4567C71.1119 52.44 70.9512 52.4165 70.8352 52.4043L70.6241 52.3823L69.6478 52.3873L68.6714 52.3923L68.6155 52.3708L68.5596 52.3494L68.6188 52.3078C68.6514 52.285 68.7434 52.2487 68.8232 52.2272C69.1282 52.1451 69.8438 51.7282 69.8882 51.6069C69.8942 51.5906 69.9161 51.5768 69.9369 51.5762C69.9728 51.5752 70.1585 51.44 70.5482 51.1311C70.6435 51.0556 70.7769 50.9532 70.8446 50.9036C70.9124 50.854 70.9944 50.7872 71.027 50.7551C71.0595 50.7231 71.1309 50.6638 71.1856 50.6234C71.2403 50.583 71.3454 50.4703 71.4193 50.3729L71.5536 50.1959L71.7625 49.763C71.8775 49.525 71.9715 49.311 71.9715 49.2876C71.9715 49.2641 71.9925 49.2274 72.0182 49.2061C72.0439 49.1847 72.1077 49.0759 72.1599 48.9642C72.2834 48.7 72.7016 47.9895 72.8316 47.823C72.8875 47.7515 72.9605 47.6491 72.9938 47.5955C73.1768 47.3012 74.5601 45.9589 74.9455 45.7016C75.0062 45.6611 75.0558 45.6139 75.0558 45.5968C75.0558 45.5796 75.1033 45.5413 75.1613 45.5117C75.3079 45.4369 75.6774 45.1182 75.7434 45.0095C75.7735 44.96 75.8209 44.9067 75.8487 44.8911C75.8765 44.8755 75.9396 44.8025 75.9889 44.7289C76.1249 44.5256 76.3484 44.238 76.5312 44.0311C77.0567 43.436 77.282 43.191 77.3038 43.191C77.3518 43.191 77.3275 43.2793 77.2635 43.3373C77.2278 43.3696 77.1986 43.41 77.1986 43.4269C77.1986 43.4439 77.0503 43.7598 76.8692 44.1289C76.688 44.498 76.5285 44.8293 76.5146 44.865C76.5008 44.9008 76.4503 45.0178 76.4025 45.1251C76.1991 45.5811 76.0955 46.0144 75.9013 47.2216L75.8412 47.5955L75.7416 47.8832C75.6309 48.2032 75.4686 48.5124 75.2697 48.7819C75.0465 49.0845 74.7894 49.4079 74.635 49.5802C74.3306 49.92 74.0956 50.2196 73.8816 50.5406L73.6609 50.8718L73.64 50.9832L73.6191 51.0946L73.6489 51.1244L73.6787 51.1542L74.3104 51.184C74.6579 51.2004 75.0079 51.2078 75.0883 51.2004C75.1686 51.193 75.5412 51.1721 75.9161 51.154L76.5979 51.1211L76.9226 51.0734C77.1012 51.0472 77.3568 50.9949 77.4908 50.9571C77.6247 50.9193 77.8657 50.863 78.0264 50.8319C78.3884 50.762 78.8959 50.6052 79.2508 50.4536C79.4792 50.3561 79.9163 50.1981 80.6887 49.9339C81.2176 49.753 81.6781 49.5653 81.8412 49.4641C81.868 49.4475 81.9849 49.3913 82.101 49.3393C82.4215 49.1957 82.4639 49.1749 82.6042 49.0924C82.6756 49.0504 82.829 48.9677 82.9451 48.9085C83.0611 48.8494 83.2172 48.7601 83.2918 48.7102C83.3665 48.6602 83.4432 48.6194 83.4623 48.6194C83.4814 48.6194 83.497 48.6053 83.497 48.5881C83.497 48.5709 83.5858 48.4964 83.6943 48.4226L83.8916 48.2885L83.912 48.3089L83.9324 48.3294L83.7715 48.6391C83.683 48.8094 83.5741 49.019 83.5295 49.1049C83.3685 49.4146 82.1867 50.6985 81.9443 50.8271C81.9027 50.8491 81.7786 50.9437 81.6683 51.0373C81.4522 51.2208 81.1465 51.4264 81.0389 51.4606C81.0023 51.4722 80.8575 51.5473 80.7171 51.6274C80.5767 51.7074 80.4326 51.7811 80.3967 51.791C80.34 51.8067 80.0765 51.9129 79.877 52.0004C79.8413 52.0161 79.7317 52.0602 79.6335 52.0984C79.5353 52.1367 79.3746 52.2018 79.2764 52.2432L79.0978 52.3185L78.4002 52.4874C78.0166 52.5803 77.6621 52.6773 77.6125 52.7029L77.5224 52.7496L77.2387 52.7957C76.9926 52.8358 75.8764 52.9186 75.762 52.9053C75.7397 52.9027 75.5765 52.8896 75.3995 52.8762ZM41.7454 52.7135C41.0325 52.6641 40.1109 52.5453 39.8624 52.4707C39.782 52.4466 39.6506 52.4173 39.5702 52.4056C39.3729 52.3767 39.0982 52.302 38.9209 52.229C38.8405 52.1959 38.6798 52.1304 38.5638 52.0834C38.3618 52.0016 38.2548 51.9506 38.0768 51.8508C38.0321 51.8257 37.9298 51.7755 37.8495 51.7392C37.7691 51.7028 37.623 51.6234 37.5248 51.5626C37.4266 51.5018 37.2586 51.4056 37.1515 51.3488C36.7097 51.1148 36.6088 51.0533 35.9205 50.598L35.3983 50.2526L35.171 50.0498C35.046 49.9383 34.8978 49.8115 34.8416 49.7682C34.7854 49.7248 34.5881 49.5041 34.4033 49.2777C34.2184 49.0513 33.9795 48.7695 33.8724 48.6515C33.7652 48.5335 33.6191 48.3521 33.5477 48.2484C33.4763 48.1447 33.3485 47.9752 33.2636 47.8717C33.0306 47.5872 33.0419 47.5686 33.3567 47.7173C33.5736 47.8198 33.6329 47.8554 34.0858 48.1537C34.2032 48.231 34.307 48.2943 34.3165 48.2943C34.326 48.2943 34.4565 48.3648 34.6063 48.4511C34.9677 48.6589 35.8823 49.1069 35.9453 49.1069C35.9727 49.1069 36.0034 49.1204 36.0136 49.1369C36.0238 49.1534 36.1305 49.1992 36.2509 49.2387C36.3712 49.2783 36.4843 49.3213 36.5021 49.3343C36.52 49.3473 36.5784 49.3684 36.632 49.381C36.6856 49.3936 36.7878 49.4308 36.8593 49.4635C36.9988 49.5275 37.6385 49.731 38.3365 49.9334C38.5398 49.9924 39.5697 50.1979 39.9111 50.2476C40.0361 50.2658 40.2991 50.3019 40.4955 50.3277C40.6919 50.3535 40.9622 50.3963 41.0961 50.4228C41.23 50.4492 41.4346 50.4857 41.5506 50.5039C41.6667 50.5222 41.9005 50.5607 42.0701 50.5895L42.3785 50.642L42.7681 50.6584L43.1577 50.6749L43.5879 50.6325L44.0181 50.5901V50.522V50.454L43.8468 50.2762C43.7525 50.1784 43.4786 49.893 43.238 49.642L42.8006 49.1857L42.6145 48.8402L42.4284 48.4946L42.3272 48.1263C42.2151 47.7183 42.0529 47.099 41.8137 46.1652C41.5989 45.3269 41.1934 44.1304 41.1047 44.0731C41.0871 44.0617 41.0648 44.0085 41.0553 43.9549C40.9864 43.5681 40.6135 42.8496 40.3129 42.5247C40.1833 42.3845 40.1227 42.2897 39.9422 41.9444C39.7982 41.6689 39.8055 41.6616 40.0946 41.791L40.3283 41.8956L40.5414 42.0476L40.7546 42.1996L41.053 42.5084C41.2171 42.6783 41.4436 42.9196 41.5562 43.0447C41.6688 43.1699 41.8168 43.3258 41.8852 43.3911C41.9535 43.4565 42.0519 43.5772 42.1039 43.6593C42.156 43.7414 42.2098 43.8088 42.2236 43.8089C42.2749 43.8096 43.3688 45.2483 43.3688 45.3151C43.3688 45.3338 43.4025 45.3864 43.4437 45.4321C43.485 45.4778 43.5998 45.6541 43.6989 45.8239C44.1261 46.5563 44.1328 46.5675 44.3134 46.8478L44.46 47.0754L45.0516 48.2692L45.6433 49.463L45.7641 49.6384C45.8305 49.7349 45.9453 49.8998 46.0191 50.0048L46.1534 50.1959L46.3827 50.4071C46.7467 50.7426 47.2627 51.1222 47.3547 51.1222C47.3704 51.1222 47.4165 51.1576 47.457 51.2009C47.4976 51.2441 47.5769 51.2977 47.6332 51.3199C47.6894 51.3421 47.7647 51.3858 47.8004 51.4169C47.9676 51.5626 48.5254 51.8029 48.8068 51.8505C48.8783 51.8625 49.074 51.9034 49.2418 51.9413L49.5468 52.0101L49.4964 52.047L49.4459 52.0839L49.1264 52.0751L48.8068 52.0663L48.5309 52.0984C48.3791 52.1161 47.9627 52.1454 47.6056 52.1636C46.6735 52.211 46.1486 52.2743 45.9985 52.3573L45.9174 52.4022L45.5602 52.4263C45.3638 52.4396 45.0935 52.4669 44.9596 52.487C44.0174 52.6281 43.7769 52.6585 43.2714 52.7L42.7032 52.7466L42.3948 52.7419C42.2251 52.7393 41.9329 52.7265 41.7454 52.7135ZM76.1272 50.2591C76.1272 50.2492 76.1933 50.1397 76.2742 50.0156C76.3551 49.8916 76.4319 49.7644 76.4449 49.7329C76.4805 49.6467 76.7062 49.3091 76.7437 49.2859C76.7617 49.2748 76.7765 49.2399 76.7765 49.2084V49.1511L76.8841 49.0234C77.257 48.5808 77.5822 47.8471 77.7159 47.1469L77.7829 46.7958V46.5186C77.7829 46.0565 77.8949 44.931 77.9766 44.5725C77.9929 44.501 78.0374 44.2962 78.0755 44.1174C78.1137 43.9386 78.1638 43.7339 78.187 43.6623C78.2102 43.5908 78.2555 43.4446 78.2876 43.3373L78.3461 43.1423L78.6165 42.5865C78.7651 42.2808 78.8868 42.02 78.8868 42.0069C78.8868 41.9938 78.9355 41.8998 78.995 41.7981C79.0546 41.6964 79.1138 41.5714 79.1266 41.5203C79.1394 41.4692 79.1973 41.3525 79.2553 41.2609C79.3443 41.1204 79.6901 40.4396 79.8765 40.038C80.023 39.7225 80.3194 39.1369 80.3865 39.0304C80.4147 38.9857 80.5065 38.759 80.5905 38.5266C80.6745 38.2941 80.7784 38.0137 80.8215 37.9034C80.8645 37.7931 80.8997 37.6804 80.8997 37.653C80.8997 37.6256 80.9134 37.5696 80.9301 37.5286C80.9613 37.4516 81.0519 37.1436 81.21 36.5762C81.2599 36.3975 81.3141 36.224 81.3305 36.1908L81.3602 36.1305L81.3912 36.1614L81.4222 36.1924L81.457 36.6119L81.4918 37.0313L81.4719 38.299C81.4499 39.7022 81.4062 40.578 81.3349 41.0457C81.309 41.2155 81.2532 41.5885 81.2109 41.8746C81.1299 42.4223 81.0373 42.8265 80.9311 43.0963C80.896 43.1855 80.8671 43.2835 80.8669 43.3141C80.8666 43.3447 80.8307 43.4429 80.7868 43.5323C80.7429 43.6217 80.7065 43.7133 80.7059 43.7359C80.7054 43.7585 80.6908 43.8024 80.6735 43.8334C80.6065 43.9536 80.4359 44.383 80.412 44.4912C80.3983 44.5538 80.3411 44.7805 80.2851 44.995L80.1831 45.3851L80.1924 45.4826L80.2017 45.5801L80.2761 45.5907L80.3506 45.6013L80.6008 45.4974C80.9732 45.3427 81.1479 45.2493 81.4354 45.0512C81.681 44.8819 81.7433 44.8338 82.077 44.5552C82.1527 44.492 82.273 44.4025 82.3445 44.3563C82.4159 44.3101 82.6741 44.1397 82.9183 43.9775C83.1625 43.8154 83.4109 43.6578 83.4702 43.6274C83.5296 43.5969 83.7188 43.4803 83.8907 43.3682C84.0626 43.2561 84.2452 43.1405 84.2965 43.1114C84.3478 43.0823 84.4483 43.0149 84.5197 42.9616C84.5911 42.9082 84.7153 42.8277 84.7957 42.7826C84.876 42.7375 84.9971 42.6691 85.0649 42.6306C85.1326 42.5921 85.2594 42.5013 85.3468 42.4288C85.4342 42.3564 85.5595 42.2606 85.6254 42.2159C85.6912 42.1712 85.8054 42.0802 85.8791 42.0136C85.9528 41.9471 86.1373 41.7901 86.2891 41.6647C86.7783 41.2606 87.2704 40.7868 87.539 40.4614C87.9146 40.0065 87.9664 39.9421 88.0747 39.7954C88.1372 39.7109 88.2287 39.5955 88.2781 39.5392C88.4706 39.3193 88.7223 38.9787 88.7968 38.8374C88.8398 38.7558 88.9088 38.6333 88.9501 38.5651L89.0251 38.4411L89.0568 38.4729L89.0886 38.5047L89.074 38.8569L89.0593 39.2092L88.9544 39.5342C88.8966 39.713 88.8194 39.925 88.7829 40.0053C88.7098 40.1657 88.6159 40.448 88.5787 40.619C88.5655 40.6793 88.5277 40.7747 88.4945 40.831C88.4614 40.8872 88.4135 40.9915 88.3882 41.0626C88.2805 41.3657 87.5871 42.7925 87.4176 43.06C87.3437 43.1767 87.2426 43.3527 87.1931 43.4511C87.1436 43.5494 87.0372 43.7322 86.9566 43.8574C86.8761 43.9825 86.7742 44.152 86.7303 44.2341C86.6863 44.3162 86.5682 44.5063 86.4677 44.6567L86.2849 44.93L85.9581 45.2812C85.601 45.6651 85.1669 46.0595 84.8779 46.2627C84.7762 46.3343 84.6394 46.4374 84.5739 46.4919C84.5084 46.5465 84.3817 46.6426 84.2924 46.7054C84.2031 46.7683 84.0535 46.8736 83.96 46.9394C83.8664 47.0053 83.7822 47.0591 83.7728 47.0591C83.7567 47.0591 83.482 47.2301 83.2999 47.3534C83.1294 47.469 81.3557 48.3432 81.062 48.4564C80.9995 48.4805 80.9328 48.512 80.9137 48.5264C80.8527 48.5723 79.9185 48.8716 79.666 48.9261C79.0968 49.0489 78.2437 49.2921 77.7667 49.4677C77.4078 49.5998 77.1846 49.6941 77.1384 49.7332C77.0401 49.8165 76.2062 50.2771 76.1539 50.2771C76.1392 50.2771 76.1272 50.269 76.1272 50.2591ZM40.9987 48.5311C40.7517 48.4188 40.6758 48.3914 40.4759 48.3419C40.3617 48.3136 40.1806 48.2687 40.0734 48.2419C39.9663 48.2152 39.7106 48.1722 39.5053 48.1463C39.1284 48.0989 38.7483 48.0357 38.4501 47.971C38.3608 47.9516 38.0979 47.8993 37.8657 47.8547C37.6336 47.81 37.2728 47.7309 37.064 47.6788L36.6844 47.5841L36.3996 47.4679C36.243 47.404 36.0922 47.3517 36.0645 47.3517C36.0133 47.3517 35.1928 46.945 34.9275 46.7882C34.8472 46.7407 34.6865 46.6486 34.5704 46.5836C34.4543 46.5185 34.3009 46.4274 34.2295 46.3809C34.1581 46.3345 34.0485 46.2729 33.986 46.244C33.9235 46.2152 33.8286 46.1553 33.775 46.1111C33.7214 46.0668 33.5826 45.9741 33.4666 45.9052C33.3505 45.8362 33.2117 45.7451 33.1581 45.7027C32.9744 45.5572 32.7887 45.4175 32.6062 45.2876C32.2459 45.0312 31.8203 44.6661 31.4293 44.278L31.0316 43.8833V43.8418C31.0316 43.8189 30.987 43.7473 30.9325 43.6825C30.7289 43.4405 30.4563 43.0719 30.3647 42.9147C30.3126 42.8253 30.181 42.6206 30.0722 42.4597C29.8625 42.1496 29.6069 41.6681 29.5373 41.4523C29.5143 41.381 29.451 41.2503 29.3966 41.1618L29.2977 41.0009L29.1414 40.5438C28.9478 39.9778 28.7503 39.2904 28.66 38.868L28.5915 38.5476L28.6022 38.4727L28.6129 38.3979L28.7592 38.5922C28.8397 38.6991 28.94 38.8232 28.9822 38.8679C29.0597 38.95 29.2638 39.215 29.5149 39.5596C29.5902 39.663 29.8177 39.9524 30.0206 40.2028L30.3894 40.658L30.5191 40.7624C30.5905 40.8199 30.7824 40.9847 30.9457 41.1286C31.2143 41.3653 31.6777 41.7558 32.0411 42.0516C32.1167 42.1132 32.2948 42.2335 32.4368 42.3189C32.5787 42.4043 32.7115 42.4877 32.7317 42.5042C32.752 42.5206 32.8416 42.574 32.9309 42.6227C33.0201 42.6715 33.1577 42.7608 33.2365 42.8212C33.3153 42.8816 33.3975 42.931 33.4192 42.931C33.4409 42.931 33.4751 42.9509 33.4953 42.9753C33.5437 43.0336 33.9576 43.2724 34.3435 43.4646L34.6523 43.6184L34.8369 43.7903C34.9384 43.8849 35.0861 44.0118 35.1652 44.0724C35.2443 44.1329 35.4556 44.2948 35.6347 44.4321C36.1361 44.8165 36.3682 44.9717 36.5473 45.0424C36.6376 45.078 36.7374 45.1206 36.7691 45.137C36.8733 45.1908 37.1876 45.2713 37.2933 45.2713H37.397L37.4162 45.2212L37.4355 45.171L37.347 44.6605C37.2984 44.3797 37.2317 44.0622 37.1987 43.9549C37.1416 43.7686 37.0775 43.508 37.0108 43.191C36.9939 43.1106 36.9582 42.957 36.9315 42.8497C36.9048 42.7424 36.8595 42.5504 36.8307 42.4229L36.7783 42.1912L36.7423 41.6266L36.7062 41.0619L36.7063 39.8219L36.7063 38.5819L36.7776 38.4854L36.8489 38.3889L36.8489 37.7426L36.849 37.0963L36.7475 36.6778C36.6918 36.4475 36.6313 36.2315 36.6132 36.1976L36.5803 36.1361L36.6 36.1041L36.6198 36.0721L36.7471 36.1779C36.8171 36.2361 36.8746 36.2968 36.8749 36.3129C36.8752 36.3289 36.9241 36.402 36.9834 36.4754C37.0428 36.5487 37.1014 36.6307 37.1138 36.6575C37.1262 36.6843 37.1788 36.7721 37.2307 36.8525C37.3791 37.0822 37.9513 38.2459 37.998 38.4128C38.0105 38.4575 38.048 38.5289 38.0812 38.5716C38.1145 38.6142 38.1417 38.6663 38.1417 38.6874C38.1417 38.7084 38.1709 38.7862 38.2066 38.8602C38.2423 38.9342 38.2716 39.018 38.2716 39.0465C38.2716 39.0749 38.3214 39.2329 38.3823 39.3975C38.5906 39.9604 38.6005 39.9981 38.694 40.5862C38.7121 40.7 38.7328 40.8028 38.7401 40.8146C38.753 40.8355 38.8211 41.3445 38.8906 41.9396C38.9094 42.1005 38.96 42.4369 39.003 42.6872C39.046 42.9375 39.0969 43.3397 39.1161 43.5811C39.1352 43.8224 39.1733 44.1808 39.2006 44.3775L39.2503 44.735L39.3431 45.0763C39.4863 45.6027 39.6603 46.1135 39.7523 46.277C39.7981 46.3586 39.9012 46.5789 39.9814 46.7666C40.0615 46.9543 40.154 47.1371 40.1869 47.1729C40.2198 47.2086 40.2953 47.3334 40.3548 47.4501C40.4143 47.5668 40.5215 47.7392 40.5929 47.8331C40.8418 48.1605 41.1021 48.4735 41.1719 48.5292L41.2422 48.5854L41.1773 48.584C41.1416 48.5833 41.0612 48.5595 40.9987 48.5311ZM47.2735 44.4626C47.0904 44.3177 46.9256 44.1205 46.8739 43.9842L46.8383 43.8903V43.3515V42.8127L46.9076 42.541C47.128 41.6767 47.8792 41.2955 49.2873 41.3336L49.6055 41.3422L49.7809 41.3057L49.9563 41.2693L50.0147 41.2996L50.073 41.3299L50.3977 41.3535C50.817 41.384 50.8478 41.3874 51.2905 41.4497C51.4959 41.4786 51.7296 41.5098 51.81 41.519C51.8903 41.5282 52.0072 41.543 52.0697 41.552C52.1322 41.5609 52.234 41.5685 52.2958 41.5688L52.4083 41.5694L52.4438 41.5989L52.4793 41.6284L52.8345 41.6475C53.0299 41.658 53.3429 41.6815 53.5301 41.6997L53.8704 41.7328L54.5041 41.6788L55.1378 41.6247L55.1702 41.5996C55.1881 41.5857 55.283 41.5643 55.3813 41.552C55.4795 41.5397 55.7203 41.4936 55.9165 41.4495L56.2731 41.3693L56.5983 41.2177L56.9234 41.0661L57.0779 40.934L57.2324 40.8019L57.2852 40.6637L57.3381 40.5255L57.2963 40.3285L57.2546 40.1316L57.1345 39.9304C57.0684 39.8198 56.9889 39.6561 56.9579 39.5667C56.9268 39.4773 56.8874 39.3776 56.8702 39.3451L56.839 39.2861L56.837 38.8703L56.835 38.4545L56.8668 38.393C56.8843 38.3592 56.9091 38.273 56.922 38.2015C56.9533 38.0274 57.128 37.6542 57.272 37.4539L57.3888 37.2914L57.5782 37.1378C57.6823 37.0533 57.8033 36.9565 57.847 36.9226L57.9264 36.861L57.8708 36.6699C57.809 36.4574 57.6457 35.7902 57.4738 35.0485C57.2993 34.2954 57.2707 34.1544 57.2461 33.9271C57.2336 33.8109 57.2142 33.7012 57.2032 33.6833C57.1792 33.6445 57.1762 33.5835 57.1492 32.5781L57.1282 31.798L57.1622 31.6355C57.1809 31.5461 57.2244 31.2974 57.2589 31.0829C57.3283 30.652 57.4143 30.3143 57.5612 29.8965C57.8452 29.0886 57.9246 28.8382 58.0096 28.4825C58.1037 28.0888 58.1878 27.5109 58.1729 27.3611C58.1685 27.3164 58.1673 27.2506 58.1702 27.2148C58.1731 27.179 58.1835 27.0283 58.1932 26.8799L58.2108 26.61L58.1739 26.5654L58.137 26.5209L58.1559 26.4128L58.1747 26.3047L58.1403 26.1259C58.1213 26.0276 58.092 25.874 58.0751 25.7846C58.0437 25.618 57.9592 25.3722 57.7177 24.7444C57.5138 24.2146 57.2521 23.2335 57.2147 22.8591C57.2075 22.7876 57.1922 22.6706 57.1807 22.5991C57.156 22.4467 57.1559 20.6338 57.1804 20.3725C57.1896 20.2742 57.206 20.1425 57.2167 20.0799C57.3024 19.5821 57.371 19.2237 57.4098 19.0723C57.8417 17.3859 58.0931 16.275 58.1302 15.8895C58.1398 15.7897 58.1551 15.6349 58.1642 15.5455C58.1796 15.3944 58.1958 15.1163 58.2143 14.6841L58.2219 14.5053L56.9089 14.4891L55.5958 14.4728L55.4449 14.0933L55.294 13.7138L55.1528 13.4758L55.0115 13.2377L54.7986 13.0334L54.5857 12.8292L54.3895 12.7316L54.1933 12.634L53.8863 12.5671C53.7175 12.5303 53.5136 12.4905 53.4333 12.4786L53.2872 12.457L52.3619 12.4671C51.853 12.4726 51.4085 12.4771 51.3742 12.4771C51.3399 12.477 51.1573 12.4989 50.9684 12.5257C50.7795 12.5526 50.5789 12.5798 50.5225 12.5862C50.4662 12.5926 50.342 12.6134 50.2465 12.6323C50.1511 12.6512 49.7589 12.7042 49.375 12.7501C48.9911 12.7959 48.5794 12.8498 48.4601 12.8697L48.2433 12.9059L47.6647 12.8797C47.3465 12.8653 46.9473 12.8477 46.7777 12.8405C46.0092 12.8078 45.8399 12.7986 45.6531 12.7789L45.4537 12.7579L45.2716 12.7807L45.0895 12.8035V12.9275V13.0514L45.3837 13.8109C45.5456 14.2286 45.7124 14.6581 45.7545 14.7654C45.7966 14.8726 45.9356 15.231 46.0634 15.5618C46.2808 16.1245 46.8432 17.5715 47.0867 18.1947C47.1461 18.3466 47.2481 18.6099 47.3134 18.7798C47.6017 19.5299 47.6679 19.6977 47.8326 20.0962C47.9287 20.3286 48.1312 20.8406 48.2826 21.2339C48.434 21.6272 48.6547 22.1977 48.773 22.5016C48.8914 22.8055 49.053 23.2224 49.1323 23.428C49.2115 23.6336 49.3873 24.087 49.5229 24.4356C49.6585 24.7842 49.8203 25.2011 49.8825 25.362C49.9447 25.5229 50.016 25.7058 50.041 25.7683C50.066 25.8309 50.1761 26.1161 50.2857 26.4022C50.3953 26.6882 50.5192 27.01 50.5609 27.1173C50.6026 27.2246 50.6903 27.4513 50.7558 27.6211C50.8213 27.791 50.9701 28.1713 51.0864 28.4662C51.3594 29.1589 51.5892 29.7613 51.7434 30.189C51.8111 30.3767 51.9352 30.6912 52.0193 30.8879L52.1721 31.2454L52.2381 31.3163L52.304 31.3872L52.4352 31.4094C52.5697 31.4321 52.7498 31.4979 52.7908 31.5392L52.8138 31.5625L52.7659 31.6553C52.6514 31.877 52.1376 32.4482 51.6171 32.9324C51.3654 33.1666 50.6193 33.6915 50.2678 33.8817C49.9523 34.0525 49.2637 34.3683 49.0016 34.4624C48.9124 34.4945 48.8254 34.5334 48.8085 34.549C48.7915 34.5645 48.7511 34.5772 48.7187 34.5772C48.6864 34.5772 48.6345 34.5917 48.6035 34.6095C48.5456 34.6426 47.8574 34.8565 47.6543 34.9044C47.0398 35.0495 46.2709 35.1865 45.9336 35.2109C45.2217 35.2625 44.7036 35.273 44.1703 35.2467L43.8518 35.231L43.7406 35.1943L43.6295 35.1576L43.5594 35.1798L43.4893 35.2021L43.3722 35.1675C43.3078 35.1485 43.0828 35.1099 42.8722 35.0816C42.4381 35.0234 41.9047 34.9226 41.6643 34.8534C41.575 34.8277 41.3924 34.7759 41.2584 34.7383C40.7805 34.6042 40.4832 34.4913 39.976 34.2515C39.1479 33.8599 38.5148 33.3805 37.4717 32.3548L36.914 31.8064L36.8546 31.6961L36.7953 31.5858L36.8307 31.5294L36.8661 31.473L37.0088 31.4204L37.1515 31.3678L37.2242 31.2416C37.2642 31.1722 37.3649 30.9399 37.448 30.7253C37.5311 30.5108 37.6618 30.1744 37.7383 29.9777C37.8149 29.7811 38.0628 29.1375 38.2892 28.5475C38.5156 27.9575 38.7661 27.3066 38.8459 27.101C38.9256 26.8954 39.0173 26.6541 39.0495 26.5647C39.0817 26.4753 39.1241 26.3656 39.1437 26.3209C39.1632 26.2762 39.4007 25.6619 39.6713 24.9557C39.9419 24.2495 40.2059 23.5621 40.2581 23.428C40.3102 23.2939 40.4165 23.016 40.4943 22.8104C40.6844 22.3076 41.0754 21.2858 41.3214 20.6488C41.4319 20.3627 41.6011 19.9239 41.6975 19.6736C41.7939 19.4233 41.9699 18.9699 42.0886 18.666C42.2073 18.3621 42.3311 18.0403 42.3636 17.9509C42.3962 17.8615 42.4874 17.6201 42.5663 17.4145C42.9137 16.5099 43.3576 15.3568 43.4736 15.0579C43.543 14.8791 43.6413 14.6232 43.692 14.4891C43.7427 14.355 43.9025 13.9343 44.0472 13.5542L44.3103 12.8631V12.772V12.681L44.221 12.5991C44.1166 12.5035 43.8802 12.3862 43.5098 12.2463C43.2107 12.1334 43.064 12.0432 42.9677 11.913L42.9015 11.8236L43.0134 11.7066L43.1253 11.5895L43.3569 11.6063L43.5885 11.6231L43.6877 11.6745C43.7423 11.7027 43.9376 11.7642 44.1217 11.8111L44.4564 11.8963L44.7486 11.872C44.9093 11.8586 45.1065 11.8434 45.1869 11.8382C45.584 11.8126 46.5001 11.6217 46.8102 11.5C46.8905 11.4684 47.2631 11.339 47.6381 11.2124C48.4091 10.9521 48.8267 10.8032 48.9692 10.7379C49.0227 10.7133 49.1615 10.6607 49.2776 10.621C49.3937 10.5812 49.7151 10.4693 49.9919 10.3723C50.2686 10.2753 50.5608 10.1765 50.6412 10.1529C50.7215 10.1292 50.8457 10.0848 50.9172 10.0542C51.1221 9.96638 51.5968 9.84548 52.021 9.77308C52.2353 9.73651 52.4545 9.69327 52.5082 9.67698L52.6058 9.64736L52.7208 9.66604L52.8357 9.68472L52.9601 9.63271L53.0844 9.5807L53.2052 9.61693L53.326 9.65317L53.5988 9.63159C53.7488 9.61971 53.9373 9.61136 54.0177 9.61302C54.4267 9.62146 54.6581 9.63655 54.7264 9.65923C54.768 9.67305 54.8702 9.68903 54.9536 9.69475C55.5598 9.7363 55.8075 9.796 56.4202 10.0482L56.6637 10.1484L56.8616 10.2836C56.9705 10.3579 57.1308 10.4881 57.2179 10.5728C57.305 10.6576 57.4312 10.7616 57.4982 10.804L57.6201 10.881H57.6842C57.7194 10.881 57.7854 10.898 57.8309 10.9187L57.9136 10.9565L58.0479 10.9121L58.1822 10.8677L58.2265 10.7616L58.2707 10.6556V10.3647V10.0738L58.2073 9.92571C58.1725 9.84427 58.098 9.60536 58.0419 9.39481C57.9857 9.18426 57.903 8.88204 57.8581 8.7232L57.7764 8.43441L57.7922 8.31689C57.8008 8.25225 57.8752 8.00921 57.9575 7.7768C58.0397 7.54439 58.1881 7.1202 58.2872 6.83416C58.7059 5.62609 58.8357 5.27137 58.8751 5.22795L58.9168 5.18199L58.9659 5.22276C58.9929 5.24519 59.0246 5.29512 59.0364 5.33374C59.0482 5.37235 59.1059 5.52827 59.1645 5.68023C59.2232 5.83219 59.4692 6.48644 59.7111 7.13411L60.151 8.3117L60.0536 8.64559C60.0001 8.82924 59.9065 9.1477 59.8457 9.3533C59.7849 9.55889 59.6964 9.85875 59.6491 10.0196L59.563 10.3122L59.5813 10.4697L59.5995 10.6273L59.6589 10.7289L59.7182 10.8306L59.826 10.8616L59.9338 10.8925L60.1302 10.8519L60.3266 10.8113L60.4918 10.7052C60.5827 10.6468 60.7114 10.5386 60.7779 10.4646L60.8989 10.3301L61.1351 10.2107C61.265 10.1451 61.4735 10.0579 61.5985 10.017C61.7235 9.97616 61.8696 9.92782 61.9232 9.90963C62.1534 9.83143 62.3909 9.7769 62.5725 9.76056C62.6797 9.75092 62.8769 9.72699 63.0108 9.70738C63.1447 9.68778 63.3378 9.67324 63.4398 9.67507L63.6252 9.6784L63.7753 9.62739L63.9254 9.57639L64.0249 9.61111L64.1244 9.64584H64.3814H64.6384L64.7041 9.61061L64.7699 9.57539L64.8725 9.61814L64.975 9.66089L65.1536 9.66732C65.611 9.68378 66.3832 9.85893 67.134 10.1166C67.3751 10.1993 67.6161 10.2799 67.6697 10.2957C67.7233 10.3115 67.9132 10.3774 68.0918 10.4422C68.2703 10.5069 68.526 10.5971 68.6599 10.6426C68.7939 10.6881 68.9293 10.7391 68.961 10.7559C69.0908 10.8251 71.113 11.5162 71.4358 11.6017C71.6916 11.6695 72.2963 11.7887 72.4041 11.7926C72.5123 11.7965 72.7986 11.8237 73.1484 11.8633L73.4651 11.8991L73.603 11.8601C73.6788 11.8387 73.8505 11.7844 73.9844 11.7394C74.1183 11.6945 74.2885 11.643 74.3625 11.625L74.4972 11.5923L74.6547 11.6024L74.8123 11.6124L74.8404 11.7263L74.8685 11.8402L74.8188 11.9594L74.769 12.0787L74.6888 12.1313C74.6447 12.1602 74.4499 12.2428 74.2559 12.3148C73.7806 12.4912 73.5925 12.5687 73.5055 12.6239L73.4325 12.6703V12.7343C73.4325 12.7694 73.493 12.9556 73.5669 13.148C73.6409 13.3403 73.7631 13.6586 73.8385 13.8552C73.9139 14.0519 74.1987 14.7906 74.4714 15.4967C75.0684 17.0427 75.6567 18.5692 75.9872 19.4299C76.121 19.7785 76.3008 20.2465 76.3866 20.47C76.4724 20.6935 76.6113 21.0519 76.6953 21.2664C76.7792 21.4809 76.9399 21.8978 77.0524 22.1928C77.1649 22.4878 77.4495 23.2264 77.6848 23.8343C77.92 24.4421 78.2301 25.2466 78.3737 25.6221C78.5173 25.9975 78.6746 26.4071 78.7232 26.5322C79.1359 27.5948 79.2736 27.9513 79.407 28.3037C79.4916 28.5272 79.6442 28.9221 79.7462 29.1814C79.8482 29.4406 80.0559 29.9818 80.2079 30.384C80.3599 30.7863 80.5156 31.1804 80.554 31.2598L80.6237 31.4041L80.7057 31.4638L80.7876 31.5234L80.9167 31.5416C80.9877 31.5516 81.0646 31.5656 81.0875 31.5727L81.1292 31.5856L81.0802 31.6806C80.9423 31.9476 80.2263 32.7152 79.8436 33.0065C79.4431 33.3112 78.9349 33.6494 78.6595 33.7945C78.5435 33.8556 78.3974 33.9363 78.3349 33.9737C78.125 34.0995 77.465 34.3815 77.1499 34.48C77.0784 34.5024 77.0051 34.5324 76.9869 34.5467C76.9549 34.5718 76.0504 34.8446 75.7863 34.9087C75.7148 34.9261 75.6272 34.9535 75.5915 34.9696C75.5094 35.0067 74.6598 35.1623 74.5396 35.1623C74.4902 35.1623 74.4388 35.1733 74.4254 35.1867C74.412 35.2001 74.3328 35.214 74.2495 35.2175C74.1662 35.2211 73.9738 35.2322 73.8221 35.2421C73.4746 35.2649 72.9367 35.2644 72.4747 35.2408C72.2783 35.2307 72.0445 35.2189 71.9553 35.2145C71.866 35.2102 71.7564 35.1905 71.7118 35.1708C71.6671 35.1511 71.4991 35.1187 71.3384 35.0989C70.8683 35.0409 70.1075 34.8872 70.0398 34.8366C70.0219 34.8233 69.9016 34.7886 69.7725 34.7595C69.6433 34.7305 69.4899 34.6858 69.4316 34.6602C69.3732 34.6346 69.1502 34.5405 68.9359 34.451C68.589 34.3061 68.1783 34.1004 67.9457 33.9549C67.901 33.927 67.7038 33.8042 67.5074 33.6821C67.311 33.56 67.0918 33.4147 67.0204 33.3592C66.949 33.3038 66.8467 33.2308 66.7931 33.1972C66.5766 33.0611 65.6604 32.2521 65.2916 31.8712L65.0237 31.5947V31.5461V31.4976L65.2175 31.4757C65.3241 31.4636 65.4184 31.4422 65.4271 31.4281L65.4429 31.4025L65.5355 31.4161L65.628 31.4297L65.6618 31.3863C65.6979 31.34 65.8735 30.9101 66.0271 30.4925C66.1482 30.163 66.2694 29.8457 66.5342 29.1651C66.6524 28.8612 66.7986 28.4809 66.8591 28.32C67.0249 27.8786 67.2356 27.3348 67.451 26.7922C67.5575 26.5241 67.6555 26.2681 67.6687 26.2234C67.682 26.1787 67.7705 25.9374 67.8655 25.6871C67.9604 25.4368 68.1794 24.859 68.352 24.4031C68.5247 23.9472 68.7368 23.3914 68.8235 23.1679C68.9102 22.9445 69.0556 22.5665 69.1466 22.3281C69.2377 22.0897 69.326 21.8703 69.3429 21.8405C69.3597 21.8108 69.506 21.4354 69.6679 21.0063C69.8298 20.5773 70.0108 20.1019 70.0702 19.9499C70.1295 19.798 70.2174 19.5639 70.2655 19.4299C70.3136 19.2958 70.453 18.9301 70.5753 18.6172C70.6976 18.3044 70.8592 17.8875 70.9344 17.6908C71.0096 17.4942 71.1361 17.1663 71.2155 16.9622C71.2948 16.7581 71.4229 16.4217 71.5 16.2146C71.5771 16.0075 71.6558 15.8015 71.6748 15.7568C71.7167 15.6586 72.5685 13.4194 72.691 13.0855L72.723 12.9984L72.7125 12.9086L72.702 12.8188L72.5884 12.7892L72.4747 12.7595L72.2312 12.7784C72.0973 12.7888 71.8562 12.8037 71.6955 12.8114C71.5348 12.8192 71.2061 12.8365 70.965 12.8499C70.724 12.8633 70.293 12.8751 70.0073 12.876L69.4878 12.8778L68.9197 12.8093C68.6072 12.7716 68.3296 12.7393 68.3028 12.7375C68.276 12.7357 67.8743 12.6818 67.41 12.6177L66.5659 12.5012L65.5919 12.4764L64.6179 12.4515L64.4556 12.4765C64.3663 12.4902 64.1766 12.5186 64.0339 12.5397L63.7747 12.5781L63.5651 12.6803L63.3555 12.7826L63.1857 12.9379L63.0158 13.0933L62.8453 13.3594C62.7516 13.5057 62.59 13.8045 62.4862 14.0234L62.2975 14.4213L62.2342 14.4552L62.171 14.4891H60.9533H59.7356L59.7124 14.5267C59.6996 14.5473 59.6827 14.7411 59.6747 14.9573C59.6618 15.308 59.66 15.4665 59.6649 15.8055C59.6734 16.3995 59.9041 17.3741 60.292 18.4547C60.7058 19.6073 60.7948 20.0938 60.8004 21.2339L60.8036 21.884L60.7715 22.1115C60.7045 22.5865 60.4944 23.4405 60.2036 24.4194C60.1611 24.5624 60.088 24.833 60.0411 25.0207C59.9942 25.2084 59.9356 25.4425 59.9109 25.5408C59.8863 25.6391 59.8519 25.8512 59.8346 26.0121C59.7992 26.3416 59.7996 26.3365 59.7766 26.82L59.7599 27.1729L59.7842 27.2264C59.7975 27.2558 59.8108 27.3749 59.8138 27.4911C59.8167 27.6073 59.8285 27.7755 59.8399 27.8649C59.8514 27.9543 59.8614 28.0688 59.8623 28.1194C59.8659 28.3344 60.2029 29.8396 60.2815 29.9916C60.296 30.0197 60.3404 30.1963 60.3801 30.384C60.4198 30.5718 60.4809 30.835 60.5159 30.9691C60.5509 31.1032 60.5861 31.2934 60.5941 31.3917C60.6021 31.49 60.6261 31.6135 60.6475 31.6662L60.6863 31.7619L60.6868 32.6576L60.6872 33.5533L60.6614 33.7971C60.617 34.2156 60.6115 34.2649 60.5945 34.3984C60.5545 34.7116 60.2906 35.8883 60.1243 36.495C60.0876 36.6291 60.0572 36.7648 60.0569 36.7967L60.0564 36.8546L60.2937 37.0893C60.4242 37.2183 60.5992 37.4177 60.6825 37.5325L60.834 37.7411L60.9323 37.9774L61.0306 38.2137L61.068 38.5331L61.1054 38.8524L61.0699 39.092L61.0344 39.3315L60.9573 39.4816C60.9149 39.5642 60.8186 39.7309 60.7434 39.852L60.6065 40.0723L60.5558 40.2704L60.5051 40.4684L60.5243 40.5705L60.5434 40.6726L60.6801 40.8136L60.8168 40.9546L61.1764 41.129L61.5361 41.3034L62.0056 41.4525C62.2638 41.5345 62.5189 41.6169 62.5725 41.6356L62.6699 41.6696L63.2056 41.7043C64.002 41.7559 65.4853 41.6939 65.6243 41.6032C65.6422 41.5916 65.7006 41.5792 65.7542 41.5757C65.8078 41.5723 65.8954 41.5614 65.949 41.5515C66.0026 41.5416 66.1048 41.5251 66.1763 41.5149C66.4528 41.4754 67.0258 41.3986 67.134 41.3865C67.6798 41.3255 67.9843 41.301 68.108 41.3082C68.2995 41.3194 68.5789 41.3212 68.7411 41.3124C68.9412 41.3016 69.5346 41.3982 69.9099 41.5026C70.097 41.5547 70.3734 41.6904 70.5485 41.8162L70.7001 41.9251L70.8105 42.0948C70.8713 42.1882 70.9466 42.3378 70.978 42.4272C71.0093 42.5165 71.0502 42.6212 71.0688 42.6597L71.1026 42.7298L71.0801 42.7661L71.0577 42.8024L71.1121 42.9663L71.1664 43.1302L71.1494 43.2338C71.14 43.2907 71.1158 43.4104 71.0956 43.4998C71.0754 43.5892 71.046 43.7286 71.0304 43.8096C71.0147 43.8905 70.9715 44.0383 70.9342 44.138L70.8665 44.3191L70.7572 44.4458L70.6478 44.5725L59.0405 44.5807L47.4332 44.589L47.2735 44.4626ZM50.9644 31.4256L51.047 31.4036L51.0567 31.291L51.0663 31.1784L50.884 30.7081C50.6709 30.1584 50.1764 28.9053 50.0892 28.6938C50.034 28.56 49.5421 27.279 49.3528 26.776C49.3091 26.6598 49.2532 26.5135 49.2286 26.4509C49.0524 26.0023 48.9393 25.7045 48.8272 25.3945C48.7562 25.1979 48.5276 24.5981 48.3194 24.0618C47.9498 23.1098 47.8693 22.905 47.6548 22.3716C47.5972 22.2285 47.508 22.0018 47.4565 21.8677C47.405 21.7336 47.2693 21.3826 47.1549 21.0876C47.0406 20.7926 46.9365 20.5147 46.9237 20.47C46.9044 20.4032 46.1671 18.4762 45.8851 17.7558C45.8157 17.5786 45.1532 15.8597 44.8642 15.1068L44.7456 14.7982L44.6984 14.79L44.6512 14.7818L44.1671 16.0575C43.9009 16.7592 43.6569 17.3991 43.6249 17.4796C43.5471 17.6749 43.2488 18.4545 43.1585 18.6985C43.1188 18.8058 42.9396 19.2738 42.7604 19.7386C42.4036 20.6638 41.9352 21.8909 41.6003 22.7779C41.4821 23.0907 41.3576 23.4136 41.3235 23.4954C41.2895 23.5771 41.193 23.8258 41.1092 24.0479C40.9569 24.4518 40.8855 24.6391 40.3732 25.9796C40.2229 26.3729 39.9211 27.1628 39.7025 27.7349C39.484 28.307 39.24 28.9433 39.1604 29.1489C38.9137 29.7855 38.6723 30.4172 38.5328 30.7904C38.4594 30.987 38.3773 31.197 38.3505 31.257L38.3018 31.3661L38.3342 31.4052L38.3667 31.4444L44.6243 31.446L50.8818 31.4475L50.9644 31.4256ZM79.59 31.4062L79.6093 31.3557L79.5591 31.2356C79.5314 31.1695 79.4497 30.9618 79.3774 30.7741C79.2201 30.3653 78.9416 29.6476 78.5133 28.5475C78.3393 28.1006 78.1344 27.574 78.058 27.3773C77.9815 27.1807 77.8387 26.815 77.7405 26.5647C77.5846 26.1671 76.8643 24.3171 76.6141 23.6718C76.3529 22.998 75.8805 21.7833 75.7862 21.5427C75.7267 21.3907 75.6124 21.0982 75.5323 20.8926C75.1452 19.8983 74.8976 19.2623 74.5201 18.2922C74.294 17.7111 73.9778 16.8993 73.8173 16.4881C73.6568 16.077 73.4443 15.5321 73.345 15.2773C73.1231 14.708 73.1282 14.7101 72.9743 15.1229C72.9276 15.2481 72.7766 15.643 72.6388 16.0006C72.501 16.3581 72.3184 16.8335 72.2332 17.057C72.1479 17.2805 71.9829 17.712 71.8665 18.0159C71.7501 18.3198 71.6007 18.7147 71.5344 18.8935C71.4682 19.0723 71.3933 19.2666 71.3681 19.3253C71.3428 19.3841 71.1165 19.9692 70.8652 20.6255C70.6138 21.2819 70.3602 21.9433 70.3016 22.0953C70.243 22.2472 70.1573 22.4739 70.1112 22.5991C70.0282 22.8243 69.6167 23.9078 69.1606 25.102C69.0308 25.4417 68.8636 25.8732 68.7889 26.0609C68.6536 26.4013 68.0799 27.9028 67.9321 28.3037C67.8892 28.4199 67.7808 28.7052 67.6911 28.9376C67.6014 29.17 67.4271 29.6234 67.3036 29.9452C67.1802 30.267 67.0111 30.7075 66.928 30.924C66.8449 31.1405 66.7769 31.3415 66.7769 31.3706V31.4237L68.5707 31.4323C69.5572 31.4371 72.4358 31.4445 74.9675 31.4489L79.5706 31.4567L79.59 31.4062ZM35.1541 42.2494C34.5349 41.6097 34.1247 41.1703 34.0581 41.0751C34.0304 41.0354 33.8603 40.8544 33.6803 40.6729L33.3529 40.3428L33.1 40.1985C32.9609 40.1192 32.7941 40.0137 32.7294 39.9642C32.6646 39.9146 32.5739 39.8651 32.5278 39.8542C32.4816 39.8432 32.422 39.8156 32.3952 39.7927C32.3187 39.7275 32.0014 39.518 31.978 39.5173C31.9664 39.517 31.8369 39.4036 31.6902 39.2654C31.5435 39.1272 31.3701 38.9776 31.3048 38.9329C31.2395 38.8882 31.1362 38.8041 31.0753 38.746C31.0144 38.6879 30.95 38.6403 30.9324 38.6403C30.9147 38.6403 30.8281 38.5646 30.74 38.4721L30.5797 38.3038L30.419 38.2358L30.2582 38.1678L29.9169 37.8596C29.7292 37.6901 29.5669 37.5279 29.5562 37.4991C29.5455 37.4704 29.4749 37.3809 29.3994 37.3003C29.2515 37.1422 29.0187 36.8394 29.0187 36.8049C29.0187 36.7933 28.925 36.6623 28.8105 36.5138L28.6024 36.2437L28.4159 35.8899C28.3133 35.6953 28.1831 35.4483 28.1266 35.3411C28.07 35.2338 27.9962 35.0729 27.9625 34.9835C27.9289 34.8941 27.8761 34.7771 27.8453 34.7235C27.8145 34.6698 27.758 34.5455 27.7197 34.4472C27.6813 34.3488 27.6292 34.2453 27.6038 34.2171C27.5785 34.1889 27.5572 34.145 27.5566 34.1196C27.556 34.0942 27.5273 34.0149 27.4928 33.9433C27.4583 33.8718 27.4295 33.7895 27.4289 33.7604C27.4283 33.7313 27.4056 33.6542 27.3784 33.589C27.2267 33.2255 27.1107 32.3459 27.0828 31.3476L27.0607 30.5566L27.0989 30.533L27.137 30.5094L27.187 30.6336C27.2398 30.7648 27.5122 31.3414 27.5605 31.4242C27.5762 31.451 27.6264 31.5489 27.6722 31.6417C27.718 31.7345 27.8396 31.9247 27.9425 32.0643C28.0454 32.2039 28.1862 32.4205 28.2555 32.5456C28.4808 32.9527 28.6268 33.1559 28.9635 33.5313C29.1456 33.7343 29.3287 33.9577 29.3703 34.0278C29.4118 34.0978 29.4717 34.1689 29.5032 34.1858C29.5348 34.2027 29.6907 34.3664 29.8497 34.5496C30.0087 34.7327 30.3287 35.075 30.5608 35.31C30.793 35.5451 31.0925 35.8592 31.2264 36.0079C31.5493 36.3665 32.142 36.9617 32.3635 37.1497C32.4613 37.2327 32.662 37.4055 32.8095 37.5338L33.0777 37.7669L33.1666 37.7567L33.2555 37.7464L33.2952 37.6249C33.3497 37.4576 33.4012 37.0753 33.4343 36.5925C33.5215 35.3187 33.5918 34.7829 33.7457 34.2196C33.7921 34.0498 33.8511 33.8231 33.8769 33.7158C33.9274 33.5058 34.0471 33.1512 34.0854 33.0982C34.2296 32.8986 34.4715 31.7156 34.6007 30.5775C34.6384 30.246 34.6883 29.8811 34.7115 29.7668L34.7539 29.5589L34.7891 29.5472L34.8243 29.5354L34.9712 29.8378L35.1181 30.1403L35.139 30.2703C35.1732 30.4832 35.2847 30.9703 35.351 31.1967C35.4375 31.4921 35.5839 32.0815 35.674 32.4969L35.7128 32.6756L35.7418 33.277C35.7577 33.6077 35.7797 34.2806 35.7906 34.7722L35.8104 35.6661L35.7221 36.0887C35.6735 36.3211 35.6232 36.5771 35.6103 36.6575C35.5974 36.738 35.5623 36.8949 35.5324 37.0062C35.5025 37.1176 35.4622 37.2858 35.4428 37.38C35.2703 38.2186 35.2692 38.2236 35.2231 38.3093L35.1826 38.3847L35.1542 38.7619L35.1258 39.1392L35.1554 39.6455C35.1972 40.3602 35.2144 40.5272 35.2877 40.9319C35.4119 41.6182 35.6128 42.4909 35.6719 42.6016C35.7125 42.6774 35.7178 42.7685 35.6817 42.7685C35.6679 42.7685 35.4305 42.5349 35.1541 42.2494ZM82.4186 42.7494L82.4012 42.7197L82.4639 42.5409C82.5586 42.2707 82.5859 42.1652 82.6578 41.7933C82.6941 41.6056 82.7662 41.2618 82.8181 41.0294L82.9124 40.6069L82.9468 40.103C82.9658 39.8259 82.9934 39.4383 83.0081 39.2417L83.035 38.8841L83.0048 38.5266C82.9762 38.189 82.9055 37.7809 82.8442 37.6002C82.829 37.5555 82.7798 37.3361 82.7347 37.1126C82.6637 36.7602 82.5934 36.469 82.3736 35.6173C82.3482 35.519 82.3053 35.2192 82.2782 34.951L82.2289 34.4634L82.2091 33.3745L82.1892 32.2856L82.228 31.993C82.2493 31.8321 82.2817 31.642 82.2999 31.5705C82.3182 31.499 82.3549 31.3527 82.3815 31.2454C82.4081 31.1382 82.4489 30.9773 82.4722 30.8879C82.4955 30.7985 82.5391 30.6303 82.5693 30.5141C82.5994 30.3979 82.6624 30.1784 82.7093 30.0265C82.7562 29.8745 82.8028 29.6917 82.813 29.6202L82.8314 29.4902L82.8639 29.5044C82.9131 29.5259 83.0649 29.9968 83.1581 30.4165C83.2037 30.6221 83.2912 30.9949 83.3526 31.2449L83.4642 31.6994L83.5618 31.8565C83.6154 31.9429 83.6593 32.0287 83.6593 32.0471C83.6593 32.0886 83.7544 32.2634 83.8243 32.3506C83.8529 32.3864 83.963 32.5692 84.0688 32.7569L84.2613 33.0982L84.3635 33.4233L84.4657 33.7483L84.5524 34.3009C84.6001 34.6048 84.6661 34.9778 84.699 35.1298L84.7589 35.4061L84.7955 35.8286C84.8156 36.061 84.8625 36.4121 84.8998 36.6088L84.9675 36.9663L85.0165 37.0232L85.0654 37.0801H85.1383H85.2112L85.4202 36.8932C85.5351 36.7904 85.6929 36.6551 85.7709 36.5925C85.9869 36.4192 86.5179 35.8703 86.6505 35.6834C86.7153 35.592 86.9052 35.3741 87.0725 35.199C87.2398 35.024 87.479 34.7582 87.604 34.6083C87.729 34.4585 87.905 34.2549 87.9951 34.1559C88.3346 33.7829 88.6267 33.4362 88.6267 33.4062C88.6267 33.3789 88.7177 33.2682 89.0402 32.9032C89.2999 32.6093 89.4053 32.4669 89.8641 31.7898L90.0788 31.473L90.1231 31.3429C90.1475 31.2714 90.2006 31.1677 90.2412 31.1123C90.2817 31.057 90.3149 30.9988 90.3149 30.983C90.3149 30.9671 90.3678 30.8683 90.4325 30.7634C90.5483 30.5755 90.6123 30.4274 90.7438 30.0427C90.7804 29.9355 90.8223 29.8346 90.8368 29.8186L90.8632 29.7895L90.8801 29.8674C90.8951 29.9371 90.9207 30.1516 90.9806 30.7117L91 30.8932L90.9484 31.3125L90.8967 31.7319L90.8462 31.8787C90.8184 31.9595 90.7878 32.1133 90.7782 32.2206C90.7686 32.3278 90.7467 32.4429 90.7295 32.4762C90.7045 32.5248 90.4699 33.3469 90.3481 33.8133C90.3341 33.867 90.2771 34.0275 90.2214 34.1701C90.1657 34.3127 90.1201 34.4421 90.1201 34.4577C90.1201 34.4732 90.0893 34.5293 90.0516 34.5823C90.0139 34.6353 89.9499 34.7702 89.9093 34.8822C89.84 35.0735 89.7979 35.1695 89.5618 35.6741C89.5096 35.7857 89.4337 35.9173 89.3932 35.9666C89.3527 36.0159 89.3108 36.08 89.3003 36.1091C89.2897 36.1383 89.1886 36.2897 89.0756 36.4456C88.9626 36.6016 88.8516 36.7633 88.8289 36.8049C88.8061 36.8466 88.705 36.9658 88.6041 37.0698C88.5032 37.1738 88.3814 37.3183 88.3334 37.391C88.2501 37.5171 87.4807 38.3153 87.4424 38.3153C87.4324 38.3153 87.2601 38.4628 87.0595 38.6431C86.859 38.8234 86.673 38.9797 86.6462 38.9903C86.5855 39.0145 86.2816 39.2605 86.2481 39.3127C86.2344 39.3339 86.1387 39.4027 86.0354 39.4655C85.932 39.5284 85.821 39.6091 85.7886 39.6449C85.7563 39.6807 85.6547 39.7489 85.563 39.7963C85.4713 39.8437 85.3671 39.9066 85.3313 39.9359C85.2956 39.9653 85.1665 40.0405 85.0443 40.103L84.8222 40.2168L84.119 40.9157C83.7323 41.3 83.3428 41.7004 83.2535 41.8053C83.1642 41.9102 83.062 42.0284 83.0262 42.0681C82.947 42.156 82.5821 42.5924 82.4974 42.7006L82.436 42.779L82.4186 42.7494ZM32.1744 35.3183C32.153 35.2968 32.1354 35.2597 32.1354 35.2357C32.1354 35.1285 31.8047 34.6058 31.5833 34.3631C31.5166 34.2901 31.4347 34.1877 31.4013 34.1356C31.3678 34.0835 31.2856 33.9677 31.2186 33.8783C31.1516 33.7889 31.0967 33.7033 31.0967 33.688C31.0964 33.6344 30.7034 33.1549 30.1604 32.5456C30.1286 32.5099 30.0522 32.4148 29.9908 32.3343C29.9293 32.2539 29.8626 32.1774 29.8425 32.1643C29.7662 32.1148 29.3427 31.5876 29.2895 31.476C29.259 31.4117 29.2221 31.3592 29.2077 31.3592C29.1932 31.3592 29.1374 31.297 29.0836 31.221C29.0297 31.1451 28.9558 31.0463 28.9193 31.0016C28.8828 30.9569 28.7537 30.7814 28.6323 30.6116L28.4117 30.3028L28.1945 29.9008C28.0751 29.6797 27.9401 29.4091 27.8946 29.2994C27.8491 29.1898 27.7895 29.0652 27.7623 29.0226C27.6383 28.8284 27.4794 28.2293 27.2488 27.0863C27.202 26.8548 27.1559 26.6525 27.1463 26.6369C27.1367 26.6213 27.1088 26.4524 27.0843 26.2616L27.0398 25.9146L27.0199 25.297L27 24.6794L27.0711 24.1756C27.1102 23.8985 27.1532 23.5913 27.1666 23.493C27.18 23.3947 27.2159 23.1533 27.2464 22.9566L27.3017 22.5991L27.3648 22.4669C27.3995 22.3942 27.4278 22.324 27.4278 22.3108C27.4278 22.2873 27.4884 22.1458 27.6384 21.819C27.6795 21.7296 27.7218 21.6299 27.7325 21.5975L27.752 21.5386L27.7855 21.5593L27.819 21.58L27.7977 21.7407L27.7765 21.9013L27.8159 22.429L27.8553 22.9566L27.9339 23.4605C28.0842 24.4241 28.0982 24.4827 28.3347 25.1299C28.4252 25.3777 28.4992 25.5943 28.4992 25.6112C28.4992 25.6281 28.53 25.7096 28.5677 25.7923C28.6053 25.875 28.6579 26.0168 28.6846 26.1074C28.7113 26.198 28.7438 26.2868 28.7568 26.3047C28.7698 26.3225 28.8217 26.4615 28.8721 26.6135C28.9225 26.7654 28.9817 26.919 29.0036 26.9548C29.0255 26.9905 29.0532 27.0637 29.0652 27.1173C29.0771 27.1709 29.1796 27.405 29.2929 27.6374C29.4063 27.8698 29.5313 28.1404 29.5709 28.2387C29.6105 28.337 29.6842 28.5199 29.7347 28.645C29.7852 28.7702 29.8877 29.0481 29.9626 29.2626L30.0987 29.6527L30.1755 29.7446L30.2524 29.8364V29.8914C30.2524 29.9216 30.2894 30.001 30.3347 30.0677L30.4171 30.189H30.4959H30.5748L30.6111 30.1211C30.631 30.0837 30.7045 29.9777 30.7744 29.8854C30.8443 29.7932 30.9015 29.7042 30.9016 29.6877C30.9016 29.6713 30.9231 29.6342 30.9491 29.6053C31.0178 29.5293 31.1778 29.2189 31.2262 29.0676C31.2491 28.9961 31.2956 28.8979 31.3296 28.8494C31.3636 28.801 31.418 28.6839 31.4505 28.5893C31.534 28.3462 31.7001 28.0228 31.8391 27.8324C32.044 27.5519 32.1354 27.4078 32.1354 27.3653C32.1354 27.3427 32.1703 27.2777 32.2129 27.2208C32.2555 27.1639 32.3214 27.0588 32.3593 26.9873C32.3973 26.9158 32.4866 26.7644 32.5578 26.6508C32.6291 26.5373 32.6874 26.4327 32.6874 26.4184C32.6874 26.4041 32.7385 26.3164 32.801 26.2234C32.8635 26.1304 32.9146 26.0481 32.9146 26.0404C32.9146 26.027 33.0881 25.7924 33.248 25.5896C33.3904 25.409 33.6614 25.0002 33.6614 24.966C33.6614 24.9474 33.7418 24.8241 33.8401 24.692C33.9384 24.5599 34.0284 24.4153 34.04 24.3706C34.0517 24.3259 34.11 24.2319 34.1697 24.1616C34.2294 24.0913 34.2782 24.0182 34.2783 23.9991C34.2783 23.98 34.3346 23.8546 34.4033 23.7205C34.472 23.5864 34.5473 23.4182 34.5705 23.3467C34.5937 23.2752 34.6309 23.1874 34.6531 23.1517C34.6753 23.1159 34.7622 22.8782 34.8462 22.6235L34.9988 22.1604L35.0247 22.1764C35.039 22.1852 35.0676 22.3132 35.0884 22.4608L35.1262 22.7291L35.0759 23.3488L35.0256 23.9684L34.9465 24.2914C34.8352 24.7462 34.7451 25.1955 34.5753 26.1421C34.54 26.3388 34.4893 26.5655 34.4627 26.646C34.436 26.7264 34.3837 26.8908 34.3465 27.0112C34.2793 27.229 34.219 27.3769 34.0579 27.7186C34.0116 27.817 33.9506 27.9632 33.9224 28.0437C33.8941 28.1241 33.8065 28.3143 33.7276 28.4662C33.6486 28.6182 33.5285 28.879 33.4606 29.0457C33.3927 29.2124 33.272 29.4757 33.1923 29.6308C33.1125 29.7858 32.994 30.0517 32.9288 30.2215C32.8636 30.3914 32.7902 30.5693 32.7657 30.6169C32.7411 30.6645 32.6766 30.8693 32.6222 31.072C32.5678 31.2746 32.4793 31.5757 32.4255 31.7409C32.3717 31.9062 32.2762 32.2426 32.2133 32.4885L32.099 32.9357L32.0811 33.3257L32.0632 33.7158L32.1174 34.2833C32.1472 34.5954 32.1927 34.951 32.2185 35.0736C32.2819 35.3754 32.2742 35.4182 32.1744 35.3183ZM86.214 34.3253C86.1803 34.2662 86.1522 33.7718 86.1554 33.2932L86.159 32.7732L86.1115 32.4806C86.0854 32.3197 86.0213 32.0047 85.9689 31.7805L85.8736 31.3729L85.7877 31.1629C85.7405 31.0474 85.6887 30.9236 85.6728 30.8879C85.6568 30.8521 85.6103 30.7278 85.5695 30.6116L85.4953 30.4003L85.2835 30.1185C84.9228 29.6387 84.8499 29.5312 84.758 29.3439C84.7361 29.2992 84.7001 29.2407 84.6781 29.2139C84.6296 29.1548 84.236 28.5136 84.1095 28.2875C83.9607 28.0214 83.8485 27.7784 83.712 27.4261C83.6073 27.1561 83.5058 26.9478 83.4673 26.924C83.4507 26.9137 83.4273 26.8579 83.4154 26.8C83.4035 26.7421 83.329 26.4911 83.2498 26.2423C83.0864 25.7287 83.0251 25.4814 82.8783 24.7444L82.7747 24.2243L82.7583 23.8563L82.7419 23.4883L82.7747 23.4556L82.8074 23.4228L82.9574 23.6638C83.0399 23.7963 83.1074 23.9155 83.1074 23.9287C83.1074 23.9418 83.1512 24.0164 83.2048 24.0943C83.2584 24.1723 83.3022 24.2501 83.3022 24.2673C83.3022 24.2845 83.3588 24.3671 83.4279 24.4508C83.4971 24.5346 83.5732 24.6423 83.597 24.69C83.6209 24.7378 83.6863 24.8354 83.7425 24.9069C83.7986 24.9785 83.8675 25.0808 83.8955 25.1345C83.9236 25.1881 84.028 25.3119 84.1276 25.4097L84.3087 25.5873V25.6315C84.3087 25.6864 84.5591 26.0175 84.7811 26.2559C84.8726 26.3542 85.0002 26.5151 85.0646 26.6135C85.1291 26.7118 85.2117 26.8106 85.2482 26.833C85.2848 26.8554 85.4319 27.0154 85.5751 27.1886L85.8355 27.5033L86.0664 27.9604C86.3374 28.4967 86.6228 28.9914 86.6968 29.0529C86.7256 29.0768 86.794 29.1616 86.8488 29.2414C86.9036 29.3211 87.0055 29.4436 87.0753 29.5134L87.2021 29.6404L87.2685 29.6303L87.3348 29.6202L87.5993 29.0953C87.7447 28.8067 87.8919 28.5068 87.9264 28.429C87.9817 28.3043 88.2877 27.72 88.3666 27.5886C88.3826 27.5618 88.4575 27.4301 88.533 27.2961C88.6084 27.162 88.7169 26.9791 88.774 26.8898C88.8312 26.8004 88.9067 26.6687 88.9417 26.5972C88.9768 26.5257 89.0881 26.304 89.1891 26.1046L89.3728 25.742L89.459 25.4707C89.5064 25.3216 89.6301 24.9435 89.7338 24.6307L89.9225 24.0618L89.9591 23.8505C89.9793 23.7343 90.0084 23.5076 90.0239 23.3467C90.0888 22.6703 90.2411 21.7033 90.2905 21.6538C90.299 21.6453 90.3424 21.6864 90.387 21.7449L90.4681 21.8515L90.6003 22.2253C90.673 22.4309 90.7545 22.7015 90.7814 22.8266L90.8304 23.0542L90.8519 23.753L90.8734 24.4519L90.8394 24.9395C90.8049 25.4361 90.722 26 90.6689 26.0992C90.6528 26.1294 90.6396 26.1945 90.6396 26.2438C90.6396 26.2931 90.6044 26.4513 90.5613 26.5954C90.5183 26.7394 90.4433 27.0108 90.3947 27.1985C90.2486 27.7625 90.1581 28.0715 90.0141 28.4988L89.8772 28.9051L89.6878 29.2789C89.5836 29.4845 89.4654 29.7039 89.425 29.7664C89.3847 29.829 89.2956 29.968 89.227 30.0752C89.1583 30.1825 89.0609 30.3312 89.0105 30.4056C88.9601 30.48 88.9189 30.5594 88.9189 30.582V30.623L88.2093 31.3243L87.4997 32.0255L87.4117 32.1881C87.3634 32.2775 87.2919 32.4045 87.2529 32.4705C86.9655 32.9559 86.841 33.1747 86.841 33.1941C86.841 33.2064 86.7753 33.325 86.6949 33.4575C86.6146 33.59 86.5488 33.7058 86.5488 33.7147C86.5488 33.7416 86.2532 34.3497 86.2401 34.3497C86.2334 34.3497 86.2217 34.3387 86.214 34.3253ZM30.7289 27.5648C30.7206 27.5511 30.6981 27.4375 30.6788 27.3123C30.6269 26.9756 30.5275 26.6111 30.4199 26.3624C30.3675 26.2413 30.3139 26.1056 30.3009 26.0609C30.2879 26.0162 30.2406 25.8992 30.1959 25.8008C30.118 25.6295 30.0598 25.4946 29.8317 24.9557C29.7749 24.8216 29.6792 24.6095 29.619 24.4844C29.5588 24.3592 29.4273 24.0667 29.3267 23.8343C29.2261 23.6019 29.1089 23.3386 29.0662 23.2492C29.0236 23.1598 28.9447 22.955 28.8909 22.7941C28.8371 22.6332 28.7572 22.4034 28.7133 22.2834C28.5952 21.9606 28.4799 21.5 28.4343 21.1689C28.4122 21.008 28.3739 20.7537 28.3492 20.6039L28.3044 20.3315V19.9174V19.5034L28.354 19.2188C28.3813 19.0623 28.4171 18.8154 28.4335 18.6701C28.45 18.5248 28.4991 18.245 28.5426 18.0484C28.6114 17.7373 28.6578 17.5657 28.8281 16.992C28.8467 16.9294 28.8954 16.8051 28.9365 16.7157C28.9775 16.6263 29.0362 16.4873 29.0669 16.4069C29.0976 16.3264 29.1359 16.2352 29.1519 16.2042C29.1679 16.1731 29.181 16.132 29.181 16.1128C29.181 16.0572 29.3425 15.7272 29.4825 15.4967C29.5531 15.3805 29.663 15.1904 29.7267 15.0742C29.8808 14.793 30.0485 14.4996 30.1712 14.2965C30.2403 14.1823 30.3515 14.0574 30.3689 14.0748C30.3902 14.0962 30.2931 15.067 30.2651 15.1125C30.2545 15.1295 30.2183 15.329 30.1845 15.5557L30.123 15.9681L30.1229 16.4394C30.1227 17.2562 30.2627 19.0614 30.4292 20.3887C30.4562 20.6033 30.4936 20.9397 30.5123 21.1364C30.5311 21.333 30.585 21.7206 30.632 21.9977L30.7175 22.5016L30.7486 22.5422L30.7798 22.5828H30.8414C30.9357 22.5828 31.1234 22.4491 31.3562 22.216C31.6668 21.905 31.8001 21.7431 32.0843 21.3314C32.2392 21.107 32.4309 20.9158 32.7685 20.6488C32.9268 20.5236 33.1157 20.3602 33.1884 20.2855C33.261 20.2108 33.3808 20.1084 33.4546 20.058C33.7732 19.84 34.045 19.6371 34.184 19.5137C34.2661 19.4408 34.4122 19.3255 34.5087 19.2576C34.6051 19.1896 34.7975 19.023 34.9362 18.8874L35.1883 18.6407L35.338 18.4152C35.4203 18.2913 35.5338 18.1434 35.5902 18.0866C35.6466 18.0298 35.7507 17.897 35.8215 17.7914C35.8923 17.6858 36.0043 17.5427 36.0704 17.4734C36.1366 17.4041 36.2277 17.3003 36.273 17.2428L36.3553 17.1382L36.3557 17.1755C36.3559 17.1959 36.3277 17.3056 36.293 17.4192C36.2583 17.5329 36.2086 17.7136 36.1826 17.8209C36.1565 17.9281 36.0914 18.1841 36.038 18.3897L35.9408 18.7635L35.6938 19.2673C35.3848 19.8974 35.3181 20.016 35.1364 20.2587C35.0561 20.366 34.9694 20.4976 34.9437 20.5513C34.8456 20.7558 34.2305 21.6266 34.1668 21.6511C34.1407 21.6611 34.0945 21.7176 34.0643 21.7767L34.0093 21.884L33.7428 22.144C33.166 22.7068 32.7907 23.1536 32.4731 23.6555C32.3882 23.7896 32.2702 23.9542 32.2109 24.0213C32.1515 24.0884 32.103 24.1629 32.103 24.1869C32.103 24.2109 32.0737 24.257 32.038 24.2894C32.0023 24.3217 31.9731 24.3596 31.9731 24.3736C31.9731 24.3876 31.908 24.4941 31.8285 24.6104C31.749 24.7267 31.638 24.9214 31.5818 25.0432C31.5256 25.1649 31.4071 25.4086 31.3184 25.5846L31.1572 25.9047L31.0934 26.1535C31.0137 26.464 30.8458 27.2334 30.8172 27.4187C30.7964 27.5538 30.7593 27.6152 30.7289 27.5648ZM86.7981 26.437C86.5282 26.1312 86.4508 25.9611 86.3233 25.3945L86.2868 25.232L86.1244 24.9069C86.0352 24.7282 85.8806 24.4503 85.781 24.2894L85.5999 23.9968L85.3577 23.7249C85.2245 23.5753 85.0472 23.3941 84.9637 23.3222C84.8802 23.2504 84.7996 23.1706 84.7847 23.145C84.7697 23.1194 84.7113 23.0705 84.6548 23.0363C84.2795 22.8088 83.3196 21.8565 83.1643 21.5577C83.1331 21.4976 83.0887 21.4368 83.0657 21.4224C83.007 21.3858 82.7827 21.1036 82.7827 21.0663C82.7827 21.0493 82.73 20.9849 82.6656 20.9233C82.6012 20.8617 82.5172 20.7655 82.4789 20.7095C82.4407 20.6534 82.3302 20.4925 82.2333 20.3519C82.0548 20.0926 81.744 19.5729 81.7436 19.5329C81.7436 19.5209 81.72 19.4672 81.6913 19.4136C81.6309 19.3007 81.4696 18.8164 81.4368 18.6497C81.4245 18.5872 81.3643 18.3275 81.3032 18.0726C81.242 17.8178 81.1919 17.5735 81.1919 17.5297V17.4502L81.9187 18.1718C82.7048 18.9525 83.2649 19.4831 83.4471 19.6199C83.7809 19.8706 84.1555 20.1733 84.3574 20.3556C84.8297 20.7822 84.9053 20.847 85.0674 20.9647C85.159 21.0313 85.4051 21.1888 85.6143 21.3148L85.9947 21.5439L86.0869 21.5623L86.1791 21.5808L86.2212 21.53C86.2616 21.4813 86.3163 21.3122 86.5694 20.4538C87.0306 18.8892 87.0546 18.7939 87.1658 18.0809L87.2367 17.6258L87.2706 16.9835L87.3044 16.3413L87.2489 15.6671C87.1941 15.0016 87.173 14.8568 87.0846 14.5378C87.0598 14.4485 87.025 14.3095 87.0072 14.229C86.932 13.8886 86.8714 13.6887 86.7294 13.3117C86.6466 13.0922 86.5656 12.8833 86.5493 12.8476C86.4999 12.7394 86.3878 12.3316 86.4033 12.3162C86.4403 12.2791 87.0028 12.711 87.0041 12.7775C87.0045 12.7982 87.0342 12.8516 87.07 12.8963C87.1059 12.941 87.1885 13.0581 87.2536 13.1564C87.3186 13.2547 87.3971 13.3644 87.4279 13.4002C87.4588 13.4359 87.5526 13.6041 87.6364 13.774C87.7202 13.9438 87.8655 14.2364 87.9594 14.4241C88.0533 14.6118 88.1415 14.802 88.1554 14.8467C88.1693 14.8913 88.2055 14.9645 88.2359 15.0092L88.2911 15.0904L88.3666 15.3667C88.4082 15.5187 88.4569 15.6722 88.475 15.708C88.493 15.7437 88.5419 15.8973 88.5837 16.0493C88.6255 16.2013 88.6827 16.4061 88.7108 16.5044C88.8243 16.901 88.8803 17.1486 88.9019 17.3495C88.9145 17.4657 88.9379 17.6193 88.954 17.6908C88.9701 17.7623 88.999 18.1311 89.0182 18.5103L89.0532 19.1997L89.0028 19.8275C88.888 21.2574 88.7 22.0363 88.1415 23.3955C87.8972 23.9901 87.8239 24.1762 87.6868 24.5494C87.4708 25.1376 87.2078 25.9249 87.1819 26.0609C87.1451 26.2538 87.0353 26.6099 87.0072 26.6273L86.9805 26.6438L86.7981 26.437ZM31.6022 20.5715L31.5819 20.5386L31.6477 20.1712L31.7134 19.8037L31.7491 19.3004L31.7848 18.7971L31.7676 18.5853C31.7357 18.1914 31.6049 17.3776 31.5504 17.234C31.5221 17.1596 31.4451 16.6445 31.3878 16.1468L31.3598 15.9031L31.358 15.2483L31.3563 14.5935L31.3892 14.2569C31.4073 14.0717 31.4501 13.7959 31.4843 13.644C31.5185 13.492 31.5632 13.1921 31.5836 12.9776L31.6207 12.5875L31.6955 12.3275C31.8053 11.9463 32.209 11.0117 32.3311 10.8564C32.3663 10.8115 32.3952 10.7497 32.3952 10.7192V10.6636L32.4601 10.6047C32.4958 10.5724 32.5251 10.5299 32.5251 10.5103C32.5251 10.4907 32.5799 10.3924 32.6469 10.2919C32.7138 10.1913 32.8238 10.0231 32.8914 9.91809C32.959 9.81305 33.0951 9.62471 33.1939 9.49957C33.2927 9.37442 33.4334 9.18427 33.5065 9.077C33.5796 8.96974 33.6942 8.82148 33.7612 8.74754C33.8283 8.67361 33.9079 8.5639 33.9382 8.50376C33.9951 8.39109 34.0625 8.31529 34.635 7.72079L34.9706 7.37224L35.1611 7.24134C35.2659 7.16935 35.36 7.11045 35.3703 7.11045C35.3806 7.11045 35.4422 7.06868 35.5073 7.01764C35.5723 6.96659 35.6584 6.90757 35.6986 6.88647L35.7717 6.84812V6.87515C35.7717 6.89002 35.6915 6.99658 35.5935 7.11196C35.4955 7.22733 35.386 7.38024 35.3503 7.45175C35.3145 7.52326 35.2493 7.64028 35.2053 7.71179C35.1613 7.7833 35.0842 7.92226 35.034 8.02059C34.466 9.13388 34.4014 9.27303 34.2787 9.64584C34.2228 9.81568 34.1496 10.0278 34.116 10.1172C34.0517 10.2883 33.839 11.042 33.7307 11.4824C33.6697 11.7308 33.641 11.8961 33.5643 12.4413C33.52 12.7566 33.4614 13.866 33.4434 14.7298L33.4293 15.4092L33.6927 15.3889L33.9561 15.3686L34.0766 15.3144C34.1428 15.2846 34.3504 15.1876 34.5379 15.0987C34.7254 15.0098 34.9738 14.8929 35.0899 14.8388C35.2059 14.7847 35.4105 14.6859 35.5444 14.6192C35.6783 14.5525 35.8244 14.4868 35.8691 14.4732C35.9137 14.4596 36.013 14.4064 36.0898 14.355C36.1666 14.3036 36.2406 14.2616 36.2542 14.2616C36.2679 14.2616 36.3771 14.1957 36.4969 14.1153C36.6167 14.0348 36.7277 13.969 36.7436 13.969C36.8028 13.969 37.4867 13.3812 37.7733 13.084L38.0704 12.7758L38.3252 12.3817C38.4653 12.1649 38.622 11.9204 38.6734 11.8382L38.7668 11.6889L38.7931 11.7156L38.8194 11.7424L38.7615 11.9049C38.7296 11.9943 38.6947 12.0894 38.6838 12.1162C38.673 12.143 38.6407 12.2484 38.6121 12.3504C38.4081 13.0767 37.8772 14.1018 37.293 14.8975L37.045 15.2354L36.7898 15.5006C36.6495 15.6465 36.4825 15.8187 36.4188 15.8832C36.301 16.0025 35.78 16.4289 35.6796 16.4881C35.6493 16.506 35.5225 16.6021 35.3978 16.7016C35.1447 16.9036 34.7827 17.1542 34.7426 17.1551C34.7119 17.1559 34.5002 17.2949 33.9515 17.6746C33.5726 17.9368 33.2613 18.1981 32.9564 18.5099C32.8812 18.5868 32.8072 18.6497 32.792 18.6497C32.7768 18.6497 32.7416 18.6973 32.7139 18.7554C32.6862 18.8135 32.5983 18.9341 32.5187 19.0235C32.2465 19.3292 31.99 19.7653 31.7446 20.34C31.6243 20.6216 31.6287 20.6145 31.6022 20.5715ZM85.3325 19.466C85.3218 19.4323 85.2249 19.3043 85.1171 19.1816C85.0093 19.0589 84.8673 18.8953 84.8016 18.8179C84.5531 18.5257 84.2097 18.1735 84.0821 18.0802C83.6133 17.7372 83.2629 17.4344 82.7526 16.9313L82.312 16.4969L82.1216 16.3625C82.0169 16.2886 81.8995 16.2062 81.8607 16.1793C81.8218 16.1525 81.6884 16.0475 81.564 15.9459L81.338 15.7611L80.9971 15.3821C80.8096 15.1736 80.5795 14.9291 80.4858 14.8387C80.392 14.7483 80.3153 14.6607 80.3153 14.6439C80.3153 14.6271 80.1656 14.4277 79.9825 14.2008C79.5659 13.6842 79.5416 13.6522 79.3254 13.3352C79.2278 13.1921 79.0967 13.002 79.0341 12.9126C78.9715 12.8232 78.92 12.7323 78.9198 12.7106C78.9194 12.6888 78.8691 12.5791 78.8078 12.4668L78.6964 12.2625L78.5787 11.9049C78.514 11.7083 78.4333 11.4383 78.3993 11.3049L78.3376 11.0625L78.3563 11.0449C78.3666 11.0352 78.3915 11.0556 78.4117 11.0902C78.432 11.1248 78.5016 11.2125 78.5666 11.2852C78.6316 11.3579 78.7119 11.4625 78.7452 11.5178C78.8859 11.7514 78.984 11.8827 79.0752 11.9596C79.1285 12.0045 79.1942 12.0838 79.2212 12.1356L79.2702 12.23L79.6872 12.6552C80.1225 13.0989 80.4425 13.3845 80.6586 13.522C80.7287 13.5665 80.8153 13.6357 80.8509 13.6756C80.8866 13.7155 80.9597 13.7707 81.0133 13.7984C81.0669 13.826 81.1692 13.8959 81.2406 13.9537C81.312 14.0115 81.4435 14.0975 81.5328 14.1449C81.6221 14.1922 81.8123 14.3004 81.9555 14.3855C82.0987 14.4705 82.2668 14.5611 82.3289 14.5869C82.391 14.6126 82.5213 14.6816 82.6185 14.7402C82.7157 14.7987 82.8106 14.8467 82.8295 14.8468C82.8484 14.8469 82.9061 14.8691 82.9577 14.896C83.0092 14.9229 83.1334 14.9683 83.2336 14.9969C83.3338 15.0255 83.4879 15.0845 83.5759 15.1281L83.7359 15.2074L83.8194 15.1977L83.9028 15.1879L83.913 14.2778L83.9232 13.3677L83.8904 13.1564C83.8723 13.0402 83.8415 12.8427 83.822 12.7176C83.7425 12.2095 83.647 11.8639 83.4313 11.3036C83.3453 11.0801 83.2433 10.7986 83.2047 10.6781C83.166 10.5575 83.1221 10.4513 83.1071 10.4421C83.0922 10.4328 83.0548 10.3486 83.0241 10.2549C82.9616 10.0643 82.4388 9.00502 82.2957 8.77911C82.1692 8.57946 81.7762 8.12275 81.0976 7.38674C80.965 7.24285 80.623 6.82354 80.5011 6.65538C80.4298 6.55705 80.3552 6.46197 80.3353 6.4441C80.3154 6.42622 80.2054 6.3128 80.0909 6.19205L79.8827 5.9725L79.9021 5.95311L79.9215 5.93371L80.0453 5.99676C80.1135 6.03144 80.2277 6.08754 80.2991 6.12144C80.3705 6.15534 80.497 6.22997 80.5801 6.2873C80.6633 6.34463 80.8048 6.43001 80.8946 6.47704C80.9845 6.52407 81.0753 6.58343 81.0964 6.60896C81.1176 6.63449 81.1479 6.65538 81.1637 6.65538C81.1937 6.65538 81.3901 6.79268 81.5011 6.89117C81.5364 6.92252 81.6894 7.05354 81.8412 7.18232C81.993 7.31111 82.3983 7.70057 82.742 8.04781L83.3667 8.67915L83.5536 8.92642C83.6564 9.06241 83.7676 9.20313 83.8008 9.23911C83.834 9.2751 83.8981 9.36305 83.9432 9.43456C83.9883 9.50607 84.086 9.63771 84.1603 9.7271C84.2346 9.81649 84.3668 10.0066 84.4542 10.1497C84.5415 10.2927 84.6452 10.4536 84.6846 10.5072C84.7871 10.6467 85.1296 11.3144 85.2265 11.5636C85.5218 12.323 85.7397 13.3728 85.8 14.3266L85.8298 14.7979L85.8008 15.1229C85.7849 15.3017 85.7498 15.7625 85.7228 16.1468C85.6958 16.5312 85.6588 16.9847 85.6406 17.1545C85.5709 17.8045 85.5101 18.4897 85.4798 18.9671C85.4624 19.2401 85.4393 19.4777 85.4284 19.4954C85.3971 19.5461 85.3537 19.5328 85.3325 19.466ZM34.4082 13.9121C34.4082 13.8987 34.4678 13.7494 34.5407 13.5804L34.6731 13.273L34.7495 12.979C34.7915 12.8173 34.8877 12.5095 34.9632 12.295C35.0388 12.0805 35.141 11.7733 35.1902 11.6124C35.4543 10.7495 36.0918 9.63973 36.9975 8.46641C37.3781 7.9733 38.1109 7.26844 38.6437 6.88291C38.7796 6.78459 38.9666 6.64563 39.0593 6.57412C39.152 6.50261 39.2596 6.42216 39.2984 6.39534C39.3371 6.36852 39.4507 6.29031 39.5507 6.22153C39.6507 6.15275 39.7325 6.08256 39.7325 6.06556C39.7325 6.04856 39.774 6.01707 39.8246 5.99558C39.8752 5.9741 39.9812 5.90781 40.06 5.84827C40.3543 5.62593 41.1799 5.13377 41.2666 5.12899C41.3382 5.12503 40.9732 5.90047 40.6628 6.41159C40.5977 6.51886 40.5443 6.62311 40.5443 6.64327C40.5442 6.66343 40.5238 6.69688 40.4988 6.7176C40.4739 6.73833 40.2616 7.13871 40.027 7.60735C39.7924 8.07598 39.5608 8.52811 39.5123 8.61208C39.4638 8.69605 39.3467 8.90814 39.2522 9.0834C39.1576 9.25866 39.0664 9.42399 39.0495 9.45081C39.0327 9.47763 38.9821 9.56539 38.9371 9.64584C38.7516 9.97777 38.7216 10.0251 38.6206 10.1463C38.1017 10.7689 37.6412 11.2158 37.2452 11.4812L37.0793 11.5924L36.8719 11.826C36.5999 12.1324 36.2706 12.4644 36.1108 12.5935C35.7936 12.8497 35.5444 13.0685 35.5444 13.0909C35.5444 13.1043 35.4896 13.152 35.4226 13.1969C35.3557 13.2419 35.2571 13.3181 35.2035 13.3663C35.1499 13.4146 35.0513 13.4897 34.9844 13.5332C34.9174 13.5767 34.8626 13.6239 34.8626 13.6382C34.8626 13.6688 34.4818 13.9365 34.4382 13.9365C34.4216 13.9365 34.4081 13.9255 34.4082 13.9121ZM82.5814 13.7808C82.4796 13.6966 82.3271 13.5765 82.2426 13.5139C82.158 13.4514 82.0344 13.349 81.9679 13.2864C81.9014 13.2238 81.7714 13.1214 81.679 13.0589C81.5867 12.9963 81.3941 12.86 81.251 12.756L80.9909 12.5669L80.5151 12.0887L80.0394 11.6104L79.943 11.4651C79.89 11.3852 79.7926 11.2594 79.7266 11.1854C79.6606 11.1115 79.5813 11.0018 79.5504 10.9416C79.5195 10.8815 79.4309 10.7615 79.3535 10.6751C79.2761 10.5887 79.1586 10.4278 79.0924 10.3176C79.0262 10.2073 78.9236 10.0529 78.8645 9.97434C78.8053 9.89579 78.7569 9.81911 78.7569 9.80395C78.7569 9.78878 78.6853 9.63125 78.5977 9.45387C78.5101 9.2765 78.4278 9.0972 78.4148 9.05543C78.4018 9.01366 78.3201 8.82959 78.2332 8.64637C78.1462 8.46316 78.0751 8.30087 78.0751 8.28573C78.0751 8.27059 78.0459 8.23173 78.0102 8.19937C77.9745 8.16701 77.9453 8.12106 77.9453 8.09726C77.9453 8.07346 77.8769 7.93311 77.7934 7.78537C77.7099 7.63764 77.6013 7.43989 77.5521 7.34594C77.503 7.25198 77.4179 7.12066 77.3631 7.05411C77.3083 6.98756 77.2635 6.92096 77.2635 6.90611C77.2635 6.85048 77.0386 6.59152 76.5657 6.10279C76.2976 5.82569 75.9485 5.44319 75.7901 5.25279C75.6316 5.0624 75.4703 4.88964 75.4316 4.86889C75.3928 4.84815 75.3435 4.8028 75.3218 4.76812L75.2825 4.70508H75.337C75.3669 4.70508 75.4691 4.74896 75.564 4.80259C75.6589 4.85623 75.7514 4.90011 75.7695 4.90011C75.8286 4.90011 76.7319 5.35663 76.8414 5.44181C76.8682 5.46264 77.0447 5.55926 77.2336 5.65652C77.4226 5.75378 77.686 5.90495 77.819 5.99245C77.952 6.07996 78.0847 6.16618 78.1139 6.18406C78.2639 6.27593 78.7056 6.63507 79.0373 6.93497C79.2429 7.12087 79.4219 7.27297 79.435 7.27297C79.448 7.27297 79.5017 7.33154 79.5542 7.40312C79.6068 7.4747 79.7935 7.68209 79.9693 7.864C80.2759 8.18141 80.618 8.59557 80.7523 8.81196C80.7873 8.86834 80.8275 8.91937 80.8417 8.92534C80.8558 8.93131 80.921 9.01908 80.9866 9.12037C81.0521 9.22166 81.1388 9.34111 81.1793 9.3858L81.2529 9.46706L81.539 10.0362C81.6963 10.3492 81.842 10.649 81.8628 10.7025C81.8836 10.756 81.9451 10.9034 81.9996 11.0301C82.1239 11.3192 82.2671 11.7489 82.3724 12.1487C82.4172 12.3186 82.4921 12.6038 82.5389 12.7826C82.5858 12.9614 82.6744 13.2852 82.7359 13.5021C82.8848 14.0276 82.8832 14.0305 82.5814 13.7808ZM78.3024 10.9279V10.8772L78.3349 10.8973C78.3527 10.9083 78.3673 10.9311 78.3673 10.948C78.3673 10.9648 78.3527 10.9785 78.3349 10.9785H78.3024V10.9279ZM35.9015 6.73664C35.9015 6.7277 35.9088 6.72039 35.9178 6.72039C35.9267 6.72039 35.934 6.7277 35.934 6.73664C35.934 6.74558 35.9267 6.75289 35.9178 6.75289C35.9088 6.75289 35.9015 6.74558 35.9015 6.73664ZM79.7319 5.87653L79.6841 5.84629L79.7061 5.82425L79.7281 5.80222L79.7782 5.82147C79.8058 5.83205 79.8283 5.8558 79.8283 5.87424C79.8283 5.91552 79.7947 5.91632 79.7319 5.87653Z" fill="white"/>
</svg>
