<svg width="160" height="64" viewBox="0 0 160 64" fill="none" xmlns="http://www.w3.org/2000/svg">
<path d="M75.4697 37.0311C75.9893 36.3142 75.6919 34.7282 74.6814 34.5774C73.5196 34.5461 74.6445 36.5198 75.1514 37.0123L75.3136 37.066L75.4697 37.0311ZM78.1327 36.8128C78.5337 36.1568 77.8736 35.2938 77.1207 35.4858C77.2495 35.9298 77.5897 36.9414 78.1327 36.8128ZM92.111 35.7357C93.7795 35.0587 90.084 34.1844 90.4746 35.4011C90.8418 35.6933 91.6624 35.9226 92.111 35.7357ZM88.5607 34.674C90.278 34.4199 87.7046 32.564 87.0531 33.7267C86.1526 34.4138 88.0657 34.9433 88.5607 34.674ZM96.6217 35.0018C97.021 35.5568 98.7992 36.6586 97.1425 36.5627C95.8719 36.6169 94.8387 34.7055 93.5448 35.658C92.5441 35.908 92.4727 37.0567 93.387 37.5251C95.1625 38.8102 97.5073 39.6069 98.687 41.5444C98.6949 42.5011 97.2911 41.9814 96.916 41.4811C95.6558 40.4899 94.1978 39.5404 92.5216 39.7691C90.8991 39.6996 89.1831 40.1334 87.7568 39.2055C86.9606 38.697 85.6349 38.2534 85.067 39.3324C84.402 40.8681 84.8639 42.7275 85.1427 44.3462C85.7568 46.1012 87.7854 46.783 88.8805 48.1657C87.9807 48.7913 87.3065 47.2423 86.5967 46.8625C85.6459 46.4607 84.517 46.5958 83.5575 46.505C82.4021 46.5009 84.5443 48.5096 83.3564 47.7727C82.6765 47.317 81.9264 46.7246 81.1498 46.2949C81.1126 45.3064 80.2253 45.0484 79.5603 45.4509C78.8654 45.8204 78.0615 45.005 77.2598 45.2741C75.928 45.6401 75.1838 46.9302 73.8462 47.3375C73.1619 47.6324 72.4558 47.7051 71.6804 47.7897C70.9843 47.924 70.3657 48.1055 69.7332 48.6156C69.1368 49.6716 68.6948 48.8105 69.5434 48.3192C70.5207 47.175 71.9139 47.457 73.0206 46.5056C73.8834 45.9094 74.6748 45.0534 74.9503 44.0361C75.3233 43.1582 75.7093 42.1416 76.093 41.3698C75.9866 40.6857 75.462 39.9392 74.7447 39.6952C74.0562 39.1441 73.2034 39.2362 72.4666 39.5926C71.4413 40.0801 70.2719 40.5322 69.2025 40.9999C68.3604 41.3233 67.503 41.6912 66.6251 41.8894C65.5138 42.1576 64.1297 42.2806 63.0538 41.9532C62.1269 41.4094 62.7015 41.1858 63.3195 41.0299C64.2628 40.735 64.994 40.5274 65.9462 40.2319C66.9544 39.9083 68.3244 39.4559 69.3685 38.8342C69.8407 38.5151 70.5885 38.1479 70.504 37.4174C70.0508 36.5484 68.7437 36.5862 67.9994 36.8672C66.8998 37.3939 65.7774 38.2054 64.6127 38.5609C64.1124 38.7917 63.3968 38.9354 62.8454 39.1994C62.1974 39.2377 61.3783 39.6171 60.6675 39.3218C60.3786 39.2809 59.4387 38.7145 60.1955 38.682C61.7243 38.924 62.5183 37.1937 63.5856 36.4105C64.0933 35.8425 65.8834 35.0169 64.0159 35.131C62.4141 35.3308 62.104 34.4074 62.4469 33.1144C62.6337 32.4975 62.2674 31.5317 62.9135 31.2041C64.0876 30.1175 65.0841 28.6775 66.6025 28.0379C68.0962 28.0535 69.2946 26.7746 69.8046 25.5094C69.5034 24.5798 69.1969 23.4133 68.6217 22.709C67.6047 22.7415 66.6014 23.2994 65.6469 23.1735C64.2389 23.2495 65.232 22.0147 65.9239 21.6822C66.9942 20.9294 68.1824 20.2691 69.4298 19.7263C70.4268 19.4532 70.3955 18.4253 70.8778 17.7691C71.563 17.0046 72.5189 16.6516 73.4588 16.735C73.9471 16.2556 73.4815 14.9054 72.7719 14.8512C71.7979 14.9301 70.779 14.7387 72.2801 13.8707C72.8259 13.116 74.533 13.105 74.4683 12.2555C74.7538 11.3308 74.7449 10.2462 75.2219 9.42549C76.4545 8.05947 78.1434 7.20138 79.0759 5.55155C79.5619 5.03573 80.0308 2.91847 80.3096 4.69602C80.9465 6.4943 81.8866 8.42257 83.4291 9.67003C84.253 9.54063 84.8905 10.0169 85.5464 10.5245C86.8727 11.5311 88.4278 12.2705 89.4581 13.5282C90.0451 14.3101 92.3221 16.0598 90.0657 15.359C89.1905 14.9708 88.1411 15.3895 89.1528 16.2592C89.6219 17.4153 92.039 17.9669 91.3164 19.2284C90.4934 19.0871 89.7125 18.4627 88.9326 18.0958C88.3704 18.0915 87.8039 17.8452 87.365 18.247C86.8405 19.1152 87.8917 19.7017 88.5003 20.1207C90.4747 21.7062 91.7418 23.9448 93.848 25.3872C94.7912 25.9818 97.3215 28.0818 94.6494 27.1691C93.6746 27.0298 92.6766 26.6014 91.682 26.8324C90.985 28.2052 93.3355 28.3048 94.1251 28.7046C94.9577 29.153 96.8693 29.3724 96.9776 30.212C95.7805 30.5983 94.2331 30.3623 92.9394 30.5128C92.37 30.4189 90.6968 30.8885 91.5856 31.5575C93.2643 32.7056 94.9431 33.8537 96.6217 35.0018ZM67.8592 31.3896C67.5097 30.5029 66.1802 30.6331 65.7538 31.4011C66.428 31.4283 67.2012 31.4534 67.8592 31.3896ZM71.9284 31.3871C72.1204 30.5739 71.4059 29.3646 70.3135 29.7826C69.0546 29.6951 67.5411 30.0015 69.0471 31.4228C70.0043 31.3981 70.9818 31.4713 71.9284 31.3871ZM73.1241 30.6222C72.1334 30.0434 73.2852 29.6783 73.1241 30.6222V30.6222ZM83.4507 30.2852C83.747 28.8684 82.3679 28.8873 82.943 30.148C83.0584 30.2967 83.315 30.542 83.4507 30.2852ZM82.0412 30.0837C82.4719 29.3631 81.8187 28.3785 81.2813 27.8473C80.485 28.189 80.9685 30.175 81.8842 30.1336L82.0412 30.0837ZM77.1334 28.6711C77.425 27.4292 74.6717 27.0736 76.1552 28.3075C76.3772 28.568 76.7999 28.8671 77.1334 28.6711ZM79.0457 28.2617C79.6719 27.1738 78.6301 26.5676 78.7701 27.7925C78.8746 27.5104 78.8445 28.4445 79.0457 28.2617ZM89.4532 27.5574C90.2725 26.9393 89.4656 25.7176 89.3024 27.3823C89.1321 27.5894 89.2688 27.7089 89.4532 27.5574ZM88.3628 26.9615C89.3675 25.4026 87.5443 26.6036 88.2883 27.1647L88.3294 27.0526L88.3628 26.9615ZM71.771 24.2735C73.7937 24.3215 72.228 22.7188 71.6441 21.9743C71.2049 21.6694 70.1136 21.5563 69.9533 22.1585C70.0999 23.0247 70.7694 24.368 71.771 24.2735ZM86.9877 24.0781C87.5307 23.5734 87.5293 22.4185 86.6689 22.2374C85.8391 21.6512 84.2464 22.5316 84.7751 23.4995C85.4254 23.7904 86.26 24.3219 86.9877 24.0781ZM74.2192 23.363C75.5607 22.6334 75.6613 21.0101 73.8486 21.389C72.5659 21.3538 73.3082 23.3956 74.0404 23.4916C74.1172 23.499 74.1505 23.3795 74.2192 23.363ZM82.9215 22.5494C83.6809 22.5446 83.8874 21.1785 83.2361 20.9481C82.7041 21.0544 81.6707 22.3691 82.4595 22.5784L82.9215 22.5494ZM75.4431 19.5249C76.4189 19.274 77.6327 18.139 77.0925 17.1229C76.1503 16.9566 75.3548 17.8961 74.8157 18.5671C74.1354 19.3167 74.5542 19.9161 75.4431 19.5249ZM85.1023 17.7351C85.7835 17.734 86.1582 16.4514 85.5558 16.1909C84.7768 15.9044 84.1263 16.693 84.3559 17.4471C84.396 17.722 84.8921 17.8004 85.1023 17.7351ZM78.7914 17.4619C79.3709 16.3352 78.8874 15.7862 78.211 16.8375C77.8921 17.2659 78.422 17.8769 78.7914 17.4619ZM83.2665 16.7331C83.8224 15.931 82.2207 15.1203 81.9028 16.0327C81.5027 16.8804 82.8395 16.9487 83.2665 16.7331ZM80.8727 16.3451C80.6752 14.8848 80.7497 17.3768 80.8727 16.3451V16.3451ZM74.7246 15.3729C75.2114 15.1193 76.1058 14.0867 75.0744 13.9467C74.1687 13.6104 74.1516 14.7496 74.3 15.3444C74.2746 15.6852 74.5813 15.4766 74.7246 15.3729Z" fill="#999999"/>
<path d="M86.8191 59.5666C86.7656 59.474 86.6799 59.3245 86.6288 59.2345C86.4997 59.007 86.3663 58.8161 86.1468 58.5444C86.0434 58.4164 85.9588 58.3029 85.9588 58.2922C85.9588 58.2432 85.1921 57.1995 85.0137 57.0056C84.9397 56.9252 84.7735 56.7716 84.6444 56.6643C84.5153 56.5571 84.3309 56.402 84.2346 56.3197C84.1383 56.2374 83.9923 56.1312 83.9101 56.0837C83.8279 56.0363 83.7329 55.9664 83.699 55.9285C83.6405 55.863 83.5105 55.7687 83.2793 55.6242C83.2221 55.5884 83.0695 55.486 82.9402 55.3967C81.9566 54.7167 81.6196 54.5291 81.1213 54.3843C80.9695 54.3401 80.7796 54.281 80.6993 54.2528L80.5532 54.2016L80.074 54.2031L79.5949 54.2046L79.4572 54.2672C79.3814 54.3016 79.261 54.3456 79.1896 54.365C79.1182 54.3843 78.899 54.4534 78.7026 54.5184C78.1666 54.6958 78.0238 54.7538 77.55 54.9865C77.1344 55.1907 76.9396 55.2993 76.8529 55.3753C76.8167 55.407 76.7433 55.4516 76.6897 55.4744C76.6361 55.4972 76.4704 55.5987 76.3215 55.7C76.1726 55.8013 76.0155 55.9033 75.9725 55.9266C75.9295 55.9499 75.8943 55.982 75.8943 55.9978C75.8943 56.0137 75.8029 56.0967 75.6913 56.1824C75.3723 56.4272 75.0763 56.711 74.5794 57.2487C74.4008 57.4419 74.2099 57.6454 74.155 57.701C73.8242 58.0362 73.3406 58.678 73.0203 59.2071C72.9204 59.372 72.8274 59.514 72.8135 59.5226C72.7794 59.5437 72.2907 59.374 72.0305 59.2508C71.9146 59.1959 71.7978 59.1505 71.7711 59.1499C71.7443 59.1494 71.6955 59.1285 71.6626 59.1035L71.6028 59.0582L71.6233 58.9937C71.6345 58.9582 71.687 58.8746 71.7399 58.808C71.7927 58.7414 71.836 58.6745 71.836 58.6592C71.836 58.6086 72.1071 58.2674 72.2403 58.1503C72.2752 58.1196 72.3629 58.034 72.4351 57.9601C72.5074 57.8861 72.6834 57.7239 72.8262 57.5995C72.9691 57.4752 73.139 57.3236 73.2038 57.2627C73.2686 57.2017 73.4001 57.0909 73.496 57.0163C73.5919 56.9418 73.8042 56.7589 73.9677 56.61C74.3791 56.2355 75.0347 55.696 75.5214 55.3316C75.6407 55.2422 75.7627 55.1445 75.7924 55.1144C75.8488 55.0572 76.0816 54.8928 76.1061 54.8928C76.1404 54.8928 76.4683 54.6665 76.5243 54.6041C76.5583 54.5662 76.5994 54.5352 76.6157 54.5352C76.632 54.5352 76.6918 54.5004 76.7487 54.4578C76.8055 54.4153 76.9423 54.3312 77.0526 54.2709C77.1629 54.2107 77.372 54.0912 77.5172 54.0054L77.7814 53.8494L77.7712 53.7779L77.7611 53.7064L77.6312 53.669C77.5598 53.6484 77.3251 53.6061 77.1096 53.575L76.7179 53.5184L76.2331 53.537L75.7482 53.5556L75.2774 53.6363C74.5 53.7695 73.7744 53.9853 73.3781 54.2011C73.3246 54.2303 73.2588 54.2637 73.232 54.2754C73.1669 54.3037 72.9469 54.4147 72.8262 54.4802C72.7726 54.5092 72.5462 54.6136 72.323 54.7121C72.0998 54.8107 71.5423 55.0803 71.0842 55.3114C70.6261 55.5425 70.217 55.7418 70.1752 55.7544C70.1333 55.7669 70.0406 55.8033 69.9692 55.8353C69.7789 55.9204 69.5988 55.9848 69.4335 56.0271C69.3531 56.0476 69.0609 56.1241 68.7842 56.1971L68.2809 56.3298L67.8751 56.396L67.4693 56.4623L66.5115 56.4656L65.5538 56.4688L65.359 56.4305C65.2518 56.4094 65.0619 56.3768 64.9369 56.358C63.3734 56.1238 63.2521 56.0945 62.0961 55.672C61.9443 55.6166 61.7826 55.5593 61.7368 55.5448C61.6415 55.5145 61.618 55.5021 61.2806 55.3032C61.1446 55.223 60.9401 55.1133 60.8261 55.0595C60.7121 55.0057 60.5605 54.9174 60.489 54.8634C60.4176 54.8093 60.3012 54.7334 60.2303 54.6946C60.1594 54.6559 60.0645 54.599 60.0193 54.5682C59.7513 54.3858 59.4718 54.2094 59.4014 54.1783C59.281 54.125 59.182 54.0648 59.115 54.0041C59.0822 53.9744 59.0444 53.9502 59.031 53.9502C58.9744 53.9502 58.2326 53.2721 58.2326 53.2204V53.1982L58.2895 53.2136C58.8066 53.3543 59.1402 53.4601 59.2139 53.5068C59.2545 53.5326 59.3389 53.5643 59.4014 53.5773C59.4639 53.5902 59.5662 53.6267 59.6287 53.6584C60.0881 53.8915 60.7657 54.1346 61.2033 54.2234C61.7132 54.3268 61.7915 54.34 62.0961 54.3734C62.2658 54.392 62.536 54.4281 62.6967 54.4536C62.8574 54.4791 63.1789 54.5292 63.411 54.5648L63.8331 54.6296L64.5798 54.6373C65.3119 54.6449 65.5988 54.633 66.3492 54.5637L66.7226 54.5292L67.1121 54.4488C67.5683 54.3545 68.5505 54.1033 68.7554 54.0284C68.8337 53.9998 68.9845 53.9554 69.0905 53.9297C69.1965 53.9041 69.2988 53.8704 69.3178 53.8549C69.3368 53.8393 69.4619 53.7898 69.5958 53.7449C69.7297 53.6999 69.9248 53.618 70.0293 53.5629L70.2193 53.4626H70.2952C70.337 53.4626 70.3796 53.4489 70.3899 53.4322C70.4002 53.4155 70.5289 53.3567 70.6759 53.3015C70.8229 53.2463 70.971 53.1853 71.005 53.166C71.0889 53.1181 71.613 52.9434 71.6739 52.9429C71.7008 52.9426 71.8542 52.8977 72.0148 52.8428C72.4179 52.7051 72.3855 52.7121 73.508 52.5211C74.0164 52.4345 74.846 52.3635 75.456 52.3543L75.943 52.347L76.4252 52.3863L76.9074 52.4256L77.3018 52.5082C77.5187 52.5536 77.7838 52.6024 77.8909 52.6165C78.4571 52.691 79.0374 52.8271 79.4493 52.9821C79.9916 53.186 80.067 53.2163 80.097 53.2416L80.1279 53.2676H80.348H80.5681L81.1937 53.1337C81.5378 53.06 81.8997 52.9882 81.9979 52.9741C82.2701 52.935 83.1438 52.7831 83.5019 52.7127L83.8208 52.65L84.1187 52.6518C84.4888 52.6541 84.9569 52.6924 85.4231 52.7587C85.6195 52.7866 86.0505 52.8403 86.3809 52.8782C86.7112 52.916 87.0618 52.9605 87.16 52.977C87.5862 53.0489 88.0317 53.1165 88.6535 53.2037C89.0195 53.255 89.4505 53.3187 89.6112 53.3452C89.9276 53.3973 90.2211 53.4358 90.8774 53.5111C91.1096 53.5377 91.3652 53.5741 91.4456 53.5919C91.5259 53.6098 91.7305 53.6397 91.9001 53.6585C92.3107 53.7041 92.503 53.7346 92.8903 53.8158C93.0689 53.8532 93.3319 53.9067 93.4747 53.9345C93.6176 53.9624 93.8367 54.0051 93.9617 54.0294C94.1819 54.0723 94.6577 54.1569 95.2604 54.2604L95.5526 54.3105L96.3642 54.33L97.1759 54.3494L97.7278 54.3104C98.0314 54.289 98.4696 54.2433 98.7018 54.2088L99.1238 54.1462L99.3186 54.0836C99.4258 54.0492 99.5573 54.0056 99.6108 53.9867C99.6644 53.9678 99.8251 53.9133 99.968 53.8654C100.405 53.7191 101.092 53.4623 101.232 53.3933C101.305 53.3574 101.444 53.2976 101.543 53.2605C101.641 53.2233 101.756 53.1658 101.799 53.1327L101.876 53.0725H101.937C101.971 53.0725 102.156 52.9964 102.347 52.9034C102.902 52.6337 103.04 52.5976 102.852 52.7716C102.798 52.8209 102.693 52.9173 102.619 52.9859C102.545 53.0544 102.484 53.1211 102.484 53.1341C102.484 53.147 102.396 53.2144 102.289 53.2838C102.182 53.3532 102.095 53.421 102.095 53.4343C102.095 53.4477 101.952 53.5558 101.778 53.6746C101.604 53.7935 101.374 53.9523 101.267 54.0276C101.159 54.103 100.994 54.2183 100.899 54.2839C100.804 54.3495 100.667 54.4512 100.594 54.5098C100.521 54.5685 100.369 54.675 100.257 54.7465C100.145 54.8181 99.9061 54.9899 99.7265 55.1285C99.5469 55.267 99.3887 55.3804 99.3748 55.3804C99.361 55.3804 99.272 55.4316 99.1771 55.4941C98.7625 55.7675 98.3931 55.9388 97.9875 56.0457C97.8982 56.0693 97.7156 56.1177 97.5817 56.1533C97.2542 56.2404 97.0344 56.284 96.7051 56.3272L96.4291 56.3634L95.3902 56.3602L94.3513 56.3571L93.7596 56.3087C93.4342 56.2821 93.0397 56.2394 92.883 56.2139C92.7263 56.1883 92.4666 56.1503 92.3059 56.1294C91.118 55.9748 90.77 55.8944 90.2677 55.659C90.1315 55.5951 90.0026 55.5429 89.9812 55.5429C89.9599 55.5429 89.8679 55.5081 89.7768 55.4655C89.5214 55.346 89.2692 55.2468 89.1024 55.2002C89.019 55.1769 88.9222 55.1426 88.8873 55.1239C88.8525 55.1052 88.7016 55.0534 88.552 55.0087C88.4025 54.964 88.1559 54.8824 88.0042 54.8273C87.8524 54.7722 87.6113 54.6985 87.4685 54.6636C87.3256 54.6286 87.0561 54.5489 86.8696 54.4864C86.683 54.4239 86.4917 54.3727 86.4445 54.3727C86.3972 54.3727 86.2723 54.3426 86.1668 54.3058C86.0613 54.269 85.7997 54.1957 85.5854 54.1429L85.1958 54.0469L84.7088 54.0113L84.2218 53.9757L83.526 53.9944L82.8301 54.0132L82.784 54.0593L82.738 54.1054L82.7586 54.1706L82.7793 54.2357L82.8764 54.276C82.9297 54.2981 82.984 54.3332 82.997 54.354C83.01 54.3747 83.1254 54.4602 83.2536 54.5438C83.3817 54.6275 83.5935 54.7858 83.7243 54.8955C83.8551 55.0052 84.0425 55.1471 84.1407 55.2109C84.2389 55.2746 84.4032 55.3983 84.5058 55.4857C84.6083 55.5731 84.7673 55.6951 84.859 55.7569C84.9506 55.8187 85.0566 55.8981 85.0945 55.9335C85.1324 55.9688 85.2456 56.0599 85.346 56.136C85.8157 56.4916 86.3944 57.0152 86.5152 57.1938C86.5444 57.237 86.6818 57.3915 86.8205 57.5372C86.9592 57.6828 87.1508 57.8846 87.2462 57.9854L87.4198 58.1688L87.4206 58.213C87.4211 58.2372 87.4905 58.3329 87.5749 58.4255C87.7909 58.6627 88.0366 58.9749 88.0366 59.0121C88.0366 59.0293 88.0659 59.0699 88.1016 59.1022C88.1373 59.1346 88.1665 59.178 88.1665 59.1988V59.2365L87.6888 59.4131L87.2111 59.5898L87.103 59.6629C87.0435 59.7032 86.9772 59.7359 86.9557 59.7356L86.9165 59.7351L86.8191 59.5666ZM96.3995 52.8762C96.2224 52.8627 95.9449 52.8361 95.7826 52.8169C95.6204 52.7978 95.2612 52.7587 94.9844 52.73C94.7076 52.7014 94.4373 52.6637 94.3838 52.6464L94.2864 52.6148L93.3124 52.5509C92.7767 52.5157 92.2727 52.4734 92.1923 52.4567C92.1119 52.44 91.9512 52.4165 91.8352 52.4043L91.6241 52.3823L90.6478 52.3873L89.6714 52.3923L89.6155 52.3708L89.5596 52.3494L89.6188 52.3078C89.6514 52.285 89.7434 52.2487 89.8232 52.2272C90.1282 52.1451 90.8438 51.7282 90.8882 51.6069C90.8942 51.5906 90.9161 51.5768 90.9369 51.5762C90.9728 51.5752 91.1585 51.44 91.5482 51.1311C91.6435 51.0556 91.7769 50.9532 91.8446 50.9036C91.9124 50.854 91.9944 50.7872 92.027 50.7551C92.0595 50.7231 92.1309 50.6638 92.1856 50.6234C92.2403 50.583 92.3454 50.4703 92.4193 50.3729L92.5536 50.1959L92.7625 49.763C92.8775 49.525 92.9715 49.311 92.9715 49.2876C92.9715 49.2641 92.9925 49.2274 93.0182 49.2061C93.0439 49.1847 93.1077 49.0759 93.1599 48.9642C93.2834 48.7 93.7016 47.9895 93.8316 47.823C93.8875 47.7515 93.9605 47.6491 93.9938 47.5955C94.1768 47.3012 95.5601 45.9589 95.9455 45.7016C96.0062 45.6611 96.0558 45.6139 96.0558 45.5968C96.0558 45.5796 96.1033 45.5413 96.1613 45.5117C96.3079 45.4369 96.6774 45.1182 96.7434 45.0095C96.7735 44.96 96.8209 44.9067 96.8487 44.8911C96.8765 44.8755 96.9396 44.8025 96.9889 44.7289C97.1249 44.5256 97.3484 44.238 97.5312 44.0311C98.0567 43.436 98.282 43.191 98.3038 43.191C98.3518 43.191 98.3275 43.2793 98.2635 43.3373C98.2278 43.3697 98.1986 43.41 98.1986 43.4269C98.1986 43.4439 98.0503 43.7598 97.8692 44.1289C97.688 44.498 97.5285 44.8293 97.5146 44.865C97.5008 44.9008 97.4503 45.0178 97.4025 45.1251C97.1991 45.5811 97.0955 46.0144 96.9013 47.2216L96.8412 47.5955L96.7416 47.8832C96.6309 48.2032 96.4686 48.5124 96.2697 48.7819C96.0465 49.0845 95.7894 49.4079 95.635 49.5802C95.3306 49.92 95.0956 50.2196 94.8816 50.5406L94.6609 50.8718L94.64 50.9832L94.6191 51.0946L94.6489 51.1244L94.6787 51.1542L95.3104 51.184C95.6579 51.2004 96.0079 51.2078 96.0883 51.2004C96.1686 51.193 96.5412 51.1721 96.9161 51.154L97.5979 51.1211L97.9226 51.0734C98.1012 51.0472 98.3568 50.9949 98.4908 50.9571C98.6247 50.9193 98.8657 50.863 99.0264 50.8319C99.3884 50.762 99.8959 50.6052 100.251 50.4536C100.479 50.3561 100.916 50.1981 101.689 49.9339C102.218 49.753 102.678 49.5653 102.841 49.4641C102.868 49.4475 102.985 49.3913 103.101 49.3393C103.421 49.1957 103.464 49.1749 103.604 49.0924C103.676 49.0504 103.829 48.9677 103.945 48.9085C104.061 48.8494 104.217 48.7601 104.292 48.7102C104.366 48.6602 104.443 48.6194 104.462 48.6194C104.481 48.6194 104.497 48.6053 104.497 48.5881C104.497 48.5709 104.586 48.4964 104.694 48.4226L104.892 48.2885L104.912 48.3089L104.932 48.3294L104.772 48.6391C104.683 48.8094 104.574 49.019 104.529 49.1049C104.368 49.4146 103.187 50.6985 102.944 50.8271C102.903 50.8491 102.779 50.9437 102.668 51.0373C102.452 51.2208 102.146 51.4264 102.039 51.4606C102.002 51.4722 101.857 51.5473 101.717 51.6274C101.577 51.7074 101.433 51.7811 101.397 51.791C101.34 51.8067 101.076 51.9129 100.877 52.0004C100.841 52.0161 100.732 52.0602 100.634 52.0984C100.535 52.1367 100.375 52.2018 100.276 52.2432L100.098 52.3185L99.4002 52.4874C99.0166 52.5803 98.6621 52.6773 98.6125 52.7029L98.5224 52.7496L98.2387 52.7957C97.9926 52.8358 96.8764 52.9186 96.762 52.9053C96.7397 52.9027 96.5765 52.8896 96.3995 52.8762ZM62.7454 52.7135C62.0325 52.6641 61.1109 52.5453 60.8624 52.4707C60.782 52.4466 60.6506 52.4173 60.5702 52.4056C60.3729 52.3767 60.0982 52.302 59.9209 52.229C59.8405 52.1959 59.6798 52.1304 59.5638 52.0834C59.3618 52.0016 59.2548 51.9506 59.0768 51.8508C59.0321 51.8257 58.9298 51.7755 58.8495 51.7392C58.7691 51.7028 58.623 51.6234 58.5248 51.5626C58.4266 51.5018 58.2586 51.4056 58.1515 51.3488C57.7097 51.1148 57.6088 51.0533 56.9205 50.598L56.3983 50.2526L56.171 50.0498C56.046 49.9383 55.8978 49.8115 55.8416 49.7682C55.7854 49.7248 55.5881 49.5041 55.4033 49.2777C55.2184 49.0513 54.9795 48.7695 54.8724 48.6515C54.7652 48.5335 54.6191 48.3521 54.5477 48.2484C54.4763 48.1447 54.3485 47.9752 54.2636 47.8717C54.0306 47.5872 54.0419 47.5686 54.3567 47.7173C54.5736 47.8198 54.6329 47.8554 55.0858 48.1537C55.2032 48.231 55.307 48.2943 55.3165 48.2943C55.326 48.2943 55.4565 48.3648 55.6063 48.4511C55.9677 48.6589 56.8823 49.1069 56.9453 49.1069C56.9727 49.1069 57.0034 49.1204 57.0136 49.1369C57.0238 49.1534 57.1305 49.1992 57.2509 49.2387C57.3712 49.2783 57.4843 49.3213 57.5021 49.3343C57.52 49.3473 57.5784 49.3684 57.632 49.381C57.6856 49.3936 57.7878 49.4308 57.8593 49.4635C57.9988 49.5275 58.6385 49.731 59.3365 49.9334C59.5398 49.9924 60.5697 50.1979 60.9111 50.2476C61.0361 50.2658 61.2991 50.3019 61.4955 50.3277C61.6919 50.3535 61.9622 50.3963 62.0961 50.4228C62.23 50.4492 62.4346 50.4857 62.5506 50.5039C62.6667 50.5222 62.9005 50.5607 63.0701 50.5895L63.3785 50.642L63.7681 50.6584L64.1577 50.6749L64.5879 50.6325L65.0181 50.5901V50.522V50.454L64.8468 50.2762C64.7525 50.1784 64.4786 49.893 64.238 49.642L63.8006 49.1857L63.6145 48.8402L63.4284 48.4946L63.3272 48.1263C63.2151 47.7183 63.0529 47.099 62.8137 46.1652C62.5989 45.3269 62.1934 44.1304 62.1047 44.0731C62.0871 44.0617 62.0648 44.0085 62.0553 43.9549C61.9864 43.5681 61.6135 42.8496 61.3129 42.5247C61.1833 42.3845 61.1227 42.2897 60.9422 41.9444C60.7982 41.6689 60.8055 41.6616 61.0946 41.791L61.3283 41.8956L61.5414 42.0476L61.7546 42.1996L62.053 42.5084C62.2171 42.6783 62.4436 42.9196 62.5562 43.0447C62.6688 43.1699 62.8168 43.3258 62.8852 43.3911C62.9535 43.4565 63.0519 43.5772 63.1039 43.6593C63.156 43.7414 63.2098 43.8088 63.2236 43.8089C63.2749 43.8096 64.3688 45.2483 64.3688 45.3151C64.3688 45.3338 64.4025 45.3864 64.4437 45.4321C64.485 45.4778 64.5998 45.6541 64.6989 45.8239C65.1261 46.5563 65.1328 46.5675 65.3134 46.8478L65.46 47.0754L66.0516 48.2692L66.6433 49.463L66.7641 49.6384C66.8305 49.7349 66.9453 49.8998 67.0191 50.0048L67.1534 50.1959L67.3827 50.4071C67.7467 50.7426 68.2627 51.1222 68.3547 51.1222C68.3704 51.1222 68.4165 51.1576 68.457 51.2009C68.4976 51.2441 68.5769 51.2977 68.6332 51.3199C68.6894 51.3421 68.7647 51.3858 68.8004 51.4169C68.9676 51.5626 69.5254 51.8029 69.8068 51.8505C69.8783 51.8625 70.074 51.9034 70.2418 51.9413L70.5468 52.0101L70.4964 52.047L70.4459 52.0839L70.1264 52.0751L69.8068 52.0663L69.5309 52.0984C69.3791 52.1161 68.9627 52.1454 68.6056 52.1636C67.6735 52.211 67.1486 52.2743 66.9985 52.3573L66.9174 52.4022L66.5602 52.4263C66.3638 52.4396 66.0935 52.4669 65.9596 52.487C65.0174 52.6281 64.7769 52.6585 64.2714 52.7L63.7032 52.7466L63.3948 52.7419C63.2251 52.7393 62.9329 52.7265 62.7454 52.7135ZM97.1272 50.2591C97.1272 50.2492 97.1933 50.1397 97.2742 50.0156C97.3551 49.8916 97.4319 49.7644 97.4449 49.7329C97.4805 49.6467 97.7062 49.3091 97.7437 49.2859C97.7617 49.2748 97.7765 49.2399 97.7765 49.2084V49.1511L97.8841 49.0234C98.257 48.5808 98.5822 47.8471 98.7159 47.1469L98.7829 46.7958V46.5186C98.7829 46.0565 98.8949 44.931 98.9766 44.5725C98.9929 44.501 99.0374 44.2962 99.0755 44.1174C99.1137 43.9386 99.1638 43.7339 99.187 43.6623C99.2102 43.5908 99.2555 43.4446 99.2876 43.3373L99.3461 43.1423L99.6165 42.5865C99.7651 42.2808 99.8868 42.02 99.8868 42.0069C99.8868 41.9938 99.9355 41.8998 99.995 41.7981C100.055 41.6964 100.114 41.5714 100.127 41.5203C100.139 41.4692 100.197 41.3525 100.255 41.2609C100.344 41.1204 100.69 40.4396 100.877 40.038C101.023 39.7225 101.319 39.1369 101.387 39.0304C101.415 38.9857 101.506 38.759 101.59 38.5266C101.674 38.2941 101.778 38.0137 101.821 37.9034C101.864 37.7931 101.9 37.6804 101.9 37.653C101.9 37.6256 101.913 37.5696 101.93 37.5286C101.961 37.4516 102.052 37.1436 102.21 36.5762C102.26 36.3975 102.314 36.224 102.33 36.1908L102.36 36.1305L102.391 36.1614L102.422 36.1924L102.457 36.6119L102.492 37.0313L102.472 38.299C102.45 39.7022 102.406 40.578 102.335 41.0457C102.309 41.2155 102.253 41.5885 102.211 41.8746C102.13 42.4223 102.037 42.8265 101.931 43.0963C101.896 43.1855 101.867 43.2835 101.867 43.3141C101.867 43.3447 101.831 43.4429 101.787 43.5323C101.743 43.6217 101.706 43.7133 101.706 43.7359C101.705 43.7585 101.691 43.8024 101.673 43.8334C101.607 43.9536 101.436 44.383 101.412 44.4912C101.398 44.5538 101.341 44.7805 101.285 44.995L101.183 45.3851L101.192 45.4826L101.202 45.5801L101.276 45.5907L101.351 45.6013L101.601 45.4974C101.973 45.3427 102.148 45.2493 102.435 45.0512C102.681 44.8819 102.743 44.8338 103.077 44.5552C103.153 44.492 103.273 44.4025 103.344 44.3563C103.416 44.3101 103.674 44.1397 103.918 43.9775C104.162 43.8154 104.411 43.6578 104.47 43.6274C104.53 43.5969 104.719 43.4803 104.891 43.3682C105.063 43.2561 105.245 43.1405 105.297 43.1114C105.348 43.0823 105.448 43.0149 105.52 42.9616C105.591 42.9082 105.715 42.8277 105.796 42.7826C105.876 42.7375 105.997 42.6691 106.065 42.6306C106.133 42.5921 106.259 42.5013 106.347 42.4288C106.434 42.3564 106.56 42.2606 106.625 42.2159C106.691 42.1712 106.805 42.0802 106.879 42.0136C106.953 41.9471 107.137 41.7901 107.289 41.6647C107.778 41.2606 108.27 40.7868 108.539 40.4614C108.915 40.0065 108.966 39.9421 109.075 39.7954C109.137 39.7108 109.229 39.5955 109.278 39.5392C109.471 39.3193 109.722 38.9787 109.797 38.8374C109.84 38.7558 109.909 38.6333 109.95 38.5651L110.025 38.4412L110.057 38.4729L110.089 38.5047L110.074 38.8569L110.059 39.2092L109.954 39.5342C109.897 39.713 109.819 39.925 109.783 40.0053C109.71 40.1657 109.616 40.448 109.579 40.619C109.566 40.6793 109.528 40.7747 109.495 40.831C109.461 40.8872 109.414 40.9915 109.388 41.0626C109.28 41.3657 108.587 42.7925 108.418 43.06C108.344 43.1767 108.243 43.3527 108.193 43.4511C108.144 43.5494 108.037 43.7322 107.957 43.8574C107.876 43.9825 107.774 44.1521 107.73 44.2341C107.686 44.3162 107.568 44.5063 107.468 44.6567L107.285 44.93L106.958 45.2812C106.601 45.6651 106.167 46.0595 105.878 46.2627C105.776 46.3343 105.639 46.4374 105.574 46.4919C105.508 46.5465 105.382 46.6426 105.292 46.7054C105.203 46.7683 105.054 46.8736 104.96 46.9394C104.866 47.0053 104.782 47.0591 104.773 47.0591C104.757 47.0591 104.482 47.2301 104.3 47.3534C104.129 47.469 102.356 48.3432 102.062 48.4564C102 48.4805 101.933 48.512 101.914 48.5264C101.853 48.5723 100.918 48.8716 100.666 48.9261C100.097 49.0489 99.2437 49.2921 98.7667 49.4677C98.4078 49.5998 98.1846 49.6941 98.1384 49.7332C98.0401 49.8165 97.2062 50.2771 97.1539 50.2771C97.1392 50.2771 97.1272 50.269 97.1272 50.2591ZM61.9987 48.5311C61.7517 48.4188 61.6758 48.3914 61.4759 48.3419C61.3617 48.3136 61.1806 48.2687 61.0734 48.2419C60.9663 48.2152 60.7106 48.1722 60.5053 48.1463C60.1284 48.0989 59.7483 48.0357 59.4501 47.971C59.3608 47.9516 59.0979 47.8993 58.8657 47.8547C58.6336 47.81 58.2728 47.7309 58.064 47.6788L57.6844 47.5841L57.3996 47.4679C57.243 47.404 57.0922 47.3517 57.0645 47.3517C57.0133 47.3517 56.1928 46.945 55.9275 46.7882C55.8472 46.7407 55.6865 46.6486 55.5704 46.5836C55.4543 46.5185 55.3009 46.4274 55.2295 46.3809C55.1581 46.3345 55.0485 46.2729 54.986 46.244C54.9235 46.2152 54.8286 46.1553 54.775 46.1111C54.7214 46.0668 54.5826 45.9741 54.4666 45.9052C54.3505 45.8362 54.2117 45.7451 54.1581 45.7027C53.9744 45.5572 53.7887 45.4175 53.6062 45.2876C53.2459 45.0312 52.8203 44.6661 52.4293 44.278L52.0316 43.8833V43.8418C52.0316 43.8189 51.987 43.7473 51.9325 43.6825C51.7289 43.4405 51.4563 43.0719 51.3647 42.9147C51.3126 42.8253 51.181 42.6206 51.0722 42.4597C50.8625 42.1496 50.6069 41.6681 50.5373 41.4523C50.5143 41.381 50.451 41.2503 50.3966 41.1618L50.2977 41.0009L50.1414 40.5438C49.9478 39.9778 49.7503 39.2904 49.66 38.868L49.5915 38.5476L49.6022 38.4727L49.6129 38.3979L49.7592 38.5922C49.8397 38.6991 49.94 38.8232 49.9822 38.8679C50.0597 38.95 50.2638 39.215 50.5149 39.5596C50.5902 39.663 50.8177 39.9524 51.0206 40.2028L51.3894 40.658L51.5191 40.7624C51.5905 40.8199 51.7824 40.9847 51.9457 41.1286C52.2143 41.3653 52.6777 41.7558 53.0411 42.0516C53.1167 42.1132 53.2948 42.2335 53.4368 42.3189C53.5787 42.4043 53.7115 42.4877 53.7317 42.5042C53.752 42.5206 53.8416 42.574 53.9309 42.6227C54.0201 42.6715 54.1577 42.7608 54.2365 42.8212C54.3153 42.8816 54.3975 42.931 54.4192 42.931C54.4409 42.931 54.4751 42.9509 54.4953 42.9753C54.5437 43.0336 54.9576 43.2724 55.3435 43.4646L55.6523 43.6184L55.8369 43.7903C55.9384 43.8849 56.0861 44.0118 56.1652 44.0724C56.2443 44.1329 56.4556 44.2948 56.6347 44.4321C57.1361 44.8165 57.3682 44.9717 57.5473 45.0424C57.6376 45.078 57.7374 45.1206 57.7691 45.137C57.8733 45.1908 58.1876 45.2713 58.2933 45.2713H58.397L58.4162 45.2212L58.4355 45.171L58.347 44.6605C58.2984 44.3797 58.2317 44.0622 58.1987 43.9549C58.1416 43.7686 58.0775 43.508 58.0108 43.191C57.9939 43.1106 57.9582 42.957 57.9315 42.8497C57.9048 42.7425 57.8595 42.5504 57.8307 42.4229L57.7783 42.1912L57.7423 41.6266L57.7062 41.0619L57.7063 39.8219L57.7063 38.5819L57.7776 38.4854L57.8489 38.3889L57.8489 37.7426L57.849 37.0963L57.7475 36.6778C57.6918 36.4475 57.6313 36.2315 57.6132 36.1976L57.5803 36.1361L57.6 36.1041L57.6198 36.0721L57.7471 36.1779C57.8171 36.2361 57.8746 36.2968 57.8749 36.3129C57.8752 36.3289 57.9241 36.402 57.9834 36.4754C58.0428 36.5487 58.1014 36.6307 58.1138 36.6575C58.1262 36.6843 58.1788 36.7721 58.2307 36.8525C58.3791 37.0822 58.9513 38.2459 58.998 38.4128C59.0105 38.4575 59.048 38.5289 59.0812 38.5716C59.1145 38.6142 59.1417 38.6663 59.1417 38.6874C59.1417 38.7084 59.1709 38.7862 59.2066 38.8602C59.2423 38.9342 59.2716 39.018 59.2716 39.0465C59.2716 39.0749 59.3214 39.2329 59.3823 39.3975C59.5906 39.9604 59.6005 39.9981 59.694 40.5862C59.7121 40.7 59.7328 40.8028 59.7401 40.8146C59.753 40.8355 59.8211 41.3445 59.8906 41.9396C59.9094 42.1005 59.96 42.4369 60.003 42.6872C60.046 42.9375 60.0969 43.3397 60.1161 43.5811C60.1352 43.8224 60.1733 44.1808 60.2006 44.3775L60.2503 44.735L60.3431 45.0763C60.4863 45.6027 60.6603 46.1135 60.7523 46.277C60.7981 46.3586 60.9012 46.5789 60.9814 46.7666C61.0615 46.9543 61.154 47.1371 61.1869 47.1729C61.2198 47.2086 61.2953 47.3334 61.3548 47.4501C61.4143 47.5668 61.5215 47.7392 61.5929 47.8331C61.8418 48.1605 62.1021 48.4735 62.1719 48.5292L62.2422 48.5854L62.1773 48.584C62.1416 48.5833 62.0612 48.5595 61.9987 48.5311ZM68.2735 44.4626C68.0904 44.3177 67.9256 44.1205 67.8739 43.9842L67.8383 43.8903V43.3515V42.8127L67.9076 42.541C68.128 41.6767 68.8792 41.2955 70.2873 41.3336L70.6055 41.3422L70.7809 41.3057L70.9563 41.2693L71.0147 41.2996L71.073 41.3299L71.3977 41.3535C71.817 41.384 71.8478 41.3874 72.2905 41.4497C72.4959 41.4786 72.7296 41.5098 72.81 41.519C72.8903 41.5282 73.0072 41.543 73.0697 41.552C73.1322 41.5609 73.234 41.5685 73.2958 41.5688L73.4083 41.5694L73.4438 41.5989L73.4793 41.6284L73.8345 41.6475C74.0299 41.658 74.3429 41.6815 74.5301 41.6997L74.8704 41.7328L75.5041 41.6788L76.1378 41.6247L76.1702 41.5996C76.1881 41.5857 76.283 41.5643 76.3813 41.552C76.4795 41.5397 76.7203 41.4936 76.9165 41.4495L77.2731 41.3693L77.5983 41.2177L77.9234 41.0661L78.0779 40.934L78.2324 40.8019L78.2852 40.6637L78.3381 40.5255L78.2963 40.3285L78.2546 40.1316L78.1345 39.9304C78.0684 39.8198 77.9889 39.6561 77.9579 39.5667C77.9268 39.4773 77.8874 39.3776 77.8702 39.3451L77.839 39.2861L77.837 38.8703L77.835 38.4545L77.8668 38.393C77.8843 38.3592 77.9091 38.273 77.922 38.2015C77.9533 38.0274 78.128 37.6542 78.272 37.4539L78.3888 37.2914L78.5782 37.1378C78.6823 37.0533 78.8033 36.9565 78.847 36.9226L78.9264 36.861L78.8708 36.6699C78.809 36.4574 78.6457 35.7902 78.4738 35.0485C78.2993 34.2954 78.2707 34.1544 78.2461 33.9271C78.2336 33.8109 78.2142 33.7012 78.2032 33.6833C78.1792 33.6445 78.1762 33.5835 78.1492 32.5781L78.1282 31.798L78.1622 31.6355C78.1809 31.5461 78.2244 31.2974 78.2589 31.0829C78.3283 30.652 78.4143 30.3143 78.5612 29.8965C78.8452 29.0886 78.9246 28.8382 79.0096 28.4825C79.1037 28.0888 79.1878 27.5109 79.1729 27.3611C79.1685 27.3164 79.1673 27.2506 79.1702 27.2148C79.1731 27.179 79.1835 27.0283 79.1932 26.8799L79.2108 26.61L79.1739 26.5654L79.137 26.5209L79.1559 26.4128L79.1747 26.3047L79.1403 26.1259C79.1213 26.0276 79.092 25.874 79.0751 25.7846C79.0437 25.618 78.9592 25.3722 78.7177 24.7444C78.5138 24.2146 78.2521 23.2335 78.2147 22.8591C78.2075 22.7876 78.1922 22.6706 78.1807 22.5991C78.156 22.4467 78.1559 20.6338 78.1804 20.3725C78.1896 20.2742 78.206 20.1425 78.2167 20.0799C78.3024 19.5821 78.371 19.2237 78.4098 19.0723C78.8417 17.3859 79.0931 16.275 79.1302 15.8895C79.1398 15.7897 79.1551 15.6349 79.1642 15.5455C79.1796 15.3944 79.1958 15.1163 79.2143 14.6841L79.2219 14.5053L77.9089 14.4891L76.5958 14.4728L76.4449 14.0933L76.294 13.7138L76.1528 13.4758L76.0115 13.2377L75.7986 13.0334L75.5857 12.8292L75.3895 12.7316L75.1933 12.634L74.8863 12.5671C74.7175 12.5303 74.5136 12.4905 74.4333 12.4786L74.2872 12.457L73.3619 12.4671C72.853 12.4726 72.4085 12.4771 72.3742 12.4771C72.3399 12.477 72.1573 12.4989 71.9684 12.5257C71.7795 12.5526 71.5789 12.5798 71.5225 12.5862C71.4662 12.5926 71.342 12.6134 71.2465 12.6323C71.1511 12.6512 70.7589 12.7042 70.375 12.7501C69.9911 12.7959 69.5794 12.8498 69.4601 12.8697L69.2433 12.9059L68.6647 12.8797C68.3465 12.8653 67.9473 12.8477 67.7777 12.8405C67.0092 12.8078 66.8399 12.7986 66.6531 12.7789L66.4537 12.7579L66.2716 12.7807L66.0895 12.8035V12.9275V13.0514L66.3837 13.8109C66.5456 14.2286 66.7124 14.6581 66.7545 14.7654C66.7966 14.8726 66.9356 15.231 67.0634 15.5618C67.2808 16.1245 67.8432 17.5715 68.0867 18.1947C68.1461 18.3466 68.2481 18.6099 68.3134 18.7798C68.6017 19.5299 68.6679 19.6977 68.8326 20.0962C68.9287 20.3286 69.1312 20.8406 69.2826 21.2339C69.434 21.6272 69.6547 22.1977 69.773 22.5016C69.8914 22.8055 70.053 23.2224 70.1323 23.428C70.2115 23.6336 70.3873 24.087 70.5229 24.4356C70.6585 24.7842 70.8203 25.2011 70.8825 25.362C70.9447 25.5229 71.016 25.7058 71.041 25.7683C71.066 25.8309 71.1761 26.1161 71.2857 26.4022C71.3953 26.6882 71.5192 27.01 71.5609 27.1173C71.6026 27.2246 71.6903 27.4513 71.7558 27.6211C71.8213 27.791 71.9701 28.1713 72.0864 28.4662C72.3594 29.1589 72.5892 29.7613 72.7434 30.189C72.8111 30.3767 72.9352 30.6912 73.0193 30.8879L73.1721 31.2454L73.2381 31.3163L73.304 31.3872L73.4352 31.4094C73.5697 31.4321 73.7498 31.4979 73.7908 31.5392L73.8138 31.5625L73.7659 31.6553C73.6514 31.877 73.1376 32.4482 72.6171 32.9324C72.3654 33.1666 71.6193 33.6915 71.2678 33.8817C70.9523 34.0525 70.2637 34.3683 70.0016 34.4624C69.9124 34.4945 69.8254 34.5334 69.8085 34.549C69.7915 34.5645 69.7511 34.5772 69.7187 34.5772C69.6864 34.5772 69.6345 34.5917 69.6035 34.6095C69.5456 34.6426 68.8574 34.8565 68.6543 34.9044C68.0398 35.0495 67.2709 35.1865 66.9336 35.2109C66.2217 35.2625 65.7036 35.273 65.1703 35.2467L64.8518 35.231L64.7406 35.1943L64.6295 35.1576L64.5594 35.1798L64.4893 35.2021L64.3722 35.1675C64.3078 35.1485 64.0828 35.1099 63.8722 35.0816C63.4381 35.0234 62.9047 34.9226 62.6643 34.8534C62.575 34.8277 62.3924 34.7759 62.2584 34.7383C61.7805 34.6042 61.4832 34.4913 60.976 34.2515C60.1479 33.8599 59.5148 33.3805 58.4717 32.3548L57.914 31.8064L57.8546 31.6961L57.7953 31.5858L57.8307 31.5294L57.8661 31.473L58.0088 31.4204L58.1515 31.3678L58.2242 31.2416C58.2642 31.1722 58.3649 30.9399 58.448 30.7253C58.5311 30.5108 58.6618 30.1744 58.7383 29.9777C58.8149 29.7811 59.0628 29.1375 59.2892 28.5475C59.5156 27.9575 59.7661 27.3066 59.8459 27.101C59.9256 26.8954 60.0173 26.6541 60.0495 26.5647C60.0817 26.4753 60.1241 26.3656 60.1437 26.3209C60.1632 26.2762 60.4007 25.6619 60.6713 24.9557C60.9419 24.2495 61.2059 23.5621 61.2581 23.428C61.3102 23.2939 61.4165 23.016 61.4943 22.8104C61.6844 22.3076 62.0754 21.2858 62.3214 20.6488C62.4319 20.3627 62.6011 19.9239 62.6975 19.6736C62.7939 19.4233 62.9699 18.9699 63.0886 18.666C63.2073 18.3621 63.3311 18.0403 63.3636 17.9509C63.3962 17.8615 63.4874 17.6201 63.5663 17.4145C63.9137 16.5099 64.3576 15.3568 64.4736 15.0579C64.543 14.8791 64.6413 14.6232 64.692 14.4891C64.7427 14.355 64.9025 13.9343 65.0472 13.5542L65.3103 12.8631V12.772V12.681L65.221 12.5991C65.1166 12.5035 64.8802 12.3862 64.5098 12.2463C64.2107 12.1334 64.064 12.0432 63.9677 11.913L63.9015 11.8236L64.0134 11.7066L64.1253 11.5895L64.3569 11.6063L64.5885 11.6231L64.6877 11.6745C64.7423 11.7027 64.9376 11.7642 65.1217 11.8111L65.4564 11.8963L65.7486 11.872C65.9093 11.8586 66.1065 11.8434 66.1869 11.8382C66.584 11.8126 67.5001 11.6217 67.8102 11.5C67.8905 11.4684 68.2631 11.339 68.6381 11.2124C69.4091 10.9521 69.8267 10.8032 69.9692 10.7379C70.0227 10.7133 70.1615 10.6607 70.2776 10.621C70.3937 10.5812 70.7151 10.4693 70.9919 10.3723C71.2686 10.2753 71.5608 10.1765 71.6412 10.1529C71.7215 10.1292 71.8457 10.0848 71.9172 10.0542C72.1221 9.96638 72.5968 9.84548 73.021 9.77308C73.2353 9.73651 73.4545 9.69327 73.5082 9.67698L73.6058 9.64736L73.7208 9.66604L73.8357 9.68472L73.9601 9.63271L74.0844 9.5807L74.2052 9.61693L74.326 9.65317L74.5988 9.63159C74.7488 9.61971 74.9373 9.61136 75.0177 9.61302C75.4267 9.62146 75.6581 9.63655 75.7264 9.65923C75.768 9.67305 75.8702 9.68903 75.9536 9.69475C76.5598 9.7363 76.8075 9.796 77.4202 10.0482L77.6637 10.1484L77.8616 10.2836C77.9705 10.3579 78.1308 10.4881 78.2179 10.5728C78.305 10.6576 78.4312 10.7616 78.4982 10.804L78.6201 10.881H78.6842C78.7194 10.881 78.7854 10.898 78.8309 10.9187L78.9136 10.9565L79.0479 10.9121L79.1822 10.8677L79.2265 10.7616L79.2707 10.6556V10.3647V10.0738L79.2073 9.92571C79.1725 9.84427 79.098 9.60536 79.0419 9.39481C78.9857 9.18426 78.903 8.88204 78.8581 8.7232L78.7764 8.43441L78.7922 8.31689C78.8008 8.25225 78.8752 8.00921 78.9575 7.7768C79.0397 7.54439 79.1881 7.1202 79.2872 6.83416C79.7059 5.62609 79.8357 5.27137 79.8751 5.22795L79.9168 5.18199L79.9659 5.22276C79.9929 5.24519 80.0246 5.29512 80.0364 5.33374C80.0482 5.37235 80.1059 5.52827 80.1645 5.68023C80.2232 5.83219 80.4692 6.48644 80.7111 7.13411L81.151 8.3117L81.0536 8.64559C81.0001 8.82924 80.9065 9.1477 80.8457 9.3533C80.7849 9.55889 80.6964 9.85875 80.6491 10.0196L80.563 10.3122L80.5813 10.4697L80.5995 10.6273L80.6589 10.7289L80.7182 10.8306L80.826 10.8616L80.9338 10.8925L81.1302 10.8519L81.3266 10.8113L81.4918 10.7052C81.5827 10.6468 81.7114 10.5386 81.7779 10.4646L81.8988 10.3301L82.1351 10.2107C82.265 10.1451 82.4735 10.0579 82.5985 10.017C82.7235 9.97615 82.8696 9.92782 82.9232 9.90963C83.1534 9.83143 83.3909 9.7769 83.5725 9.76056C83.6797 9.75092 83.8769 9.72699 84.0108 9.70738C84.1447 9.68778 84.3378 9.67324 84.4398 9.67507L84.6252 9.6784L84.7753 9.62739L84.9254 9.57639L85.0249 9.61111L85.1244 9.64584H85.3814H85.6384L85.7041 9.61061L85.7699 9.57539L85.8725 9.61814L85.975 9.66089L86.1536 9.66732C86.611 9.68378 87.3832 9.85893 88.134 10.1166C88.3751 10.1993 88.6161 10.2799 88.6697 10.2957C88.7233 10.3115 88.9132 10.3774 89.0918 10.4422C89.2703 10.5069 89.526 10.5971 89.6599 10.6426C89.7939 10.6881 89.9293 10.7391 89.961 10.7559C90.0908 10.8251 92.113 11.5162 92.4358 11.6017C92.6916 11.6695 93.2963 11.7887 93.4041 11.7926C93.5123 11.7965 93.7986 11.8237 94.1484 11.8633L94.465 11.8991L94.603 11.8601C94.6788 11.8387 94.8505 11.7844 94.9844 11.7394C95.1183 11.6945 95.2885 11.643 95.3625 11.625L95.4972 11.5923L95.6547 11.6024L95.8123 11.6124L95.8404 11.7263L95.8685 11.8402L95.8188 11.9594L95.769 12.0787L95.6888 12.1313C95.6447 12.1602 95.4499 12.2428 95.2559 12.3148C94.7806 12.4912 94.5925 12.5687 94.5055 12.6239L94.4325 12.6703V12.7343C94.4325 12.7694 94.493 12.9556 94.5669 13.148C94.6409 13.3403 94.7631 13.6586 94.8385 13.8552C94.9139 14.0519 95.1987 14.7906 95.4714 15.4967C96.0684 17.0427 96.6567 18.5692 96.9872 19.4299C97.121 19.7785 97.3008 20.2465 97.3866 20.47C97.4724 20.6935 97.6113 21.0519 97.6953 21.2664C97.7792 21.4809 97.9399 21.8978 98.0524 22.1928C98.1649 22.4878 98.4495 23.2264 98.6848 23.8343C98.92 24.4421 99.2301 25.2466 99.3737 25.6221C99.5173 25.9975 99.6746 26.4071 99.7232 26.5322C100.136 27.5948 100.274 27.9513 100.407 28.3037C100.492 28.5272 100.644 28.9221 100.746 29.1814C100.848 29.4406 101.056 29.9818 101.208 30.384C101.36 30.7863 101.516 31.1804 101.554 31.2598L101.624 31.4041L101.706 31.4638L101.788 31.5234L101.917 31.5416C101.988 31.5516 102.065 31.5656 102.088 31.5727L102.129 31.5856L102.08 31.6806C101.942 31.9476 101.226 32.7152 100.844 33.0065C100.443 33.3112 99.9349 33.6494 99.6595 33.7945C99.5435 33.8556 99.3974 33.9363 99.3349 33.9737C99.125 34.0995 98.465 34.3815 98.1499 34.48C98.0784 34.5024 98.0051 34.5324 97.9869 34.5467C97.9549 34.5718 97.0504 34.8446 96.7863 34.9088C96.7148 34.9261 96.6272 34.9535 96.5915 34.9696C96.5094 35.0067 95.6598 35.1623 95.5396 35.1623C95.4902 35.1623 95.4388 35.1733 95.4254 35.1867C95.412 35.2001 95.3328 35.214 95.2495 35.2175C95.1662 35.2211 94.9738 35.2322 94.8221 35.2421C94.4746 35.2649 93.9367 35.2644 93.4747 35.2407C93.2783 35.2307 93.0445 35.2189 92.9553 35.2145C92.866 35.2102 92.7564 35.1905 92.7118 35.1708C92.6671 35.1511 92.4991 35.1187 92.3384 35.0989C91.8683 35.0409 91.1075 34.8872 91.0398 34.8366C91.0219 34.8233 90.9016 34.7886 90.7725 34.7595C90.6433 34.7305 90.4899 34.6858 90.4316 34.6602C90.3732 34.6346 90.1502 34.5405 89.9359 34.451C89.589 34.3061 89.1783 34.1004 88.9457 33.9549C88.901 33.927 88.7038 33.8042 88.5074 33.6821C88.311 33.56 88.0918 33.4147 88.0204 33.3592C87.949 33.3038 87.8467 33.2308 87.7931 33.1972C87.5766 33.0611 86.6604 32.2521 86.2916 31.8712L86.0237 31.5947V31.5461V31.4976L86.2175 31.4757C86.3241 31.4636 86.4184 31.4422 86.4271 31.4281L86.4429 31.4025L86.5355 31.4161L86.628 31.4297L86.6618 31.3863C86.6979 31.34 86.8735 30.9101 87.0271 30.4925C87.1482 30.163 87.2694 29.8457 87.5342 29.1651C87.6524 28.8612 87.7986 28.4809 87.8591 28.32C88.0249 27.8786 88.2356 27.3348 88.451 26.7922C88.5575 26.5241 88.6555 26.2681 88.6687 26.2234C88.682 26.1787 88.7705 25.9374 88.8655 25.6871C88.9604 25.4368 89.1794 24.859 89.352 24.4031C89.5247 23.9472 89.7368 23.3914 89.8235 23.1679C89.9102 22.9445 90.0556 22.5665 90.1466 22.3281C90.2377 22.0897 90.326 21.8703 90.3429 21.8405C90.3597 21.8108 90.506 21.4354 90.6679 21.0063C90.8298 20.5773 91.0108 20.1019 91.0702 19.9499C91.1295 19.798 91.2174 19.5639 91.2655 19.4299C91.3136 19.2958 91.453 18.9301 91.5753 18.6172C91.6976 18.3044 91.8592 17.8875 91.9344 17.6908C92.0096 17.4942 92.1361 17.1663 92.2155 16.9622C92.2948 16.7581 92.4229 16.4217 92.5 16.2146C92.5771 16.0075 92.6558 15.8015 92.6748 15.7568C92.7167 15.6586 93.5685 13.4194 93.691 13.0855L93.723 12.9984L93.7125 12.9086L93.702 12.8188L93.5884 12.7892L93.4747 12.7595L93.2312 12.7784C93.0973 12.7888 92.8562 12.8037 92.6955 12.8114C92.5348 12.8192 92.2061 12.8365 91.965 12.8499C91.724 12.8633 91.293 12.8751 91.0073 12.876L90.4878 12.8778L89.9197 12.8093C89.6072 12.7716 89.3296 12.7393 89.3028 12.7375C89.276 12.7357 88.8743 12.6818 88.41 12.6177L87.5659 12.5012L86.5919 12.4764L85.6179 12.4515L85.4556 12.4765C85.3663 12.4902 85.1766 12.5186 85.0339 12.5397L84.7747 12.5781L84.5651 12.6803L84.3555 12.7826L84.1857 12.9379L84.0158 13.0933L83.8453 13.3594C83.7516 13.5057 83.59 13.8045 83.4862 14.0234L83.2975 14.4213L83.2342 14.4552L83.171 14.4891H81.9533H80.7356L80.7124 14.5267C80.6996 14.5473 80.6827 14.7411 80.6747 14.9573C80.6618 15.308 80.66 15.4665 80.6649 15.8055C80.6734 16.3995 80.9041 17.3741 81.292 18.4547C81.7058 19.6073 81.7948 20.0938 81.8004 21.2339L81.8036 21.884L81.7715 22.1115C81.7045 22.5865 81.4944 23.4405 81.2036 24.4194C81.1611 24.5624 81.088 24.833 81.0411 25.0207C80.9942 25.2084 80.9356 25.4425 80.9109 25.5408C80.8863 25.6391 80.8519 25.8512 80.8346 26.0121C80.7992 26.3416 80.7996 26.3365 80.7766 26.82L80.7599 27.1729L80.7842 27.2264C80.7975 27.2558 80.8108 27.3749 80.8138 27.4911C80.8167 27.6073 80.8285 27.7755 80.8399 27.8649C80.8514 27.9543 80.8614 28.0688 80.8623 28.1194C80.8659 28.3344 81.2029 29.8396 81.2815 29.9916C81.296 30.0197 81.3404 30.1963 81.3801 30.384C81.4198 30.5718 81.4809 30.835 81.5159 30.9691C81.5509 31.1032 81.5861 31.2934 81.5941 31.3917C81.6021 31.49 81.6261 31.6135 81.6475 31.6662L81.6863 31.7619L81.6868 32.6576L81.6872 33.5533L81.6614 33.7971C81.617 34.2156 81.6115 34.2649 81.5945 34.3984C81.5545 34.7116 81.2906 35.8883 81.1243 36.495C81.0876 36.6291 81.0572 36.7648 81.0569 36.7967L81.0564 36.8546L81.2937 37.0893C81.4242 37.2183 81.5992 37.4177 81.6825 37.5325L81.834 37.7411L81.9323 37.9774L82.0306 38.2137L82.068 38.5331L82.1054 38.8524L82.0699 39.092L82.0344 39.3315L81.9573 39.4816C81.9149 39.5642 81.8186 39.7309 81.7434 39.852L81.6065 40.0723L81.5558 40.2704L81.5051 40.4684L81.5243 40.5705L81.5434 40.6726L81.6801 40.8136L81.8168 40.9546L82.1764 41.129L82.5361 41.3034L83.0056 41.4525C83.2638 41.5345 83.5189 41.6169 83.5725 41.6356L83.6699 41.6696L84.2056 41.7043C85.002 41.756 86.4853 41.6939 86.6243 41.6032C86.6422 41.5916 86.7006 41.5792 86.7542 41.5757C86.8078 41.5723 86.8954 41.5614 86.949 41.5515C87.0026 41.5416 87.1048 41.5251 87.1763 41.5149C87.4528 41.4754 88.0258 41.3986 88.134 41.3865C88.6798 41.3255 88.9843 41.301 89.108 41.3082C89.2995 41.3194 89.5789 41.3212 89.7411 41.3124C89.9412 41.3016 90.5346 41.3982 90.9099 41.5026C91.097 41.5547 91.3734 41.6904 91.5485 41.8162L91.7001 41.9251L91.8105 42.0948C91.8713 42.1882 91.9466 42.3378 91.978 42.4272C92.0093 42.5165 92.0502 42.6212 92.0688 42.6597L92.1026 42.7298L92.0801 42.7661L92.0577 42.8024L92.1121 42.9663L92.1664 43.1302L92.1494 43.2338C92.14 43.2907 92.1158 43.4104 92.0956 43.4998C92.0754 43.5892 92.046 43.7286 92.0304 43.8096C92.0147 43.8905 91.9715 44.0383 91.9342 44.138L91.8665 44.3191L91.7572 44.4458L91.6478 44.5725L80.0405 44.5807L68.4332 44.589L68.2735 44.4626ZM71.9644 31.4256L72.047 31.4036L72.0567 31.291L72.0663 31.1784L71.884 30.7081C71.6709 30.1584 71.1764 28.9053 71.0892 28.6938C71.034 28.56 70.5421 27.279 70.3528 26.776C70.3091 26.6598 70.2532 26.5135 70.2286 26.4509C70.0524 26.0023 69.9393 25.7045 69.8272 25.3945C69.7562 25.1979 69.5276 24.5981 69.3194 24.0618C68.9498 23.1098 68.8693 22.905 68.6548 22.3716C68.5972 22.2285 68.508 22.0018 68.4565 21.8677C68.405 21.7336 68.2693 21.3826 68.1549 21.0876C68.0406 20.7926 67.9365 20.5147 67.9237 20.47C67.9044 20.4032 67.1671 18.4762 66.8851 17.7558C66.8157 17.5786 66.1532 15.8597 65.8642 15.1068L65.7456 14.7982L65.6984 14.79L65.6512 14.7818L65.1671 16.0575C64.9009 16.7592 64.6569 17.3991 64.6249 17.4796C64.5471 17.6749 64.2488 18.4545 64.1585 18.6985C64.1188 18.8058 63.9396 19.2738 63.7604 19.7386C63.4036 20.6638 62.9352 21.8909 62.6003 22.7779C62.4821 23.0907 62.3576 23.4136 62.3235 23.4954C62.2895 23.5771 62.193 23.8258 62.1092 24.0479C61.9569 24.4518 61.8855 24.6391 61.3732 25.9796C61.2229 26.3729 60.9211 27.1628 60.7025 27.7349C60.484 28.307 60.24 28.9433 60.1604 29.1489C59.9137 29.7855 59.6723 30.4172 59.5328 30.7904C59.4594 30.987 59.3773 31.197 59.3505 31.257L59.3018 31.3661L59.3342 31.4052L59.3667 31.4444L65.6243 31.446L71.8818 31.4475L71.9644 31.4256ZM100.59 31.4062L100.609 31.3557L100.559 31.2356C100.531 31.1695 100.45 30.9618 100.377 30.7741C100.22 30.3653 99.9416 29.6476 99.5133 28.5475C99.3393 28.1006 99.1344 27.574 99.058 27.3773C98.9815 27.1807 98.8387 26.815 98.7405 26.5647C98.5846 26.1671 97.8643 24.3171 97.6141 23.6718C97.3529 22.998 96.8805 21.7833 96.7862 21.5427C96.7267 21.3907 96.6124 21.0982 96.5323 20.8926C96.1452 19.8983 95.8976 19.2623 95.5201 18.2922C95.294 17.7111 94.9778 16.8993 94.8173 16.4881C94.6568 16.077 94.4443 15.5321 94.345 15.2773C94.1231 14.708 94.1282 14.7101 93.9743 15.1229C93.9276 15.2481 93.7766 15.643 93.6388 16.0006C93.501 16.3581 93.3184 16.8335 93.2332 17.057C93.1479 17.2805 92.9829 17.712 92.8665 18.0159C92.7501 18.3198 92.6007 18.7147 92.5344 18.8935C92.4682 19.0723 92.3933 19.2666 92.3681 19.3253C92.3428 19.3841 92.1165 19.9692 91.8652 20.6255C91.6138 21.2819 91.3602 21.9433 91.3016 22.0953C91.243 22.2472 91.1573 22.4739 91.1112 22.5991C91.0282 22.8243 90.6167 23.9078 90.1606 25.102C90.0308 25.4417 89.8636 25.8732 89.7889 26.0609C89.6536 26.4013 89.0799 27.9028 88.9321 28.3037C88.8892 28.4199 88.7808 28.7052 88.6911 28.9376C88.6014 29.17 88.4271 29.6234 88.3036 29.9452C88.1802 30.267 88.0111 30.7075 87.928 30.924C87.8449 31.1405 87.7769 31.3415 87.7769 31.3706V31.4237L89.5707 31.4323C90.5572 31.4371 93.4358 31.4445 95.9675 31.4489L100.571 31.4567L100.59 31.4062ZM56.1541 42.2494C55.5349 41.6097 55.1247 41.1703 55.0581 41.0751C55.0304 41.0354 54.8603 40.8544 54.6803 40.6729L54.3529 40.3428L54.1 40.1985C53.9609 40.1192 53.7941 40.0137 53.7294 39.9642C53.6646 39.9146 53.5739 39.8651 53.5278 39.8542C53.4816 39.8432 53.422 39.8156 53.3952 39.7927C53.3187 39.7275 53.0014 39.518 52.978 39.5173C52.9664 39.517 52.8369 39.4036 52.6902 39.2654C52.5435 39.1272 52.3701 38.9776 52.3048 38.9329C52.2395 38.8882 52.1362 38.8041 52.0753 38.746C52.0144 38.6879 51.95 38.6403 51.9324 38.6403C51.9147 38.6403 51.8281 38.5646 51.74 38.4721L51.5797 38.3038L51.419 38.2358L51.2582 38.1678L50.9169 37.8596C50.7292 37.6901 50.5669 37.5279 50.5562 37.4991C50.5455 37.4704 50.4749 37.3809 50.3994 37.3003C50.2515 37.1422 50.0187 36.8394 50.0187 36.8049C50.0187 36.7933 49.925 36.6623 49.8105 36.5138L49.6024 36.2437L49.4159 35.8899C49.3133 35.6953 49.1831 35.4483 49.1266 35.3411C49.07 35.2338 48.9962 35.0729 48.9625 34.9835C48.9289 34.8941 48.8761 34.7771 48.8453 34.7235C48.8145 34.6698 48.758 34.5455 48.7197 34.4472C48.6813 34.3488 48.6292 34.2453 48.6038 34.2171C48.5785 34.1889 48.5572 34.145 48.5566 34.1196C48.556 34.0942 48.5273 34.0149 48.4928 33.9433C48.4583 33.8718 48.4295 33.7895 48.4289 33.7604C48.4283 33.7313 48.4056 33.6542 48.3784 33.589C48.2267 33.2255 48.1107 32.3459 48.0828 31.3476L48.0607 30.5566L48.0989 30.533L48.137 30.5094L48.187 30.6336C48.2398 30.7648 48.5122 31.3414 48.5605 31.4242C48.5762 31.451 48.6264 31.5489 48.6722 31.6417C48.718 31.7345 48.8396 31.9247 48.9425 32.0643C49.0454 32.2039 49.1862 32.4205 49.2555 32.5456C49.4808 32.9527 49.6268 33.1559 49.9635 33.5313C50.1456 33.7343 50.3287 33.9577 50.3703 34.0278C50.4118 34.0978 50.4717 34.1689 50.5032 34.1858C50.5348 34.2027 50.6907 34.3664 50.8497 34.5496C51.0087 34.7327 51.3287 35.075 51.5608 35.31C51.793 35.5451 52.0925 35.8592 52.2264 36.0079C52.5493 36.3665 53.142 36.9617 53.3635 37.1497C53.4613 37.2327 53.662 37.4055 53.8095 37.5338L54.0777 37.7669L54.1666 37.7567L54.2555 37.7464L54.2952 37.6249C54.3497 37.4576 54.4012 37.0753 54.4343 36.5925C54.5215 35.3187 54.5918 34.7829 54.7457 34.2196C54.7921 34.0498 54.8511 33.8231 54.8769 33.7158C54.9274 33.5058 55.0471 33.1512 55.0854 33.0982C55.2296 32.8986 55.4715 31.7156 55.6007 30.5775C55.6384 30.246 55.6883 29.8811 55.7115 29.7668L55.7539 29.5589L55.7891 29.5472L55.8243 29.5354L55.9712 29.8378L56.1181 30.1403L56.139 30.2703C56.1732 30.4832 56.2847 30.9703 56.351 31.1967C56.4375 31.4921 56.5839 32.0815 56.674 32.4969L56.7128 32.6756L56.7418 33.277C56.7577 33.6077 56.7797 34.2806 56.7906 34.7722L56.8104 35.6661L56.7221 36.0887C56.6735 36.3211 56.6232 36.5771 56.6103 36.6575C56.5974 36.738 56.5623 36.8949 56.5324 37.0062C56.5025 37.1176 56.4622 37.2858 56.4428 37.3801C56.2703 38.2186 56.2692 38.2236 56.2231 38.3093L56.1826 38.3847L56.1542 38.7619L56.1258 39.1392L56.1554 39.6455C56.1972 40.3602 56.2144 40.5272 56.2877 40.9319C56.4119 41.6182 56.6128 42.4909 56.6719 42.6016C56.7125 42.6774 56.7178 42.7685 56.6817 42.7685C56.6679 42.7685 56.4305 42.5349 56.1541 42.2494ZM103.419 42.7494L103.401 42.7197L103.464 42.5409C103.559 42.2707 103.586 42.1652 103.658 41.7933C103.694 41.6056 103.766 41.2618 103.818 41.0294L103.912 40.6069L103.947 40.103C103.966 39.8259 103.993 39.4383 104.008 39.2417L104.035 38.8841L104.005 38.5266C103.976 38.189 103.906 37.7809 103.844 37.6002C103.829 37.5555 103.78 37.3361 103.735 37.1126C103.664 36.7602 103.593 36.469 103.374 35.6173C103.348 35.519 103.305 35.2192 103.278 34.951L103.229 34.4634L103.209 33.3745L103.189 32.2856L103.228 31.993C103.249 31.8321 103.282 31.642 103.3 31.5705C103.318 31.499 103.355 31.3527 103.381 31.2454C103.408 31.1382 103.449 30.9773 103.472 30.8879C103.495 30.7985 103.539 30.6303 103.569 30.5141C103.599 30.3979 103.662 30.1784 103.709 30.0265C103.756 29.8745 103.803 29.6917 103.813 29.6202L103.831 29.4902L103.864 29.5044C103.913 29.5259 104.065 29.9968 104.158 30.4165C104.204 30.6221 104.291 30.9949 104.353 31.2449L104.464 31.6994L104.562 31.8565C104.615 31.9429 104.659 32.0287 104.659 32.0471C104.659 32.0886 104.754 32.2634 104.824 32.3506C104.853 32.3864 104.963 32.5692 105.069 32.7569L105.261 33.0982L105.363 33.4233L105.466 33.7483L105.552 34.3009C105.6 34.6048 105.666 34.9778 105.699 35.1298L105.759 35.4061L105.795 35.8286C105.816 36.061 105.862 36.4121 105.9 36.6088L105.968 36.9663L106.016 37.0232L106.065 37.0801H106.138H106.211L106.42 36.8932C106.535 36.7904 106.693 36.6551 106.771 36.5925C106.987 36.4192 107.518 35.8703 107.65 35.6834C107.715 35.592 107.905 35.3741 108.073 35.199C108.24 35.024 108.479 34.7582 108.604 34.6083C108.729 34.4585 108.905 34.2549 108.995 34.1559C109.335 33.7829 109.627 33.4362 109.627 33.4062C109.627 33.3789 109.718 33.2682 110.04 32.9032C110.3 32.6093 110.405 32.4669 110.864 31.7898L111.079 31.473L111.123 31.3429C111.147 31.2714 111.201 31.1677 111.241 31.1123C111.282 31.057 111.315 30.9988 111.315 30.983C111.315 30.9671 111.368 30.8683 111.433 30.7634C111.548 30.5755 111.612 30.4274 111.744 30.0427C111.78 29.9355 111.822 29.8346 111.837 29.8186L111.863 29.7895L111.88 29.8674C111.895 29.9371 111.921 30.1516 111.981 30.7117L112 30.8932L111.948 31.3125L111.897 31.7319L111.846 31.8787C111.818 31.9595 111.788 32.1133 111.778 32.2206C111.769 32.3278 111.747 32.4429 111.73 32.4762C111.704 32.5248 111.47 33.3469 111.348 33.8133C111.334 33.867 111.277 34.0275 111.221 34.1701C111.166 34.3127 111.12 34.4421 111.12 34.4577C111.12 34.4732 111.089 34.5293 111.052 34.5823C111.014 34.6353 110.95 34.7702 110.909 34.8822C110.84 35.0735 110.798 35.1695 110.562 35.6741C110.51 35.7857 110.434 35.9173 110.393 35.9666C110.353 36.0159 110.311 36.08 110.3 36.1091C110.29 36.1383 110.189 36.2897 110.076 36.4456C109.963 36.6016 109.852 36.7633 109.829 36.8049C109.806 36.8466 109.705 36.9658 109.604 37.0698C109.503 37.1738 109.381 37.3183 109.333 37.391C109.25 37.5171 108.481 38.3153 108.442 38.3153C108.432 38.3153 108.26 38.4628 108.06 38.6431C107.859 38.8234 107.673 38.9797 107.646 38.9903C107.585 39.0145 107.282 39.2605 107.248 39.3127C107.234 39.3339 107.139 39.4027 107.035 39.4655C106.932 39.5284 106.821 39.6091 106.789 39.6449C106.756 39.6807 106.655 39.7489 106.563 39.7963C106.471 39.8437 106.367 39.9066 106.331 39.9359C106.296 39.9653 106.166 40.0405 106.044 40.103L105.822 40.2168L105.119 40.9157C104.732 41.3 104.343 41.7004 104.254 41.8053C104.164 41.9102 104.062 42.0284 104.026 42.0681C103.947 42.156 103.582 42.5924 103.497 42.7006L103.436 42.779L103.419 42.7494ZM53.1744 35.3183C53.153 35.2969 53.1354 35.2597 53.1354 35.2357C53.1354 35.1285 52.8047 34.6058 52.5833 34.3631C52.5166 34.2901 52.4347 34.1877 52.4013 34.1356C52.3678 34.0835 52.2856 33.9677 52.2186 33.8783C52.1516 33.7889 52.0967 33.7033 52.0967 33.688C52.0964 33.6344 51.7034 33.1549 51.1604 32.5456C51.1286 32.5099 51.0522 32.4148 50.9908 32.3343C50.9293 32.2539 50.8626 32.1774 50.8425 32.1643C50.7662 32.1148 50.3427 31.5876 50.2895 31.476C50.259 31.4117 50.2221 31.3592 50.2077 31.3592C50.1932 31.3592 50.1374 31.297 50.0836 31.221C50.0297 31.1451 49.9558 31.0463 49.9193 31.0016C49.8828 30.9569 49.7537 30.7814 49.6323 30.6116L49.4117 30.3028L49.1945 29.9008C49.0751 29.6797 48.9401 29.4091 48.8946 29.2994C48.8491 29.1898 48.7895 29.0652 48.7623 29.0226C48.6383 28.8284 48.4794 28.2293 48.2488 27.0863C48.202 26.8548 48.1559 26.6525 48.1463 26.6369C48.1367 26.6213 48.1088 26.4524 48.0843 26.2616L48.0398 25.9146L48.0199 25.297L48 24.6794L48.0711 24.1756C48.1102 23.8985 48.1532 23.5913 48.1666 23.493C48.18 23.3946 48.2159 23.1533 48.2464 22.9566L48.3017 22.5991L48.3648 22.4669C48.3995 22.3942 48.4278 22.324 48.4278 22.3108C48.4278 22.2873 48.4884 22.1458 48.6384 21.819C48.6795 21.7296 48.7218 21.6299 48.7325 21.5975L48.752 21.5386L48.7855 21.5593L48.819 21.58L48.7977 21.7407L48.7765 21.9014L48.8159 22.429L48.8553 22.9566L48.9339 23.4605C49.0842 24.4241 49.0982 24.4827 49.3347 25.1299C49.4252 25.3777 49.4992 25.5943 49.4992 25.6112C49.4992 25.6281 49.53 25.7096 49.5677 25.7923C49.6053 25.875 49.6579 26.0168 49.6846 26.1074C49.7113 26.198 49.7438 26.2868 49.7568 26.3047C49.7698 26.3225 49.8217 26.4615 49.8721 26.6135C49.9225 26.7654 49.9817 26.919 50.0036 26.9548C50.0255 26.9905 50.0532 27.0637 50.0652 27.1173C50.0771 27.1709 50.1796 27.405 50.2929 27.6374C50.4063 27.8698 50.5313 28.1404 50.5709 28.2387C50.6105 28.337 50.6842 28.5199 50.7347 28.645C50.7852 28.7702 50.8877 29.0481 50.9626 29.2626L51.0987 29.6527L51.1755 29.7446L51.2524 29.8364V29.8914C51.2524 29.9216 51.2894 30.001 51.3347 30.0677L51.4171 30.189H51.4959H51.5748L51.6111 30.1211C51.631 30.0837 51.7045 29.9777 51.7744 29.8854C51.8443 29.7932 51.9015 29.7042 51.9016 29.6877C51.9016 29.6713 51.9231 29.6342 51.9491 29.6053C52.0178 29.5293 52.1778 29.2189 52.2262 29.0676C52.2491 28.9961 52.2956 28.8979 52.3296 28.8494C52.3636 28.801 52.418 28.6839 52.4505 28.5893C52.534 28.3462 52.7001 28.0228 52.8391 27.8324C53.044 27.5519 53.1354 27.4078 53.1354 27.3653C53.1354 27.3427 53.1703 27.2777 53.2129 27.2208C53.2555 27.1639 53.3214 27.0588 53.3593 26.9873C53.3973 26.9158 53.4866 26.7644 53.5578 26.6508C53.6291 26.5373 53.6874 26.4327 53.6874 26.4184C53.6874 26.4041 53.7385 26.3164 53.801 26.2234C53.8635 26.1304 53.9146 26.0481 53.9146 26.0404C53.9146 26.027 54.0881 25.7924 54.248 25.5896C54.3904 25.409 54.6614 25.0002 54.6614 24.966C54.6614 24.9474 54.7418 24.8241 54.8401 24.692C54.9384 24.5599 55.0284 24.4153 55.04 24.3706C55.0517 24.3259 55.11 24.2319 55.1697 24.1616C55.2294 24.0913 55.2782 24.0182 55.2783 23.9991C55.2783 23.98 55.3346 23.8546 55.4033 23.7205C55.472 23.5864 55.5473 23.4182 55.5705 23.3467C55.5937 23.2752 55.6309 23.1874 55.6531 23.1517C55.6753 23.1159 55.7622 22.8783 55.8462 22.6235L55.9988 22.1604L56.0247 22.1764C56.039 22.1852 56.0676 22.3132 56.0884 22.4608L56.1262 22.7291L56.0759 23.3488L56.0256 23.9684L55.9465 24.2914C55.8352 24.7462 55.7451 25.1955 55.5753 26.1421C55.54 26.3388 55.4893 26.5655 55.4627 26.646C55.436 26.7264 55.3837 26.8908 55.3465 27.0112C55.2793 27.229 55.219 27.3769 55.0579 27.7186C55.0116 27.817 54.9506 27.9632 54.9224 28.0437C54.8941 28.1241 54.8065 28.3143 54.7276 28.4662C54.6486 28.6182 54.5285 28.879 54.4606 29.0457C54.3927 29.2124 54.272 29.4757 54.1923 29.6308C54.1125 29.7858 53.994 30.0517 53.9288 30.2215C53.8636 30.3914 53.7902 30.5693 53.7657 30.6169C53.7411 30.6645 53.6766 30.8693 53.6222 31.072C53.5678 31.2746 53.4793 31.5757 53.4255 31.7409C53.3717 31.9062 53.2762 32.2426 53.2133 32.4885L53.099 32.9357L53.0811 33.3257L53.0632 33.7158L53.1174 34.2833C53.1472 34.5954 53.1927 34.951 53.2185 35.0736C53.2819 35.3754 53.2742 35.4182 53.1744 35.3183ZM107.214 34.3253C107.18 34.2662 107.152 33.7718 107.155 33.2932L107.159 32.7732L107.112 32.4806C107.085 32.3197 107.021 32.0047 106.969 31.7805L106.874 31.3729L106.788 31.1629C106.74 31.0474 106.689 30.9236 106.673 30.8879C106.657 30.8521 106.61 30.7278 106.57 30.6116L106.495 30.4003L106.283 30.1185C105.923 29.6387 105.85 29.5312 105.758 29.3439C105.736 29.2992 105.7 29.2407 105.678 29.2139C105.63 29.1548 105.236 28.5136 105.11 28.2875C104.961 28.0214 104.849 27.7784 104.712 27.4261C104.607 27.1561 104.506 26.9478 104.467 26.924C104.451 26.9137 104.427 26.8579 104.415 26.8C104.404 26.7421 104.329 26.4911 104.25 26.2423C104.086 25.7287 104.025 25.4814 103.878 24.7444L103.775 24.2243L103.758 23.8563L103.742 23.4883L103.775 23.4556L103.807 23.4228L103.957 23.6638C104.04 23.7963 104.107 23.9155 104.107 23.9287C104.107 23.9418 104.151 24.0164 104.205 24.0943C104.258 24.1723 104.302 24.2501 104.302 24.2673C104.302 24.2845 104.359 24.3671 104.428 24.4508C104.497 24.5346 104.573 24.6423 104.597 24.69C104.621 24.7378 104.686 24.8354 104.742 24.9069C104.799 24.9785 104.867 25.0808 104.896 25.1345C104.924 25.1881 105.028 25.3119 105.128 25.4097L105.309 25.5873V25.6315C105.309 25.6864 105.559 26.0175 105.781 26.2559C105.873 26.3542 106 26.5151 106.065 26.6135C106.129 26.7118 106.212 26.8106 106.248 26.833C106.285 26.8554 106.432 27.0154 106.575 27.1886L106.835 27.5033L107.066 27.9604C107.337 28.4967 107.623 28.9914 107.697 29.0529C107.726 29.0768 107.794 29.1616 107.849 29.2414C107.904 29.3211 108.006 29.4436 108.075 29.5134L108.202 29.6404L108.268 29.6303L108.335 29.6202L108.599 29.0953C108.745 28.8067 108.892 28.5068 108.926 28.429C108.982 28.3043 109.288 27.72 109.367 27.5886C109.383 27.5618 109.458 27.4301 109.533 27.2961C109.608 27.162 109.717 26.9791 109.774 26.8898C109.831 26.8004 109.907 26.6687 109.942 26.5972C109.977 26.5257 110.088 26.304 110.189 26.1046L110.373 25.742L110.459 25.4707C110.506 25.3216 110.63 24.9435 110.734 24.6307L110.922 24.0618L110.959 23.8505C110.979 23.7343 111.008 23.5076 111.024 23.3467C111.089 22.6703 111.241 21.7033 111.291 21.6538C111.299 21.6453 111.342 21.6864 111.387 21.7449L111.468 21.8515L111.6 22.2253C111.673 22.4309 111.755 22.7015 111.781 22.8266L111.83 23.0542L111.852 23.753L111.873 24.4519L111.839 24.9395C111.805 25.4361 111.722 26 111.669 26.0992C111.653 26.1294 111.64 26.1945 111.64 26.2438C111.64 26.2931 111.604 26.4513 111.561 26.5954C111.518 26.7394 111.443 27.0108 111.395 27.1985C111.249 27.7625 111.158 28.0715 111.014 28.4988L110.877 28.9051L110.688 29.2789C110.584 29.4845 110.465 29.7039 110.425 29.7664C110.385 29.829 110.296 29.968 110.227 30.0752C110.158 30.1825 110.061 30.3312 110.011 30.4056C109.96 30.48 109.919 30.5594 109.919 30.582V30.623L109.209 31.3243L108.5 32.0255L108.412 32.1881C108.363 32.2775 108.292 32.4045 108.253 32.4705C107.966 32.9559 107.841 33.1747 107.841 33.1941C107.841 33.2064 107.775 33.325 107.695 33.4575C107.615 33.59 107.549 33.7058 107.549 33.7147C107.549 33.7416 107.253 34.3497 107.24 34.3497C107.233 34.3497 107.222 34.3387 107.214 34.3253ZM51.7289 27.5648C51.7206 27.5511 51.6981 27.4375 51.6788 27.3123C51.6269 26.9756 51.5275 26.6111 51.4199 26.3624C51.3675 26.2413 51.3139 26.1056 51.3009 26.0609C51.2879 26.0162 51.2406 25.8992 51.1959 25.8008C51.118 25.6295 51.0598 25.4946 50.8317 24.9557C50.7749 24.8216 50.6792 24.6095 50.619 24.4844C50.5588 24.3592 50.4273 24.0667 50.3267 23.8343C50.2261 23.6019 50.1089 23.3386 50.0662 23.2492C50.0236 23.1598 49.9447 22.955 49.8909 22.7941C49.8371 22.6332 49.7572 22.4034 49.7133 22.2834C49.5952 21.9606 49.4799 21.5 49.4343 21.1689C49.4122 21.008 49.3739 20.7537 49.3492 20.6039L49.3044 20.3315V19.9174V19.5034L49.354 19.2188C49.3813 19.0623 49.4171 18.8154 49.4335 18.6701C49.45 18.5248 49.4991 18.245 49.5426 18.0484C49.6114 17.7373 49.6578 17.5657 49.8281 16.992C49.8467 16.9294 49.8954 16.8051 49.9365 16.7157C49.9775 16.6263 50.0362 16.4873 50.0669 16.4069C50.0976 16.3264 50.1359 16.2352 50.1519 16.2042C50.1679 16.1731 50.181 16.132 50.181 16.1128C50.181 16.0572 50.3425 15.7272 50.4825 15.4967C50.5531 15.3805 50.663 15.1904 50.7267 15.0742C50.8808 14.793 51.0485 14.4996 51.1712 14.2965C51.2403 14.1823 51.3515 14.0574 51.3689 14.0748C51.3902 14.0962 51.2931 15.067 51.2651 15.1125C51.2545 15.1295 51.2183 15.329 51.1845 15.5557L51.123 15.9681L51.1229 16.4394C51.1227 17.2562 51.2627 19.0614 51.4292 20.3887C51.4562 20.6033 51.4936 20.9397 51.5123 21.1364C51.5311 21.333 51.585 21.7206 51.632 21.9977L51.7175 22.5016L51.7486 22.5422L51.7798 22.5828H51.8414C51.9357 22.5828 52.1234 22.4491 52.3562 22.216C52.6668 21.905 52.8001 21.7431 53.0843 21.3314C53.2392 21.107 53.4309 20.9158 53.7685 20.6488C53.9268 20.5236 54.1157 20.3602 54.1884 20.2855C54.261 20.2108 54.3808 20.1084 54.4546 20.058C54.7732 19.84 55.045 19.6371 55.184 19.5137C55.2661 19.4408 55.4122 19.3255 55.5087 19.2576C55.6051 19.1896 55.7975 19.023 55.9362 18.8874L56.1883 18.6407L56.338 18.4152C56.4203 18.2913 56.5338 18.1434 56.5902 18.0866C56.6466 18.0298 56.7507 17.897 56.8215 17.7914C56.8923 17.6858 57.0043 17.5427 57.0704 17.4734C57.1366 17.4041 57.2277 17.3003 57.273 17.2428L57.3553 17.1382L57.3557 17.1755C57.3559 17.1959 57.3277 17.3056 57.293 17.4192C57.2583 17.5329 57.2086 17.7136 57.1826 17.8209C57.1565 17.9281 57.0914 18.1841 57.038 18.3897L56.9408 18.7635L56.6938 19.2673C56.3848 19.8974 56.3181 20.016 56.1364 20.2587C56.0561 20.366 55.9694 20.4976 55.9437 20.5513C55.8456 20.7558 55.2305 21.6266 55.1668 21.6511C55.1407 21.6611 55.0945 21.7176 55.0643 21.7767L55.0093 21.884L54.7428 22.144C54.166 22.7068 53.7907 23.1536 53.4731 23.6555C53.3882 23.7896 53.2702 23.9542 53.2109 24.0213C53.1515 24.0884 53.103 24.1629 53.103 24.1869C53.103 24.2109 53.0737 24.257 53.038 24.2894C53.0023 24.3217 52.9731 24.3596 52.9731 24.3736C52.9731 24.3876 52.908 24.4941 52.8285 24.6104C52.749 24.7267 52.638 24.9214 52.5818 25.0432C52.5256 25.1649 52.4071 25.4086 52.3184 25.5846L52.1572 25.9047L52.0934 26.1535C52.0137 26.464 51.8458 27.2334 51.8172 27.4187C51.7964 27.5538 51.7593 27.6152 51.7289 27.5648ZM107.798 26.437C107.528 26.1312 107.451 25.9611 107.323 25.3945L107.287 25.232L107.124 24.9069C107.035 24.7282 106.881 24.4503 106.781 24.2894L106.6 23.9968L106.358 23.7249C106.225 23.5753 106.047 23.3941 105.964 23.3222C105.88 23.2504 105.8 23.1706 105.785 23.145C105.77 23.1194 105.711 23.0705 105.655 23.0363C105.28 22.8088 104.32 21.8565 104.164 21.5577C104.133 21.4976 104.089 21.4368 104.066 21.4224C104.007 21.3858 103.783 21.1036 103.783 21.0663C103.783 21.0493 103.73 20.9849 103.666 20.9233C103.601 20.8617 103.517 20.7655 103.479 20.7095C103.441 20.6534 103.33 20.4925 103.233 20.3519C103.055 20.0926 102.744 19.5729 102.744 19.5329C102.744 19.5209 102.72 19.4672 102.691 19.4136C102.631 19.3007 102.47 18.8164 102.437 18.6497C102.424 18.5872 102.364 18.3275 102.303 18.0726C102.242 17.8178 102.192 17.5735 102.192 17.5297V17.4502L102.919 18.1718C103.705 18.9525 104.265 19.4831 104.447 19.6199C104.781 19.8706 105.155 20.1733 105.357 20.3556C105.83 20.7822 105.905 20.847 106.067 20.9647C106.159 21.0313 106.405 21.1888 106.614 21.3148L106.995 21.5439L107.087 21.5623L107.179 21.5808L107.221 21.53C107.262 21.4813 107.316 21.3122 107.569 20.4538C108.031 18.8892 108.055 18.7939 108.166 18.0809L108.237 17.6258L108.271 16.9835L108.304 16.3413L108.249 15.6671C108.194 15.0016 108.173 14.8568 108.085 14.5378C108.06 14.4485 108.025 14.3095 108.007 14.229C107.932 13.8886 107.871 13.6887 107.729 13.3117C107.647 13.0922 107.566 12.8833 107.549 12.8476C107.5 12.7394 107.388 12.3316 107.403 12.3162C107.44 12.2791 108.003 12.711 108.004 12.7775C108.004 12.7982 108.034 12.8516 108.07 12.8963C108.106 12.941 108.188 13.0581 108.254 13.1564C108.319 13.2547 108.397 13.3644 108.428 13.4002C108.459 13.4359 108.553 13.6041 108.636 13.774C108.72 13.9438 108.866 14.2364 108.959 14.4241C109.053 14.6118 109.142 14.802 109.155 14.8467C109.169 14.8913 109.206 14.9645 109.236 15.0092L109.291 15.0904L109.367 15.3667C109.408 15.5187 109.457 15.6722 109.475 15.708C109.493 15.7437 109.542 15.8973 109.584 16.0493C109.625 16.2013 109.683 16.4061 109.711 16.5044C109.824 16.901 109.88 17.1486 109.902 17.3495C109.914 17.4657 109.938 17.6193 109.954 17.6908C109.97 17.7623 109.999 18.1311 110.018 18.5103L110.053 19.1997L110.003 19.8275C109.888 21.2574 109.7 22.0363 109.142 23.3955C108.897 23.9901 108.824 24.1762 108.687 24.5494C108.471 25.1376 108.208 25.9249 108.182 26.0609C108.145 26.2538 108.035 26.6099 108.007 26.6273L107.981 26.6438L107.798 26.437ZM52.6022 20.5715L52.5819 20.5386L52.6477 20.1712L52.7134 19.8037L52.7491 19.3004L52.7848 18.7971L52.7676 18.5853C52.7357 18.1914 52.6049 17.3776 52.5504 17.234C52.5221 17.1596 52.4451 16.6445 52.3878 16.1468L52.3598 15.9031L52.358 15.2483L52.3563 14.5935L52.3892 14.2569C52.4073 14.0717 52.4501 13.7959 52.4843 13.644C52.5185 13.492 52.5632 13.1921 52.5836 12.9776L52.6207 12.5875L52.6955 12.3275C52.8053 11.9463 53.209 11.0117 53.3311 10.8564C53.3663 10.8115 53.3952 10.7497 53.3952 10.7192V10.6636L53.4601 10.6047C53.4958 10.5724 53.5251 10.5299 53.5251 10.5103C53.5251 10.4907 53.5799 10.3924 53.6469 10.2919C53.7138 10.1913 53.8238 10.0231 53.8914 9.91809C53.959 9.81305 54.0951 9.62471 54.1939 9.49957C54.2927 9.37442 54.4334 9.18427 54.5065 9.077C54.5796 8.96974 54.6942 8.82148 54.7612 8.74754C54.8283 8.67361 54.9079 8.5639 54.9382 8.50376C54.9951 8.39109 55.0625 8.31529 55.635 7.72079L55.9706 7.37224L56.1611 7.24134C56.2659 7.16935 56.36 7.11045 56.3703 7.11045C56.3806 7.11045 56.4422 7.06868 56.5073 7.01764C56.5723 6.96659 56.6584 6.90757 56.6986 6.88647L56.7717 6.84812V6.87515C56.7717 6.89002 56.6915 6.99658 56.5935 7.11196C56.4955 7.22733 56.386 7.38024 56.3503 7.45175C56.3145 7.52326 56.2493 7.64028 56.2053 7.71179C56.1613 7.7833 56.0842 7.92226 56.034 8.02059C55.4661 9.13388 55.4014 9.27303 55.2787 9.64584C55.2228 9.81568 55.1496 10.0278 55.116 10.1172C55.0517 10.2883 54.839 11.042 54.7307 11.4824C54.6697 11.7308 54.641 11.8961 54.5643 12.4413C54.52 12.7566 54.4614 13.866 54.4434 14.7298L54.4293 15.4092L54.6927 15.3889L54.9561 15.3686L55.0766 15.3144C55.1428 15.2846 55.3504 15.1876 55.5379 15.0987C55.7254 15.0098 55.9738 14.8929 56.0899 14.8388C56.2059 14.7847 56.4105 14.6859 56.5444 14.6192C56.6783 14.5525 56.8244 14.4868 56.8691 14.4732C56.9137 14.4596 57.013 14.4064 57.0898 14.355C57.1666 14.3036 57.2406 14.2616 57.2542 14.2616C57.2679 14.2616 57.3771 14.1957 57.4969 14.1153C57.6167 14.0348 57.7277 13.969 57.7436 13.969C57.8028 13.969 58.4867 13.3812 58.7733 13.084L59.0704 12.7758L59.3252 12.3817C59.4653 12.1649 59.622 11.9204 59.6734 11.8382L59.7668 11.6889L59.7931 11.7156L59.8194 11.7424L59.7615 11.9049C59.7296 11.9943 59.6947 12.0894 59.6838 12.1162C59.673 12.143 59.6407 12.2484 59.6121 12.3504C59.4081 13.0767 58.8772 14.1018 58.293 14.8975L58.045 15.2354L57.7898 15.5006C57.6495 15.6465 57.4825 15.8187 57.4188 15.8832C57.301 16.0025 56.78 16.4289 56.6796 16.4881C56.6493 16.506 56.5225 16.6021 56.3978 16.7016C56.1447 16.9036 55.7827 17.1542 55.7426 17.1551C55.7119 17.1559 55.5002 17.2949 54.9515 17.6746C54.5726 17.9368 54.2613 18.1981 53.9564 18.5099C53.8812 18.5868 53.8072 18.6497 53.792 18.6497C53.7768 18.6497 53.7416 18.6973 53.7139 18.7554C53.6862 18.8135 53.5983 18.9341 53.5187 19.0235C53.2465 19.3292 52.99 19.7653 52.7446 20.34C52.6243 20.6216 52.6287 20.6145 52.6022 20.5715ZM106.333 19.466C106.322 19.4323 106.225 19.3043 106.117 19.1816C106.009 19.0589 105.867 18.8953 105.802 18.8179C105.553 18.5257 105.21 18.1735 105.082 18.0802C104.613 17.7372 104.263 17.4344 103.753 16.9313L103.312 16.4969L103.122 16.3625C103.017 16.2886 102.9 16.2062 102.861 16.1793C102.822 16.1525 102.688 16.0475 102.564 15.9459L102.338 15.7611L101.997 15.3821C101.81 15.1736 101.58 14.9291 101.486 14.8387C101.392 14.7483 101.315 14.6607 101.315 14.6439C101.315 14.6271 101.166 14.4277 100.983 14.2008C100.566 13.6842 100.542 13.6522 100.325 13.3352C100.228 13.1921 100.097 13.002 100.034 12.9126C99.9715 12.8232 99.92 12.7323 99.9198 12.7106C99.9194 12.6888 99.8691 12.5791 99.8078 12.4668L99.6964 12.2625L99.5787 11.9049C99.514 11.7083 99.4333 11.4383 99.3993 11.3049L99.3376 11.0625L99.3563 11.0449C99.3666 11.0352 99.3915 11.0556 99.4117 11.0902C99.432 11.1248 99.5016 11.2125 99.5666 11.2852C99.6315 11.3579 99.7119 11.4625 99.7452 11.5178C99.8859 11.7514 99.984 11.8827 100.075 11.9596C100.129 12.0045 100.194 12.0838 100.221 12.1356L100.27 12.23L100.687 12.6552C101.122 13.0989 101.442 13.3845 101.659 13.522C101.729 13.5665 101.815 13.6357 101.851 13.6756C101.887 13.7155 101.96 13.7707 102.013 13.7984C102.067 13.826 102.169 13.8959 102.241 13.9537C102.312 14.0115 102.444 14.0975 102.533 14.1449C102.622 14.1922 102.812 14.3004 102.956 14.3855C103.099 14.4705 103.267 14.5611 103.329 14.5869C103.391 14.6126 103.521 14.6816 103.619 14.7402C103.716 14.7987 103.811 14.8467 103.83 14.8468C103.848 14.8469 103.906 14.8691 103.958 14.896C104.009 14.9229 104.133 14.9683 104.234 14.9969C104.334 15.0255 104.488 15.0845 104.576 15.1281L104.736 15.2074L104.819 15.1977L104.903 15.1879L104.913 14.2778L104.923 13.3677L104.89 13.1564C104.872 13.0402 104.842 12.8427 104.822 12.7176C104.742 12.2095 104.647 11.8639 104.431 11.3036C104.345 11.0801 104.243 10.7986 104.205 10.6781C104.166 10.5575 104.122 10.4513 104.107 10.4421C104.092 10.4328 104.055 10.3486 104.024 10.2549C103.962 10.0643 103.439 9.00502 103.296 8.77911C103.169 8.57946 102.776 8.12275 102.098 7.38674C101.965 7.24285 101.623 6.82354 101.501 6.65538C101.43 6.55705 101.355 6.46197 101.335 6.4441C101.315 6.42622 101.205 6.3128 101.091 6.19205L100.883 5.9725L100.902 5.95311L100.921 5.93371L101.045 5.99676C101.113 6.03144 101.228 6.08754 101.299 6.12144C101.371 6.15534 101.497 6.22997 101.58 6.2873C101.663 6.34463 101.805 6.43001 101.895 6.47704C101.984 6.52407 102.075 6.58343 102.096 6.60896C102.118 6.63449 102.148 6.65538 102.164 6.65538C102.194 6.65538 102.39 6.79268 102.501 6.89117C102.536 6.92252 102.689 7.05354 102.841 7.18232C102.993 7.31111 103.398 7.70057 103.742 8.04781L104.367 8.67915L104.554 8.92642C104.656 9.06241 104.768 9.20313 104.801 9.23911C104.834 9.2751 104.898 9.36305 104.943 9.43456C104.988 9.50607 105.086 9.63771 105.16 9.7271C105.235 9.81649 105.367 10.0066 105.454 10.1497C105.541 10.2927 105.645 10.4536 105.685 10.5072C105.787 10.6467 106.13 11.3144 106.227 11.5636C106.522 12.323 106.74 13.3728 106.8 14.3266L106.83 14.7979L106.801 15.1229C106.785 15.3017 106.75 15.7625 106.723 16.1468C106.696 16.5312 106.659 16.9847 106.641 17.1545C106.571 17.8045 106.51 18.4897 106.48 18.9671C106.462 19.2401 106.439 19.4777 106.428 19.4954C106.397 19.5461 106.354 19.5328 106.333 19.466ZM55.4082 13.9121C55.4082 13.8987 55.4678 13.7494 55.5407 13.5804L55.6731 13.273L55.7495 12.979C55.7915 12.8173 55.8877 12.5095 55.9632 12.295C56.0388 12.0805 56.141 11.7733 56.1902 11.6124C56.4543 10.7495 57.0918 9.63973 57.9975 8.46641C58.3781 7.9733 59.1109 7.26844 59.6437 6.88291C59.7796 6.78459 59.9666 6.64563 60.0593 6.57412C60.152 6.50261 60.2596 6.42216 60.2984 6.39534C60.3371 6.36852 60.4507 6.29031 60.5507 6.22153C60.6507 6.15275 60.7325 6.08256 60.7325 6.06556C60.7325 6.04856 60.774 6.01707 60.8246 5.99558C60.8752 5.9741 60.9812 5.90781 61.06 5.84827C61.3543 5.62593 62.1799 5.13377 62.2666 5.12899C62.3382 5.12503 61.9732 5.90047 61.6628 6.41159C61.5977 6.51886 61.5443 6.62311 61.5443 6.64327C61.5442 6.66343 61.5238 6.69688 61.4988 6.7176C61.4739 6.73833 61.2616 7.13871 61.027 7.60735C60.7924 8.07598 60.5608 8.52811 60.5123 8.61208C60.4638 8.69605 60.3467 8.90814 60.2522 9.0834C60.1576 9.25866 60.0664 9.42399 60.0495 9.45081C60.0327 9.47763 59.9821 9.56539 59.9371 9.64584C59.7516 9.97777 59.7216 10.0251 59.6206 10.1463C59.1017 10.7689 58.6412 11.2158 58.2452 11.4812L58.0793 11.5924L57.8719 11.826C57.5999 12.1324 57.2706 12.4644 57.1108 12.5935C56.7936 12.8497 56.5444 13.0685 56.5444 13.0909C56.5444 13.1043 56.4896 13.152 56.4226 13.1969C56.3557 13.2419 56.2571 13.3181 56.2035 13.3663C56.1499 13.4146 56.0513 13.4897 55.9844 13.5332C55.9174 13.5767 55.8626 13.6239 55.8626 13.6382C55.8626 13.6688 55.4818 13.9365 55.4382 13.9365C55.4216 13.9365 55.4081 13.9255 55.4082 13.9121ZM103.581 13.7808C103.48 13.6966 103.327 13.5765 103.243 13.5139C103.158 13.4514 103.034 13.349 102.968 13.2864C102.901 13.2238 102.771 13.1214 102.679 13.0589C102.587 12.9963 102.394 12.86 102.251 12.756L101.991 12.5669L101.515 12.0887L101.039 11.6104L100.943 11.4651C100.89 11.3852 100.793 11.2594 100.727 11.1854C100.661 11.1115 100.581 11.0018 100.55 10.9416C100.519 10.8815 100.431 10.7615 100.354 10.6751C100.276 10.5887 100.159 10.4278 100.092 10.3176C100.026 10.2073 99.9236 10.0529 99.8645 9.97434C99.8053 9.89579 99.7569 9.81911 99.7569 9.80395C99.7569 9.78878 99.6853 9.63125 99.5977 9.45387C99.5101 9.2765 99.4278 9.0972 99.4148 9.05543C99.4018 9.01366 99.3201 8.82959 99.2332 8.64637C99.1462 8.46316 99.0751 8.30087 99.0751 8.28573C99.0751 8.27059 99.0459 8.23173 99.0102 8.19937C98.9745 8.16701 98.9453 8.12106 98.9453 8.09726C98.9453 8.07346 98.8769 7.93311 98.7934 7.78537C98.7099 7.63764 98.6013 7.43989 98.5521 7.34594C98.503 7.25198 98.4179 7.12066 98.3631 7.05411C98.3083 6.98756 98.2635 6.92096 98.2635 6.90611C98.2635 6.85048 98.0386 6.59152 97.5657 6.10279C97.2976 5.82569 96.9485 5.44319 96.7901 5.25279C96.6316 5.0624 96.4703 4.88964 96.4316 4.86889C96.3928 4.84815 96.3435 4.8028 96.3218 4.76812L96.2825 4.70508H96.337C96.3669 4.70508 96.4691 4.74896 96.564 4.80259C96.6589 4.85623 96.7514 4.90011 96.7695 4.90011C96.8286 4.90011 97.7319 5.35663 97.8414 5.44181C97.8682 5.46264 98.0447 5.55926 98.2337 5.65652C98.4226 5.75378 98.686 5.90495 98.819 5.99245C98.952 6.07996 99.0847 6.16618 99.1139 6.18406C99.2639 6.27593 99.7056 6.63507 100.037 6.93497C100.243 7.12087 100.422 7.27297 100.435 7.27297C100.448 7.27297 100.502 7.33154 100.554 7.40312C100.607 7.4747 100.794 7.68209 100.969 7.864C101.276 8.18141 101.618 8.59557 101.752 8.81196C101.787 8.86834 101.828 8.91937 101.842 8.92534C101.856 8.93131 101.921 9.01908 101.987 9.12037C102.052 9.22166 102.139 9.34111 102.179 9.3858L102.253 9.46706L102.539 10.0362C102.696 10.3492 102.842 10.649 102.863 10.7025C102.884 10.756 102.945 10.9034 103 11.0301C103.124 11.3192 103.267 11.7489 103.372 12.1487C103.417 12.3186 103.492 12.6038 103.539 12.7826C103.586 12.9614 103.674 13.2852 103.736 13.5021C103.885 14.0276 103.883 14.0305 103.581 13.7808ZM99.3024 10.9279V10.8772L99.3349 10.8973C99.3527 10.9083 99.3673 10.9311 99.3673 10.948C99.3673 10.9648 99.3527 10.9785 99.3349 10.9785H99.3024V10.9279ZM56.9015 6.73664C56.9015 6.7277 56.9088 6.72039 56.9178 6.72039C56.9267 6.72039 56.934 6.7277 56.934 6.73664C56.934 6.74558 56.9267 6.75289 56.9178 6.75289C56.9088 6.75289 56.9015 6.74558 56.9015 6.73664ZM100.732 5.87653L100.684 5.84629L100.706 5.82425L100.728 5.80222L100.778 5.82147C100.806 5.83205 100.828 5.8558 100.828 5.87424C100.828 5.91552 100.795 5.91632 100.732 5.87653Z" fill="white"/>
</svg>
