<svg width="160" height="28" viewBox="0 0 160 28" fill="none" xmlns="http://www.w3.org/2000/svg">
<mask id="mask0_515_10275" style="mask-type:luminance" maskUnits="userSpaceOnUse" x="21" y="0" width="118" height="28">
<path d="M138.91 0H21V27.5625H138.91V0Z" fill="white"/>
</mask>
<g mask="url(#mask0_515_10275)">
<path d="M122.516 0C116.391 0 111.347 4.8125 111.347 10.85C111.347 16.8 116.301 21.7 122.516 21.7C128.641 21.7 133.686 16.8875 133.686 10.85C133.686 4.8125 128.641 0 122.516 0ZM131.163 4.8125C130.623 5.1625 129.992 5.5125 129.362 5.8625C129.002 5.1625 128.551 4.4625 128.011 3.85C128.461 3.5875 128.912 3.2375 129.272 2.975C130.083 3.4125 130.713 4.1125 131.163 4.8125ZM126.479 1.225C127.38 1.575 128.191 2.0125 129.002 2.625C128.641 2.975 128.191 3.2375 127.741 3.5C127.2 2.8875 126.57 2.3625 125.939 1.8375C126.119 1.575 126.299 1.4 126.479 1.225ZM127.38 3.675C126.75 4.025 126.119 4.2 125.489 4.4625C125.218 3.85 124.948 3.2375 124.588 2.7125C124.948 2.5375 125.309 2.3625 125.579 2.1C126.209 2.5375 126.84 3.0625 127.38 3.675ZM126.029 1.05C125.849 1.225 125.669 1.4 125.579 1.575C124.948 1.225 124.408 0.875 123.687 0.6125C124.498 0.6125 125.309 0.7875 126.029 1.05ZM125.218 1.8375C124.948 2.0125 124.678 2.1875 124.408 2.275C124.047 1.75 123.687 1.3125 123.327 0.7875C123.957 1.05 124.588 1.4 125.218 1.8375ZM122.696 0.875C123.147 1.3125 123.507 1.8375 123.867 2.45C123.507 2.5375 123.147 2.625 122.696 2.625V0.875ZM122.696 3.0625C123.147 3.0625 123.687 2.975 124.138 2.8C124.498 3.325 124.768 3.9375 125.038 4.55C124.318 4.725 123.507 4.8125 122.696 4.9V3.0625ZM122.246 0.875V2.625C121.886 2.625 121.525 2.5375 121.075 2.45C121.525 1.925 121.886 1.4 122.246 0.875ZM120.715 2.275C120.444 2.1875 120.084 2.0125 119.904 1.8375C120.534 1.4875 121.165 1.1375 121.796 0.875C121.345 1.3125 120.985 1.75 120.715 2.275ZM121.345 0.525C120.715 0.7875 120.084 1.1375 119.454 1.4875C119.273 1.3125 119.093 1.1375 119.003 0.9625C119.724 0.7875 120.534 0.6125 121.345 0.525ZM129.002 19.075C127.56 18.2875 127.47 17.15 127.56 16.8C127.65 16.3625 127.921 16.5375 128.101 16.5375C129.092 16.5375 130.083 16.275 131.344 14.9625C132.785 13.5625 133.235 10.4125 130.983 8.4C128.641 6.2125 126.119 6.5625 124.498 8.575C124.138 9.0125 123.327 9.275 122.696 9.275C121.615 9.275 122.336 10.0625 122.336 10.2375C122.336 10.4125 122.156 10.5 122.066 10.5C121.705 10.4125 121.886 10.9375 121.886 11.025C121.886 11.1125 121.705 11.2875 121.705 11.2875C121.255 11.2875 121.345 11.6375 121.435 11.8125C121.435 11.9 121.435 12.075 121.255 12.1625C121.075 12.25 120.985 12.6 120.985 12.8625C120.985 13.3 121.435 13.65 122.156 14.175C122.876 14.7 122.967 15.225 122.967 15.575C122.967 15.925 123.057 16.5375 123.147 16.8875C123.327 17.325 123.327 18.2 122.336 18.2C121.075 18.2875 118.913 19.1625 118.733 19.25C118.012 19.5125 117.112 19.6 116.391 19.425C116.031 19.1625 115.67 18.9 115.31 18.55C115.13 18.1125 115.4 17.5875 115.67 17.2375C116.121 17.675 116.661 17.5875 117.021 17.5875C117.382 17.5875 119.003 17.325 119.273 17.2375C119.544 17.15 119.634 17.15 119.724 17.2375C120.354 17.5 121.255 17.5 121.615 16.3625C121.976 15.1375 121.165 15.4875 120.985 15.575C120.895 15.6625 120.715 15.575 120.805 15.4875C120.985 15.225 120.715 15.225 120.625 15.225C120.264 15.225 119.814 15.575 119.724 15.6625C119.544 15.75 119.454 15.75 119.363 15.75C118.913 15.4875 117.562 15.8375 117.112 15.1375C117.112 14.9625 116.751 12.075 116.571 11.55C116.571 11.4625 116.481 11.2875 116.661 11.1125C117.021 10.5875 117.922 11.1125 118.463 11.1125C119.093 11.1125 119.183 10.85 119.363 10.675C119.544 10.5 119.634 10.5875 119.724 10.5C119.814 10.4125 119.724 10.325 119.724 10.2375C119.724 10.15 119.814 10.2375 119.904 10.15C119.994 10.0625 119.904 9.8875 119.904 9.8C120.084 9.5375 120.444 9.7125 120.264 9.1875C120.174 8.8375 120.354 8.4875 120.534 8.3125C120.805 7.9625 121.976 6.3875 119.994 4.725C118.102 3.15 116.121 3.325 114.86 4.6375C113.599 5.95 114.229 7.875 114.319 8.4C114.409 8.925 114.049 9.3625 113.599 9.5375C113.238 9.7125 112.428 10.2375 111.887 10.675C111.977 6.475 114.589 2.8 118.553 1.3125C118.733 1.4875 118.913 1.75 119.093 1.925C118.643 2.275 117.652 3.0625 117.652 3.0625C117.652 3.0625 117.742 3.0625 117.922 3.15C118.012 3.15 118.192 3.2375 118.192 3.2375C118.192 3.2375 119.003 2.5375 119.454 2.275C119.724 2.5375 120.084 2.7125 120.444 2.8875C120.264 3.2375 119.724 4.1125 119.724 4.1125C119.724 4.1125 119.814 4.2 119.904 4.2C119.994 4.2875 120.084 4.2875 120.084 4.2875C120.084 4.2875 120.625 3.325 120.805 2.975C121.255 3.15 121.705 3.2375 122.156 3.2375V4.9875C121.886 4.9875 121.255 4.9875 120.985 4.9H120.805L120.895 5.075C120.985 5.1625 120.985 5.25 121.075 5.3375C121.255 5.3375 121.886 5.3375 122.156 5.3375V8.575H122.606V7.7875C123.327 7.7875 123.867 7.7 124.498 7.6125L125.128 7.0875H124.768C124.047 7.175 123.417 7.2625 122.876 7.2625C122.876 7.2625 122.696 7.2625 122.606 7.2625V5.25C123.417 5.25 124.318 5.1625 125.128 4.9C125.309 5.425 125.759 6.7375 125.759 6.7375L126.209 6.5625C126.209 6.5625 125.759 5.25 125.579 4.725C126.299 4.55 126.93 4.2 127.56 3.9375C128.101 4.55 128.551 5.25 128.912 5.95C128.551 6.125 128.011 6.3 128.011 6.3C128.461 6.3875 128.821 6.475 128.821 6.475C128.821 6.475 129.002 6.3875 129.092 6.3875C129.092 6.475 129.182 6.65 129.182 6.65L129.812 6.9125L129.722 6.7375C129.722 6.7375 129.542 6.3 129.452 6.2125C130.083 5.95 130.713 5.6 131.344 5.1625C132.515 6.825 133.055 8.8375 133.055 10.85C133.235 14.175 131.524 17.15 129.002 19.075Z" fill="white"/>
<path d="M110.356 2.88828L110.176 3.06328C109.545 3.58828 108.014 5.07578 108.284 6.73828V6.82578L108.374 7.17578L108.554 7.00078C109.455 6.21328 110.176 4.81328 110.446 3.23828L110.536 2.80078L110.356 2.88828Z" fill="white"/>
<path d="M107.293 5.68711L107.203 5.86211C107.113 6.12461 106.933 6.73711 106.843 7.43711C106.663 8.48711 106.753 10.0621 107.654 11.1996L107.744 11.3746L107.834 11.5496L108.014 10.8496C108.194 9.62462 107.924 7.08711 107.473 5.94961L107.293 5.59961V5.68711Z" fill="white"/>
<path d="M106.212 10.0633V10.2383C106.122 11.2883 106.212 14.0008 108.464 15.4883L108.734 15.6633V15.3133C108.734 14.2633 107.473 11.2008 106.573 10.1508L106.302 9.80078L106.212 10.0633Z" fill="white"/>
<path d="M106.573 14.8742V15.0492C106.933 16.6242 108.374 19.0742 110.716 19.8617L111.076 19.9492L110.986 19.5992C110.536 18.4617 108.284 15.7492 106.843 14.8742L106.573 14.6992V14.8742Z" fill="white"/>
<path d="M111.347 5.24961L111.076 5.33711C109.365 6.38711 108.554 7.61211 108.554 9.18712V9.53712L108.824 9.36212C109.725 8.57461 110.986 6.64961 111.256 5.59961L111.347 5.16211V5.24961Z" fill="white"/>
<path d="M110.266 8.57578L110.176 8.75077C109.725 9.18827 108.284 10.6758 108.374 12.5133C108.374 12.7758 108.464 13.1258 108.554 13.3883L108.644 13.6508L108.825 13.3883C109.545 12.4258 110.446 9.97577 110.356 8.83827V8.48828L110.266 8.57578Z" fill="white"/>
<path d="M110.356 11.8121L110.266 11.9871C109.545 13.0371 109.185 14.0871 109.185 15.1371C109.185 15.8371 109.455 16.5371 109.905 17.2371L110.086 17.4996L110.176 17.2371C110.446 16.6246 110.716 14.7871 110.716 13.2996C110.716 12.7746 110.626 12.3371 110.536 12.0746L110.446 11.7246L110.356 11.8121Z" fill="white"/>
<path d="M111.166 15.2258L111.076 15.4008C110.896 16.1008 110.716 16.7133 110.806 17.4133C110.806 18.8133 111.527 19.9508 112.788 20.7383L112.968 20.8258L113.058 20.5633V20.3008C113.058 19.1633 112.157 16.1883 111.437 15.3133L111.256 15.0508L111.166 15.2258Z" fill="white"/>
<path d="M108.734 19.775L108.824 19.95C109.725 21.4375 111.347 23.45 114.319 22.925H114.589L114.409 22.75C113.869 21.9625 110.266 19.95 109.005 19.775L108.644 19.6875L108.734 19.775Z" fill="white"/>
<path d="M113.148 23.6254L112.698 23.7129L113.148 23.8879C115.04 24.6754 117.382 24.8504 118.823 24.4129C119.363 24.2379 119.634 23.9754 119.994 23.6254C122.426 23.8879 124.678 25.8129 126.029 27.3879L126.119 27.4754H126.209C126.389 27.3879 126.57 27.2129 126.66 27.1254L126.75 27.0379L126.66 26.9504C125.308 25.2004 123.147 24.1504 123.057 24.0629C121.075 23.1879 117.652 22.4879 113.148 23.6254Z" fill="white"/>
<path d="M113.238 18.7242V18.8992C113.508 20.6492 114.229 22.9242 117.292 22.6617H117.472L117.382 22.4867C117.202 21.6992 114.409 19.4242 113.418 18.8117L113.148 18.6367L113.238 18.7242Z" fill="white"/>
<path d="M134.496 2.71289L134.586 3.15039C134.856 4.72539 135.577 6.12539 136.478 6.91289L136.658 7.08789L136.748 6.73789V6.65039C137.018 4.98789 135.487 3.50039 134.856 2.97539L134.676 2.80039L134.496 2.71289Z" fill="white"/>
<path d="M137.649 5.51172L137.469 5.86172C137.018 6.99922 136.838 9.53673 136.928 10.7617L137.108 11.4617L137.199 11.3742L137.289 11.1992C138.279 10.0617 138.279 8.57422 138.099 7.43672C138.009 6.64922 137.829 6.12422 137.739 5.86172L137.649 5.68672V5.51172Z" fill="white"/>
<path d="M138.82 9.88672L138.55 10.2367C137.649 11.3742 136.388 14.3492 136.388 15.3992V15.7492L136.658 15.5742C138.91 14.1742 139 11.4617 138.91 10.3242V10.1492L138.82 9.88672Z" fill="white"/>
<path d="M138.46 14.6992L138.099 14.8742C136.658 15.7492 134.406 18.4617 133.956 19.5992L133.866 19.9492L134.226 19.8617C136.568 19.1617 138.099 16.6242 138.37 15.0492V14.8742L138.46 14.6992Z" fill="white"/>
<path d="M133.686 5.07422L133.776 5.51172C134.136 6.64922 135.217 8.57422 136.208 9.36173L136.478 9.53673V9.18673C136.568 7.61172 135.757 6.38672 134.046 5.33672L133.866 5.24922L133.686 5.07422Z" fill="white"/>
<path d="M134.676 8.48828V8.83827C134.586 9.97577 135.577 12.5133 136.208 13.3883L136.388 13.6508L136.478 13.3883C136.568 13.0383 136.658 12.7758 136.658 12.5133C136.748 10.6758 135.307 9.18827 134.857 8.75077L134.766 8.66328L134.676 8.48828Z" fill="white"/>
<path d="M134.586 11.6367L134.496 11.9867C134.406 12.2492 134.316 12.6867 134.316 13.2117C134.316 14.6992 134.496 16.5367 134.856 17.1492L134.946 17.4117L135.127 17.1492C135.577 16.5367 135.847 15.8367 135.847 15.0492C135.847 14.0867 135.487 12.9492 134.766 11.8992L134.676 11.7242L134.586 11.6367Z" fill="white"/>
<path d="M133.776 15.0508L133.595 15.3133C132.875 16.1883 131.974 19.1633 131.974 20.3008C131.974 20.3008 131.974 20.4758 131.974 20.5633L132.064 20.8258L132.244 20.7383C133.505 19.9508 134.136 18.8133 134.226 17.4133C134.226 16.8008 134.136 16.1008 133.956 15.4008L133.866 15.2258L133.776 15.0508Z" fill="white"/>
<path d="M136.388 19.5996L136.028 19.6871C134.767 19.8621 131.163 21.8746 130.623 22.6621L130.443 22.8371H130.713C133.686 23.3621 135.307 21.3496 136.208 19.8621L136.298 19.6871L136.388 19.5996Z" fill="white"/>
<path d="M122.066 24.0629C121.976 24.0629 119.814 25.2004 118.463 26.9504L118.373 27.0379L118.463 27.1254C118.553 27.2129 118.823 27.3879 118.913 27.4754H119.003L119.093 27.3879C120.444 25.8129 122.696 23.8004 125.128 23.6254C125.489 23.9754 125.849 24.2379 126.299 24.4129C127.65 24.8504 130.082 24.6754 131.974 23.8879L132.424 23.7129L131.974 23.6254C127.38 22.4879 123.957 23.1879 122.066 24.0629Z" fill="white"/>
<path d="M131.794 18.5508L131.524 18.7258C130.533 19.3383 127.831 21.6133 127.56 22.4008L127.47 22.5758H127.65C130.623 22.8383 131.344 20.5633 131.704 18.8133V18.6383L131.794 18.5508Z" fill="white"/>
<path d="M55.7695 1.05078H59.5527V4.37578H55.7695V1.05078ZM56.1298 8.22578H59.2825V24.5008H56.1298V8.22578Z" fill="white"/>
<path d="M32.2595 8.22461H35.4122V24.4996H32.3496V22.1371H32.2595C30.9985 24.1496 28.8366 25.0246 26.4947 25.0246C22.9817 25.0246 21 22.3996 21 19.1621V8.22461H24.1527V17.8496C24.1527 20.6496 24.7832 22.7496 27.8458 22.7496C29.1069 22.7496 30.9084 22.1371 31.5389 20.3871C32.1695 18.8996 32.1695 16.9746 32.1695 16.5371V8.22461H32.2595Z" fill="white"/>
<path d="M41.7176 10.5867C42.8886 8.57422 45.1405 7.69922 46.852 7.69922C48.023 7.69922 53.1573 7.96172 53.1573 13.2117V24.4117H50.0046V14.1742C50.0046 11.4617 48.8336 10.0617 46.1314 10.0617C46.1314 10.0617 44.4199 9.97423 43.0688 11.2867C42.6184 11.7242 41.7176 12.4242 41.7176 15.6617V24.4992H38.5649V8.22422H41.7176V10.5867Z" fill="white"/>
<path d="M72.5237 13.3867C72.3436 11.3742 71.3527 9.97423 69.1008 9.97423C66.1283 9.97423 64.9573 12.5117 64.9573 16.2742C64.9573 20.0367 66.1283 22.5742 69.1008 22.5742C71.1726 22.5742 72.4337 21.2617 72.6138 18.8992H75.7665C75.4963 22.5742 72.7039 24.7617 69.0108 24.7617C63.6963 24.7617 61.5344 21.0867 61.5344 16.3617C61.5344 11.6367 63.9665 7.69922 69.281 7.69922C72.794 7.69922 75.4062 9.88673 75.5863 13.3867H72.5237Z" fill="white"/>
<path d="M80.4505 16.8871C80.1803 19.6871 81.4413 22.6621 84.594 22.6621C87.0261 22.6621 88.2871 21.6996 88.6474 19.3371H91.9804C91.4399 23.0121 88.5574 24.8496 84.594 24.8496C79.2795 24.8496 77.1177 21.1746 77.1177 16.4496C77.1177 11.7246 79.5498 7.78711 84.8643 7.78711C89.8185 7.87461 92.1604 10.9371 92.1604 15.3996V16.8871H80.4505ZM88.9178 14.7871C89.0078 12.0746 87.7467 9.97462 84.6841 9.97462C82.0719 9.97462 80.5406 12.1621 80.5406 14.7871H88.9178Z" fill="white"/>
<path d="M95.7633 24.3242V10.3242H92.8809V8.22422H95.7633V4.72422C95.8534 1.22422 98.6457 0.261719 100.988 0.261719C101.708 0.261719 102.519 0.436719 103.24 0.611719V3.14922C102.699 3.14922 102.159 3.06172 101.618 3.06172C99.8167 3.06172 98.8259 3.49922 98.916 5.24922V8.22422H102.789V10.3242H98.916V24.3242H95.7633Z" fill="white"/>
</g>
</svg>
