<svg width="131" height="32" viewBox="0 0 131 32" fill="none" xmlns="http://www.w3.org/2000/svg">
<g clip-path="url(#clip0_511_10085)">
<path d="M112.7 0C105.9 0 100.3 5.5 100.3 12.4C100.3 19.2 105.8 24.8 112.7 24.8C119.5 24.8 125.1 19.3 125.1 12.4C125.1 5.5 119.5 0 112.7 0ZM122.3 5.5C121.7 5.9 121 6.3 120.3 6.7C119.9 5.9 119.4 5.1 118.8 4.4C119.3 4.1 119.8 3.7 120.2 3.4C121.1 3.9 121.8 4.7 122.3 5.5ZM117.1 1.4C118.1 1.8 119 2.3 119.9 3C119.5 3.4 119 3.7 118.5 4C117.9 3.3 117.2 2.7 116.5 2.1C116.7 1.8 116.9 1.6 117.1 1.4ZM118.1 4.2C117.4 4.6 116.7 4.8 116 5.1C115.7 4.4 115.4 3.7 115 3.1C115.4 2.9 115.8 2.7 116.1 2.4C116.8 2.9 117.5 3.5 118.1 4.2ZM116.6 1.2C116.4 1.4 116.2 1.6 116.1 1.8C115.4 1.4 114.8 1 114 0.7C114.9 0.7 115.8 0.9 116.6 1.2ZM115.7 2.1C115.4 2.3 115.1 2.5 114.8 2.6C114.4 2 114 1.5 113.6 0.9C114.3 1.2 115 1.6 115.7 2.1ZM112.9 1C113.4 1.5 113.8 2.1 114.2 2.8C113.8 2.9 113.4 3 112.9 3V1ZM112.9 3.5C113.4 3.5 114 3.4 114.5 3.2C114.9 3.8 115.2 4.5 115.5 5.2C114.7 5.4 113.8 5.5 112.9 5.6V3.5ZM112.4 1V3C112 3 111.6 2.9 111.1 2.8C111.6 2.2 112 1.6 112.4 1ZM110.7 2.6C110.4 2.5 110 2.3 109.8 2.1C110.5 1.7 111.2 1.3 111.9 1C111.4 1.5 111 2 110.7 2.6ZM111.4 0.6C110.7 0.9 110 1.3 109.3 1.7C109.1 1.5 108.9 1.3 108.8 1.1C109.6 0.9 110.5 0.7 111.4 0.6ZM119.9 21.8C118.3 20.9 118.2 19.6 118.3 19.2C118.4 18.7 118.7 18.9 118.9 18.9C120 18.9 121.1 18.6 122.5 17.1C124.1 15.5 124.6 11.9 122.1 9.6C119.5 7.1 116.7 7.5 114.9 9.8C114.5 10.3 113.6 10.6 112.9 10.6C111.7 10.6 112.5 11.5 112.5 11.7C112.5 11.9 112.3 12 112.2 12C111.8 11.9 112 12.5 112 12.6C112 12.7 111.8 12.9 111.8 12.9C111.3 12.9 111.4 13.3 111.5 13.5C111.5 13.6 111.5 13.8 111.3 13.9C111.1 14 111 14.4 111 14.7C111 15.2 111.5 15.6 112.3 16.2C113.1 16.8 113.2 17.4 113.2 17.8C113.2 18.2 113.3 18.9 113.4 19.3C113.6 19.8 113.6 20.8 112.5 20.8C111.1 20.9 108.7 21.9 108.5 22C107.7 22.3 106.7 22.4 105.9 22.2C105.5 21.9 105.1 21.6 104.7 21.2C104.5 20.7 104.8 20.1 105.1 19.7C105.6 20.2 106.2 20.1 106.6 20.1C107 20.1 108.8 19.8 109.1 19.7C109.4 19.6 109.5 19.6 109.6 19.7C110.3 20 111.3 20 111.7 18.7C112.1 17.3 111.2 17.7 111 17.8C110.9 17.9 110.7 17.8 110.8 17.7C111 17.4 110.7 17.4 110.6 17.4C110.2 17.4 109.7 17.8 109.6 17.9C109.4 18 109.3 18 109.2 18C108.7 17.7 107.2 18.1 106.7 17.3C106.7 17.1 106.3 13.8 106.1 13.2C106.1 13.1 106 12.9 106.2 12.7C106.6 12.1 107.6 12.7 108.2 12.7C108.9 12.7 109 12.4 109.2 12.2C109.4 12 109.5 12.1 109.6 12C109.7 11.9 109.6 11.8 109.6 11.7C109.6 11.6 109.7 11.7 109.8 11.6C109.9 11.5 109.8 11.3 109.8 11.2C110 10.9 110.4 11.1 110.2 10.5C110.1 10.1 110.3 9.7 110.5 9.5C110.8 9.1 112.1 7.3 109.9 5.4C107.8 3.6 105.6 3.8 104.2 5.3C102.8 6.8 103.5 9 103.6 9.6C103.7 10.2 103.3 10.7 102.8 10.9C102.4 11.1 101.5 11.7 100.9 12.2C101 7.4 103.9 3.2 108.3 1.5C108.5 1.7 108.7 2 108.9 2.2C108.4 2.6 107.3 3.5 107.3 3.5C107.3 3.5 107.4 3.5 107.6 3.6C107.7 3.6 107.9 3.7 107.9 3.7C107.9 3.7 108.8 2.9 109.3 2.6C109.6 2.9 110 3.1 110.4 3.3C110.2 3.7 109.6 4.7 109.6 4.7C109.6 4.7 109.7 4.8 109.8 4.8C109.9 4.9 110 4.9 110 4.9C110 4.9 110.6 3.8 110.8 3.4C111.3 3.6 111.8 3.7 112.3 3.7V5.7C112 5.7 111.3 5.7 111 5.6H110.8L110.9 5.8C111 5.9 111 6 111.1 6.1C111.3 6.1 112 6.1 112.3 6.1V9.8H112.8V8.9C113.6 8.9 114.2 8.8 114.9 8.7L115.6 8.1H115.2C114.4 8.2 113.7 8.3 113.1 8.3C113.1 8.3 112.9 8.3 112.8 8.3V6C113.7 6 114.7 5.9 115.6 5.6C115.8 6.2 116.3 7.7 116.3 7.7L116.8 7.5C116.8 7.5 116.3 6 116.1 5.4C116.9 5.2 117.6 4.8 118.3 4.5C118.9 5.2 119.4 6 119.8 6.8C119.4 7 118.8 7.2 118.8 7.2C119.3 7.3 119.7 7.4 119.7 7.4C119.7 7.4 119.9 7.3 120 7.3C120 7.4 120.1 7.6 120.1 7.6L120.8 7.9L120.7 7.7C120.7 7.7 120.5 7.2 120.4 7.1C121.1 6.8 121.8 6.4 122.5 5.9C123.8 7.8 124.4 10.1 124.4 12.4C124.6 16.2 122.7 19.6 119.9 21.8Z" fill="white"/>
<path d="M99.2 3.30001L99 3.50001C98.3 4.10001 96.6 5.80001 96.9 7.70001V7.80001L97 8.20001L97.2 8.00001C98.2 7.10001 99 5.50001 99.3 3.70001L99.4 3.20001L99.2 3.30001Z" fill="white"/>
<path d="M95.8 6.49999L95.7 6.69999C95.6 6.99999 95.4 7.69999 95.3 8.49999C95.1 9.69999 95.2 11.5 96.2 12.8L96.3 13L96.4 13.2L96.6 12.4C96.8 11 96.5 8.09999 96 6.79999L95.8 6.39999V6.49999Z" fill="white"/>
<path d="M94.6 11.5V11.7C94.5 12.9 94.6 16 97.1 17.7L97.4 17.9V17.5C97.4 16.3 96 12.8 95 11.6L94.7 11.2L94.6 11.5Z" fill="white"/>
<path d="M95 17V17.2C95.4 19 97 21.8 99.6 22.7L100 22.8L99.9 22.4C99.4 21.1 96.9 18 95.3 17L95 16.8V17Z" fill="white"/>
<path d="M100.3 5.99999L100 6.09999C98.1 7.29999 97.2 8.69999 97.2 10.5V10.9L97.5 10.7C98.5 9.79999 99.9 7.59999 100.2 6.39999L100.3 5.89999V5.99999Z" fill="white"/>
<path d="M99.1 9.80001L99 10C98.5 10.5 96.9 12.2 97 14.3C97 14.6 97.1 15 97.2 15.3L97.3 15.6L97.5 15.3C98.3 14.2 99.3 11.4 99.2 10.1V9.70001L99.1 9.80001Z" fill="white"/>
<path d="M99.2 13.5L99.1 13.7C98.3 14.9 97.9 16.1 97.9 17.3C97.9 18.1 98.2 18.9 98.7 19.7L98.9 20L99 19.7C99.3 19 99.6 16.9 99.6 15.2C99.6 14.6 99.5 14.1 99.4 13.8L99.3 13.4L99.2 13.5Z" fill="white"/>
<path d="M100.1 17.4L99.9999 17.6C99.7999 18.4 99.5999 19.1 99.6999 19.9C99.6999 21.5 100.5 22.8 101.9 23.7L102.1 23.8L102.2 23.5V23.2C102.2 21.9 101.2 18.5 100.4 17.5L100.2 17.2L100.1 17.4Z" fill="white"/>
<path d="M97.4 22.6L97.5 22.8C98.5 24.5 100.3 26.8 103.6 26.2H103.9L103.7 26C103.1 25.1 99.1 22.8 97.7 22.6L97.3 22.5L97.4 22.6Z" fill="white"/>
<path d="M102.3 27L101.8 27.1L102.3 27.3C104.4 28.2 107 28.4 108.6 27.9C109.2 27.7 109.5 27.4 109.9 27C112.6 27.3 115.1 29.5 116.6 31.3L116.7 31.4H116.8C117 31.3 117.2 31.1 117.3 31L117.4 30.9L117.3 30.8C115.8 28.8 113.4 27.6 113.3 27.5C111.1 26.5 107.3 25.7 102.3 27Z" fill="white"/>
<path d="M102.4 21.4V21.6C102.7 23.6 103.5 26.2 106.9 25.9H107.1L107 25.7C106.8 24.8 103.7 22.2 102.6 21.5L102.3 21.3L102.4 21.4Z" fill="white"/>
<path d="M126 3.10001L126.1 3.60001C126.4 5.40001 127.2 7.00001 128.2 7.90001L128.4 8.10001L128.5 7.70001V7.60001C128.8 5.70001 127.1 4.00001 126.4 3.40001L126.2 3.20001L126 3.10001Z" fill="white"/>
<path d="M129.5 6.29999L129.3 6.69999C128.8 7.99999 128.6 10.9 128.7 12.3L128.9 13.1L129 13L129.1 12.8C130.2 11.5 130.2 9.79999 130 8.49999C129.9 7.59999 129.7 6.99999 129.6 6.69999L129.5 6.49999V6.29999Z" fill="white"/>
<path d="M130.8 11.3L130.5 11.7C129.5 13 128.1 16.4 128.1 17.6V18L128.4 17.8C130.9 16.2 131 13.1 130.9 11.8V11.6L130.8 11.3Z" fill="white"/>
<path d="M130.4 16.8L130 17C128.4 18 125.9 21.1 125.4 22.4L125.3 22.8L125.7 22.7C128.3 21.9 130 19 130.3 17.2V17L130.4 16.8Z" fill="white"/>
<path d="M125.1 5.79999L125.2 6.29999C125.6 7.59999 126.8 9.79999 127.9 10.7L128.2 10.9V10.5C128.3 8.69999 127.4 7.29999 125.5 6.09999L125.3 5.99999L125.1 5.79999Z" fill="white"/>
<path d="M126.2 9.70001V10.1C126.1 11.4 127.2 14.3 127.9 15.3L128.1 15.6L128.2 15.3C128.3 14.9 128.4 14.6 128.4 14.3C128.5 12.2 126.9 10.5 126.4 10L126.3 9.90001L126.2 9.70001Z" fill="white"/>
<path d="M126.1 13.3L126 13.7C125.9 14 125.8 14.5 125.8 15.1C125.8 16.8 126 18.9 126.4 19.6L126.5 19.9L126.7 19.6C127.2 18.9 127.5 18.1 127.5 17.2C127.5 16.1 127.1 14.8 126.3 13.6L126.2 13.4L126.1 13.3Z" fill="white"/>
<path d="M125.2 17.2L125 17.5C124.2 18.5 123.2 21.9 123.2 23.2C123.2 23.2 123.2 23.4 123.2 23.5L123.3 23.8L123.5 23.7C124.9 22.8 125.6 21.5 125.7 19.9C125.7 19.2 125.6 18.4 125.4 17.6L125.3 17.4L125.2 17.2Z" fill="white"/>
<path d="M128.1 22.4L127.7 22.5C126.3 22.7 122.3 25 121.7 25.9L121.5 26.1H121.8C125.1 26.7 126.9 24.4 127.9 22.7L128 22.5L128.1 22.4Z" fill="white"/>
<path d="M112.2 27.5C112.1 27.5 109.7 28.8 108.2 30.8L108.1 30.9L108.2 31C108.3 31.1 108.6 31.3 108.7 31.4H108.8L108.9 31.3C110.4 29.5 112.9 27.2 115.6 27C116 27.4 116.4 27.7 116.9 27.9C118.4 28.4 121.1 28.2 123.2 27.3L123.7 27.1L123.2 27C118.1 25.7 114.3 26.5 112.2 27.5Z" fill="white"/>
<path d="M123 21.2L122.7 21.4C121.6 22.1 118.6 24.7 118.3 25.6L118.2 25.8H118.4C121.7 26.1 122.5 23.5 122.9 21.5V21.3L123 21.2Z" fill="white"/>
<path d="M38.6 1.20001H42.8V5.00001H38.6V1.20001ZM39 9.40001H42.5V28H39V9.40001Z" fill="white"/>
<path d="M12.5 9.39999H16V28H12.6V25.3H12.5C11.1 27.6 8.7 28.6 6.1 28.6C2.2 28.6 0 25.6 0 21.9V9.39999H3.5V20.4C3.5 23.6 4.2 26 7.6 26C9 26 11 25.3 11.7 23.3C12.4 21.6 12.4 19.4 12.4 18.9V9.39999H12.5Z" fill="white"/>
<path d="M23 12.1C24.3 9.79999 26.8 8.79999 28.7 8.79999C30 8.79999 35.7 9.09999 35.7 15.1V27.9H32.2V16.2C32.2 13.1 30.9 11.5 27.9 11.5C27.9 11.5 26 11.4 24.5 12.9C24 13.4 23 14.2 23 17.9V28H19.5V9.39999H23V12.1Z" fill="white"/>
<path d="M57.2 15.3C57 13 55.9 11.4 53.4 11.4C50.1 11.4 48.8 14.3 48.8 18.6C48.8 22.9 50.1 25.8 53.4 25.8C55.7 25.8 57.1 24.3 57.3 21.6H60.8C60.5 25.8 57.4 28.3 53.3 28.3C47.4 28.3 45 24.1 45 18.7C45 13.3 47.7 8.79999 53.6 8.79999C57.5 8.79999 60.4 11.3 60.6 15.3H57.2Z" fill="white"/>
<path d="M66 19.3C65.7 22.5 67.1 25.9 70.6 25.9C73.3 25.9 74.7 24.8 75.1 22.1H78.8001C78.2001 26.3 75 28.4 70.6 28.4C64.7 28.4 62.3 24.2 62.3 18.8C62.3 13.4 65.0001 8.89999 70.9001 8.89999C76.4001 8.99999 79 12.5 79 17.6V19.3H66ZM75.4001 16.9C75.5001 13.8 74.1 11.4 70.7 11.4C67.8 11.4 66.1 13.9 66.1 16.9H75.4001Z" fill="white"/>
<path d="M83 27.8V11.8H79.8V9.39999H83V5.39999C83.1 1.39999 86.2 0.299988 88.8 0.299988C89.6 0.299988 90.5 0.499988 91.3 0.699988V3.59999C90.7 3.59999 90.1 3.49999 89.5 3.49999C87.5 3.49999 86.4 3.99999 86.5 5.99999V9.39999H90.8V11.8H86.5V27.8H83Z" fill="white"/>
</g>
<defs>
<clipPath id="clip0_511_10085">
<rect width="130.9" height="31.5" fill="white"/>
</clipPath>
</defs>
</svg>
