<svg width="35" height="35" viewBox="0 0 35 35" fill="none" xmlns="http://www.w3.org/2000/svg">
<g clip-path="url(#clip0_687_10060)">
<g clip-path="url(#clip1_687_10060)">
<g filter="url(#filter0_d_687_10060)">
<path d="M7.1875 5.74805H27.8125C29.3659 5.74805 30.625 7.00711 30.625 8.56055V21.6855C30.625 23.239 29.3659 24.498 27.8125 24.498H22.3827C22.259 24.498 22.1417 24.553 22.0626 24.648L17.8201 29.739C17.6535 29.9388 17.3465 29.9388 17.1799 29.739L12.9374 24.648C12.8583 24.553 12.741 24.498 12.6173 24.498H7.1875C5.63407 24.498 4.375 23.239 4.375 21.6855V8.56055C4.375 7.00711 5.63407 5.74805 7.1875 5.74805Z" fill="white"/>
<path d="M27.8132 5.33203C29.5967 5.33203 31.0423 6.77764 31.0423 8.5612V21.6862C31.0423 23.4698 29.5967 24.9154 27.8132 24.9154H22.3835L18.1412 30.0065C17.808 30.4063 17.1933 30.4063 16.8602 30.0065L12.6178 24.9154H7.18815C5.40459 24.9154 3.95898 23.4698 3.95898 21.6862V8.5612C3.95898 6.77764 5.40459 5.33203 7.18815 5.33203H27.8132Z" stroke="url(#paint0_linear_687_10060)" stroke-width="0.833333" stroke-miterlimit="10" stroke-linecap="square" stroke-linejoin="round"/>
</g>
<path d="M10.8327 16.9974C11.7532 16.9974 12.4993 16.2512 12.4993 15.3307C12.4993 14.4103 11.7532 13.6641 10.8327 13.6641C9.91221 13.6641 9.16602 14.4103 9.16602 15.3307C9.16602 16.2512 9.91221 16.9974 10.8327 16.9974Z" fill="#2E3038"/>
<path d="M17.5007 16.9974C18.4211 16.9974 19.1673 16.2512 19.1673 15.3307C19.1673 14.4103 18.4211 13.6641 17.5007 13.6641C16.5802 13.6641 15.834 14.4103 15.834 15.3307C15.834 16.2512 16.5802 16.9974 17.5007 16.9974Z" fill="#2E3038"/>
<path d="M24.1667 16.9974C25.0871 16.9974 25.8333 16.2512 25.8333 15.3307C25.8333 14.4103 25.0871 13.6641 24.1667 13.6641C23.2462 13.6641 22.5 14.4103 22.5 15.3307C22.5 16.2512 23.2462 16.9974 24.1667 16.9974Z" fill="#2E3038"/>
</g>
</g>
<defs>
<filter id="filter0_d_687_10060" x="0.209635" y="4.91602" width="34.5827" height="32.4733" filterUnits="userSpaceOnUse" color-interpolation-filters="sRGB">
<feFlood flood-opacity="0" result="BackgroundImageFix"/>
<feColorMatrix in="SourceAlpha" type="matrix" values="0 0 0 0 0 0 0 0 0 0 0 0 0 0 0 0 0 0 127 0" result="hardAlpha"/>
<feOffset dy="3.33333"/>
<feGaussianBlur stdDeviation="1.66667"/>
<feComposite in2="hardAlpha" operator="out"/>
<feColorMatrix type="matrix" values="0 0 0 0 0 0 0 0 0 0 0 0 0 0 0 0 0 0 0.05 0"/>
<feBlend mode="normal" in2="BackgroundImageFix" result="effect1_dropShadow_687_10060"/>
<feBlend mode="normal" in="SourceGraphic" in2="effect1_dropShadow_687_10060" result="shape"/>
</filter>
<linearGradient id="paint0_linear_687_10060" x1="17.5007" y1="5.7487" x2="17.5007" y2="30.1237" gradientUnits="userSpaceOnUse">
<stop stop-color="#E3E4E9" stop-opacity="0.6"/>
<stop offset="1" stop-color="#C7C9D1" stop-opacity="0.8"/>
</linearGradient>
<clipPath id="clip0_687_10060">
<rect width="35" height="35" fill="white"/>
</clipPath>
<clipPath id="clip1_687_10060">
<rect width="35" height="35.8333" fill="white" transform="translate(0 -0.00195312)"/>
</clipPath>
</defs>
</svg>
