<svg width="35" height="35" viewBox="0 0 35 35" fill="none" xmlns="http://www.w3.org/2000/svg">
<g clip-path="url(#clip0_687_10028)">
<g clip-path="url(#clip1_687_10028)">
<g clip-path="url(#clip2_687_10028)">
<g opacity="0.05" filter="url(#filter0_f_687_10028)">
<path d="M17.5007 36.3294C25.3247 36.3294 31.6673 31.1061 31.6673 24.6628C31.6673 18.2194 25.3247 12.9961 17.5007 12.9961C9.67662 12.9961 3.33398 18.2194 3.33398 24.6628C3.33398 31.1061 9.67662 36.3294 17.5007 36.3294Z" fill="#6B9CFF"/>
</g>
<path d="M7.5 16.3301C7.5 10.8072 11.9772 6.33008 17.5 6.33008C23.0228 6.33008 27.5 10.8072 27.5 16.3301" stroke="#2E3038" stroke-width="1.66667"/>
<g filter="url(#filter1_d_687_10028)">
<path d="M5 21.3294C5 19.4885 6.49238 17.9961 8.33333 17.9961H11.6667V28.8294H8.33333C6.49238 28.8294 5 27.337 5 25.4961V21.3294Z" fill="url(#paint0_linear_687_10028)"/>
<path style="mix-blend-mode:overlay" d="M8.33268 18.4121H11.2493V28.4121H8.33268C6.72185 28.4121 5.41602 27.1063 5.41602 25.4954V21.3288C5.41602 19.7179 6.72185 18.4121 8.33268 18.4121Z" stroke="black" stroke-width="0.833333" stroke-miterlimit="10" stroke-linecap="square" stroke-linejoin="round"/>
</g>
<g filter="url(#filter2_d_687_10028)">
<path d="M30.8327 21.3294C30.8327 19.4885 29.3403 17.9961 27.4993 17.9961H24.166V28.8294H27.4993C29.3403 28.8294 30.8327 27.337 30.8327 25.4961V21.3294Z" fill="url(#paint1_linear_687_10028)"/>
<path style="mix-blend-mode:overlay" d="M27.4987 18.4121H24.582V28.4121H27.4987C29.1095 28.4121 30.4154 27.1063 30.4154 25.4954V21.3288C30.4154 19.7179 29.1095 18.4121 27.4987 18.4121Z" stroke="black" stroke-width="0.833333" stroke-miterlimit="10" stroke-linecap="square" stroke-linejoin="round"/>
</g>
</g>
</g>
</g>
<defs>
<filter id="filter0_f_687_10028" x="0.000651121" y="9.66276" width="35.0007" height="30.0007" filterUnits="userSpaceOnUse" color-interpolation-filters="sRGB">
<feFlood flood-opacity="0" result="BackgroundImageFix"/>
<feBlend mode="normal" in="SourceGraphic" in2="BackgroundImageFix" result="shape"/>
<feGaussianBlur stdDeviation="1.66667" result="effect1_foregroundBlur_687_10028"/>
</filter>
<filter id="filter1_d_687_10028" x="1.66667" y="17.9961" width="13.3327" height="17.5007" filterUnits="userSpaceOnUse" color-interpolation-filters="sRGB">
<feFlood flood-opacity="0" result="BackgroundImageFix"/>
<feColorMatrix in="SourceAlpha" type="matrix" values="0 0 0 0 0 0 0 0 0 0 0 0 0 0 0 0 0 0 127 0" result="hardAlpha"/>
<feOffset dy="3.33333"/>
<feGaussianBlur stdDeviation="1.66667"/>
<feComposite in2="hardAlpha" operator="out"/>
<feColorMatrix type="matrix" values="0 0 0 0 0 0 0 0 0 0 0 0 0 0 0 0 0 0 0.05 0"/>
<feBlend mode="normal" in2="BackgroundImageFix" result="effect1_dropShadow_687_10028"/>
<feBlend mode="normal" in="SourceGraphic" in2="effect1_dropShadow_687_10028" result="shape"/>
</filter>
<filter id="filter2_d_687_10028" x="20.8327" y="17.9961" width="13.3327" height="17.5007" filterUnits="userSpaceOnUse" color-interpolation-filters="sRGB">
<feFlood flood-opacity="0" result="BackgroundImageFix"/>
<feColorMatrix in="SourceAlpha" type="matrix" values="0 0 0 0 0 0 0 0 0 0 0 0 0 0 0 0 0 0 127 0" result="hardAlpha"/>
<feOffset dy="3.33333"/>
<feGaussianBlur stdDeviation="1.66667"/>
<feComposite in2="hardAlpha" operator="out"/>
<feColorMatrix type="matrix" values="0 0 0 0 0 0 0 0 0 0 0 0 0 0 0 0 0 0 0.05 0"/>
<feBlend mode="normal" in2="BackgroundImageFix" result="effect1_dropShadow_687_10028"/>
<feBlend mode="normal" in="SourceGraphic" in2="effect1_dropShadow_687_10028" result="shape"/>
</filter>
<linearGradient id="paint0_linear_687_10028" x1="8.33333" y1="17.9961" x2="8.33333" y2="28.8294" gradientUnits="userSpaceOnUse">
<stop stop-color="#7FAAFF"/>
<stop offset="1" stop-color="#4D88FF"/>
</linearGradient>
<linearGradient id="paint1_linear_687_10028" x1="27.4993" y1="17.9961" x2="27.4993" y2="28.8294" gradientUnits="userSpaceOnUse">
<stop stop-color="#7FAAFF"/>
<stop offset="1" stop-color="#4D88FF"/>
</linearGradient>
<clipPath id="clip0_687_10028">
<rect width="35" height="35" fill="white"/>
</clipPath>
<clipPath id="clip1_687_10028">
<rect width="35" height="36.66" fill="white"/>
</clipPath>
<clipPath id="clip2_687_10028">
<rect width="35" height="36.6667" fill="white" transform="translate(0 2.99609)"/>
</clipPath>
</defs>
</svg>
