<svg width="16" height="14" viewBox="0 0 16 14" fill="none" xmlns="http://www.w3.org/2000/svg">
<path fill-rule="evenodd" clip-rule="evenodd" d="M6.54113 7.05568V13.8237C6.54113 13.9196 6.62767 14 6.73086 14H9.43699C9.54018 14 9.62672 13.9196 9.62672 13.8237V6.94432H11.5873C11.6871 6.94432 11.767 6.87318 11.777 6.78347L11.9667 4.711C11.9767 4.60893 11.8902 4.51922 11.777 4.51922H9.62672V3.04993C9.62672 2.70658 9.9263 2.4251 10.2991 2.4251H11.8103C11.9135 2.4251 12 2.34468 12 2.24878V0.176315C12 0.0804242 11.9135 0 11.8103 0H9.25725C7.75606 0 6.54113 1.12903 6.54113 2.52099V4.51922H5.18973C5.08654 4.51922 5 4.59965 5 4.69554V6.76801C5 6.8639 5.08654 6.94432 5.18973 6.94432H6.54113V7.05568Z" fill="white"/>
</svg>
