<svg width="16" height="13" viewBox="0 0 16 13" fill="none" xmlns="http://www.w3.org/2000/svg">
<path d="M2.21426 4.31635H4.91246V13H2.21426V4.31635ZM3.56518 0C4.42947 0 5.12672 0.702408 5.12672 1.56495C5.12672 2.42749 4.42584 3.1299 3.56518 3.1299C2.70451 3.1299 2 2.42749 2 1.56495C2 0.702408 2.69725 0 3.56518 0Z" fill="white"/>
<path d="M6.59961 4.31627H9.18524V5.50272H9.22155C9.58107 4.8185 10.4599 4.0979 11.7709 4.0979C14.4981 4.0979 14.9993 5.89577 14.9993 8.23592V12.9999H12.3083V8.77819C12.3083 7.77007 12.2902 6.47444 10.9066 6.47444C9.52297 6.47444 9.29055 7.5699 9.29055 8.7054V12.9999H6.59961V4.31627Z" fill="white"/>
</svg>
