<svg width="180" height="39" viewBox="0 0 180 39" fill="none" xmlns="http://www.w3.org/2000/svg">
<g clip-path="url(#clip0_459_6759)">
<path d="M18.0203 13.8906C18.0203 14.6777 18.1053 15.3158 18.2543 15.7838C18.4244 16.2518 18.6372 16.7624 18.935 17.3154C19.0413 17.4855 19.0839 17.6558 19.0839 17.8047C19.0839 18.0174 18.9563 18.2301 18.6797 18.4428L17.3396 19.3362C17.1482 19.4639 16.9566 19.5276 16.7865 19.5276C16.5738 19.5276 16.361 19.4213 16.1483 19.2299C15.8505 18.9108 15.5952 18.5705 15.3825 18.2301C15.1698 17.8685 14.9571 17.4644 14.7231 16.9751C13.0639 18.9321 10.9792 19.9106 8.46915 19.9106C6.6823 19.9106 5.25707 19.4001 4.21475 18.3791C3.17242 17.358 2.64062 15.9966 2.64062 14.2948C2.64062 12.4866 3.27878 11.0189 4.57637 9.91274C5.87396 8.80661 7.597 8.25353 9.788 8.25353C10.5113 8.25353 11.2558 8.31734 12.0428 8.4237C12.8299 8.53007 13.6382 8.70024 14.4891 8.89169V7.33883C14.4891 5.72216 14.1488 4.59474 13.4893 3.93531C12.8086 3.27588 11.6599 2.9568 10.022 2.9568C9.27748 2.9568 8.51168 3.0419 7.72462 3.23334C6.93757 3.42479 6.17177 3.65879 5.42725 3.95658C5.0869 4.10549 4.83164 4.19058 4.68274 4.23312C4.53383 4.27566 4.42747 4.29695 4.34239 4.29695C4.04458 4.29695 3.89567 4.08422 3.89567 3.6375V2.59518C3.89567 2.25483 3.93822 1.99956 4.04458 1.85066C4.15093 1.70177 4.34239 1.55286 4.64018 1.40395C5.38471 1.02105 6.27814 0.701975 7.32046 0.446712C8.36278 0.170176 9.46892 0.0425439 10.6389 0.0425439C13.1702 0.0425439 15.0209 0.616887 16.2122 1.76558C17.3822 2.91426 17.9777 4.65857 17.9777 6.99848V13.8906H18.0203ZM9.38385 17.124C10.0858 17.124 10.8091 16.9964 11.5749 16.7411C12.3406 16.4858 13.0213 16.0178 13.5957 15.3797C13.936 14.9755 14.1913 14.5288 14.3189 14.0182C14.4466 13.5077 14.5317 12.8908 14.5317 12.1676V11.2742C13.9148 11.1252 13.2553 10.9976 12.5746 10.9125C11.8939 10.8274 11.2345 10.7849 10.5751 10.7849C9.14985 10.7849 8.10752 11.0614 7.40555 11.6358C6.70357 12.2101 6.36322 13.0185 6.36322 14.082C6.36322 15.0819 6.61849 15.8264 7.15029 16.337C7.66081 16.8687 8.40533 17.124 9.38385 17.124ZM26.4653 19.4213C26.0823 19.4213 25.827 19.3575 25.6569 19.2086C25.4867 19.0809 25.3379 18.7832 25.2102 18.3791L20.2113 1.93575C20.0837 1.51031 20.0198 1.23377 20.0198 1.08487C20.0198 0.744519 20.19 0.553071 20.5304 0.553071H22.6151C23.0192 0.553071 23.2958 0.616887 23.4446 0.765791C23.6148 0.893423 23.7425 1.19123 23.8701 1.5954L27.4437 15.6774L30.7622 1.5954C30.8685 1.16996 30.9962 0.893423 31.1663 0.765791C31.3365 0.638159 31.6343 0.553071 32.0172 0.553071H33.719C34.1231 0.553071 34.3997 0.616887 34.5699 0.765791C34.74 0.893423 34.889 1.19123 34.974 1.5954L38.3349 15.8477L42.015 1.5954C42.1427 1.16996 42.2916 0.893423 42.4404 0.765791C42.6107 0.638159 42.8871 0.553071 43.2701 0.553071H45.2484C45.5888 0.553071 45.7802 0.723248 45.7802 1.08487C45.7802 1.19123 45.7589 1.29759 45.7376 1.42522C45.7164 1.55286 45.6738 1.72304 45.5888 1.95702L40.4622 18.4002C40.3346 18.8258 40.1856 19.1022 40.0155 19.2299C39.8453 19.3575 39.5688 19.4426 39.2072 19.4426H37.3778C36.9735 19.4426 36.6971 19.3788 36.5268 19.2299C36.3567 19.0809 36.2078 18.8045 36.1227 18.3791L32.8256 4.65857L29.5497 18.3578C29.4434 18.7832 29.3157 19.0598 29.1455 19.2086C28.9754 19.3575 28.6775 19.4213 28.2947 19.4213H26.4653ZM53.7998 19.9956C52.6935 19.9956 51.5874 19.868 50.5238 19.6128C49.4603 19.3575 48.6306 19.0809 48.0776 18.7619C47.7372 18.5705 47.5032 18.3578 47.4182 18.1662C47.333 17.9748 47.2905 17.7621 47.2905 17.5707V16.4858C47.2905 16.0391 47.4606 15.8264 47.7798 15.8264C47.9073 15.8264 48.035 15.8477 48.1626 15.8901C48.2903 15.9327 48.4817 16.0178 48.6944 16.103C49.4177 16.422 50.2047 16.6773 51.0344 16.8474C51.8852 17.0177 52.7148 17.1027 53.5658 17.1027C54.9059 17.1027 55.9482 16.8687 56.6714 16.4007C57.3947 15.9327 57.7776 15.252 57.7776 14.3799C57.7776 13.7842 57.5861 13.295 57.2033 12.8908C56.8203 12.4866 56.097 12.125 55.0548 11.7847L51.9704 10.8274C50.4174 10.3382 49.2687 9.61494 48.5669 8.6577C47.8649 7.72173 47.5032 6.6794 47.5032 5.57325C47.5032 4.67984 47.6946 3.89277 48.0776 3.21207C48.4605 2.53137 48.971 1.93575 49.6091 1.46777C50.2473 0.978512 50.9705 0.616887 51.8214 0.361623C52.6724 0.10636 53.5658 0 54.5016 0C54.9696 0 55.4589 0.021272 55.9269 0.085088C56.4162 0.148904 56.8629 0.233991 57.3096 0.31908C57.735 0.425439 58.1393 0.5318 58.5221 0.659432C58.905 0.787064 59.2028 0.914696 59.4155 1.04233C59.7134 1.2125 59.9261 1.38268 60.0537 1.57413C60.1814 1.74431 60.2451 1.97829 60.2451 2.2761V3.27588C60.2451 3.7226 60.075 3.95658 59.7558 3.95658C59.5857 3.95658 59.3091 3.8715 58.9475 3.70133C57.735 3.14825 56.3736 2.87172 54.8633 2.87172C53.6508 2.87172 52.6935 3.06317 52.0341 3.46733C51.3747 3.8715 51.0344 4.48839 51.0344 5.36054C51.0344 5.95616 51.2471 6.46668 51.6725 6.87086C52.098 7.27502 52.8851 7.67919 54.0125 8.04081L57.033 8.99805C58.5647 9.48731 59.6708 10.168 60.3302 11.0402C60.9896 11.9123 61.3088 12.9121 61.3088 14.0182C61.3088 14.9329 61.1172 15.7626 60.7557 16.4858C60.3728 17.2091 59.8622 17.8472 59.2028 18.3578C58.5434 18.8895 57.7563 19.2725 56.8416 19.5489C55.8843 19.8468 54.8846 19.9956 53.7998 19.9956Z" fill="black"/>
<path fill-rule="evenodd" clip-rule="evenodd" d="M57.824 30.3351C50.8256 35.5042 40.6575 38.2482 31.9148 38.2482C19.6622 38.2482 8.62196 33.7173 0.283346 26.187C-0.376085 25.5915 0.21953 24.7831 1.00659 25.2511C10.0259 30.484 21.1512 33.6535 32.6592 33.6535C40.4235 33.6535 48.9536 32.0368 56.8029 28.7184C57.9729 28.1866 58.9727 29.4841 57.824 30.3351Z" fill="black"/>
<path fill-rule="evenodd" clip-rule="evenodd" d="M60.7395 27.0149C59.8461 25.8662 54.826 26.4619 52.5499 26.7383C51.8692 26.8235 51.7628 26.2279 52.3796 25.7812C56.3787 22.9733 62.9519 23.7815 63.7176 24.7175C64.4834 25.6748 63.505 32.2478 59.7611 35.396C59.1868 35.8853 58.6335 35.63 58.8888 34.9919C59.7398 32.8859 61.6329 28.1423 60.7395 27.0149Z" fill="black"/>
</g>
<defs>
<clipPath id="clip0_459_6759">
<rect width="64.5" height="39" fill="white"/>
</clipPath>
</defs>
</svg>
