<svg width="180" height="30" viewBox="0 0 180 30" fill="none" xmlns="http://www.w3.org/2000/svg">
<g clip-path="url(#clip0_459_6779)">
<g clip-path="url(#clip1_459_6779)">
<path d="M139.5 13.4003V10.9602H136.47V7.16668L136.368 7.19809L133.522 8.06892L133.466 8.08596V10.9603H128.974V9.35906C128.974 8.61345 129.14 8.04288 129.469 7.66237C129.795 7.28641 130.262 7.09528 130.857 7.09528C131.285 7.09528 131.728 7.19608 132.174 7.39486L132.286 7.4448V4.87501L132.233 4.85568C131.817 4.70616 131.251 4.63086 130.55 4.63086C129.666 4.63086 128.863 4.8232 128.163 5.20438C127.462 5.5861 126.911 6.13104 126.525 6.82389C126.14 7.51593 125.945 8.31522 125.945 9.19972V10.9602H123.835V13.4003H125.945V23.6801H128.974V13.4003H133.466V19.933C133.466 22.6234 134.735 23.9869 137.238 23.9869C137.649 23.9869 138.082 23.9386 138.524 23.8442C138.974 23.7473 139.28 23.6506 139.46 23.5472L139.5 23.5237V21.061L139.377 21.1424C139.213 21.2519 139.008 21.3415 138.768 21.4081C138.527 21.4759 138.326 21.5098 138.17 21.5098C137.584 21.5098 137.15 21.3518 136.88 21.04C136.608 20.7254 136.47 20.1752 136.47 19.4056V13.4003H139.5ZM117.071 21.5102C115.971 21.5102 115.104 21.1456 114.494 20.4275C113.879 19.7059 113.567 18.6769 113.567 17.3696C113.567 16.0208 113.879 14.9652 114.494 14.2307C115.105 13.5011 115.963 13.1308 117.046 13.1308C118.096 13.1308 118.932 13.4844 119.531 14.1825C120.133 14.8842 120.438 15.9314 120.438 17.296C120.438 18.6772 120.151 19.7381 119.585 20.4479C119.022 21.1523 118.176 21.5102 117.071 21.5102ZM117.205 10.6537C115.108 10.6537 113.442 11.2683 112.254 12.4805C111.067 13.6928 110.465 15.3704 110.465 17.4671C110.465 19.4588 111.053 21.0607 112.211 22.2277C113.37 23.3951 114.947 23.9866 116.899 23.9866C118.932 23.9866 120.564 23.3633 121.752 22.1344C122.939 20.9069 123.54 19.2451 123.54 17.1973C123.54 15.1745 122.976 13.5607 121.862 12.4014C120.748 11.2416 119.181 10.6537 117.205 10.6537ZM105.581 10.6537C104.155 10.6537 102.974 11.0187 102.073 11.7382C101.166 12.4621 100.706 13.4114 100.706 14.5602C100.706 15.1574 100.805 15.6878 101 16.1377C101.197 16.5892 101.501 16.9865 101.906 17.3201C102.307 17.6509 102.926 17.9975 103.747 18.35C104.437 18.634 104.951 18.8741 105.278 19.0633C105.597 19.2488 105.824 19.4353 105.952 19.6169C106.076 19.7945 106.14 20.0378 106.14 20.3378C106.14 21.1925 105.5 21.6083 104.183 21.6083C103.694 21.6083 103.137 21.5063 102.527 21.3052C101.921 21.1072 101.349 20.8172 100.831 20.4454L100.705 20.3552V23.2714L100.752 23.2928C101.18 23.4907 101.72 23.6576 102.357 23.7889C102.993 23.9203 103.571 23.987 104.072 23.987C105.621 23.987 106.867 23.6204 107.777 22.8965C108.693 22.1677 109.157 21.196 109.157 20.0074C109.157 19.15 108.907 18.4148 108.415 17.8217C107.926 17.2336 107.077 16.6937 105.893 16.2164C104.95 15.8378 104.346 15.5237 104.097 15.2825C103.856 15.0494 103.735 14.72 103.735 14.3027C103.735 13.9328 103.885 13.6364 104.194 13.3964C104.506 13.1552 104.939 13.0325 105.483 13.0325C105.988 13.0325 106.504 13.1123 107.018 13.2685C107.531 13.4247 107.982 13.634 108.358 13.8899L108.482 13.9745V11.2082L108.434 11.1878C108.087 11.0389 107.629 10.9116 107.073 10.8082C106.52 10.7055 106.018 10.6537 105.581 10.6537ZM92.8094 21.5102C91.7102 21.5102 90.8432 21.1456 90.2324 20.4275C89.6177 19.7059 89.3069 18.6772 89.3069 17.3696C89.3069 16.0208 89.6182 14.9652 90.2332 14.2307C90.8438 13.5011 91.7021 13.1308 92.7851 13.1308C93.835 13.1308 94.6711 13.4844 95.27 14.1825C95.872 14.8842 96.1774 15.9314 96.1774 17.296C96.1774 18.6772 95.89 19.7381 95.3236 20.4479C94.7611 21.1523 93.9157 21.5102 92.8094 21.5102ZM92.9444 10.6537C90.8464 10.6537 89.1803 11.2683 87.9931 12.4805C86.8061 13.6928 86.2039 15.3704 86.2039 17.4671C86.2039 19.4596 86.7917 21.0607 87.9506 22.2277C89.1095 23.3951 90.6865 23.9866 92.6375 23.9866C94.6705 23.9866 96.3037 23.3633 97.4909 22.1344C98.6779 20.9069 99.2797 19.2451 99.2797 17.1973C99.2797 15.1745 98.7151 13.5607 97.6012 12.4014C96.4868 11.2416 94.9199 10.6537 92.9444 10.6537ZM81.6059 13.163V10.9602H78.614V23.6798H81.6059V17.1733C81.6059 16.0669 81.8569 15.1579 82.3519 14.4714C82.8406 13.793 83.4917 13.4493 84.2869 13.4493C84.5564 13.4493 84.859 13.4937 85.1866 13.5816C85.5109 13.669 85.7458 13.7639 85.8842 13.8637L86.0101 13.9549V10.9384L85.9616 10.9176C85.6829 10.7992 85.2887 10.7395 84.79 10.7395C84.038 10.7395 83.3653 10.9811 82.7888 11.4568C82.283 11.8749 81.9173 12.4481 81.6379 13.163H81.6059ZM73.2557 10.6537C71.8831 10.6537 70.6588 10.9481 69.6173 11.5283C68.5738 12.1099 67.7666 12.9402 67.2176 13.996C66.6709 15.0493 66.3934 16.2794 66.3934 17.6515C66.3934 18.8533 66.6625 19.9562 67.1944 20.9282C67.7266 21.9019 68.4797 22.6636 69.4333 23.1919C70.3855 23.7194 71.4859 23.9869 72.7043 23.9869C74.1263 23.9869 75.3403 23.7026 76.3136 23.1421L76.3531 23.1194V20.3783L76.2272 20.4701C75.7864 20.7913 75.2936 21.0476 74.7634 21.2323C74.2346 21.4169 73.7525 21.5102 73.3297 21.5102C72.1556 21.5102 71.2132 21.1429 70.529 20.4185C69.8435 19.6934 69.4958 18.6751 69.4958 17.3936C69.4958 16.1042 69.8584 15.0596 70.5728 14.289C71.2852 13.5206 72.2294 13.1308 73.379 13.1308C74.3626 13.1308 75.3209 13.4638 76.2275 14.1215L76.3531 14.2126V11.3243L76.3124 11.3015C75.9713 11.1105 75.5059 10.9528 74.9282 10.8332C74.353 10.7139 73.7903 10.6537 73.2557 10.6537ZM64.3327 10.9603H61.3406V23.6798H64.3327V10.9603ZM62.8672 5.54169C62.3747 5.54169 61.9453 5.70933 61.5923 6.04152C61.238 6.37465 61.0583 6.7941 61.0583 7.2891C61.0583 7.77631 61.2359 8.18811 61.5869 8.51238C61.9355 8.83572 62.3665 8.99961 62.8673 8.99961C63.3682 8.99961 63.8006 8.83572 64.1534 8.51292C64.5086 8.18811 64.6888 7.77645 64.6888 7.2891C64.6888 6.81141 64.5134 6.39627 64.1681 6.05494C63.823 5.71429 63.3851 5.54169 62.8672 5.54169ZM55.4018 10.0218V23.6798H58.4554V5.93106H54.2291L48.8575 19.1143L43.6444 5.93106H39.2461V23.6797H42.1156V10.0205H42.2141L47.719 23.6798H49.8845L55.3033 10.0218H55.4018Z" fill="black"/>
<path d="M14.8254 14.0754H0.75V0H14.8254V14.0754Z" fill="black"/>
<path d="M30.3643 14.0754H16.2891V0H30.3643V14.0754Z" fill="black"/>
<path d="M14.825 29.6221H0.75V15.5469H14.825V29.6221Z" fill="black"/>
<path d="M30.3643 29.6221H16.2891V15.5469H30.3643V29.6221Z" fill="black"/>
</g>
</g>
<defs>
<clipPath id="clip0_459_6779">
<rect width="139.5" height="30" fill="white"/>
</clipPath>
<clipPath id="clip1_459_6779">
<rect width="139.5" height="30" fill="white"/>
</clipPath>
</defs>
</svg>
