<svg width="20" height="20" viewBox="0 0 20 20" fill="none" xmlns="http://www.w3.org/2000/svg">
<g clip-path="url(#clip0_712_10195)">
<path d="M18.0023 5.93667V13.8847C18.0023 14.1791 17.923 14.4621 17.7985 14.6999L16.8701 13.7828L12.9414 9.91069L16.8701 6.04989L17.7985 5.13281C17.9344 5.37057 18.0023 5.6423 18.0023 5.93667Z" fill="white"/>
<path d="M16.971 15.4682C16.7559 15.5701 16.5068 15.6267 16.2577 15.6267H3.81484C3.56576 15.6267 3.31667 15.5701 3.10156 15.4682L4.09789 14.4945L7.94737 10.7129L8.79652 11.5508C9.13618 11.8904 9.58906 12.0489 10.042 12.0489C10.4949 12.0489 10.9364 11.8904 11.2761 11.5508L12.1365 10.7129L15.9747 14.4945L16.971 15.4682Z" fill="white"/>
<path d="M7.13124 9.91069L3.20251 13.7828L2.27411 14.6885C2.13824 14.4508 2.07031 14.1791 2.07031 13.8847V5.93667C2.07031 5.6423 2.13824 5.37057 2.27411 5.13281L3.20251 6.03857L7.13124 9.91069Z" fill="white"/>
<path d="M16.982 4.34992L15.9856 5.32361L10.4831 10.7468C10.234 10.9846 9.83775 10.9846 9.58866 10.7468L4.08617 5.32361L3.08984 4.34992C3.30496 4.24802 3.55404 4.19141 3.81445 4.19141H16.2574C16.5178 4.19141 16.7668 4.24802 16.982 4.34992Z" fill="white"/>
</g>
<defs>
<clipPath id="clip0_712_10195">
<rect width="20" height="20" fill="white"/>
</clipPath>
</defs>
</svg>
